<svg xmlns="http://www.w3.org/2000/svg" fill="none" viewBox="0 0 2280 3420"><path stroke="#2E2E2E" stroke-linecap="square" stroke-width="4" d="M245 475h1940M245 665h1940M245 855h1940M245 1045h1940M245 1235h1940M245 1425h1940M245 1615h1940M245 1805h1940M245 2565h1940M245 1995h1940M245 2755h1940M245 2185h1940M245 2945h1940M245 2375h1940M245 3135h1940"/><path stroke="#878787" stroke-linecap="square" stroke-width="4" d="M245 3325h1940"/><path stroke="#2E2E2E" stroke-linecap="square" stroke-width="4" d="M475 245v3080M665 245v3080M855 245v3080M1045 245v3080M1235 245v2320M1425 245v3080M1615 245v3080M1805 245v3080M1995 245v3080"/><path stroke="#878787" stroke-linecap="square" stroke-width="4" d="M245 285h1940M285 245v3080M1235 2565v760M2185 245v3080M245 2565h1940"/><path fill="#fff" d="M132.036 427.92c-6.827 0-12.8-1.429-17.92-4.288-5.12-2.859-9.109-6.848-11.968-11.968s-4.288-11.093-4.288-17.92v-27.648c0-6.827 1.43-12.8 4.288-17.92 2.859-5.12 6.848-9.109 11.968-11.968s11.093-4.288 17.92-4.288c6.827 0 12.8 1.429 17.92 4.288 5.12 2.859 9.109 6.848 11.968 11.968s4.288 11.093 4.288 17.92v27.648c0 6.827-1.429 12.8-4.288 17.92-2.859 5.12-6.848 9.109-11.968 11.968s-11.093 4.288-17.92 4.288Zm0-16.512c3.072 0 5.845-.725 8.32-2.176a16.231 16.231 0 0 0 5.888-5.888c1.451-2.475 2.176-5.248 2.176-8.32v-30.336c0-3.072-.725-5.845-2.176-8.32a16.231 16.231 0 0 0-5.888-5.888c-2.475-1.451-5.248-2.176-8.32-2.176s-5.845.725-8.32 2.176a16.231 16.231 0 0 0-5.888 5.888c-1.451 2.475-2.176 5.248-2.176 8.32v30.336c0 3.072.725 5.845 2.176 8.32a16.231 16.231 0 0 0 5.888 5.888c2.475 1.451 5.248 2.176 8.32 2.176Z"/><path fill="#F44336" d="M211.886 427.92c-6.827 0-12.8-1.429-17.92-4.288-5.12-2.859-9.109-6.848-11.968-11.968s-4.288-11.093-4.288-17.92v-27.648c0-6.827 1.429-12.8 4.288-17.92 2.859-5.12 6.848-9.109 11.968-11.968s11.093-4.288 17.92-4.288c6.827 0 12.8 1.429 17.92 4.288 5.12 2.859 9.109 6.848 11.968 11.968s4.288 11.093 4.288 17.92v27.648c0 6.827-1.429 12.8-4.288 17.92-2.859 5.12-6.848 9.109-11.968 11.968s-11.093 4.288-17.92 4.288Zm0-16.512c3.072 0 5.845-.725 8.32-2.176a16.231 16.231 0 0 0 5.888-5.888c1.451-2.475 2.176-5.248 2.176-8.32v-30.336c0-3.072-.725-5.845-2.176-8.32a16.231 16.231 0 0 0-5.888-5.888c-2.475-1.451-5.248-2.176-8.32-2.176s-5.845.725-8.32 2.176a16.231 16.231 0 0 0-5.888 5.888c-1.451 2.475-2.176 5.248-2.176 8.32v30.336c0 3.072.725 5.845 2.176 8.32a16.231 16.231 0 0 0 5.888 5.888c2.475 1.451 5.248 2.176 8.32 2.176Z"/><path fill="#fff" d="M129.185 616v-73.216l-17.28 10.624v-19.2l17.28-10.368h17.792V616h-17.792Z"/><path fill="#0080FD" d="M211.886 617.92c-6.827 0-12.8-1.429-17.92-4.288-5.12-2.859-9.109-6.848-11.968-11.968s-4.288-11.093-4.288-17.92v-27.648c0-6.827 1.429-12.8 4.288-17.92 2.859-5.12 6.848-9.109 11.968-11.968s11.093-4.288 17.92-4.288c6.827 0 12.8 1.429 17.92 4.288 5.12 2.859 9.109 6.848 11.968 11.968s4.288 11.093 4.288 17.92v27.648c0 6.827-1.429 12.8-4.288 17.92-2.859 5.12-6.848 9.109-11.968 11.968s-11.093 4.288-17.92 4.288Zm0-16.512c3.072 0 5.845-.725 8.32-2.176a16.231 16.231 0 0 0 5.888-5.888c1.451-2.475 2.176-5.248 2.176-8.32v-30.336c0-3.072-.725-5.845-2.176-8.32a16.231 16.231 0 0 0-5.888-5.888c-2.475-1.451-5.248-2.176-8.32-2.176s-5.845.725-8.32 2.176a16.231 16.231 0 0 0-5.888 5.888c-1.451 2.475-2.176 5.248-2.176 8.32v30.336c0 3.072.725 5.845 2.176 8.32a16.231 16.231 0 0 0 5.888 5.888c2.475 1.451 5.248 2.176 8.32 2.176Z"/><path fill="#fff" d="M104.3 805.872v-15.104l38.656-34.304c2.901-2.56 4.949-4.971 6.144-7.232 1.195-2.261 1.792-4.373 1.792-6.336 0-2.816-.576-5.312-1.728-7.488-1.152-2.219-2.773-3.947-4.864-5.184-2.091-1.28-4.544-1.92-7.36-1.92-2.944 0-5.547.683-7.808 2.048-2.219 1.323-3.947 3.093-5.184 5.312-1.237 2.176-1.813 4.544-1.728 7.104H104.3c0-6.315 1.387-11.776 4.16-16.384 2.773-4.608 6.635-8.171 11.584-10.688 4.949-2.517 10.709-3.776 17.28-3.776 6.016 0 11.392 1.323 16.128 3.968 4.779 2.603 8.533 6.251 11.264 10.944 2.731 4.693 4.096 10.133 4.096 16.32 0 4.565-.64 8.363-1.92 11.392-1.28 2.987-3.179 5.76-5.696 8.32-2.517 2.517-5.611 5.376-9.28 8.576l-24.96 21.888-1.408-3.84h43.264v16.384H104.3Z"/><path fill="#E8BD00" d="M211.886 807.92c-6.827 0-12.8-1.429-17.92-4.288-5.12-2.859-9.109-6.848-11.968-11.968s-4.288-11.093-4.288-17.92v-27.648c0-6.827 1.429-12.8 4.288-17.92 2.859-5.12 6.848-9.109 11.968-11.968s11.093-4.288 17.92-4.288c6.827 0 12.8 1.429 17.92 4.288 5.12 2.859 9.109 6.848 11.968 11.968s4.288 11.093 4.288 17.92v27.648c0 6.827-1.429 12.8-4.288 17.92-2.859 5.12-6.848 9.109-11.968 11.968s-11.093 4.288-17.92 4.288Zm0-16.512c3.072 0 5.845-.725 8.32-2.176a16.231 16.231 0 0 0 5.888-5.888c1.451-2.475 2.176-5.248 2.176-8.32v-30.336c0-3.072-.725-5.845-2.176-8.32a16.231 16.231 0 0 0-5.888-5.888c-2.475-1.451-5.248-2.176-8.32-2.176s-5.845.725-8.32 2.176a16.231 16.231 0 0 0-5.888 5.888c-1.451 2.475-2.176 5.248-2.176 8.32v30.336c0 3.072.725 5.845 2.176 8.32a16.231 16.231 0 0 0 5.888 5.888c2.475 1.451 5.248 2.176 8.32 2.176Z"/><path fill="#fff" d="M135.365 997.664c-4.608 0-9.003-.917-13.184-2.752a33.352 33.352 0 0 1-10.944-7.872c-3.072-3.371-5.269-7.339-6.592-11.904l16.896-4.48c.896 3.371 2.645 5.995 5.248 7.872 2.645 1.835 5.504 2.752 8.576 2.752 2.645 0 5.056-.64 7.232-1.92 2.219-1.28 3.968-3.008 5.248-5.184 1.323-2.176 1.984-4.587 1.984-7.232 0-3.968-1.365-7.36-4.096-10.176-2.688-2.859-6.144-4.288-10.368-4.288-1.28 0-2.517.192-3.712.576a15.29 15.29 0 0 0-3.456 1.472l-7.808-13.696 29.312-24.32 1.28 3.712h-42.752V903.84h57.6v16.384l-22.784 22.016-.128-4.864c5.291.811 9.749 2.667 13.376 5.568 3.669 2.859 6.443 6.4 8.32 10.624 1.92 4.181 2.88 8.64 2.88 13.376 0 5.803-1.472 11.029-4.416 15.68-2.944 4.608-6.848 8.277-11.712 11.008-4.864 2.688-10.197 4.032-16 4.032Z"/><path fill="#15B550" d="M211.886 997.92c-6.827 0-12.8-1.429-17.92-4.288-5.12-2.859-9.109-6.848-11.968-11.968s-4.288-11.093-4.288-17.92v-27.648c0-6.827 1.429-12.8 4.288-17.92 2.859-5.12 6.848-9.109 11.968-11.968s11.093-4.288 17.92-4.288c6.827 0 12.8 1.429 17.92 4.288 5.12 2.859 9.109 6.848 11.968 11.968s4.288 11.093 4.288 17.92v27.648c0 6.827-1.429 12.8-4.288 17.92-2.859 5.12-6.848 9.109-11.968 11.968s-11.093 4.288-17.92 4.288Zm0-16.512c3.072 0 5.845-.725 8.32-2.176a16.231 16.231 0 0 0 5.888-5.888c1.451-2.475 2.176-5.248 2.176-8.32v-30.336c0-3.072-.725-5.845-2.176-8.32a16.231 16.231 0 0 0-5.888-5.888c-2.475-1.451-5.248-2.176-8.32-2.176s-5.845.725-8.32 2.176a16.231 16.231 0 0 0-5.888 5.888c-1.451 2.475-2.176 5.248-2.176 8.32v30.336c0 3.072.725 5.845 2.176 8.32a16.231 16.231 0 0 0 5.888 5.888c2.475 1.451 5.248 2.176 8.32 2.176Z"/><path fill="#fff" d="M142.864 1186v-14.34H102.8v-16.25l29.056-61.57h19.968l-29.056 61.57h20.096v-23.04h17.664v23.04h8.192v16.25h-8.192V1186h-17.664Z"/><path fill="#FF8E00" d="M211.886 1187.92c-6.827 0-12.8-1.43-17.92-4.29-5.12-2.86-9.109-6.85-11.968-11.97-2.859-5.12-4.288-11.09-4.288-17.92v-27.64c0-6.83 1.429-12.8 4.288-17.92 2.859-5.12 6.848-9.11 11.968-11.97 5.12-2.86 11.093-4.29 17.92-4.29 6.827 0 12.8 1.43 17.92 4.29 5.12 2.86 9.109 6.85 11.968 11.97 2.859 5.12 4.288 11.09 4.288 17.92v27.64c0 6.83-1.429 12.8-4.288 17.92-2.859 5.12-6.848 9.11-11.968 11.97-5.12 2.86-11.093 4.29-17.92 4.29Zm0-16.51c3.072 0 5.845-.73 8.32-2.18a16.191 16.191 0 0 0 5.888-5.89c1.451-2.47 2.176-5.24 2.176-8.32v-30.33c0-3.07-.725-5.85-2.176-8.32a16.191 16.191 0 0 0-5.888-5.89c-2.475-1.45-5.248-2.18-8.32-2.18s-5.845.73-8.32 2.18a16.191 16.191 0 0 0-5.888 5.89c-1.451 2.47-2.176 5.25-2.176 8.32v30.33c0 3.08.725 5.85 2.176 8.32a16.191 16.191 0 0 0 5.888 5.89c2.475 1.45 5.248 2.18 8.32 2.18Z"/><path fill="#fff" d="M136.127 1377.92c-4.651 0-9.024-.96-13.12-2.88a31.606 31.606 0 0 1-10.496-8c-2.944-3.41-5.056-7.38-6.336-11.9l16.768-4.48c.555 2.17 1.536 4.05 2.944 5.63a16.27 16.27 0 0 0 4.992 3.71c1.92.85 3.883 1.28 5.888 1.28 2.645 0 5.056-.64 7.232-1.92 2.219-1.28 3.968-3.01 5.248-5.18 1.323-2.18 1.984-4.59 1.984-7.24 0-2.64-.661-5.05-1.984-7.23-1.28-2.17-3.029-3.9-5.248-5.18-2.176-1.28-4.587-1.92-7.232-1.92-3.243 0-5.888.55-7.936 1.66-2.048 1.07-3.584 2.09-4.608 3.07l-14.72-4.48 2.816-49.02h50.304v16.26h-40.704l6.144-5.76-1.92 31.61-2.944-3.58c2.304-1.88 4.928-3.24 7.872-4.1 2.944-.85 5.696-1.28 8.256-1.28 5.803 0 10.901 1.3 15.296 3.91 4.437 2.56 7.893 6.1 10.368 10.62 2.517 4.48 3.776 9.62 3.776 15.42 0 5.81-1.515 11.05-4.544 15.75-3.029 4.65-7.019 8.36-11.968 11.13-4.949 2.73-10.325 4.1-16.128 4.1Z"/><path fill="#8F4EFF" d="M211.886 1377.92c-6.827 0-12.8-1.43-17.92-4.29-5.12-2.86-9.109-6.85-11.968-11.97-2.859-5.12-4.288-11.09-4.288-17.92v-27.64c0-6.83 1.429-12.8 4.288-17.92 2.859-5.12 6.848-9.11 11.968-11.97 5.12-2.86 11.093-4.29 17.92-4.29 6.827 0 12.8 1.43 17.92 4.29 5.12 2.86 9.109 6.85 11.968 11.97 2.859 5.12 4.288 11.09 4.288 17.92v27.64c0 6.83-1.429 12.8-4.288 17.92-2.859 5.12-6.848 9.11-11.968 11.97-5.12 2.86-11.093 4.29-17.92 4.29Zm0-16.51c3.072 0 5.845-.73 8.32-2.18a16.191 16.191 0 0 0 5.888-5.89c1.451-2.47 2.176-5.24 2.176-8.32v-30.33c0-3.07-.725-5.85-2.176-8.32a16.191 16.191 0 0 0-5.888-5.89c-2.475-1.45-5.248-2.18-8.32-2.18s-5.845.73-8.32 2.18a16.191 16.191 0 0 0-5.888 5.89c-1.451 2.47-2.176 5.25-2.176 8.32v30.33c0 3.08.725 5.85 2.176 8.32a16.191 16.191 0 0 0 5.888 5.89c2.475 1.45 5.248 2.18 8.32 2.18Z"/><path fill="#fff" d="M136.613 1567.92c-6.101 0-11.584-1.43-16.448-4.29-4.821-2.86-8.64-6.82-11.456-11.9-2.816-5.12-4.224-11.03-4.224-17.73v-26.75c0-7.26 1.408-13.51 4.224-18.75 2.816-5.29 6.784-9.35 11.904-12.16 5.12-2.86 11.136-4.29 18.048-4.29 4.48 0 8.747.66 12.8 1.98 4.053 1.32 7.765 3.56 11.136 6.72l-12.416 12.42a16.743 16.743 0 0 0-5.312-3.59 15.763 15.763 0 0 0-6.208-1.28c-3.328 0-6.229.79-8.704 2.37-2.432 1.54-4.331 3.56-5.696 6.08a16.601 16.601 0 0 0-1.984 7.94v13.69l-2.944-3.2a27.157 27.157 0 0 1 9.152-6.14c3.499-1.45 7.104-2.18 10.816-2.18 5.803 0 10.901 1.31 15.296 3.91 4.437 2.6 7.893 6.16 10.368 10.69 2.517 4.52 3.776 9.68 3.776 15.48 0 5.81-1.472 11.05-4.416 15.75-2.944 4.65-6.848 8.36-11.712 11.13-4.864 2.73-10.197 4.1-16 4.1Zm0-16.64c2.645 0 5.056-.64 7.232-1.92 2.219-1.28 3.968-3.01 5.248-5.18 1.323-2.18 1.984-4.59 1.984-7.24 0-2.64-.64-5.05-1.92-7.23-1.28-2.22-3.008-3.97-5.184-5.25-2.176-1.32-4.587-1.98-7.232-1.98-2.645 0-5.077.66-7.296 1.98-2.176 1.28-3.925 3.03-5.248 5.25-1.28 2.18-1.92 4.59-1.92 7.23 0 2.56.64 4.93 1.92 7.11a15.01 15.01 0 0 0 5.184 5.25c2.176 1.32 4.587 1.98 7.232 1.98Z"/><path fill="#FEFEFE" d="M211.886 1567.92c-6.827 0-12.8-1.43-17.92-4.29-5.12-2.86-9.109-6.85-11.968-11.97-2.859-5.12-4.288-11.09-4.288-17.92v-27.64c0-6.83 1.429-12.8 4.288-17.92 2.859-5.12 6.848-9.11 11.968-11.97 5.12-2.86 11.093-4.29 17.92-4.29 6.827 0 12.8 1.43 17.92 4.29 5.12 2.86 9.109 6.85 11.968 11.97 2.859 5.12 4.288 11.09 4.288 17.92v27.64c0 6.83-1.429 12.8-4.288 17.92-2.859 5.12-6.848 9.11-11.968 11.97-5.12 2.86-11.093 4.29-17.92 4.29Zm0-16.51c3.072 0 5.845-.73 8.32-2.18a16.191 16.191 0 0 0 5.888-5.89c1.451-2.47 2.176-5.24 2.176-8.32v-30.33c0-3.07-.725-5.85-2.176-8.32a16.191 16.191 0 0 0-5.888-5.89c-2.475-1.45-5.248-2.18-8.32-2.18s-5.845.73-8.32 2.18a16.191 16.191 0 0 0-5.888 5.89c-1.451 2.47-2.176 5.25-2.176 8.32v30.33c0 3.08.725 5.85 2.176 8.32a16.191 16.191 0 0 0 5.888 5.89c2.475 1.45 5.248 2.18 8.32 2.18Z"/><path fill="#fff" d="m119.093 1756 30.976-75.78h-39.424v-16.38h58.112v16.38L137.909 1756h-18.816Z"/><path fill="#424242" d="M211.886 1757.92c-6.827 0-12.8-1.43-17.92-4.29-5.12-2.86-9.109-6.85-11.968-11.97-2.859-5.12-4.288-11.09-4.288-17.92v-27.64c0-6.83 1.429-12.8 4.288-17.92 2.859-5.12 6.848-9.11 11.968-11.97 5.12-2.86 11.093-4.29 17.92-4.29 6.827 0 12.8 1.43 17.92 4.29 5.12 2.86 9.109 6.85 11.968 11.97 2.859 5.12 4.288 11.09 4.288 17.92v27.64c0 6.83-1.429 12.8-4.288 17.92-2.859 5.12-6.848 9.11-11.968 11.97-5.12 2.86-11.093 4.29-17.92 4.29Zm0-16.51c3.072 0 5.845-.73 8.32-2.18a16.191 16.191 0 0 0 5.888-5.89c1.451-2.47 2.176-5.24 2.176-8.32v-30.33c0-3.07-.725-5.85-2.176-8.32a16.191 16.191 0 0 0-5.888-5.89c-2.475-1.45-5.248-2.18-8.32-2.18s-5.845.73-8.32 2.18a16.191 16.191 0 0 0-5.888 5.89c-1.451 2.47-2.176 5.25-2.176 8.32v30.33c0 3.08.725 5.85 2.176 8.32a16.191 16.191 0 0 0 5.888 5.89c2.475 1.45 5.248 2.18 8.32 2.18Z"/><path fill="#fff" d="M135.208 1947.92c-6.229 0-11.776-1.26-16.64-3.78-4.821-2.56-8.619-6.05-11.392-10.49-2.731-4.48-4.096-9.58-4.096-15.3 0-4.86 1.088-9.45 3.264-13.76 2.219-4.31 5.397-7.83 9.536-10.56l-.384 5.38c-3.115-3.03-5.568-6.23-7.36-9.6-1.749-3.37-2.624-7.17-2.624-11.39 0-5.34 1.259-9.99 3.776-13.96 2.56-3.96 6.059-7.04 10.496-9.21 4.48-2.22 9.621-3.33 15.424-3.33 5.803 0 10.923 1.11 15.36 3.33 4.48 2.17 7.979 5.25 10.496 9.21 2.56 3.97 3.84 8.62 3.84 13.96 0 4.22-.832 8.02-2.496 11.39-1.664 3.33-4.203 6.57-7.616 9.73v-5.38c4.053 2.56 7.168 6.02 9.344 10.37 2.219 4.35 3.328 8.96 3.328 13.82 0 5.72-1.387 10.82-4.16 15.3-2.773 4.44-6.592 7.93-11.456 10.49-4.864 2.52-10.411 3.78-16.64 3.78Zm0-16.38c4.096 0 7.424-1.11 9.984-3.33 2.56-2.22 3.84-5.51 3.84-9.86 0-4.31-1.28-7.59-3.84-9.85-2.56-2.31-5.888-3.46-9.984-3.46s-7.403 1.15-9.92 3.46c-2.517 2.26-3.776 5.54-3.776 9.85 0 4.35 1.259 7.64 3.776 9.86 2.517 2.22 5.824 3.33 9.92 3.33Zm0-43.01c3.328 0 6.037-.81 8.128-2.43 2.091-1.67 3.136-4.23 3.136-7.68 0-3.46-1.045-6.02-3.136-7.68-2.091-1.71-4.8-2.56-8.128-2.56-3.328 0-6.037.85-8.128 2.56-2.091 1.66-3.136 4.22-3.136 7.68 0 3.45 1.045 6.01 3.136 7.68 2.091 1.62 4.8 2.43 8.128 2.43Z"/><path fill="#FF77C4" d="M211.886 1947.92c-6.827 0-12.8-1.43-17.92-4.29-5.12-2.86-9.109-6.85-11.968-11.97-2.859-5.12-4.288-11.09-4.288-17.92v-27.64c0-6.83 1.429-12.8 4.288-17.92 2.859-5.12 6.848-9.11 11.968-11.97 5.12-2.86 11.093-4.29 17.92-4.29 6.827 0 12.8 1.43 17.92 4.29 5.12 2.86 9.109 6.85 11.968 11.97 2.859 5.12 4.288 11.09 4.288 17.92v27.64c0 6.83-1.429 12.8-4.288 17.92-2.859 5.12-6.848 9.11-11.968 11.97-5.12 2.86-11.093 4.29-17.92 4.29Zm0-16.51c3.072 0 5.845-.73 8.32-2.18a16.191 16.191 0 0 0 5.888-5.89c1.451-2.47 2.176-5.24 2.176-8.32v-30.33c0-3.07-.725-5.85-2.176-8.32a16.191 16.191 0 0 0-5.888-5.89c-2.475-1.45-5.248-2.18-8.32-2.18s-5.845.73-8.32 2.18a16.191 16.191 0 0 0-5.888 5.89c-1.451 2.47-2.176 5.25-2.176 8.32v30.33c0 3.08.725 5.85 2.176 8.32a16.191 16.191 0 0 0 5.888 5.89c2.475 1.45 5.248 2.18 8.32 2.18Z"/><path fill="#fff" d="M134.053 2042.05c6.101 0 11.563 1.43 16.384 4.29 4.864 2.85 8.704 6.84 11.52 11.96 2.816 5.08 4.224 10.97 4.224 17.67v26.75c0 7.25-1.408 13.53-4.224 18.82-2.816 5.24-6.784 9.3-11.904 12.16-5.12 2.81-11.136 4.22-18.048 4.22-4.48 0-8.747-.66-12.8-1.98-4.011-1.37-7.723-3.61-11.136-6.72l12.416-12.42a16.551 16.551 0 0 0 5.312 3.58c2.048.86 4.117 1.28 6.208 1.28 3.328 0 6.208-.76 8.64-2.3 2.475-1.58 4.373-3.61 5.696-6.08 1.365-2.52 2.048-5.18 2.048-8v-13.7l2.944 3.2a26.95 26.95 0 0 1-9.152 6.21 28.68 28.68 0 0 1-10.816 2.11c-5.803 0-10.923-1.3-15.36-3.9-4.395-2.6-7.851-6.17-10.368-10.69-2.475-4.52-3.712-9.68-3.712-15.49 0-5.8 1.472-11.03 4.416-15.68 2.944-4.69 6.848-8.4 11.712-11.13 4.864-2.78 10.197-4.16 16-4.16Zm0 16.64c-2.645 0-5.077.64-7.296 1.92a14.935 14.935 0 0 0-5.248 5.18c-1.28 2.18-1.92 4.59-1.92 7.23 0 2.65.64 5.08 1.92 7.3a14.845 14.845 0 0 0 5.184 5.25c2.176 1.28 4.587 1.92 7.232 1.92 2.645 0 5.056-.64 7.232-1.92 2.219-1.32 3.968-3.07 5.248-5.25 1.323-2.22 1.984-4.65 1.984-7.3 0-2.56-.64-4.92-1.92-7.1a14.845 14.845 0 0 0-5.184-5.25c-2.176-1.32-4.587-1.98-7.232-1.98Z"/><path fill="#12CDD4" d="M211.886 2137.92c-6.827 0-12.8-1.43-17.92-4.29-5.12-2.86-9.109-6.85-11.968-11.97-2.859-5.12-4.288-11.09-4.288-17.92v-27.64c0-6.83 1.429-12.8 4.288-17.92 2.859-5.12 6.848-9.11 11.968-11.97 5.12-2.86 11.093-4.29 17.92-4.29 6.827 0 12.8 1.43 17.92 4.29 5.12 2.86 9.109 6.85 11.968 11.97 2.859 5.12 4.288 11.09 4.288 17.92v27.64c0 6.83-1.429 12.8-4.288 17.92-2.859 5.12-6.848 9.11-11.968 11.97-5.12 2.86-11.093 4.29-17.92 4.29Zm0-16.51c3.072 0 5.845-.73 8.32-2.18a16.191 16.191 0 0 0 5.888-5.89c1.451-2.47 2.176-5.24 2.176-8.32v-30.33c0-3.07-.725-5.85-2.176-8.32a16.191 16.191 0 0 0-5.888-5.89c-2.475-1.45-5.248-2.18-8.32-2.18s-5.845.73-8.32 2.18a16.191 16.191 0 0 0-5.888 5.89c-1.451 2.47-2.176 5.25-2.176 8.32v30.33c0 3.08.725 5.85 2.176 8.32a16.191 16.191 0 0 0 5.888 5.89c2.475 1.45 5.248 2.18 8.32 2.18Z"/><path fill="#fff" d="M62.135 2326v-73.22l-17.28 10.63v-19.2l17.28-10.37h17.792V2326H62.135Zm69.901 1.92c-6.827 0-12.8-1.43-17.92-4.29-5.12-2.86-9.109-6.85-11.968-11.97-2.859-5.12-4.288-11.09-4.288-17.92v-27.64c0-6.83 1.43-12.8 4.288-17.92 2.859-5.12 6.848-9.11 11.968-11.97 5.12-2.86 11.093-4.29 17.92-4.29 6.827 0 12.8 1.43 17.92 4.29 5.12 2.86 9.109 6.85 11.968 11.97 2.859 5.12 4.288 11.09 4.288 17.92v27.64c0 6.83-1.429 12.8-4.288 17.92-2.859 5.12-6.848 9.11-11.968 11.97-5.12 2.86-11.093 4.29-17.92 4.29Zm0-16.51c3.072 0 5.845-.73 8.32-2.18a16.191 16.191 0 0 0 5.888-5.89c1.451-2.47 2.176-5.24 2.176-8.32v-30.33c0-3.07-.725-5.85-2.176-8.32a16.191 16.191 0 0 0-5.888-5.89c-2.475-1.45-5.248-2.18-8.32-2.18s-5.845.73-8.32 2.18a16.191 16.191 0 0 0-5.888 5.89c-1.451 2.47-2.176 5.25-2.176 8.32v30.33c0 3.08.725 5.85 2.176 8.32a16.191 16.191 0 0 0 5.888 5.89c2.475 1.45 5.248 2.18 8.32 2.18Z"/><path fill="#B79664" d="M211.886 2327.92c-6.827 0-12.8-1.43-17.92-4.29-5.12-2.86-9.109-6.85-11.968-11.97-2.859-5.12-4.288-11.09-4.288-17.92v-27.64c0-6.83 1.429-12.8 4.288-17.92 2.859-5.12 6.848-9.11 11.968-11.97 5.12-2.86 11.093-4.29 17.92-4.29 6.827 0 12.8 1.43 17.92 4.29 5.12 2.86 9.109 6.85 11.968 11.97 2.859 5.12 4.288 11.09 4.288 17.92v27.64c0 6.83-1.429 12.8-4.288 17.92-2.859 5.12-6.848 9.11-11.968 11.97-5.12 2.86-11.093 4.29-17.92 4.29Zm0-16.51c3.072 0 5.845-.73 8.32-2.18a16.191 16.191 0 0 0 5.888-5.89c1.451-2.47 2.176-5.24 2.176-8.32v-30.33c0-3.07-.725-5.85-2.176-8.32a16.191 16.191 0 0 0-5.888-5.89c-2.475-1.45-5.248-2.18-8.32-2.18s-5.845.73-8.32 2.18a16.191 16.191 0 0 0-5.888 5.89c-1.451 2.47-2.176 5.25-2.176 8.32v30.33c0 3.08.725 5.85 2.176 8.32a16.191 16.191 0 0 0 5.888 5.89c2.475 1.45 5.248 2.18 8.32 2.18Z"/><path fill="#fff" d="M64.66 2516v-73.22l-17.28 10.63v-19.2l17.28-10.37h17.792V2516H64.66Zm64.525 0v-73.22l-17.28 10.63v-19.2l17.28-10.37h17.792V2516h-17.792Z"/><path fill="url(#a)" d="M211.886 2517.92c-6.827 0-12.8-1.43-17.92-4.29-5.12-2.86-9.109-6.85-11.968-11.97-2.859-5.12-4.288-11.09-4.288-17.92v-27.64c0-6.83 1.429-12.8 4.288-17.92 2.859-5.12 6.848-9.11 11.968-11.97 5.12-2.86 11.093-4.29 17.92-4.29 6.827 0 12.8 1.43 17.92 4.29 5.12 2.86 9.109 6.85 11.968 11.97 2.859 5.12 4.288 11.09 4.288 17.92v27.64c0 6.83-1.429 12.8-4.288 17.92-2.859 5.12-6.848 9.11-11.968 11.97-5.12 2.86-11.093 4.29-17.92 4.29Zm0-16.51c3.072 0 5.845-.73 8.32-2.18a16.191 16.191 0 0 0 5.888-5.89c1.451-2.47 2.176-5.24 2.176-8.32v-30.33c0-3.07-.725-5.85-2.176-8.32a16.191 16.191 0 0 0-5.888-5.89c-2.475-1.45-5.248-2.18-8.32-2.18s-5.845.73-8.32 2.18a16.191 16.191 0 0 0-5.888 5.89c-1.451 2.47-2.176 5.25-2.176 8.32v30.33c0 3.08.725 5.85 2.176 8.32a16.191 16.191 0 0 0 5.888 5.89c2.475 1.45 5.248 2.18 8.32 2.18Z"/><path fill="#fff" d="M71.135 2706v-73.22l-17.28 10.63v-19.2l17.28-10.37h17.792V2706H71.135Zm33.165-.13v-15.1l38.656-34.31c2.901-2.56 4.949-4.97 6.144-7.23 1.195-2.26 1.792-4.37 1.792-6.33 0-2.82-.576-5.32-1.728-7.49-1.152-2.22-2.773-3.95-4.864-5.19-2.091-1.28-4.544-1.92-7.36-1.92-2.944 0-5.547.69-7.808 2.05a14.108 14.108 0 0 0-5.184 5.31c-1.237 2.18-1.813 4.55-1.728 7.11H104.3c0-6.32 1.387-11.78 4.16-16.39 2.773-4.6 6.635-8.17 11.584-10.68 4.949-2.52 10.709-3.78 17.28-3.78 6.016 0 11.392 1.32 16.128 3.97 4.779 2.6 8.533 6.25 11.264 10.94 2.731 4.7 4.096 10.14 4.096 16.32 0 4.57-.64 8.36-1.92 11.39-1.28 2.99-3.179 5.76-5.696 8.32-2.517 2.52-5.611 5.38-9.28 8.58l-24.96 21.89-1.408-3.84h43.264v16.38H104.3Z"/><path fill="url(#b)" d="M211.886 2707.92c-6.827 0-12.8-1.43-17.92-4.29-5.12-2.86-9.109-6.85-11.968-11.97-2.859-5.12-4.288-11.09-4.288-17.92v-27.64c0-6.83 1.429-12.8 4.288-17.92 2.859-5.12 6.848-9.11 11.968-11.97 5.12-2.86 11.093-4.29 17.92-4.29 6.827 0 12.8 1.43 17.92 4.29 5.12 2.86 9.109 6.85 11.968 11.97 2.859 5.12 4.288 11.09 4.288 17.92v27.64c0 6.83-1.429 12.8-4.288 17.92-2.859 5.12-6.848 9.11-11.968 11.97-5.12 2.86-11.093 4.29-17.92 4.29Zm0-16.51c3.072 0 5.845-.73 8.32-2.18a16.191 16.191 0 0 0 5.888-5.89c1.451-2.47 2.176-5.24 2.176-8.32v-30.33c0-3.07-.725-5.85-2.176-8.32a16.191 16.191 0 0 0-5.888-5.89c-2.475-1.45-5.248-2.18-8.32-2.18s-5.845.73-8.32 2.18a16.191 16.191 0 0 0-5.888 5.89c-1.451 2.47-2.176 5.25-2.176 8.32v30.33c0 3.08.725 5.85 2.176 8.32a16.191 16.191 0 0 0 5.888 5.89c2.475 1.45 5.248 2.18 8.32 2.18Z"/><path fill="#fff" d="M72.76 2896v-73.22l-17.28 10.63v-19.2l17.28-10.37h17.792V2896H72.76Zm62.605 1.66c-4.608 0-9.003-.91-13.184-2.75a33.404 33.404 0 0 1-10.944-7.87c-3.072-3.37-5.269-7.34-6.592-11.9l16.896-4.48c.896 3.37 2.645 5.99 5.248 7.87 2.645 1.83 5.504 2.75 8.576 2.75 2.645 0 5.056-.64 7.232-1.92 2.219-1.28 3.968-3.01 5.248-5.18 1.323-2.18 1.984-4.59 1.984-7.24 0-3.96-1.365-7.36-4.096-10.17-2.688-2.86-6.144-4.29-10.368-4.29-1.28 0-2.517.19-3.712.58-1.195.34-2.347.83-3.456 1.47l-7.808-13.7 29.312-24.32 1.28 3.71h-42.752v-16.38h57.6v16.38l-22.784 22.02-.128-4.86c5.291.81 9.749 2.66 13.376 5.56 3.669 2.86 6.443 6.4 8.32 10.63 1.92 4.18 2.88 8.64 2.88 13.37 0 5.81-1.472 11.03-4.416 15.68-2.944 4.61-6.848 8.28-11.712 11.01-4.864 2.69-10.197 4.03-16 4.03Z"/><path fill="url(#c)" d="M211.886 2897.92c-6.827 0-12.8-1.43-17.92-4.29-5.12-2.86-9.109-6.85-11.968-11.97-2.859-5.12-4.288-11.09-4.288-17.92v-27.64c0-6.83 1.429-12.8 4.288-17.92 2.859-5.12 6.848-9.11 11.968-11.97 5.12-2.86 11.093-4.29 17.92-4.29 6.827 0 12.8 1.43 17.92 4.29 5.12 2.86 9.109 6.85 11.968 11.97 2.859 5.12 4.288 11.09 4.288 17.92v27.64c0 6.83-1.429 12.8-4.288 17.92-2.859 5.12-6.848 9.11-11.968 11.97-5.12 2.86-11.093 4.29-17.92 4.29Zm0-16.51c3.072 0 5.845-.73 8.32-2.18a16.191 16.191 0 0 0 5.888-5.89c1.451-2.47 2.176-5.24 2.176-8.32v-30.33c0-3.07-.725-5.85-2.176-8.32a16.191 16.191 0 0 0-5.888-5.89c-2.475-1.45-5.248-2.18-8.32-2.18s-5.845.73-8.32 2.18a16.191 16.191 0 0 0-5.888 5.89c-1.451 2.47-2.176 5.25-2.176 8.32v30.33c0 3.08.725 5.85 2.176 8.32a16.191 16.191 0 0 0 5.888 5.89c2.475 1.45 5.248 2.18 8.32 2.18Z"/><path fill="#fff" d="M69.635 3086v-73.22l-17.28 10.63v-19.2l17.28-10.37h17.792V3086H69.635Zm73.229 0v-14.34H102.8v-16.25l29.056-61.57h19.968l-29.056 61.57h20.096v-23.04h17.664v23.04h8.192v16.25h-8.192V3086h-17.664Z"/><path fill="url(#d)" d="M211.886 3087.92c-6.827 0-12.8-1.43-17.92-4.29-5.12-2.86-9.109-6.85-11.968-11.97-2.859-5.12-4.288-11.09-4.288-17.92v-27.64c0-6.83 1.429-12.8 4.288-17.92 2.859-5.12 6.848-9.11 11.968-11.97 5.12-2.86 11.093-4.29 17.92-4.29 6.827 0 12.8 1.43 17.92 4.29 5.12 2.86 9.109 6.85 11.968 11.97 2.859 5.12 4.288 11.09 4.288 17.92v27.64c0 6.83-1.429 12.8-4.288 17.92-2.859 5.12-6.848 9.11-11.968 11.97-5.12 2.86-11.093 4.29-17.92 4.29Zm0-16.51c3.072 0 5.845-.73 8.32-2.18a16.191 16.191 0 0 0 5.888-5.89c1.451-2.47 2.176-5.24 2.176-8.32v-30.33c0-3.07-.725-5.85-2.176-8.32a16.191 16.191 0 0 0-5.888-5.89c-2.475-1.45-5.248-2.18-8.32-2.18s-5.845.73-8.32 2.18a16.191 16.191 0 0 0-5.888 5.89c-1.451 2.47-2.176 5.25-2.176 8.32v30.33c0 3.08.725 5.85 2.176 8.32a16.191 16.191 0 0 0 5.888 5.89c2.475 1.45 5.248 2.18 8.32 2.18Z"/><path fill="#fff" d="M73.01 3276v-73.22l-17.28 10.63v-19.2l17.28-10.37h17.792V3276H73.01Zm63.117 1.92c-4.651 0-9.024-.96-13.12-2.88a31.606 31.606 0 0 1-10.496-8c-2.944-3.41-5.056-7.38-6.336-11.9l16.768-4.48c.555 2.17 1.536 4.05 2.944 5.63a16.27 16.27 0 0 0 4.992 3.71c1.92.85 3.883 1.28 5.888 1.28 2.645 0 5.056-.64 7.232-1.92 2.219-1.28 3.968-3.01 5.248-5.18 1.323-2.18 1.984-4.59 1.984-7.24 0-2.64-.661-5.05-1.984-7.23-1.28-2.17-3.029-3.9-5.248-5.18-2.176-1.28-4.587-1.92-7.232-1.92-3.243 0-5.888.55-7.936 1.66-2.048 1.07-3.584 2.09-4.608 3.07l-14.72-4.48 2.816-49.02h50.304v16.26h-40.704l6.144-5.76-1.92 31.61-2.944-3.58c2.304-1.88 4.928-3.24 7.872-4.1 2.944-.85 5.696-1.28 8.256-1.28 5.803 0 10.901 1.3 15.296 3.91 4.437 2.56 7.893 6.1 10.368 10.62 2.517 4.48 3.776 9.62 3.776 15.42 0 5.81-1.515 11.05-4.544 15.75-3.029 4.65-7.019 8.36-11.968 11.13-4.949 2.73-10.325 4.1-16.128 4.1Z"/><path fill="url(#e)" d="M211.886 3277.92c-6.827 0-12.8-1.43-17.92-4.29-5.12-2.86-9.109-6.85-11.968-11.97-2.859-5.12-4.288-11.09-4.288-17.92v-27.64c0-6.83 1.429-12.8 4.288-17.92 2.859-5.12 6.848-9.11 11.968-11.97 5.12-2.86 11.093-4.29 17.92-4.29 6.827 0 12.8 1.43 17.92 4.29 5.12 2.86 9.109 6.85 11.968 11.97 2.859 5.12 4.288 11.09 4.288 17.92v27.64c0 6.83-1.429 12.8-4.288 17.92-2.859 5.12-6.848 9.11-11.968 11.97-5.12 2.86-11.093 4.29-17.92 4.29Zm0-16.51c3.072 0 5.845-.73 8.32-2.18a16.191 16.191 0 0 0 5.888-5.89c1.451-2.47 2.176-5.24 2.176-8.32v-30.33c0-3.07-.725-5.85-2.176-8.32a16.191 16.191 0 0 0-5.888-5.89c-2.475-1.45-5.248-2.18-8.32-2.18s-5.845.73-8.32 2.18a16.191 16.191 0 0 0-5.888 5.89c-1.451 2.47-2.176 5.25-2.176 8.32v30.33c0 3.08.725 5.85 2.176 8.32a16.191 16.191 0 0 0 5.888 5.89c2.475 1.45 5.248 2.18 8.32 2.18Z"/><path fill="#fff" d="M380.011 237.92c-6.827 0-12.8-1.429-17.92-4.288-5.12-2.859-9.109-6.848-11.968-11.968s-4.288-11.093-4.288-17.92v-27.648c0-6.827 1.429-12.8 4.288-17.92 2.859-5.12 6.848-9.109 11.968-11.968s11.093-4.288 17.92-4.288c6.827 0 12.8 1.429 17.92 4.288 5.12 2.859 9.109 6.848 11.968 11.968s4.288 11.093 4.288 17.92v27.648c0 6.827-1.429 12.8-4.288 17.92-2.859 5.12-6.848 9.109-11.968 11.968s-11.093 4.288-17.92 4.288Zm0-16.512c3.072 0 5.845-.725 8.32-2.176a16.231 16.231 0 0 0 5.888-5.888c1.451-2.475 2.176-5.248 2.176-8.32v-30.336c0-3.072-.725-5.845-2.176-8.32a16.231 16.231 0 0 0-5.888-5.888c-2.475-1.451-5.248-2.176-8.32-2.176s-5.845.725-8.32 2.176a16.231 16.231 0 0 0-5.888 5.888c-1.451 2.475-2.176 5.248-2.176 8.32v30.336c0 3.072.725 5.845 2.176 8.32a16.231 16.231 0 0 0 5.888 5.888c2.475 1.451 5.248 2.176 8.32 2.176ZM565.898 236v-73.216l-17.28 10.624v-19.2l17.28-10.368h17.792V236h-17.792ZM727.775 235.872v-15.104l38.656-34.304c2.901-2.56 4.949-4.971 6.144-7.232 1.195-2.261 1.792-4.373 1.792-6.336 0-2.816-.576-5.312-1.728-7.488-1.152-2.219-2.773-3.947-4.864-5.184-2.091-1.28-4.544-1.92-7.36-1.92-2.944 0-5.547.683-7.808 2.048-2.219 1.323-3.947 3.093-5.184 5.312-1.237 2.176-1.813 4.544-1.728 7.104h-17.92c0-6.315 1.387-11.776 4.16-16.384 2.773-4.608 6.635-8.171 11.584-10.688 4.949-2.517 10.709-3.776 17.28-3.776 6.016 0 11.392 1.323 16.128 3.968 4.779 2.603 8.533 6.251 11.264 10.944 2.731 4.693 4.096 10.133 4.096 16.32 0 4.565-.64 8.363-1.92 11.392-1.28 2.987-3.179 5.76-5.696 8.32-2.517 2.517-5.611 5.376-9.28 8.576l-24.96 21.888-1.408-3.84h43.264v16.384h-64.512ZM948.028 237.664c-4.608 0-9.003-.917-13.184-2.752a33.331 33.331 0 0 1-10.944-7.872c-3.072-3.371-5.27-7.339-6.592-11.904l16.896-4.48c.896 3.371 2.645 5.995 5.248 7.872 2.645 1.835 5.504 2.752 8.576 2.752 2.645 0 5.056-.64 7.232-1.92 2.218-1.28 3.968-3.008 5.248-5.184 1.322-2.176 1.984-4.587 1.984-7.232 0-3.968-1.366-7.36-4.096-10.176-2.688-2.859-6.144-4.288-10.368-4.288-1.28 0-2.518.192-3.712.576a15.29 15.29 0 0 0-3.456 1.472l-7.808-13.696 29.312-24.32 1.28 3.712h-42.752V143.84h57.6v16.384l-22.784 22.016-.128-4.864c5.29.811 9.749 2.667 13.376 5.568 3.669 2.859 6.442 6.4 8.32 10.624 1.92 4.181 2.88 8.64 2.88 13.376 0 5.803-1.472 11.029-4.416 15.68-2.944 4.608-6.848 8.277-11.712 11.008-4.864 2.688-10.198 4.032-16 4.032ZM1147.09 236v-14.336h-40.06v-16.256l29.05-61.568h19.97l-29.06 61.568h20.1v-23.04h17.66v23.04h8.19v16.256h-8.19V236h-17.66ZM1328.66 237.92c-4.65 0-9.02-.96-13.12-2.88a31.534 31.534 0 0 1-10.49-8c-2.95-3.413-5.06-7.381-6.34-11.904l16.77-4.48c.56 2.176 1.54 4.053 2.94 5.632 1.46 1.579 3.12 2.816 5 3.712 1.92.853 3.88 1.28 5.88 1.28 2.65 0 5.06-.64 7.24-1.92a14.195 14.195 0 0 0 5.24-5.184c1.33-2.176 1.99-4.587 1.99-7.232 0-2.645-.66-5.056-1.99-7.232a14.195 14.195 0 0 0-5.24-5.184c-2.18-1.28-4.59-1.92-7.24-1.92-3.24 0-5.88.555-7.93 1.664-2.05 1.067-3.59 2.091-4.61 3.072l-14.72-4.48 2.82-49.024h50.3v16.256h-40.7l6.14-5.76-1.92 31.616-2.94-3.584c2.3-1.877 4.92-3.243 7.87-4.096 2.94-.853 5.69-1.28 8.25-1.28 5.81 0 10.91 1.301 15.3 3.904 4.44 2.56 7.89 6.101 10.37 10.624 2.52 4.48 3.77 9.621 3.77 15.424 0 5.803-1.51 11.051-4.54 15.744-3.03 4.651-7.02 8.363-11.97 11.136-4.95 2.731-10.32 4.096-16.13 4.096ZM1521.28 237.92c-6.11 0-11.59-1.429-16.45-4.288-4.82-2.859-8.64-6.827-11.46-11.904-2.81-5.12-4.22-11.029-4.22-17.728v-26.752c0-7.253 1.41-13.504 4.22-18.752 2.82-5.291 6.79-9.344 11.91-12.16 5.12-2.859 11.13-4.288 18.04-4.288 4.48 0 8.75.661 12.8 1.984 4.06 1.323 7.77 3.563 11.14 6.72l-12.42 12.416a16.547 16.547 0 0 0-5.31-3.584c-2-.853-4.07-1.28-6.21-1.28-3.32 0-6.23.789-8.7 2.368a16.301 16.301 0 0 0-5.7 6.08 16.613 16.613 0 0 0-1.98 7.936v13.696l-2.94-3.2a26.927 26.927 0 0 1 9.15-6.144c3.5-1.451 7.1-2.176 10.81-2.176 5.81 0 10.9 1.301 15.3 3.904 4.44 2.603 7.89 6.165 10.37 10.688 2.51 4.523 3.77 9.685 3.77 15.488 0 5.803-1.47 11.051-4.41 15.744-2.95 4.651-6.85 8.363-11.71 11.136-4.87 2.731-10.2 4.096-16 4.096Zm0-16.64c2.64 0 5.05-.64 7.23-1.92 2.22-1.28 3.97-3.008 5.25-5.184 1.32-2.176 1.98-4.587 1.98-7.232 0-2.645-.64-5.056-1.92-7.232-1.28-2.219-3.01-3.968-5.18-5.248-2.18-1.323-4.59-1.984-7.24-1.984-2.64 0-5.07.661-7.29 1.984-2.18 1.28-3.93 3.029-5.25 5.248-1.28 2.176-1.92 4.587-1.92 7.232 0 2.56.64 4.928 1.92 7.104a14.935 14.935 0 0 0 5.18 5.248c2.18 1.323 4.59 1.984 7.24 1.984ZM1688.76 236l30.97-75.776h-39.42V143.84h58.11v16.384L1707.57 236h-18.81ZM1899.93 237.92c-6.23 0-11.77-1.259-16.64-3.776-4.82-2.56-8.62-6.059-11.39-10.496-2.73-4.48-4.09-9.579-4.09-15.296 0-4.864 1.08-9.451 3.26-13.76 2.22-4.309 5.4-7.829 9.54-10.56l-.39 5.376c-3.11-3.029-5.57-6.229-7.36-9.6-1.75-3.371-2.62-7.168-2.62-11.392 0-5.333 1.26-9.984 3.77-13.952 2.56-3.968 6.06-7.04 10.5-9.216 4.48-2.219 9.62-3.328 15.42-3.328 5.81 0 10.93 1.109 15.36 3.328 4.48 2.176 7.98 5.248 10.5 9.216 2.56 3.968 3.84 8.619 3.84 13.952 0 4.224-.83 8.021-2.5 11.392-1.66 3.328-4.2 6.571-7.61 9.728v-5.376c4.05 2.56 7.17 6.016 9.34 10.368 2.22 4.352 3.33 8.96 3.33 13.824 0 5.717-1.39 10.816-4.16 15.296-2.77 4.437-6.59 7.936-11.46 10.496-4.86 2.517-10.41 3.776-16.64 3.776Zm0-16.384c4.1 0 7.43-1.109 9.99-3.328 2.56-2.219 3.84-5.504 3.84-9.856 0-4.309-1.28-7.595-3.84-9.856-2.56-2.304-5.89-3.456-9.99-3.456-4.09 0-7.4 1.152-9.92 3.456-2.51 2.261-3.77 5.547-3.77 9.856 0 4.352 1.26 7.637 3.77 9.856 2.52 2.219 5.83 3.328 9.92 3.328Zm0-43.008c3.33 0 6.04-.811 8.13-2.432 2.09-1.664 3.14-4.224 3.14-7.68 0-3.456-1.05-6.016-3.14-7.68-2.09-1.707-4.8-2.56-8.13-2.56-3.32 0-6.03.853-8.12 2.56-2.1 1.664-3.14 4.224-3.14 7.68 0 3.456 1.04 6.016 3.14 7.68 2.09 1.621 4.8 2.432 8.12 2.432ZM2088.72 142.048c6.1 0 11.56 1.429 16.38 4.288 4.86 2.859 8.7 6.848 11.52 11.968 2.82 5.077 4.22 10.965 4.22 17.664v26.752c0 7.253-1.4 13.525-4.22 18.816-2.82 5.248-6.78 9.301-11.9 12.16-5.12 2.816-11.14 4.224-18.05 4.224-4.48 0-8.75-.661-12.8-1.984-4.01-1.365-7.73-3.605-11.14-6.72l12.42-12.416a16.547 16.547 0 0 0 5.31 3.584c2.05.853 4.12 1.28 6.21 1.28 3.33 0 6.21-.768 8.64-2.304 2.47-1.579 4.37-3.605 5.69-6.08 1.37-2.517 2.05-5.184 2.05-8v-13.696l2.95 3.2a27.08 27.08 0 0 1-9.16 6.208c-3.5 1.408-7.1 2.112-10.81 2.112-5.81 0-10.93-1.301-15.36-3.904-4.4-2.603-7.85-6.165-10.37-10.688-2.48-4.523-3.71-9.685-3.71-15.488 0-5.803 1.47-11.029 4.41-15.68 2.95-4.693 6.85-8.405 11.72-11.136 4.86-2.773 10.19-4.16 16-4.16Zm0 16.64c-2.65 0-5.08.64-7.3 1.92a14.845 14.845 0 0 0-5.25 5.184c-1.28 2.176-1.92 4.587-1.92 7.232 0 2.645.64 5.077 1.92 7.296a14.88 14.88 0 0 0 5.19 5.248c2.17 1.28 4.58 1.92 7.23 1.92 2.64 0 5.05-.64 7.23-1.92 2.22-1.323 3.97-3.072 5.25-5.248 1.32-2.219 1.98-4.651 1.98-7.296 0-2.56-.64-4.928-1.92-7.104a14.935 14.935 0 0 0-5.18-5.248c-2.18-1.323-4.59-1.984-7.23-1.984Z"/><rect width="255" height="60" x="78.633" y="258.943" fill="#D6D6D6" rx="30" transform="rotate(-45 78.633 258.943)"/><path fill="#000" d="m129.051 275.704-24.437-24.437 4.683-4.684 26.916 5.668-16.292-16.292 4.684-4.684 24.437 24.438-4.683 4.684-26.916-5.668 16.292 16.291-4.684 4.684Zm36.878-35.859c-1.969 1.968-4.096 3.303-6.381 4.005-2.297.69-4.588.73-6.873.119-2.286-.611-4.407-1.895-6.364-3.853l-15.24-15.239 4.65-4.718 15.24 15.24c.803.803 1.668 1.397 2.596 1.781a7.293 7.293 0 0 0 2.817.577 7.358 7.358 0 0 0 2.783-.577 7.993 7.993 0 0 0 2.427-1.68c.747-.746 1.307-1.567 1.68-2.46a7.047 7.047 0 0 0 .577-2.784 7 7 0 0 0-.594-2.8c-.384-.927-.973-1.787-1.765-2.579l-15.239-15.24 4.684-4.684 15.273 15.274c1.958 1.957 3.242 4.078 3.853 6.364.611 2.285.571 4.576-.119 6.873-.702 2.285-2.037 4.412-4.005 6.381Zm15.87-16.889-24.437-24.437 4.14-4.141 24.302 8.146-8.146-24.302 4.141-4.141 24.438 24.438-4.311 4.31-14.594-14.595 7.501 21.689-1.63 1.629-21.688-7.501 14.595 14.595-4.311 4.31Zm30.898-30.898L188.26 167.62l9.775-9.775c1.742-1.742 3.501-2.8 5.278-3.173 1.765-.385 3.422-.3 4.972.254 1.55.555 2.862 1.369 3.937 2.444 1.369 1.369 2.195 2.817 2.478 4.344.294 1.516.057 2.965-.713 4.345l-.848-.849c1.844-1.21 3.694-1.646 5.549-1.306 1.867.328 3.479 1.171 4.837 2.528 1.459 1.46 2.472 3.015 3.037 4.667.577 1.641.634 3.326.17 5.057-.475 1.72-1.544 3.411-3.207 5.075l-10.828 10.827Zm.34-9.029 5.668-5.668c.622-.622 1.047-1.306 1.273-2.053.215-.758.22-1.511.017-2.257-.204-.77-.634-1.482-1.29-2.139-.577-.577-1.211-.972-1.901-1.187-.69-.215-1.408-.21-2.155.017-.747.203-1.476.661-2.189 1.374l-5.668 5.668 6.245 6.245Zm-10.556-10.555 5.023-5.024c.521-.52.894-1.074 1.121-1.663a3.056 3.056 0 0 0 .135-1.798c-.147-.623-.52-1.234-1.12-1.833-.746-.747-1.606-1.143-2.579-1.188-.973-.046-1.901.373-2.783 1.256l-5.024 5.023 5.227 5.227Zm33.524-3.724-24.437-24.438 15.952-15.952 4.311 4.31-11.337 11.337 5.227 5.227 9.3-9.3 4.311 4.31-9.3 9.3 6.279 6.279 11.336-11.336 4.311 4.31-15.953 15.953Zm21.717-21.717-24.437-24.438 10.318-10.318c.238-.238.566-.543.984-.916.419-.396.815-.724 1.188-.985 1.686-1.233 3.36-1.946 5.024-2.138a9.178 9.178 0 0 1 4.853.713c1.55.667 3.01 1.686 4.378 3.055 2.048 2.047 3.293 4.31 3.734 6.788.43 2.466-.272 4.955-2.104 7.467l-1.901 2.172-5.702 5.702 8.281 8.282-4.616 4.616Zm13.781-13.78-14.765-5.125 3.836-5.669 16.156 5.567-5.227 5.227Zm-21.757-3.428 5.499-5.499c.237-.237.486-.509.747-.814.26-.306.475-.611.644-.917.453-.792.651-1.555.594-2.291a4.777 4.777 0 0 0-.645-2.036 7.602 7.602 0 0 0-1.204-1.613 7.31 7.31 0 0 0-1.596-1.187 4.571 4.571 0 0 0-2.036-.645c-.747-.068-1.516.124-2.308.577a5.575 5.575 0 0 0-.917.645c-.305.26-.577.509-.814.746l-5.499 5.499 7.535 7.535ZM193.966 1563.63l.731-1.31-.731 1.31Zm-11.968-11.97 1.31-.73-1.31.73Zm0-63.48 1.31.73-1.31-.73Zm11.968-11.97-.731-1.31.731 1.31Zm35.84 0 .731-1.31-.731 1.31Zm11.968 75.45-1.31-.73 1.31.73Zm-11.968 11.97.731 1.31-.731-1.31Zm-9.6-14.4-.759-1.29.759 1.29Zm5.888-5.89-1.294-.75 1.294.75Zm0-46.97-1.294.76 1.294-.76Zm-5.888-5.89-.759 1.29.759-1.29Zm-16.64 0-.759-1.29.759 1.29Zm-5.888 52.86-1.294.76 1.294-.76Zm5.888 5.89.759-1.29-.759 1.29Zm8.32 17.19c-6.613 0-12.327-1.38-17.189-4.1l-1.462 2.62c5.378 3 11.611 4.48 18.651 4.48v-3Zm-17.189-4.1c-4.877-2.72-8.666-6.51-11.389-11.39l-2.62 1.47c2.994 5.36 7.184 9.55 12.547 12.54l1.462-2.62Zm-11.389-11.39c-2.715-4.86-4.098-10.57-4.098-17.19h-3c0 7.04 1.476 13.28 4.478 18.66l2.62-1.47Zm-4.098-17.19v-27.64h-3v27.64h3Zm0-27.64c0-6.62 1.383-12.33 4.098-17.19l-2.62-1.47c-3.002 5.38-4.478 11.62-4.478 18.66h3Zm4.098-17.19c2.723-4.88 6.512-8.67 11.389-11.39l-1.462-2.62c-5.363 2.99-9.553 7.18-12.547 12.54l2.62 1.47Zm11.389-11.39c4.862-2.72 10.576-4.1 17.189-4.1v-3c-7.04 0-13.273 1.48-18.651 4.48l1.462 2.62Zm17.189-4.1c6.613 0 12.327 1.38 17.189 4.1l1.462-2.62c-5.378-3-11.611-4.48-18.651-4.48v3Zm17.189 4.1c4.877 2.72 8.666 6.51 11.389 11.39l2.62-1.47c-2.994-5.36-7.184-9.55-12.547-12.54l-1.462 2.62Zm11.389 11.39c2.715 4.86 4.098 10.57 4.098 17.19h3c0-7.04-1.476-13.28-4.478-18.66l-2.62 1.47Zm4.098 17.19v27.64h3v-27.64h-3Zm0 27.64c0 6.62-1.383 12.33-4.098 17.19l2.62 1.47c3.002-5.38 4.478-11.62 4.478-18.66h-3Zm-4.098 17.19c-2.723 4.88-6.512 8.67-11.389 11.39l1.462 2.62c5.363-2.99 9.553-7.18 12.547-12.54l-2.62-1.47Zm-11.389 11.39c-4.862 2.72-10.576 4.1-17.189 4.1v3c7.04 0 13.273-1.48 18.651-4.48l-1.462-2.62Zm-17.189-9.41c3.319 0 6.358-.79 9.079-2.38l-1.518-2.59c-2.228 1.3-4.736 1.97-7.561 1.97v3Zm9.079-2.38a17.71 17.71 0 0 0 6.423-6.43l-2.588-1.51a14.74 14.74 0 0 1-5.353 5.35l1.518 2.59Zm6.423-6.43c1.595-2.72 2.382-5.76 2.382-9.08h-3c0 2.83-.664 5.34-1.97 7.57l2.588 1.51Zm2.382-9.08v-30.33h-3v30.33h3Zm0-30.33c0-3.32-.787-6.36-2.382-9.08l-2.588 1.52c1.306 2.22 1.97 4.73 1.97 7.56h3Zm-2.382-9.08a17.683 17.683 0 0 0-6.423-6.42l-1.518 2.58a14.691 14.691 0 0 1 5.353 5.36l2.588-1.52Zm-6.423-6.42c-2.721-1.6-5.76-2.39-9.079-2.39v3c2.825 0 5.333.67 7.561 1.97l1.518-2.58Zm-9.079-2.39c-3.319 0-6.358.79-9.079 2.39l1.518 2.58c2.228-1.3 4.736-1.97 7.561-1.97v-3Zm-9.079 2.39a17.683 17.683 0 0 0-6.423 6.42l2.588 1.52a14.691 14.691 0 0 1 5.353-5.36l-1.518-2.58Zm-6.423 6.42c-1.595 2.72-2.382 5.76-2.382 9.08h3c0-2.83.664-5.34 1.97-7.56l-2.588-1.52Zm-2.382 9.08v30.33h3v-30.33h-3Zm0 30.33c0 3.32.787 6.36 2.382 9.08l2.588-1.51c-1.306-2.23-1.97-4.74-1.97-7.57h-3Zm2.382 9.08a17.71 17.71 0 0 0 6.423 6.43l1.518-2.59a14.74 14.74 0 0 1-5.353-5.35l-2.588 1.51Zm6.423 6.43c2.721 1.59 5.76 2.38 9.079 2.38v-3c-2.825 0-5.333-.67-7.561-1.97l-1.518 2.59Z"/><path fill="url(#f)" d="m193.966 3083.63.731-1.31-.731 1.31Zm-11.968-11.97 1.31-.73-1.31.73Zm0-63.48 1.31.73-1.31-.73Zm11.968-11.97-.731-1.31.731 1.31Zm35.84 0 .731-1.31-.731 1.31Zm11.968 75.45-1.31-.73 1.31.73Zm-11.968 11.97.731 1.31-.731-1.31Zm-9.6-14.4-.759-1.29.759 1.29Zm5.888-5.89-1.294-.75 1.294.75Zm0-46.97-1.294.76 1.294-.76Zm-5.888-5.89-.759 1.29.759-1.29Zm-16.64 0-.759-1.29.759 1.29Zm-5.888 52.86-1.294.76 1.294-.76Zm5.888 5.89.759-1.29-.759 1.29Zm8.32 17.19c-6.613 0-12.327-1.38-17.189-4.1l-1.462 2.62c5.378 3 11.611 4.48 18.651 4.48v-3Zm-17.189-4.1c-4.877-2.72-8.666-6.51-11.389-11.39l-2.62 1.47c2.994 5.36 7.184 9.55 12.547 12.54l1.462-2.62Zm-11.389-11.39c-2.715-4.86-4.098-10.57-4.098-17.19h-3c0 7.04 1.476 13.28 4.478 18.66l2.62-1.47Zm-4.098-17.19v-27.64h-3v27.64h3Zm0-27.64c0-6.62 1.383-12.33 4.098-17.19l-2.62-1.47c-3.002 5.38-4.478 11.62-4.478 18.66h3Zm4.098-17.19c2.723-4.88 6.512-8.67 11.389-11.39l-1.462-2.62c-5.363 2.99-9.553 7.18-12.547 12.54l2.62 1.47Zm11.389-11.39c4.862-2.72 10.576-4.1 17.189-4.1v-3c-7.04 0-13.273 1.48-18.651 4.48l1.462 2.62Zm17.189-4.1c6.613 0 12.327 1.38 17.189 4.1l1.462-2.62c-5.378-3-11.611-4.48-18.651-4.48v3Zm17.189 4.1c4.877 2.72 8.666 6.51 11.389 11.39l2.62-1.47c-2.994-5.36-7.184-9.55-12.547-12.54l-1.462 2.62Zm11.389 11.39c2.715 4.86 4.098 10.57 4.098 17.19h3c0-7.04-1.476-13.28-4.478-18.66l-2.62 1.47Zm4.098 17.19v27.64h3v-27.64h-3Zm0 27.64c0 6.62-1.383 12.33-4.098 17.19l2.62 1.47c3.002-5.38 4.478-11.62 4.478-18.66h-3Zm-4.098 17.19c-2.723 4.88-6.512 8.67-11.389 11.39l1.462 2.62c5.363-2.99 9.553-7.18 12.547-12.54l-2.62-1.47Zm-11.389 11.39c-4.862 2.72-10.576 4.1-17.189 4.1v3c7.04 0 13.273-1.48 18.651-4.48l-1.462-2.62Zm-17.189-9.41c3.319 0 6.358-.79 9.079-2.38l-1.518-2.59c-2.228 1.3-4.736 1.97-7.561 1.97v3Zm9.079-2.38a17.71 17.71 0 0 0 6.423-6.43l-2.588-1.51a14.74 14.74 0 0 1-5.353 5.35l1.518 2.59Zm6.423-6.43c1.595-2.72 2.382-5.76 2.382-9.08h-3c0 2.83-.664 5.34-1.97 7.57l2.588 1.51Zm2.382-9.08v-30.33h-3v30.33h3Zm0-30.33c0-3.32-.787-6.36-2.382-9.08l-2.588 1.52c1.306 2.22 1.97 4.73 1.97 7.56h3Zm-2.382-9.08a17.683 17.683 0 0 0-6.423-6.42l-1.518 2.58a14.691 14.691 0 0 1 5.353 5.36l2.588-1.52Zm-6.423-6.42c-2.721-1.6-5.76-2.39-9.079-2.39v3c2.825 0 5.333.67 7.561 1.97l1.518-2.58Zm-9.079-2.39c-3.319 0-6.358.79-9.079 2.39l1.518 2.58c2.228-1.3 4.736-1.97 7.561-1.97v-3Zm-9.079 2.39a17.683 17.683 0 0 0-6.423 6.42l2.588 1.52a14.691 14.691 0 0 1 5.353-5.36l-1.518-2.58Zm-6.423 6.42c-1.595 2.72-2.382 5.76-2.382 9.08h3c0-2.83.664-5.34 1.97-7.56l-2.588-1.52Zm-2.382 9.08v30.33h3v-30.33h-3Zm0 30.33c0 3.32.787 6.36 2.382 9.08l2.588-1.51c-1.306-2.23-1.97-4.74-1.97-7.57h-3Zm2.382 9.08a17.71 17.71 0 0 0 6.423 6.43l1.518-2.59a14.74 14.74 0 0 1-5.353-5.35l-2.588 1.51Zm6.423 6.43c2.721 1.59 5.76 2.38 9.079 2.38v-3c-2.825 0-5.333-.67-7.561-1.97l-1.518 2.59Z"/><mask id="g" width="70" height="97" x="177" y="2421" maskUnits="userSpaceOnUse" style="mask-type:alpha"><path fill="#000" d="M211.886 2517.92c-6.827 0-12.8-1.43-17.92-4.29-5.12-2.86-9.109-6.85-11.968-11.97-2.859-5.12-4.288-11.09-4.288-17.92v-27.64c0-6.83 1.429-12.8 4.288-17.92 2.859-5.12 6.848-9.11 11.968-11.97 5.12-2.86 11.093-4.29 17.92-4.29 6.827 0 12.8 1.43 17.92 4.29 5.12 2.86 9.109 6.85 11.968 11.97 2.859 5.12 4.288 11.09 4.288 17.92v27.64c0 6.83-1.429 12.8-4.288 17.92-2.859 5.12-6.848 9.11-11.968 11.97-5.12 2.86-11.093 4.29-17.92 4.29Zm0-16.51c3.072 0 5.845-.73 8.32-2.18a16.191 16.191 0 0 0 5.888-5.89c1.451-2.47 2.176-5.24 2.176-8.32v-30.33c0-3.07-.725-5.85-2.176-8.32a16.191 16.191 0 0 0-5.888-5.89c-2.475-1.45-5.248-2.18-8.32-2.18s-5.845.73-8.32 2.18a16.191 16.191 0 0 0-5.888 5.89c-1.451 2.47-2.176 5.25-2.176 8.32v30.33c0 3.08.725 5.85 2.176 8.32a16.191 16.191 0 0 0 5.888 5.89c2.475 1.45 5.248 2.18 8.32 2.18Z"/></mask><g mask="url(#g)"><path fill="url(#h)" d="M142.289 2470h100v100h-100z" transform="rotate(-45 142.289 2470)"/></g><path fill="#000" d="m193.966 2513.63.487-.87-.487.87Zm-11.968-11.97.873-.48-.873.48Zm0-63.48.873.48-.873-.48Zm11.968-11.97-.487-.88.487.88Zm35.84 0 .487-.88-.487.88Zm11.968 75.45-.873-.48.873.48Zm-11.968 11.97.487.88-.487-.88Zm-9.6-14.4-.506-.86.506.86Zm5.888-5.89-.863-.5.863.5Zm0-46.97-.863.5.863-.5Zm-5.888-5.89-.506.86.506-.86Zm-16.64 0-.506-.86.506.86Zm-5.888 52.86-.863.51.863-.51Zm5.888 5.89.506-.86-.506.86Zm8.32 17.69c-6.684 0-12.484-1.4-17.433-4.16l-.974 1.75c5.291 2.95 11.438 4.41 18.407 4.41v-2Zm-17.433-4.16c-4.958-2.77-8.814-6.63-11.582-11.58l-1.746.97c2.949 5.28 7.072 9.41 12.354 12.36l.974-1.75Zm-11.582-11.58c-2.763-4.95-4.161-10.75-4.161-17.44h-2c0 6.97 1.46 13.12 4.415 18.41l1.746-.97Zm-4.161-17.44v-27.64h-2v27.64h2Zm0-27.64c0-6.69 1.398-12.49 4.161-17.44l-1.746-.97c-2.955 5.29-4.415 11.44-4.415 18.41h2Zm4.161-17.44c2.768-4.95 6.624-8.81 11.582-11.58l-.974-1.75c-5.282 2.95-9.405 7.08-12.354 12.36l1.746.97Zm11.582-11.58c4.949-2.76 10.749-4.16 17.433-4.16v-2c-6.969 0-13.116 1.46-18.407 4.41l.974 1.75Zm17.433-4.16c6.684 0 12.484 1.4 17.433 4.16l.974-1.75c-5.291-2.95-11.438-4.41-18.407-4.41v2Zm17.433 4.16c4.958 2.77 8.814 6.63 11.582 11.58l1.746-.97c-2.949-5.28-7.072-9.41-12.354-12.36l-.974 1.75Zm11.582 11.58c2.763 4.95 4.161 10.75 4.161 17.44h2c0-6.97-1.46-13.12-4.415-18.41l-1.746.97Zm4.161 17.44v27.64h2v-27.64h-2Zm0 27.64c0 6.69-1.398 12.49-4.161 17.44l1.746.97c2.955-5.29 4.415-11.44 4.415-18.41h-2Zm-4.161 17.44c-2.768 4.95-6.624 8.81-11.582 11.58l.974 1.75c5.282-2.95 9.405-7.08 12.354-12.36l-1.746-.97Zm-11.582 11.58c-4.949 2.76-10.749 4.16-17.433 4.16v2c6.969 0 13.116-1.46 18.407-4.41l-.974-1.75Zm-17.433-10.35c3.237 0 6.187-.77 8.826-2.32l-1.012-1.72c-2.31 1.35-4.907 2.04-7.814 2.04v2Zm8.826-2.32a17.18 17.18 0 0 0 6.245-6.24l-1.726-1.01a15.175 15.175 0 0 1-5.531 5.53l1.012 1.72Zm6.245-6.24c1.547-2.64 2.313-5.59 2.313-8.83h-2c0 2.91-.684 5.51-2.039 7.82l1.726 1.01Zm2.313-8.83v-30.33h-2v30.33h2Zm0-30.33c0-3.24-.766-6.19-2.313-8.83l-1.726 1.01c1.355 2.31 2.039 4.91 2.039 7.82h2Zm-2.313-8.83a17.18 17.18 0 0 0-6.245-6.24l-1.012 1.72a15.328 15.328 0 0 1 5.531 5.53l1.726-1.01Zm-6.245-6.24c-2.639-1.55-5.589-2.32-8.826-2.32v2c2.907 0 5.504.69 7.814 2.04l1.012-1.72Zm-8.826-2.32c-3.237 0-6.187.77-8.826 2.32l1.012 1.72c2.31-1.35 4.907-2.04 7.814-2.04v-2Zm-8.826 2.32a17.18 17.18 0 0 0-6.245 6.24l1.726 1.01a15.328 15.328 0 0 1 5.531-5.53l-1.012-1.72Zm-6.245 6.24c-1.547 2.64-2.313 5.59-2.313 8.83h2c0-2.91.684-5.51 2.039-7.82l-1.726-1.01Zm-2.313 8.83v30.33h2v-30.33h-2Zm0 30.33c0 3.24.766 6.19 2.313 8.83l1.726-1.01c-1.355-2.31-2.039-4.91-2.039-7.82h-2Zm2.313 8.83a17.18 17.18 0 0 0 6.245 6.24l1.012-1.72a15.175 15.175 0 0 1-5.531-5.53l-1.726 1.01Zm6.245 6.24c2.639 1.55 5.589 2.32 8.826 2.32v-2c-2.907 0-5.504-.69-7.814-2.04l-1.012 1.72Z"/><defs><linearGradient id="a" x1="137.5" x2="137.5" y1="2395" y2="2545" gradientUnits="userSpaceOnUse"><stop stop-color="#8B83FF"/><stop offset=".16" stop-color="#8B83FF"/><stop offset=".17" stop-color="#00C0E9"/><stop offset=".33" stop-color="#00C0E9"/><stop offset=".34" stop-color="#5FDF6C"/><stop offset=".49" stop-color="#5FDF6C"/><stop offset=".5" stop-color="#F8D71E"/><stop offset=".66" stop-color="#F8D71E"/><stop offset=".67" stop-color="#FF8E00"/><stop offset=".83" stop-color="#FF8E00"/><stop offset=".84" stop-color="#FF532E"/><stop offset="1" stop-color="#FF532E"/></linearGradient><linearGradient id="b" x1="178" x2="246" y1="2660" y2="2660" gradientUnits="userSpaceOnUse"><stop stop-color="#F44336"/><stop offset=".49" stop-color="#F44336"/><stop offset=".5" stop-color="#FF8E00"/><stop offset="1" stop-color="#FF8E00"/></linearGradient><linearGradient id="c" x1="178" x2="246" y1="2850" y2="2850" gradientUnits="userSpaceOnUse"><stop stop-color="#0080FD"/><stop offset=".49" stop-color="#0080FD"/><stop offset=".5" stop-color="#8F4EFF"/><stop offset="1" stop-color="#8F4EFF"/></linearGradient><linearGradient id="d" x1="178" x2="246" y1="3040" y2="3040" gradientUnits="userSpaceOnUse"><stop stop-color="#E8BD00"/><stop offset=".49" stop-color="#E8BD00"/><stop offset=".5" stop-color="#FEFEFE"/><stop offset="1" stop-color="#FEFEFE"/></linearGradient><linearGradient id="e" x1="178" x2="246" y1="3230" y2="3230" gradientUnits="userSpaceOnUse"><stop stop-color="#15B550"/><stop offset=".49" stop-color="#15B550"/><stop offset=".5" stop-color="#424242"/><stop offset="1" stop-color="#424242"/></linearGradient><linearGradient id="f" x1="178" x2="246" y1="3046" y2="3046" gradientUnits="userSpaceOnUse"><stop stop-opacity="0"/><stop offset=".49" stop-opacity="0"/><stop offset=".5"/><stop offset="1"/></linearGradient><linearGradient id="h" x1="192.289" x2="192.289" y1="2470" y2="2570" gradientUnits="userSpaceOnUse"><stop stop-color="#8B83FF"/><stop offset=".16" stop-color="#8B83FF"/><stop offset=".17" stop-color="#00C0E9"/><stop offset=".33" stop-color="#00C0E9"/><stop offset=".34" stop-color="#5FDF6C"/><stop offset=".49" stop-color="#5FDF6C"/><stop offset=".5" stop-color="#F8D71E"/><stop offset=".66" stop-color="#F8D71E"/><stop offset=".67" stop-color="#FF8E00"/><stop offset=".83" stop-color="#FF8E00"/><stop offset=".84" stop-color="#FF532E"/><stop offset="1" stop-color="#FF532E"/></linearGradient></defs></svg>