<svg xmlns="http://www.w3.org/2000/svg" fill="none" viewBox="0 0 180 230"><path fill="#E0BB95" d="M45.204 180.826c-8.307-10.648-25.73-33.559-28.33-37.9-2.63-4.391-4.557-9.57-.683-13.983 4.35-4.952 9.405-2.237 13.963 2.922l25.221 31.063c.984-1.378.498-1.761 1.606-3.264-.715-.528-1.347-1.201-1.885-1.905 0 0-29.2-32.928-33.86-39.123-.964-1.273-7.075-9.912-1.99-15.702 3.937-4.474 7.821-5.086 13.062-.052l38.594 40.21a300.98 300.98 0 0 1 2.362-2.652c-1.968-1.429-28.588-27.262-41.287-41.66-2.652-3.004-4.558-5.593-5.78-7.187-3.895-5.138-4.226-10.277-.953-13.55 4.143-4.143 7.406-5.54 14.356.25 8.183 6.815 47.481 44.477 47.14 44.86.797.591 1.564 1.315 2.144 2.145.963-.923 1.895-1.814 2.807-2.663 0 0-37.486-33.301-41.215-37.693-3.74-4.382-3.926-8.587-.777-12.357 3.46-4.143 7.603-5.883 14.988-.673 17.723 12.502 66.903 55.073 68.249 55.882 1.357.817.642 2.215 1.875 1.563 2.009-1.056 38.738 48.807 11.58 75.966-18.085 18.085-40.51 19.608-57.746 12.648-21.617-8.733-34.14-25.212-43.441-37.145Z"/><path fill="#BA8F63" d="M43.146 78.303c3.988 3.49 46.259 41.93 48.962 43.97 2.113 1.596 5.231 1.254 6.111 3.585.612 1.626-3.884 2.91-5.873 3.055-1.864.144-3.138-.466-4.62-1.948-1.48-1.481-48.288-45.886-48.288-45.886-3.936-3.874-7.168-4.868-9.55-4.806-.788.02-.953-.953-.28-1.377 3.087-1.927 7.157-2.165 13.538 3.407ZM33.132 106.113c5.355 5.541 35.331 36.368 36.523 37.89 1.19 1.523 1.232 3.408 3.635 3.531 1.823.104 3.646-1.822 4.423-3.448 1.077-2.279-3.117-3.533-5.023-5.459-1.906-1.906-30.121-29.106-35.943-34.782-4.588-4.485-8.576-5.18-11.694-4.403-.994.25-.922 1.669.083 1.823 2.134.332 4.848 1.596 7.996 4.848ZM30.854 129.731s28.93 30.36 29.034 30.442c0 0 2.796 1.865.217 6.888-.642 1.263-1.812 2.931-3.263 1.688-.807-.704-1.263-3.894-1.802-4.599l-27.418-32.555c-3.003-3.148-4.215-3.015-6.815-2.776-2.662.238-2.548-1.43-2.02-1.833 3.367-2.538 7.986-1.626 12.067 2.745Z"/><path fill="#fff" d="M118.206 15.283 65.1 13.43c-8.693-.304-15.987 6.497-16.29 15.19l-3.35 95.942c-.304 8.693 6.497 15.986 15.19 16.29l53.106 1.854c8.693.304 15.986-6.497 16.29-15.19l3.35-95.942c.304-8.693-6.497-15.986-15.19-16.29Z"/><path fill="#000" fill-rule="evenodd" d="M64.976 17.176c-6.623-.231-12.18 4.95-12.411 11.574l-3.35 95.941c-.232 6.624 4.95 12.181 11.573 12.412l53.106 1.854c6.624.232 12.18-4.95 12.412-11.574l3.35-95.941c.231-6.623-4.951-12.18-11.574-12.412l-53.106-1.854ZM45.07 28.488c.376-10.763 9.406-19.183 20.17-18.807l53.105 1.854c10.763.376 19.183 9.406 18.807 20.169l-3.35 95.941c-.376 10.763-9.406 19.184-20.169 18.808l-53.105-1.855c-10.763-.376-19.184-9.405-18.808-20.168l3.35-95.942Z" clip-rule="evenodd"/><path fill="#E8BD00" d="m108.343 21.693-32.98-1.152a6 6 0 0 0-6.205 5.787l-.21 5.997a6 6 0 0 0 5.787 6.206l32.98 1.151a6 6 0 0 0 6.206-5.787l.209-5.996a6 6 0 0 0-5.787-6.206Z"/><path fill="#fff" d="m110.448 44.768-53.106 1.854c-8.693.304-15.494 7.597-15.19 16.29l3.35 95.942c.303 8.693 7.596 15.494 16.29 15.191l53.105-1.855c8.694-.304 15.495-7.597 15.191-16.29l-3.35-95.942c-.304-8.693-7.597-15.494-16.29-15.19Z"/><path fill="#000" fill-rule="evenodd" d="M57.469 50.37c-6.624.23-11.806 5.788-11.574 12.411l3.35 95.942c.231 6.623 5.788 11.805 12.412 11.573l53.105-1.854c6.624-.231 11.805-5.788 11.574-12.411l-3.35-95.942c-.231-6.623-5.788-11.805-12.412-11.574L57.469 50.37Zm-19.07 12.673c-.376-10.763 8.045-19.793 18.808-20.169l53.106-1.854c10.763-.376 19.792 8.044 20.168 18.807l3.351 95.942c.375 10.763-8.045 19.793-18.808 20.168l-53.106 1.855c-10.763.376-19.792-8.045-20.168-18.808L38.4 63.043Z" clip-rule="evenodd"/><path fill="#E8BD00" d="M101.054 51.85 68.074 53a6 6 0 0 0-5.786 6.206l.209 5.997a6 6 0 0 0 6.206 5.787l32.98-1.152a6.001 6.001 0 0 0 5.787-6.206l-.21-5.996a6 6 0 0 0-6.206-5.787Z"/><path fill="#fff" d="M116.706 77.76 63.6 75.905c-8.693-.303-15.987 6.498-16.29 15.19l-3.35 95.942c-.304 8.694 6.497 15.987 15.19 16.29l53.106 1.855c8.693.304 15.986-6.498 16.29-15.191l3.35-95.941c.304-8.694-6.497-15.987-15.19-16.29Z"/><path fill="#000" fill-rule="evenodd" d="M63.476 79.653c-6.623-.232-12.18 4.95-12.411 11.573l-3.35 95.942c-.232 6.623 4.95 12.18 11.573 12.411l53.106 1.855c6.624.231 12.18-4.951 12.412-11.574l3.35-95.942c.231-6.623-4.951-12.18-11.574-12.411l-53.106-1.855ZM43.57 90.965c.376-10.763 9.406-19.184 20.17-18.808l53.105 1.855c10.763.375 19.183 9.405 18.807 20.168l-3.35 95.942c-.376 10.763-9.406 19.183-20.169 18.807l-53.105-1.854c-10.763-.376-19.184-9.406-18.808-20.169l3.35-95.941Z" clip-rule="evenodd"/><path fill="#E8BD00" d="m106.843 84.17-32.98-1.152a6 6 0 0 0-6.205 5.787l-.21 5.996a6 6 0 0 0 5.787 6.206l32.98 1.152a6 6 0 0 0 6.206-5.787l.209-5.997a6 6 0 0 0-5.787-6.205ZM68.383 196.897l32.98 1.151a6 6 0 0 0 6.206-5.787l.209-5.996a6 6 0 0 0-5.787-6.206l-32.98-1.151a6 6 0 0 0-6.205 5.787l-.21 5.996a6 6 0 0 0 5.787 6.206Z"/><path fill="#E0BB95" d="M125.278 91.594c-3.522 17.982 6.807 34.704 6.807 34.704l-9.545 16.969-4.243 22.275s18.032 51.971 30.546 37.473c13.859-14.46 23.648-34.773 8.576-78.597-6.588-19.162-9.674-30.7-10.617-37.424-1.543-10.969-18.261-12.129-21.524 4.6Z"/><path fill="#BA8F63" d="M119.625 178.889c-13.652-26.247 8.222-50.473 8.222-50.473 1.453-1.401 3.815-3.267 4.083-2.766 3.315 6.193-1.284 10.171-4.661 15.763-12.74 21.131-3.376 36.689-.818 42.272.725 1.575 6.638 11.446 7.519 13.072.6 1.119-.87 2.175-1.74 1.244-2.155-2.259-9.86-13.839-12.605-19.112Z"/><path fill="#BA8F63" d="M144.257 91.138c.746 7.872 2.807 16.935 8.576 35.962 5.894 19.464 8.142 33.54 5.79 46.167-1.17 6.308-2.755 15.434-15.588 28.349-9.312 9.375-18.987 14.719-25.388 17.536-1.025.446-.508 1.958.59 1.73 9.292-1.958 18.935-6.857 28.62-15.858 2.672-2.486 3.677-3.801 8.286-9.902 6.049-8.017 17.744-27.273 2.662-71.107-6.588-19.163-9.933-29.987-10.886-36.7-.29-2.05-1.129-4.007-2.486-5.468-.653-.714-1.823-.083-1.575.849.467 1.813 1.036 4.599 1.399 8.442Z"/></svg>