<svg xmlns="http://www.w3.org/2000/svg" fill="none" viewBox="0 0 180 230"><path fill="#E0BB95" d="M32.63 132.6c1.656-13.402 5.538-41.923 6.768-46.83 1.245-4.966 3.545-9.99 9.404-10.371 6.577-.425 8.233 5.068 7.809 11.939l-4.131 39.799c1.67-.279 1.596-.894 3.442-1.173-.132-.877-.103-1.801.014-2.68 0 0 2.637-43.93 3.721-51.606.22-1.582 2.007-12.012 9.698-12.51 5.946-.381 9.126 1.934 9.271 9.2l-1.141 55.721c1.186-.072 2.373-.145 3.544-.204-.38-2.403-.937-39.493.264-58.653.25-3.999.732-7.177.996-9.17.88-6.386 4.277-10.253 8.906-10.253 5.859 0 9.156 1.318 9.976 10.327.966 10.605 2.124 65.024 1.611 65.054.146.981.176 2.035 0 3.031 1.332.03 2.622.059 3.867.104 0 0-2.959-50.055-2.49-55.797.453-5.742 3.296-8.847 8.189-9.287 5.376-.483 9.535 1.216 11.074 10.122 3.69 21.372 8.364 86.25 8.745 87.774.381 1.538-1.114 2.021.219 2.432 2.168.673-7.119 61.903-45.526 61.903-25.577 0-42.51-14.779-49.776-31.888-9.111-21.461-6.314-41.969-4.454-56.984Z"/><path fill="#BA8F63" d="M103.678 58.656c.353 5.288 3.062 62.358 3.531 65.712.366 2.622 2.813 4.586 1.787 6.855-.717 1.583-4.805-.688-6.314-1.992-1.42-1.215-1.888-2.548-1.888-4.642 0-2.096-1.7-66.593-1.7-66.593-.044-5.522-1.625-8.51-3.355-10.151-.57-.542 0-1.348.777-1.172 3.544.82 6.592 3.53 7.162 11.983ZM76.923 71.24c-.132 7.704-.733 50.698-.967 52.616-.234 1.92-1.538 3.282.073 5.069 1.217 1.362 3.867 1.29 5.567.688 2.373-.849.292-4.702.307-7.411 0-2.696-.717-41.88-.82-50.01-.074-6.416-2.402-9.727-5.156-11.382-.879-.528-1.831.527-1.231 1.347 1.275 1.744 2.3 4.556 2.227 9.082ZM58.615 86.33s-1.011 41.924-.998 42.056c0 0 .66 3.295-4.715 5.025-1.348.438-3.355.79-3.502-1.115-.073-1.069 1.86-3.646 1.977-4.525l3.633-42.408c.104-4.35-.849-5.112-2.855-6.782-2.051-1.714-.791-2.812-.133-2.725 4.175.586 6.797 4.498 6.593 10.474ZM120.616 68.633c3.661 20.727 5.038 69.213 6.21 88.491l6.241-1.905c-.264-1.83-4.425-64.906-8.35-85.253-1.055-5.435-3.413-8.35-6.006-9.741-.966-.513-1.86.747-1.113 1.552 1.26 1.377 2.431 3.516 3.018 6.856Z"/><path fill="#fff" d="M59.188 30.958 15.525 61.244c-7.148 4.958-8.923 14.77-3.965 21.918l54.714 78.882c4.958 7.147 14.771 8.922 21.918 3.965l43.663-30.286c7.148-4.958 8.923-14.771 3.965-21.918L81.106 34.923c-4.958-7.147-14.771-8.922-21.918-3.965Z"/><path fill="#000" fill-rule="evenodd" d="M17.662 64.322c-5.445 3.777-6.798 11.254-3.02 16.7l54.714 78.881c3.777 5.446 11.254 6.798 16.7 3.021l43.662-30.286c5.446-3.777 6.798-11.254 3.021-16.699L78.025 37.057c-3.778-5.446-11.254-6.798-16.7-3.02L17.662 64.321ZM8.48 85.296c-6.138-8.85-3.94-20.999 4.909-27.137L57.05 27.873c8.849-6.138 20.998-3.94 27.136 4.91l54.715 78.881c6.138 8.849 3.94 20.999-4.909 27.137L90.33 169.087c-8.85 6.138-20.999 3.94-27.137-4.909L8.48 85.296Z" clip-rule="evenodd"/><path fill="#F44336" d="M70.055 146.031c6.213 0 11.25-5.037 11.25-11.25s-5.037-11.25-11.25-11.25c-6.214 0-11.25 5.037-11.25 11.25s5.037 11.25 11.25 11.25ZM37.898 100.789c6.214 0 11.25-5.037 11.25-11.25s-5.036-11.25-11.25-11.25c-6.213 0-11.25 5.037-11.25 11.25s5.037 11.25 11.25 11.25Z"/><path fill="#fff" d="M111.922 26.102 59.946 37.154c-8.508 1.81-13.939 10.173-12.13 18.682l19.968 93.9c1.81 8.508 10.173 13.939 18.682 12.13l51.976-11.053c8.508-1.809 13.938-10.173 12.129-18.681l-19.968-93.9c-1.809-8.51-10.173-13.94-18.681-12.13Z"/><path fill="#000" fill-rule="evenodd" d="M60.735 40.819c-6.483 1.378-10.62 7.751-9.242 14.233l19.968 93.901c1.378 6.482 7.75 10.62 14.233 9.242l51.976-11.053c6.483-1.378 10.62-7.751 9.242-14.234l-19.968-93.9c-1.378-6.482-7.751-10.62-14.233-9.242L60.735 40.82ZM44.157 56.612c-2.24-10.534 4.484-20.889 15.018-23.129l51.976-11.052c10.534-2.24 20.889 4.483 23.129 15.017l19.968 93.901c2.24 10.534-4.484 20.889-15.018 23.129l-51.976 11.053c-10.534 2.24-20.89-4.484-23.13-15.018l-19.967-93.9Z" clip-rule="evenodd"/><path fill="#F44336" d="M81.805 137.301c6.213 0 11.25-5.037 11.25-11.25s-5.037-11.25-11.25-11.25c-6.214 0-11.25 5.037-11.25 11.25s5.036 11.25 11.25 11.25ZM69.633 83.148c6.213 0 11.25-5.036 11.25-11.25 0-6.213-5.037-11.25-11.25-11.25s-11.25 5.037-11.25 11.25c0 6.214 5.037 11.25 11.25 11.25Z"/><path fill="#fff" d="m157.936 37.94-52.834-5.684c-8.648-.93-16.413 5.326-17.344 13.975L77.49 141.68c-.93 8.649 5.327 16.414 13.975 17.344l52.833 5.684c8.649.93 16.414-5.327 17.345-13.975l10.268-95.45c.93-8.648-5.327-16.413-13.975-17.344Z"/><path fill="#000" fill-rule="evenodd" d="M104.702 35.984c-6.59-.708-12.506 4.059-13.215 10.648l-10.268 95.449c-.709 6.59 4.058 12.506 10.648 13.215l52.833 5.684c6.589.709 12.506-4.059 13.215-10.648l10.268-95.45c.708-6.589-4.059-12.505-10.648-13.214l-52.833-5.684ZM84.03 45.83c1.152-10.708 10.766-18.454 21.474-17.302l52.833 5.683c10.708 1.152 18.454 10.766 17.303 21.474l-10.268 95.449c-1.152 10.708-10.767 18.455-21.474 17.303l-52.834-5.684c-10.707-1.152-18.454-10.766-17.302-21.474L84.03 45.83Z" clip-rule="evenodd"/><path fill="#F44336" d="M96.982 134.723c6.178.664 11.724-3.805 12.389-9.983.664-6.177-3.805-11.724-9.982-12.388-6.178-.665-11.725 3.804-12.39 9.982-.664 6.177 3.806 11.724 9.983 12.389ZM145.906 139.922c6.213 0 11.25-5.037 11.25-11.25s-5.037-11.25-11.25-11.25-11.25 5.037-11.25 11.25 5.037 11.25 11.25 11.25ZM151.203 84.672c6.213 0 11.25-5.037 11.25-11.25s-5.037-11.25-11.25-11.25-11.25 5.037-11.25 11.25 5.037 11.25 11.25 11.25ZM103.484 79.54c6.214 0 11.25-5.038 11.25-11.25 0-6.214-5.036-11.25-11.25-11.25-6.213 0-11.25 5.036-11.25 11.25 0 6.212 5.037 11.25 11.25 11.25Z"/><path fill="#E0BB95" d="M152.358 126.13c-15.206 10.224-19.727 29.352-19.727 29.352l-18.75 5.25-18.75 12.75s-23.998 49.5-4.897 48.097c20.023-.424 41.308-7.866 61.641-49.512 8.89-18.208 14.868-28.549 18.954-33.969 6.666-8.848-4.335-21.49-18.471-11.968Z"/><path fill="#BA8F63" d="M86.63 183.857c8.905-28.213 41.503-29.877 41.503-29.877 2.018.038 5.009.387 4.844.932-2.036 6.723-8.1 6.283-14.444 7.851-23.95 5.932-28.33 23.554-30.468 29.311-.601 1.626-1.216 3.545-1.743 5.318-.367 1.216-2.154.922-2.11-.351.073-3.12.63-7.515 2.418-13.184Z"/><path fill="#BA8F63" d="M166.089 139.223c-5.039 6.093-9.99 13.959-19.365 31.494-9.594 17.93-17.96 29.472-28.55 36.738-5.289 3.633-12.861 8.966-31.07 9.024-13.213.044-23.833-3.018-30.35-5.553-1.041-.409-1.745 1.026-.807 1.641 7.954 5.186 18.238 8.541 31.45 9.024 3.648.132 5.29-.088 12.863-1.143 9.945-1.392 31.83-6.738 52.162-48.399 8.892-18.207 14.18-28.227 18.252-33.646 1.245-1.656 2.036-3.633 2.109-5.625.044-.968-1.23-1.349-1.713-.513-.952 1.611-2.52 3.984-4.981 6.958Z"/></svg>