<svg xmlns="http://www.w3.org/2000/svg" fill="none" viewBox="0 0 180 230"><path fill="#9BB39B" d="M65 15H15v50h50V15Z"/><path fill="#82A588" d="M115 15H65v50h50V15Z"/><path fill="#9BB39B" d="M165 15h-50v50h50V15Z"/><path fill="#82A588" d="M65 65H15v50h50V65Z"/><path fill="#9BB39B" d="M115 65H65v50h50V65Z"/><path fill="#82A588" d="M165 65h-50v50h50V65Z"/><path fill="#9BB39B" d="M65 115H15v50h50v-50Z"/><path fill="#82A588" d="M115 115H65v50h50v-50Z"/><path fill="#9BB39B" d="M165 115h-50v50h50v-50Z"/><path fill="#82A588" d="M65 165H15v50h50v-50ZM165 165h-50v50h50v-50Z"/><path fill="#9BB39B" d="M115 165H65v50h50v-50Z"/><path fill="#966753" fill-rule="evenodd" d="M145 15H35c-11.046 0-20 8.954-20 20v160c0 11.046 8.954 20 20 20h110c11.046 0 20-8.954 20-20V35c0-11.046-8.954-20-20-20ZM35 5C18.431 5 5 18.431 5 35v160c0 16.569 13.431 30 30 30h110c16.569 0 30-13.431 30-30V35c0-16.569-13.431-30-30-30H35Z" clip-rule="evenodd"/><path fill="#fff" d="m110.688 49.434-52.935 4.63c-8.666.759-15.076 8.398-14.318 17.064l8.367 95.634c.758 8.666 8.398 15.076 17.063 14.318l52.936-4.632c8.665-.758 15.075-8.397 14.317-17.062l-8.367-95.635c-.758-8.665-8.397-15.076-17.063-14.317Z"/><path fill="#000" fill-rule="evenodd" d="M58.08 57.803c-6.603.578-11.487 6.398-10.909 13l8.367 95.635c.578 6.602 6.398 11.486 13 10.909l52.936-4.632c6.602-.577 11.486-6.398 10.908-13l-8.366-95.635c-.578-6.602-6.398-11.486-13.001-10.908L58.08 57.803ZM39.7 71.457c-.94-10.728 6.997-20.187 17.726-21.125l52.936-4.632c10.728-.938 20.186 6.998 21.125 17.727l8.367 95.634c.939 10.729-6.998 20.187-17.726 21.126l-52.936 4.631c-10.729.939-20.187-6.998-21.125-17.726L39.7 71.457Z" clip-rule="evenodd"/><path fill="#7CB342" d="M81.535 155.129c6.19-.541 10.769-5.998 10.227-12.188-.541-6.189-5.998-10.768-12.188-10.226-6.19.541-10.768 5.998-10.226 12.188.541 6.189 5.998 10.768 12.187 10.226ZM105.442 153.035c6.189-.541 10.768-5.998 10.226-12.187-.541-6.19-5.998-10.768-12.187-10.227-6.19.542-10.769 5.998-10.227 12.188.541 6.189 5.998 10.768 12.188 10.226ZM99.965 97.801c6.19-.541 10.768-5.998 10.227-12.188-.542-6.19-5.998-10.768-12.188-10.226-6.19.541-10.768 5.998-10.227 12.187.542 6.19 5.998 10.769 12.188 10.227ZM76.059 99.895c6.19-.542 10.768-5.998 10.227-12.188-.542-6.19-5.999-10.768-12.188-10.227-6.19.542-10.768 5.999-10.227 12.188.542 6.19 5.998 10.768 12.188 10.227Z"/></svg>