<svg xmlns="http://www.w3.org/2000/svg" fill="none" viewBox="0 0 180 230"><path fill="#9BB39B" d="M65 15H15v50h50V15Z"/><path fill="#82A588" d="M115 15H65v50h50V15Z"/><path fill="#9BB39B" d="M165 15h-50v50h50V15Z"/><path fill="#82A588" d="M65 65H15v50h50V65Z"/><path fill="#9BB39B" d="M115 65H65v50h50V65Z"/><path fill="#82A588" d="M165 65h-50v50h50V65Z"/><path fill="#9BB39B" d="M65 115H15v50h50v-50Z"/><path fill="#82A588" d="M115 115H65v50h50v-50Z"/><path fill="#9BB39B" d="M165 115h-50v50h50v-50Z"/><path fill="#82A588" d="M65 165H15v50h50v-50ZM165 165h-50v50h50v-50Z"/><path fill="#9BB39B" d="M115 165H65v50h50v-50Z"/><path fill="#fff" d="m110.119 49.406-52.87 5.33c-8.655.873-14.964 8.596-14.09 17.251l9.63 95.516c.873 8.654 8.596 14.963 17.25 14.09l52.871-5.331c8.654-.872 14.963-8.596 14.09-17.25l-9.631-95.516c-.872-8.655-8.596-14.963-17.25-14.09Z"/><path fill="#000" fill-rule="evenodd" d="M57.623 58.467c-6.594.665-11.4 6.55-10.736 13.143l9.63 95.516c.666 6.594 6.55 11.4 13.144 10.735l52.87-5.33c6.594-.665 11.401-6.55 10.736-13.144l-9.631-95.515c-.665-6.594-6.549-11.4-13.143-10.736l-52.87 5.33ZM39.425 72.363c-1.08-10.716 6.73-20.278 17.445-21.358l52.87-5.331c10.716-1.08 20.278 6.73 21.358 17.445l9.631 95.516c1.08 10.715-6.73 20.277-17.445 21.358l-52.87 5.331c-10.716 1.08-20.278-6.731-21.358-17.446l-9.631-95.515Z" clip-rule="evenodd"/><path fill="#1D89F3" d="m79.886 119.11-14.924 1.505a7.5 7.5 0 0 0-6.71 8.214l1.505 14.925a7.5 7.5 0 0 0 8.215 6.709l14.924-1.504a7.5 7.5 0 0 0 6.71-8.215L88.1 125.82a7.5 7.5 0 0 0-8.215-6.71ZM76.426 84.782 61.5 86.287a7.5 7.5 0 0 0-6.71 8.214l1.505 14.925a7.5 7.5 0 0 0 8.215 6.709l14.924-1.504a7.5 7.5 0 0 0 6.71-8.215L84.64 91.492a7.5 7.5 0 0 0-8.214-6.71ZM114.215 115.649l-14.925 1.505a7.5 7.5 0 0 0-6.71 8.214l1.505 14.925a7.5 7.5 0 0 0 8.215 6.71l14.924-1.505a7.5 7.5 0 0 0 6.71-8.215l-1.505-14.924a7.5 7.5 0 0 0-8.214-6.71ZM110.754 81.32l-14.925 1.506a7.5 7.5 0 0 0-6.71 8.214l1.505 14.925a7.5 7.5 0 0 0 8.215 6.709l14.924-1.504a7.5 7.5 0 0 0 6.71-8.215l-1.505-14.924a7.5 7.5 0 0 0-8.214-6.71Z"/><path fill="#966753" fill-rule="evenodd" d="M145 15H35c-11.046 0-20 8.954-20 20v160c0 11.046 8.954 20 20 20h110c11.046 0 20-8.954 20-20V35c0-11.046-8.954-20-20-20ZM35 5C18.431 5 5 18.431 5 35v160c0 16.569 13.431 30 30 30h110c16.569 0 30-13.431 30-30V35c0-16.569-13.431-30-30-30H35Z" clip-rule="evenodd"/></svg>