<svg xmlns="http://www.w3.org/2000/svg" fill="none" viewBox="0 0 180 230"><path fill="#9BB39B" d="M65 15H15v50h50V15Z"/><path fill="#82A588" d="M115 15H65v50h50V15Z"/><path fill="#9BB39B" d="M165 15h-50v50h50V15Z"/><path fill="#82A588" d="M65 65H15v50h50V65Z"/><path fill="#9BB39B" d="M115 65H65v50h50V65Z"/><path fill="#82A588" d="M165 65h-50v50h50V65Z"/><path fill="#9BB39B" d="M65 115H15v50h50v-50Z"/><path fill="#82A588" d="M115 115H65v50h50v-50Z"/><path fill="#9BB39B" d="M165 115h-50v50h50v-50Z"/><path fill="#82A588" d="M65 165H15v50h50v-50ZM165 165h-50v50h50v-50Z"/><path fill="#9BB39B" d="M115 165H65v50h50v-50Z"/><path fill="#966753" fill-rule="evenodd" d="M145 15H35c-11.046 0-20 8.954-20 20v160c0 11.046 8.954 20 20 20h110c11.046 0 20-8.954 20-20V35c0-11.046-8.954-20-20-20ZM35 5C18.431 5 5 18.431 5 35v160c0 16.569 13.431 30 30 30h110c16.569 0 30-13.431 30-30V35c0-16.569-13.431-30-30-30H35Z" clip-rule="evenodd"/><path fill="#fff" d="m121.806 54.066-52.936-4.63c-8.666-.759-16.305 5.651-17.063 14.317l-8.367 95.634c-.758 8.666 5.652 16.305 14.317 17.063l52.936 4.631c8.666.758 16.305-5.652 17.063-14.317l8.367-95.635c.758-8.665-5.652-16.304-14.317-17.063Z"/><path fill="#000" fill-rule="evenodd" d="M68.538 53.171c-6.602-.578-12.423 4.306-13 10.908l-8.367 95.635c-.578 6.602 4.306 12.423 10.908 13l52.936 4.632c6.602.577 12.423-4.307 13-10.909l8.367-95.635c.578-6.602-4.306-12.422-10.908-13l-52.936-4.631ZM48.066 63.426c.939-10.729 10.397-18.665 21.125-17.727l52.936 4.632c10.729.938 18.665 10.397 17.727 21.125l-8.367 95.635c-.939 10.728-10.397 18.665-21.126 17.726l-52.936-4.631c-10.728-.939-18.664-10.397-17.726-21.125l8.367-95.635Z" clip-rule="evenodd"/><path fill="#424242" d="M88.011 141.773c14.855 1.299 27.951-9.689 29.251-24.544 1.299-14.855-9.689-27.951-24.544-29.25-14.855-1.3-27.951 9.688-29.25 24.543-1.3 14.855 9.688 27.951 24.543 29.251Z"/></svg>