<svg width="150" height="150" viewBox="0 0 150 150" fill="none" xmlns="http://www.w3.org/2000/svg">
  <path
    d="M148.475 52.2751C148.844 53.1642 149.083 53.739 148.468 52.2587C147.042 48.8251 147.891 50.8694 148.46 52.2383C144.456 42.6403 130.756 38.705 123.394 47.0816C120.322 50.5771 119.242 55.1174 117.288 59.2256C114.983 64.0692 107.662 68.7454 102.28 66.0367C105.822 63.5053 109.263 61.8218 111.945 58.2215C114.571 54.6951 116.688 49.3432 114.144 45.219C111.994 41.7352 107.15 39.9501 103.223 40.8276C98.69 41.8379 97.0597 45.606 95.8364 49.6261C94.3718 54.4326 92.744 56.8136 87.3754 56.0196C83.7667 55.4862 77.3925 53.3131 77.6882 48.7308C77.9903 43.9815 81.3682 39.4077 83.8184 35.5008C86.755 30.8181 90.1125 26.4664 91.2003 20.9172C93.1536 10.9401 88.2677 1.52195 77.6168 0.138475C67.1723 -1.21842 61.1669 7.53679 62.3028 17.2637C62.8591 22.0411 65.4178 25.9297 66.553 30.4977C67.962 36.1758 67.0623 42.1135 65.7713 47.7154C64.8124 51.8622 62.0032 56.3319 57.6402 57.6288C52.8515 59.0519 50.4949 54.8473 49.9047 50.9124C48.9709 44.678 46.0783 38.7006 38.7335 40.4318C34.3006 41.4789 30.9962 44.8691 29.8192 49.2624C28.5027 54.1814 30.8961 58.1712 33.9139 61.8586C35.4503 63.7364 39.5487 67.4838 39.1191 70.2552C38.3956 74.9273 29.1362 69.4003 27.6413 68.2721C23.5455 65.1807 19.4133 62.4323 14.0003 63.0808C8.99571 63.68 4.24493 67.3477 1.96839 71.7915C-2.95023 81.3863 4.20743 91.8002 13.1549 95.544C23.1745 99.7363 32.075 92.9492 42.2304 92.9492C44.2248 92.9492 50.4676 93.1134 49.4187 96.6085C48.0377 101.21 42.8635 103.514 38.7728 105.05C34.5219 106.647 30.46 108.589 28.5034 112.997C26.5382 117.425 27.9522 122.478 31.1648 125.903C37.3631 132.515 48.3399 134.696 54.9486 127.467C57.9034 124.233 59.1052 120.107 60.4351 116.043C60.7777 114.993 61.5517 111.452 63.3237 112.2C66.0291 113.344 63.7963 116.721 62.794 118.207C57.5357 126.019 61.8077 136.984 72.3195 134.508C75.985 133.644 78.6606 130.914 79.1779 127.147C79.8027 122.605 77.1959 116.661 82.4546 113.982C86.7284 111.808 86.1011 120.671 85.938 122.707C85.5161 127.967 85.7356 133.301 87.3809 138.353C90.494 147.917 101.314 154.345 109.819 146.457C117.317 139.504 116.689 127.823 108.749 121.594C105.29 118.878 90.1158 112.593 98.3445 107.054C106.743 101.399 123.594 114.728 127.441 101.048C128.544 97.1215 126.611 92.9274 122.948 91.1893C120.377 89.9704 117.428 90.0145 114.672 90.4168C113.148 90.6407 109.387 92.1585 108.624 90.1251C105.364 81.4132 120.924 73.522 127.479 73.048C133.563 72.6089 139.529 73.6352 144.568 69.2915C149.453 65.0802 150.917 58.1796 148.475 52.2751Z"
    fill="#424242" />
</svg>