<svg xmlns="http://www.w3.org/2000/svg" fill="none" viewBox="0 0 150 150"><path fill="#FF5530" d="M90.814 12.641C89.27 6.681 84.75 2.068 77.589 1.138c-10.305-1.34-16.23 7.3-15.11 16.897.32 2.741 1.307 5.187 2.298 7.64.713 1.764 1.427 3.532 1.895 5.417.41 1.652.622 3.325.684 5.006l23.458-23.457ZM50.594 52.861a13.318 13.318 0 0 1-.348-1.627c-.921-6.15-3.775-12.048-11.022-10.34-4.374 1.033-7.634 4.378-8.796 8.712-1.299 4.854 1.063 8.79 4.04 12.429.292.356.676.78 1.105 1.252.664.733 1.434 1.581 2.123 2.472L50.594 52.86ZM32.627 70.828 10.226 93.229C3.333 88.562-1.188 79.905 2.949 71.835c2.246-4.384 6.934-8.003 11.872-8.594 5.34-.64 9.417 2.072 13.459 5.122.583.44 2.363 1.558 4.347 2.465Z"/><path fill="#F9D81F" d="m32.757 126.215 80.766-80.766c-2.171-3.326-6.858-5.017-10.669-4.165-4.472.997-6.081 4.715-7.288 8.681-1.445 4.742-3.051 7.092-8.348 6.308-2.54-.375-6.467-1.573-8.405-3.87L38.087 93.13c1.505-.257 3.031-.419 4.588-.419 1.968 0 8.127.163 7.092 3.611-1.362 4.54-6.468 6.813-10.504 8.329-4.194 1.576-8.202 3.492-10.132 7.841-1.94 4.369-.544 9.355 2.626 12.734a18.8 18.8 0 0 0 1 .99Z"/><path fill="#00C2FF" d="m147.496 52.563.026.065c2.382 5.815.932 12.597-3.874 16.74-3.911 3.372-8.387 3.465-13.041 3.562-1.263.026-2.539.053-3.821.145-6.467.468-21.82 8.254-18.603 16.85.596 1.588 3.045.98 4.786.549.459-.114.868-.215 1.181-.261 2.719-.397 5.629-.44 8.166.762.267.127.526.267.774.42l-14.295 14.295c-3.999-.679-7.879-.998-10.755.938-4.245 2.857-2.177 5.916 1.25 8.567l-13.614 13.613c-.118-2.24-.056-4.495.123-6.736.161-2.009.78-10.753-3.437-8.608-3.679 1.874-3.456 5.367-3.235 8.839.091 1.425.182 2.846.002 4.15-.51 3.717-3.15 6.41-6.767 7.263-6.848 1.613-11.012-2.555-11.557-7.793l80.513-80.513c2.661 1.655 4.871 4.074 6.134 7.05l.044.103Z"/><path fill="#00C2FF" d="m147.452 52.46.036.083-.765-1.84.729 1.756ZM147.522 52.628l.261.626-.281-.675.02.049Z"/><path fill="#FF8E01" d="M78.818 52.407 38.097 93.128c-2.25.384-4.453.983-6.638 1.577-5.768 1.567-11.412 3.1-17.471.566a21.594 21.594 0 0 1-3.754-2.037L32.637 70.83c3.033 1.385 6.538 2.273 6.969-.512.216-1.392-.726-3.033-1.903-4.554L50.598 52.87c.933 3.303 3.221 6.198 7.282 4.991 4.305-1.28 7.077-5.69 8.023-9.781.897-3.894 1.603-7.953 1.456-11.97l23.459-23.46c.718 2.783.788 5.858.175 8.989-.888 4.53-3.31 8.251-5.76 12.018a168.57 168.57 0 0 0-1.524 2.371c-.326.52-.67 1.053-1.02 1.597-2.242 3.48-4.77 7.404-5.028 11.457-.084 1.298.375 2.4 1.157 3.325Z"/><path fill="#60DF6D" d="m60.802 125.932 80.518-80.518c-5.752-3.582-13.614-3.595-18.568 2.041-2.113 2.405-3.271 5.31-4.431 8.223-.504 1.265-1.009 2.532-1.593 3.76-2.274 4.778-9.498 9.392-14.808 6.72.853-.61 1.7-1.17 2.532-1.72 2.576-1.702 5.004-3.306 7.004-5.992 2.591-3.479 4.68-8.76 2.17-12.829a9.293 9.293 0 0 0-.103-.162L32.758 126.22c6.24 5.73 16.285 7.305 22.462.549 2.718-2.975 3.933-6.715 5.148-10.457l.265-.815c.04-.121.085-.276.137-.453.393-1.342 1.17-3.99 2.713-3.339 2.67 1.129.466 4.461-.523 5.927-1.764 2.622-2.44 5.603-2.158 8.3Z"/><path fill="#8C83FF" d="m123.1 91.398-14.293 14.293c.776.132 1.555.277 2.333.421 6.77 1.26 13.389 2.492 15.612-5.41 1.007-3.585-.551-7.396-3.652-9.304ZM99.299 115.2l-13.62 13.619c.157 2.943.626 5.862 1.547 8.69 3.071 9.437 13.747 15.779 22.139 7.996 7.398-6.86 6.778-18.385-1.056-24.531-.695-.546-1.868-1.237-3.228-2.038-1.827-1.076-3.99-2.351-5.782-3.736Z"/><path fill="#000" d="M73.825.098c-3.686.418-6.726 2.172-8.85 4.75-2.831 3.437-4.078 8.268-3.49 13.303.583 5 3.148 8.887 4.215 13.181 1.327 5.348.486 11.048-.776 16.524-.885 3.827-3.517 7.913-7.332 9.047-2.061.612-3.309.075-4.35-1.051-1.04-1.126-1.74-2.966-2.009-4.766-.476-3.179-1.432-6.354-3.367-8.619-1.936-2.265-4.971-3.466-8.873-2.547-4.736 1.119-8.282 4.766-9.532 9.428-1.412 5.276 1.196 9.609 4.233 13.32.827 1.012 2.184 2.36 3.275 3.786 1.092 1.425 1.773 2.888 1.645 3.712-.062.403-.178.574-.313.696-.134.121-.339.217-.683.26-.69.084-1.846-.138-3.051-.575-2.41-.873-5.114-2.55-5.686-2.982-4.071-3.073-8.45-6.005-14.181-5.319-5.342.64-10.241 4.445-12.643 9.133-2.583 5.04-1.986 10.37.399 14.81 2.384 4.442 6.511 8.067 11.142 10.005 5.218 2.183 10.17 1.492 14.92.318s9.367-2.803 14.154-2.803c.957 0 2.935.058 4.399.475.732.208 1.305.516 1.564.797.26.28.352.454.172 1.053-1.191 3.969-5.909 6.182-9.896 7.679h-.002c-4.248 1.596-8.6 3.653-10.694 8.371-2.125 4.79-.595 10.194 2.81 13.825 3.223 3.436 7.655 5.713 12.204 6.203 4.549.49 9.25-.863 12.73-4.67 3.11-3.404 4.32-7.647 5.625-11.635.203-.622.465-1.668.842-2.428.189-.38.41-.654.52-.736.108-.081.004-.08.148-.018.46.195.55.352.62.573.068.22.058.595-.079 1.06-.274.931-1.011 2.087-1.502 2.815-2.785 4.137-3.085 9.13-1.199 12.857 1.886 3.727 6.12 6.062 11.656 4.758 3.97-.935 6.963-3.988 7.528-8.1.342-2.485-.165-5.092-.088-7.285.077-2.193.516-3.794 2.783-4.949.41-.208.67-.239.814-.225.145.014.221.05.354.188.266.274.591 1.061.752 2.052.322 1.983.148 4.63.068 5.622-.422 5.271-.21 10.671 1.469 15.828 1.621 4.98 5.218 9.135 9.625 11.06 4.407 1.926 9.695 1.485 14.145-2.642 7.827-7.259 7.173-19.547-1.118-26.051-.985-.774-2.547-1.639-4.293-2.676-1.745-1.037-3.648-2.218-5.15-3.441-1.502-1.223-2.542-2.504-2.766-3.492-.112-.495-.075-.914.184-1.415.259-.5.78-1.086 1.7-1.705 1.791-1.206 4.126-1.443 6.804-1.214 2.678.228 5.633.919 8.517 1.378 2.885.46 5.722.712 8.229-.136 2.507-.849 4.551-2.914 5.562-6.512v-.002c1.221-4.346-.912-8.977-4.966-10.9-2.812-1.334-5.929-1.258-8.739-.848h-.002c-.956.14-2.177.554-3.244.688-.533.066-1 .05-1.261-.026-.262-.076-.3-.102-.379-.312-.696-1.858-.408-3.594.576-5.354.984-1.76 2.701-3.476 4.744-4.959 4.087-2.965 9.525-4.978 12.418-5.187 2.922-.211 5.906-.064 8.863-.414 2.958-.35 5.917-1.238 8.58-3.534 5.155-4.443 6.693-11.719 4.125-17.93v-.001c-2.113-5.065-6.742-8.6-11.824-9.801-5.082-1.2-10.711-.022-14.598 4.4-3.237 3.684-4.309 8.289-6.175 12.213-1.014 2.131-3.258 4.377-5.821 5.695-1.923.99-3.973 1.458-5.843 1.143 2.875-1.91 5.751-3.65 8.097-6.8 1.364-1.832 2.594-4.122 3.168-6.563.574-2.442.473-5.084-.949-7.389v-.002c-2.394-3.878-7.518-5.75-11.846-4.783-2.469.55-4.239 1.915-5.463 3.62-1.223 1.706-1.948 3.729-2.562 5.747-.706 2.316-1.44 3.902-2.43 4.762-.989.86-2.325 1.216-4.816.847-1.67-.247-4.05-.903-5.861-1.97-1.813-1.068-2.962-2.379-2.846-4.168.27-4.256 3.448-8.678 5.898-12.586 2.864-4.566 6.29-8.97 7.418-14.729 1.005-5.134.262-10.175-2.166-14.144-2.427-3.97-6.567-6.824-12.09-7.541a16.09 16.09 0 0 0-3.89-.047Zm.217 1.975a14.465 14.465 0 0 1 3.416.056c4.986.648 8.512 3.122 10.64 6.602 2.128 3.48 2.832 8.005 1.91 12.715-1.017 5.19-4.217 9.376-7.148 14.05-2.384 3.802-5.876 8.405-6.201 13.522h.002c-.177 2.731 1.674 4.753 3.824 6.02 2.15 1.266 4.694 1.945 6.584 2.224 2.806.415 4.922-.012 6.422-1.316 1.5-1.305 2.29-3.264 3.03-5.69.592-1.948 1.274-3.768 2.275-5.162 1-1.394 2.27-2.387 4.273-2.834 3.423-.765 7.857.885 9.707 3.881 1.088 1.765 1.198 3.797.707 5.883s-1.6 4.175-2.828 5.824c-2.491 3.343-5.741 4.94-9.315 7.494l-1.347.963 1.478.744c3.024 1.522 6.506.947 9.451-.568 2.946-1.516 5.452-3.968 6.711-6.615 1.99-4.183 3.047-8.539 5.872-11.752 3.376-3.843 8.147-4.836 12.634-3.776 4.488 1.06 8.6 4.22 10.438 8.625 2.249 5.44.901 11.78-3.584 15.647-2.309 1.99-4.779 2.739-7.508 3.062-2.729.324-5.691.182-8.772.404-3.575.259-9.046 2.371-13.449 5.565-2.201 1.597-4.124 3.47-5.316 5.602-1.192 2.132-1.616 4.59-.703 7.03v.003c.297.793 1.004 1.33 1.697 1.531.693.2 1.388.172 2.064.088 1.354-.17 2.74-.613 3.288-.693 2.628-.384 5.331-.396 7.591.675 3.176 1.507 4.856 5.15 3.901 8.553-.886 3.15-2.344 4.504-4.281 5.16-1.938.656-4.488.498-7.27.055-2.783-.443-5.775-1.15-8.664-1.397-2.888-.246-5.74-.033-8.09 1.549-1.11.748-1.898 1.55-2.361 2.446a4.07 4.07 0 0 0-.358 2.775c.407 1.795 1.801 3.256 3.453 4.602 1.653 1.345 3.625 2.559 5.393 3.609 1.768 1.05 3.357 1.965 4.078 2.531h.002c7.377 5.787 7.961 16.551.992 23.012-3.941 3.656-8.188 3.934-11.984 2.275-3.796-1.658-7.073-5.39-8.523-9.847-1.568-4.812-1.79-9.94-1.38-15.049.082-1.018.297-3.746-.085-6.102-.192-1.178-.492-2.3-1.291-3.125a2.607 2.607 0 0 0-1.594-.785c-.628-.061-1.271.104-1.916.432-2.92 1.487-3.789 4.141-3.877 6.662-.088 2.52.382 5.087.107 7.084-.456 3.32-2.741 5.655-6.005 6.424-4.836 1.139-7.895-.715-9.413-3.713-1.517-2.999-1.33-7.268 1.073-10.838.498-.739 1.356-1.982 1.763-3.365.204-.692.307-1.454.069-2.221-.239-.767-.875-1.45-1.75-1.82-.722-.305-1.586-.145-2.121.254-.536.398-.854.922-1.118 1.453-.526 1.061-.816 2.281-.95 2.695-1.32 4.03-2.481 7.928-5.202 10.906-3.04 3.326-7.014 4.465-11.039 4.031-4.025-.433-8.065-2.494-10.959-5.582v-.002c-2.934-3.127-4.194-7.694-2.441-11.642 1.766-3.979 5.428-5.755 9.568-7.311 4.085-1.533 9.577-3.868 11.111-8.978.338-1.126.047-2.265-.619-2.985-.666-.72-1.56-1.1-2.484-1.363-1.85-.526-3.936-.55-4.947-.55-5.233 0-10.016 1.72-14.633 2.86-4.617 1.141-9 1.731-13.668-.222-4.197-1.756-8.014-5.117-10.155-9.103-2.14-3.987-2.65-8.526-.38-12.954h.001c2.091-4.08 6.566-7.515 11.1-8.058 4.95-.593 8.728 1.9 12.738 4.927.904.682 3.504 2.287 6.21 3.266 1.352.49 2.703.837 3.974.682.635-.078 1.274-.304 1.781-.762.508-.458.833-1.125.95-1.875.295-1.91-.83-3.662-2.034-5.232-1.203-1.57-2.628-2.997-3.316-3.838-2.917-3.565-5.032-7.106-3.848-11.535v-.002c1.074-4.006 4.047-7.05 8.059-7.998 3.344-.789 5.36.105 6.894 1.9 1.534 1.794 2.465 4.643 2.91 7.615.313 2.083 1.067 4.26 2.516 5.828 1.45 1.569 3.727 2.401 6.39 1.61 4.795-1.425 7.705-6.159 8.712-10.514 1.285-5.579 2.22-11.598.767-17.455-1.173-4.72-3.654-8.506-4.17-12.932-.533-4.562.622-8.852 3.05-11.799 1.82-2.21 4.33-3.703 7.52-4.046Z"/></svg>