<svg width="150" height="150" viewBox="0 0 150 150" fill="none" xmlns="http://www.w3.org/2000/svg">
  <path
    d="M147.502 52.5791C147.866 53.4563 148.102 54.0234 147.495 52.5629C146.088 49.1751 146.926 51.1921 147.487 52.5428C143.537 43.0727 130.019 39.1899 122.756 47.4548C119.725 50.9037 118.659 55.3835 116.731 59.4369C114.457 64.2159 107.233 68.8298 101.923 66.1572C105.418 63.6595 108.813 61.9985 111.459 58.4462C114.05 54.9668 116.139 49.6863 113.629 45.617C111.508 42.1797 106.728 40.4184 102.854 41.2842C98.381 42.281 96.7724 45.9989 95.5654 49.9654C94.1203 54.7078 92.5142 57.057 87.2172 56.2736C83.6566 55.7473 77.3674 53.6032 77.6592 49.082C77.9573 44.396 81.2901 39.8832 83.7076 36.0284C86.6051 31.4082 89.9178 27.1145 90.9911 21.6393C92.9184 11.7952 88.0976 2.50262 77.5887 1.13759C67.2835 -0.201212 61.3582 8.43726 62.4789 18.0345C63.0278 22.7482 65.5524 26.5849 66.6725 31.092C68.0627 36.6944 67.175 42.5529 65.9012 48.0802C64.9551 52.1717 62.1833 56.5818 57.8785 57.8614C53.1536 59.2655 50.8285 55.117 50.2461 51.2345C49.3248 45.0833 46.4707 39.1856 39.2239 40.8937C34.8501 41.9268 31.5897 45.2718 30.4284 49.6065C29.1295 54.4599 31.491 58.3965 34.4685 62.0348C35.9845 63.8875 40.0282 67.585 39.6043 70.3194C38.8905 74.9292 29.7545 69.4759 28.2796 68.3628C24.2384 65.3126 20.1613 62.6008 14.8205 63.2407C9.88259 63.8319 5.19515 67.4507 2.94897 71.8352C-1.90407 81.3021 5.15815 91.5772 13.9863 95.271C23.8723 99.4074 32.6542 92.7108 42.6742 92.7108C44.642 92.7108 50.8015 92.8729 49.7666 96.3214C48.404 100.861 43.2988 103.135 39.2627 104.65C35.0684 106.226 31.0607 108.142 29.1302 112.491C27.1912 116.86 28.5863 121.846 31.7561 125.225C37.8717 131.749 48.7022 133.901 55.2228 126.768C58.1382 123.578 59.324 119.507 60.6361 115.497C60.9742 114.461 61.7378 110.967 63.4862 111.705C66.1555 112.834 63.9525 116.166 62.9636 117.632C57.7754 125.34 61.9904 136.159 72.3621 133.716C75.9787 132.863 78.6186 130.169 79.129 126.453C79.7455 121.971 77.1734 116.106 82.362 113.463C86.5788 111.318 85.9599 120.063 85.799 122.072C85.3827 127.262 85.5993 132.525 87.2226 137.509C90.2942 146.946 100.97 153.288 109.362 145.505C116.76 138.645 116.14 127.12 108.306 120.974C104.893 118.294 89.9211 112.093 98.0401 106.628C106.327 101.048 122.953 114.199 126.749 100.702C127.837 96.8275 125.93 92.6893 122.316 90.9744C119.779 89.7718 116.869 89.8153 114.15 90.2122C112.646 90.4331 108.935 91.9307 108.183 89.9244C104.966 81.3287 120.319 73.5427 126.786 73.075C132.789 72.6417 138.675 73.6544 143.647 69.3686C148.467 65.2134 149.912 58.4048 147.502 52.5791Z"
    fill="url(#paint0_linear_1472_17504)" stroke="black" stroke-width="2" />
  <defs>
    <linearGradient id="paint0_linear_1472_17504" x1="84" y1="157.993" x2="0.999994" y2="74.993"
      gradientUnits="userSpaceOnUse">
      <stop stop-color="#8B83FF" />
      <stop offset="0.16" stop-color="#8B83FF" />
      <stop offset="0.17" stop-color="#00C0E9" />
      <stop offset="0.33" stop-color="#00C0E9" />
      <stop offset="0.34" stop-color="#5FDF6C" />
      <stop offset="0.49" stop-color="#5FDF6C" />
      <stop offset="0.5" stop-color="#F8D71E" />
      <stop offset="0.66" stop-color="#F8D71E" />
      <stop offset="0.67" stop-color="#FF8E00" />
      <stop offset="0.83" stop-color="#FF8E00" />
      <stop offset="0.84" stop-color="#FF532E" />
      <stop offset="1" stop-color="#FF532E" />
    </linearGradient>
  </defs>
</svg>