<svg xmlns="http://www.w3.org/2000/svg" fill="none" viewBox="0 0 150 150"><path fill="#000" d="M147.502 52.579c.364.877.6 1.444-.007-.016-1.407-3.388-.569-1.37-.008-.02-3.95-9.47-17.468-13.353-24.732-5.088-3.031 3.449-4.096 7.928-6.024 11.982-2.274 4.779-9.498 9.393-14.808 6.72 3.495-2.497 6.89-4.159 9.536-7.71 2.591-3.48 4.68-8.76 2.17-12.83-2.121-3.437-6.901-5.199-10.776-4.333-4.472.997-6.08 4.715-7.288 8.681-1.445 4.743-3.05 7.092-8.348 6.309-3.56-.527-9.85-2.67-9.558-7.192.298-4.686 3.631-9.199 6.049-13.054 2.897-4.62 6.21-8.913 7.283-14.389 1.927-9.844-2.893-19.136-13.402-20.501-10.305-1.34-16.23 7.3-15.11 16.897.549 4.713 3.073 8.55 4.193 13.057 1.39 5.602.503 11.46-.77 16.988-.947 4.092-3.719 8.502-8.023 9.781-4.725 1.405-7.05-2.744-7.633-6.627-.921-6.15-3.775-12.049-11.022-10.34-4.374 1.033-7.634 4.378-8.796 8.712-1.299 4.854 1.063 8.79 4.04 12.429 1.516 1.853 5.56 5.55 5.136 8.284-.713 4.61-9.85-.843-11.324-1.956-4.042-3.05-8.119-5.762-13.46-5.122-4.937.59-9.625 4.21-11.871 8.594-4.853 9.467 2.21 19.742 11.037 23.436 9.886 4.136 18.668-2.56 28.688-2.56 1.968 0 8.127.162 7.093 3.61-1.363 4.54-6.468 6.814-10.504 8.329-4.195 1.576-8.202 3.492-10.133 7.841-1.939 4.369-.544 9.355 2.626 12.734 6.116 6.524 16.946 8.676 23.467 1.543 2.915-3.191 4.1-7.262 5.413-11.271.338-1.036 1.102-4.53 2.85-3.792 2.67 1.129.467 4.461-.522 5.927-5.189 7.708-.974 18.526 9.398 16.083 3.617-.852 6.257-3.546 6.767-7.262.616-4.482-1.956-10.347 3.233-12.99 4.217-2.145 3.598 6.6 3.437 8.609-.416 5.19-.2 10.453 1.424 15.437 3.071 9.437 13.747 15.779 22.139 7.996 7.398-6.86 6.778-18.385-1.056-24.531-3.413-2.68-18.385-8.881-10.266-14.346 8.287-5.58 24.913 7.571 28.709-5.926 1.088-3.874-.819-8.013-4.434-9.728-2.536-1.202-5.446-1.159-8.165-.762-1.504.221-5.215 1.719-5.968-.288-3.216-8.595 12.136-16.381 18.604-16.85 6.003-.432 11.889.58 16.861-3.706 4.82-4.155 6.265-10.963 3.855-16.789Z"/><path fill="#484848" d="M1.86 82c-.511-1.94-.645-3.964-.305-6H4v6H1.86ZM6.438 90A21.989 21.989 0 0 1 6 89.52V84h12v6H6.438ZM46 92.935c-1.298-.202-2.598-.224-3.326-.224-2.98 0-5.851.592-8.674 1.316V92h12v.935ZM49.045 98a8.05 8.05 0 0 0 .722-1.679c.446-1.489-.448-2.365-1.767-2.88V92h12v6H49.045ZM36.031 106a40.291 40.291 0 0 1 3.232-1.35c2.187-.821 4.688-1.865 6.737-3.371V106h-9.969ZM28.596 114c.137-.509.314-1.013.534-1.509a11.29 11.29 0 0 1 2.87-3.907V114h-3.404ZM32 125.48a13.508 13.508 0 0 1-1.264-1.48H32v1.48ZM57.248 124a16.338 16.338 0 0 1-2.025 2.768A13.507 13.507 0 0 1 50.806 130H48v-6h9.248ZM60 117.448c-.51 1.549-1.047 3.084-1.718 4.552H48v-6h12v1.448ZM64.72 114c.15-.953-.11-1.82-1.234-2.295-.606-.256-1.093-.003-1.486.479V108h12v6h-9.28ZM62.112 130a9.03 9.03 0 0 1-.112-.196V124h12v6H62.112ZM74 133.176a9.716 9.716 0 0 1-1.638.539c-3.707.874-6.627.053-8.613-1.715H74v1.176ZM102 148.962c-1.93.161-3.837-.197-5.62-.962H102v.962ZM105.672 148c-.555.25-1.113.451-1.672.605V148h1.672ZM114.471 132a15.985 15.985 0 0 1-.494 6H104v-6h10.471ZM111.29 124a16.095 16.095 0 0 1 2.837 6H104v-6h7.29ZM100.386 116c.525.368 1.068.727 1.614 1.074V122H90v-6h10.386ZM96.477 108c-1.644 2.017-.623 4.085 1.404 6H90v-6h6.477ZM102 105.255c-1.001.116-1.95.35-2.829.745H90v-6h12v5.255ZM110.532 106c-2.225-.412-4.452-.797-6.532-.834V100h12v6h-5.468ZM126.913 100a8.475 8.475 0 0 1-.164.702c-.769 2.733-2.064 4.373-3.709 5.298H118v-6h8.913ZM123.948 92a8.385 8.385 0 0 1 3.091 6H118v-6h5.948ZM118 89.977c.133.006.265.013.398.023H118v-.023ZM108.678 84c-.974 1.87-1.263 3.874-.496 5.924l.031.076H104v-6h4.678ZM116 77.036c-2.32 1.392-4.469 3.083-5.993 4.964H104v-6h12v1.036ZM130 72.942a64.407 64.407 0 0 0-3.214.133c-1.163.084-2.615.405-4.193.925H118v-6h12v4.942ZM144 69.054a14.75 14.75 0 0 1-.353.314c-3.518 3.034-7.495 3.413-11.647 3.53V68h12v1.054ZM148.554 60a14.619 14.619 0 0 1-2.046 6H146v-6h2.554ZM146 49.831l.115.169H146v-.169ZM138.482 44c2.034.78 3.93 1.967 5.518 3.491V50h-12v-6h6.482ZM120.93 50a16.635 16.635 0 0 1 1.825-2.545c1.39-1.58 3.007-2.717 4.743-3.455H130v6h-9.07ZM118 56.487l.324-.81c.494-1.24.987-2.478 1.554-3.677H130v6h-12v-1.513ZM114.514 52c-.462 2.163-1.521 4.272-2.732 6H104v-6h10.514ZM104 41.106c1.756-.16 3.62.164 5.293.894H104v-.894ZM100.84 42a8.032 8.032 0 0 1 1.16-.482V42h-1.16ZM90 56.371c2.541-.289 3.85-1.811 4.867-4.371H102v6H90v-1.629ZM78.501 52c1.797 2.56 6.032 3.877 8.716 4.274.27.04.531.071.783.095V58H76v-6h2.501ZM79.026 44c-.736 1.654-1.257 3.356-1.367 5.082-.02.318-.008.623.033.918H76v-6h3.026ZM88 29.213c-.859 1.508-1.811 2.972-2.768 4.444l-.223.343H76v-6h12v1.213ZM91.25 20A20.751 20.751 0 0 1 90 25.06V20h1.25ZM90.635 12c.563 1.879.822 3.904.764 6H90v-6h.635ZM85.073 4A14.413 14.413 0 0 1 88 6.83V10H76V4h9.073ZM76 1.008A17.728 17.728 0 0 1 81.242 2H76v-.992ZM70.386 2A12.644 12.644 0 0 1 74 1.079V2h-3.614ZM62.475 18a18.917 18.917 0 0 1 .245-6H74v6H62.475ZM67.197 34a23.292 23.292 0 0 0-.525-2.908 28.592 28.592 0 0 0-.98-3.092H74v6h-6.803ZM67.04 42c.262-1.994.394-4.002.313-6H74v6h-6.96ZM65.328 50a16.16 16.16 0 0 0 .573-1.92 74.63 74.63 0 0 0 .833-4.08H74v6h-8.672ZM48 44.354c.983 1.605 1.629 3.582 2.033 5.646H48v-5.646ZM36.315 42a11.772 11.772 0 0 1 2.909-1.106c2.88-.68 5.067-.157 6.714 1.106h-9.623ZM31.656 58c-1.02-1.862-1.656-3.84-1.587-6H32v6h-.344ZM34 71.403c2.637.996 5.237 1.29 5.604-1.084.112-.723-.088-1.513-.471-2.319H46v6H34v-2.597ZM20 63.666c1.742.504 3.365 1.336 4.934 2.334H20v-2.334ZM8.034 66c2.034-1.464 4.38-2.471 6.786-2.76a12.848 12.848 0 0 1 3.18.01V66H8.034ZM4 70.088V74H2.046c.235-.724.535-1.447.903-2.165.307-.598.659-1.183 1.051-1.747ZM50.383 52c.567 2.712 2.002 5.369 4.526 6H48v-6h2.383ZM57.34 58a7.33 7.33 0 0 0 .538-.139A9.12 9.12 0 0 0 60 56.918V58h-2.66ZM110.15 60c-1.713 1.807-3.658 3.092-5.695 4.438l-.455.3V60h6.15ZM109.6 66c2.606-1.121 4.964-3.114 6.4-5.28V66h-6.4ZM85.757 130a46.207 46.207 0 0 1-.082-6H88v6h-2.243ZM79.218 124c.03.843.019 1.669-.089 2.453A8.588 8.588 0 0 1 77.824 130H76v-6h3.218ZM85.805 122H88v-6h-2.314c.392 2.153.205 4.909.119 6ZM79.743 116c-.861 1.735-.77 3.862-.635 6H76v-6h3.743ZM46 44H34v6h12v-6ZM46 52H34v6h12v-6ZM60 60H48v6h12v-6ZM74 60H62v6h12v-6ZM32 76H20v6h12v-6ZM18 76H6v6h12v-6ZM32 84H20v6h12v-6ZM46 84H34v6h12v-6ZM60 76H48v6h12v-6ZM60 68H48v6h12v-6ZM74 76H62v6h12v-6ZM74 84H62v6h12v-6ZM18 68H6v6h12v-6ZM48 100h12v6H48v-6ZM34 116h12v6H34v-6ZM48 108h12v6H48v-6ZM62 92h12v6H62v-6ZM88 20H76v6h12v-6ZM132 52h12v6h-12v-6ZM132 60h12v6h-12v-6ZM90 60h12v6H90v-6ZM76 68h12v6H76v-6ZM76 76h12v6H76v-6ZM90 76h12v6H90v-6ZM90 84h12v6H90v-6ZM90 68h12v6H90v-6ZM88 92H76v6h12v-6ZM102 124H90v6h12v-6ZM102 132H90v6h12v-6ZM88 100H76v6h12v-6Z"/><path fill="#E2E2E2" d="M73.825.098c-3.686.418-6.726 2.172-8.85 4.75-2.831 3.437-4.078 8.268-3.49 13.303.583 5 3.148 8.887 4.215 13.181 1.327 5.348.486 11.048-.776 16.524-.885 3.827-3.517 7.913-7.332 9.047-2.061.612-3.309.075-4.35-1.051-1.04-1.126-1.74-2.966-2.009-4.766-.476-3.179-1.432-6.354-3.367-8.619-1.936-2.265-4.971-3.466-8.873-2.547-4.736 1.119-8.282 4.766-9.532 9.428-1.412 5.276 1.196 9.609 4.233 13.32.827 1.012 2.184 2.36 3.275 3.786 1.092 1.425 1.773 2.888 1.645 3.712-.062.403-.178.574-.313.696-.134.121-.339.217-.683.26-.69.084-1.846-.138-3.051-.575-2.41-.873-5.114-2.55-5.686-2.982-4.071-3.073-8.45-6.005-14.181-5.319-5.342.64-10.241 4.445-12.643 9.133-2.583 5.04-1.986 10.37.399 14.81 2.384 4.442 6.511 8.067 11.142 10.005 5.218 2.183 10.17 1.492 14.92.318s9.367-2.803 14.154-2.803c.957 0 2.935.058 4.399.475.732.208 1.305.516 1.564.797.26.28.352.454.172 1.053-1.191 3.969-5.909 6.182-9.896 7.679h-.002c-4.248 1.596-8.6 3.653-10.694 8.371-2.125 4.79-.595 10.194 2.81 13.825 3.223 3.436 7.655 5.713 12.204 6.203 4.549.49 9.25-.863 12.73-4.67 3.11-3.404 4.32-7.647 5.625-11.635.203-.622.465-1.668.842-2.428.189-.38.41-.654.52-.736.108-.081.004-.08.148-.018.46.195.55.352.62.573.068.22.058.595-.079 1.06-.274.931-1.011 2.087-1.502 2.815-2.785 4.137-3.085 9.13-1.199 12.857 1.886 3.727 6.12 6.062 11.656 4.758 3.97-.935 6.963-3.988 7.528-8.1.342-2.485-.165-5.092-.088-7.285.077-2.193.516-3.794 2.783-4.949.41-.208.67-.239.814-.225.145.014.221.05.354.188.266.274.591 1.061.752 2.052.322 1.983.148 4.63.068 5.622-.422 5.271-.21 10.671 1.469 15.828 1.621 4.98 5.218 9.135 9.625 11.06 4.407 1.926 9.695 1.485 14.145-2.642 7.827-7.259 7.173-19.547-1.118-26.051-.985-.774-2.547-1.639-4.293-2.676-1.745-1.037-3.648-2.218-5.15-3.441-1.502-1.223-2.542-2.504-2.766-3.492-.112-.495-.075-.914.184-1.415.259-.5.78-1.086 1.7-1.705 1.791-1.206 4.126-1.443 6.804-1.214 2.678.228 5.633.919 8.517 1.378 2.885.46 5.722.712 8.229-.136 2.507-.849 4.551-2.914 5.562-6.512v-.002c1.221-4.346-.912-8.977-4.966-10.9-2.812-1.334-5.929-1.258-8.739-.848h-.002c-.956.14-2.177.554-3.244.688-.533.066-1 .05-1.261-.026-.262-.076-.3-.102-.379-.312-.696-1.858-.408-3.594.576-5.354.984-1.76 2.701-3.476 4.744-4.959 4.087-2.965 9.525-4.978 12.418-5.187 2.922-.211 5.906-.064 8.863-.414 2.958-.35 5.917-1.238 8.58-3.534 5.155-4.443 6.693-11.719 4.125-17.93v-.001c-2.113-5.065-6.742-8.6-11.824-9.801-5.082-1.2-10.711-.022-14.598 4.4-3.237 3.684-4.309 8.289-6.175 12.213-1.014 2.131-3.258 4.377-5.821 5.695-1.923.99-3.973 1.458-5.843 1.143 2.875-1.91 5.751-3.65 8.097-6.8 1.364-1.832 2.594-4.122 3.168-6.563.574-2.442.473-5.084-.949-7.389v-.002c-2.394-3.878-7.518-5.75-11.846-4.783-2.469.55-4.239 1.915-5.463 3.62-1.223 1.706-1.948 3.729-2.562 5.747-.706 2.316-1.44 3.902-2.43 4.762-.989.86-2.325 1.216-4.816.847-1.67-.247-4.05-.903-5.861-1.97-1.813-1.068-2.962-2.379-2.846-4.168.27-4.256 3.448-8.678 5.898-12.586 2.864-4.566 6.29-8.97 7.418-14.729 1.005-5.134.262-10.175-2.166-14.144-2.427-3.97-6.567-6.824-12.09-7.541a16.09 16.09 0 0 0-3.89-.047Zm.217 1.975a14.465 14.465 0 0 1 3.416.056c4.986.648 8.512 3.122 10.64 6.602 2.128 3.48 2.832 8.005 1.91 12.715-1.017 5.19-4.217 9.376-7.148 14.05-2.384 3.802-5.876 8.405-6.201 13.522h.002c-.177 2.731 1.674 4.753 3.824 6.02 2.15 1.266 4.694 1.945 6.584 2.224 2.806.415 4.922-.012 6.422-1.316 1.5-1.305 2.29-3.264 3.03-5.69.592-1.948 1.274-3.768 2.275-5.162 1-1.394 2.27-2.387 4.273-2.834 3.423-.765 7.857.885 9.707 3.881 1.088 1.765 1.198 3.797.707 5.883s-1.6 4.175-2.828 5.824c-2.491 3.343-5.741 4.94-9.315 7.494l-1.347.963 1.478.744c3.024 1.522 6.506.947 9.451-.568 2.946-1.516 5.452-3.968 6.711-6.615 1.99-4.183 3.047-8.539 5.872-11.752 3.376-3.843 8.147-4.836 12.634-3.776 4.488 1.06 8.6 4.22 10.438 8.625 2.249 5.44.901 11.78-3.584 15.647-2.309 1.99-4.779 2.739-7.508 3.062-2.729.324-5.691.182-8.772.404-3.575.259-9.046 2.371-13.449 5.565-2.201 1.597-4.124 3.47-5.316 5.602-1.192 2.132-1.616 4.59-.703 7.03v.003c.297.793 1.004 1.33 1.697 1.531.693.2 1.388.172 2.064.088 1.354-.17 2.74-.613 3.288-.693 2.628-.384 5.331-.396 7.591.675 3.176 1.507 4.856 5.15 3.901 8.553-.886 3.15-2.344 4.504-4.281 5.16-1.938.656-4.488.498-7.27.055-2.783-.443-5.775-1.15-8.664-1.397-2.888-.246-5.74-.033-8.09 1.549-1.11.748-1.898 1.55-2.361 2.446a4.07 4.07 0 0 0-.358 2.775c.407 1.795 1.801 3.256 3.453 4.602 1.653 1.345 3.625 2.559 5.393 3.609 1.768 1.05 3.357 1.965 4.078 2.531h.002c7.377 5.787 7.961 16.551.992 23.012-3.941 3.656-8.188 3.934-11.984 2.275-3.796-1.658-7.073-5.39-8.523-9.847-1.568-4.812-1.79-9.94-1.38-15.049.082-1.018.297-3.746-.085-6.102-.192-1.178-.492-2.3-1.291-3.125a2.607 2.607 0 0 0-1.594-.785c-.628-.061-1.271.104-1.916.432-2.92 1.487-3.789 4.141-3.877 6.662-.088 2.52.382 5.087.107 7.084-.456 3.32-2.741 5.655-6.005 6.424-4.836 1.139-7.895-.715-9.413-3.713-1.517-2.999-1.33-7.268 1.073-10.838.498-.739 1.356-1.982 1.763-3.365.204-.692.307-1.454.069-2.221-.239-.767-.875-1.45-1.75-1.82-.722-.305-1.586-.145-2.121.254-.536.398-.854.922-1.118 1.453-.526 1.061-.816 2.281-.95 2.695-1.32 4.03-2.481 7.928-5.202 10.906-3.04 3.326-7.014 4.465-11.039 4.031-4.025-.433-8.065-2.494-10.959-5.582v-.002c-2.934-3.127-4.194-7.694-2.441-11.642 1.766-3.979 5.428-5.755 9.568-7.311 4.085-1.533 9.577-3.868 11.111-8.978.338-1.126.047-2.265-.619-2.985-.666-.72-1.56-1.1-2.484-1.363-1.85-.526-3.936-.55-4.947-.55-5.233 0-10.016 1.72-14.633 2.86-4.617 1.141-9 1.731-13.668-.222-4.197-1.756-8.014-5.117-10.155-9.103-2.14-3.987-2.65-8.526-.38-12.954h.001c2.091-4.08 6.566-7.515 11.1-8.058 4.95-.593 8.728 1.9 12.738 4.927.904.682 3.504 2.287 6.21 3.266 1.352.49 2.703.837 3.974.682.635-.078 1.274-.304 1.781-.762.508-.458.833-1.125.95-1.875.295-1.91-.83-3.662-2.034-5.232-1.203-1.57-2.628-2.997-3.316-3.838-2.917-3.565-5.032-7.106-3.848-11.535v-.002c1.074-4.006 4.047-7.05 8.059-7.998 3.344-.789 5.36.105 6.894 1.9 1.534 1.794 2.465 4.643 2.91 7.615.313 2.083 1.067 4.26 2.516 5.828 1.45 1.569 3.727 2.401 6.39 1.61 4.795-1.425 7.705-6.159 8.712-10.514 1.285-5.579 2.22-11.598.767-17.455-1.173-4.72-3.654-8.506-4.17-12.932-.533-4.562.622-8.852 3.05-11.799 1.82-2.21 4.33-3.703 7.52-4.046Z"/></svg>