<svg width="150" height="150" viewBox="0 0 150 150" fill="none" xmlns="http://www.w3.org/2000/svg">
<mask id="mask0_1471_16997" style="mask-type:alpha" maskUnits="userSpaceOnUse" x="2" y="2" width="146" height="146">
<path d="M146.527 52.882C146.886 53.7474 147.119 54.3069 146.52 52.8661C145.132 49.524 145.959 51.5138 146.513 52.8462C142.615 43.5042 129.281 39.6738 122.115 47.827C119.125 51.2293 118.074 55.6485 116.172 59.6472C113.928 64.3616 106.803 68.9131 101.564 66.2766C105.012 63.8127 108.361 62.1741 110.971 58.6698C113.527 55.2375 115.588 50.0283 113.112 46.0141C111.019 42.6232 106.304 40.8857 102.482 41.7398C98.0699 42.7231 96.4831 46.3908 95.2924 50.3037C93.8669 54.982 92.2825 57.2995 87.057 56.5267C83.5446 56.0075 77.3404 53.8923 77.6282 49.4322C77.9222 44.8096 81.21 40.3578 83.5949 36.555C86.4532 31.9972 89.7211 27.7616 90.7799 22.3603C92.6811 12.6493 87.9255 3.48231 77.5587 2.13573C67.3927 0.815022 61.5474 9.33676 62.653 18.8043C63.1945 23.4543 65.685 27.2392 66.7899 31.6854C68.1613 37.212 67.2856 42.9914 66.0291 48.4439C65.0957 52.4801 62.3614 56.8306 58.1148 58.0929C53.4538 59.4781 51.16 55.3856 50.5856 51.5557C49.6767 45.4875 46.8612 39.6695 39.7123 41.3545C35.3976 42.3737 32.1813 45.6735 31.0357 49.9497C29.7543 54.7375 32.0839 58.6209 35.0212 62.21C36.5166 64.0377 40.5057 67.6851 40.0876 70.3826C39.3834 74.9301 30.3709 69.5505 28.9159 68.4524C24.9293 65.4435 20.9073 62.7684 15.6386 63.3996C10.7675 63.9828 6.14342 67.5527 3.92759 71.878C-0.859864 81.2169 6.10692 91.3531 14.8158 94.9971C24.5682 99.0776 33.2313 92.4715 43.1159 92.4715C45.0571 92.4715 51.1335 92.6313 50.1125 96.0332C48.7684 100.512 43.7321 102.755 39.7505 104.25C35.613 105.804 31.6594 107.694 29.755 111.985C27.8422 116.295 29.2185 121.213 32.3454 124.546C38.3784 130.982 49.0625 133.105 55.495 126.069C58.371 122.921 59.5407 118.905 60.8352 114.949C61.1686 113.927 61.922 110.481 63.6467 111.209C66.28 112.322 64.1067 115.609 63.1311 117.056C58.0131 124.659 62.1712 135.332 72.4026 132.922C75.9704 132.081 78.5746 129.424 79.0781 125.757C79.6863 121.336 77.149 115.551 82.2675 112.943C86.4273 110.827 85.8167 119.454 85.658 121.436C85.2473 126.555 85.461 131.747 87.0624 136.664C90.0925 145.973 100.624 152.23 108.902 144.552C116.2 137.785 115.589 126.415 107.861 120.352C104.494 117.709 89.7244 111.591 97.7336 106.2C105.908 100.696 122.31 113.669 126.054 100.354C127.128 96.5325 125.246 92.4502 121.681 90.7585C119.179 89.5721 116.308 89.615 113.626 90.0066C112.142 90.2245 108.482 91.7018 107.739 89.7227C104.566 81.2431 119.711 73.5623 126.091 73.101C132.013 72.6736 137.82 73.6725 142.724 69.4446C147.479 65.3456 148.904 58.6291 146.527 52.882Z" fill="black"/>
</mask>
<g mask="url(#mask0_1471_16997)">
<path d="M150 0H0V150H150V0Z" fill="white"/>
<path fill-rule="evenodd" clip-rule="evenodd" d="M16.875 15C16.875 12.9287 18.5537 11.25 20.625 11.25C24.0769 11.25 26.875 8.45187 26.875 5C26.875 1.54813 24.0769 -1.25 20.625 -1.25C18.5537 -1.25 16.875 -2.92875 16.875 -5H18.125C18.125 -3.61875 19.2437 -2.5 20.625 -2.5C24.7669 -2.5 28.125 0.858125 28.125 5C28.125 9.14187 24.7669 12.5 20.625 12.5C19.2437 12.5 18.125 13.6187 18.125 15H16.875ZM13.125 15C13.125 12.9287 11.4462 11.25 9.375 11.25C5.92313 11.25 3.125 8.45187 3.125 5C3.125 1.54813 5.92313 -1.25 9.375 -1.25C11.4462 -1.25 13.125 -2.92875 13.125 -5H11.875C11.875 -3.61875 10.7563 -2.5 9.375 -2.5C5.23313 -2.5 1.875 0.858125 1.875 5C1.875 9.14187 5.23313 12.5 9.375 12.5C10.7563 12.5 11.875 13.6187 11.875 15H13.125Z" fill="#DCDCDC"/>
<path fill-rule="evenodd" clip-rule="evenodd" d="M106.875 15C106.875 12.9287 108.554 11.25 110.625 11.25C114.077 11.25 116.875 8.45187 116.875 5C116.875 1.54813 114.077 -1.25 110.625 -1.25C108.554 -1.25 106.875 -2.92875 106.875 -5H108.125C108.125 -3.61875 109.244 -2.5 110.625 -2.5C114.767 -2.5 118.125 0.858125 118.125 5C118.125 9.14187 114.767 12.5 110.625 12.5C109.244 12.5 108.125 13.6187 108.125 15H106.875ZM103.125 15C103.125 12.9287 101.446 11.25 99.375 11.25C95.9231 11.25 93.125 8.45187 93.125 5C93.125 1.54813 95.9231 -1.25 99.375 -1.25C101.446 -1.25 103.125 -2.92875 103.125 -5H101.875C101.875 -3.61875 100.756 -2.5 99.375 -2.5C95.2331 -2.5 91.875 0.858125 91.875 5C91.875 9.14187 95.2331 12.5 99.375 12.5C100.756 12.5 101.875 13.6187 101.875 15H103.125Z" fill="#DCDCDC"/>
<path fill-rule="evenodd" clip-rule="evenodd" d="M16.875 34.998C16.875 32.9268 18.5537 31.248 20.625 31.248C24.0769 31.248 26.875 28.4499 26.875 24.998C26.875 21.5461 24.0769 18.748 20.625 18.748C18.5537 18.748 16.875 17.0693 16.875 14.998H18.125C18.125 16.3793 19.2437 17.498 20.625 17.498C24.7669 17.498 28.125 20.8561 28.125 24.998C28.125 29.1399 24.7669 32.498 20.625 32.498C19.2437 32.498 18.125 33.6168 18.125 34.998H16.875ZM13.125 34.998C13.125 32.9268 11.4462 31.248 9.375 31.248C5.92313 31.248 3.125 28.4499 3.125 24.998C3.125 21.5461 5.92313 18.748 9.375 18.748C11.4462 18.748 13.125 17.0693 13.125 14.998H11.875C11.875 16.3793 10.7563 17.498 9.375 17.498C5.23313 17.498 1.875 20.8561 1.875 24.998C1.875 29.1399 5.23313 32.498 9.375 32.498C10.7563 32.498 11.875 33.6168 11.875 34.998H13.125Z" fill="#DCDCDC"/>
<path fill-rule="evenodd" clip-rule="evenodd" d="M106.875 34.998C106.875 32.9268 108.554 31.248 110.625 31.248C114.077 31.248 116.875 28.4499 116.875 24.998C116.875 21.5461 114.077 18.748 110.625 18.748C108.554 18.748 106.875 17.0693 106.875 14.998H108.125C108.125 16.3793 109.244 17.498 110.625 17.498C114.767 17.498 118.125 20.8561 118.125 24.998C118.125 29.1399 114.767 32.498 110.625 32.498C109.244 32.498 108.125 33.6168 108.125 34.998H106.875ZM103.125 34.998C103.125 32.9268 101.446 31.248 99.375 31.248C95.9231 31.248 93.125 28.4499 93.125 24.998C93.125 21.5461 95.9231 18.748 99.375 18.748C101.446 18.748 103.125 17.0693 103.125 14.998H101.875C101.875 16.3793 100.756 17.498 99.375 17.498C95.2331 17.498 91.875 20.8561 91.875 24.998C91.875 29.1399 95.2331 32.498 99.375 32.498C100.756 32.498 101.875 33.6168 101.875 34.998H103.125Z" fill="#DCDCDC"/>
<path fill-rule="evenodd" clip-rule="evenodd" d="M16.875 54.9988C16.875 52.9276 18.5537 51.2488 20.625 51.2488C24.0769 51.2488 26.875 48.4507 26.875 44.9988C26.875 41.5469 24.0769 38.7488 20.625 38.7488C18.5537 38.7488 16.875 37.0693 16.875 34.998H18.125C18.125 36.3793 19.2437 37.4988 20.625 37.4988C24.7669 37.4988 28.125 40.8569 28.125 44.9988C28.125 49.1407 24.7669 52.4988 20.625 52.4988C19.2437 52.4988 18.125 53.6176 18.125 54.9988H16.875ZM13.125 54.9988C13.125 52.9276 11.4462 51.2488 9.375 51.2488C5.92313 51.2488 3.125 48.4507 3.125 44.9988C3.125 41.5469 5.92313 38.7488 9.375 38.7488C11.4462 38.7488 13.125 37.0693 13.125 34.998H11.875C11.875 36.3793 10.7563 37.4988 9.375 37.4988C5.23313 37.4988 1.875 40.8569 1.875 44.9988C1.875 49.1407 5.23313 52.4988 9.375 52.4988C10.7563 52.4988 11.875 53.6176 11.875 54.9988H13.125Z" fill="#DCDCDC"/>
<path fill-rule="evenodd" clip-rule="evenodd" d="M106.875 54.9988C106.875 52.9276 108.554 51.2488 110.625 51.2488C114.077 51.2488 116.875 48.4507 116.875 44.9988C116.875 41.5469 114.077 38.7488 110.625 38.7488C108.554 38.7488 106.875 37.0693 106.875 34.998H108.125C108.125 36.3793 109.244 37.4988 110.625 37.4988C114.767 37.4988 118.125 40.8569 118.125 44.9988C118.125 49.1407 114.767 52.4988 110.625 52.4988C109.244 52.4988 108.125 53.6176 108.125 54.9988H106.875ZM103.125 54.9988C103.125 52.9276 101.446 51.2488 99.375 51.2488C95.9231 51.2488 93.125 48.4507 93.125 44.9988C93.125 41.5469 95.9231 38.7488 99.375 38.7488C101.446 38.7488 103.125 37.0693 103.125 34.998H101.875C101.875 36.3793 100.756 37.4988 99.375 37.4988C95.2331 37.4988 91.875 40.8569 91.875 44.9988C91.875 49.1407 95.2331 52.4988 99.375 52.4988C100.756 52.4988 101.875 53.6176 101.875 54.9988H103.125Z" fill="#DCDCDC"/>
<path fill-rule="evenodd" clip-rule="evenodd" d="M16.875 74.9998C16.875 72.9285 18.5537 71.2498 20.625 71.2498C24.0769 71.2498 26.875 68.4517 26.875 64.9998C26.875 61.5479 24.0769 58.7498 20.625 58.7498C18.5537 58.7498 16.875 57.0703 16.875 54.999H18.125C18.125 56.3803 19.2437 57.4998 20.625 57.4998C24.7669 57.4998 28.125 60.8579 28.125 64.9998C28.125 69.1417 24.7669 72.4998 20.625 72.4998C19.2437 72.4998 18.125 73.6186 18.125 74.9998H16.875ZM13.125 74.9998C13.125 72.9285 11.4462 71.2498 9.375 71.2498C5.92313 71.2498 3.125 68.4517 3.125 64.9998C3.125 61.5479 5.92313 58.7498 9.375 58.7498C11.4462 58.7498 13.125 57.0703 13.125 54.999H11.875C11.875 56.3803 10.7563 57.4998 9.375 57.4998C5.23313 57.4998 1.875 60.8579 1.875 64.9998C1.875 69.1417 5.23313 72.4998 9.375 72.4998C10.7563 72.4998 11.875 73.6186 11.875 74.9998H13.125Z" fill="#DCDCDC"/>
<path fill-rule="evenodd" clip-rule="evenodd" d="M106.875 74.9998C106.875 72.9285 108.554 71.2498 110.625 71.2498C114.077 71.2498 116.875 68.4517 116.875 64.9998C116.875 61.5479 114.077 58.7498 110.625 58.7498C108.554 58.7498 106.875 57.0703 106.875 54.999H108.125C108.125 56.3803 109.244 57.4998 110.625 57.4998C114.767 57.4998 118.125 60.8579 118.125 64.9998C118.125 69.1417 114.767 72.4998 110.625 72.4998C109.244 72.4998 108.125 73.6186 108.125 74.9998H106.875ZM103.125 74.9998C103.125 72.9285 101.446 71.2498 99.375 71.2498C95.9231 71.2498 93.125 68.4517 93.125 64.9998C93.125 61.5479 95.9231 58.7498 99.375 58.7498C101.446 58.7498 103.125 57.0703 103.125 54.999H101.875C101.875 56.3803 100.756 57.4998 99.375 57.4998C95.2331 57.4998 91.875 60.8579 91.875 64.9998C91.875 69.1417 95.2331 72.4998 99.375 72.4998C100.756 72.4998 101.875 73.6186 101.875 74.9998H103.125Z" fill="#DCDCDC"/>
<path fill-rule="evenodd" clip-rule="evenodd" d="M46.875 15C46.875 12.9287 48.5537 11.25 50.625 11.25C54.0769 11.25 56.875 8.45187 56.875 5C56.875 1.54813 54.0769 -1.25 50.625 -1.25C48.5537 -1.25 46.875 -2.92875 46.875 -5H48.125C48.125 -3.61875 49.2438 -2.5 50.625 -2.5C54.7669 -2.5 58.125 0.858125 58.125 5C58.125 9.14187 54.7669 12.5 50.625 12.5C49.2438 12.5 48.125 13.6187 48.125 15H46.875ZM43.125 15C43.125 12.9287 41.4463 11.25 39.375 11.25C35.9231 11.25 33.125 8.45187 33.125 5C33.125 1.54813 35.9231 -1.25 39.375 -1.25C41.4463 -1.25 43.125 -2.92875 43.125 -5H41.875C41.875 -3.61875 40.7562 -2.5 39.375 -2.5C35.2331 -2.5 31.875 0.858125 31.875 5C31.875 9.14187 35.2331 12.5 39.375 12.5C40.7562 12.5 41.875 13.6187 41.875 15H43.125Z" fill="#DCDCDC"/>
<path fill-rule="evenodd" clip-rule="evenodd" d="M136.875 15C136.875 12.9287 138.554 11.25 140.625 11.25C144.077 11.25 146.875 8.45187 146.875 5C146.875 1.54813 144.077 -1.25 140.625 -1.25C138.554 -1.25 136.875 -2.92875 136.875 -5H138.125C138.125 -3.61875 139.244 -2.5 140.625 -2.5C144.767 -2.5 148.125 0.858125 148.125 5C148.125 9.14187 144.767 12.5 140.625 12.5C139.244 12.5 138.125 13.6187 138.125 15H136.875ZM133.125 15C133.125 12.9287 131.446 11.25 129.375 11.25C125.923 11.25 123.125 8.45187 123.125 5C123.125 1.54813 125.923 -1.25 129.375 -1.25C131.446 -1.25 133.125 -2.92875 133.125 -5H131.875C131.875 -3.61875 130.756 -2.5 129.375 -2.5C125.233 -2.5 121.875 0.858125 121.875 5C121.875 9.14187 125.233 12.5 129.375 12.5C130.756 12.5 131.875 13.6187 131.875 15H133.125Z" fill="#DCDCDC"/>
<path fill-rule="evenodd" clip-rule="evenodd" d="M46.875 34.998C46.875 32.9268 48.5537 31.248 50.625 31.248C54.0769 31.248 56.875 28.4499 56.875 24.998C56.875 21.5461 54.0769 18.748 50.625 18.748C48.5537 18.748 46.875 17.0693 46.875 14.998H48.125C48.125 16.3793 49.2438 17.498 50.625 17.498C54.7669 17.498 58.125 20.8561 58.125 24.998C58.125 29.1399 54.7669 32.498 50.625 32.498C49.2438 32.498 48.125 33.6168 48.125 34.998H46.875ZM43.125 34.998C43.125 32.9268 41.4463 31.248 39.375 31.248C35.9231 31.248 33.125 28.4499 33.125 24.998C33.125 21.5461 35.9231 18.748 39.375 18.748C41.4463 18.748 43.125 17.0693 43.125 14.998H41.875C41.875 16.3793 40.7562 17.498 39.375 17.498C35.2331 17.498 31.875 20.8561 31.875 24.998C31.875 29.1399 35.2331 32.498 39.375 32.498C40.7562 32.498 41.875 33.6168 41.875 34.998H43.125Z" fill="#DCDCDC"/>
<path fill-rule="evenodd" clip-rule="evenodd" d="M136.875 34.998C136.875 32.9268 138.554 31.248 140.625 31.248C144.077 31.248 146.875 28.4499 146.875 24.998C146.875 21.5461 144.077 18.748 140.625 18.748C138.554 18.748 136.875 17.0693 136.875 14.998H138.125C138.125 16.3793 139.244 17.498 140.625 17.498C144.767 17.498 148.125 20.8561 148.125 24.998C148.125 29.1399 144.767 32.498 140.625 32.498C139.244 32.498 138.125 33.6168 138.125 34.998H136.875ZM133.125 34.998C133.125 32.9268 131.446 31.248 129.375 31.248C125.923 31.248 123.125 28.4499 123.125 24.998C123.125 21.5461 125.923 18.748 129.375 18.748C131.446 18.748 133.125 17.0693 133.125 14.998H131.875C131.875 16.3793 130.756 17.498 129.375 17.498C125.233 17.498 121.875 20.8561 121.875 24.998C121.875 29.1399 125.233 32.498 129.375 32.498C130.756 32.498 131.875 33.6168 131.875 34.998H133.125Z" fill="#DCDCDC"/>
<path fill-rule="evenodd" clip-rule="evenodd" d="M46.875 54.9988C46.875 52.9276 48.5537 51.2488 50.625 51.2488C54.0769 51.2488 56.875 48.4507 56.875 44.9988C56.875 41.5469 54.0769 38.7488 50.625 38.7488C48.5537 38.7488 46.875 37.0693 46.875 34.998H48.125C48.125 36.3793 49.2438 37.4988 50.625 37.4988C54.7669 37.4988 58.125 40.8569 58.125 44.9988C58.125 49.1407 54.7669 52.4988 50.625 52.4988C49.2438 52.4988 48.125 53.6176 48.125 54.9988H46.875ZM43.125 54.9988C43.125 52.9276 41.4463 51.2488 39.375 51.2488C35.9231 51.2488 33.125 48.4507 33.125 44.9988C33.125 41.5469 35.9231 38.7488 39.375 38.7488C41.4463 38.7488 43.125 37.0693 43.125 34.998H41.875C41.875 36.3793 40.7562 37.4988 39.375 37.4988C35.2331 37.4988 31.875 40.8569 31.875 44.9988C31.875 49.1407 35.2331 52.4988 39.375 52.4988C40.7562 52.4988 41.875 53.6176 41.875 54.9988H43.125Z" fill="#DCDCDC"/>
<path fill-rule="evenodd" clip-rule="evenodd" d="M136.875 54.9988C136.875 52.9276 138.554 51.2488 140.625 51.2488C144.077 51.2488 146.875 48.4507 146.875 44.9988C146.875 41.5469 144.077 38.7488 140.625 38.7488C138.554 38.7488 136.875 37.0693 136.875 34.998H138.125C138.125 36.3793 139.244 37.4988 140.625 37.4988C144.767 37.4988 148.125 40.8569 148.125 44.9988C148.125 49.1407 144.767 52.4988 140.625 52.4988C139.244 52.4988 138.125 53.6176 138.125 54.9988H136.875ZM133.125 54.9988C133.125 52.9276 131.446 51.2488 129.375 51.2488C125.923 51.2488 123.125 48.4507 123.125 44.9988C123.125 41.5469 125.923 38.7488 129.375 38.7488C131.446 38.7488 133.125 37.0693 133.125 34.998H131.875C131.875 36.3793 130.756 37.4988 129.375 37.4988C125.233 37.4988 121.875 40.8569 121.875 44.9988C121.875 49.1407 125.233 52.4988 129.375 52.4988C130.756 52.4988 131.875 53.6176 131.875 54.9988H133.125Z" fill="#DCDCDC"/>
<path fill-rule="evenodd" clip-rule="evenodd" d="M46.875 74.9998C46.875 72.9285 48.5537 71.2498 50.625 71.2498C54.0769 71.2498 56.875 68.4517 56.875 64.9998C56.875 61.5479 54.0769 58.7498 50.625 58.7498C48.5537 58.7498 46.875 57.0703 46.875 54.999H48.125C48.125 56.3803 49.2438 57.4998 50.625 57.4998C54.7669 57.4998 58.125 60.8579 58.125 64.9998C58.125 69.1417 54.7669 72.4998 50.625 72.4998C49.2438 72.4998 48.125 73.6186 48.125 74.9998H46.875ZM43.125 74.9998C43.125 72.9285 41.4463 71.2498 39.375 71.2498C35.9231 71.2498 33.125 68.4517 33.125 64.9998C33.125 61.5479 35.9231 58.7498 39.375 58.7498C41.4463 58.7498 43.125 57.0703 43.125 54.999H41.875C41.875 56.3803 40.7562 57.4998 39.375 57.4998C35.2331 57.4998 31.875 60.8579 31.875 64.9998C31.875 69.1417 35.2331 72.4998 39.375 72.4998C40.7562 72.4998 41.875 73.6186 41.875 74.9998H43.125Z" fill="#DCDCDC"/>
<path fill-rule="evenodd" clip-rule="evenodd" d="M136.875 74.9998C136.875 72.9285 138.554 71.2498 140.625 71.2498C144.077 71.2498 146.875 68.4517 146.875 64.9998C146.875 61.5479 144.077 58.7498 140.625 58.7498C138.554 58.7498 136.875 57.0703 136.875 54.999H138.125C138.125 56.3803 139.244 57.4998 140.625 57.4998C144.767 57.4998 148.125 60.8579 148.125 64.9998C148.125 69.1417 144.767 72.4998 140.625 72.4998C139.244 72.4998 138.125 73.6186 138.125 74.9998H136.875ZM133.125 74.9998C133.125 72.9285 131.446 71.2498 129.375 71.2498C125.923 71.2498 123.125 68.4517 123.125 64.9998C123.125 61.5479 125.923 58.7498 129.375 58.7498C131.446 58.7498 133.125 57.0703 133.125 54.999H131.875C131.875 56.3803 130.756 57.4998 129.375 57.4998C125.233 57.4998 121.875 60.8579 121.875 64.9998C121.875 69.1417 125.233 72.4998 129.375 72.4998C130.756 72.4998 131.875 73.6186 131.875 74.9998H133.125Z" fill="#DCDCDC"/>
<path fill-rule="evenodd" clip-rule="evenodd" d="M76.875 15C76.875 12.9287 78.5537 11.25 80.625 11.25C84.0769 11.25 86.875 8.45187 86.875 5C86.875 1.54813 84.0769 -1.25 80.625 -1.25C78.5537 -1.25 76.875 -2.92875 76.875 -5H78.125C78.125 -3.61875 79.2438 -2.5 80.625 -2.5C84.7669 -2.5 88.125 0.858125 88.125 5C88.125 9.14187 84.7669 12.5 80.625 12.5C79.2438 12.5 78.125 13.6187 78.125 15H76.875ZM73.125 15C73.125 12.9287 71.4463 11.25 69.375 11.25C65.9231 11.25 63.125 8.45187 63.125 5C63.125 1.54813 65.9231 -1.25 69.375 -1.25C71.4463 -1.25 73.125 -2.92875 73.125 -5H71.875C71.875 -3.61875 70.7562 -2.5 69.375 -2.5C65.2331 -2.5 61.875 0.858125 61.875 5C61.875 9.14187 65.2331 12.5 69.375 12.5C70.7562 12.5 71.875 13.6187 71.875 15H73.125Z" fill="#DCDCDC"/>
<path fill-rule="evenodd" clip-rule="evenodd" d="M76.875 34.998C76.875 32.9268 78.5537 31.248 80.625 31.248C84.0769 31.248 86.875 28.4499 86.875 24.998C86.875 21.5461 84.0769 18.748 80.625 18.748C78.5537 18.748 76.875 17.0693 76.875 14.998H78.125C78.125 16.3793 79.2438 17.498 80.625 17.498C84.7669 17.498 88.125 20.8561 88.125 24.998C88.125 29.1399 84.7669 32.498 80.625 32.498C79.2438 32.498 78.125 33.6168 78.125 34.998H76.875ZM73.125 34.998C73.125 32.9268 71.4463 31.248 69.375 31.248C65.9231 31.248 63.125 28.4499 63.125 24.998C63.125 21.5461 65.9231 18.748 69.375 18.748C71.4463 18.748 73.125 17.0693 73.125 14.998H71.875C71.875 16.3793 70.7562 17.498 69.375 17.498C65.2331 17.498 61.875 20.8561 61.875 24.998C61.875 29.1399 65.2331 32.498 69.375 32.498C70.7562 32.498 71.875 33.6168 71.875 34.998H73.125Z" fill="#DCDCDC"/>
<path fill-rule="evenodd" clip-rule="evenodd" d="M76.875 54.9988C76.875 52.9276 78.5537 51.2488 80.625 51.2488C84.0769 51.2488 86.875 48.4507 86.875 44.9988C86.875 41.5469 84.0769 38.7488 80.625 38.7488C78.5537 38.7488 76.875 37.0693 76.875 34.998H78.125C78.125 36.3793 79.2438 37.4988 80.625 37.4988C84.7669 37.4988 88.125 40.8569 88.125 44.9988C88.125 49.1407 84.7669 52.4988 80.625 52.4988C79.2438 52.4988 78.125 53.6176 78.125 54.9988H76.875ZM73.125 54.9988C73.125 52.9276 71.4463 51.2488 69.375 51.2488C65.9231 51.2488 63.125 48.4507 63.125 44.9988C63.125 41.5469 65.9231 38.7488 69.375 38.7488C71.4463 38.7488 73.125 37.0693 73.125 34.998H71.875C71.875 36.3793 70.7562 37.4988 69.375 37.4988C65.2331 37.4988 61.875 40.8569 61.875 44.9988C61.875 49.1407 65.2331 52.4988 69.375 52.4988C70.7562 52.4988 71.875 53.6176 71.875 54.9988H73.125Z" fill="#DCDCDC"/>
<path fill-rule="evenodd" clip-rule="evenodd" d="M16.875 94.998C16.875 92.9268 18.5537 91.248 20.625 91.248C24.0769 91.248 26.875 88.4499 26.875 84.998C26.875 81.5461 24.0769 78.748 20.625 78.748C18.5537 78.748 16.875 77.0693 16.875 74.998H18.125C18.125 76.3793 19.2437 77.498 20.625 77.498C24.7669 77.498 28.125 80.8561 28.125 84.998C28.125 89.1399 24.7669 92.498 20.625 92.498C19.2437 92.498 18.125 93.6168 18.125 94.998H16.875ZM13.125 94.998C13.125 92.9268 11.4462 91.248 9.375 91.248C5.92313 91.248 3.125 88.4499 3.125 84.998C3.125 81.5461 5.92313 78.748 9.375 78.748C11.4462 78.748 13.125 77.0693 13.125 74.998H11.875C11.875 76.3793 10.7563 77.498 9.375 77.498C5.23313 77.498 1.875 80.8561 1.875 84.998C1.875 89.1399 5.23313 92.498 9.375 92.498C10.7563 92.498 11.875 93.6168 11.875 94.998H13.125Z" fill="#DCDCDC"/>
<path fill-rule="evenodd" clip-rule="evenodd" d="M106.875 94.998C106.875 92.9268 108.554 91.248 110.625 91.248C114.077 91.248 116.875 88.4499 116.875 84.998C116.875 81.5461 114.077 78.748 110.625 78.748C108.554 78.748 106.875 77.0693 106.875 74.998H108.125C108.125 76.3793 109.244 77.498 110.625 77.498C114.767 77.498 118.125 80.8561 118.125 84.998C118.125 89.1399 114.767 92.498 110.625 92.498C109.244 92.498 108.125 93.6168 108.125 94.998H106.875ZM103.125 94.998C103.125 92.9268 101.446 91.248 99.375 91.248C95.9231 91.248 93.125 88.4499 93.125 84.998C93.125 81.5461 95.9231 78.748 99.375 78.748C101.446 78.748 103.125 77.0693 103.125 74.998H101.875C101.875 76.3793 100.756 77.498 99.375 77.498C95.2331 77.498 91.875 80.8561 91.875 84.998C91.875 89.1399 95.2331 92.498 99.375 92.498C100.756 92.498 101.875 93.6168 101.875 94.998H103.125Z" fill="#DCDCDC"/>
<path fill-rule="evenodd" clip-rule="evenodd" d="M16.875 114.999C16.875 112.928 18.5537 111.249 20.625 111.249C24.0769 111.249 26.875 108.451 26.875 104.999C26.875 101.547 24.0769 98.7488 20.625 98.7488C18.5537 98.7488 16.875 97.0693 16.875 94.998H18.125C18.125 96.3793 19.2437 97.4988 20.625 97.4988C24.7669 97.4988 28.125 100.857 28.125 104.999C28.125 109.141 24.7669 112.499 20.625 112.499C19.2437 112.499 18.125 113.618 18.125 114.999H16.875ZM13.125 114.999C13.125 112.928 11.4462 111.249 9.375 111.249C5.92313 111.249 3.125 108.451 3.125 104.999C3.125 101.547 5.92313 98.7488 9.375 98.7488C11.4462 98.7488 13.125 97.0693 13.125 94.998H11.875C11.875 96.3793 10.7563 97.4988 9.375 97.4988C5.23313 97.4988 1.875 100.857 1.875 104.999C1.875 109.141 5.23313 112.499 9.375 112.499C10.7563 112.499 11.875 113.618 11.875 114.999H13.125Z" fill="#DCDCDC"/>
<path fill-rule="evenodd" clip-rule="evenodd" d="M106.875 114.999C106.875 112.928 108.554 111.249 110.625 111.249C114.077 111.249 116.875 108.451 116.875 104.999C116.875 101.547 114.077 98.7488 110.625 98.7488C108.554 98.7488 106.875 97.0693 106.875 94.998H108.125C108.125 96.3793 109.244 97.4988 110.625 97.4988C114.767 97.4988 118.125 100.857 118.125 104.999C118.125 109.141 114.767 112.499 110.625 112.499C109.244 112.499 108.125 113.618 108.125 114.999H106.875ZM103.125 114.999C103.125 112.928 101.446 111.249 99.375 111.249C95.9231 111.249 93.125 108.451 93.125 104.999C93.125 101.547 95.9231 98.7488 99.375 98.7488C101.446 98.7488 103.125 97.0693 103.125 94.998H101.875C101.875 96.3793 100.756 97.4988 99.375 97.4988C95.2331 97.4988 91.875 100.857 91.875 104.999C91.875 109.141 95.2331 112.499 99.375 112.499C100.756 112.499 101.875 113.618 101.875 114.999H103.125Z" fill="#DCDCDC"/>
<path fill-rule="evenodd" clip-rule="evenodd" d="M16.875 135C16.875 132.929 18.5537 131.25 20.625 131.25C24.0769 131.25 26.875 128.452 26.875 125C26.875 121.548 24.0769 118.75 20.625 118.75C18.5537 118.75 16.875 117.07 16.875 114.999H18.125C18.125 116.38 19.2437 117.5 20.625 117.5C24.7669 117.5 28.125 120.858 28.125 125C28.125 129.142 24.7669 132.5 20.625 132.5C19.2437 132.5 18.125 133.619 18.125 135H16.875ZM13.125 135C13.125 132.929 11.4462 131.25 9.375 131.25C5.92313 131.25 3.125 128.452 3.125 125C3.125 121.548 5.92313 118.75 9.375 118.75C11.4462 118.75 13.125 117.07 13.125 114.999H11.875C11.875 116.38 10.7563 117.5 9.375 117.5C5.23313 117.5 1.875 120.858 1.875 125C1.875 129.142 5.23313 132.5 9.375 132.5C10.7563 132.5 11.875 133.619 11.875 135H13.125Z" fill="#DCDCDC"/>
<path fill-rule="evenodd" clip-rule="evenodd" d="M106.875 135C106.875 132.929 108.554 131.25 110.625 131.25C114.077 131.25 116.875 128.452 116.875 125C116.875 121.548 114.077 118.75 110.625 118.75C108.554 118.75 106.875 117.07 106.875 114.999H108.125C108.125 116.38 109.244 117.5 110.625 117.5C114.767 117.5 118.125 120.858 118.125 125C118.125 129.142 114.767 132.5 110.625 132.5C109.244 132.5 108.125 133.619 108.125 135H106.875ZM103.125 135C103.125 132.929 101.446 131.25 99.375 131.25C95.9231 131.25 93.125 128.452 93.125 125C93.125 121.548 95.9231 118.75 99.375 118.75C101.446 118.75 103.125 117.07 103.125 114.999H101.875C101.875 116.38 100.756 117.5 99.375 117.5C95.2331 117.5 91.875 120.858 91.875 125C91.875 129.142 95.2331 132.5 99.375 132.5C100.756 132.5 101.875 133.619 101.875 135H103.125Z" fill="#DCDCDC"/>
<path fill-rule="evenodd" clip-rule="evenodd" d="M16.875 154.998C16.875 152.927 18.5537 151.248 20.625 151.248C24.0769 151.248 26.875 148.45 26.875 144.998C26.875 141.547 24.0769 138.748 20.625 138.748C18.5537 138.748 16.875 137.07 16.875 134.998H18.125C18.125 136.38 19.2437 137.498 20.625 137.498C24.7669 137.498 28.125 140.857 28.125 144.998C28.125 149.14 24.7669 152.498 20.625 152.498C19.2437 152.498 18.125 153.617 18.125 154.998H16.875ZM13.125 154.998C13.125 152.927 11.4462 151.248 9.375 151.248C5.92313 151.248 3.125 148.45 3.125 144.998C3.125 141.547 5.92313 138.748 9.375 138.748C11.4462 138.748 13.125 137.07 13.125 134.998H11.875C11.875 136.38 10.7563 137.498 9.375 137.498C5.23313 137.498 1.875 140.857 1.875 144.998C1.875 149.14 5.23313 152.498 9.375 152.498C10.7563 152.498 11.875 153.617 11.875 154.998H13.125Z" fill="#DCDCDC"/>
<path fill-rule="evenodd" clip-rule="evenodd" d="M106.875 154.998C106.875 152.927 108.554 151.248 110.625 151.248C114.077 151.248 116.875 148.45 116.875 144.998C116.875 141.547 114.077 138.748 110.625 138.748C108.554 138.748 106.875 137.07 106.875 134.998H108.125C108.125 136.38 109.244 137.498 110.625 137.498C114.767 137.498 118.125 140.857 118.125 144.998C118.125 149.14 114.767 152.498 110.625 152.498C109.244 152.498 108.125 153.617 108.125 154.998H106.875ZM103.125 154.998C103.125 152.927 101.446 151.248 99.375 151.248C95.9231 151.248 93.125 148.45 93.125 144.998C93.125 141.547 95.9231 138.748 99.375 138.748C101.446 138.748 103.125 137.07 103.125 134.998H101.875C101.875 136.38 100.756 137.498 99.375 137.498C95.2331 137.498 91.875 140.857 91.875 144.998C91.875 149.14 95.2331 152.498 99.375 152.498C100.756 152.498 101.875 153.617 101.875 154.998H103.125Z" fill="#DCDCDC"/>
<path fill-rule="evenodd" clip-rule="evenodd" d="M46.875 94.998C46.875 92.9268 48.5537 91.248 50.625 91.248C54.0769 91.248 56.875 88.4499 56.875 84.998C56.875 81.5461 54.0769 78.748 50.625 78.748C48.5537 78.748 46.875 77.0693 46.875 74.998H48.125C48.125 76.3793 49.2438 77.498 50.625 77.498C54.7669 77.498 58.125 80.8561 58.125 84.998C58.125 89.1399 54.7669 92.498 50.625 92.498C49.2438 92.498 48.125 93.6168 48.125 94.998H46.875ZM43.125 94.998C43.125 92.9268 41.4463 91.248 39.375 91.248C35.9231 91.248 33.125 88.4499 33.125 84.998C33.125 81.5461 35.9231 78.748 39.375 78.748C41.4463 78.748 43.125 77.0693 43.125 74.998H41.875C41.875 76.3793 40.7562 77.498 39.375 77.498C35.2331 77.498 31.875 80.8561 31.875 84.998C31.875 89.1399 35.2331 92.498 39.375 92.498C40.7562 92.498 41.875 93.6168 41.875 94.998H43.125Z" fill="#DCDCDC"/>
<path fill-rule="evenodd" clip-rule="evenodd" d="M136.875 94.998C136.875 92.9268 138.554 91.248 140.625 91.248C144.077 91.248 146.875 88.4499 146.875 84.998C146.875 81.5461 144.077 78.748 140.625 78.748C138.554 78.748 136.875 77.0693 136.875 74.998H138.125C138.125 76.3793 139.244 77.498 140.625 77.498C144.767 77.498 148.125 80.8561 148.125 84.998C148.125 89.1399 144.767 92.498 140.625 92.498C139.244 92.498 138.125 93.6168 138.125 94.998H136.875ZM133.125 94.998C133.125 92.9268 131.446 91.248 129.375 91.248C125.923 91.248 123.125 88.4499 123.125 84.998C123.125 81.5461 125.923 78.748 129.375 78.748C131.446 78.748 133.125 77.0693 133.125 74.998H131.875C131.875 76.3793 130.756 77.498 129.375 77.498C125.233 77.498 121.875 80.8561 121.875 84.998C121.875 89.1399 125.233 92.498 129.375 92.498C130.756 92.498 131.875 93.6168 131.875 94.998H133.125Z" fill="#DCDCDC"/>
<path fill-rule="evenodd" clip-rule="evenodd" d="M46.875 114.999C46.875 112.928 48.5537 111.249 50.625 111.249C54.0769 111.249 56.875 108.451 56.875 104.999C56.875 101.547 54.0769 98.7488 50.625 98.7488C48.5537 98.7488 46.875 97.0693 46.875 94.998H48.125C48.125 96.3793 49.2438 97.4988 50.625 97.4988C54.7669 97.4988 58.125 100.857 58.125 104.999C58.125 109.141 54.7669 112.499 50.625 112.499C49.2438 112.499 48.125 113.618 48.125 114.999H46.875ZM43.125 114.999C43.125 112.928 41.4463 111.249 39.375 111.249C35.9231 111.249 33.125 108.451 33.125 104.999C33.125 101.547 35.9231 98.7488 39.375 98.7488C41.4463 98.7488 43.125 97.0693 43.125 94.998H41.875C41.875 96.3793 40.7562 97.4988 39.375 97.4988C35.2331 97.4988 31.875 100.857 31.875 104.999C31.875 109.141 35.2331 112.499 39.375 112.499C40.7562 112.499 41.875 113.618 41.875 114.999H43.125Z" fill="#DCDCDC"/>
<path fill-rule="evenodd" clip-rule="evenodd" d="M136.875 114.999C136.875 112.928 138.554 111.249 140.625 111.249C144.077 111.249 146.875 108.451 146.875 104.999C146.875 101.547 144.077 98.7488 140.625 98.7488C138.554 98.7488 136.875 97.0693 136.875 94.998H138.125C138.125 96.3793 139.244 97.4988 140.625 97.4988C144.767 97.4988 148.125 100.857 148.125 104.999C148.125 109.141 144.767 112.499 140.625 112.499C139.244 112.499 138.125 113.618 138.125 114.999H136.875ZM133.125 114.999C133.125 112.928 131.446 111.249 129.375 111.249C125.923 111.249 123.125 108.451 123.125 104.999C123.125 101.547 125.923 98.7488 129.375 98.7488C131.446 98.7488 133.125 97.0693 133.125 94.998H131.875C131.875 96.3793 130.756 97.4988 129.375 97.4988C125.233 97.4988 121.875 100.857 121.875 104.999C121.875 109.141 125.233 112.499 129.375 112.499C130.756 112.499 131.875 113.618 131.875 114.999H133.125Z" fill="#DCDCDC"/>
<path fill-rule="evenodd" clip-rule="evenodd" d="M46.875 135C46.875 132.929 48.5537 131.25 50.625 131.25C54.0769 131.25 56.875 128.452 56.875 125C56.875 121.548 54.0769 118.75 50.625 118.75C48.5537 118.75 46.875 117.07 46.875 114.999H48.125C48.125 116.38 49.2438 117.5 50.625 117.5C54.7669 117.5 58.125 120.858 58.125 125C58.125 129.142 54.7669 132.5 50.625 132.5C49.2438 132.5 48.125 133.619 48.125 135H46.875ZM43.125 135C43.125 132.929 41.4463 131.25 39.375 131.25C35.9231 131.25 33.125 128.452 33.125 125C33.125 121.548 35.9231 118.75 39.375 118.75C41.4463 118.75 43.125 117.07 43.125 114.999H41.875C41.875 116.38 40.7562 117.5 39.375 117.5C35.2331 117.5 31.875 120.858 31.875 125C31.875 129.142 35.2331 132.5 39.375 132.5C40.7562 132.5 41.875 133.619 41.875 135H43.125Z" fill="#DCDCDC"/>
<path fill-rule="evenodd" clip-rule="evenodd" d="M136.875 135C136.875 132.929 138.554 131.25 140.625 131.25C144.077 131.25 146.875 128.452 146.875 125C146.875 121.548 144.077 118.75 140.625 118.75C138.554 118.75 136.875 117.07 136.875 114.999H138.125C138.125 116.38 139.244 117.5 140.625 117.5C144.767 117.5 148.125 120.858 148.125 125C148.125 129.142 144.767 132.5 140.625 132.5C139.244 132.5 138.125 133.619 138.125 135H136.875ZM133.125 135C133.125 132.929 131.446 131.25 129.375 131.25C125.923 131.25 123.125 128.452 123.125 125C123.125 121.548 125.923 118.75 129.375 118.75C131.446 118.75 133.125 117.07 133.125 114.999H131.875C131.875 116.38 130.756 117.5 129.375 117.5C125.233 117.5 121.875 120.858 121.875 125C121.875 129.142 125.233 132.5 129.375 132.5C130.756 132.5 131.875 133.619 131.875 135H133.125Z" fill="#DCDCDC"/>
<path fill-rule="evenodd" clip-rule="evenodd" d="M46.875 154.998C46.875 152.927 48.5537 151.248 50.625 151.248C54.0769 151.248 56.875 148.45 56.875 144.998C56.875 141.547 54.0769 138.748 50.625 138.748C48.5537 138.748 46.875 137.07 46.875 134.998H48.125C48.125 136.38 49.2438 137.498 50.625 137.498C54.7669 137.498 58.125 140.857 58.125 144.998C58.125 149.14 54.7669 152.498 50.625 152.498C49.2438 152.498 48.125 153.617 48.125 154.998H46.875ZM43.125 154.998C43.125 152.927 41.4463 151.248 39.375 151.248C35.9231 151.248 33.125 148.45 33.125 144.998C33.125 141.547 35.9231 138.748 39.375 138.748C41.4463 138.748 43.125 137.07 43.125 134.998H41.875C41.875 136.38 40.7562 137.498 39.375 137.498C35.2331 137.498 31.875 140.857 31.875 144.998C31.875 149.14 35.2331 152.498 39.375 152.498C40.7562 152.498 41.875 153.617 41.875 154.998H43.125Z" fill="#DCDCDC"/>
<path fill-rule="evenodd" clip-rule="evenodd" d="M136.875 154.998C136.875 152.927 138.554 151.248 140.625 151.248C144.077 151.248 146.875 148.45 146.875 144.998C146.875 141.547 144.077 138.748 140.625 138.748C138.554 138.748 136.875 137.07 136.875 134.998H138.125C138.125 136.38 139.244 137.498 140.625 137.498C144.767 137.498 148.125 140.857 148.125 144.998C148.125 149.14 144.767 152.498 140.625 152.498C139.244 152.498 138.125 153.617 138.125 154.998H136.875ZM133.125 154.998C133.125 152.927 131.446 151.248 129.375 151.248C125.923 151.248 123.125 148.45 123.125 144.998C123.125 141.547 125.923 138.748 129.375 138.748C131.446 138.748 133.125 137.07 133.125 134.998H131.875C131.875 136.38 130.756 137.498 129.375 137.498C125.233 137.498 121.875 140.857 121.875 144.998C121.875 149.14 125.233 152.498 129.375 152.498C130.756 152.498 131.875 153.617 131.875 154.998H133.125Z" fill="#DCDCDC"/>
<path fill-rule="evenodd" clip-rule="evenodd" d="M76.875 94.998C76.875 92.9268 78.5537 91.248 80.625 91.248C84.0769 91.248 86.875 88.4499 86.875 84.998C86.875 81.5461 84.0769 78.748 80.625 78.748C78.5537 78.748 76.875 77.0693 76.875 74.998H78.125C78.125 76.3793 79.2438 77.498 80.625 77.498C84.7669 77.498 88.125 80.8561 88.125 84.998C88.125 89.1399 84.7669 92.498 80.625 92.498C79.2438 92.498 78.125 93.6168 78.125 94.998H76.875ZM73.125 94.998C73.125 92.9268 71.4463 91.248 69.375 91.248C65.9231 91.248 63.125 88.4499 63.125 84.998C63.125 81.5461 65.9231 78.748 69.375 78.748C71.4463 78.748 73.125 77.0693 73.125 74.998H71.875C71.875 76.3793 70.7562 77.498 69.375 77.498C65.2331 77.498 61.875 80.8561 61.875 84.998C61.875 89.1399 65.2331 92.498 69.375 92.498C70.7562 92.498 71.875 93.6168 71.875 94.998H73.125Z" fill="#DCDCDC"/>
<path fill-rule="evenodd" clip-rule="evenodd" d="M76.875 114.999C76.875 112.928 78.5537 111.249 80.625 111.249C84.0769 111.249 86.875 108.451 86.875 104.999C86.875 101.547 84.0769 98.7488 80.625 98.7488C78.5537 98.7488 76.875 97.0693 76.875 94.998H78.125C78.125 96.3793 79.2438 97.4988 80.625 97.4988C84.7669 97.4988 88.125 100.857 88.125 104.999C88.125 109.141 84.7669 112.499 80.625 112.499C79.2438 112.499 78.125 113.618 78.125 114.999H76.875ZM73.125 114.999C73.125 112.928 71.4463 111.249 69.375 111.249C65.9231 111.249 63.125 108.451 63.125 104.999C63.125 101.547 65.9231 98.7488 69.375 98.7488C71.4463 98.7488 73.125 97.0693 73.125 94.998H71.875C71.875 96.3793 70.7562 97.4988 69.375 97.4988C65.2331 97.4988 61.875 100.857 61.875 104.999C61.875 109.141 65.2331 112.499 69.375 112.499C70.7562 112.499 71.875 113.618 71.875 114.999H73.125Z" fill="#DCDCDC"/>
<path fill-rule="evenodd" clip-rule="evenodd" d="M76.875 135C76.875 132.929 78.5537 131.25 80.625 131.25C84.0769 131.25 86.875 128.452 86.875 125C86.875 121.548 84.0769 118.75 80.625 118.75C78.5537 118.75 76.875 117.07 76.875 114.999H78.125C78.125 116.38 79.2438 117.5 80.625 117.5C84.7669 117.5 88.125 120.858 88.125 125C88.125 129.142 84.7669 132.5 80.625 132.5C79.2438 132.5 78.125 133.619 78.125 135H76.875ZM73.125 135C73.125 132.929 71.4463 131.25 69.375 131.25C65.9231 131.25 63.125 128.452 63.125 125C63.125 121.548 65.9231 118.75 69.375 118.75C71.4463 118.75 73.125 117.07 73.125 114.999H71.875C71.875 116.38 70.7562 117.5 69.375 117.5C65.2331 117.5 61.875 120.858 61.875 125C61.875 129.142 65.2331 132.5 69.375 132.5C70.7562 132.5 71.875 133.619 71.875 135H73.125Z" fill="#DCDCDC"/>
<path fill-rule="evenodd" clip-rule="evenodd" d="M76.875 154.998C76.875 152.927 78.5537 151.248 80.625 151.248C84.0769 151.248 86.875 148.45 86.875 144.998C86.875 141.547 84.0769 138.748 80.625 138.748C78.5537 138.748 76.875 137.07 76.875 134.998H78.125C78.125 136.38 79.2438 137.498 80.625 137.498C84.7669 137.498 88.125 140.857 88.125 144.998C88.125 149.14 84.7669 152.498 80.625 152.498C79.2438 152.498 78.125 153.617 78.125 154.998H76.875ZM73.125 154.998C73.125 152.927 71.4463 151.248 69.375 151.248C65.9231 151.248 63.125 148.45 63.125 144.998C63.125 141.547 65.9231 138.748 69.375 138.748C71.4463 138.748 73.125 137.07 73.125 134.998H71.875C71.875 136.38 70.7562 137.498 69.375 137.498C65.2331 137.498 61.875 140.857 61.875 144.998C61.875 149.14 65.2331 152.498 69.375 152.498C70.7562 152.498 71.875 153.617 71.875 154.998H73.125Z" fill="#DCDCDC"/>
<path fill-rule="evenodd" clip-rule="evenodd" d="M76.875 74.9998C76.875 72.9285 78.5537 71.2498 80.625 71.2498C84.0769 71.2498 86.875 68.4517 86.875 64.9998C86.875 61.5479 84.0769 58.7498 80.625 58.7498C78.5537 58.7498 76.875 57.0703 76.875 54.999H78.125C78.125 56.3803 79.2438 57.4998 80.625 57.4998C84.7669 57.4998 88.125 60.8579 88.125 64.9998C88.125 69.1417 84.7669 72.4998 80.625 72.4998C79.2438 72.4998 78.125 73.6186 78.125 74.9998H76.875ZM73.125 74.9998C73.125 72.9285 71.4463 71.2498 69.375 71.2498C65.9231 71.2498 63.125 68.4517 63.125 64.9998C63.125 61.5479 65.9231 58.7498 69.375 58.7498C71.4463 58.7498 73.125 57.0703 73.125 54.999H71.875C71.875 56.3803 70.7562 57.4998 69.375 57.4998C65.2331 57.4998 61.875 60.8579 61.875 64.9998C61.875 69.1417 65.2331 72.4998 69.375 72.4998C70.7562 72.4998 71.875 73.6186 71.875 74.9998H73.125Z" fill="#DCDCDC"/>
</g>
<path d="M146.527 52.882C146.886 53.7474 147.119 54.3069 146.52 52.8661C145.132 49.524 145.959 51.5138 146.513 52.8462C142.615 43.5042 129.281 39.6738 122.115 47.827C119.125 51.2293 118.074 55.6485 116.172 59.6472C113.928 64.3616 106.803 68.9131 101.564 66.2766C105.012 63.8127 108.361 62.1741 110.971 58.6698C113.527 55.2375 115.588 50.0283 113.112 46.0141C111.019 42.6232 106.304 40.8857 102.482 41.7398C98.0699 42.7231 96.4831 46.3908 95.2924 50.3037C93.8669 54.982 92.2825 57.2995 87.057 56.5267C83.5446 56.0075 77.3404 53.8923 77.6282 49.4322C77.9222 44.8096 81.21 40.3578 83.5949 36.555C86.4532 31.9972 89.7211 27.7616 90.7799 22.3603C92.6811 12.6493 87.9255 3.48231 77.5587 2.13573C67.3927 0.815022 61.5474 9.33676 62.653 18.8043C63.1945 23.4543 65.685 27.2392 66.7899 31.6854C68.1613 37.212 67.2856 42.9914 66.0291 48.4439C65.0957 52.4801 62.3614 56.8306 58.1148 58.0929C53.4538 59.4781 51.16 55.3856 50.5856 51.5557C49.6767 45.4875 46.8612 39.6695 39.7123 41.3545C35.3976 42.3737 32.1813 45.6735 31.0357 49.9497C29.7543 54.7375 32.0839 58.6209 35.0212 62.21C36.5166 64.0377 40.5057 67.6851 40.0876 70.3826C39.3834 74.9301 30.3709 69.5505 28.9159 68.4524C24.9293 65.4435 20.9073 62.7684 15.6386 63.3996C10.7675 63.9828 6.14342 67.5527 3.92759 71.878C-0.859864 81.2169 6.10692 91.3531 14.8158 94.9971C24.5682 99.0776 33.2313 92.4715 43.1159 92.4715C45.0571 92.4715 51.1335 92.6313 50.1125 96.0332C48.7684 100.512 43.7321 102.755 39.7505 104.25C35.613 105.804 31.6594 107.694 29.755 111.985C27.8422 116.295 29.2185 121.213 32.3454 124.546C38.3784 130.982 49.0625 133.105 55.495 126.069C58.371 122.921 59.5407 118.905 60.8352 114.949C61.1686 113.927 61.922 110.481 63.6467 111.209C66.28 112.322 64.1067 115.609 63.1311 117.056C58.0131 124.659 62.1712 135.332 72.4026 132.922C75.9704 132.081 78.5746 129.424 79.0781 125.757C79.6863 121.336 77.149 115.551 82.2675 112.943C86.4273 110.827 85.8167 119.454 85.658 121.436C85.2473 126.555 85.461 131.747 87.0624 136.664C90.0925 145.973 100.624 152.23 108.902 144.552C116.2 137.785 115.589 126.415 107.861 120.352C104.494 117.709 89.7244 111.591 97.7336 106.2C105.908 100.696 122.31 113.669 126.054 100.354C127.128 96.5325 125.246 92.4502 121.681 90.7585C119.179 89.5721 116.308 89.615 113.626 90.0066C112.142 90.2245 108.482 91.7018 107.739 89.7227C104.566 81.2431 119.711 73.5623 126.091 73.101C132.013 72.6736 137.82 73.6725 142.724 69.4446C147.479 65.3456 148.904 58.6291 146.527 52.882Z" stroke="black" stroke-width="4" stroke-linejoin="round"/>
</svg>
