<svg xmlns="http://www.w3.org/2000/svg" fill="none" viewBox="0 0 150 150"><path fill="#1D89F3" d="M147.502 52.578c.364.877.6 1.444-.007-.016-1.407-3.388-.569-1.37-.008-.02-3.95-9.47-17.468-13.353-24.731-5.088-3.031 3.449-4.097 7.928-6.025 11.982-2.274 4.779-9.498 9.393-14.808 6.72 3.495-2.498 6.89-4.159 9.536-7.71 2.591-3.48 4.68-8.76 2.17-12.83-2.121-3.437-6.901-5.199-10.775-4.333-4.473.997-6.082 4.715-7.289 8.681-1.445 4.743-3.05 7.092-8.348 6.309-3.56-.527-9.85-2.67-9.558-7.192.298-4.686 3.631-9.199 6.049-13.054 2.897-4.62 6.21-8.914 7.283-14.389 1.927-9.844-2.893-19.136-13.402-20.501-10.305-1.34-16.23 7.3-15.11 16.896.549 4.714 3.073 8.551 4.194 13.058 1.39 5.602.502 11.461-.772 16.988-.946 4.092-3.718 8.502-8.022 9.781-4.725 1.404-7.05-2.744-7.633-6.626-.921-6.152-3.775-12.05-11.022-10.341-4.374 1.033-7.634 4.378-8.796 8.713-1.299 4.853 1.063 8.79 4.04 12.428 1.516 1.853 5.56 5.55 5.136 8.285-.713 4.61-9.85-.844-11.324-1.957-4.042-3.05-8.119-5.762-13.46-5.122-4.937.59-9.625 4.21-11.871 8.594-4.853 9.467 2.21 19.742 11.037 23.436 9.886 4.136 18.668-2.56 28.688-2.56 1.968 0 8.127.162 7.093 3.61-1.363 4.541-6.468 6.814-10.504 8.329-4.195 1.576-8.202 3.492-10.133 7.841-1.939 4.369-.544 9.355 2.626 12.734 6.116 6.524 16.946 8.676 23.467 1.543 2.915-3.19 4.101-7.261 5.413-11.271.338-1.036 1.102-4.53 2.85-3.792 2.67 1.129.467 4.461-.522 5.927-5.189 7.708-.974 18.527 9.398 16.084 3.617-.853 6.257-3.547 6.767-7.263.617-4.482-1.956-10.346 3.233-12.99 4.217-2.145 3.598 6.6 3.437 8.609-.416 5.19-.2 10.453 1.424 15.437 3.071 9.437 13.747 15.779 22.139 7.996 7.398-6.86 6.778-18.385-1.056-24.531-3.413-2.68-18.385-8.881-10.266-14.346 8.287-5.58 24.913 7.571 28.709-5.926 1.088-3.874-.819-8.013-4.433-9.728-2.537-1.202-5.447-1.159-8.166-.762-1.504.221-5.215 1.719-5.967-.288-3.217-8.595 12.136-16.381 18.603-16.849 6.003-.433 11.889.58 16.861-3.706 4.82-4.156 6.265-10.964 3.855-16.79Z"/><path fill="#3FC0F7" fill-rule="evenodd" d="M132.644 42.936c-1.418.02-2.828.246-4.181.698a35.021 35.021 0 0 1 13.863 13.168 36.23 36.23 0 0 0-5.357 1.56 29.577 29.577 0 0 0-10.598-9.726 29.31 29.31 0 0 0-3.299-1.53 15.937 15.937 0 0 0-1.742 2.245c1.212.43 2.395.948 3.54 1.553a26.882 26.882 0 0 1 9.568 8.517 37.5 37.5 0 0 0-4.742 2.62 21.464 21.464 0 0 0-7.569-6.46 21.266 21.266 0 0 0-3.231-1.326c-.194.472-.383.947-.572 1.422-.147.369-.294.738-.443 1.106 1.032.314 2.039.719 3.008 1.211a18.785 18.785 0 0 1 6.611 5.607 36.405 36.405 0 0 0-4.058 3.57 13.431 13.431 0 0 0-4.778-4.232 13.26 13.26 0 0 0-3.393-1.23 15.071 15.071 0 0 1-2.519 2.43c1.729.04 3.424.504 4.939 1.353a10.77 10.77 0 0 1 3.889 3.728 38.2 38.2 0 0 0-3.75 5.238 5.45 5.45 0 0 0-1.736-3.483 5.318 5.318 0 0 0-3.594-1.403c-1.328 0-2.609.5-3.594 1.403a5.45 5.45 0 0 0-1.736 3.483 39.047 39.047 0 0 0-3.737-5.238 10.793 10.793 0 0 1 1.885-2.277 7.596 7.596 0 0 1-3.099-.646c-.232.281-.452.573-.661.873a36.404 36.404 0 0 0-4.058-3.569 18.786 18.786 0 0 1 6.611-5.607 18.52 18.52 0 0 1 8.905-2.004 16.67 16.67 0 0 0 1.14-2.661 21.14 21.14 0 0 0-11.283 2.253 21.473 21.473 0 0 0-7.57 6.458 36.721 36.721 0 0 0-4.74-2.619 26.875 26.875 0 0 1 9.567-8.517 26.479 26.479 0 0 1 14.431-2.991 7.448 7.448 0 0 0-1.259-2.785 29.127 29.127 0 0 0-14.673 3.508 29.384 29.384 0 0 0-3.302 2.083c-1.164 3.539-2.548 5.559-5.894 5.695-.492.629-.96 1.279-1.402 1.948a35.484 35.484 0 0 0-5.37-1.56c.29-.49.592-.972.905-1.446a15.221 15.221 0 0 1-2.474-1.124c-.262.404-.515.813-.761 1.226a5.477 5.477 0 0 0-.765-2.296 6.255 6.255 0 0 1-1.225-1.404 5.313 5.313 0 0 0-3.34-1.186c-1.329 0-2.61.5-3.595 1.403a5.455 5.455 0 0 0-1.736 3.483 38.928 38.928 0 0 0-3.737-5.238 10.775 10.775 0 0 1 3.888-3.722 10.603 10.603 0 0 1 8.541-.81c.286-.846.643-1.682 1.045-2.505A13.219 13.219 0 0 0 75 42.43a13.237 13.237 0 0 0-6.162 1.518c-.855.448-1.657.987-2.392 1.606a84.21 84.21 0 0 1-.545 2.526 16.27 16.27 0 0 1-1.674 4.305 35.269 35.269 0 0 1 3.099 4.417c-1.835.38-3.616.91-5.357 1.56-.422-.639-.867-1.26-1.335-1.862a9.37 9.37 0 0 1-2.438 1.26c.434.536.848 1.09 1.242 1.661a37.469 37.469 0 0 0-4.742 2.62 21.474 21.474 0 0 0-7.569-6.46 21.15 21.15 0 0 0-16.82-1.057c.196.884.5 1.738.888 2.567a18.5 18.5 0 0 1 14.694.903 18.786 18.786 0 0 1 6.611 5.607 36.396 36.396 0 0 0-4.058 3.57 13.435 13.435 0 0 0-4.778-4.232 13.238 13.238 0 0 0-9.377-1.127l.182.222c.29.356.676.78 1.104 1.253.26.286.536.59.817.908a10.577 10.577 0 0 1 6.3 1.297 10.776 10.776 0 0 1 3.89 3.728 38.106 38.106 0 0 0-3.75 5.238 5.454 5.454 0 0 0-1.736-3.483c-.436-.4-.93-.72-1.46-.954-.005.1-.014.2-.03.298-.385 2.486-3.22 2.045-5.982.936a5.46 5.46 0 0 0-1.452 3.203 38.928 38.928 0 0 0-3.737-5.238c.108-.175.222-.347.34-.515a10.033 10.033 0 0 1-.493-.343c-.56-.423-1.122-.84-1.687-1.241l-.035.05c-.08-.083-.16-.164-.241-.245-2.874-2.014-5.863-3.62-9.395-3.769a34.99 34.99 0 0 1 12.422 11.844c.174.258.335.53.482.8-1.835.38-3.616.91-5.357 1.561a37.942 37.942 0 0 0-1.728-2.36h-.013c-3.594-4.42-8.422-7.767-13.947-9.51a17.17 17.17 0 0 0-2.636 2.084c5.02 1.195 9.49 3.82 12.98 7.425a27.192 27.192 0 0 1 2.813 3.42 37.303 37.303 0 0 0-4.728 2.62c-1.835-2.47-4.152-4.547-6.83-6.04a21.143 21.143 0 0 0-7.73-2.549c-.4.873-.7 1.752-.909 2.63 2.309.217 4.563.867 6.646 1.922A18.785 18.785 0 0 1 15 82.601a36.396 36.396 0 0 0-4.058 3.57 13.435 13.435 0 0 0-4.78-4.223 13.25 13.25 0 0 0-4.615-1.429c.155.977.409 1.938.748 2.874 1.007.223 1.982.593 2.892 1.101A10.775 10.775 0 0 1 9.08 88.22a38.045 38.045 0 0 0-1.948 2.487 22.551 22.551 0 0 0 2.04 1.763 34.972 34.972 0 0 1 11.184-10.197 34.452 34.452 0 0 1 17.137-4.57c6.006 0 11.91 1.574 17.138 4.57a35.026 35.026 0 0 1 12.695 12.529c-1.835.38-3.616.91-5.357 1.56a29.58 29.58 0 0 0-10.598-9.726 29.129 29.129 0 0 0-13.87-3.52 29.129 29.129 0 0 0-13.872 3.52 29.552 29.552 0 0 0-9.795 8.57l.152.064c.854.358 1.7.634 2.539.841a26.842 26.842 0 0 1 8.605-7.208 26.476 26.476 0 0 1 12.37-3.07c4.307 0 8.55 1.053 12.37 3.07a26.872 26.872 0 0 1 9.568 8.518 37.516 37.516 0 0 0-4.742 2.619 21.545 21.545 0 0 0-4.843-4.8c.057.32.035.678-.086 1.08a8.043 8.043 0 0 1-.73 1.693 18.877 18.877 0 0 1 3.463 3.588 36.353 36.353 0 0 0-4.058 3.569 13.49 13.49 0 0 0-3.283-3.314 22.973 22.973 0 0 1-2.739 1.489 10.777 10.777 0 0 1 4.16 3.874 38.135 38.135 0 0 0-3.75 5.239 5.456 5.456 0 0 0-1.736-3.484 5.317 5.317 0 0 0-3.594-1.403c-1.328 0-2.609.5-3.594 1.403a5.456 5.456 0 0 0-1.736 3.484 38.963 38.963 0 0 0-1.56-2.413 11.17 11.17 0 0 0-1.526 2.551c.088.134.174.27.26.405.174.258.335.529.482.8-.42.087-.838.182-1.252.285a10.507 10.507 0 0 0-.33 2.884c3.001-.838 6.111-1.268 9.25-1.268 6.005 0 11.909 1.575 17.137 4.571a34.832 34.832 0 0 1 3.413 2.233c.956-1.973 1.641-4.084 2.327-6.195l.083-.255a21.69 21.69 0 0 0-2.65 2.984 36.683 36.683 0 0 0-4.741-2.619 27.15 27.15 0 0 1 2.812-3.42c4.862-5.022 11.625-8.143 19.125-8.143s14.263 3.121 19.125 8.143a27.15 27.15 0 0 1 2.813 3.42 37.326 37.326 0 0 0-4.728 2.619c-1.835-2.47-4.152-4.546-6.83-6.039A21.146 21.146 0 0 0 75 110.286a21.18 21.18 0 0 0-10.312 2.678c.352 1.295-.674 3.07-1.426 4.219A18.523 18.523 0 0 1 75 113.001h.027c2.15.002 4.28.378 6.294 1.109a6.835 6.835 0 0 1 1.041-.647c2.181-1.11 3.069.694 3.395 2.972A18.844 18.844 0 0 1 90 120.601a36.353 36.353 0 0 0-4.058 3.569 15.5 15.5 0 0 0-.258-.357 48.621 48.621 0 0 0-.023 4.693 34.932 34.932 0 0 1 9.695-8.233 34.623 34.623 0 0 1 6.929-3.02 38.592 38.592 0 0 1-2.79-1.901l-.026.01-.043-.063c-1.855-1.415-3.34-2.949-3.689-4.51-5.32-5.348-12.652-8.645-20.737-8.645-9.147 0-17.33 4.22-22.741 10.857h.013a29.69 29.69 0 0 0-1.74 2.361 35.53 35.53 0 0 0-5.371-1.561l.495-.8C51.831 103.202 62.68 96.715 75 96.715a34.44 34.44 0 0 1 16.73 4.334 34.808 34.808 0 0 1 7.029 5.151c1.82-.951 3.976-1.143 6.277-.989a10.752 10.752 0 0 1 2.287-1.72 10.602 10.602 0 0 1 10.368 0c1.41.79 2.624 1.892 3.553 3.219 1.944-.502 3.572-1.642 4.684-3.851a35.985 35.985 0 0 0-2.486 2.311 13.436 13.436 0 0 0-4.778-4.231 13.24 13.24 0 0 0-6.164-1.524c-2.146 0-4.26.523-6.164 1.524a13.436 13.436 0 0 0-4.778 4.231 36.361 36.361 0 0 0-4.058-3.569 18.787 18.787 0 0 1 6.611-5.607 18.52 18.52 0 0 1 8.389-2.011c2.913 0 5.785.689 8.389 2.011a18.763 18.763 0 0 1 5.871 4.667 8.19 8.19 0 0 0 .14-3.754 21.392 21.392 0 0 0-4.773-3.325 21.17 21.17 0 0 0-9.627-2.318 21.17 21.17 0 0 0-9.627 2.318 21.476 21.476 0 0 0-7.57 6.458 36.767 36.767 0 0 0-4.74-2.619 26.874 26.874 0 0 1 9.567-8.518 26.527 26.527 0 0 1 7.744-2.662c.196-1.004.61-1.981 1.19-2.92a29.16 29.16 0 0 0-10.435 3.315 29.58 29.58 0 0 0-10.598 9.727 35.484 35.484 0 0 0-5.37-1.561 35.026 35.026 0 0 1 12.695-12.529 34.451 34.451 0 0 1 19.463-4.492 33.574 33.574 0 0 1 6.085-3.168c5.981-9.223 16.142-15.42 27.738-15.871a15.136 15.136 0 0 0-.172-2.71c-.383.016-.766.037-1.149.064a2.757 2.757 0 0 1 .177-1.068c.125-.33.312-.632.552-.89a15.061 15.061 0 0 0-.528-1.51l.242.581-.262-.63.02.048-.027-.065-.043-.104.035.084-.443-1.068s-.001 0 0 0l.408.984a14.476 14.476 0 0 0-.448-.957 5.45 5.45 0 0 0-2.334 3.957 39.047 39.047 0 0 0-3.737-5.238 10.82 10.82 0 0 1 2.773-3.004 16.31 16.31 0 0 0-2.217-1.699 13.5 13.5 0 0 0-2.431 2.653A36.405 36.405 0 0 0 135 44.601a19.12 19.12 0 0 1 1.071-1.32 15.368 15.368 0 0 0-3.189-.346l-.078.105-.16-.104Zm-54.965 51.16A35.058 35.058 0 0 0 75 94.001c-.894 0-1.787.031-2.678.095a2.746 2.746 0 0 1 .75-1.98 2.649 2.649 0 0 1 3.822-.033c.502.508.785 1.198.785 1.918v.095Zm.915-4.12A5.318 5.318 0 0 0 75 88.572c-1.328 0-2.609.5-3.594 1.402a5.455 5.455 0 0 0-1.736 3.483 38.928 38.928 0 0 0-3.737-5.238 10.775 10.775 0 0 1 3.888-3.722 10.604 10.604 0 0 1 10.366-.004 10.776 10.776 0 0 1 3.894 3.726 38.106 38.106 0 0 0-3.75 5.238 5.455 5.455 0 0 0-1.737-3.483Zm2.568-8.028c-1.904-1-4.018-1.52-6.162-1.518a13.237 13.237 0 0 0-6.162 1.518 13.434 13.434 0 0 0-4.78 4.222A36.396 36.396 0 0 0 60 82.601c3.415-4.614 8.866-7.6 15-7.6h.027c2.902.002 5.764.688 8.36 2.003A18.785 18.785 0 0 1 90 82.601a36.396 36.396 0 0 0-4.058 3.57 13.434 13.434 0 0 0-4.78-4.223Zm11.048-.908c-1.835-2.47-4.152-4.546-6.83-6.039A21.15 21.15 0 0 0 75 72.287c-3.763 0-7.299.99-10.38 2.714a21.625 21.625 0 0 0-6.816 6.04 36.721 36.721 0 0 0-4.741-2.62 27.192 27.192 0 0 1 2.812-3.42C60.737 69.98 67.5 66.858 75 66.858s14.263 3.122 19.125 8.143a27.192 27.192 0 0 1 2.813 3.42 37.303 37.303 0 0 0-4.728 2.62Zm5.531-6.039h-.013C92.33 68.365 84.148 64.144 75 64.144c-9.147 0-17.33 4.22-22.741 10.857h.013a29.642 29.642 0 0 0-1.74 2.361 35.484 35.484 0 0 0-5.371-1.56l.495-.8C51.831 65.201 62.68 58.714 75 58.714a34.433 34.433 0 0 1 16.73 4.335A34.988 34.988 0 0 1 104.344 75c.174.258.335.53.482.8-1.835.38-3.616.91-5.357 1.561a37.942 37.942 0 0 0-1.728-2.36Zm12.08.095v-.095c0-.72.283-1.41.785-1.92a2.661 2.661 0 0 1 1.894-.794c.71 0 1.392.286 1.894.795.502.509.785 1.2.785 1.92v.094a37.545 37.545 0 0 0-5.358 0Zm-34.82-19.095c.896 0 1.794.027 2.678.095v-.095c0-.72-.282-1.41-.785-1.92a2.66 2.66 0 0 0-2.941-.579c-.331.142-.63.35-.88.613a2.746 2.746 0 0 0-.75 1.981 37.523 37.523 0 0 1 2.677-.095Zm-40.18 57v.095a37.417 37.417 0 0 1 5.358 0v-.095c0-.72-.282-1.411-.785-1.92a2.66 2.66 0 0 0-1.894-.795 2.66 2.66 0 0 0-1.894.795 2.734 2.734 0 0 0-.785 1.92Zm0-37.905v-.095c0-.72.283-1.41.785-1.92a2.66 2.66 0 0 1 1.894-.794c.71 0 1.392.286 1.894.795.503.509.785 1.2.785 1.92v.094a37.534 37.534 0 0 0-5.358 0Z" clip-rule="evenodd"/><path fill="#3FC0F7" d="M147.416 64.257c-7.142.628-13.561 3.837-18.336 8.708.511-.015 1.02-.025 1.527-.036.876-.018 1.746-.036 2.606-.076a26.495 26.495 0 0 1 12.468-5.644 14.32 14.32 0 0 0 1.735-2.952ZM113.201 140.159c.382-.861.683-1.747.903-2.647a13.232 13.232 0 0 0-7.768 1.427 13.436 13.436 0 0 0-4.778 4.231 36.361 36.361 0 0 0-4.058-3.569 18.777 18.777 0 0 1 6.611-5.607 18.514 18.514 0 0 1 10.37-1.904 16.093 16.093 0 0 0-.534-2.777 21.127 21.127 0 0 0-11.074 2.268 21.468 21.468 0 0 0-7.57 6.459 36.683 36.683 0 0 0-4.74-2.619 26.88 26.88 0 0 1 9.567-8.518 26.508 26.508 0 0 1 11.057-3.038 16.558 16.558 0 0 0-2.41-2.509 29.177 29.177 0 0 0-10.148 3.279 29.592 29.592 0 0 0-10.598 9.727 37.444 37.444 0 0 0-1.77-.616c.201 1.055.454 2.101.766 3.136a34.694 34.694 0 0 1 4.703 2.167 34.942 34.942 0 0 1 11.146 9.803c.91-.151 1.822-.42 2.725-.821a39.18 39.18 0 0 0-2.168-2.812 10.774 10.774 0 0 1 3.89-3.728 10.602 10.602 0 0 1 5.878-1.332ZM79.04 119.059a13.247 13.247 0 0 0-10.202.888 13.438 13.438 0 0 0-4.78 4.223 35.89 35.89 0 0 0-2.883-2.641 12.272 12.272 0 0 0-.432 3.195 35.187 35.187 0 0 1 6.583 8.077c-.591.123-1.177.261-1.757.413 1.808.874 4.092 1.137 6.793.501 1.362-.321 2.585-.903 3.609-1.702a36.832 36.832 0 0 0-3.649.083 2.743 2.743 0 0 1 .75-1.981 2.662 2.662 0 0 1 1.928-.829c.71 0 1.392.286 1.894.795.175.177.323.376.441.59a8.311 8.311 0 0 0 1.404-2.557 5.317 5.317 0 0 0-3.74-1.542c-1.327 0-2.608.5-3.593 1.403a5.455 5.455 0 0 0-1.736 3.483 38.946 38.946 0 0 0-3.737-5.239 10.776 10.776 0 0 1 3.888-3.722 10.606 10.606 0 0 1 9.285-.529c-.062-.985-.113-1.967-.066-2.909ZM55.026 126.979a29.462 29.462 0 0 0-3.655-2.344 29.134 29.134 0 0 0-13.87-3.519c-2.674 0-5.324.369-7.88 1.089.437.847.968 1.65 1.58 2.39a26.393 26.393 0 0 1 6.3-.763 26.482 26.482 0 0 1 15.425 4.96 13.859 13.859 0 0 0 2.1-1.813ZM46.255 131.161a21.168 21.168 0 0 0-9.08-1.895c2.852 1.435 6.02 2.143 9.08 1.895ZM45.603 92.878a21.156 21.156 0 0 0-17.73.704 21.383 21.383 0 0 0-4.251 2.86c2.62-.32 5.215-1.026 7.835-1.738 3.644-.99 7.338-1.994 11.217-1.994.654 0 1.769.018 2.93.168ZM30.699 48.723a26.427 26.427 0 0 1 19.526 2.372 24.165 24.165 0 0 0-.766-3.406 29.11 29.11 0 0 0-17.161-2.103 12.554 12.554 0 0 0-1.6 3.137ZM67.343 38.652c.044-.978.046-1.957-.003-2.932A21.126 21.126 0 0 1 75 34.287c3.073 0 6.003.66 8.645 1.841-.308.489-.63.988-.957 1.497-.174.269-.349.54-.524.814a18.512 18.512 0 0 0-7.137-1.438H75c-2.727 0-5.319.59-7.657 1.651ZM86.601 31.53c.486-.769.959-1.543 1.406-2.33A29.045 29.045 0 0 0 75 26.145c-3.293 0-6.461.547-9.42 1.557.32.842.619 1.694.872 2.57A26.415 26.415 0 0 1 75 28.857c4.16 0 8.093.96 11.601 2.673Z"/><path fill="#3FC0F7" fill-rule="evenodd" d="M63.608 22.646A34.38 34.38 0 0 1 75 20.716a34.418 34.418 0 0 1 15.279 3.573c.291-.855.533-1.736.712-2.65l.003-.015a38.574 38.574 0 0 0-.431-.203c.198-.288.402-.572.611-.852.22-1.491.283-2.963.195-4.39a29.766 29.766 0 0 0-3.338 4.184 35.484 35.484 0 0 0-5.37-1.561 35.156 35.156 0 0 1 7.28-8.695 15.53 15.53 0 0 0-1.316-2.413 35.711 35.711 0 0 0-2.683 2.476 13.434 13.434 0 0 0-4.78-4.222c-1.904-1-4.018-1.52-6.162-1.518a13.237 13.237 0 0 0-6.162 1.518 13.434 13.434 0 0 0-4.78 4.222c-.207-.211-.416-.42-.628-.627-.36.957-.634 1.967-.816 3.016a35.22 35.22 0 0 1 4.712 6.243 35.684 35.684 0 0 0-4.49 1.248c.208.887.474 1.748.772 2.596Zm14.07-4.55A35.058 35.058 0 0 0 75 18.001c-.894 0-1.787.031-2.678.095a2.746 2.746 0 0 1 .75-1.98 2.649 2.649 0 0 1 3.822-.033c.502.508.785 1.198.785 1.918v.095Zm.916-4.12A5.318 5.318 0 0 0 75 12.571c-1.328 0-2.609.5-3.594 1.403a5.455 5.455 0 0 0-1.736 3.483 38.928 38.928 0 0 0-3.737-5.238 10.775 10.775 0 0 1 3.888-3.722 10.604 10.604 0 0 1 10.366-.004 10.775 10.775 0 0 1 3.894 3.726 38.106 38.106 0 0 0-3.75 5.238 5.455 5.455 0 0 0-1.737-3.483Z" clip-rule="evenodd"/><path fill="#3FC0F7" d="M107.309 62.477a13.37 13.37 0 0 0-4.256 2.895c.471-.32.939-.629 1.403-.935.977-.646 1.934-1.278 2.853-1.96Z"/><path fill="#136CC3" d="M73.825.098c-3.686.418-6.726 2.172-8.85 4.75-2.831 3.437-4.078 8.268-3.49 13.303.583 5 3.148 8.887 4.215 13.181 1.327 5.348.486 11.048-.776 16.524-.885 3.827-3.517 7.913-7.332 9.047-2.061.612-3.309.075-4.35-1.051-1.04-1.126-1.74-2.966-2.009-4.766-.476-3.179-1.432-6.354-3.367-8.619-1.936-2.265-4.971-3.466-8.873-2.547-4.736 1.119-8.282 4.766-9.532 9.428-1.412 5.276 1.196 9.609 4.233 13.32.827 1.012 2.184 2.36 3.275 3.786 1.092 1.425 1.773 2.888 1.645 3.712-.062.403-.178.574-.313.696-.134.121-.339.217-.683.26-.69.084-1.846-.138-3.051-.575-2.41-.873-5.114-2.55-5.686-2.982-4.071-3.073-8.45-6.005-14.181-5.319-5.342.64-10.241 4.445-12.643 9.133-2.583 5.04-1.986 10.37.399 14.81 2.384 4.442 6.511 8.067 11.142 10.005 5.218 2.183 10.17 1.492 14.92.318s9.367-2.803 14.154-2.803c.957 0 2.935.058 4.399.475.732.208 1.305.516 1.564.797.26.28.352.454.172 1.053-1.191 3.969-5.909 6.182-9.896 7.679h-.002c-4.248 1.596-8.6 3.653-10.694 8.371-2.125 4.79-.595 10.194 2.81 13.825 3.223 3.436 7.655 5.713 12.204 6.203 4.549.49 9.25-.863 12.73-4.67 3.11-3.404 4.32-7.647 5.625-11.635.203-.622.465-1.668.842-2.428.189-.38.41-.654.52-.736.108-.081.004-.08.148-.018.46.195.55.352.62.573.068.22.058.595-.079 1.06-.274.931-1.011 2.087-1.502 2.815-2.785 4.137-3.085 9.13-1.199 12.857 1.886 3.727 6.12 6.062 11.656 4.758 3.97-.935 6.963-3.988 7.528-8.1.342-2.485-.165-5.092-.088-7.285.077-2.193.516-3.794 2.783-4.949.41-.208.67-.239.814-.225.145.014.221.05.354.188.266.274.591 1.061.752 2.052.322 1.983.148 4.63.068 5.622-.422 5.271-.21 10.671 1.469 15.828 1.621 4.98 5.218 9.135 9.625 11.06 4.407 1.926 9.695 1.485 14.145-2.642 7.827-7.259 7.173-19.547-1.118-26.051-.985-.774-2.547-1.639-4.293-2.676-1.745-1.037-3.648-2.218-5.15-3.441-1.502-1.223-2.542-2.504-2.766-3.492-.112-.495-.075-.914.184-1.415.259-.5.78-1.086 1.7-1.705 1.791-1.206 4.126-1.443 6.804-1.214 2.678.228 5.633.919 8.517 1.378 2.885.46 5.722.712 8.229-.136 2.507-.849 4.551-2.914 5.562-6.512v-.002c1.221-4.346-.912-8.977-4.966-10.9-2.812-1.334-5.929-1.258-8.739-.848h-.002c-.956.14-2.177.554-3.244.688-.533.066-1 .05-1.261-.026-.262-.076-.3-.102-.379-.312-.696-1.858-.408-3.594.576-5.354.984-1.76 2.701-3.476 4.744-4.959 4.087-2.965 9.525-4.978 12.418-5.187 2.922-.211 5.906-.064 8.863-.414 2.958-.35 5.917-1.238 8.58-3.534 5.155-4.443 6.693-11.719 4.125-17.93v-.001c-2.113-5.065-6.742-8.6-11.824-9.801-5.082-1.2-10.711-.022-14.598 4.4-3.237 3.684-4.309 8.289-6.175 12.213-1.014 2.131-3.258 4.377-5.821 5.695-1.923.99-3.973 1.458-5.843 1.143 2.875-1.91 5.751-3.65 8.097-6.8 1.364-1.832 2.594-4.122 3.168-6.563.574-2.442.473-5.084-.949-7.389v-.002c-2.394-3.878-7.518-5.75-11.846-4.783-2.469.55-4.239 1.915-5.463 3.62-1.223 1.706-1.948 3.729-2.562 5.747-.706 2.316-1.44 3.902-2.43 4.762-.989.86-2.325 1.216-4.816.847-1.67-.247-4.05-.903-5.861-1.97-1.813-1.068-2.962-2.379-2.846-4.168.27-4.256 3.448-8.678 5.898-12.586 2.864-4.566 6.29-8.97 7.418-14.729 1.005-5.134.262-10.175-2.166-14.144-2.427-3.97-6.567-6.824-12.09-7.541a16.09 16.09 0 0 0-3.89-.047Zm.217 1.975a14.465 14.465 0 0 1 3.416.056c4.986.648 8.512 3.122 10.64 6.602 2.128 3.48 2.832 8.005 1.91 12.715-1.017 5.19-4.217 9.376-7.148 14.05-2.384 3.802-5.876 8.405-6.201 13.522h.002c-.177 2.731 1.674 4.753 3.824 6.02 2.15 1.266 4.694 1.945 6.584 2.224 2.806.415 4.922-.012 6.422-1.316 1.5-1.305 2.29-3.264 3.03-5.69.592-1.948 1.274-3.768 2.275-5.162 1-1.394 2.27-2.387 4.273-2.834 3.423-.765 7.857.885 9.707 3.881 1.088 1.765 1.198 3.797.707 5.883s-1.6 4.175-2.828 5.824c-2.491 3.343-5.741 4.94-9.315 7.494l-1.347.963 1.478.744c3.024 1.522 6.506.947 9.451-.568 2.946-1.516 5.452-3.968 6.711-6.615 1.99-4.183 3.047-8.539 5.872-11.752 3.376-3.843 8.147-4.836 12.634-3.776 4.488 1.06 8.6 4.22 10.438 8.625 2.249 5.44.901 11.78-3.584 15.647-2.309 1.99-4.779 2.739-7.508 3.062-2.729.324-5.691.182-8.772.404-3.575.259-9.046 2.371-13.449 5.565-2.201 1.597-4.124 3.47-5.316 5.602-1.192 2.132-1.616 4.59-.703 7.03v.003c.297.793 1.004 1.33 1.697 1.531.693.2 1.388.172 2.064.088 1.354-.17 2.74-.613 3.288-.693 2.628-.384 5.331-.396 7.591.675 3.176 1.507 4.856 5.15 3.901 8.553-.886 3.15-2.344 4.504-4.281 5.16-1.938.656-4.488.498-7.27.055-2.783-.443-5.775-1.15-8.664-1.397-2.888-.246-5.74-.033-8.09 1.549-1.11.748-1.898 1.55-2.361 2.446a4.07 4.07 0 0 0-.358 2.775c.407 1.795 1.801 3.256 3.453 4.602 1.653 1.345 3.625 2.559 5.393 3.609 1.768 1.05 3.357 1.965 4.078 2.531h.002c7.377 5.787 7.961 16.551.992 23.012-3.941 3.656-8.188 3.934-11.984 2.275-3.796-1.658-7.073-5.39-8.523-9.847-1.568-4.812-1.79-9.94-1.38-15.049.082-1.018.297-3.746-.085-6.102-.192-1.178-.492-2.3-1.291-3.125a2.607 2.607 0 0 0-1.594-.785c-.628-.061-1.271.104-1.916.432-2.92 1.487-3.789 4.141-3.877 6.662-.088 2.52.382 5.087.107 7.084-.456 3.32-2.741 5.655-6.005 6.424-4.836 1.139-7.895-.715-9.413-3.713-1.517-2.999-1.33-7.268 1.073-10.838.498-.739 1.356-1.982 1.763-3.365.204-.692.307-1.454.069-2.221-.239-.767-.875-1.45-1.75-1.82-.722-.305-1.586-.145-2.121.254-.536.398-.854.922-1.118 1.453-.526 1.061-.816 2.281-.95 2.695-1.32 4.03-2.481 7.928-5.202 10.906-3.04 3.326-7.014 4.465-11.039 4.031-4.025-.433-8.065-2.494-10.959-5.582v-.002c-2.934-3.127-4.194-7.694-2.441-11.642 1.766-3.979 5.428-5.755 9.568-7.311 4.085-1.533 9.577-3.868 11.111-8.978.338-1.126.047-2.265-.619-2.985-.666-.72-1.56-1.1-2.484-1.363-1.85-.526-3.936-.55-4.947-.55-5.233 0-10.016 1.72-14.633 2.86-4.617 1.141-9 1.731-13.668-.222-4.197-1.756-8.014-5.117-10.155-9.103-2.14-3.987-2.65-8.526-.38-12.954h.001c2.091-4.08 6.566-7.515 11.1-8.058 4.95-.593 8.728 1.9 12.738 4.927.904.682 3.504 2.287 6.21 3.266 1.352.49 2.703.837 3.974.682.635-.078 1.274-.304 1.781-.762.508-.458.833-1.125.95-1.875.295-1.91-.83-3.662-2.034-5.232-1.203-1.57-2.628-2.997-3.316-3.838-2.917-3.565-5.032-7.106-3.848-11.535v-.002c1.074-4.006 4.047-7.05 8.059-7.998 3.344-.789 5.36.105 6.894 1.9 1.534 1.794 2.465 4.643 2.91 7.615.313 2.083 1.067 4.26 2.516 5.828 1.45 1.569 3.727 2.401 6.39 1.61 4.795-1.425 7.705-6.159 8.712-10.514 1.285-5.579 2.22-11.598.767-17.455-1.173-4.72-3.654-8.506-4.17-12.932-.533-4.562.622-8.852 3.05-11.799 1.82-2.21 4.33-3.703 7.52-4.046Z"/></svg>