<svg width="150" height="150" viewBox="0 0 150 150" fill="none" xmlns="http://www.w3.org/2000/svg">
<mask id="mask0_1471_16816" style="mask-type:alpha" maskUnits="userSpaceOnUse" x="1" y="1" width="148" height="148">
<path d="M147.502 52.579C147.866 53.4563 148.102 54.0234 147.495 52.5629C146.088 49.175 146.926 51.1921 147.487 52.5427C143.537 43.0727 130.019 39.1899 122.755 47.4548C119.724 50.9037 118.659 55.3834 116.731 59.4369C114.457 64.2159 107.233 68.8297 101.923 66.1571C105.418 63.6595 108.813 61.9984 111.459 58.4461C114.05 54.9668 116.139 49.6862 113.629 45.617C111.508 42.1797 106.728 40.4184 102.853 41.2842C98.3809 42.281 96.7723 45.9989 95.5654 49.9654C94.1203 54.7078 92.5142 57.057 87.2172 56.2736C83.6566 55.7473 77.3674 53.6032 77.6591 49.082C77.9572 44.396 81.2901 39.8832 83.7076 36.0284C86.605 31.4081 89.9178 27.1145 90.9911 21.6393C92.9183 11.7952 88.0976 2.50262 77.5887 1.13759C67.2835 -0.201211 61.3581 8.43726 62.4789 18.0345C63.0278 22.7482 65.5523 26.5849 66.6724 31.092C68.0626 36.6944 67.1749 42.5529 65.9011 48.0801C64.955 52.1716 62.1833 56.5817 57.8785 57.8613C53.1536 59.2655 50.8284 55.1169 50.2461 51.2345C49.3248 45.0832 46.4707 39.1855 39.2239 40.8937C34.8501 41.9268 31.5897 45.2718 30.4284 49.6065C29.1295 54.4599 31.491 58.3965 34.4685 62.0347C35.9844 63.8875 40.0282 67.5849 39.6043 70.3194C38.8905 74.9292 29.7545 69.4759 28.2796 68.3627C24.2384 65.3126 20.1613 62.6008 14.8204 63.2406C9.88258 63.8319 5.19515 67.4507 2.94897 71.8352C-1.90407 81.3021 5.15815 91.5771 13.9863 95.271C23.8723 99.4074 32.6541 92.7108 42.6741 92.7108C44.6419 92.7108 50.8015 92.8728 49.7666 96.3213C48.404 100.861 43.2988 103.135 39.2626 104.65C35.0684 106.226 31.0607 108.142 29.1302 112.491C27.1912 116.86 28.5863 121.846 31.7561 125.225C37.8717 131.749 48.7022 133.901 55.2227 126.768C58.1381 123.577 59.3239 119.506 60.6361 115.497C60.9741 114.461 61.7378 110.967 63.4862 111.705C66.1555 112.834 63.9525 116.166 62.9635 117.632C57.7753 125.34 61.9904 136.158 72.362 133.715C75.9786 132.863 78.6186 130.169 79.129 126.453C79.7454 121.971 77.1734 116.106 82.362 113.463C86.5788 111.318 85.9599 120.063 85.7989 122.072C85.3827 127.262 85.5992 132.525 87.2226 137.509C90.2942 146.946 100.97 153.288 109.362 145.505C116.76 138.645 116.14 127.12 108.306 120.974C104.893 118.294 89.921 112.093 98.04 106.628C106.327 101.048 122.953 114.199 126.749 100.702C127.837 96.8275 125.93 92.6893 122.315 90.9744C119.779 89.7717 116.869 89.8152 114.15 90.2122C112.646 90.4331 108.935 91.9306 108.182 89.9243C104.966 81.3286 120.318 73.5426 126.786 73.0749C132.789 72.6417 138.675 73.6543 143.647 69.3685C148.467 65.2134 149.912 58.4048 147.502 52.579Z" fill="black"/>
</mask>
<g mask="url(#mask0_1471_16816)">
<path d="M150 0H0V150H150V0Z" fill="black"/>
<path d="M0 10V4H4V10H0Z" fill="#484848"/>
<path d="M0 26V20H4V26H0Z" fill="#484848"/>
<path d="M0 34V28H4V34H0Z" fill="#484848"/>
<path d="M0 50V44H4V50H0Z" fill="#484848"/>
<path d="M0 58V52H4V58H0Z" fill="#484848"/>
<path d="M0 74V68H4V74H0Z" fill="#484848"/>
<path d="M0 82V76H4V82H0Z" fill="#484848"/>
<path d="M0 98V92H4V98H0Z" fill="#484848"/>
<path d="M0 106V100H4V106H0Z" fill="#484848"/>
<path d="M0 122V116H4V122H0Z" fill="#484848"/>
<path d="M0 130V124H4V130H0Z" fill="#484848"/>
<path d="M0 146V140H4V146H0Z" fill="#484848"/>
<path d="M4 150H0V148H4V150Z" fill="#484848"/>
<path d="M18 150H6V148H18V150Z" fill="#484848"/>
<path d="M32 150H20V148H32V150Z" fill="#484848"/>
<path d="M46 150H34V148H46V150Z" fill="#484848"/>
<path d="M60 150H48V148H60V150Z" fill="#484848"/>
<path d="M88 150H76V148H88V150Z" fill="#484848"/>
<path d="M102 150H90V148H102V150Z" fill="#484848"/>
<path d="M116 150H104V148H116V150Z" fill="#484848"/>
<path d="M130 150H118V148H130V150Z" fill="#484848"/>
<path d="M144 150H132V148H144V150Z" fill="#484848"/>
<path d="M150 140V146H146V140H150Z" fill="#484848"/>
<path d="M150 132V138H146V132H150Z" fill="#484848"/>
<path d="M150 124V130H146V124H150Z" fill="#484848"/>
<path d="M150 108V114H146V108H150Z" fill="#484848"/>
<path d="M150 92V98H146V92H150Z" fill="#484848"/>
<path d="M150 84V90H146V84H150Z" fill="#484848"/>
<path d="M150 76V82H146V76H150Z" fill="#484848"/>
<path d="M150 60V66H146V60H150Z" fill="#484848"/>
<path d="M150 44V50H146V44H150Z" fill="#484848"/>
<path d="M150 36V42H146V36H150Z" fill="#484848"/>
<path d="M150 28V34H146V28H150Z" fill="#484848"/>
<path d="M150 12V18H146V12H150Z" fill="#484848"/>
<path d="M146 0H150V2H146V0Z" fill="#484848"/>
<path d="M132 0H144V2H132V0Z" fill="#484848"/>
<path d="M118 0H130V2H118V0Z" fill="#484848"/>
<path d="M76 0H88V2H76V0Z" fill="#484848"/>
<path d="M62 0H74V2H62V0Z" fill="#484848"/>
<path d="M48 0H60V2H48V0Z" fill="#484848"/>
<path d="M34 0H46V2H34V0Z" fill="#484848"/>
<path d="M4 0V2H0V0H4Z" fill="#484848"/>
<path d="M32 4H20V10H32V4Z" fill="#484848"/>
<path d="M60 4H48V10H60V4Z" fill="#484848"/>
<path d="M46 4H34V10H46V4Z" fill="#484848"/>
<path d="M46 20H34V26H46V20Z" fill="#484848"/>
<path d="M60 12H48V18H60V12Z" fill="#484848"/>
<path d="M74 12H62V18H74V12Z" fill="#484848"/>
<path d="M32 28H20V34H32V28Z" fill="#484848"/>
<path d="M18 12H6V18H18V12Z" fill="#484848"/>
<path d="M18 28H6V34H18V28Z" fill="#484848"/>
<path d="M32 36H20V42H32V36Z" fill="#484848"/>
<path d="M18 36H6V42H18V36Z" fill="#484848"/>
<path d="M46 36H34V42H46V36Z" fill="#484848"/>
<path d="M60 28H48V34H60V28Z" fill="#484848"/>
<path d="M60 20H48V26H60V20Z" fill="#484848"/>
<path d="M74 28H62V34H74V28Z" fill="#484848"/>
<path d="M74 36H62V42H74V36Z" fill="#484848"/>
<path d="M18 20H6V26H18V20Z" fill="#484848"/>
<path d="M32 12H20V18H32V12Z" fill="#484848"/>
<path d="M18 4H6V10H18V4Z" fill="#484848"/>
<path d="M32 52H20V58H32V52Z" fill="#484848"/>
<path d="M46 44H34V50H46V44Z" fill="#484848"/>
<path d="M60 44H48V50H60V44Z" fill="#484848"/>
<path d="M60 52H48V58H60V52Z" fill="#484848"/>
<path d="M46 52H34V58H46V52Z" fill="#484848"/>
<path d="M46 68H34V74H46V68Z" fill="#484848"/>
<path d="M60 60H48V66H60V60Z" fill="#484848"/>
<path d="M74 60H62V66H74V60Z" fill="#484848"/>
<path d="M74 44H62V50H74V44Z" fill="#484848"/>
<path d="M32 76H20V82H32V76Z" fill="#484848"/>
<path d="M18 60H6V66H18V60Z" fill="#484848"/>
<path d="M18 76H6V82H18V76Z" fill="#484848"/>
<path d="M32 84H20V90H32V84Z" fill="#484848"/>
<path d="M18 84H6V90H18V84Z" fill="#484848"/>
<path d="M46 84H34V90H46V84Z" fill="#484848"/>
<path d="M60 76H48V82H60V76Z" fill="#484848"/>
<path d="M60 68H48V74H60V68Z" fill="#484848"/>
<path d="M74 76H62V82H74V76Z" fill="#484848"/>
<path d="M74 84H62V90H74V84Z" fill="#484848"/>
<path d="M18 68H6V74H18V68Z" fill="#484848"/>
<path d="M32 60H20V66H32V60Z" fill="#484848"/>
<path d="M18 52H6V58H18V52Z" fill="#484848"/>
<path d="M20 100H32V106H20V100Z" fill="#484848"/>
<path d="M34 92H46V98H34V92Z" fill="#484848"/>
<path d="M48 92H60V98H48V92Z" fill="#484848"/>
<path d="M48 100H60V106H48V100Z" fill="#484848"/>
<path d="M34 100H46V106H34V100Z" fill="#484848"/>
<path d="M34 116H46V122H34V116Z" fill="#484848"/>
<path d="M48 108H60V114H48V108Z" fill="#484848"/>
<path d="M62 108H74V114H62V108Z" fill="#484848"/>
<path d="M62 92H74V98H62V92Z" fill="#484848"/>
<path d="M20 124H32V130H20V124Z" fill="#484848"/>
<path d="M6 108H18V114H6V108Z" fill="#484848"/>
<path d="M6 124H18V130H6V124Z" fill="#484848"/>
<path d="M20 132H32V138H20V132Z" fill="#484848"/>
<path d="M6 132H18V138H6V132Z" fill="#484848"/>
<path d="M34 132H46V138H34V132Z" fill="#484848"/>
<path d="M48 124H60V130H48V124Z" fill="#484848"/>
<path d="M48 116H60V122H48V116Z" fill="#484848"/>
<path d="M62 124H74V130H62V124Z" fill="#484848"/>
<path d="M62 132H74V138H62V132Z" fill="#484848"/>
<path d="M6 116H18V122H6V116Z" fill="#484848"/>
<path d="M20 108H32V114H20V108Z" fill="#484848"/>
<path d="M6 100H18V106H6V100Z" fill="#484848"/>
<path d="M116 4H104V10H116V4Z" fill="#484848"/>
<path d="M144 4H132V10H144V4Z" fill="#484848"/>
<path d="M130 4H118V10H130V4Z" fill="#484848"/>
<path d="M130 20H118V26H130V20Z" fill="#484848"/>
<path d="M144 12H132V18H144V12Z" fill="#484848"/>
<path d="M116 28H104V34H116V28Z" fill="#484848"/>
<path d="M102 12H90V18H102V12Z" fill="#484848"/>
<path d="M88 20H76V26H88V20Z" fill="#484848"/>
<path d="M88 28H76V34H88V28Z" fill="#484848"/>
<path d="M102 28H90V34H102V28Z" fill="#484848"/>
<path d="M116 36H104V42H116V36Z" fill="#484848"/>
<path d="M102 36H90V42H102V36Z" fill="#484848"/>
<path d="M130 36H118V42H130V36Z" fill="#484848"/>
<path d="M144 28H132V34H144V28Z" fill="#484848"/>
<path d="M144 20H132V26H144V20Z" fill="#484848"/>
<path d="M102 20H90V26H102V20Z" fill="#484848"/>
<path d="M116 12H104V18H116V12Z" fill="#484848"/>
<path d="M102 4H90V10H102V4Z" fill="#484848"/>
<path d="M88 4H76V10H88V4Z" fill="#484848"/>
<path d="M76 44H88V50H76V44Z" fill="#484848"/>
<path d="M104 52H116V58H104V52Z" fill="#484848"/>
<path d="M118 44H130V50H118V44Z" fill="#484848"/>
<path d="M132 44H144V50H132V44Z" fill="#484848"/>
<path d="M132 52H144V58H132V52Z" fill="#484848"/>
<path d="M118 52H130V58H118V52Z" fill="#484848"/>
<path d="M118 68H130V74H118V68Z" fill="#484848"/>
<path d="M132 60H144V66H132V60Z" fill="#484848"/>
<path d="M104 76H116V82H104V76Z" fill="#484848"/>
<path d="M90 60H102V66H90V60Z" fill="#484848"/>
<path d="M76 68H88V74H76V68Z" fill="#484848"/>
<path d="M76 76H88V82H76V76Z" fill="#484848"/>
<path d="M90 76H102V82H90V76Z" fill="#484848"/>
<path d="M104 84H116V90H104V84Z" fill="#484848"/>
<path d="M90 84H102V90H90V84Z" fill="#484848"/>
<path d="M118 84H130V90H118V84Z" fill="#484848"/>
<path d="M132 76H144V82H132V76Z" fill="#484848"/>
<path d="M132 68H144V74H132V68Z" fill="#484848"/>
<path d="M90 68H102V74H90V68Z" fill="#484848"/>
<path d="M104 60H116V66H104V60Z" fill="#484848"/>
<path d="M90 52H102V58H90V52Z" fill="#484848"/>
<path d="M76 52H88V58H76V52Z" fill="#484848"/>
<path d="M88 92H76V98H88V92Z" fill="#484848"/>
<path d="M116 100H104V106H116V100Z" fill="#484848"/>
<path d="M130 92H118V98H130V92Z" fill="#484848"/>
<path d="M144 92H132V98H144V92Z" fill="#484848"/>
<path d="M144 100H132V106H144V100Z" fill="#484848"/>
<path d="M130 100H118V106H130V100Z" fill="#484848"/>
<path d="M130 116H118V122H130V116Z" fill="#484848"/>
<path d="M144 108H132V114H144V108Z" fill="#484848"/>
<path d="M116 124H104V130H116V124Z" fill="#484848"/>
<path d="M102 108H90V114H102V108Z" fill="#484848"/>
<path d="M88 116H76V122H88V116Z" fill="#484848"/>
<path d="M88 124H76V130H88V124Z" fill="#484848"/>
<path d="M102 124H90V130H102V124Z" fill="#484848"/>
<path d="M116 132H104V138H116V132Z" fill="#484848"/>
<path d="M102 132H90V138H102V132Z" fill="#484848"/>
<path d="M130 132H118V138H130V132Z" fill="#484848"/>
<path d="M144 124H132V130H144V124Z" fill="#484848"/>
<path d="M144 116H132V122H144V116Z" fill="#484848"/>
<path d="M102 116H90V122H102V116Z" fill="#484848"/>
<path d="M116 108H104V114H116V108Z" fill="#484848"/>
<path d="M102 100H90V106H102V100Z" fill="#484848"/>
<path d="M88 100H76V106H88V100Z" fill="#484848"/>
<path d="M46 140H34V146H46V140Z" fill="#484848"/>
<path d="M48 140H60V146H48V140Z" fill="#484848"/>
<path d="M74 140H62V146H74V140Z" fill="#484848"/>
<path d="M76 140H88V146H76V140Z" fill="#484848"/>
<path d="M118 140H130V146H118V140Z" fill="#484848"/>
<path d="M144 140H132V146H144V140Z" fill="#484848"/>
</g>
<path d="M147.502 52.5781C147.866 53.4553 148.102 54.0225 147.495 52.5619C146.088 49.1741 146.926 51.1911 147.487 52.5418C143.537 43.0718 130.019 39.1889 122.756 47.4538C119.725 50.9027 118.659 55.3825 116.731 59.4359C114.457 64.2149 107.233 68.8288 101.923 66.1562C105.418 63.6585 108.813 61.9975 111.459 58.4452C114.05 54.9658 116.139 49.6853 113.629 45.6161C111.508 42.1787 106.728 40.4174 102.854 41.2832C98.381 42.28 96.7724 45.9979 95.5654 49.9644C94.1203 54.7068 92.5142 57.0561 87.2172 56.2727C83.6566 55.7464 77.3674 53.6022 77.6592 49.081C77.9573 44.3951 81.2901 39.8823 83.7076 36.0274C86.6051 31.4072 89.9178 27.1135 90.9911 21.6383C92.9184 11.7942 88.0976 2.50164 77.5887 1.13661C67.2835 -0.202188 61.3582 8.43629 62.4789 18.0335C63.0278 22.7472 65.5524 26.584 66.6725 31.0911C68.0627 36.6934 67.175 42.552 65.9012 48.0792C64.9551 52.1707 62.1833 56.5808 57.8785 57.8604C53.1536 59.2645 50.8285 55.116 50.2461 51.2336C49.3248 45.0823 46.4707 39.1846 39.2239 40.8927C34.8501 41.9258 31.5897 45.2708 30.4284 49.6056C29.1295 54.459 31.491 58.3956 34.4685 62.0338C35.9845 63.8866 40.0282 67.584 39.6043 70.3185C38.8905 74.9283 29.7545 69.475 28.2796 68.3618C24.2384 65.3116 20.1613 62.5999 14.8205 63.2397C9.88259 63.8309 5.19515 67.4497 2.94897 71.8343C-1.90407 81.3011 5.15815 91.5762 13.9863 95.2701C23.8723 99.4065 32.6542 92.7099 42.6742 92.7099C44.642 92.7099 50.8015 92.8719 49.7666 96.3204C48.404 100.861 43.2988 103.134 39.2627 104.649C35.0684 106.225 31.0607 108.141 29.1302 112.49C27.1912 116.859 28.5863 121.845 31.7561 125.224C37.8717 131.748 48.7022 133.9 55.2228 126.767C58.1382 123.577 59.324 119.506 60.6361 115.496C60.9742 114.46 61.7378 110.966 63.4862 111.704C66.1555 112.833 63.9525 116.165 62.9636 117.631C57.7754 125.339 61.9904 136.158 72.3621 133.715C75.9787 132.862 78.6186 130.168 79.129 126.452C79.7455 121.97 77.1734 116.106 82.362 113.462C86.5788 111.317 85.9599 120.062 85.799 122.071C85.3827 127.261 85.5993 132.524 87.2226 137.508C90.2942 146.945 100.97 153.287 109.362 145.504C116.76 138.644 116.14 127.119 108.306 120.973C104.893 118.293 89.9211 112.092 98.0401 106.627C106.327 101.047 122.953 114.198 126.749 100.701C127.837 96.8265 125.93 92.6884 122.316 90.9734C119.779 89.7708 116.869 89.8143 114.15 90.2112C112.646 90.4321 108.935 91.9297 108.183 89.9234C104.966 81.3277 120.319 73.5417 126.786 73.074C132.789 72.6408 138.675 73.6534 143.647 69.3676C148.467 65.2124 149.912 58.4039 147.502 52.5781Z" stroke="#E2E2E2" stroke-width="2"/>
</svg>
