<svg width="150" height="150" viewBox="0 0 150 150" fill="none" xmlns="http://www.w3.org/2000/svg">
<mask id="mask0_1471_16795" style="mask-type:alpha" maskUnits="userSpaceOnUse" x="1" y="0" width="148" height="149">
<path d="M147.502 52.5781C147.866 53.4553 148.102 54.0225 147.495 52.5619C146.088 49.1741 146.926 51.1911 147.487 52.5418C143.537 43.0718 130.019 39.1889 122.756 47.4538C119.725 50.9027 118.659 55.3825 116.731 59.4359C114.457 64.2149 107.233 68.8288 101.923 66.1562C105.418 63.6585 108.813 61.9975 111.459 58.4452C114.05 54.9658 116.139 49.6853 113.629 45.6161C111.508 42.1787 106.728 40.4174 102.854 41.2832C98.381 42.28 96.7724 45.9979 95.5654 49.9644C94.1203 54.7068 92.5142 57.0561 87.2172 56.2727C83.6566 55.7464 77.3674 53.6022 77.6592 49.081C77.9573 44.3951 81.2901 39.8823 83.7076 36.0274C86.6051 31.4072 89.9178 27.1135 90.9911 21.6383C92.9184 11.7942 88.0976 2.50164 77.5887 1.13661C67.2835 -0.202188 61.3582 8.43629 62.4789 18.0335C63.0278 22.7472 65.5524 26.584 66.6725 31.0911C68.0627 36.6934 67.175 42.552 65.9012 48.0792C64.9551 52.1707 62.1833 56.5808 57.8785 57.8604C53.1536 59.2645 50.8285 55.116 50.2461 51.2336C49.3248 45.0823 46.4707 39.1846 39.2239 40.8927C34.8501 41.9258 31.5897 45.2708 30.4284 49.6056C29.1295 54.459 31.491 58.3956 34.4685 62.0338C35.9845 63.8866 40.0282 67.584 39.6043 70.3185C38.8905 74.9283 29.7545 69.475 28.2796 68.3618C24.2384 65.3116 20.1613 62.5999 14.8205 63.2397C9.88259 63.8309 5.19515 67.4497 2.94897 71.8343C-1.90407 81.3011 5.15815 91.5762 13.9863 95.2701C23.8723 99.4065 32.6542 92.7099 42.6742 92.7099C44.642 92.7099 50.8015 92.8719 49.7666 96.3204C48.404 100.861 43.2988 103.134 39.2627 104.649C35.0684 106.225 31.0607 108.141 29.1302 112.49C27.1912 116.859 28.5863 121.845 31.7561 125.224C37.8717 131.748 48.7022 133.9 55.2228 126.767C58.1382 123.577 59.324 119.506 60.6361 115.496C60.9742 114.46 61.7378 110.966 63.4862 111.704C66.1555 112.833 63.9525 116.165 62.9636 117.631C57.7754 125.339 61.9904 136.158 72.3621 133.715C75.9787 132.862 78.6186 130.168 79.129 126.452C79.7455 121.97 77.1734 116.106 82.362 113.462C86.5788 111.317 85.9599 120.062 85.799 122.071C85.3827 127.261 85.5993 132.524 87.2226 137.508C90.2942 146.945 100.97 153.287 109.362 145.504C116.76 138.644 116.14 127.119 108.306 120.973C104.893 118.293 89.9211 112.092 98.0401 106.627C106.327 101.047 122.953 114.198 126.749 100.701C127.837 96.8265 125.93 92.6884 122.316 90.9734C119.779 89.7708 116.869 89.8143 114.15 90.2112C112.646 90.4321 108.935 91.9297 108.183 89.9234C104.966 81.3277 120.319 73.5417 126.786 73.074C132.789 72.6408 138.675 73.6534 143.647 69.3676C148.467 65.2124 149.912 58.4039 147.502 52.5781Z" fill="black"/>
</mask>
<g mask="url(#mask0_1471_16795)">
<path d="M150 0H0V150H150V0Z" fill="#22C55E"/>
<path d="M68.6641 0H76.5108L149.997 73.67V81.5363L68.6641 0Z" fill="#0B8F40"/>
<path d="M47.9766 0H55.8233L149.996 94.4084V102.275L47.9766 0Z" fill="#0B8F40"/>
<path d="M27.2969 0H35.1435L150.003 115.147V123.013L27.2969 0Z" fill="#0B8F40"/>
<path d="M6.60938 0H14.4561L150.002 135.885V143.751L6.60938 0Z" fill="#0B8F40"/>
<path d="M0 14.1153V6.24902L143.393 150H135.546L0 14.1153Z" fill="#0B8F40"/>
<path d="M0 34.8535V26.9873L122.706 150H114.86L0 34.8535Z" fill="#0B8F40"/>
<path d="M0 55.5919V47.7256L102.02 150H94.173L0 55.5919Z" fill="#0B8F40"/>
<path d="M0 76.3302V68.4639L81.333 150H73.4863L0 76.3302Z" fill="#0B8F40"/>
<path d="M0 97.0683V89.2021L60.6464 150H52.7997L0 97.0683Z" fill="#0B8F40"/>
<path d="M0 117.807V109.94L39.9597 150H32.113L0 117.807Z" fill="#0B8F40"/>
<path d="M0 138.545V130.679L19.273 150H11.4264L0 138.545Z" fill="#0B8F40"/>
<path d="M149.998 60.7979L89.3516 0H97.1982L149.998 52.9316V60.7979Z" fill="#0B8F40"/>
<path d="M149.999 40.0595L110.039 0H117.886L149.999 32.1933V40.0595Z" fill="#0B8F40"/>
<path d="M150 19.3212L130.727 0H138.574L150 11.4549V19.3212Z" fill="#0B8F40"/>
</g>
<path d="M147.502 52.5781C147.866 53.4553 148.102 54.0225 147.495 52.5619C146.088 49.1741 146.926 51.1911 147.487 52.5418C143.537 43.0718 130.019 39.1889 122.756 47.4538C119.725 50.9027 118.659 55.3825 116.731 59.4359C114.457 64.2149 107.233 68.8288 101.923 66.1562C105.418 63.6585 108.813 61.9975 111.459 58.4452C114.05 54.9658 116.139 49.6853 113.629 45.6161C111.508 42.1787 106.728 40.4174 102.854 41.2832C98.381 42.28 96.7724 45.9979 95.5654 49.9644C94.1203 54.7068 92.5142 57.0561 87.2172 56.2727C83.6566 55.7464 77.3674 53.6022 77.6592 49.081C77.9573 44.3951 81.2901 39.8823 83.7076 36.0274C86.6051 31.4072 89.9178 27.1135 90.9911 21.6383C92.9184 11.7942 88.0976 2.50164 77.5887 1.13661C67.2835 -0.202188 61.3582 8.43629 62.4789 18.0335C63.0278 22.7472 65.5524 26.584 66.6725 31.0911C68.0627 36.6934 67.175 42.552 65.9012 48.0792C64.9551 52.1707 62.1833 56.5808 57.8785 57.8604C53.1536 59.2645 50.8285 55.116 50.2461 51.2336C49.3248 45.0823 46.4707 39.1846 39.2239 40.8927C34.8501 41.9258 31.5897 45.2708 30.4284 49.6056C29.1295 54.459 31.491 58.3956 34.4685 62.0338C35.9845 63.8866 40.0282 67.584 39.6043 70.3185C38.8905 74.9283 29.7545 69.475 28.2796 68.3618C24.2384 65.3116 20.1613 62.5999 14.8205 63.2397C9.88259 63.8309 5.19515 67.4497 2.94897 71.8343C-1.90407 81.3011 5.15815 91.5762 13.9863 95.2701C23.8723 99.4065 32.6542 92.7099 42.6742 92.7099C44.642 92.7099 50.8015 92.8719 49.7666 96.3204C48.404 100.861 43.2988 103.134 39.2627 104.649C35.0684 106.225 31.0607 108.141 29.1302 112.49C27.1912 116.859 28.5863 121.845 31.7561 125.224C37.8717 131.748 48.7022 133.9 55.2228 126.767C58.1382 123.577 59.324 119.506 60.6361 115.496C60.9742 114.46 61.7378 110.966 63.4862 111.704C66.1555 112.833 63.9525 116.165 62.9636 117.631C57.7754 125.339 61.9904 136.158 72.3621 133.715C75.9787 132.862 78.6186 130.168 79.129 126.452C79.7455 121.97 77.1734 116.106 82.362 113.462C86.5788 111.317 85.9599 120.062 85.799 122.071C85.3827 127.261 85.5993 132.524 87.2226 137.508C90.2942 146.945 100.97 153.287 109.362 145.504C116.76 138.644 116.14 127.119 108.306 120.973C104.893 118.293 89.9211 112.092 98.0401 106.627C106.327 101.047 122.953 114.198 126.749 100.701C127.837 96.8265 125.93 92.6884 122.316 90.9734C119.779 89.7708 116.869 89.8143 114.15 90.2112C112.646 90.4321 108.935 91.9297 108.183 89.9234C104.966 81.3277 120.319 73.5417 126.786 73.074C132.789 72.6408 138.675 73.6534 143.647 69.3676C148.467 65.2124 149.912 58.4039 147.502 52.5781Z" stroke="#15853E" stroke-width="2"/>
</svg>
