<svg width="150" height="150" viewBox="0 0 150 150" fill="none" xmlns="http://www.w3.org/2000/svg">
<mask id="mask0_1471_16681" style="mask-type:alpha" maskUnits="userSpaceOnUse" x="1" y="0" width="148" height="149">
<path d="M147.502 52.5781C147.866 53.4553 148.102 54.0224 147.495 52.5619C146.088 49.1741 146.926 51.1911 147.487 52.5417C143.537 43.0717 130.019 39.1889 122.755 47.4538C119.724 50.9027 118.659 55.3825 116.731 59.4359C114.457 64.2149 107.233 68.8287 101.923 66.1562C105.418 63.6585 108.813 61.9975 111.459 58.4452C114.05 54.9658 116.139 49.6853 113.629 45.616C111.508 42.1787 106.728 40.4174 102.853 41.2832C98.3809 42.28 96.7723 45.9979 95.5654 49.9644C94.1203 54.7068 92.5142 57.056 87.2172 56.2726C83.6566 55.7463 77.3674 53.6022 77.6591 49.081C77.9572 44.395 81.2901 39.8822 83.7076 36.0274C86.605 31.4072 89.9178 27.1135 90.9911 21.6383C92.9183 11.7942 88.0976 2.50164 77.5887 1.13661C67.2835 -0.202188 61.3581 8.43628 62.4789 18.0335C63.0278 22.7472 65.5523 26.5839 66.6724 31.091C68.0626 36.6934 67.1749 42.5519 65.9011 48.0792C64.955 52.1707 62.1833 56.5808 57.8785 57.8604C53.1536 59.2645 50.8284 55.116 50.2461 51.2335C49.3248 45.0823 46.4707 39.1846 39.2239 40.8927C34.8501 41.9258 31.5897 45.2708 30.4284 49.6055C29.1295 54.4589 31.491 58.3955 34.4685 62.0338C35.9844 63.8865 40.0282 67.584 39.6043 70.3184C38.8905 74.9282 29.7545 69.4749 28.2796 68.3618C24.2384 65.3116 20.1613 62.5998 14.8204 63.2397C9.88258 63.8309 5.19515 67.4497 2.94897 71.8342C-1.90407 81.3011 5.15815 91.5761 13.9863 95.27C23.8723 99.4064 32.6541 92.7098 42.6741 92.7098C44.6419 92.7098 50.8015 92.8718 49.7666 96.3203C48.404 100.86 43.2988 103.134 39.2626 104.649C35.0684 106.225 31.0607 108.141 29.1302 112.49C27.1912 116.859 28.5863 121.845 31.7561 125.224C37.8717 131.748 48.7022 133.9 55.2227 126.767C58.1381 123.576 59.3239 119.505 60.6361 115.496C60.9741 114.46 61.7378 110.966 63.4862 111.704C66.1555 112.833 63.9525 116.165 62.9635 117.631C57.7753 125.339 61.9904 136.157 72.362 133.714C75.9786 132.862 78.6186 130.168 79.129 126.452C79.7454 121.97 77.1734 116.105 82.362 113.462C86.5788 111.317 85.9599 120.062 85.7989 122.071C85.3827 127.261 85.5992 132.524 87.2226 137.508C90.2942 146.945 100.97 153.287 109.362 145.504C116.76 138.644 116.14 127.119 108.306 120.973C104.893 118.293 89.921 112.092 98.04 106.627C106.327 101.047 122.953 114.198 126.749 100.701C127.837 96.8265 125.93 92.6883 122.315 90.9734C119.779 89.7707 116.869 89.8142 114.15 90.2112C112.646 90.4321 108.935 91.9297 108.182 89.9234C104.966 81.3276 120.318 73.5416 126.786 73.074C132.789 72.6407 138.675 73.6533 143.647 69.3676C148.467 65.2124 149.912 58.4038 147.502 52.5781Z" fill="black"/>
</mask>
<g mask="url(#mask0_1471_16681)">
<path d="M150 0H0V150H150V0Z" fill="#F44336"/>
<path d="M0.499997 5C2.98528 5 5 2.98528 5 0.499997C5 0.330994 4.99068 0.164166 4.97253 0H0V4.97253C0.164166 4.99068 0.330994 5 0.499997 5Z" fill="#FF8ECB"/>
<path d="M0 34.9725V26.0275C0.164166 26.0093 0.330994 26 0.499997 26C2.98528 26 5 28.0147 5 30.5C5 32.9853 2.98528 35 0.499997 35C0.330994 35 0.164166 34.9907 0 34.9725Z" fill="#FF8ECB"/>
<path d="M0 64.9725V56.0275C0.164166 56.0093 0.330994 56 0.499997 56C2.98528 56 5 58.0147 5 60.5C5 62.9853 2.98528 65 0.499997 65C0.330994 65 0.164166 64.9907 0 64.9725Z" fill="#FF8ECB"/>
<path d="M0 94.9725V86.0275C0.164166 86.0093 0.330994 86 0.499997 86C2.98528 86 5 88.0147 5 90.5C5 92.9853 2.98528 95 0.499997 95C0.330994 95 0.164166 94.9907 0 94.9725Z" fill="#FF8ECB"/>
<path d="M0 124.973V116.027C0.164166 116.009 0.330994 116 0.499997 116C2.98528 116 5 118.015 5 120.5C5 122.985 2.98528 125 0.499997 125C0.330994 125 0.164166 124.991 0 124.973Z" fill="#FF8ECB"/>
<path d="M4.97253 150H0V146.027C0.164166 146.009 0.330994 146 0.499997 146C2.81628 146 4.72382 147.75 4.97253 150Z" fill="#FF8ECB"/>
<path d="M34.9762 150H26.0312C26.2799 147.75 28.1874 146 30.5037 146C32.82 146 34.7275 147.75 34.9762 150Z" fill="#FF8ECB"/>
<path d="M64.9763 150H56.0312C56.2799 147.75 58.1874 146 60.5037 146C62.82 146 64.7276 147.75 64.9763 150Z" fill="#FF8ECB"/>
<path d="M94.9763 150H86.0312C86.2799 147.75 88.1875 146 90.5038 146C92.8201 146 94.7276 147.75 94.9763 150Z" fill="#FF8ECB"/>
<path d="M124.969 150H116.023C116.272 147.75 118.18 146 120.496 146C122.812 146 124.72 147.75 124.969 150Z" fill="#FF8ECB"/>
<path d="M149.996 146.027V150H146.023C146.254 147.914 147.91 146.258 149.996 146.027Z" fill="#FF8ECB"/>
<path d="M150 116.027V124.973C147.75 124.724 146 122.816 146 120.5C146 118.184 147.75 116.276 150 116.027Z" fill="#FF8ECB"/>
<path d="M150 86.0273V94.9724C147.75 94.7237 146 92.8161 146 90.4998C146 88.1835 147.75 86.276 150 86.0273Z" fill="#FF8ECB"/>
<path d="M150 56.0273V64.9723C147.75 64.7236 146 62.8161 146 60.4998C146 58.1835 147.75 56.276 150 56.0273Z" fill="#FF8ECB"/>
<path d="M150 26.0273V34.9723C147.75 34.7236 146 32.8161 146 30.4998C146 28.1835 147.75 26.276 150 26.0273Z" fill="#FF8ECB"/>
<path d="M146.027 0H150V4.97253C147.75 4.72382 146 2.81628 146 0.499997C146 0.330994 146.009 0.164166 146.027 0Z" fill="#FF8ECB"/>
<path d="M116.027 0H124.973C124.991 0.164166 125 0.330994 125 0.499997C125 2.98528 122.985 5 120.5 5C118.015 5 116 2.98528 116 0.499997C116 0.330994 116.009 0.164166 116.027 0Z" fill="#FF8ECB"/>
<path d="M86.0275 0H94.9725C94.9907 0.164166 95 0.330994 95 0.499997C95 2.98528 92.9853 5 90.5 5C88.0147 5 86 2.98528 86 0.499997C86 0.330994 86.0093 0.164166 86.0275 0Z" fill="#FF8ECB"/>
<path d="M56.0275 0H64.9725C64.9907 0.164166 65 0.330994 65 0.499997C65 2.98528 62.9853 5 60.5 5C58.0147 5 56 2.98528 56 0.499997C56 0.330994 56.0093 0.164166 56.0275 0Z" fill="#FF8ECB"/>
<path d="M26.0275 0H34.9725C34.9907 0.164166 35 0.330994 35 0.499997C35 2.98528 32.9853 5 30.5 5C28.0147 5 26 2.98528 26 0.499997C26 0.330994 26.0093 0.164166 26.0275 0Z" fill="#FF8ECB"/>
<path d="M20 15.5C20 17.9853 17.9853 20 15.5 20C13.0147 20 11 17.9853 11 15.5C11 13.0147 13.0147 11 15.5 11C17.9853 11 20 13.0147 20 15.5Z" fill="#FF8ECB"/>
<path d="M50 15.5C50 17.9853 47.9853 20 45.5 20C43.0147 20 41 17.9853 41 15.5C41 13.0147 43.0147 11 45.5 11C47.9853 11 50 13.0147 50 15.5Z" fill="#FF8ECB"/>
<path d="M80 15.5C80 17.9853 77.9853 20 75.5 20C73.0147 20 71 17.9853 71 15.5C71 13.0147 73.0147 11 75.5 11C77.9853 11 80 13.0147 80 15.5Z" fill="#FF8ECB"/>
<path d="M110 15.5C110 17.9853 107.985 20 105.5 20C103.015 20 101 17.9853 101 15.5C101 13.0147 103.015 11 105.5 11C107.985 11 110 13.0147 110 15.5Z" fill="#FF8ECB"/>
<path d="M140 15.5C140 17.9853 137.985 20 135.5 20C133.015 20 131 17.9853 131 15.5C131 13.0147 133.015 11 135.5 11C137.985 11 140 13.0147 140 15.5Z" fill="#FF8ECB"/>
<path d="M15.5 50C17.9853 50 20 47.9853 20 45.5C20 43.0147 17.9853 41 15.5 41C13.0147 41 11 43.0147 11 45.5C11 47.9853 13.0147 50 15.5 50Z" fill="#FF8ECB"/>
<path d="M35 30.5C35 32.9853 32.9853 35 30.5 35C28.0147 35 26 32.9853 26 30.5C26 28.0147 28.0147 26 30.5 26C32.9853 26 35 28.0147 35 30.5Z" fill="#FF8ECB"/>
<path d="M45.5 50C47.9853 50 50 47.9853 50 45.5C50 43.0147 47.9853 41 45.5 41C43.0147 41 41 43.0147 41 45.5C41 47.9853 43.0147 50 45.5 50Z" fill="#FF8ECB"/>
<path d="M65 30.5C65 32.9853 62.9853 35 60.5 35C58.0147 35 56 32.9853 56 30.5C56 28.0147 58.0147 26 60.5 26C62.9853 26 65 28.0147 65 30.5Z" fill="#FF8ECB"/>
<path d="M75.5 50C77.9853 50 80 47.9853 80 45.5C80 43.0147 77.9853 41 75.5 41C73.0147 41 71 43.0147 71 45.5C71 47.9853 73.0147 50 75.5 50Z" fill="#FF8ECB"/>
<path d="M95 30.5C95 32.9853 92.9853 35 90.5 35C88.0147 35 86 32.9853 86 30.5C86 28.0147 88.0147 26 90.5 26C92.9853 26 95 28.0147 95 30.5Z" fill="#FF8ECB"/>
<path d="M105.5 50C107.985 50 110 47.9853 110 45.5C110 43.0147 107.985 41 105.5 41C103.015 41 101 43.0147 101 45.5C101 47.9853 103.015 50 105.5 50Z" fill="#FF8ECB"/>
<path d="M125 30.5C125 32.9853 122.985 35 120.5 35C118.015 35 116 32.9853 116 30.5C116 28.0147 118.015 26 120.5 26C122.985 26 125 28.0147 125 30.5Z" fill="#FF8ECB"/>
<path d="M135.5 50C137.985 50 140 47.9853 140 45.5C140 43.0147 137.985 41 135.5 41C133.015 41 131 43.0147 131 45.5C131 47.9853 133.015 50 135.5 50Z" fill="#FF8ECB"/>
<path d="M20 75.5C20 77.9853 17.9853 80 15.5 80C13.0147 80 11 77.9853 11 75.5C11 73.0147 13.0147 71 15.5 71C17.9853 71 20 73.0147 20 75.5Z" fill="#FF8ECB"/>
<path d="M30.5 65C32.9853 65 35 62.9853 35 60.5C35 58.0147 32.9853 56 30.5 56C28.0147 56 26 58.0147 26 60.5C26 62.9853 28.0147 65 30.5 65Z" fill="#FF8ECB"/>
<path d="M50 75.5C50 77.9853 47.9853 80 45.5 80C43.0147 80 41 77.9853 41 75.5C41 73.0147 43.0147 71 45.5 71C47.9853 71 50 73.0147 50 75.5Z" fill="#FF8ECB"/>
<path d="M60.5 65C62.9853 65 65 62.9853 65 60.5C65 58.0147 62.9853 56 60.5 56C58.0147 56 56 58.0147 56 60.5C56 62.9853 58.0147 65 60.5 65Z" fill="#FF8ECB"/>
<path d="M80 75.5C80 77.9853 77.9853 80 75.5 80C73.0147 80 71 77.9853 71 75.5C71 73.0147 73.0147 71 75.5 71C77.9853 71 80 73.0147 80 75.5Z" fill="#FF8ECB"/>
<path d="M90.5 65C92.9853 65 95 62.9853 95 60.5C95 58.0147 92.9853 56 90.5 56C88.0147 56 86 58.0147 86 60.5C86 62.9853 88.0147 65 90.5 65Z" fill="#FF8ECB"/>
<path d="M110 75.5C110 77.9853 107.985 80 105.5 80C103.015 80 101 77.9853 101 75.5C101 73.0147 103.015 71 105.5 71C107.985 71 110 73.0147 110 75.5Z" fill="#FF8ECB"/>
<path d="M120.5 65C122.985 65 125 62.9853 125 60.5C125 58.0147 122.985 56 120.5 56C118.015 56 116 58.0147 116 60.5C116 62.9853 118.015 65 120.5 65Z" fill="#FF8ECB"/>
<path d="M140 75.5C140 77.9853 137.985 80 135.5 80C133.015 80 131 77.9853 131 75.5C131 73.0147 133.015 71 135.5 71C137.985 71 140 73.0147 140 75.5Z" fill="#FF8ECB"/>
<path d="M15.5 110C17.9853 110 20 107.985 20 105.5C20 103.015 17.9853 101 15.5 101C13.0147 101 11 103.015 11 105.5C11 107.985 13.0147 110 15.5 110Z" fill="#FF8ECB"/>
<path d="M35 90.5C35 92.9853 32.9853 95 30.5 95C28.0147 95 26 92.9853 26 90.5C26 88.0147 28.0147 86 30.5 86C32.9853 86 35 88.0147 35 90.5Z" fill="#FF8ECB"/>
<path d="M45.5 110C47.9853 110 50 107.985 50 105.5C50 103.015 47.9853 101 45.5 101C43.0147 101 41 103.015 41 105.5C41 107.985 43.0147 110 45.5 110Z" fill="#FF8ECB"/>
<path d="M65 90.5C65 92.9853 62.9853 95 60.5 95C58.0147 95 56 92.9853 56 90.5C56 88.0147 58.0147 86 60.5 86C62.9853 86 65 88.0147 65 90.5Z" fill="#FF8ECB"/>
<path d="M75.5 110C77.9853 110 80 107.985 80 105.5C80 103.015 77.9853 101 75.5 101C73.0147 101 71 103.015 71 105.5C71 107.985 73.0147 110 75.5 110Z" fill="#FF8ECB"/>
<path d="M95 90.5C95 92.9853 92.9853 95 90.5 95C88.0147 95 86 92.9853 86 90.5C86 88.0147 88.0147 86 90.5 86C92.9853 86 95 88.0147 95 90.5Z" fill="#FF8ECB"/>
<path d="M105.5 110C107.985 110 110 107.985 110 105.5C110 103.015 107.985 101 105.5 101C103.015 101 101 103.015 101 105.5C101 107.985 103.015 110 105.5 110Z" fill="#FF8ECB"/>
<path d="M125 90.5C125 92.9853 122.985 95 120.5 95C118.015 95 116 92.9853 116 90.5C116 88.0147 118.015 86 120.5 86C122.985 86 125 88.0147 125 90.5Z" fill="#FF8ECB"/>
<path d="M135.5 110C137.985 110 140 107.985 140 105.5C140 103.015 137.985 101 135.5 101C133.015 101 131 103.015 131 105.5C131 107.985 133.015 110 135.5 110Z" fill="#FF8ECB"/>
<path d="M20 135.5C20 137.985 17.9853 140 15.5 140C13.0147 140 11 137.985 11 135.5C11 133.015 13.0147 131 15.5 131C17.9853 131 20 133.015 20 135.5Z" fill="#FF8ECB"/>
<path d="M30.5 125C32.9853 125 35 122.985 35 120.5C35 118.015 32.9853 116 30.5 116C28.0147 116 26 118.015 26 120.5C26 122.985 28.0147 125 30.5 125Z" fill="#FF8ECB"/>
<path d="M50 135.5C50 137.985 47.9853 140 45.5 140C43.0147 140 41 137.985 41 135.5C41 133.015 43.0147 131 45.5 131C47.9853 131 50 133.015 50 135.5Z" fill="#FF8ECB"/>
<path d="M60.5 125C62.9853 125 65 122.985 65 120.5C65 118.015 62.9853 116 60.5 116C58.0147 116 56 118.015 56 120.5C56 122.985 58.0147 125 60.5 125Z" fill="#FF8ECB"/>
<path d="M80 135.5C80 137.985 77.9853 140 75.5 140C73.0147 140 71 137.985 71 135.5C71 133.015 73.0147 131 75.5 131C77.9853 131 80 133.015 80 135.5Z" fill="#FF8ECB"/>
<path d="M90.5 125C92.9853 125 95 122.985 95 120.5C95 118.015 92.9853 116 90.5 116C88.0147 116 86 118.015 86 120.5C86 122.985 88.0147 125 90.5 125Z" fill="#FF8ECB"/>
<path d="M110 135.5C110 137.985 107.985 140 105.5 140C103.015 140 101 137.985 101 135.5C101 133.015 103.015 131 105.5 131C107.985 131 110 133.015 110 135.5Z" fill="#FF8ECB"/>
<path d="M120.5 125C122.985 125 125 122.985 125 120.5C125 118.015 122.985 116 120.5 116C118.015 116 116 118.015 116 120.5C116 122.985 118.015 125 120.5 125Z" fill="#FF8ECB"/>
<path d="M140 135.5C140 137.985 137.985 140 135.5 140C133.015 140 131 137.985 131 135.5C131 133.015 133.015 131 135.5 131C137.985 131 140 133.015 140 135.5Z" fill="#FF8ECB"/>
</g>
<path d="M147.502 52.5781C147.866 53.4553 148.102 54.0224 147.495 52.5619C146.088 49.1741 146.926 51.1911 147.487 52.5417C143.537 43.0717 130.019 39.1889 122.755 47.4538C119.724 50.9027 118.659 55.3825 116.731 59.4359C114.457 64.2149 107.233 68.8287 101.923 66.1562C105.418 63.6585 108.813 61.9975 111.459 58.4452C114.05 54.9658 116.139 49.6853 113.629 45.616C111.507 42.1787 106.728 40.4174 102.853 41.2832C98.3809 42.28 96.7723 45.9979 95.5653 49.9644C94.1203 54.7068 92.5142 57.056 87.2172 56.2726C83.6566 55.7463 77.3674 53.6022 77.6591 49.081C77.9572 44.395 81.2901 39.8822 83.7076 36.0274C86.605 31.4072 89.9178 27.1135 90.9911 21.6383C92.9183 11.7942 88.0976 2.50164 77.5887 1.13661C67.2834 -0.202188 61.3581 8.43628 62.4789 18.0335C63.0278 22.7472 65.5523 26.5839 66.6724 31.091C68.0626 36.6934 67.1749 42.5519 65.9011 48.0792C64.955 52.1707 62.1833 56.5808 57.8784 57.8604C53.1536 59.2645 50.8284 55.116 50.2461 51.2335C49.3247 45.0823 46.4707 39.1846 39.2238 40.8927C34.8501 41.9258 31.5897 45.2708 30.4284 49.6055C29.1295 54.4589 31.491 58.3955 34.4685 62.0338C35.9844 63.8865 40.0282 67.584 39.6043 70.3184C38.8905 74.9282 29.7545 69.4749 28.2796 68.3618C24.2384 65.3116 20.1613 62.5998 14.8204 63.2397C9.88258 63.8309 5.19515 67.4497 2.94897 71.8342C-1.90407 81.3011 5.15815 91.5761 13.9863 95.27C23.8723 99.4064 32.6541 92.7098 42.6741 92.7098C44.6419 92.7098 50.8015 92.8718 49.7666 96.3203C48.404 100.86 43.2988 103.134 39.2626 104.649C35.0684 106.225 31.0607 108.141 29.1302 112.49C27.1912 116.859 28.5863 121.845 31.7561 125.224C37.8717 131.748 48.7022 133.9 55.2227 126.767C58.1381 123.576 59.3239 119.505 60.6361 115.496C60.9741 114.46 61.7378 110.966 63.4862 111.704C66.1555 112.833 63.9525 116.165 62.9635 117.631C57.7753 125.339 61.9904 136.157 72.362 133.714C75.9786 132.862 78.6186 130.168 79.129 126.452C79.7454 121.97 77.1734 116.105 82.362 113.462C86.5788 111.317 85.9599 120.062 85.7989 122.071C85.3827 127.261 85.5992 132.524 87.2226 137.508C90.2942 146.945 100.97 153.287 109.361 145.504C116.76 138.644 116.14 127.119 108.306 120.973C104.893 118.293 89.921 112.092 98.04 106.627C106.327 101.047 122.953 114.198 126.749 100.701C127.837 96.8265 125.93 92.6883 122.315 90.9734C119.779 89.7707 116.869 89.8142 114.15 90.2112C112.646 90.4321 108.935 91.9296 108.182 89.9234C104.966 81.3276 120.318 73.5416 126.786 73.074C132.789 72.6407 138.675 73.6533 143.647 69.3676C148.467 65.2124 149.911 58.4038 147.502 52.5781Z" stroke="#C62C21" stroke-width="2"/>
</svg>
