<svg width="150" height="150" viewBox="0 0 150 150" fill="none" xmlns="http://www.w3.org/2000/svg">
<mask id="mask0_1471_16765" style="mask-type:alpha" maskUnits="userSpaceOnUse" x="1" y="0" width="148" height="149">
<path d="M147.502 52.5781C147.866 53.4553 148.102 54.0225 147.495 52.5619C146.088 49.1741 146.926 51.1911 147.487 52.5418C143.537 43.0718 130.019 39.1889 122.756 47.4538C119.725 50.9027 118.659 55.3825 116.731 59.4359C114.457 64.2149 107.233 68.8288 101.923 66.1562C105.418 63.6585 108.813 61.9975 111.459 58.4452C114.05 54.9658 116.139 49.6853 113.629 45.6161C111.508 42.1787 106.728 40.4174 102.854 41.2832C98.381 42.28 96.7724 45.9979 95.5654 49.9644C94.1203 54.7068 92.5142 57.0561 87.2172 56.2727C83.6566 55.7464 77.3674 53.6022 77.6592 49.081C77.9573 44.3951 81.2901 39.8823 83.7076 36.0274C86.6051 31.4072 89.9178 27.1135 90.9911 21.6383C92.9184 11.7942 88.0976 2.50164 77.5887 1.13661C67.2835 -0.202188 61.3582 8.43629 62.4789 18.0335C63.0278 22.7472 65.5524 26.584 66.6725 31.0911C68.0627 36.6934 67.175 42.552 65.9012 48.0792C64.9551 52.1707 62.1833 56.5808 57.8785 57.8604C53.1536 59.2645 50.8285 55.116 50.2461 51.2336C49.3248 45.0823 46.4707 39.1846 39.2239 40.8927C34.8501 41.9258 31.5897 45.2708 30.4284 49.6056C29.1295 54.459 31.491 58.3956 34.4685 62.0338C35.9845 63.8866 40.0282 67.584 39.6043 70.3185C38.8905 74.9283 29.7545 69.475 28.2796 68.3618C24.2384 65.3116 20.1613 62.5999 14.8205 63.2397C9.88259 63.8309 5.19515 67.4497 2.94897 71.8343C-1.90407 81.3011 5.15815 91.5762 13.9863 95.2701C23.8723 99.4065 32.6542 92.7099 42.6742 92.7099C44.642 92.7099 50.8015 92.8719 49.7666 96.3204C48.404 100.861 43.2988 103.134 39.2627 104.649C35.0684 106.225 31.0607 108.141 29.1302 112.49C27.1912 116.859 28.5863 121.845 31.7561 125.224C37.8717 131.748 48.7022 133.9 55.2228 126.767C58.1382 123.577 59.324 119.506 60.6361 115.496C60.9742 114.46 61.7378 110.966 63.4862 111.704C66.1555 112.833 63.9525 116.165 62.9636 117.631C57.7754 125.339 61.9904 136.158 72.3621 133.715C75.9787 132.862 78.6186 130.168 79.129 126.452C79.7455 121.97 77.1734 116.106 82.362 113.462C86.5788 111.317 85.9599 120.062 85.799 122.071C85.3827 127.261 85.5993 132.524 87.2226 137.508C90.2942 146.945 100.97 153.287 109.362 145.504C116.76 138.644 116.14 127.119 108.306 120.973C104.893 118.293 89.9211 112.092 98.0401 106.627C106.327 101.047 122.953 114.198 126.749 100.701C127.837 96.8265 125.93 92.6884 122.316 90.9734C119.779 89.7708 116.869 89.8143 114.15 90.2112C112.646 90.4321 108.935 91.9297 108.183 89.9234C104.966 81.3277 120.319 73.5417 126.786 73.074C132.789 72.6408 138.675 73.6534 143.647 69.3676C148.467 65.2124 149.912 58.4039 147.502 52.5781Z" fill="black"/>
</mask>
<g mask="url(#mask0_1471_16765)">
<path d="M150 0H0V150H150V0Z" fill="#FFCC32"/>
<path d="M18.3168 0H14.3975L15.682 0.744512V18.2019L1.21646 26.5867H1.20328L0 25.8898V28.9443L1.20328 29.6417H1.21646L18.3168 19.7228V0Z" fill="#FFF132"/>
<path d="M0 93.748L1.20328 94.4454H1.21646L18.3168 84.5265V64.0273L1.21646 54.1084H1.20328L0 54.8058V57.8602L1.20328 57.1634H1.21646L15.682 65.5482V83.0056L1.21646 91.3904H1.20328L0 90.6936V93.748Z" fill="#FFF132"/>
<path d="M17.1625 150L18.3168 149.33V128.831L1.21646 118.912H1.20328L0 119.61V122.664L1.20328 121.967H1.21646L15.682 130.352V147.81L11.9029 150H17.1625Z" fill="#FFF132"/>
<path d="M54.0493 150L55.2037 149.33V128.831L38.1033 118.912H38.0901L20.9766 128.831V149.33L22.1318 150H27.3939L23.6114 147.81V130.352L38.0901 121.967H38.1033L52.5688 130.352V147.81L48.7898 150H54.0493Z" fill="#FFF132"/>
<path d="M90.9399 150L92.0943 149.33V128.831L74.9939 118.912H74.9807L57.8672 128.831V149.33L59.0225 150H64.2846L60.5021 147.81V130.352L74.9807 121.967H74.9939L89.4594 130.352V147.81L85.6804 150H90.9399Z" fill="#FFF132"/>
<path d="M127.83 150L128.985 149.33V128.831L111.884 118.912H111.871L94.7578 128.831V149.33L95.9131 150H101.175L97.3927 147.81V130.352L111.871 121.967H111.884L126.35 130.352V147.81L122.571 150H127.83Z" fill="#FFF132"/>
<path d="M149.998 119.626L148.768 118.912H148.755L131.641 128.831V149.33L132.796 150H138.058L134.276 147.81V130.352L148.755 121.967H148.768L149.998 122.68V119.626Z" fill="#FFF132"/>
<path d="M149.998 54.8219L148.768 54.1084H148.755L131.641 64.0273V84.5265L148.755 94.4454H148.768L149.998 93.7319V90.6773L148.768 91.3904H148.755L134.276 83.0056V65.5482L148.755 57.1634H148.768L149.998 57.8765V54.8219Z" fill="#FFF132"/>
<path d="M131.641 0V19.7228L148.755 29.6417H148.768L149.998 28.9281V25.8736L148.768 26.5867H148.755L134.276 18.2019V0.744512L135.562 0H131.641Z" fill="#FFF132"/>
<path d="M94.7578 0V19.7228L111.871 29.6417H111.884L128.985 19.7228V0H125.066L126.35 0.744512V18.2019L111.884 26.5867H111.871L97.3927 18.2019V0.744512L98.6783 0H94.7578Z" fill="#FFF132"/>
<path d="M57.8672 0V19.7228L74.9807 29.6417H74.9939L92.0943 19.7228V0H88.175L89.4594 0.744512V18.2019L74.9939 26.5867H74.9807L60.5021 18.2019V0.744512L61.7877 0H57.8672Z" fill="#FFF132"/>
<path d="M20.9766 0V19.7228L38.0901 29.6417H38.1033L55.2037 19.7228V0H51.2844L52.5688 0.744512V18.2019L38.1033 26.5867H38.0901L23.6114 18.2019V0.744512L24.8971 0H20.9766Z" fill="#FFF132"/>
<path fill-rule="evenodd" clip-rule="evenodd" d="M36.7715 31.956L19.6448 22.0371L2.53125 31.956V51.7939L19.6448 61.7129L36.7715 51.7939V31.956ZM5.16613 50.273V33.477L19.6448 25.0921L34.1367 33.477V50.2598L19.6448 58.6579L5.16613 50.273Z" fill="#FFF132"/>
<path fill-rule="evenodd" clip-rule="evenodd" d="M20.9766 84.5265V64.0273L38.0901 54.1084H38.1033L55.2037 64.0273V84.5265L38.1033 94.4454H38.0901L20.9766 84.5265ZM52.5688 83.0056V65.5482L38.1033 57.1634H38.0901L23.6114 65.5482V83.0056L38.0901 91.3904H38.1033L52.5688 83.0056Z" fill="#FFF132"/>
<path fill-rule="evenodd" clip-rule="evenodd" d="M56.5355 22.0371L73.6622 31.956V51.7939L56.5355 61.7129L39.4219 51.7939V31.956L56.5355 22.0371ZM42.0568 33.477V50.273L56.5355 58.6579L71.0273 50.2598V33.477L56.5355 25.0921L42.0568 33.477Z" fill="#FFF132"/>
<path fill-rule="evenodd" clip-rule="evenodd" d="M74.9807 54.1084L57.8672 64.0273V84.5265L74.9807 94.4454H74.9939L92.0943 84.5265V64.0273L74.9939 54.1084H74.9807ZM74.9939 57.1634L89.4594 65.5482V83.0056L74.9939 91.3904H74.9807L60.5021 83.0056V65.5482L74.9807 57.1634H74.9939Z" fill="#FFF132"/>
<path fill-rule="evenodd" clip-rule="evenodd" d="M110.553 31.956L93.426 22.0371L76.3125 31.956V51.7939L93.426 61.7129L110.553 51.7939V31.956ZM78.9473 50.273V33.477L93.426 25.0921L107.918 33.477V50.2598L93.426 58.6579L78.9473 50.273Z" fill="#FFF132"/>
<path fill-rule="evenodd" clip-rule="evenodd" d="M94.7578 84.5265V64.0273L111.871 54.1084H111.884L128.985 64.0273V84.5265L111.884 94.4454H111.871L94.7578 84.5265ZM126.35 83.0056V65.5482L111.884 57.1634H111.871L97.3927 65.5482V83.0056L111.871 91.3904H111.884L126.35 83.0056Z" fill="#FFF132"/>
<path fill-rule="evenodd" clip-rule="evenodd" d="M130.308 22.0371L147.435 31.956V51.7939L130.308 61.7129L113.195 51.7939V31.956L130.308 22.0371ZM115.83 33.477V50.273L130.308 58.6579L144.8 50.2598V33.477L130.308 25.0921L115.83 33.477Z" fill="#FFF132"/>
<path fill-rule="evenodd" clip-rule="evenodd" d="M19.6448 86.8408L36.7715 96.7598V116.598L19.6448 126.517L2.53125 116.598V96.7598L19.6448 86.8408ZM5.16613 98.2807V115.077L19.6448 123.462L34.1367 115.064V98.2807L19.6448 89.8958L5.16613 98.2807Z" fill="#FFF132"/>
<path fill-rule="evenodd" clip-rule="evenodd" d="M73.6622 96.7598L56.5355 86.8408L39.4219 96.7598V116.598L56.5355 126.517L73.6622 116.598V96.7598ZM42.0568 115.077V98.2807L56.5355 89.8958L71.0273 98.2807V115.064L56.5355 123.462L42.0568 115.077Z" fill="#FFF132"/>
<path fill-rule="evenodd" clip-rule="evenodd" d="M93.426 86.8408L110.553 96.7598V116.598L93.426 126.517L76.3125 116.598V96.7598L93.426 86.8408ZM78.9473 98.2807V115.077L93.426 123.462L107.918 115.064V98.2807L93.426 89.8958L78.9473 98.2807Z" fill="#FFF132"/>
<path fill-rule="evenodd" clip-rule="evenodd" d="M147.435 96.7598L130.308 86.8408L113.195 96.7598V116.598L130.308 126.517L147.435 116.598V96.7598ZM115.83 115.077V98.2807L130.308 89.8958L144.8 98.2807V115.064L130.308 123.462L115.83 115.077Z" fill="#FFF132"/>
</g>
<path d="M147.502 52.5781C147.866 53.4553 148.102 54.0225 147.495 52.5619C146.088 49.1741 146.926 51.1911 147.487 52.5418C143.537 43.0718 130.019 39.1889 122.756 47.4538C119.725 50.9027 118.659 55.3825 116.731 59.4359C114.457 64.2149 107.233 68.8288 101.923 66.1562C105.418 63.6585 108.813 61.9975 111.459 58.4452C114.05 54.9658 116.139 49.6853 113.629 45.6161C111.508 42.1787 106.728 40.4174 102.854 41.2832C98.381 42.28 96.7724 45.9979 95.5654 49.9644C94.1203 54.7068 92.5142 57.0561 87.2172 56.2727C83.6566 55.7464 77.3674 53.6022 77.6592 49.081C77.9573 44.3951 81.2901 39.8823 83.7076 36.0274C86.6051 31.4072 89.9178 27.1135 90.9911 21.6383C92.9184 11.7942 88.0976 2.50164 77.5887 1.13661C67.2835 -0.202188 61.3582 8.43629 62.4789 18.0335C63.0278 22.7472 65.5524 26.584 66.6725 31.0911C68.0627 36.6934 67.175 42.552 65.9012 48.0792C64.9551 52.1707 62.1833 56.5808 57.8785 57.8604C53.1536 59.2645 50.8285 55.116 50.2461 51.2336C49.3248 45.0823 46.4707 39.1846 39.2239 40.8927C34.8501 41.9258 31.5897 45.2708 30.4284 49.6056C29.1295 54.459 31.491 58.3956 34.4685 62.0338C35.9845 63.8866 40.0282 67.584 39.6043 70.3185C38.8905 74.9283 29.7545 69.475 28.2796 68.3618C24.2384 65.3116 20.1613 62.5999 14.8205 63.2397C9.88259 63.8309 5.19515 67.4497 2.94897 71.8343C-1.90407 81.3011 5.15815 91.5762 13.9863 95.2701C23.8723 99.4065 32.6542 92.7099 42.6742 92.7099C44.642 92.7099 50.8015 92.8719 49.7666 96.3204C48.404 100.861 43.2988 103.134 39.2627 104.649C35.0684 106.225 31.0607 108.141 29.1302 112.49C27.1912 116.859 28.5863 121.845 31.7561 125.224C37.8717 131.748 48.7022 133.9 55.2228 126.767C58.1382 123.577 59.324 119.506 60.6361 115.496C60.9742 114.46 61.7378 110.966 63.4862 111.704C66.1555 112.833 63.9525 116.165 62.9636 117.631C57.7754 125.339 61.9904 136.158 72.3621 133.715C75.9787 132.862 78.6186 130.168 79.129 126.452C79.7455 121.97 77.1734 116.106 82.362 113.462C86.5788 111.317 85.9599 120.062 85.799 122.071C85.3827 127.261 85.5993 132.524 87.2226 137.508C90.2942 146.945 100.97 153.287 109.362 145.504C116.76 138.644 116.14 127.119 108.306 120.973C104.893 118.293 89.9211 112.092 98.0401 106.627C106.327 101.047 122.953 114.198 126.749 100.701C127.837 96.8265 125.93 92.6884 122.316 90.9734C119.779 89.7708 116.869 89.8143 114.15 90.2112C112.646 90.4321 108.935 91.9297 108.183 89.9234C104.966 81.3277 120.319 73.5417 126.786 73.074C132.789 72.6408 138.675 73.6534 143.647 69.3676C148.467 65.2124 149.912 58.4039 147.502 52.5781Z" stroke="#D2A008" stroke-width="2"/>
</svg>
