<svg xmlns="http://www.w3.org/2000/svg" fill="none" viewBox="0 0 150 150"><path fill="#fff" d="M146.527 52.882c.359.865.592 1.425-.007-.016-1.388-3.342-.561-1.352-.007-.02-3.898-9.342-17.232-13.172-24.398-5.019-2.99 3.402-4.041 7.822-5.943 11.82-2.244 4.715-9.369 9.266-14.608 6.63 3.448-2.464 6.797-4.103 9.407-7.607 2.556-3.433 4.617-8.642 2.141-12.656-2.093-3.39-6.808-5.128-10.63-4.274-4.412.983-5.999 4.65-7.19 8.564-1.425 4.678-3.01 6.995-8.235 6.223-3.512-.52-9.717-2.635-9.429-7.095.294-4.622 3.582-9.074 5.967-12.877 2.858-4.558 6.126-8.793 7.185-14.195 1.901-9.71-2.855-18.878-13.221-20.224-10.166-1.321-16.012 7.2-14.906 16.668.541 4.65 3.032 8.435 4.137 12.881 1.371 5.527.496 11.306-.76 16.759-.934 4.036-3.669 8.387-7.915 9.649-4.661 1.385-6.955-2.707-7.53-6.537-.908-6.069-3.724-11.886-10.873-10.201-4.314 1.019-7.53 4.319-8.676 8.595-1.282 4.787 1.048 8.67 3.985 12.26 1.496 1.828 5.485 5.475 5.067 8.173-.705 4.547-9.717-.832-11.172-1.93-3.987-3.01-8.009-5.685-13.277-5.053-4.871.583-9.496 4.153-11.711 8.478-4.788 9.339 2.179 19.475 10.888 23.12 9.752 4.08 18.415-2.526 28.3-2.526 1.941 0 8.017.16 6.996 3.561-1.344 4.479-6.38 6.722-10.361 8.217-4.138 1.554-8.092 3.444-9.996 7.735-1.913 4.31-.537 9.228 2.59 12.561 6.033 6.436 16.718 8.559 23.15 1.523 2.876-3.148 4.046-7.164 5.34-11.12.334-1.022 1.087-4.468 2.812-3.74 2.633 1.113.46 4.4-.516 5.847-5.118 7.603-.96 18.276 9.272 15.866 3.567-.841 6.172-3.498 6.675-7.165.608-4.421-1.929-10.206 3.19-12.814 4.16-2.116 3.549 6.511 3.39 8.493-.41 5.119-.197 10.311 1.404 15.228 3.03 9.309 13.562 15.566 21.84 7.888 7.298-6.767 6.687-18.137-1.041-24.2-3.367-2.643-18.137-8.761-10.127-14.152 8.174-5.504 24.576 7.469 28.32-5.846 1.074-3.822-.808-7.904-4.373-9.596-2.502-1.186-5.373-1.143-8.055-.751-1.484.218-5.144 1.695-5.887-.284-3.173-8.48 11.972-16.16 18.352-16.622 5.922-.427 11.729.572 16.633-3.656 4.755-4.1 6.18-10.816 3.803-16.563Z"/><path fill="#000" d="M73.733.111c-3.887.45-7.152 2.312-9.4 5.041-2.999 3.64-4.279 8.68-3.67 13.885.609 5.225 3.184 9.11 4.183 13.131 1.245 5.017.463 10.477-.77 15.826-.81 3.508-3.266 7.21-6.535 8.182-1.729.514-2.438.132-3.257-.754-.82-.886-1.478-2.53-1.723-4.162-.486-3.24-1.442-6.539-3.555-9.012-2.113-2.473-5.624-3.814-9.756-2.84h-.002C34.21 40.598 30.421 44.5 29.1 49.432v.002c-1.508 5.633 1.312 10.307 4.37 14.043.886 1.083 2.19 2.377 3.21 3.709 1.02 1.331 1.468 2.628 1.428 2.89-.034.22-.043.14.013.09.057-.05.075-.021-.117.002-.384.047-1.429-.11-2.543-.514-2.228-.806-4.947-2.5-5.343-2.798-4.048-3.056-8.67-6.167-14.721-5.442-5.68.68-10.725 4.62-13.252 9.553-2.707 5.28-2.075 10.942.4 15.553 2.476 4.61 6.706 8.318 11.494 10.322 5.426 2.27 10.6 1.54 15.354.365 4.754-1.174 9.222-2.736 13.719-2.736.915 0 2.813.074 4.062.43.625.177 1.026.445 1.076.5.05.053.04-.265-.056.058-1.002 3.338-5.266 5.459-9.15 6.918-4.245 1.594-8.887 3.767-11.12 8.797-2.286 5.151-.64 10.905 2.96 14.74 3.343 3.568 7.916 5.922 12.669 6.434 4.753.512 9.758-.931 13.414-4.93a18.138 18.138 0 0 0 2.09-2.795c.078 1.768.392 3.495 1.166 5.024 2.047 4.046 6.819 6.592 12.635 5.222 4.272-1.007 7.585-4.381 8.197-8.84.371-2.699-.148-5.291-.078-7.289.07-1.996.29-3.042 2.193-4.013l.002-.002c.037-.019.004-.001.033-.014.07.143.277.51.399 1.262.287 1.766.134 4.34.056 5.304-.423 5.281-.217 10.745 1.497 16.006 1.685 5.178 5.395 9.492 10.052 11.528 4.658 2.035 10.402 1.517 15.049-2.793 8.157-7.565 7.477-20.458-1.166-27.239-1.105-.868-2.631-1.698-4.342-2.715-1.71-1.016-3.553-2.163-4.959-3.308-1.406-1.145-2.252-2.316-2.38-2.883-.065-.284-.059-.413.093-.707s.532-.761 1.342-1.307h.002c1.485-.999 3.524-1.245 6.059-1.029 2.534.216 5.433.89 8.33 1.352 2.897.461 5.838.759 8.599-.176s5.077-3.335 6.139-7.111c1.339-4.765-.995-9.835-5.439-11.944h-.002c-3.055-1.448-6.336-1.342-9.2-.924h-.002c-1.151.17-2.273.563-3.179.676-.318.04-.443.017-.586.006-.432-1.406-.258-2.68.547-4.12.865-1.547 2.454-3.161 4.39-4.566 3.872-2.808 9.22-4.746 11.727-4.927 2.802-.203 5.758-.053 8.791-.412 3.033-.36 6.197-1.305 9.004-3.725 5.174-4.46 6.764-11.608 4.57-17.916l.137-.057-.004-.005-.002-.004v-.006l-.059-.14-.297-.714v-.002l-.008-.016v-.002l-.008-.017v-.004l-.002-.006-.004-.006-.549-1.324-.101-.242-.069-.164c-.011-.029-.019-.045-.025-.059v-.002l-.002-.004-.002-.006-.236.098c-2.476-4.357-6.681-7.433-11.373-8.533-5.312-1.246-11.292.022-15.383 4.677-3.404 3.873-4.469 8.543-6.248 12.284-.877 1.84-2.957 3.95-5.289 5.15-.344.177-.679.182-1.024.318 1.591-1.18 3.139-2.535 4.522-4.392 1.413-1.898 2.692-4.259 3.301-6.848.609-2.589.51-5.505-1.061-8.053v-.002c-2.638-4.273-8.042-6.232-12.77-5.175-2.67.595-4.67 2.13-5.99 3.97-1.32 1.84-2.059 3.937-2.675 5.963-.68 2.23-1.376 3.607-2.092 4.23-.717.624-1.64.938-3.938.598-1.535-.226-3.798-.861-5.415-1.814-1.617-.952-2.392-1.885-2.309-3.173v-.002c.24-3.762 3.213-8.033 5.665-11.942 2.79-4.449 6.282-8.903 7.453-14.873 1.033-5.28.28-10.512-2.266-14.676-2.546-4.163-6.94-7.173-12.66-7.916a16.72 16.72 0 0 0-4.08-.04Zm.435 3.948c.966-.1 2.007-.086 3.13.06 4.647.604 7.815 2.851 9.763 6.035 1.947 3.185 2.62 7.392 1.752 11.823-.948 4.831-3.99 8.85-6.916 13.515-2.319 3.697-5.918 8.328-6.268 13.81-.204 3.173 1.978 5.528 4.27 6.878 2.291 1.35 4.885 2.034 6.861 2.326 2.928.433 5.41-.026 7.149-1.537 1.738-1.512 2.546-3.634 3.292-6.082.575-1.886 1.226-3.58 2.1-4.797.874-1.218 1.873-2.01 3.613-2.399 2.917-.651 6.944.865 8.493 3.373.904 1.468 1.013 3.16.572 5.038-.442 1.877-1.473 3.839-2.615 5.373-2.299 3.086-5.362 4.597-8.967 7.173a2.004 2.004 0 0 0-.498 2.742c.191.286.454.518.762.672 3.357 1.69 7.142 1.029 10.242-.566 3.1-1.595 5.704-4.117 7.072-6.99 2.025-4.257 3.062-8.428 5.639-11.36 3.074-3.497 7.343-4.39 11.464-3.423 4.12.966 7.909 3.88 9.584 7.89l.002.004.006.016v.002l.006.012v.002l.002.002v.002c2.056 4.976.822 10.756-3.263 14.277-2.098 1.808-4.287 2.476-6.863 2.781-2.577.305-5.489.17-8.608.395-3.873.28-9.286 2.415-13.789 5.681-2.251 1.634-4.252 3.558-5.533 5.85-1.282 2.292-1.771 5.085-.76 7.787l.002.002c.404 1.077 1.437 1.865 2.34 2.127.903.261 1.705.214 2.445.121 1.48-.185 2.928-.638 3.262-.687 2.501-.366 4.96-.345 6.91.58v-.002c2.686 1.274 4.114 4.37 3.305 7.248-.81 2.881-1.95 3.854-3.572 4.404-1.623.55-3.995.443-6.688.014-2.693-.429-5.662-1.135-8.619-1.387s-6.03-.055-8.633 1.697c-1.192.803-2.102 1.704-2.662 2.787a5.119 5.119 0 0 0-.442 3.428c.494 2.179 2.048 3.713 3.754 5.102 1.707 1.389 3.689 2.603 5.444 3.646 1.755 1.043 3.338 1.968 3.916 2.422 6.813 5.345 7.354 15.19.916 21.16h-.002c-3.631 3.367-7.291 3.56-10.727 2.059-3.435-1.501-6.505-4.968-7.85-9.1-1.489-4.572-1.71-9.493-1.312-14.449.082-1.018.313-3.75-.096-6.264-.204-1.256-.486-2.532-1.544-3.625-.53-.546-1.339-.993-2.204-1.078-.864-.084-1.69.147-2.447.531h-.002c-3.211 1.637-4.284 4.788-4.377 7.44-.093 2.652.352 5.163.115 6.885-.394 2.875-2.29 4.815-5.154 5.49-4.415 1.04-6.838-.544-8.148-3.133-1.31-2.588-1.181-6.435.994-9.668l.002-.002c.495-.735 1.4-2.006 1.869-3.6.235-.797.386-1.743.064-2.777-.32-1.034-1.224-1.974-2.298-2.428h-.002c-1-.422-2.347-.181-3.09.371-.744.553-1.109 1.196-1.407 1.795-.595 1.2-.895 2.492-.994 2.795-1.308 3.997-2.43 7.671-4.916 10.393-2.776 3.035-6.328 4.05-10.033 3.65-3.706-.399-7.49-2.325-10.18-5.193-2.655-2.831-3.76-6.912-2.22-10.381 1.576-3.552 4.838-5.16 8.869-6.674 4.078-1.531 9.887-3.895 11.574-9.515.414-1.378.027-2.992-.836-3.924-.863-.933-1.908-1.344-2.918-1.631-2.02-.575-4.133-.582-5.158-.582-5.388 0-10.19 1.743-14.678 2.851-4.486 1.109-8.522 1.641-12.85-.17-3.92-1.64-7.527-4.822-9.515-8.525-1.988-3.703-2.446-7.778-.366-11.836v-.002c1.905-3.718 6.107-6.918 10.17-7.404 4.487-.538 7.91 1.701 11.834 4.664 1.06.799 3.573 2.346 6.391 3.367 1.409.51 2.842.912 4.39.723.775-.095 1.624-.382 2.313-1.004.69-.623 1.118-1.529 1.26-2.446.377-2.434-.962-4.312-2.205-5.935-1.244-1.623-2.683-3.067-3.291-3.81-2.818-3.444-4.657-6.535-3.602-10.477.97-3.621 3.614-6.318 7.205-7.166 3.017-.711 4.488.015 5.797 1.547 1.31 1.532 2.215 4.176 2.639 7.004.33 2.197 1.105 4.513 2.742 6.285 1.637 1.77 4.402 2.744 7.334 1.873h.002c5.225-1.553 8.237-6.551 9.293-11.115v-.003c1.28-5.555 2.25-11.653.752-17.689-1.21-4.871-3.617-8.557-4.092-12.63-.498-4.263.594-8.22 2.783-10.878 1.643-1.993 3.854-3.335 6.75-3.636ZM62.901 112.982c-.003-.009-.012.067-.012.067-.005-.001-.02.004-.023.002h-.002c.242.102.055-.009.037-.069Z"/></svg>