<svg xmlns="http://www.w3.org/2000/svg" fill="none" viewBox="0 0 750 1050"><path fill="#fff" d="M0 0h750v1050H0z"/><path fill="#D9D9D9" fill-rule="evenodd" d="M48.998 29a2 2 0 0 1 0-4h.01a2 2 0 0 1 0 4h-.01Zm8.03-2a2 2 0 0 1 2-2h.01a2 2 0 0 1 0 4h-.01a2 2 0 0 1-2-2Zm10.031 0a2 2 0 0 1 2-2h.01a2 2 0 0 1 0 4h-.01a2 2 0 0 1-2-2Zm10.031 0a2 2 0 0 1 2-2h.01a2 2 0 0 1 0 4h-.01a2 2 0 0 1-2-2Zm10.031 0a2 2 0 0 1 2-2h.01a2 2 0 0 1 0 4h-.01a2 2 0 0 1-2-2Zm10.031 0a2 2 0 0 1 2-2h.01a2 2 0 1 1 0 4h-.01a2 2 0 0 1-2-2Zm10.03 0a2 2 0 0 1 2-2h.01a2 2 0 0 1 0 4h-.01a2 2 0 0 1-2-2Zm10.031 0a2 2 0 0 1 2-2h.01a2 2 0 0 1 0 4h-.01a2 2 0 0 1-2-2Zm10.031 0a2 2 0 0 1 2-2h.01a2 2 0 0 1 0 4h-.01a2 2 0 0 1-2-2Zm10.03 0a2 2 0 0 1 2-2h.01a2 2 0 0 1 0 4h-.01a2 2 0 0 1-2-2Zm10.031 0a2 2 0 0 1 2-2h.01a2 2 0 0 1 0 4h-.01a2 2 0 0 1-2-2Zm10.031 0a2 2 0 0 1 2-2h.01a2 2 0 0 1 0 4h-.01a2 2 0 0 1-2-2Zm10.03 0a2 2 0 0 1 2-2h.011a2 2 0 0 1 0 4h-.011a2 2 0 0 1-2-2Zm10.031 0a2 2 0 0 1 2-2h.01a2 2 0 0 1 0 4h-.01a2 2 0 0 1-2-2Zm10.031 0a2 2 0 0 1 2-2h.01a2 2 0 0 1 0 4h-.01a2 2 0 0 1-2-2Zm10.031 0a2 2 0 0 1 2-2h.01a2 2 0 0 1 0 4h-.01a2 2 0 0 1-2-2Zm10.03 0a2 2 0 0 1 2-2h.01a2 2 0 0 1 0 4h-.01a2 2 0 0 1-2-2Zm10.031 0a2 2 0 0 1 2-2h.01a2 2 0 0 1 0 4h-.01a2 2 0 0 1-2-2Zm10.031 0a2 2 0 0 1 2-2h.01a2 2 0 0 1 0 4h-.01a2 2 0 0 1-2-2Zm10.03 0a2 2 0 0 1 2-2h.011a2 2 0 0 1 0 4h-.011a2 2 0 0 1-2-2Zm10.031 0a2 2 0 0 1 2-2h.01a2 2 0 0 1 0 4h-.01a2 2 0 0 1-2-2Zm10.031 0a2 2 0 0 1 2-2h.01a2 2 0 0 1 0 4h-.01a2 2 0 0 1-2-2Zm10.031 0a2 2 0 0 1 2-2h.01a2 2 0 0 1 0 4h-.01a2 2 0 0 1-2-2Zm10.03 0a2 2 0 0 1 2-2h.01a2 2 0 0 1 0 4h-.01a2 2 0 0 1-2-2Zm10.031 0a2 2 0 0 1 2-2h.01a2 2 0 0 1 0 4h-.01a2 2 0 0 1-2-2Zm10.031 0a2 2 0 0 1 2-2h.01a2 2 0 0 1 0 4h-.01a2 2 0 0 1-2-2Zm10.031 0a2 2 0 0 1 2-2h.01a2 2 0 0 1 0 4h-.01a2 2 0 0 1-2-2Zm10.03 0a2 2 0 0 1 2-2h.01a2 2 0 0 1 0 4h-.01a2 2 0 0 1-2-2Zm10.031 0a2 2 0 0 1 2-2h.01a2 2 0 0 1 0 4h-.01a2 2 0 0 1-2-2Zm10.031 0a2 2 0 0 1 2-2h.01a2 2 0 0 1 0 4h-.01a2 2 0 0 1-2-2Zm10.03 0a2 2 0 0 1 2-2h.01a2 2 0 0 1 0 4h-.01a2 2 0 0 1-2-2Zm10.031 0a2 2 0 0 1 2-2h.01a2 2 0 0 1 0 4h-.01a2 2 0 0 1-2-2Zm10.031 0a2 2 0 0 1 2-2h.01a2 2 0 0 1 0 4h-.01a2 2 0 0 1-2-2Zm10.03 0a2 2 0 0 1 2-2h.01a2 2 0 0 1 0 4h-.01a2 2 0 0 1-2-2Zm10.031 0a2 2 0 0 1 2-2h.01a2 2 0 0 1 0 4h-.01a2 2 0 0 1-2-2Zm10.031 0a2 2 0 0 1 2-2h.01a2 2 0 0 1 0 4h-.01a2 2 0 0 1-2-2Zm10.031 0a2 2 0 0 1 2-2h.01a2 2 0 0 1 0 4h-.01a2 2 0 0 1-2-2Zm10.03 0a2 2 0 0 1 2-2h.01a2 2 0 0 1 0 4h-.01a2 2 0 0 1-2-2Zm10.031 0a2 2 0 0 1 2-2h.01a2 2 0 0 1 0 4h-.01a2 2 0 0 1-2-2Zm10.031 0a2 2 0 0 1 2-2h.01a2 2 0 0 1 0 4h-.01a2 2 0 0 1-2-2Zm10.03 0a2 2 0 0 1 2-2h.01a2 2 0 0 1 0 4h-.01a2 2 0 0 1-2-2Zm10.031 0a2 2 0 0 1 2-2h.01a2 2 0 0 1 0 4h-.01a2 2 0 0 1-2-2Zm10.031 0a2 2 0 0 1 2-2h.01a2 2 0 0 1 0 4h-.01a2 2 0 0 1-2-2Zm10.03 0a2 2 0 0 1 2-2h.01a2 2 0 0 1 0 4h-.01a2 2 0 0 1-2-2Zm10.031 0a2 2 0 0 1 2-2h.01a2 2 0 0 1 0 4h-.01a2 2 0 0 1-2-2Zm10.031 0a2 2 0 0 1 2-2h.01a2 2 0 0 1 0 4h-.01a2 2 0 0 1-2-2Zm10.031 0a2 2 0 0 1 2-2h.01a2 2 0 0 1 0 4h-.01a2 2 0 0 1-2-2Zm10.03 0a2 2 0 0 1 2-2h.01a2 2 0 0 1 0 4h-.01a2 2 0 0 1-2-2Zm10.031 0a2 2 0 0 1 2-2h.01a2 2 0 0 1 0 4h-.01a2 2 0 0 1-2-2Zm10.031 0a2 2 0 0 1 2-2h.01a2 2 0 0 1 0 4h-.01a2 2 0 0 1-2-2Zm10.03 0a2 2 0 0 1 2-2h.01a2 2 0 0 1 0 4h-.01a2 2 0 0 1-2-2Zm10.031 0a2 2 0 0 1 2-2h.01a2 2 0 0 1 0 4h-.01a2 2 0 0 1-2-2Zm10.031 0a2 2 0 0 1 2-2h.01a2 2 0 0 1 0 4h-.01a2 2 0 0 1-2-2Zm10.03 0a2 2 0 0 1 2-2h.01a2 2 0 0 1 0 4h-.01a2 2 0 0 1-2-2Zm10.031 0a2 2 0 0 1 2-2h.01a2 2 0 0 1 0 4h-.01a2 2 0 0 1-2-2Zm10.031 0a2 2 0 0 1 2-2h.01a2 2 0 0 1 0 4h-.01a2 2 0 0 1-2-2Zm10.031 0a2 2 0 0 1 2-2h.01a2 2 0 0 1 0 4h-.01a2 2 0 0 1-2-2Zm10.03 0a2 2 0 0 1 2-2h.01a2 2 0 0 1 0 4h-.01a2 2 0 0 1-2-2Zm10.031 0a2 2 0 0 1 2-2h.01a2 2 0 0 1 0 4h-.01a2 2 0 0 1-2-2Zm10.031 0a2 2 0 0 1 2-2h.01a2 2 0 0 1 0 4h-.01a2 2 0 0 1-2-2Zm10.03 0a2 2 0 0 1 2-2h.01a2 2 0 0 1 0 4h-.01a2 2 0 0 1-2-2Zm10.031 0a2 2 0 0 1 2-2h.01a2 2 0 0 1 0 4h-.01a2 2 0 0 1-2-2Zm10.031 0a2 2 0 0 1 2-2h.01a2 2 0 0 1 0 4h-.01a2 2 0 0 1-2-2Zm10.03 0a2 2 0 0 1 2-2h.01a2 2 0 0 1 0 4h-.01a2 2 0 0 1-2-2Zm10.031 0a2 2 0 0 1 2-2h.01a2 2 0 0 1 0 4h-.01a2 2 0 0 1-2-2Zm10.031 0a2 2 0 0 1 2-2h.011a1.997 1.997 0 0 1 1.847 1.235 1.992 1.992 0 0 1-.434 2.18 1.99 1.99 0 0 1-1.414.585h-.01a2 2 0 0 1-2-2ZM40.737 28.673a2 2 0 0 1-.73 2.732L40 31.41a2 2 0 1 1-2.004-3.462l.01-.005a2 2 0 0 1 2.731.73Zm668.528 0a2.003 2.003 0 0 1 2.732-.73l.01.005a2.009 2.009 0 0 1 .931 1.215 2 2 0 0 1-2.935 2.247l-.008-.005a2 2 0 0 1-.73-2.732Zm8.053 6.59a1.996 1.996 0 0 1 2.218.143c.208.16.383.359.515.586l.006.01a2 2 0 0 1-3.463 2.002l-.005-.008a2 2 0 0 1 .729-2.733Zm-684.634 0a2 2 0 0 1 .729 2.733l-.005.008a2 2 0 0 1-3.463-2.002l.006-.01a2 2 0 0 1 2.733-.729ZM721 44.995a2 2 0 0 1 2 2v.01a2 2 0 0 1-4 0v-.01a2 2 0 0 1 2-2Zm-691.995 0a2 2 0 0 1 1.999 2v.01a2 2 0 0 1-4 0v-.01a2 2 0 0 1 2.001-2Zm-.001 10.4a2 2 0 0 1 2 2v.01a2 2 0 0 1-4 0v-.01a2 2 0 0 1 2-2Zm691.996 0a2 2 0 0 1 2 2v.01a2 2 0 0 1-4 0v-.01a2 2 0 0 1 2-2Zm-691.996 10.4a2 2 0 0 1 2 2v.01a2 2 0 0 1-4 0v-.01a2 2 0 0 1 2-2Zm691.996 0a2 2 0 0 1 2 2v.01a2 2 0 0 1-4 0v-.01a2 2 0 0 1 2-2Zm0 10.4a2 2 0 0 1 2 2v.01a2 2 0 0 1-4 0v-.01a2 2 0 0 1 2-2Zm-691.996 0a2 2 0 0 1 2 2v.01a2 2 0 0 1-4 0v-.01a2 2 0 0 1 2-2ZM721 86.595a2 2 0 0 1 2 2v.01a2 2 0 0 1-4 0v-.01a2 2 0 0 1 2-2Zm-691.996 0a2 2 0 0 1 2 2v.01a2 2 0 0 1-4 0v-.01a2 2 0 0 1 2-2ZM721 96.995a2 2 0 0 1 2 2v.01a2 2 0 0 1-4 0v-.01a2 2 0 0 1 2-2Zm-691.996 0a2 2 0 0 1 2 2v.01a2 2 0 1 1-4 0v-.01a2 2 0 0 1 2-2Zm0 10.4a2 2 0 0 1 2 2v.01a2 2 0 0 1-4 0v-.01a2 2 0 0 1 2-2Zm691.996 0a2 2 0 0 1 2 2v.01a2 2 0 0 1-4 0v-.01a2 2 0 0 1 2-2Zm-691.996 10.4a2 2 0 0 1 2 2v.01a2 2 0 0 1-4 0v-.01a2 2 0 0 1 2-2Zm691.996 0a2 2 0 0 1 2 2v.01a2 2 0 0 1-4 0v-.01a2 2 0 0 1 2-2Zm-691.996 10.4a2 2 0 0 1 2 2v.01a2 2 0 0 1-4 0v-.01a2 2 0 0 1 2-2Zm691.996 0a2 2 0 0 1 2 2v.01a2 2 0 0 1-4 0v-.01a2 2 0 0 1 2-2Zm-691.996 10.4a2 2 0 0 1 2 2v.01a2 2 0 0 1-4 0v-.01a2 2 0 0 1 2-2Zm691.996 0a2 2 0 0 1 2 2v.01a2 2 0 0 1-4 0v-.01a2 2 0 0 1 2-2ZM30.445 149.609a2 2 0 0 0-3.442 1.386v.01a2 2 0 0 0 3.44 1.388c.35-.36.565-.852.565-1.393 0-.54-.214-1.031-.563-1.391ZM721 148.995a2 2 0 0 1 2 2v.01a2 2 0 0 1-3.43 1.398 1.994 1.994 0 0 1-.002-2.804 1.994 1.994 0 0 1 1.432-.604ZM37.027 151a2 2 0 0 1 2-2h.01a2 2 0 0 1 0 4h-.01a2 2 0 0 1-2-2Zm10.029 0a2 2 0 0 1 2-2h.01a2 2 0 0 1 0 4h-.01a2 2 0 0 1-2-2Zm10.029 0a2 2 0 0 1 2-2h.01a2 2 0 0 1 0 4h-.01a2 2 0 0 1-2-2Zm10.029 0a2 2 0 0 1 2-2h.01a2 2 0 0 1 0 4h-.01a2 2 0 0 1-2-2Zm10.029 0a2 2 0 0 1 2-2h.01a2 2 0 0 1 0 4h-.01a2 2 0 0 1-2-2Zm10.029 0a2 2 0 0 1 2-2h.01a2 2 0 0 1 0 4h-.01a2 2 0 0 1-2-2Zm10.028 0a2 2 0 0 1 2-2h.011a2 2 0 0 1 0 4H99.2a2 2 0 0 1-2-2Zm10.029 0a2 2 0 0 1 2-2h.01a2 2 0 0 1 0 4h-.01a2 2 0 0 1-2-2Zm10.029 0a2 2 0 0 1 2-2h.01a2 2 0 0 1 0 4h-.01a2 2 0 0 1-2-2Zm10.029 0a2 2 0 0 1 2-2h.01a2 2 0 0 1 0 4h-.01a2 2 0 0 1-2-2Zm10.029 0a2 2 0 0 1 2-2h.01a2 2 0 0 1 0 4h-.01a2 2 0 0 1-2-2Zm10.029 0a2 2 0 0 1 2-2h.01a2 2 0 0 1 0 4h-.01a2 2 0 0 1-2-2Zm10.029 0a2 2 0 0 1 2-2h.01a2 2 0 0 1 0 4h-.01a2 2 0 0 1-2-2Zm10.029 0a2 2 0 0 1 2-2h.01a2 2 0 0 1 0 4h-.01a2 2 0 0 1-2-2Zm10.029 0a2 2 0 0 1 2-2h.01a2 2 0 0 1 0 4h-.01a2 2 0 0 1-2-2Zm10.029 0a2 2 0 0 1 2-2h.01a2 2 0 0 1 0 4h-.01a2 2 0 0 1-2-2Zm10.029 0a2 2 0 0 1 2-2h.01a2 2 0 0 1 0 4h-.01a2 2 0 0 1-2-2Zm10.029 0a2 2 0 0 1 2-2h.01a2 2 0 0 1 0 4h-.01a2 2 0 0 1-2-2Zm10.029 0a2 2 0 0 1 2-2h.01a2 2 0 0 1 0 4h-.01a2 2 0 0 1-2-2Zm10.029 0a2 2 0 0 1 2-2h.01a2 2 0 0 1 0 4h-.01a2 2 0 0 1-2-2Zm10.029 0a2 2 0 0 1 2-2h.01a2 2 0 0 1 0 4h-.01a2 2 0 0 1-2-2Zm10.028 0a2 2 0 0 1 2-2h.01a2 2 0 0 1 0 4h-.01a2 2 0 0 1-2-2Zm10.029 0a2 2 0 0 1 2-2h.01a2 2 0 0 1 0 4h-.01a2 2 0 0 1-2-2Zm10.029 0a2 2 0 0 1 2-2h.01a2 2 0 0 1 0 4h-.01a2 2 0 0 1-2-2Zm10.029 0a2 2 0 0 1 2-2h.01a2 2 0 0 1 0 4h-.01a2 2 0 0 1-2-2Zm10.029 0a2 2 0 0 1 2-2h.01a2 2 0 0 1 0 4h-.01a2 2 0 0 1-2-2Zm10.029 0a2 2 0 0 1 2-2h.01a2 2 0 0 1 0 4h-.01a2 2 0 0 1-2-2Zm10.029 0a2 2 0 0 1 2-2h.01a2 2 0 0 1 0 4h-.01a2 2 0 0 1-2-2Zm10.029 0a2 2 0 0 1 2-2h.01a2 2 0 0 1 0 4h-.01a2 2 0 0 1-2-2Zm10.029 0a2 2 0 0 1 2-2h.01a2 2 0 0 1 0 4h-.01a2 2 0 0 1-2-2Zm10.029 0a2 2 0 0 1 2-2h.01a2 2 0 0 1 0 4h-.01a2 2 0 0 1-2-2Zm10.029 0a2 2 0 0 1 2-2h.01a2 2 0 0 1 0 4h-.01a2 2 0 0 1-2-2Zm10.029 0a2 2 0 0 1 2-2h.01a2 2 0 0 1 0 4h-.01a2 2 0 0 1-2-2Zm10.029 0a2 2 0 0 1 2-2h.01a2 2 0 0 1 0 4h-.01a2 2 0 0 1-2-2Zm10.029 0a2 2 0 0 1 2-2h.01a2 2 0 0 1 0 4h-.01a2 2 0 0 1-2-2Zm10.028 0a2 2 0 0 1 2-2h.011a2 2 0 0 1 0 4h-.011a2 2 0 0 1-2-2Zm10.029 0a2 2 0 0 1 2-2h.01a2 2 0 0 1 0 4h-.01a2 2 0 0 1-2-2Zm10.029 0a2 2 0 0 1 2-2h.01a2 2 0 0 1 0 4h-.01a2 2 0 0 1-2-2Zm10.029 0a2 2 0 0 1 2-2h.01a2 2 0 0 1 0 4h-.01a2 2 0 0 1-2-2Zm10.029 0a2 2 0 0 1 2-2h.01a2 2 0 0 1 0 4h-.01a2 2 0 0 1-2-2Zm10.029 0a2 2 0 0 1 2-2h.01a2 2 0 0 1 0 4h-.01a2 2 0 0 1-2-2Zm10.029 0a2 2 0 0 1 2-2h.01a2 2 0 0 1 0 4h-.01a2 2 0 0 1-2-2Zm10.029 0a2 2 0 0 1 2-2h.01a2 2 0 0 1 0 4h-.01a2 2 0 0 1-2-2Zm10.029 0a2 2 0 0 1 2-2h.01a2 2 0 0 1 0 4h-.01a2 2 0 0 1-2-2Zm10.029 0a2 2 0 0 1 2-2h.01a2 2 0 0 1 0 4h-.01a2 2 0 0 1-2-2Zm10.029 0a2 2 0 0 1 2-2h.01a2 2 0 0 1 0 4h-.01a2 2 0 0 1-2-2Zm10.029 0a2 2 0 0 1 2-2h.01a2 2 0 0 1 0 4h-.01a2 2 0 0 1-2-2Zm10.029 0a2 2 0 0 1 2-2h.01a2 2 0 0 1 0 4h-.01a2 2 0 0 1-2-2Zm10.029 0a2 2 0 0 1 2-2h.01a2 2 0 0 1 0 4h-.01a2 2 0 0 1-2-2Zm10.028 0a2 2 0 0 1 2-2h.011a2 2 0 0 1 0 4h-.011a2 2 0 0 1-2-2Zm10.029 0a2 2 0 0 1 2-2h.01a2 2 0 0 1 0 4h-.01a2 2 0 0 1-2-2Zm10.029 0a2 2 0 0 1 2-2h.01a2 2 0 0 1 0 4h-.01a2 2 0 0 1-2-2Zm10.029 0a2 2 0 0 1 2-2h.01a2 2 0 0 1 0 4h-.01a2 2 0 0 1-2-2Zm10.029 0a2 2 0 0 1 2-2h.01a2 2 0 0 1 0 4h-.01a2 2 0 0 1-2-2Zm10.029 0a2 2 0 0 1 2-2h.01a2 2 0 0 1 0 4h-.01a2 2 0 0 1-2-2Zm10.029 0a2 2 0 0 1 2-2h.01a2 2 0 0 1 0 4h-.01a2 2 0 0 1-2-2Zm10.029 0a2 2 0 0 1 2-2h.01a2 2 0 0 1 0 4h-.01a2 2 0 0 1-2-2Zm10.029 0a2 2 0 0 1 2-2h.01a2 2 0 0 1 0 4h-.01a2 2 0 0 1-2-2Zm10.029 0a2 2 0 0 1 2-2h.01a2 2 0 0 1 0 4h-.01a2 2 0 0 1-2-2Zm10.029 0a2 2 0 0 1 2-2h.01a2 2 0 0 1 0 4h-.01a2 2 0 0 1-2-2Zm10.029 0a2 2 0 0 1 2-2h.01a2 2 0 0 1 0 4h-.01a2 2 0 0 1-2-2Zm10.029 0a2 2 0 0 1 2-2h.01a2 2 0 0 1 0 4h-.01a2 2 0 0 1-2-2Zm10.029 0a2 2 0 0 1 2-2h.01a2 2 0 0 1 0 4h-.01a2 2 0 0 1-2-2Zm10.029 0a2 2 0 0 1 2-2h.01a2 2 0 0 1 0 4h-.01a2 2 0 0 1-2-2Zm10.028 0a2 2 0 0 1 2-2h.01a2 2 0 0 1 0 4h-.01a2 2 0 0 1-2-2Zm10.029 0a2 2 0 0 1 2-2h.01a2 2 0 0 1 0 4h-.01a2 2 0 0 1-2-2Zm10.029 0a2 2 0 0 1 2-2h.01a2 2 0 0 1 0 4h-.01a2 2 0 0 1-2-2Zm10.029 0a2 2 0 0 1 2-2h.01a2 2 0 0 1 0 4h-.01a2 2 0 0 1-2-2Zm12.034 8.328a2 2 0 0 1 2 2v.011a2 2 0 0 1-4 0v-.011a2 2 0 0 1 2-2Zm-691.996 0a2 2 0 0 1 2 2v.011a2 2 0 0 1-4 0v-.011a2 2 0 0 1 2-2Zm0 10.334a2 2 0 0 1 2 2v.01a2 2 0 0 1-4 0v-.01a2 2 0 0 1 2-2Zm691.996 0a2 2 0 0 1 2 2v.01a2 2 0 0 1-4 0v-.01a2 2 0 0 1 2-2Zm0 10.333a2 2 0 0 1 2 2v.01a2 2 0 0 1-4 0v-.01a2 2 0 0 1 2-2Zm-691.996 0a2 2 0 0 1 2 2v.01a2 2 0 0 1-4 0v-.01a2 2 0 0 1 2-2Zm691.996 10.333a2 2 0 0 1 2 2v.011a2 2 0 0 1-4 0v-.011a2 2 0 0 1 2-2Zm-691.996 0a2 2 0 0 1 2 2v.011a2 2 0 0 1-4 0v-.011a2 2 0 0 1 2-2Zm691.996 10.334a2 2 0 0 1 2 2v.01a2 2 0 0 1-4 0v-.01a2 2 0 0 1 2-2Zm-691.996 0a2 2 0 0 1 2 2v.01a2 2 0 0 1-4 0v-.01a2 2 0 0 1 2-2Zm691.996 10.333a2 2 0 0 1 2 2v.01a2 2 0 0 1-4 0v-.01a2 2 0 0 1 2-2Zm-691.996 0a2 2 0 0 1 2 2v.01a2 2 0 0 1-4 0v-.01a2 2 0 0 1 2-2Zm0 10.333a2 2 0 0 1 2 2v.011a2 2 0 0 1-4 0v-.011a2 2 0 0 1 2-2Zm691.996 0a2 2 0 0 1 2 2v.011a2 2 0 0 1-4 0v-.011a2 2 0 0 1 2-2Zm0 10.334a2 2 0 0 1 2 2v.01a2 2 0 0 1-4 0v-.01a2 2 0 0 1 2-2Zm-691.996 0a2 2 0 0 1 2 2v.01a2 2 0 0 1-4 0v-.01a2 2 0 0 1 2-2Zm691.996 10.333a2 2 0 0 1 2 2v.01a2 2 0 0 1-4 0v-.01a2 2 0 0 1 2-2Zm-691.996 0a2 2 0 0 1 2 2v.01a2 2 0 0 1-4 0v-.01a2 2 0 0 1 2-2Zm691.996 10.333a2 2 0 0 1 2 2v.01a2 2 0 0 1-4 0v-.01a2 2 0 0 1 2-2Zm-691.996 0a2 2 0 0 1 2 2v.011a2 2 0 0 1-4 0v-.011a2 2 0 0 1 2-2Zm691.996 10.333a2 2 0 0 1 2 2v.011a2 2 0 0 1-4 0v-.01c0-1.105.896-2 2-2.001Zm-691.996.001a2 2 0 0 1 2 2v.01a2 2 0 0 1-4 0v-.01a2 2 0 0 1 2-2Zm691.996 10.333a2 2 0 0 1 2 2v.01a2 2 0 0 1-3.413 1.415 2.007 2.007 0 0 1-.593-1.419 1.987 1.987 0 0 1 .591-1.42 1.989 1.989 0 0 1 1.415-.586Zm-690.559.609a2.006 2.006 0 0 0-2.187-.463 2.006 2.006 0 0 0-1.25 1.854v.01a2 2 0 0 0 3.438 1.39 1.996 1.996 0 0 0-.001-2.791ZM37.027 275a2 2 0 0 1 2-2h.01a2 2 0 0 1 0 4h-.01a2 2 0 0 1-2-2Zm10.029 0a2 2 0 0 1 2-2h.01a2 2 0 0 1 0 4h-.01a2 2 0 0 1-2-2Zm10.029 0a2 2 0 0 1 2-2h.01a2 2 0 0 1 0 4h-.01a2 2 0 0 1-2-2Zm10.029 0a2 2 0 0 1 2-2h.01a2 2 0 0 1 0 4h-.01a2 2 0 0 1-2-2Zm10.029 0a2 2 0 0 1 2-2h.01a2 2 0 0 1 0 4h-.01a2 2 0 0 1-2-2Zm10.028 0a2 2 0 0 1 2-2h.01a2 2 0 0 1 0 4h-.01a2 2 0 0 1-2-2Zm10.029 0a2 2 0 0 1 2-2h.01a2 2 0 0 1 0 4h-.01a2 2 0 0 1-2-2Zm10.029 0a2 2 0 0 1 2-2h.01a2 2 0 0 1 0 4h-.01a2 2 0 0 1-2-2Zm10.029 0a2 2 0 0 1 2-2h.01a2 2 0 0 1 0 4h-.01a2 2 0 0 1-2-2Zm10.029 0a2 2 0 0 1 2-2h.01a2 2 0 0 1 0 4h-.01a2 2 0 0 1-2-2Zm10.029 0a2 2 0 0 1 2-2h.01a2 2 0 0 1 0 4h-.01a2 2 0 0 1-2-2Zm10.029 0a2 2 0 0 1 2-2h.01a2 2 0 0 1 0 4h-.01a2 2 0 0 1-2-2Zm10.029 0a2 2 0 0 1 2-2h.01a2 2 0 0 1 0 4h-.01a2 2 0 0 1-2-2Zm10.029 0a2 2 0 0 1 2-2h.01a2 2 0 0 1 0 4h-.01a2 2 0 0 1-2-2Zm10.029 0a2 2 0 0 1 2-2h.01a2 2 0 0 1 0 4h-.01a2 2 0 0 1-2-2Zm10.029 0a2 2 0 0 1 2-2h.01a2 2 0 0 1 0 4h-.01a2 2 0 0 1-2-2Zm10.029 0a2 2 0 0 1 2-2h.01a2 2 0 0 1 0 4h-.01a2 2 0 0 1-2-2Zm10.029 0a2 2 0 0 1 2-2h.01a2 2 0 0 1 0 4h-.01a2 2 0 0 1-2-2Zm10.029 0a2 2 0 0 1 2-2h.01a2 2 0 0 1 0 4h-.01a2 2 0 0 1-2-2Zm10.029 0a2 2 0 0 1 2-2h.01a2 2 0 0 1 0 4h-.01a2 2 0 0 1-2-2Zm10.029 0a2 2 0 0 1 2-2h.01a2 2 0 0 1 0 4h-.01a2 2 0 0 1-2-2Zm10.028 0a2 2 0 0 1 2-2h.011a2 2 0 0 1 0 4h-.011a2 2 0 0 1-2-2Zm10.029 0a2 2 0 0 1 2-2h.01a2 2 0 0 1 0 4h-.01a2 2 0 0 1-2-2Zm10.029 0a2 2 0 0 1 2-2h.01a2 2 0 0 1 0 4h-.01a2 2 0 0 1-2-2Zm10.029 0a2 2 0 0 1 2-2h.01a2 2 0 0 1 0 4h-.01a2 2 0 0 1-2-2Zm10.029 0a2 2 0 0 1 2-2h.01a2 2 0 0 1 0 4h-.01a2 2 0 0 1-2-2Zm10.029 0a2 2 0 0 1 2-2h.01a2 2 0 0 1 0 4h-.01a2 2 0 0 1-2-2Zm10.029 0a2 2 0 0 1 2-2h.01a2 2 0 0 1 0 4h-.01a2 2 0 0 1-2-2Zm10.029 0a2 2 0 0 1 2-2h.01a2 2 0 0 1 0 4h-.01a2 2 0 0 1-2-2Zm10.029 0a2 2 0 0 1 2-2h.01a2 2 0 0 1 0 4h-.01a2 2 0 0 1-2-2Zm10.029 0a2 2 0 0 1 2-2h.01a2 2 0 0 1 0 4h-.01a2 2 0 0 1-2-2Zm10.029 0a2 2 0 0 1 2-2h.01a2 2 0 0 1 0 4h-.01a2 2 0 0 1-2-2Zm10.029 0a2 2 0 0 1 2-2h.01a2 2 0 0 1 0 4h-.01a2 2 0 0 1-2-2Zm10.029 0a2 2 0 0 1 2-2h.01a2 2 0 0 1 0 4h-.01a2 2 0 0 1-2-2Zm10.029 0a2 2 0 0 1 2-2h.01a2 2 0 0 1 0 4h-.01a2 2 0 0 1-2-2Zm10.029 0a2 2 0 0 1 2-2h.01a2 2 0 0 1 0 4h-.01a2 2 0 0 1-2-2Zm10.029 0a2 2 0 0 1 2-2h.01a2 2 0 0 1 0 4h-.01a2 2 0 0 1-2-2Zm10.028 0a2 2 0 0 1 2-2h.01a2 2 0 0 1 0 4h-.01a2 2 0 0 1-2-2Zm10.029 0a2 2 0 0 1 2-2h.01a2 2 0 0 1 0 4h-.01a2 2 0 0 1-2-2Zm10.029 0a2 2 0 0 1 2-2h.01a2 2 0 0 1 0 4h-.01a2 2 0 0 1-2-2Zm10.029 0a2 2 0 0 1 2-2h.01a2 2 0 0 1 0 4h-.01a2 2 0 0 1-2-2Zm10.029 0a2 2 0 0 1 2-2h.01a2 2 0 0 1 0 4h-.01a2 2 0 0 1-2-2Zm10.029 0a2 2 0 0 1 2-2h.01a2 2 0 0 1 0 4h-.01a2 2 0 0 1-2-2Zm10.029 0a2 2 0 0 1 2-2h.01a2 2 0 0 1 0 4h-.01a2 2 0 0 1-2-2Zm10.029 0a2 2 0 0 1 2-2h.01a2 2 0 0 1 0 4h-.01a2 2 0 0 1-2-2Zm10.029 0a2 2 0 0 1 2-2h.01a2 2 0 0 1 0 4h-.01a2 2 0 0 1-2-2Zm10.029 0a2 2 0 0 1 2-2h.01a2 2 0 0 1 0 4h-.01a2 2 0 0 1-2-2Zm10.029 0a2 2 0 0 1 2-2h.01a2 2 0 0 1 0 4h-.01a2 2 0 0 1-2-2Zm10.029 0a2 2 0 0 1 2-2h.01a2 2 0 0 1 0 4h-.01a2 2 0 0 1-2-2Zm10.029 0a2 2 0 0 1 2-2h.01a2 2 0 0 1 0 4h-.01a2 2 0 0 1-2-2Zm10.029 0a2 2 0 0 1 2-2h.01a2 2 0 0 1 0 4h-.01a2 2 0 0 1-2-2Zm10.028 0a2 2 0 0 1 2-2h.01a2 2 0 0 1 0 4h-.01a2 2 0 0 1-2-2Zm10.029 0a2 2 0 0 1 2-2h.01a2 2 0 0 1 0 4h-.01a2 2 0 0 1-2-2Zm10.029 0a2 2 0 0 1 2-2h.01a2 2 0 0 1 0 4h-.01a2 2 0 0 1-2-2Zm10.029 0a2 2 0 0 1 2-2h.01a2 2 0 0 1 0 4h-.01a2 2 0 0 1-2-2Zm10.029 0a2 2 0 0 1 2-2h.01a2 2 0 0 1 0 4h-.01a2 2 0 0 1-2-2Zm10.029 0a2 2 0 0 1 2-2h.01a2 2 0 0 1 0 4h-.01a2 2 0 0 1-2-2Zm10.029 0a2 2 0 0 1 2-2h.01a2 2 0 0 1 0 4h-.01a2 2 0 0 1-2-2Zm10.029 0a2 2 0 0 1 2-2h.01a2 2 0 0 1 0 4h-.01a2 2 0 0 1-2-2Zm10.029 0a2 2 0 0 1 2-2h.01a2 2 0 0 1 0 4h-.01a2 2 0 0 1-2-2Zm10.029 0a2 2 0 0 1 2-2h.01a2 2 0 0 1 0 4h-.01a2 2 0 0 1-2-2Zm10.029 0a2 2 0 0 1 2-2h.01a2 2 0 0 1 0 4h-.01a2 2 0 0 1-2-2Zm10.029 0a2 2 0 0 1 2-2h.01a2 2 0 0 1 0 4h-.01a2 2 0 0 1-2-2Zm10.029 0a2 2 0 0 1 2-2h.01a2 2 0 0 1 0 4h-.01a2 2 0 0 1-2-2Zm10.029 0a2 2 0 0 1 2-2h.01a2 2 0 0 1 0 4h-.01a2 2 0 0 1-2-2Zm10.028 0a2 2 0 0 1 2-2h.01a2 2 0 0 1 0 4h-.01a2 2 0 0 1-2-2Zm10.029 0a2 2 0 0 1 2-2h.01a2 2 0 0 1 0 4h-.01a2 2 0 0 1-2-2Zm10.029 0a2 2 0 0 1 2-2h.01a2 2 0 0 1 0 4h-.01a2 2 0 0 1-2-2Zm-679.962 8.328a2 2 0 0 1 2 2v.011a2 2 0 0 1-4 0v-.011a2 2 0 0 1 2-2Zm691.996 0a2 2 0 0 1 2 2l.001.01a2 2 0 1 1-4 .001l-.001-.011a2 2 0 0 1 2-2ZM29.003 293.662a2 2 0 0 1 2 2v.01a2 2 0 0 1-4 0v-.01a2 2 0 0 1 2-2Zm691.997 0a2 2 0 0 1 2 2v.01a2 2 0 0 1-4 0v-.01a2 2 0 0 1 2-2ZM29.003 303.995a2 2 0 0 1 2 2v.01a2 2 0 0 1-4 0v-.01a2 2 0 0 1 2-2Zm691.997 0a2 2 0 0 1 2 2v.01a2 2 0 0 1-4 0v-.01a2 2 0 0 1 2-2ZM29.003 314.328a2 2 0 0 1 2 2v.011a2 2 0 0 1-4 0v-.011a2 2 0 0 1 2-2Zm691.997 0a2 2 0 0 1 2 2v.011a2 2 0 0 1-4 0v-.011a2 2 0 0 1 2-2ZM29.003 324.662a2 2 0 0 1 2 2v.01a2 2 0 0 1-4 0v-.01a2 2 0 0 1 2-2Zm691.997 0a2 2 0 0 1 2 2v.01a2 2 0 0 1-4 0v-.01a2 2 0 0 1 2-2ZM29.003 334.995a2 2 0 0 1 2 2v.01a2 2 0 0 1-4 0v-.01a2 2 0 0 1 2-2Zm691.997 0a2 2 0 0 1 2 2v.01a2 2 0 0 1-4 0v-.01a2 2 0 0 1 2-2ZM29.003 345.328a2 2 0 0 1 2 2v.011a2 2 0 0 1-4 0v-.011a2 2 0 0 1 2-2Zm691.997 0a2 2 0 0 1 2 2v.011a2 2 0 0 1-4 0v-.011a2 2 0 0 1 2-2Zm0 10.334a2 2 0 0 1 2 2v.01a2 2 0 0 1-4 0v-.01a2 2 0 0 1 2-2Zm-691.997 0a2 2 0 0 1 2 2v.01a2 2 0 0 1-4 0v-.01a2 2 0 0 1 2-2Zm0 10.333a2 2 0 0 1 2 2v.01a2 2 0 0 1-4 0v-.01a2 2 0 0 1 2-2Zm691.997 0a2 2 0 0 1 2 2v.01a2 2 0 0 1-4 0v-.01a2 2 0 0 1 2-2ZM29.003 376.328a2 2 0 0 1 2 2v.011a2 2 0 0 1-4 0v-.011a2 2 0 0 1 2-2Zm691.997 0a2 2 0 0 1 2 2v.011a2 2 0 0 1-4 0v-.011a2 2 0 0 1 2-2ZM29.003 386.662a2 2 0 0 1 2 2v.01a2 2 0 0 1-4 0v-.01a2 2 0 0 1 2-2Zm691.997 0a2 2 0 0 1 2 2v.01a2 2 0 0 1-4 0v-.01a2 2 0 0 1 2-2Zm0 10.333a2 2 0 0 1 2 2v.01a1.999 1.999 0 0 1-3.383 1.445 1.99 1.99 0 0 1-.625-1.451 1.986 1.986 0 0 1 .627-1.451 1.992 1.992 0 0 1 1.381-.553Zm-690.56.609a2.006 2.006 0 0 0-2.187-.463 2.006 2.006 0 0 0-1.25 1.854v.01a2 2 0 0 0 3.437 1.391 1.996 1.996 0 0 0 0-2.792ZM37.027 399a2 2 0 0 1 2-2h.01a2 2 0 0 1 0 4h-.01a2 2 0 0 1-2-2Zm10.029 0a2 2 0 0 1 2-2h.01a2 2 0 0 1 0 4h-.01a2 2 0 0 1-2-2Zm10.029 0a2 2 0 0 1 2-2h.01a2 2 0 0 1 0 4h-.01a2 2 0 0 1-2-2Zm10.029 0a2 2 0 0 1 2-2h.01a2 2 0 0 1 0 4h-.01a2 2 0 0 1-2-2Zm10.028 0a2 2 0 0 1 2-2h.011a2 2 0 0 1 0 4h-.011a2 2 0 0 1-2-2Zm10.029 0a2 2 0 0 1 2-2h.01a2 2 0 0 1 0 4h-.01a2 2 0 0 1-2-2Zm10.029 0a2 2 0 0 1 2-2h.01a2 2 0 0 1 0 4h-.01a2 2 0 0 1-2-2Zm10.029 0a2 2 0 0 1 2-2h.01a2 2 0 0 1 0 4h-.01a2 2 0 0 1-2-2Zm10.029 0a2 2 0 0 1 2-2h.01a2 2 0 0 1 0 4h-.01a2 2 0 0 1-2-2Zm10.029 0a2 2 0 0 1 2-2h.01a2 2 0 0 1 0 4h-.01a2 2 0 0 1-2-2Zm10.029 0a2 2 0 0 1 2-2h.01a2 2 0 0 1 0 4h-.01a2 2 0 0 1-2-2Zm10.029 0a2 2 0 0 1 2-2h.01a2 2 0 0 1 0 4h-.01a2 2 0 0 1-2-2Zm10.029 0a2 2 0 0 1 2-2h.01a2 2 0 0 1 0 4h-.01a2 2 0 0 1-2-2Zm10.029 0a2 2 0 0 1 2-2h.01a2 2 0 0 1 0 4h-.01a2 2 0 0 1-2-2Zm10.029 0a2 2 0 0 1 2-2h.01a2 2 0 0 1 0 4h-.01a2 2 0 0 1-2-2Zm10.029 0a2 2 0 0 1 2-2h.01a2 2 0 0 1 0 4h-.01a2 2 0 0 1-2-2Zm10.029 0a2 2 0 0 1 2-2h.01a2 2 0 0 1 0 4h-.01a2 2 0 0 1-2-2Zm10.029 0a2 2 0 0 1 2-2h.01a2 2 0 0 1 0 4h-.01a2 2 0 0 1-2-2Zm10.029 0a2 2 0 0 1 2-2h.01a2 2 0 0 1 0 4h-.01a2 2 0 0 1-2-2Zm10.029 0a2 2 0 0 1 2-2h.01a2 2 0 0 1 0 4h-.01a2 2 0 0 1-2-2Zm10.029 0a2 2 0 0 1 2-2h.01a2 2 0 0 1 0 4h-.01a2 2 0 0 1-2-2Zm10.029 0a2 2 0 0 1 2-2h.01a2 2 0 0 1 0 4h-.01a2 2 0 0 1-2-2Zm10.028 0a2 2 0 0 1 2-2h.01a2 2 0 0 1 0 4h-.01a2 2 0 0 1-2-2Zm10.029 0a2 2 0 0 1 2-2h.01a2 2 0 0 1 0 4h-.01a2 2 0 0 1-2-2Zm10.029 0a2 2 0 0 1 2-2h.01a2 2 0 0 1 0 4h-.01a2 2 0 0 1-2-2Zm10.029 0a2 2 0 0 1 2-2h.01a2 2 0 0 1 0 4h-.01a2 2 0 0 1-2-2Zm10.029 0a2 2 0 0 1 2-2h.01a2 2 0 0 1 0 4h-.01a2 2 0 0 1-2-2Zm10.029 0a2 2 0 0 1 2-2h.01a2 2 0 0 1 0 4h-.01a2 2 0 0 1-2-2Zm10.029 0a2 2 0 0 1 2-2h.01a2 2 0 0 1 0 4h-.01a2 2 0 0 1-2-2Zm10.029 0a2 2 0 0 1 2-2h.01a2 2 0 0 1 0 4h-.01a2 2 0 0 1-2-2Zm10.029 0a2 2 0 0 1 2-2h.01a2 2 0 0 1 0 4h-.01a2 2 0 0 1-2-2Zm10.029 0a2 2 0 0 1 2-2h.01a2 2 0 0 1 0 4h-.01a2 2 0 0 1-2-2Zm10.029 0a2 2 0 0 1 2-2h.01a2 2 0 0 1 0 4h-.01a2 2 0 0 1-2-2Zm10.029 0a2 2 0 0 1 2-2h.01a2 2 0 0 1 0 4h-.01a2 2 0 0 1-2-2Zm10.029 0a2 2 0 0 1 2-2h.01a2 2 0 0 1 0 4h-.01a2 2 0 0 1-2-2Zm10.029 0a2 2 0 0 1 2-2h.01a2 2 0 0 1 0 4h-.01a2 2 0 0 1-2-2Zm10.029 0a2 2 0 0 1 2-2h.01a2 2 0 0 1 0 4h-.01a2 2 0 0 1-2-2Zm10.028 0a2 2 0 0 1 2-2h.011a2 2 0 0 1 0 4h-.011a2 2 0 0 1-2-2Zm10.029 0a2 2 0 0 1 2-2h.01a2 2 0 0 1 0 4h-.01a2 2 0 0 1-2-2Zm10.029 0a2 2 0 0 1 2-2h.01a2 2 0 0 1 0 4h-.01a2 2 0 0 1-2-2Zm10.029 0a2 2 0 0 1 2-2h.01a2 2 0 0 1 0 4h-.01a2 2 0 0 1-2-2Zm10.029 0a2 2 0 0 1 2-2h.01a2 2 0 0 1 0 4h-.01a2 2 0 0 1-2-2Zm10.029 0a2 2 0 0 1 2-2h.01a2 2 0 0 1 0 4h-.01a2 2 0 0 1-2-2Zm10.029 0a2 2 0 0 1 2-2h.01a2 2 0 0 1 0 4h-.01a2 2 0 0 1-2-2Zm10.029 0a2 2 0 0 1 2-2h.01a2 2 0 0 1 0 4h-.01a2 2 0 0 1-2-2Zm10.029 0a2 2 0 0 1 2-2h.01a2 2 0 0 1 0 4h-.01a2 2 0 0 1-2-2Zm10.029 0a2 2 0 0 1 2-2h.01a2 2 0 0 1 0 4h-.01a2 2 0 0 1-2-2Zm10.029 0a2 2 0 0 1 2-2h.01a2 2 0 0 1 0 4h-.01a2 2 0 0 1-2-2Zm10.029 0a2 2 0 0 1 2-2h.01a2 2 0 0 1 0 4h-.01a2 2 0 0 1-2-2Zm10.029 0a2 2 0 0 1 2-2h.01a2 2 0 0 1 0 4h-.01a2 2 0 0 1-2-2Zm10.029 0a2 2 0 0 1 2-2h.01a2 2 0 0 1 0 4h-.01a2 2 0 0 1-2-2Zm10.029 0a2 2 0 0 1 2-2h.01a2 2 0 0 1 0 4h-.01a2 2 0 0 1-2-2Zm10.029 0a2 2 0 0 1 2-2h.01a2 2 0 0 1 0 4h-.01a2 2 0 0 1-2-2Zm10.028 0a2 2 0 0 1 2-2h.01a2 2 0 0 1 0 4h-.01a2 2 0 0 1-2-2Zm10.029 0a2 2 0 0 1 2-2h.01a2 2 0 0 1 0 4h-.01a2 2 0 0 1-2-2Zm10.029 0a2 2 0 0 1 2-2h.01a2 2 0 0 1 0 4h-.01a2 2 0 0 1-2-2Zm10.029 0a2 2 0 0 1 2-2h.01a2 2 0 0 1 0 4h-.01a2 2 0 0 1-2-2Zm10.029 0a2 2 0 0 1 2-2h.01a2 2 0 0 1 0 4h-.01a2 2 0 0 1-2-2Zm10.029 0a2 2 0 0 1 2-2h.01a2 2 0 0 1 0 4h-.01a2 2 0 0 1-2-2Zm10.029 0a2 2 0 0 1 2-2h.01a2 2 0 0 1 0 4h-.01a2 2 0 0 1-2-2Zm10.029 0a2 2 0 0 1 2-2h.01a2 2 0 0 1 0 4h-.01a2 2 0 0 1-2-2Zm10.029 0a2 2 0 0 1 2-2h.01a2 2 0 0 1 0 4h-.01a2 2 0 0 1-2-2Zm10.029 0a2 2 0 0 1 2-2h.01a2 2 0 0 1 0 4h-.01a2 2 0 0 1-2-2Zm10.029 0a2 2 0 0 1 2-2h.01a2 2 0 0 1 0 4h-.01a2 2 0 0 1-2-2Zm10.029 0a2 2 0 0 1 2-2h.01a2 2 0 0 1 0 4h-.01a2 2 0 0 1-2-2Zm10.029 0a2 2 0 0 1 2-2h.01a2 2 0 0 1 0 4h-.01a2 2 0 0 1-2-2Zm10.029 0a2 2 0 0 1 2-2h.01a2 2 0 0 1 0 4h-.01a2 2 0 0 1-2-2Zm10.028 0a2 2 0 0 1 2-2h.01a2 2 0 0 1 0 4h-.01a2 2 0 0 1-2-2ZM27.003 409.328a2 2 0 0 1 4 0v.011a2 2 0 0 1-4 0v-.011Zm693.997-2a2 2 0 0 1 2 2v.011a2 2 0 0 1-4 0v-.011a2 2 0 0 1 2-2ZM27.003 419.662a2 2 0 0 1 4 0v.01a2 2 0 0 1-4 0v-.01Zm693.997-2a2 2 0 0 1 2 2v.01a2 2 0 0 1-4 0v-.01a2 2 0 0 1 2-2ZM29.003 427.995a2 2 0 0 1 2 2v.01a2 2 0 0 1-4 0v-.01a2 2 0 0 1 2-2Zm691.997 0a2 2 0 0 1 2 2v.01a2 2 0 0 1-4 0v-.01a2 2 0 0 1 2-2ZM29.003 438.328a2 2 0 0 1 2 2v.011a2 2 0 0 1-4 0v-.011a2 2 0 0 1 2-2Zm691.997 0a2 2 0 0 1 2 2v.011a2 2 0 0 1-4 0v-.011a2 2 0 0 1 2-2ZM27.003 450.662a2 2 0 0 1 4 0v.01a2 2 0 0 1-4 0v-.01Zm693.996-2a2 2 0 0 1 2 2v.01a2 2 0 0 1-4 0v-.01a2 2 0 0 1 2-2ZM29.003 458.995a2 2 0 0 1 2 2v.01a2 2 0 0 1-4 0v-.01a2 2 0 0 1 2-2Zm691.996 0a2 2 0 0 1 2 2v.01a2 2 0 0 1-4 0v-.01a2 2 0 0 1 2-2ZM29.003 469.328a2 2 0 0 1 2 2v.011a2 2 0 0 1-4 0v-.011a2 2 0 0 1 2-2Zm691.996 0a2 2 0 0 1 2 2v.011a2 2 0 0 1-4 0v-.011a2 2 0 0 1 2-2ZM29.003 479.662a2 2 0 0 1 2 2v.01a2 2 0 0 1-4 0v-.01a2 2 0 0 1 2-2Zm691.996 0a2 2 0 0 1 2 2v.01a2 2 0 0 1-4 0v-.01a2 2 0 0 1 2-2ZM27.003 491.995a2 2 0 0 1 4 0v.01a2 2 0 0 1-4 0v-.01Zm693.996-2a2 2 0 0 1 2 2v.01a2 2 0 0 1-4 0v-.01a2 2 0 0 1 2-2ZM29.003 500.328a2 2 0 0 1 2 2v.011a2 2 0 0 1-4 0v-.011a2 2 0 0 1 2-2Zm691.996 0a2 2 0 0 1 2 2v.011a2 2 0 0 1-4 0v-.011a2 2 0 0 1 2-2ZM29.003 510.662a2 2 0 0 1 2 2v.01a2 2 0 0 1-4 0v-.01a2 2 0 0 1 2-2Zm691.996 0a2 2 0 0 1 2 2v.01a2 2 0 0 1-4 0v-.01a2 2 0 0 1 2-2ZM30.44 521.605a1.99 1.99 0 0 0-1.023-.566 1.992 1.992 0 0 0-2.073.838 2 2 0 0 0-.342 1.118v.01a2.001 2.001 0 0 0 3.438 1.391 1.996 1.996 0 0 0 0-2.791Zm689.137-.017a2 2 0 0 1 3.422 1.407v.01a2.004 2.004 0 0 1-1.239 1.85 2.004 2.004 0 0 1-2.183-3.267ZM37.027 523a2 2 0 0 1 2-2h.01a2 2 0 0 1 0 4h-.01a2 2 0 0 1-2-2Zm10.028 0a2 2 0 0 1 2-2h.01a2 2 0 0 1 0 4h-.01a2 2 0 0 1-2-2Zm10.03 0a2 2 0 0 1 2-2h.01a2 2 0 0 1 0 4h-.01a2 2 0 0 1-2-2Zm10.028 0a2 2 0 0 1 2-2h.01a2 2 0 0 1 0 4h-.01a2 2 0 0 1-2-2Zm10.029 0a2 2 0 0 1 2-2h.01a2 2 0 0 1 0 4h-.01a2 2 0 0 1-2-2Zm10.029 0a2 2 0 0 1 2-2h.01a2 2 0 0 1 0 4h-.01a2 2 0 0 1-2-2Zm10.029 0a2 2 0 0 1 2-2h.01a2 2 0 0 1 0 4h-.01a2 2 0 0 1-2-2Zm10.029 0a2 2 0 0 1 2-2h.01a2 2 0 0 1 0 4h-.01a2 2 0 0 1-2-2Zm10.029 0a2 2 0 0 1 2-2h.01a2 2 0 0 1 0 4h-.01a2 2 0 0 1-2-2Zm10.029 0a2 2 0 0 1 2-2h.01a2 2 0 0 1 0 4h-.01a2 2 0 0 1-2-2Zm10.029 0a2 2 0 0 1 2-2h.01a2 2 0 0 1 0 4h-.01a2 2 0 0 1-2-2Zm10.029 0a2 2 0 0 1 2-2h.01a2 2 0 0 1 0 4h-.01a2 2 0 0 1-2-2Zm10.029 0a2 2 0 0 1 2-2h.01a2 2 0 0 1 0 4h-.01a2 2 0 0 1-2-2Zm10.029 0a2 2 0 0 1 2-2h.01a2 2 0 0 1 0 4h-.01a2 2 0 0 1-2-2Zm10.029 0a2 2 0 0 1 2-2h.01a2 2 0 0 1 0 4h-.01a2 2 0 0 1-2-2Zm10.028 0a2 2 0 0 1 2-2h.011a2 2 0 0 1 0 4h-.011a2 2 0 0 1-2-2Zm10.029 0a2 2 0 0 1 2-2h.01a2 2 0 0 1 0 4h-.01a2 2 0 0 1-2-2Zm10.029 0a2 2 0 0 1 2-2h.01a2 2 0 0 1 0 4h-.01a2 2 0 0 1-2-2Zm10.029 0a2 2 0 0 1 2-2h.01a2 2 0 0 1 0 4h-.01a2 2 0 0 1-2-2Zm10.029 0a2 2 0 0 1 2-2h.01a2 2 0 0 1 0 4h-.01a2 2 0 0 1-2-2Zm10.029 0a2 2 0 0 1 2-2h.01a2 2 0 0 1 0 4h-.01a2 2 0 0 1-2-2Zm10.029 0a2 2 0 0 1 2-2h.01a2 2 0 0 1 0 4h-.01a2 2 0 0 1-2-2Zm10.029 0a2 2 0 0 1 2-2h.01a2 2 0 0 1 0 4h-.01a2 2 0 0 1-2-2Zm10.029 0a2 2 0 0 1 2-2h.01a2 2 0 0 1 0 4h-.01a2 2 0 0 1-2-2Zm10.029 0a2 2 0 0 1 2-2h.01a2 2 0 0 1 0 4h-.01a2 2 0 0 1-2-2Zm10.029 0a2 2 0 0 1 2-2h.01a2 2 0 0 1 0 4h-.01a2 2 0 0 1-2-2Zm10.029 0a2 2 0 0 1 2-2h.01a2 2 0 0 1 0 4h-.01a2 2 0 0 1-2-2Zm10.029 0a2 2 0 0 1 2-2h.01a2 2 0 0 1 0 4h-.01a2 2 0 0 1-2-2Zm10.029 0a2 2 0 0 1 2-2h.01a2 2 0 0 1 0 4h-.01a2 2 0 0 1-2-2Zm10.029 0a2 2 0 0 1 2-2h.01a2 2 0 0 1 0 4h-.01a2 2 0 0 1-2-2Zm10.028 0a2 2 0 0 1 2-2h.01a2 2 0 0 1 0 4h-.01a2 2 0 0 1-2-2Zm10.029 0a2 2 0 0 1 2-2h.01a2 2 0 0 1 0 4h-.01a2 2 0 0 1-2-2Zm10.029 0a2 2 0 0 1 2-2h.01a2 2 0 0 1 0 4h-.01a2 2 0 0 1-2-2Zm10.029 0a2 2 0 0 1 2-2h.01a2 2 0 0 1 0 4h-.01a2 2 0 0 1-2-2Zm10.029 0a2 2 0 0 1 2-2h.01a2 2 0 0 1 0 4h-.01a2 2 0 0 1-2-2Zm10.029 0a2 2 0 0 1 2-2h.01a2 2 0 0 1 0 4h-.01a2 2 0 0 1-2-2Zm10.029 0a2 2 0 0 1 2-2h.01a2 2 0 0 1 0 4h-.01a2 2 0 0 1-2-2Zm10.029 0a2 2 0 0 1 2-2h.01a2 2 0 0 1 0 4h-.01a2 2 0 0 1-2-2Zm10.029 0a2 2 0 0 1 2-2h.01a2 2 0 0 1 0 4h-.01a2 2 0 0 1-2-2Zm10.029 0a2 2 0 0 1 2-2h.01a2 2 0 0 1 0 4h-.01a2 2 0 0 1-2-2Zm10.029 0a2 2 0 0 1 2-2h.01a2 2 0 0 1 0 4h-.01a2 2 0 0 1-2-2Zm10.029 0a2 2 0 0 1 2-2h.01a2 2 0 0 1 0 4h-.01a2 2 0 0 1-2-2Zm10.029 0a2 2 0 0 1 2-2h.01a2 2 0 0 1 0 4h-.01a2 2 0 0 1-2-2Zm10.029 0a2 2 0 0 1 2-2h.01a2 2 0 0 1 0 4h-.01a2 2 0 0 1-2-2Zm10.028 0a2 2 0 0 1 2-2h.01a2 2 0 0 1 0 4h-.01a2 2 0 0 1-2-2Zm10.029 0a2 2 0 0 1 2-2h.01a2 2 0 0 1 0 4h-.01a2 2 0 0 1-2-2Zm10.029 0a2 2 0 0 1 2-2h.01a2 2 0 0 1 0 4h-.01a2 2 0 0 1-2-2Zm10.029 0a2 2 0 0 1 2-2h.01a2 2 0 0 1 0 4h-.01a2 2 0 0 1-2-2Zm10.029 0a2 2 0 0 1 2-2h.01a2 2 0 0 1 0 4h-.01a2 2 0 0 1-2-2Zm10.029 0a2 2 0 0 1 2-2h.01a2 2 0 0 1 0 4h-.01a2 2 0 0 1-2-2Zm10.029 0a2 2 0 0 1 2-2h.01a2 2 0 0 1 0 4h-.01a2 2 0 0 1-2-2Zm10.029 0a2 2 0 0 1 2-2h.01a2 2 0 0 1 0 4h-.01a2 2 0 0 1-2-2Zm10.029 0a2 2 0 0 1 2-2h.01a2 2 0 0 1 0 4h-.01a2 2 0 0 1-2-2Zm10.029 0a2 2 0 0 1 2-2h.01a2 2 0 0 1 0 4h-.01a2 2 0 0 1-2-2Zm10.029 0a2 2 0 0 1 2-2h.01a2 2 0 0 1 0 4h-.01a2 2 0 0 1-2-2Zm10.029 0a2 2 0 0 1 2-2h.01a2 2 0 0 1 0 4h-.01a2 2 0 0 1-2-2Zm10.029 0a2 2 0 0 1 2-2h.01a2 2 0 0 1 0 4h-.01a2 2 0 0 1-2-2Zm10.029 0a2 2 0 0 1 2-2h.01a2 2 0 0 1 0 4h-.01a2 2 0 0 1-2-2Zm10.028 0a2 2 0 0 1 2-2h.011a2 2 0 0 1 0 4h-.011a2 2 0 0 1-2-2Zm10.029 0a2 2 0 0 1 2-2h.01a2 2 0 0 1 0 4h-.01a2 2 0 0 1-2-2Zm10.029 0a2 2 0 0 1 2-2h.01a2 2 0 0 1 0 4h-.01a2 2 0 0 1-2-2Zm10.029 0a2 2 0 0 1 2-2h.01a2 2 0 0 1 0 4h-.01a2 2 0 0 1-2-2Zm10.029 0a2 2 0 0 1 2-2h.01a2 2 0 0 1 0 4h-.01a2 2 0 0 1-2-2Zm10.029 0a2 2 0 0 1 2-2h.01a2 2 0 0 1 0 4h-.01a2 2 0 0 1-2-2Zm10.029 0a2 2 0 0 1 2-2h.01a2 2 0 0 1 0 4h-.01a2 2 0 0 1-2-2Zm10.029 0a2 2 0 0 1 2-2h.01a2 2 0 0 1 0 4h-.01a2 2 0 0 1-2-2Zm10.029 0a2 2 0 0 1 2-2h.01a2 2 0 0 1 0 4h-.01a2 2 0 0 1-2-2Zm10.029 0a2 2 0 0 1 2-2h.01a2 2 0 0 1 0 4h-.01a2 2 0 0 1-2-2Zm12.034 8.328a2 2 0 0 1 2 2v.011a2 2 0 0 1-4 0v-.011a2 2 0 0 1 2-2Zm-691.996 0a2 2 0 0 1 2 2v.011a2 2 0 0 1-4 0v-.011a2 2 0 0 1 2-2Zm0 10.334a2 2 0 0 1 2 2v.01a2 2 0 0 1-4 0v-.01a2 2 0 0 1 2-2Zm691.996 0a2 2 0 0 1 2 2v.01a2 2 0 0 1-4 0v-.01a2 2 0 0 1 2-2ZM29.002 551.995a2 2 0 0 1 2 2v.01a2 2 0 0 1-4 0v-.01a2 2 0 0 1 2-2Zm691.997 0a2 2 0 0 1 2 2v.01a2 2 0 0 1-4 0v-.01a2 2 0 0 1 2-2Zm0 10.333a2 2 0 0 1 2 2v.011a2 2 0 0 1-4 0v-.011a2 2 0 0 1 2-2Zm-691.997 0a2 2 0 0 1 2 2v.011a2 2 0 0 1-4 0v-.011a2 2 0 0 1 2-2Zm0 10.334a2 2 0 0 1 2 2v.01a2 2 0 0 1-4 0v-.01a2 2 0 0 1 2-2Zm691.997 0a2 2 0 0 1 2 2v.01a2 2 0 0 1-4 0v-.01a2 2 0 0 1 2-2ZM29.002 582.995a2 2 0 0 1 2 2v.01a2 2 0 0 1-4 0v-.01a2 2 0 0 1 2-2Zm691.997 0a2 2 0 0 1 2 2v.01a2 2 0 0 1-4 0v-.01a2 2 0 0 1 2-2ZM29.002 593.328a2 2 0 0 1 2 2v.011a2 2 0 0 1-4 0v-.011a2 2 0 0 1 2-2Zm691.997 0a2 2 0 0 1 2 2v.011a2 2 0 0 1-4 0v-.011a2 2 0 0 1 2-2Zm0 10.334a2 2 0 0 1 2 2v.01a2 2 0 0 1-4 0v-.01a2 2 0 0 1 2-2Zm-691.997 0a2 2 0 0 1 2 2v.01a2 2 0 0 1-4 0v-.01a2 2 0 0 1 2-2Zm0 10.333a2 2 0 0 1 2 2v.01a2 2 0 0 1-4 0v-.01a2 2 0 0 1 2-2Zm691.997 0a2 2 0 0 1 2 2v.01a2 2 0 0 1-4 0v-.01a2 2 0 0 1 2-2ZM29.002 624.328a2 2 0 0 1 2 2v.011a2 2 0 0 1-4 0v-.011a2 2 0 0 1 2-2Zm691.997 0a2 2 0 0 1 2 2v.011a2 2 0 0 1-4 0v-.011a2 2 0 0 1 2-2ZM29.002 634.662a2 2 0 0 1 2 2v.01a2 2 0 0 1-4 0v-.01a2 2 0 0 1 2-2Zm691.997 0a2 2 0 0 1 2 2v.01a2 2 0 0 1-4 0v-.01a2 2 0 0 1 2-2ZM30.441 645.606a1.999 1.999 0 0 0-3.097.271c-.223.33-.342.719-.342 1.118v.01a1.997 1.997 0 0 0 1.252 1.854 2.002 2.002 0 0 0 2.188-.467c.35-.36.565-.851.565-1.392a1.99 1.99 0 0 0-.566-1.394Zm690.558-.611a2 2 0 0 1 2 2v.01a2.004 2.004 0 0 1-1.19 1.829 2.005 2.005 0 0 1-2.644-1.02 1.988 1.988 0 0 1 0-1.628c.114-.256.281-.485.49-.672.367-.335.847-.52 1.344-.519ZM37.025 647a2 2 0 0 1 2-2h.01a2 2 0 0 1 0 4h-.01a2 2 0 0 1-2-2Zm10.03 0a2 2 0 0 1 2-2h.01a2 2 0 0 1 0 4h-.01a2 2 0 0 1-2-2Zm10.028 0a2 2 0 0 1 2-2h.01a2 2 0 0 1 0 4h-.01a2 2 0 0 1-2-2Zm10.029 0a2 2 0 0 1 2-2h.01a2 2 0 0 1 0 4h-.01a2 2 0 0 1-2-2Zm10.029 0a2 2 0 0 1 2-2h.01a2 2 0 0 1 0 4h-.01a2 2 0 0 1-2-2Zm10.029 0a2 2 0 0 1 2-2h.01a2 2 0 0 1 0 4h-.01a2 2 0 0 1-2-2Zm10.029 0a2 2 0 0 1 2-2h.01a2 2 0 0 1 0 4h-.01a2 2 0 0 1-2-2Zm10.029 0a2 2 0 0 1 2-2h.01a2 2 0 0 1 0 4h-.01a2 2 0 0 1-2-2Zm10.029 0a2 2 0 0 1 2-2h.01a2 2 0 0 1 0 4h-.01a2 2 0 0 1-2-2Zm10.029 0a2 2 0 0 1 2-2h.01a2 2 0 0 1 0 4h-.01a2 2 0 0 1-2-2Zm10.029 0a2 2 0 0 1 2-2h.01a2 2 0 0 1 0 4h-.01a2 2 0 0 1-2-2Zm10.029 0a2 2 0 0 1 2-2h.01a2 2 0 0 1 0 4h-.01a2 2 0 0 1-2-2Zm10.029 0a2 2 0 0 1 2-2h.01a2 2 0 0 1 0 4h-.01a2 2 0 0 1-2-2Zm10.029 0a2 2 0 0 1 2-2h.01a2 2 0 0 1 0 4h-.01a2 2 0 0 1-2-2Zm10.029 0a2 2 0 0 1 2-2h.01a2 2 0 0 1 0 4h-.01a2 2 0 0 1-2-2Zm10.029 0a2 2 0 0 1 2-2h.01a2 2 0 0 1 0 4h-.01a2 2 0 0 1-2-2Zm10.029 0a2 2 0 0 1 2-2h.01a2 2 0 0 1 0 4h-.01a2 2 0 0 1-2-2Zm10.029 0a2 2 0 0 1 2-2h.01a2 2 0 0 1 0 4h-.01a2 2 0 0 1-2-2Zm10.029 0a2 2 0 0 1 2-2h.01a2 2 0 0 1 0 4h-.01a2 2 0 0 1-2-2Zm10.029 0a2 2 0 0 1 2-2h.01a2 2 0 0 1 0 4h-.01a2 2 0 0 1-2-2Zm10.028 0a2 2 0 0 1 2-2h.011a2 2 0 0 1 0 4h-.011a2 2 0 0 1-2-2Zm10.029 0a2 2 0 0 1 2-2h.01a2 2 0 0 1 0 4h-.01a2 2 0 0 1-2-2Zm10.029 0a2 2 0 0 1 2-2h.01a2 2 0 0 1 0 4h-.01a2 2 0 0 1-2-2Zm10.029 0a2 2 0 0 1 2-2h.01a2 2 0 0 1 0 4h-.01a2 2 0 0 1-2-2Zm10.029 0a2 2 0 0 1 2-2h.01a2 2 0 0 1 0 4h-.01a2 2 0 0 1-2-2Zm10.029 0a2 2 0 0 1 2-2h.01a2 2 0 0 1 0 4h-.01a2 2 0 0 1-2-2Zm10.029 0a2 2 0 0 1 2-2h.01a2 2 0 0 1 0 4h-.01a2 2 0 0 1-2-2Zm10.029 0a2 2 0 0 1 2-2h.01a2 2 0 0 1 0 4h-.01a2 2 0 0 1-2-2Zm10.029 0a2 2 0 0 1 2-2h.01a2 2 0 0 1 0 4h-.01a2 2 0 0 1-2-2Zm10.029 0a2 2 0 0 1 2-2h.01a2 2 0 0 1 0 4h-.01a2 2 0 0 1-2-2Zm10.029 0a2 2 0 0 1 2-2h.01a2 2 0 0 1 0 4h-.01a2 2 0 0 1-2-2Zm10.029 0a2 2 0 0 1 2-2h.01a2 2 0 0 1 0 4h-.01a2 2 0 0 1-2-2Zm10.029 0a2 2 0 0 1 2-2h.01a2 2 0 0 1 0 4h-.01a2 2 0 0 1-2-2Zm10.029 0a2 2 0 0 1 2-2h.01a2 2 0 0 1 0 4h-.01a2 2 0 0 1-2-2Zm10.029 0a2 2 0 0 1 2-2h.01a2 2 0 0 1 0 4h-.01a2 2 0 0 1-2-2Zm10.029 0a2 2 0 0 1 2-2h.01a2 2 0 0 1 0 4h-.01a2 2 0 0 1-2-2Zm10.029 0a2 2 0 0 1 2-2h.01a2 2 0 0 1 0 4h-.01a2 2 0 0 1-2-2Zm10.028 0a2 2 0 0 1 2-2h.01a2 2 0 0 1 0 4h-.01a2 2 0 0 1-2-2Zm10.029 0a2 2 0 0 1 2-2h.01a2 2 0 0 1 0 4h-.01a2 2 0 0 1-2-2Zm10.029 0a2 2 0 0 1 2-2h.01a2 2 0 0 1 0 4h-.01a2 2 0 0 1-2-2Zm10.029 0a2 2 0 0 1 2-2h.01a2 2 0 0 1 0 4h-.01a2 2 0 0 1-2-2Zm10.029 0a2 2 0 0 1 2-2h.01a2 2 0 0 1 0 4h-.01a2 2 0 0 1-2-2Zm10.029 0a2 2 0 0 1 2-2h.01a2 2 0 0 1 0 4h-.01a2 2 0 0 1-2-2Zm10.029 0a2 2 0 0 1 2-2h.01a2 2 0 0 1 0 4h-.01a2 2 0 0 1-2-2Zm10.029 0a2 2 0 0 1 2-2h.01a2 2 0 0 1 0 4h-.01a2 2 0 0 1-2-2Zm10.029 0a2 2 0 0 1 2-2h.01a2 2 0 0 1 0 4h-.01a2 2 0 0 1-2-2Zm10.029 0a2 2 0 0 1 2-2h.01a2 2 0 0 1 0 4h-.01a2 2 0 0 1-2-2Zm10.029 0a2 2 0 0 1 2-2h.01a2 2 0 0 1 0 4h-.01a2 2 0 0 1-2-2Zm10.029 0a2 2 0 0 1 2-2h.01a2 2 0 0 1 0 4h-.01a2 2 0 0 1-2-2Zm10.029 0a2 2 0 0 1 2-2h.01a2 2 0 0 1 0 4h-.01a2 2 0 0 1-2-2Zm10.029 0a2 2 0 0 1 2-2h.01a2 2 0 0 1 0 4h-.01a2 2 0 0 1-2-2Zm10.028 0a2 2 0 0 1 2-2h.011a2 2 0 0 1 0 4h-.011a2 2 0 0 1-2-2Zm10.029 0a2 2 0 0 1 2-2h.01a2 2 0 0 1 0 4h-.01a2 2 0 0 1-2-2Zm10.029 0a2 2 0 0 1 2-2h.01a2 2 0 0 1 0 4h-.01a2 2 0 0 1-2-2Zm10.029 0a2 2 0 0 1 2-2h.01a2 2 0 0 1 0 4h-.01a2 2 0 0 1-2-2Zm10.029 0a2 2 0 0 1 2-2h.01a2 2 0 0 1 0 4h-.01a2 2 0 0 1-2-2Zm10.029 0a2 2 0 0 1 2-2h.01a2 2 0 0 1 0 4h-.01a2 2 0 0 1-2-2Zm10.029 0a2 2 0 0 1 2-2h.01a2 2 0 0 1 0 4h-.01a2 2 0 0 1-2-2Zm10.029 0a2 2 0 0 1 2-2h.01a2 2 0 0 1 0 4h-.01a2 2 0 0 1-2-2Zm10.029 0a2 2 0 0 1 2-2h.01a2 2 0 0 1 0 4h-.01a2 2 0 0 1-2-2Zm10.029 0a2 2 0 0 1 2-2h.01a2 2 0 0 1 0 4h-.01a2 2 0 0 1-2-2Zm10.029 0a2 2 0 0 1 2-2h.01a2 2 0 0 1 0 4h-.01a2 2 0 0 1-2-2Zm10.029 0a2 2 0 0 1 2-2h.01a2 2 0 0 1 0 4h-.01a2 2 0 0 1-2-2Zm10.029 0a2 2 0 0 1 2-2h.01a2 2 0 0 1 0 4h-.01a2 2 0 0 1-2-2Zm10.029 0a2 2 0 0 1 2-2h.01a2 2 0 0 1 0 4h-.01a2 2 0 0 1-2-2Zm10.029 0a2 2 0 0 1 2-2h.01a2 2 0 0 1 0 4h-.01a2 2 0 0 1-2-2Zm10.028 0a2 2 0 0 1 2-2h.01a2 2 0 0 1 0 4h-.01a2 2 0 0 1-2-2Zm10.029 0a2 2 0 0 1 2-2h.01a2 2 0 0 1 0 4h-.01a2 2 0 0 1-2-2Zm-679.963 8.328a2 2 0 0 1 2 2v.011a2 2 0 0 1-4 0v-.011a2 2 0 0 1 2-2Zm691.998 0a2 2 0 0 1 2 2v.011a2 2 0 0 1-4 0v-.011a2 2 0 0 1 2-2ZM29.001 665.662a2 2 0 0 1 2 2v.01a2 2 0 0 1-4 0v-.01a2 2 0 0 1 2-2Zm691.998 0a2 2 0 0 1 2 2v.01a2 2 0 0 1-4 0v-.01a2 2 0 0 1 2-2ZM29.001 675.995a2 2 0 0 1 2 2v.01a2 2 0 0 1-4 0v-.01a2 2 0 0 1 2-2Zm691.998 0a2 2 0 0 1 2 2v.01a2 2 0 0 1-4 0v-.01a2 2 0 0 1 2-2ZM27.001 688.328a2 2 0 0 1 4 0v.011a2 2 0 0 1-4 0v-.011Zm693.998-2a2 2 0 0 1 2 2v.011a2 2 0 0 1-4 0v-.011a2 2 0 0 1 2-2ZM29.001 696.662a2 2 0 0 1 2 2v.01a2 2 0 0 1-4 0v-.01a2 2 0 0 1 2-2Zm691.998 0a2 2 0 0 1 2 2v.01a2 2 0 0 1-4 0v-.01a2 2 0 0 1 2-2ZM29.001 706.995a2 2 0 0 1 2 2v.01a2 2 0 0 1-4 0v-.01a2 2 0 0 1 2-2Zm691.998 0a2 2 0 0 1 2 2v.01a2 2 0 0 1-4 0v-.01a2 2 0 0 1 2-2ZM29.001 717.328a2 2 0 0 1 2 2v.011a2 2 0 0 1-4 0v-.011a2 2 0 0 1 2-2Zm691.998 0a2 2 0 0 1 2 2v.01a2 2 0 0 1-4 0v-.01a2 2 0 0 1 2-2ZM27.001 729.661a2 2 0 0 1 4 .001v.01a2 2 0 0 1-4 0v-.011ZM721 727.662a2 2 0 0 1 2 2v.01a2 2 0 0 1-4 0v-.01a2 2 0 0 1 2-2ZM29.001 737.995a2 2 0 0 1 2 2v.01a2 2 0 0 1-4 0v-.01a2 2 0 0 1 2-2Zm691.998 0a2 2 0 0 1 2 2v.01a2 2 0 0 1-4 0v-.01a2 2 0 0 1 2-2ZM29.001 748.328a2 2 0 0 1 2 2v.011a2 2 0 0 1-4 0v-.011a2 2 0 0 1 2-2Zm691.998 0a2 2 0 0 1 2 2v.01a2 2 0 0 1-4 0v-.01a2 2 0 0 1 2-2ZM29.001 758.661a2 2 0 0 1 2 2v.011a2 2 0 0 1-4 0v-.011a2 2 0 0 1 2-2Zm691.998 0a2 2 0 0 1 2 2v.011a2 2 0 0 1-4 0v-.011a2 2 0 0 1 2-2ZM30.446 769.612a2.002 2.002 0 0 0-3.103.262 1.998 1.998 0 0 0-.343 1.121v.01a2 2 0 0 0 3.44 1.388c.348-.359.563-.846.565-1.385a1.99 1.99 0 0 0-.559-1.396Zm692.553 1.383a2 2 0 0 0-2-2l2 2Zm-2-2a2 2 0 0 0-2 2l2-2Zm-684.015 2.037a2.004 2.004 0 0 1 1.243-1.842c.243-.1.503-.15.766-.149h.01a2.007 2.007 0 0 1 1.412.592 1.986 1.986 0 0 1 .58 1.416 2 2 0 0 1-2.009 1.992h-.01a2.009 2.009 0 0 1-1.412-.592 1.996 1.996 0 0 1-.58-1.417Zm9.989.041a1.998 1.998 0 0 1 2.008-1.992h.01a1.998 1.998 0 0 1 1.992 2.008 1.999 1.999 0 0 1-2.009 1.992h-.01a1.996 1.996 0 0 1-1.991-2.008Zm9.988.041a1.998 1.998 0 0 1 2.008-1.992h.01a2.008 2.008 0 0 1 1.412.591 2.009 2.009 0 0 1 .58 1.417 1.998 1.998 0 0 1-2.008 1.992h-.01a2.008 2.008 0 0 1-1.412-.591 2.007 2.007 0 0 1-.58-1.417Zm9.988.04a1.998 1.998 0 0 1 2.008-1.992h.01a2.008 2.008 0 0 1 1.412.591 2.009 2.009 0 0 1 .58 1.417 2 2 0 0 1-2.008 1.992h-.01a2.008 2.008 0 0 1-1.412-.591 2.007 2.007 0 0 1-.58-1.417Zm9.988.041a1.998 1.998 0 0 1 2.008-1.992h.01a2.002 2.002 0 0 1 1.992 2.008 2.002 2.002 0 0 1-2.008 1.992h-.01a1.998 1.998 0 0 1-1.992-2.008Zm9.989.04a2 2 0 0 1 2.008-1.992h.01a1.998 1.998 0 0 1 1.992 2.009 1.998 1.998 0 0 1-2.009 1.991h-.01a2.007 2.007 0 0 1-1.412-.592 1.992 1.992 0 0 1-.579-1.416Zm9.988.041a1.997 1.997 0 0 1 2.008-1.992h.01a2.008 2.008 0 0 1 1.412.591 2.015 2.015 0 0 1 .58 1.417 2.007 2.007 0 0 1-.591 1.412 2.015 2.015 0 0 1-1.417.58h-.01a2.008 2.008 0 0 1-1.412-.591 2.009 2.009 0 0 1-.58-1.417Zm9.988.04a2.01 2.01 0 0 1 .591-1.412 2.015 2.015 0 0 1 1.417-.58h.01a2 2 0 0 1 1.361 3.398 2.001 2.001 0 0 1-1.377.602h-.01a2.007 2.007 0 0 1-1.412-.591 2.015 2.015 0 0 1-.58-1.417Zm9.988.041a2.007 2.007 0 0 1 .591-1.412 2.015 2.015 0 0 1 1.417-.58h.01a2.007 2.007 0 0 1 1.412.591 2.015 2.015 0 0 1 .58 1.417 2.007 2.007 0 0 1-.591 1.412 2.015 2.015 0 0 1-1.417.58h-.01a2 2 0 0 1-1.992-2.008Zm9.988.04a1.993 1.993 0 0 1 .592-1.412 2.012 2.012 0 0 1 1.417-.579h.01a2 2 0 1 1-.017 4h-.01a2.008 2.008 0 0 1-1.412-.592 2.005 2.005 0 0 1-.58-1.417Zm9.989.041a2.007 2.007 0 0 1 .591-1.412 2.015 2.015 0 0 1 1.417-.58h.01a2.007 2.007 0 0 1 1.412.591 2.015 2.015 0 0 1 .58 1.417 2.007 2.007 0 0 1-.591 1.412 2.015 2.015 0 0 1-1.417.58h-.01a2.007 2.007 0 0 1-1.412-.591 2 2 0 0 1-.58-1.417Zm9.988.041a2.007 2.007 0 0 1 .591-1.412 2.015 2.015 0 0 1 1.417-.58h.01a2.003 2.003 0 0 1 1.992 2.008 2.003 2.003 0 0 1-2.008 1.992h-.01a2.007 2.007 0 0 1-1.412-.591 2.015 2.015 0 0 1-.58-1.417Zm9.988.04a2.007 2.007 0 0 1 .591-1.412 2.015 2.015 0 0 1 1.417-.58h.01a2.007 2.007 0 0 1 1.412.591 2.015 2.015 0 0 1 .58 1.417 2.01 2.01 0 0 1-.591 1.412 2.015 2.015 0 0 1-1.417.58h-.01a2.007 2.007 0 0 1-1.412-.591 2.015 2.015 0 0 1-.58-1.417Zm9.988.041a2.007 2.007 0 0 1 .592-1.412 1.989 1.989 0 0 1 1.417-.58h.01a2 2 0 1 1-.017 4h-.01a2 2 0 0 1-1.992-2.008Zm9.989.04a2.01 2.01 0 0 1 .591-1.412 2.015 2.015 0 0 1 1.417-.58h.01a2.005 2.005 0 0 1 1.991 2.009 1.987 1.987 0 0 1-.591 1.411 2 2 0 0 1-1.417.58h-.009a2.007 2.007 0 0 1-1.412-.591 2 2 0 0 1-.58-1.417Zm9.988.041a2.007 2.007 0 0 1 .591-1.412 2 2 0 0 1 1.417-.58h.01a2.003 2.003 0 0 1 1.992 2.008 2.003 2.003 0 0 1-2.008 1.992h-.01a2.007 2.007 0 0 1-1.412-.591 2.015 2.015 0 0 1-.58-1.417Zm9.988.04a2 2 0 0 1 2.008-1.992h.01a2.007 2.007 0 0 1 1.412.591 2.015 2.015 0 0 1 .58 1.417 2.01 2.01 0 0 1-.591 1.412 2.015 2.015 0 0 1-1.417.58h-.01a2.007 2.007 0 0 1-1.412-.591 2.015 2.015 0 0 1-.58-1.417Zm9.988.041a2.007 2.007 0 0 1 .591-1.412 2.015 2.015 0 0 1 1.417-.58h.01a2.007 2.007 0 0 1 1.412.591 2.015 2.015 0 0 1 .58 1.417 2.01 2.01 0 0 1-.591 1.412 2.015 2.015 0 0 1-1.417.58h-.01a2 2 0 0 1-1.992-2.008Zm9.989.04a2.01 2.01 0 0 1 .591-1.412 2.015 2.015 0 0 1 1.417-.58l.01.001a1.989 1.989 0 0 1 1.412.592 2 2 0 0 1-1.429 3.408l-.01-.001a2.01 2.01 0 0 1-1.412-.591 2.012 2.012 0 0 1-.579-1.417Zm9.988.041a2.01 2.01 0 0 1 .591-1.412 2.015 2.015 0 0 1 1.417-.58h.01a2.003 2.003 0 0 1 1.992 2.008 2.003 2.003 0 0 1-2.008 1.992h-.01a2.007 2.007 0 0 1-1.412-.591 2 2 0 0 1-.58-1.417Zm9.988.04a1.997 1.997 0 0 1 2.008-1.991h.01a2.003 2.003 0 0 1 1.992 2.008 2.003 2.003 0 0 1-2.008 1.992h-.01a1.998 1.998 0 0 1-1.992-2.009Zm9.988.041a2.01 2.01 0 0 1 .591-1.412 2.015 2.015 0 0 1 1.417-.58h.01a2.01 2.01 0 0 1 1.412.591 2.015 2.015 0 0 1 .58 1.417 2.01 2.01 0 0 1-.591 1.412 2.015 2.015 0 0 1-1.417.58h-.01a2.007 2.007 0 0 1-1.412-.591 2.015 2.015 0 0 1-.58-1.417Zm9.989.041a2.007 2.007 0 0 1 .591-1.412 2 2 0 0 1 1.417-.58h.01a2 2 0 1 1-.017 4h-.01a1.997 1.997 0 0 1-1.991-2.008Zm9.988.04a2.01 2.01 0 0 1 .591-1.412 2.015 2.015 0 0 1 1.417-.58h.01a2.003 2.003 0 0 1 1.992 2.008 2.003 2.003 0 0 1-2.008 1.992h-.01a2.007 2.007 0 0 1-1.412-.591 2 2 0 0 1-.58-1.417Zm9.988.041a2.007 2.007 0 0 1 .591-1.412 2 2 0 0 1 1.417-.58h.01a2.007 2.007 0 0 1 1.412.591 2.015 2.015 0 0 1 .58 1.417 2.01 2.01 0 0 1-.591 1.412 2.015 2.015 0 0 1-1.417.58h-.01a2.007 2.007 0 0 1-1.412-.591 2.015 2.015 0 0 1-.58-1.417Zm9.988.04a2 2 0 0 1 2.008-1.992h.01a2.01 2.01 0 0 1 1.412.591 2.015 2.015 0 0 1 .58 1.417 2.007 2.007 0 0 1-.591 1.412 2.015 2.015 0 0 1-1.417.58h-.01a2.007 2.007 0 0 1-1.412-.591 2.015 2.015 0 0 1-.58-1.417Zm9.988.041a2.007 2.007 0 0 1 .592-1.412 1.989 1.989 0 0 1 1.417-.58h.01a2.007 2.007 0 0 1 1.412.592 2 2 0 0 1-1.429 3.408h-.01a2 2 0 0 1-1.992-2.008Zm9.989.04a2.005 2.005 0 0 1 2.008-1.991h.01a2.003 2.003 0 0 1 1.992 2.008 2.003 2.003 0 0 1-2.008 1.992l-.01-.001a2.007 2.007 0 0 1-1.412-.591 2 2 0 0 1-.58-1.417Zm9.988.041a2.01 2.01 0 0 1 .591-1.412 2.015 2.015 0 0 1 1.417-.58h.01a2.01 2.01 0 0 1 1.412.591 2.015 2.015 0 0 1 .58 1.417 2.01 2.01 0 0 1-.591 1.412 2.015 2.015 0 0 1-1.417.58h-.01a2.007 2.007 0 0 1-1.412-.591 2 2 0 0 1-.58-1.417Zm9.988.04a1.997 1.997 0 0 1 2.008-1.991h.01a2.007 2.007 0 0 1 1.412.591 2.015 2.015 0 0 1 .58 1.417 2.01 2.01 0 0 1-.591 1.412 2.015 2.015 0 0 1-1.417.58h-.01a1.998 1.998 0 0 1-1.992-2.009Zm9.988.041a2.01 2.01 0 0 1 .591-1.412 2.015 2.015 0 0 1 1.417-.58h.01a2.003 2.003 0 0 1 1.992 2.008 2.003 2.003 0 0 1-2.008 1.992h-.01a2.007 2.007 0 0 1-1.412-.591 2.015 2.015 0 0 1-.58-1.417Zm9.989.041a2.007 2.007 0 0 1 .591-1.412 2 2 0 0 1 1.417-.58h.01a2.005 2.005 0 0 1 1.991 2.009 1.987 1.987 0 0 1-.591 1.411 2 2 0 0 1-1.417.58h-.01a1.997 1.997 0 0 1-1.991-2.008Zm9.988.04a2.007 2.007 0 0 1 .591-1.412 2.015 2.015 0 0 1 1.417-.58h.01a2.01 2.01 0 0 1 1.412.591 2.015 2.015 0 0 1 .58 1.417 2.007 2.007 0 0 1-.591 1.412 2.015 2.015 0 0 1-1.417.58h-.01a2.007 2.007 0 0 1-1.412-.591 2 2 0 0 1-.58-1.417Zm9.988.041a2.01 2.01 0 0 1 .591-1.412 2.015 2.015 0 0 1 1.417-.58h.01a2.003 2.003 0 0 1 1.992 2.008 2.003 2.003 0 0 1-2.008 1.992h-.01a2.007 2.007 0 0 1-1.412-.591 2.015 2.015 0 0 1-.58-1.417Zm9.988.04a2 2 0 0 1 2.008-1.992h.01a2.003 2.003 0 0 1 1.992 2.008 2.003 2.003 0 0 1-2.008 1.992h-.01a2.007 2.007 0 0 1-1.412-.591 2.015 2.015 0 0 1-.58-1.417Zm9.988.041a2.007 2.007 0 0 1 .592-1.412 1.989 1.989 0 0 1 1.417-.58h.01a2.005 2.005 0 0 1 1.991 2.009 1.987 1.987 0 0 1-.591 1.411 2 2 0 0 1-1.417.58h-.01a2 2 0 0 1-1.992-2.008Zm9.989.04a2.003 2.003 0 0 1 2.008-1.991h.01a2.003 2.003 0 0 1 1.992 2.008 2.003 2.003 0 0 1-2.008 1.992l-.01-.001a2.007 2.007 0 0 1-1.412-.591 2 2 0 0 1-.58-1.417Zm9.988.041a2.007 2.007 0 0 1 .591-1.412 2.015 2.015 0 0 1 1.417-.58h.01a2.007 2.007 0 0 1 1.412.591 2.015 2.015 0 0 1 .58 1.417 2.007 2.007 0 0 1-.591 1.412 2.015 2.015 0 0 1-1.417.58h-.01a2.007 2.007 0 0 1-1.412-.591 2.015 2.015 0 0 1-.58-1.417Zm9.988.04a1.997 1.997 0 0 1 2.008-1.991h.01a2.003 2.003 0 0 1 1.992 2.008 2.003 2.003 0 0 1-2.008 1.992h-.01a2.008 2.008 0 0 1-1.412-.592 2.005 2.005 0 0 1-.58-1.417Zm9.988.041a1.998 1.998 0 0 1 2.009-1.992h.01a2 2 0 1 1-.017 4h-.01a2.007 2.007 0 0 1-1.412-.591 2.015 2.015 0 0 1-.58-1.417Zm9.989.041a2.007 2.007 0 0 1 .591-1.412 2 2 0 0 1 1.417-.58h.01a2.007 2.007 0 0 1 1.412.591 2.015 2.015 0 0 1 .58 1.417 2.01 2.01 0 0 1-.591 1.412 2.015 2.015 0 0 1-1.417.58h-.01a2.007 2.007 0 0 1-1.412-.591 2.015 2.015 0 0 1-.58-1.417Zm9.988.04a2.007 2.007 0 0 1 .591-1.412 2.015 2.015 0 0 1 1.417-.58h.01a2.007 2.007 0 0 1 1.412.591 2.015 2.015 0 0 1 .58 1.417 2.007 2.007 0 0 1-.591 1.412 2.015 2.015 0 0 1-1.417.58h-.01a2.007 2.007 0 0 1-1.412-.591 2 2 0 0 1-.58-1.417Zm9.988.041a2.01 2.01 0 0 1 .591-1.412 2.015 2.015 0 0 1 1.417-.58h.01a2.003 2.003 0 0 1 1.992 2.008 2.003 2.003 0 0 1-2.008 1.992h-.01a2.01 2.01 0 0 1-1.412-.591 2.015 2.015 0 0 1-.58-1.417Zm9.988.04a2 2 0 0 1 2.008-1.992h.01a2.007 2.007 0 0 1 1.412.591 2.015 2.015 0 0 1 .58 1.417 2.007 2.007 0 0 1-.591 1.412 2.015 2.015 0 0 1-1.417.58h-.01a2.007 2.007 0 0 1-1.412-.591 2.015 2.015 0 0 1-.58-1.417Zm9.989.041a2.007 2.007 0 0 1 .591-1.412 2 2 0 0 1 1.417-.58h.01a2 2 0 1 1-.017 4h-.01a1.997 1.997 0 0 1-1.991-2.008Zm9.988.04a2.005 2.005 0 0 1 2.008-1.991h.01a2.01 2.01 0 0 1 1.412.591 2.015 2.015 0 0 1 .58 1.417 2.01 2.01 0 0 1-.591 1.412 2.015 2.015 0 0 1-1.417.58l-.01-.001a2.007 2.007 0 0 1-1.412-.591 2 2 0 0 1-.58-1.417Zm9.988.041a2.007 2.007 0 0 1 .591-1.412 2.015 2.015 0 0 1 1.417-.58h.01a2.003 2.003 0 0 1 1.992 2.008 2.003 2.003 0 0 1-2.008 1.992h-.01a2.007 2.007 0 0 1-1.412-.591 2.015 2.015 0 0 1-.58-1.417Zm9.988.04a1.997 1.997 0 0 1 2.008-1.991h.01a2.003 2.003 0 0 1 1.992 2.008 2.003 2.003 0 0 1-2.008 1.992h-.01a2.008 2.008 0 0 1-1.412-.592 2.005 2.005 0 0 1-.58-1.417Zm9.988.041a1.998 1.998 0 0 1 2.009-1.992h.01a1.993 1.993 0 0 1 1.412.592 2 2 0 0 1-1.429 3.408h-.01a2.007 2.007 0 0 1-1.412-.591 2.015 2.015 0 0 1-.58-1.417Zm202.977-.777a1.993 1.993 0 0 0-1.198-.404h-.006a2.001 2.001 0 0 0-.017 4h.01a1.997 1.997 0 0 0 1.998-2.174 1.997 1.997 0 0 0-.389-1.022 1.997 1.997 0 0 0 2.097.194 2.006 2.006 0 0 0 1.108-1.792m-4 0c0 .449.148.864.397 1.198l-.397-1.198Zm-192.591 2.016a2.007 2.007 0 0 1 .591-1.412 2 2 0 0 1 1.417-.58h.01a2.003 2.003 0 0 1 1.992 2.008 2.003 2.003 0 0 1-2.008 1.992h-.01a2.01 2.01 0 0 1-1.412-.591 2.015 2.015 0 0 1-.58-1.417Zm9.988.04a2.007 2.007 0 0 1 .591-1.412 2.015 2.015 0 0 1 1.417-.58h.01a2.003 2.003 0 0 1 1.992 2.008 2.003 2.003 0 0 1-2.008 1.992h-.01a2.007 2.007 0 0 1-1.412-.591 2 2 0 0 1-.58-1.417Zm9.988.041a2.007 2.007 0 0 1 .591-1.412 2.015 2.015 0 0 1 1.417-.58h.01a2.003 2.003 0 0 1 1.992 2.008 2.003 2.003 0 0 1-2.008 1.992h-.01a2.01 2.01 0 0 1-1.412-.591 2.015 2.015 0 0 1-.58-1.417Zm9.988.04a2 2 0 0 1 2.008-1.992h.01a2.007 2.007 0 0 1 1.412.591 2.015 2.015 0 0 1 .58 1.417 2.007 2.007 0 0 1-.591 1.412 2.015 2.015 0 0 1-1.417.58h-.01a2.007 2.007 0 0 1-1.412-.591 2.015 2.015 0 0 1-.58-1.417Zm9.989.041a2.007 2.007 0 0 1 .591-1.412 2 2 0 0 1 1.417-.58h.01a1.989 1.989 0 0 1 1.412.592c.185.186.331.407.43.65a1.988 1.988 0 0 1-.442 2.178 2 2 0 0 1-1.417.58h-.01a1.997 1.997 0 0 1-1.991-2.008Zm9.988.04a2.007 2.007 0 0 1 .591-1.412 2.015 2.015 0 0 1 1.417-.58h.01a2.007 2.007 0 0 1 1.412.591 2.015 2.015 0 0 1 .58 1.417 2.01 2.01 0 0 1-.591 1.412 2.015 2.015 0 0 1-1.417.58h-.01a2.007 2.007 0 0 1-1.412-.591 2 2 0 0 1-.58-1.417Zm9.988.041a2.007 2.007 0 0 1 .591-1.412 2.015 2.015 0 0 1 1.417-.58h.01a2.003 2.003 0 0 1 1.992 2.008 2.003 2.003 0 0 1-2.008 1.992h-.01a2.01 2.01 0 0 1-1.412-.591 2.015 2.015 0 0 1-.58-1.417Zm9.988.04a1.997 1.997 0 0 1 2.008-1.991h.01a2.007 2.007 0 0 1 1.412.591 2.015 2.015 0 0 1 .58 1.417 2.007 2.007 0 0 1-.591 1.412 2.015 2.015 0 0 1-1.417.58h-.01a2.008 2.008 0 0 1-1.412-.592 2.005 2.005 0 0 1-.58-1.417Zm9.988.041a2.007 2.007 0 0 1 .591-1.412 2.015 2.015 0 0 1 1.417-.58h.01a2.003 2.003 0 0 1 1.992 2.008 2.003 2.003 0 0 1-2.008 1.992h-.01a2.007 2.007 0 0 1-1.412-.591 2.015 2.015 0 0 1-.58-1.417Zm9.989.041a2.007 2.007 0 0 1 .591-1.412 2 2 0 0 1 1.417-.58h.01a2 2 0 1 1-.017 4h-.01a1.997 1.997 0 0 1-1.991-2.008Zm9.988.04a2.007 2.007 0 0 1 .591-1.412 2.015 2.015 0 0 1 1.417-.58h.01a2.007 2.007 0 0 1 1.412.591 2.015 2.015 0 0 1 .58 1.417 2.007 2.007 0 0 1-.591 1.412 2.015 2.015 0 0 1-1.417.58h-.01a2.007 2.007 0 0 1-1.412-.591 2 2 0 0 1-.58-1.417Zm9.988.041a2.007 2.007 0 0 1 .591-1.412 2 2 0 0 1 1.417-.58h.01a2.003 2.003 0 0 1 1.992 2.008 2.003 2.003 0 0 1-2.008 1.992h-.01a2.007 2.007 0 0 1-1.412-.591 2.015 2.015 0 0 1-.58-1.417Zm9.988.04a2 2 0 0 1 2.008-1.992h.01a2.003 2.003 0 0 1 1.992 2.008 2.003 2.003 0 0 1-2.008 1.992h-.01a2.007 2.007 0 0 1-1.412-.591 2.015 2.015 0 0 1-.58-1.417Zm9.988.041a2.007 2.007 0 0 1 .591-1.412 2.015 2.015 0 0 1 1.417-.58h.01a2.01 2.01 0 0 1 1.412.591 2.015 2.015 0 0 1 .58 1.417 2.007 2.007 0 0 1-.591 1.412 2.015 2.015 0 0 1-1.417.58h-.01a2 2 0 0 1-1.992-2.008Zm9.989.04a2.01 2.01 0 0 1 .591-1.412 2.015 2.015 0 0 1 1.417-.58h.01a2 2 0 1 1-.017 4h-.01a2.005 2.005 0 0 1-1.991-2.008Zm9.988.041a2.007 2.007 0 0 1 .591-1.412 2.015 2.015 0 0 1 1.417-.58h.01a2.01 2.01 0 0 1 1.412.591 2.015 2.015 0 0 1 .58 1.417 2.007 2.007 0 0 1-.591 1.412 2.015 2.015 0 0 1-1.417.58h-.01a2.01 2.01 0 0 1-1.412-.591 2.015 2.015 0 0 1-.58-1.417Zm9.988.04a2.01 2.01 0 0 1 .591-1.412 2.012 2.012 0 0 1 1.417-.579h.01a2.003 2.003 0 0 1 1.992 2.008 2.003 2.003 0 0 1-2.008 1.992h-.01a2.007 2.007 0 0 1-1.412-.592 1.989 1.989 0 0 1-.58-1.417Zm9.988.041a2.007 2.007 0 0 1 .591-1.412 2.015 2.015 0 0 1 1.417-.58h.01a2.01 2.01 0 0 1 1.412.591 2.015 2.015 0 0 1 .58 1.417 2.01 2.01 0 0 1-.591 1.412 2.015 2.015 0 0 1-1.417.58h-.01a2.01 2.01 0 0 1-1.412-.591 2.015 2.015 0 0 1-.58-1.417Zm9.988.041a2.007 2.007 0 0 1 .591-1.412 2.015 2.015 0 0 1 1.417-.58h.01a2.003 2.003 0 0 1 1.992 2.008 2.003 2.003 0 0 1-2.008 1.992h-.01a2 2 0 0 1-1.992-2.008Zm-677.194 5.578a2 2 0 0 1 2 2v.011a2 2 0 0 1-4 0v-.011a2 2 0 0 1 2-2Zm691.998 0a2 2 0 0 1 2 2v.01a2 2 0 0 1-4 0v-.01a2 2 0 0 1 2-2ZM29.001 789.661a2 2 0 0 1 2 2v.011a2 2 0 0 1-4 0v-.011a2 2 0 0 1 2-2Zm691.998 0a2 2 0 0 1 2 2v.011a2 2 0 0 1-4 0v-.011a2 2 0 0 1 2-2ZM29.001 799.995a2 2 0 0 1 2 2v.01a2 2 0 0 1-4 0v-.01a2 2 0 0 1 2-2Zm691.998 0a2 2 0 0 1 2 2v.01a2 2 0 0 1-4 0v-.01a2 2 0 0 1 2-2ZM27.001 812.328a2 2 0 0 1 4 0v.011a2 2 0 0 1-4 0v-.011Zm693.998-2a2 2 0 0 1 2 2v.01a2 2 0 0 1-4 0v-.01a2 2 0 0 1 2-2ZM29.001 820.661a2 2 0 0 1 2 2v.011a2 2 0 0 1-4 0v-.011a2 2 0 0 1 2-2Zm691.998 0a2 2 0 0 1 2 2v.011a2 2 0 0 1-4 0v-.011a2 2 0 0 1 2-2ZM29.001 830.995a2 2 0 0 1 2 2v.01a2 2 0 0 1-4 0v-.01a2 2 0 0 1 2-2Zm691.998 0a2 2 0 0 1 2 2v.01a2 2 0 0 1-4 0v-.01a2 2 0 0 1 2-2ZM29.001 841.328a2 2 0 0 1 2 2v.01a2 2 0 0 1-4 0v-.01a2 2 0 0 1 2-2Zm691.998 0a2 2 0 0 1 2 2v.01a2 2 0 0 1-4 0v-.01a2 2 0 0 1 2-2ZM27.001 853.661a2 2 0 0 1 4 0v.011a2 2 0 0 1-4 0v-.011Zm693.998-2a2 2 0 0 1 2 2v.011a2 2 0 0 1-4 0v-.011a2 2 0 0 1 2-2ZM29.001 861.995a2 2 0 0 1 2 2v.01a2 2 0 0 1-4 0v-.01a2 2 0 0 1 2-2Zm691.998 0a2 2 0 0 1 2 2v.01a2 2 0 0 1-4 0v-.01a2 2 0 0 1 2-2ZM29.001 872.328a2 2 0 0 1 2 2v.01a2 2 0 0 1-4 0v-.01a2 2 0 0 1 2-2Zm691.998 0a2 2 0 0 1 2 2v.01a2 2 0 0 1-4 0v-.01a2 2 0 0 1 2-2ZM29.001 882.661a2 2 0 0 1 2 2v.011a2 2 0 0 1-4 0v-.011a2 2 0 0 1 2-2Zm691.997 0a2 2 0 0 1 2 2v.011a2 2 0 0 1-4 0v-.011a2 2 0 0 1 2-2ZM30.442 893.608a1.998 1.998 0 0 0-3.44 1.387l-.001.01a2.002 2.002 0 0 0 2.42 1.956c.39-.084.747-.283 1.023-.571.348-.36.562-.85.562-1.39 0-.541-.215-1.032-.564-1.392Zm690.556-.613a2 2 0 0 1 2 2v.01a2 2 0 0 1-3.336 1.488 1.992 1.992 0 0 1-.669-1.493c0-.596.26-1.13.673-1.497.366-.328.84-.509 1.332-.508ZM37.025 895a2 2 0 0 1 2-2h.01a2 2 0 0 1 0 4h-.01a2 2 0 0 1-2-2Zm10.029 0a2 2 0 0 1 2-2h.01a2 2 0 0 1 0 4h-.01a2 2 0 0 1-2-2Zm10.029 0a2 2 0 0 1 2-2h.01a2 2 0 0 1 0 4h-.01a2 2 0 0 1-2-2Zm10.029 0a2 2 0 0 1 2-2h.01a2 2 0 0 1 0 4h-.01a2 2 0 0 1-2-2Zm10.028 0a2 2 0 0 1 2-2h.011a2 2 0 0 1 0 4h-.011a2 2 0 0 1-2-2Zm10.029 0a2 2 0 0 1 2-2h.01a2 2 0 0 1 0 4h-.01a2 2 0 0 1-2-2Zm10.029 0a2 2 0 0 1 2-2h.01a2 2 0 0 1 0 4h-.01a2 2 0 0 1-2-2Zm10.029 0a2 2 0 0 1 2-2h.01a2 2 0 0 1 0 4h-.01a2 2 0 0 1-2-2Zm10.029 0a2 2 0 0 1 2-2h.01a2 2 0 0 1 0 4h-.01a2 2 0 0 1-2-2Zm10.029 0a2 2 0 0 1 2-2h.01a2 2 0 0 1 0 4h-.01a2 2 0 0 1-2-2Zm10.029 0a2 2 0 0 1 2-2h.01a2 2 0 0 1 0 4h-.01a2 2 0 0 1-2-2Zm10.029 0a2 2 0 0 1 2-2h.01a2 2 0 0 1 0 4h-.01a2 2 0 0 1-2-2Zm10.029 0a2 2 0 0 1 2-2h.01a2 2 0 0 1 0 4h-.01a2 2 0 0 1-2-2Zm10.029 0a2 2 0 0 1 2-2h.01a2 2 0 0 1 0 4h-.01a2 2 0 0 1-2-2Zm10.029 0a2 2 0 0 1 2-2h.01a2 2 0 0 1 0 4h-.01a2 2 0 0 1-2-2Zm10.029 0a2 2 0 0 1 2-2h.01a2 2 0 0 1 0 4h-.01a2 2 0 0 1-2-2Zm10.029 0a2 2 0 0 1 2-2h.01a2 2 0 0 1 0 4h-.01a2 2 0 0 1-2-2Zm10.029 0a2 2 0 0 1 2-2h.01a2 2 0 0 1 0 4h-.01a2 2 0 0 1-2-2Zm10.029 0a2 2 0 0 1 2-2h.01a2 2 0 0 1 0 4h-.01a2 2 0 0 1-2-2Zm10.029 0a2 2 0 0 1 2-2h.01a2 2 0 0 1 0 4h-.01a2 2 0 0 1-2-2Zm10.029 0a2 2 0 0 1 2-2h.01a2 2 0 0 1 0 4h-.01a2 2 0 0 1-2-2Zm10.029 0a2 2 0 0 1 2-2h.01a2 2 0 0 1 0 4h-.01a2 2 0 0 1-2-2Zm10.029 0a2 2 0 0 1 2-2h.01a2 2 0 0 1 0 4h-.01a2 2 0 0 1-2-2Zm10.029 0a2 2 0 0 1 2-2h.01a2 2 0 0 1 0 4h-.01a2 2 0 0 1-2-2Zm10.029 0a2 2 0 0 1 2-2h.01a2 2 0 0 1 0 4h-.01a2 2 0 0 1-2-2Zm10.029 0a2 2 0 0 1 2-2h.01a2 2 0 0 1 0 4h-.01a2 2 0 0 1-2-2Zm10.028 0a2 2 0 0 1 2-2h.011a2 2 0 0 1 0 4h-.011a2 2 0 0 1-2-2Zm10.029 0a2 2 0 0 1 2-2h.01a2 2 0 0 1 0 4h-.01a2 2 0 0 1-2-2Zm10.029 0a2 2 0 0 1 2-2h.01a2 2 0 0 1 0 4h-.01a2 2 0 0 1-2-2Zm10.029 0a2 2 0 0 1 2-2h.01a2 2 0 0 1 0 4h-.01a2 2 0 0 1-2-2Zm10.029 0a2 2 0 0 1 2-2h.01a2 2 0 0 1 0 4h-.01a2 2 0 0 1-2-2Zm10.029 0a2 2 0 0 1 2-2h.01a2 2 0 0 1 0 4h-.01a2 2 0 0 1-2-2Zm10.029 0a2 2 0 0 1 2-2h.01a2 2 0 0 1 0 4h-.01a2 2 0 0 1-2-2Zm10.029 0a2 2 0 0 1 2-2h.01a2 2 0 0 1 0 4h-.01a2 2 0 0 1-2-2Zm10.029 0a2 2 0 0 1 2-2h.01a2 2 0 0 1 0 4h-.01a2 2 0 0 1-2-2Zm10.029 0a2 2 0 0 1 2-2h.01a2 2 0 0 1 0 4h-.01a2 2 0 0 1-2-2Zm10.029 0a2 2 0 0 1 2-2h.01a2 2 0 0 1 0 4h-.01a2 2 0 0 1-2-2Zm10.029 0a2 2 0 0 1 2-2h.01a2 2 0 0 1 0 4h-.01a2 2 0 0 1-2-2Zm10.029 0a2 2 0 0 1 2-2h.01a2 2 0 0 1 0 4h-.01a2 2 0 0 1-2-2Zm10.029 0a2 2 0 0 1 2-2h.01a2 2 0 0 1 0 4h-.01a2 2 0 0 1-2-2Zm10.029 0a2 2 0 0 1 2-2h.01a2 2 0 0 1 0 4h-.01a2 2 0 0 1-2-2Zm10.028 0a2 2 0 0 1 2-2h.01a2 2 0 0 1 0 4h-.01a2 2 0 0 1-2-2Zm10.029 0a2 2 0 0 1 2-2h.01a2 2 0 0 1 0 4h-.01a2 2 0 0 1-2-2Zm10.029 0a2 2 0 0 1 2-2h.01a2 2 0 0 1 0 4h-.01a2 2 0 0 1-2-2Zm10.029 0a2 2 0 0 1 2-2h.01a2 2 0 0 1 0 4h-.01a2 2 0 0 1-2-2Zm10.029 0a2 2 0 0 1 2-2h.01a2 2 0 0 1 0 4h-.01a2 2 0 0 1-2-2Zm10.029 0a2 2 0 0 1 2-2h.01a2 2 0 0 1 0 4h-.01a2 2 0 0 1-2-2Zm10.029 0a2 2 0 0 1 2-2h.01a2 2 0 0 1 0 4h-.01a2 2 0 0 1-2-2Zm10.029 0a2 2 0 0 1 2-2h.01a2 2 0 0 1 0 4h-.01a2 2 0 0 1-2-2Zm10.029 0a2 2 0 0 1 2-2h.01a2 2 0 0 1 0 4h-.01a2 2 0 0 1-2-2Zm10.029 0a2 2 0 0 1 2-2h.01a2 2 0 0 1 0 4h-.01a2 2 0 0 1-2-2Zm10.029 0a2 2 0 0 1 2-2h.01a2 2 0 0 1 0 4h-.01a2 2 0 0 1-2-2Zm10.029 0a2 2 0 0 1 2-2h.01a2 2 0 0 1 0 4h-.01a2 2 0 0 1-2-2Zm10.029 0a2 2 0 0 1 2-2h.01a2 2 0 0 1 0 4h-.01a2 2 0 0 1-2-2Zm10.029 0a2 2 0 0 1 2-2h.01a2 2 0 0 1 0 4h-.01a2 2 0 0 1-2-2Zm10.029 0a2 2 0 0 1 2-2h.01a2 2 0 0 1 0 4h-.01a2 2 0 0 1-2-2Zm10.028 0a2 2 0 0 1 2-2h.01a2 2 0 0 1 0 4h-.01a2 2 0 0 1-2-2Zm10.029 0a2 2 0 0 1 2-2h.01a2 2 0 0 1 0 4h-.01a2 2 0 0 1-2-2Zm10.029 0a2 2 0 0 1 2-2h.01a2 2 0 0 1 0 4h-.01a2 2 0 0 1-2-2Zm10.029 0a2 2 0 0 1 2-2h.01a2 2 0 0 1 0 4h-.01a2 2 0 0 1-2-2Zm10.029 0a2 2 0 0 1 2-2h.01a2 2 0 0 1 0 4h-.01a2 2 0 0 1-2-2Zm10.029 0a2 2 0 0 1 2-2h.01a2 2 0 0 1 0 4h-.01a2 2 0 0 1-2-2Zm10.029 0a2 2 0 0 1 2-2h.01a2 2 0 0 1 0 4h-.01a2 2 0 0 1-2-2Zm10.029 0a2 2 0 0 1 2-2h.01a2 2 0 0 1 0 4h-.01a2 2 0 0 1-2-2Zm10.029 0a2 2 0 0 1 2-2h.01a2 2 0 0 1 0 4h-.01a2 2 0 0 1-2-2Zm10.029 0a2 2 0 0 1 2-2h.01a2 2 0 0 1 0 4h-.01a2 2 0 0 1-2-2Zm10.029 0a2 2 0 0 1 2-2h.01a2 2 0 0 1 0 4h-.01a2 2 0 0 1-2-2Zm10.029 0a2 2 0 0 1 2-2h.01a2 2 0 0 1 0 4h-.01a2 2 0 0 1-2-2Zm-679.963 8.395a2 2 0 0 1 2 2v.01a2 2 0 0 1-4 0v-.01a2 2 0 0 1 2-2Zm691.997 0a2 2 0 0 1 2 2v.01a2 2 0 0 1-4 0v-.01a2 2 0 0 1 2-2Zm-691.997 10.4a2 2 0 0 1 2 2v.01a2 2 0 0 1-4 0v-.01a2 2 0 0 1 2-2Zm691.997 0a2 2 0 0 1 2 2v.01a2 2 0 0 1-4 0v-.01a2 2 0 0 1 2-2Zm-691.997 10.4a2 2 0 0 1 2 2v.01a2 2 0 0 1-4 0v-.01a2 2 0 0 1 2-2Zm691.997 0a2 2 0 0 1 2 2v.01a2 2 0 0 1-4 0v-.01a2 2 0 0 1 2-2ZM29 934.595a2 2 0 0 1 2 2v.01a2 2 0 0 1-4 0v-.01a2 2 0 0 1 2-2Zm691.998 0a2 2 0 0 1 2 2v.01a2 2 0 0 1-4 0v-.01a2 2 0 0 1 2-2ZM29 944.995a2 2 0 0 1 2 2v.01a2 2 0 0 1-4 0v-.01a2 2 0 0 1 2-2Zm691.998 0a2 2 0 0 1 2 2v.01a2 2 0 0 1-4 0v-.01a2 2 0 0 1 2-2ZM29 955.395a2 2 0 0 1 2 2v.01a2 2 0 0 1-4 0v-.01a2 2 0 0 1 2-2Zm691.998 0a2 2 0 0 1 2 2v.01a2 2 0 0 1-4 0v-.01a2 2 0 0 1 2-2ZM29 965.79c1.105 0 2 .9 2 2v.02c0 1.1-.895 2-2 2-1.104 0-2-.9-2-2v-.02c0-1.1.896-2 2-2Zm691.998 0c1.104 0 2 .9 2 2v.02c0 1.1-.896 2-2 2-1.105 0-2-.9-2-2v-.02c0-1.1.895-2 2-2ZM29 976.19c1.105 0 2 .9 2 2v.02c0 1.1-.895 2-2 2-1.104 0-2-.9-2-2v-.02c0-1.1.896-2 2-2Zm691.998 0c1.104 0 2 .9 2 2v.02c0 1.1-.896 2-2 2-1.105 0-2-.9-2-2v-.02c0-1.1.895-2 2-2ZM29 986.59c1.105 0 2 .9 2 2v.02c0 1.1-.895 2-2 2s-2-.9-2-2v-.02c0-1.1.896-2 2-2Zm691.998 0c1.104 0 2 .9 2 2v.02c0 1.1-.896 2-2 2-1.105 0-2-.9-2-2v-.02c0-1.1.895-2 2-2ZM29 996.99c1.105 0 2 .9 2 2v.01c0 1.11-.895 2-2 2.01-1.104 0-2-.9-2-2v-.02c0-1.1.895-2 2-2Zm691.997 0c1.105 0 2 .9 2 2v.02c0 1.1-.896 2-2 2-1.105 0-2-.9-2-2.01v-.01c0-1.1.896-2 2-2Zm-690.324 10.28c.227-.13.478-.22.739-.25.26-.04.525-.02.78.05.253.06.491.18.7.34.208.16.383.36.513.59h.005a2.01 2.01 0 0 1-.729 2.74c-.956.55-2.18.22-2.733-.73l-.005-.01a2.012 2.012 0 0 1 .143-2.22c.16-.2.36-.38.587-.51Zm688.652 0c.956.55 1.283 1.77.73 2.73l-.006.01c-.267.46-.704.79-1.216.93-.512.13-1.057.06-1.517-.2a2.01 2.01 0 0 1-.729-2.74h.005c.131-.23.305-.43.513-.59.209-.16.447-.28.701-.35.254-.06.519-.08.78-.04.261.03.512.12.739.25Zm-682.062 8.05c.132-.23.306-.43.515-.59.209-.16.447-.27.7-.34.254-.07.519-.09.78-.05.26.03.51.12.738.25h.008a2.01 2.01 0 0 1 .73 2.74c-.267.46-.704.79-1.216.93-.511.13-1.056.06-1.516-.2l-.01-.01a2.09 2.09 0 0 1-.586-.51 2.014 2.014 0 0 1-.143-2.22Zm675.471 0c.554.95.228 2.18-.728 2.73l-.01.01c-.957.55-2.18.22-2.733-.73a2.015 2.015 0 0 1-.201-1.52c.137-.51.472-.95.931-1.22h.009c.227-.13.478-.22.739-.25.26-.04.525-.02.778.05.254.07.492.18.7.34.209.16.384.36.515.59ZM46.994 1019c.001-1.11.897-2 2.001-2h.01c1.105 0 2 .9 2 2s-.895 2-2 2h-.01c-1.105 0-2.001-.9-2.001-2Zm10.032 0c0-1.1.895-2 2-2h.01c1.104 0 2 .9 2 2s-.896 2-2 2h-.01c-1.105 0-2-.9-2-2Zm10.03 0c0-1.1.896-2 2-2h.01c1.105 0 2 .9 2 2s-.895 2-2 2h-.01c-1.104 0-2-.9-2-2Zm10.031 0c0-1.1.896-2 2-2h.01c1.105 0 2 .9 2 2s-.895 2-2 2h-.01c-1.104 0-2-.9-2-2Zm10.031 0c0-1.1.895-2 2-2h.01c1.105 0 2 .9 2 2s-.895 2-2 2h-.01c-1.105 0-2-.9-2-2Zm10.031 0c0-1.1.895-2 2-2h.01c1.104 0 2 .9 2 2s-.896 2-2 2h-.01c-1.105 0-2-.9-2-2Zm10.03 0c0-1.1.896-2 2-2h.01c1.105 0 2 .9 2 2s-.895 2-2 2h-.01c-1.104 0-2-.9-2-2Zm10.031 0c0-1.1.896-2 2-2h.01c1.105 0 2 .9 2 2s-.895 2-2 2h-.01c-1.104 0-2-.9-2-2Zm10.031 0c0-1.1.895-2 2-2h.01c1.104 0 2 .9 2 2s-.896 2-2 2h-.01c-1.105 0-2-.9-2-2Zm10.031 0c0-1.1.895-2 2-2h.01c1.104 0 2 .9 2 2s-.896 2-2 2h-.01c-1.105 0-2-.9-2-2Zm10.03 0c0-1.1.896-2 2-2h.01c1.105 0 2 .9 2 2s-.895 2-2 2h-.01c-1.104 0-2-.9-2-2Zm10.031 0c0-1.1.895-2 2-2h.01c1.105 0 2 .9 2 2s-.895 2-2 2h-.01c-1.105 0-2-.9-2-2Zm10.031 0c0-1.1.895-2 2-2h.01c1.104 0 2 .9 2 2s-.896 2-2 2h-.01c-1.105 0-2-.9-2-2Zm10.03 0c0-1.1.896-2 2-2h.011c1.104 0 2 .9 2 2s-.896 2-2 2h-.011c-1.104 0-2-.9-2-2Zm10.031 0c0-1.1.896-2 2-2h.01c1.105 0 2 .9 2 2s-.895 2-2 2h-.01c-1.104 0-2-.9-2-2Zm10.031 0c0-1.1.895-2 2-2h.01c1.105 0 2 .9 2 2s-.895 2-2 2h-.01c-1.105 0-2-.9-2-2Zm10.031 0c0-1.1.895-2 2-2h.01c1.104 0 2 .9 2 2s-.896 2-2 2h-.01c-1.105 0-2-.9-2-2Zm10.03 0c0-1.1.896-2 2-2h.01c1.105 0 2 .9 2 2s-.895 2-2 2h-.01c-1.104 0-2-.9-2-2Zm10.031 0c0-1.1.896-2 2-2h.01c1.105 0 2 .9 2 2s-.895 2-2 2h-.01c-1.104 0-2-.9-2-2Zm10.031 0c0-1.1.895-2 2-2h.01c1.104 0 2 .9 2 2s-.896 2-2 2h-.01c-1.105 0-2-.9-2-2Zm10.031 0c0-1.1.895-2 2-2h.01c1.104 0 2 .9 2 2s-.896 2-2 2h-.01c-1.105 0-2-.9-2-2Zm10.03 0c0-1.1.896-2 2-2h.01c1.105 0 2 .9 2 2s-.895 2-2 2h-.01c-1.104 0-2-.9-2-2Zm10.031 0c0-1.1.895-2 2-2h.01c1.105 0 2 .9 2 2s-.895 2-2 2h-.01c-1.105 0-2-.9-2-2Zm10.031 0c0-1.1.895-2 2-2h.01c1.104 0 2 .9 2 2s-.896 2-2 2h-.01c-1.105 0-2-.9-2-2Zm10.031 0c0-1.1.895-2 2-2h.01c1.104 0 2 .9 2 2s-.896 2-2 2h-.01c-1.105 0-2-.9-2-2Zm10.03 0c0-1.1.896-2 2-2h.01c1.105 0 2 .9 2 2s-.895 2-2 2h-.01c-1.104 0-2-.9-2-2Zm10.031 0c0-1.1.895-2 2-2h.01c1.105 0 2 .9 2 2s-.895 2-2 2h-.01c-1.105 0-2-.9-2-2Zm10.031 0c0-1.1.895-2 2-2h.01c1.104 0 2 .9 2 2s-.896 2-2 2h-.01c-1.105 0-2-.9-2-2Zm10.03 0c0-1.1.896-2 2-2h.011c1.104 0 2 .9 2 2s-.896 2-2 2h-.011c-1.104 0-2-.9-2-2Zm10.031 0c0-1.1.896-2 2-2h.01c1.105 0 2 .9 2 2s-.895 2-2 2h-.01c-1.104 0-2-.9-2-2Zm10.031 0c0-1.1.895-2 2-2h.01c1.105 0 2 .9 2 2s-.895 2-2 2h-.01c-1.105 0-2-.9-2-2Zm10.031 0c0-1.1.895-2 2-2h.01c1.104 0 2 .9 2 2s-.896 2-2 2h-.01c-1.105 0-2-.9-2-2Zm10.03 0c0-1.1.896-2 2-2h.01c1.105 0 2 .9 2 2s-.895 2-2 2h-.01c-1.104 0-2-.9-2-2Zm10.031 0c0-1.1.896-2 2-2h.01c1.105 0 2 .9 2 2s-.895 2-2 2h-.01c-1.104 0-2-.9-2-2Zm10.031 0c0-1.1.895-2 2-2h.01c1.104 0 2 .9 2 2s-.896 2-2 2h-.01c-1.105 0-2-.9-2-2Zm10.031 0c0-1.1.895-2 2-2h.01c1.104 0 2 .9 2 2s-.896 2-2 2h-.01c-1.105 0-2-.9-2-2Zm10.03 0c0-1.1.896-2 2-2h.01c1.105 0 2 .9 2 2s-.895 2-2 2h-.01c-1.104 0-2-.9-2-2Zm10.031 0c0-1.1.895-2 2-2h.01c1.105 0 2 .9 2 2s-.895 2-2 2h-.01c-1.105 0-2-.9-2-2Zm10.031 0c0-1.1.895-2 2-2h.01c1.104 0 2 .9 2 2s-.896 2-2 2h-.01c-1.105 0-2-.9-2-2Zm10.031 0c0-1.1.895-2 2-2h.01c1.104 0 2 .9 2 2s-.896 2-2 2h-.01c-1.105 0-2-.9-2-2Zm10.03 0c0-1.1.896-2 2-2h.01c1.105 0 2 .9 2 2s-.895 2-2 2h-.01c-1.104 0-2-.9-2-2Zm10.031 0c0-1.1.895-2 2-2h.01c1.105 0 2 .9 2 2s-.895 2-2 2h-.01c-1.105 0-2-.9-2-2Zm10.031 0c0-1.1.895-2 2-2h.01c1.104 0 2 .9 2 2s-.896 2-2 2h-.01c-1.105 0-2-.9-2-2Zm10.03 0c0-1.1.896-2 2-2h.01c1.105 0 2 .9 2 2s-.895 2-2 2h-.01c-1.104 0-2-.9-2-2Zm10.031 0c0-1.1.896-2 2-2h.01c1.105 0 2 .9 2 2s-.895 2-2 2h-.01c-1.104 0-2-.9-2-2Zm10.031 0c0-1.1.895-2 2-2h.01c1.104 0 2 .9 2 2s-.896 2-2 2h-.01c-1.105 0-2-.9-2-2Zm10.031 0c0-1.1.895-2 2-2h.01c1.104 0 2 .9 2 2s-.896 2-2 2h-.01c-1.105 0-2-.9-2-2Zm10.03 0c0-1.1.896-2 2-2h.01c1.105 0 2 .9 2 2s-.895 2-2 2h-.01c-1.104 0-2-.9-2-2Zm10.031 0c0-1.1.896-2 2-2h.01c1.105 0 2 .9 2 2s-.895 2-2 2h-.01c-1.104 0-2-.9-2-2Zm10.031 0c0-1.1.895-2 2-2h.01c1.104 0 2 .9 2 2s-.896 2-2 2h-.01c-1.105 0-2-.9-2-2Zm10.031 0c0-1.1.895-2 2-2h.01c1.104 0 2 .9 2 2s-.896 2-2 2h-.01c-1.105 0-2-.9-2-2Zm10.03 0c0-1.1.896-2 2-2h.01c1.105 0 2 .9 2 2s-.895 2-2 2h-.01c-1.104 0-2-.9-2-2Zm10.031 0c0-1.1.895-2 2-2h.01c1.105 0 2 .9 2 2s-.895 2-2 2h-.01c-1.105 0-2-.9-2-2Zm10.031 0c0-1.1.895-2 2-2h.01c1.104 0 2 .9 2 2s-.896 2-2 2h-.01c-1.105 0-2-.9-2-2Zm10.03 0c0-1.1.896-2 2-2h.01c1.105 0 2 .9 2 2s-.895 2-2 2h-.01c-1.104 0-2-.9-2-2Zm10.031 0c0-1.1.896-2 2-2h.01c1.105 0 2 .9 2 2s-.895 2-2 2h-.01c-1.104 0-2-.9-2-2Zm10.031 0c0-1.1.895-2 2-2h.01c1.104 0 2 .9 2 2s-.896 2-2 2h-.01c-1.105 0-2-.9-2-2Zm10.031 0c0-1.1.895-2 2-2h.01c1.104 0 2 .9 2 2s-.896 2-2 2h-.01c-1.105 0-2-.9-2-2Zm10.03 0c0-1.1.896-2 2-2h.01c1.105 0 2 .9 2 2s-.895 2-2 2h-.01c-1.104 0-2-.9-2-2Zm10.031 0c0-1.1.895-2 2-2h.01c1.104 0 2 .9 2 2s-.896 2-2 2h-.01c-1.105 0-2-.9-2-2Zm10.031 0c0-1.1.895-2 2-2h.01c1.104 0 2 .9 2 2s-.896 2-2 2h-.01c-1.105 0-2-.9-2-2Zm10.03 0c0-1.1.896-2 2-2h.01c1.105 0 2 .9 2 2s-.895 2-2 2h-.01c-1.104 0-2-.9-2-2Zm10.031 0c0-1.1.895-2 2-2h.01c1.105 0 2 .9 2 2s-.895 2-2 2h-.01c-1.105 0-2-.9-2-2Zm10.031 0c0-1.1.895-2 2-2h.01c1.104 0 2 .9 2 2s-.896 2-2 2h-.01c-1.105 0-2-.9-2-2Zm10.03 0c0-1.1.896-2 2-2h.01c1.105 0 2 .9 2 2s-.895 2-2 2h-.01c-1.104 0-2-.9-2-2Zm10.031 0c0-1.1.896-2 2-2h.01c1.105 0 2 .89 2.001 2 0 1.1-.895 2-2 2h-.011c-1.104 0-2-.9-2-2Z" clip-rule="evenodd"/></svg>