<svg width="70" height="70" viewBox="0 0 70 70" fill="none" xmlns="http://www.w3.org/2000/svg">
  <path fill-rule="evenodd" clip-rule="evenodd"
    d="M33.5 18C31.5939 18 29.8669 18.6545 28.6785 19.6731C27.5092 20.6753 27 21.8904 27 23C27 25.2091 25.2091 27 23 27C20.7909 27 19 25.2091 19 23C19 19.3357 20.7033 15.9724 23.4722 13.599C26.2221 11.242 29.8365 10 33.5 10L36.5 10C40.1635 10 43.7779 11.242 46.5278 13.599C49.2678 15.9476 50.9643 19.2656 50.9994 22.8854C51.1329 25.6608 50.3735 28.4071 48.8311 30.7207C47.3152 32.9946 45.1226 34.731 42.5668 35.6865C41.723 36.1241 40.7964 37.0098 40.0748 38.4529C39.3185 39.9656 38.9125 41.859 38.9964 43.83C39.0903 46.0371 37.3771 47.9025 35.17 47.9964C32.9629 48.0903 31.0975 46.3771 31.0036 44.17C30.8665 40.9469 31.5114 37.6912 32.9194 34.8752C34.3245 32.065 36.499 29.6925 39.302 28.3783C39.423 28.3215 39.5469 28.2709 39.6731 28.2265C40.6955 27.867 41.5735 27.1849 42.1747 26.2831C42.7759 25.3813 43.0678 24.3086 43.0064 23.2265C43.0021 23.1511 43 23.0755 43 23C43 21.8904 42.4908 20.6753 41.3215 19.6731C40.1331 18.6545 38.4061 18 36.5 18L33.5 18ZM35 52C37.2091 52 39 53.7909 39 56V56.03C39 58.2391 37.2091 60.03 35 60.03C32.7909 60.03 31 58.2391 31 56.03V56C31 53.7909 32.7909 52 35 52Z"
    fill="#1D89F3" />
</svg>