<svg width="226" height="215" viewBox="0 0 226 215" fill="none" xmlns="http://www.w3.org/2000/svg">
<path d="M21.8154 168.378C16.2774 161.279 4.66258 146.005 2.92934 143.111C1.17538 140.184 -0.10901 136.731 2.47359 133.789C5.37383 130.488 8.74363 132.298 11.782 135.737L28.5965 156.446C29.2525 155.527 28.9279 155.272 29.6668 154.27C29.1903 153.918 28.7691 153.469 28.41 153C28.41 153 8.94389 131.048 5.83649 126.918C5.19429 126.069 1.12014 120.31 4.51066 116.45C7.13469 113.467 9.72419 113.059 13.2183 116.415L38.9476 143.222C39.4724 142.628 39.9972 142.034 40.522 141.454C39.21 140.501 21.4633 123.279 12.9973 113.681C11.2296 111.678 9.95898 109.952 9.14415 108.889C6.54774 105.464 6.32677 102.038 8.50886 99.8564C11.271 97.0943 13.4462 96.162 18.0797 100.022C23.5349 104.566 49.7337 129.674 49.5058 129.929C50.0376 130.323 50.5486 130.806 50.9353 131.359C51.5774 130.744 52.1989 130.15 52.8066 129.584C52.8066 129.584 27.8162 107.383 25.3303 104.455C22.8374 101.534 22.7131 98.7308 24.8124 96.2173C27.1187 93.4551 29.8809 92.295 34.8044 95.7684C46.6194 104.103 79.406 132.484 80.3037 133.023C81.2083 133.568 80.7318 134.5 81.5535 134.065C82.8932 133.361 107.379 166.603 89.2737 184.709C77.217 196.766 62.2669 197.781 50.7764 193.141C36.365 187.319 28.0164 176.333 21.8154 168.378Z" fill="#E0BB95"/>
<path d="M20.4477 100.029C23.1062 102.356 51.2869 127.982 53.0892 129.342C54.4979 130.406 56.5764 130.178 57.1633 131.731C57.5707 132.816 54.5738 133.672 53.248 133.768C52.005 133.865 51.1557 133.458 50.1682 132.47C49.1808 131.483 17.9755 101.88 17.9755 101.88C15.3515 99.297 13.197 98.6341 11.6088 98.6755C11.084 98.6893 10.9735 98.0402 11.4224 97.7571C13.4802 96.4727 16.194 96.3139 20.4477 100.029Z" fill="#BA8F63"/>
<path d="M13.7702 118.57C17.3403 122.264 37.3243 142.815 38.1184 143.83C38.9125 144.845 38.9402 146.101 40.5422 146.184C41.7575 146.253 42.9729 144.969 43.4908 143.885C44.2089 142.366 41.4123 141.53 40.1417 140.246C38.8711 138.975 20.061 120.842 16.1802 117.058C13.1211 114.068 10.4626 113.605 8.38405 114.123C7.72114 114.289 7.76948 115.235 8.43929 115.338C9.86179 115.559 11.671 116.402 13.7702 118.57Z" fill="#BA8F63"/>
<path d="M12.2508 134.314C12.2508 134.314 31.5374 154.554 31.6065 154.609C31.6065 154.609 33.4709 155.852 31.7515 159.201C31.3234 160.043 30.5431 161.155 29.5763 160.326C29.0377 159.857 28.7339 157.73 28.3748 157.26L10.0964 135.557C8.09383 133.458 7.28591 133.548 5.55267 133.706C3.77799 133.865 3.85395 132.753 4.20613 132.484C6.45036 130.792 9.53014 131.4 12.2508 134.314Z" fill="#BA8F63"/>
<path d="M33.1337 96.749C44.6311 104.794 68.1368 127.001 77.7767 135.536L79.8207 131.697C78.8332 130.958 47.1377 103.185 35.6956 95.4439C32.6365 93.3792 30.1506 93.1168 28.2723 93.683C27.5749 93.8971 27.7475 94.9122 28.4795 94.9398C29.7225 94.995 31.2831 95.4508 33.1337 96.749Z" fill="#BA8F63"/>
<rect x="24.5888" y="56.4143" width="56.4254" height="85" rx="10.5" transform="rotate(2 24.5888 56.4143)" fill="white" stroke="black" stroke-width="5"/>
<rect x="37.9238" y="61.3827" width="30" height="12" rx="4" transform="rotate(2 37.9238 61.3827)" fill="#E8BD00"/>
<rect x="64.2539" y="138.348" width="30" height="12" rx="4" transform="rotate(-178 64.2539 138.348)" fill="#E8BD00"/>
<rect x="19.4143" y="79.2757" width="56.4254" height="85" rx="10.5" transform="rotate(-2 19.4143 79.2757)" fill="white" stroke="black" stroke-width="5"/>
<rect x="33.0625" y="83.3018" width="30" height="12" rx="4" transform="rotate(-2 33.0625 83.3018)" fill="#E8BD00"/>
<rect x="64.6973" y="158.243" width="30" height="12" rx="4" transform="rotate(178 64.6973 158.243)" fill="#E8BD00"/>
<rect x="23.5888" y="98.0641" width="56.4254" height="85" rx="10.5" transform="rotate(2 23.5888 98.0641)" fill="white" stroke="black" stroke-width="5"/>
<rect x="36.9238" y="103.032" width="30" height="12" rx="4" transform="rotate(2 36.9238 103.032)" fill="#E8BD00"/>
<rect x="63.2539" y="179.998" width="30" height="12" rx="4" transform="rotate(-178 63.2539 179.998)" fill="#E8BD00"/>
<path d="M75.2 108.889C72.8522 120.876 79.7382 132.024 79.7382 132.024L73.3743 143.338L70.5458 158.187C70.5458 158.187 82.567 192.835 90.9097 183.17C100.149 173.53 106.675 159.988 96.6273 130.772C92.2355 117.997 90.1777 110.304 89.5493 105.823C88.5204 98.5101 77.3752 97.7367 75.2 108.889Z" fill="#E0BB95"/>
<path d="M71.4291 167.088C62.3278 149.59 76.9101 133.439 76.9101 133.439C77.8792 132.505 79.4539 131.261 79.6326 131.595C81.8423 135.724 78.7763 138.376 76.5252 142.104C68.0316 156.191 74.2741 166.563 75.9797 170.285C76.463 171.335 80.4052 177.916 80.9922 179C81.3927 179.746 80.4121 180.45 79.8321 179.829C78.3958 178.323 73.259 170.603 71.4291 167.088Z" fill="#BA8F63"/>
<path d="M87.8515 108.585C88.3487 113.833 89.7229 119.875 93.5691 132.56C97.4983 145.536 98.9967 154.92 97.4292 163.338C96.6489 167.543 95.5924 173.626 87.0367 182.237C80.8288 188.487 74.3792 192.05 70.1117 193.928C69.4281 194.225 69.7733 195.233 70.5053 195.081C76.6994 193.776 83.1282 190.51 89.5847 184.509C91.3663 182.852 92.0361 181.975 95.109 177.908C99.1417 172.563 106.938 159.726 96.8837 130.503C92.4919 117.728 90.2615 110.512 89.6262 106.037C89.4328 104.67 88.8735 103.365 87.9689 102.391C87.5339 101.915 86.7536 102.336 86.9193 102.957C87.23 104.166 87.6098 106.023 87.8515 108.585Z" fill="#BA8F63"/>
<path d="M120.335 130.747C121.439 121.812 124.027 102.798 124.847 99.5266C125.677 96.2161 127.21 92.8665 131.116 92.6126C135.501 92.3293 136.605 95.9915 136.322 100.572L133.568 127.105C134.681 126.919 134.632 126.509 135.863 126.323C135.775 125.738 135.794 125.122 135.872 124.536C135.872 124.536 137.63 95.2493 138.353 90.1321C138.499 89.0774 139.691 82.1243 144.818 81.7922C148.782 81.5383 150.902 83.0813 150.999 87.9251L150.238 125.073C151.029 125.025 151.82 124.976 152.601 124.937C152.347 123.335 151.976 98.6086 152.777 85.8352C152.943 83.1692 153.265 81.0501 153.441 79.7219C154.027 75.4641 156.292 72.886 159.378 72.886C163.284 72.886 165.482 73.7649 166.029 79.7708C166.673 86.8411 167.445 123.12 167.103 123.14C167.2 123.794 167.22 124.497 167.103 125.161C167.991 125.181 168.851 125.2 169.681 125.23C169.681 125.23 167.708 91.8606 168.021 88.0325C168.323 84.2044 170.218 82.134 173.48 81.8411C177.064 81.5188 179.837 82.6516 180.863 88.5891C183.323 102.837 186.439 146.089 186.693 147.105C186.947 148.13 185.95 148.452 186.839 148.726C188.284 149.175 182.093 189.995 156.488 189.995C139.437 189.995 128.148 180.142 123.304 168.736C117.23 154.429 119.095 140.757 120.335 130.747Z" fill="#E0BB95"/>
<path d="M167.699 81.4504C167.934 84.9758 169.74 123.023 170.053 125.259C170.297 127.007 171.928 128.316 171.244 129.829C170.766 130.884 168.041 129.37 167.035 128.501C166.088 127.691 165.776 126.802 165.776 125.405C165.776 124.009 164.643 81.011 164.643 81.011C164.613 77.3293 163.559 75.3371 162.406 74.2434C162.026 73.8821 162.406 73.3449 162.924 73.4621C165.287 74.009 167.319 75.8157 167.699 81.4504Z" fill="#BA8F63"/>
<path d="M149.866 89.8391C149.778 94.9758 149.377 123.638 149.221 124.917C149.065 126.196 148.196 127.105 149.27 128.296C150.081 129.204 151.848 129.155 152.981 128.755C154.563 128.189 153.176 125.62 153.186 123.814C153.186 122.017 152.708 95.8938 152.639 90.4738C152.59 86.1965 151.038 83.9895 149.202 82.8859C148.616 82.5344 147.981 83.2375 148.381 83.7844C149.231 84.9465 149.915 86.8215 149.866 89.8391Z" fill="#BA8F63"/>
<path d="M137.66 99.8977C137.66 99.8977 136.986 127.847 136.995 127.935C136.995 127.935 137.435 130.132 133.851 131.284C132.953 131.577 131.615 131.812 131.517 130.542C131.468 129.829 132.757 128.111 132.835 127.525L135.257 99.2532C135.326 96.3528 134.691 95.845 133.353 94.7317C131.986 93.5891 132.826 92.8567 133.265 92.9153C136.048 93.3059 137.796 95.9133 137.66 99.8977Z" fill="#BA8F63"/>
<path d="M178.988 88.1008C181.429 101.919 182.347 134.243 183.128 147.095L187.289 145.825C187.113 144.605 184.339 102.554 181.722 88.9895C181.019 85.3664 179.447 83.4231 177.718 82.4953C177.074 82.1536 176.478 82.9934 176.976 83.5305C177.816 84.4485 178.597 85.8743 178.988 88.1008Z" fill="#BA8F63"/>
<rect x="100.308" y="89.1581" width="56.4254" height="85" rx="10.5" transform="rotate(-34.7462 100.308 89.1581)" fill="white" stroke="black" stroke-width="5"/>
<circle cx="145.285" cy="132.199" r="7.5" transform="rotate(-34.7462 145.285 132.199)" fill="#F44336"/>
<circle cx="171.578" cy="113.961" r="7.5" transform="rotate(-34.7462 171.578 113.961)" fill="#F44336"/>
<circle cx="150.14" cy="83.8013" r="7.5" transform="rotate(-34.7462 150.14 83.8013)" fill="#F44336"/>
<circle cx="123.847" cy="102.039" r="7.5" transform="rotate(-34.7462 123.847 102.039)" fill="#F44336"/>
<rect x="128.277" y="69.2976" width="56.4254" height="85" rx="10.5" transform="rotate(-12.005 128.277 69.2976)" fill="white" stroke="black" stroke-width="5"/>
<circle cx="153.119" cy="126.379" r="7.5" transform="rotate(-12.005 153.119 126.379)" fill="#F44336"/>
<circle cx="184.419" cy="119.723" r="7.5" transform="rotate(-12.005 184.419 119.723)" fill="#F44336"/>
<circle cx="176.306" cy="83.621" r="7.5" transform="rotate(-12.005 176.306 83.621)" fill="#F44336"/>
<circle cx="145.005" cy="90.2768" r="7.5" transform="rotate(-12.005 145.005 90.2768)" fill="#F44336"/>
<rect x="158.208" y="62.7262" width="56.4254" height="85" rx="10.5" transform="rotate(6.14 158.208 62.7262)" fill="white" stroke="black" stroke-width="5"/>
<circle cx="164.038" cy="124.705" r="7.5" transform="rotate(6.14 164.038 124.705)" fill="#F44336"/>
<circle cx="195.854" cy="128.128" r="7.5" transform="rotate(6.14 195.854 128.128)" fill="#F44336"/>
<circle cx="199.387" cy="91.2946" r="7.5" transform="rotate(6.14 199.387 91.2946)" fill="#F44336"/>
<circle cx="167.571" cy="87.872" r="7.5" transform="rotate(6.14 167.571 87.872)" fill="#F44336"/>
<path d="M200.15 126.431C190.013 133.247 186.999 145.999 186.999 145.999L174.499 149.499L161.999 157.999C161.999 157.999 146 190.999 158.734 190.064C172.083 189.781 186.273 184.82 199.828 157.056C205.755 144.917 209.74 138.023 212.464 134.409C216.908 128.511 209.574 120.083 200.15 126.431Z" fill="#E0BB95"/>
<path d="M156.331 164.917C162.268 146.109 184 144.999 184 144.999C185.345 145.025 187.339 145.258 187.229 145.621C185.872 150.103 181.829 149.81 177.6 150.855C161.633 154.81 158.713 166.558 157.288 170.396C156.887 171.48 156.477 172.759 156.126 173.941C155.881 174.751 154.69 174.556 154.719 173.707C154.768 171.626 155.139 168.697 156.331 164.917Z" fill="#BA8F63"/>
<path d="M209.31 135.162C205.951 139.224 202.65 144.468 196.4 156.158C190.004 168.111 184.427 175.806 177.367 180.65C173.841 183.072 168.793 186.626 156.654 186.665C147.845 186.695 140.765 184.654 136.42 182.964C135.726 182.691 135.257 183.648 135.882 184.058C141.185 187.515 148.041 189.751 156.849 190.074C159.281 190.162 160.375 190.015 165.424 189.312C172.054 188.384 186.644 184.82 200.199 157.046C206.127 144.908 209.652 138.228 212.367 134.615C213.197 133.511 213.724 132.193 213.773 130.865C213.802 130.22 212.953 129.966 212.631 130.523C211.996 131.597 210.951 133.179 209.31 135.162Z" fill="#BA8F63"/>
<path d="M35.7053 38L35.7053 3.09091L43.086 3.09091L43.086 17.4943L58.069 17.4943L58.069 3.09092L65.4326 3.09092L65.4326 38L58.069 38L58.069 23.5796L43.086 23.5795L43.086 38L35.7053 38ZM83.7749 38L75.8658 38L87.9169 3.09092L97.4283 3.09092L109.462 38L101.553 38L92.809 11.0682L92.5362 11.0682L83.7749 38ZM83.2806 24.2784L101.962 24.2784L101.962 30.0398L83.2806 30.0398L83.2806 24.2784ZM149.103 3.09093L149.103 38L142.728 38L127.54 16.0284L127.285 16.0284L127.285 38L119.904 38L119.904 3.09092L126.381 3.09092L141.45 25.0455L141.756 25.0455L141.756 3.09093L149.103 3.09093ZM173.816 38L161.441 38L161.441 3.09093L173.918 3.09093C177.43 3.09093 180.452 3.78979 182.986 5.18752C185.521 6.57389 187.469 8.5682 188.833 11.1705C190.208 13.7728 190.896 16.8864 190.896 20.5114C190.896 24.1478 190.208 27.2728 188.833 29.8864C187.469 32.5 185.509 34.5057 182.952 35.9034C180.407 37.3012 177.361 38 173.816 38ZM168.822 31.6762L173.509 31.6762C175.691 31.6762 177.526 31.2898 179.015 30.5171C180.515 29.733 181.64 28.5227 182.39 26.8864C183.151 25.2387 183.532 23.1137 183.532 20.5114C183.532 17.9318 183.151 15.8239 182.39 14.1875C181.64 12.5512 180.521 11.3466 179.032 10.5739C177.543 9.80116 175.708 9.4148 173.526 9.41479L168.822 9.41479L168.822 31.6762Z" fill="black"/>
<mask id="path-42-outside-1_154_8662" maskUnits="userSpaceOnUse" x="148" y="172" width="26" height="31" fill="black">
<rect fill="white" x="148" y="172" width="26" height="31"/>
<path d="M153.014 198L153.014 177.636L161.167 177.636C162.666 177.636 163.915 177.858 164.916 178.303C165.917 178.747 166.669 179.363 167.173 180.152C167.677 180.934 167.929 181.836 167.929 182.857C167.929 183.652 167.77 184.351 167.452 184.955C167.133 185.551 166.696 186.042 166.139 186.426C165.589 186.804 164.959 187.072 164.25 187.232L164.25 187.43C165.025 187.464 165.751 187.682 166.427 188.087C167.11 188.491 167.664 189.058 168.088 189.787C168.512 190.509 168.724 191.371 168.724 192.372C168.724 193.453 168.456 194.417 167.919 195.266C167.389 196.107 166.603 196.774 165.562 197.264C164.522 197.755 163.239 198 161.714 198L153.014 198ZM157.319 194.48L160.829 194.48C162.029 194.48 162.904 194.251 163.454 193.794C164.005 193.33 164.28 192.714 164.28 191.945C164.28 191.381 164.144 190.884 163.872 190.453C163.6 190.022 163.212 189.684 162.709 189.439C162.211 189.194 161.618 189.071 160.929 189.071L157.319 189.071L157.319 194.48ZM157.319 186.158L160.511 186.158C161.101 186.158 161.625 186.055 162.082 185.849C162.546 185.637 162.911 185.339 163.176 184.955C163.448 184.57 163.584 184.109 163.584 183.572C163.584 182.837 163.322 182.243 162.798 181.793C162.281 181.342 161.545 181.116 160.591 181.116L157.319 181.116L157.319 186.158Z"/>
</mask>
<path d="M153.014 198L153.014 177.636L161.167 177.636C162.666 177.636 163.915 177.858 164.916 178.303C165.917 178.747 166.669 179.363 167.173 180.152C167.677 180.934 167.929 181.836 167.929 182.857C167.929 183.652 167.77 184.351 167.452 184.955C167.133 185.551 166.696 186.042 166.139 186.426C165.589 186.804 164.959 187.072 164.25 187.232L164.25 187.43C165.025 187.464 165.751 187.682 166.427 188.087C167.11 188.491 167.664 189.058 168.088 189.787C168.512 190.509 168.724 191.371 168.724 192.372C168.724 193.453 168.456 194.417 167.919 195.266C167.389 196.107 166.603 196.774 165.562 197.264C164.522 197.755 163.239 198 161.714 198L153.014 198ZM157.319 194.48L160.829 194.48C162.029 194.48 162.904 194.251 163.454 193.794C164.005 193.33 164.28 192.714 164.28 191.945C164.28 191.381 164.144 190.884 163.872 190.453C163.6 190.022 163.212 189.684 162.709 189.439C162.211 189.194 161.618 189.071 160.929 189.071L157.319 189.071L157.319 194.48ZM157.319 186.158L160.511 186.158C161.101 186.158 161.625 186.055 162.082 185.849C162.546 185.637 162.911 185.339 163.176 184.955C163.448 184.57 163.584 184.109 163.584 183.572C163.584 182.837 163.322 182.243 162.798 181.793C162.281 181.342 161.545 181.116 160.591 181.116L157.319 181.116L157.319 186.158Z" fill="white"/>
<path d="M153.014 198L148.014 198C148.014 200.761 150.253 203 153.014 203L153.014 198ZM153.014 177.636L153.014 172.636C150.253 172.636 148.014 174.875 148.014 177.636L153.014 177.636ZM164.916 178.303L162.888 182.873L162.888 182.873L164.916 178.303ZM167.173 180.152L162.959 182.843C162.963 182.849 162.966 182.854 162.97 182.859L167.173 180.152ZM167.452 184.955L171.863 187.307C171.867 187.301 171.87 187.294 171.874 187.287L167.452 184.955ZM166.139 186.426L168.97 190.548L168.98 190.541L166.139 186.426ZM164.25 187.232L163.156 182.353C160.872 182.865 159.25 184.892 159.25 187.232L164.25 187.232ZM164.25 187.43L159.25 187.43C159.25 190.109 161.36 192.311 164.036 192.426L164.25 187.43ZM166.427 188.087L163.861 192.378C163.867 192.381 163.873 192.385 163.88 192.389L166.427 188.087ZM168.088 189.787L163.766 192.301C163.769 192.307 163.773 192.313 163.776 192.319L168.088 189.787ZM167.919 195.266L163.694 192.592L163.688 192.601L167.919 195.266ZM165.562 197.264L163.431 192.741L163.431 192.741L165.562 197.264ZM157.319 194.48L152.319 194.48C152.319 197.242 154.558 199.48 157.319 199.48L157.319 194.48ZM163.454 193.794L166.651 197.639C166.66 197.631 166.669 197.624 166.678 197.616L163.454 193.794ZM163.872 190.453L159.643 193.121L159.643 193.121L163.872 190.453ZM162.709 189.439L160.497 193.923C160.504 193.927 160.512 193.931 160.52 193.934L162.709 189.439ZM157.319 189.071L157.319 184.071C154.558 184.071 152.319 186.31 152.319 189.071L157.319 189.071ZM157.319 186.158L152.319 186.158C152.319 188.919 154.558 191.158 157.319 191.158L157.319 186.158ZM162.082 185.849L164.131 190.41C164.141 190.406 164.151 190.401 164.161 190.397L162.082 185.849ZM163.176 184.955L159.093 182.068C159.082 182.084 159.071 182.1 159.06 182.116L163.176 184.955ZM162.798 181.793L159.512 185.561C159.52 185.568 159.528 185.575 159.536 185.582L162.798 181.793ZM157.319 181.116L157.319 176.116C154.558 176.116 152.319 178.355 152.319 181.116L157.319 181.116ZM158.014 198L158.014 177.636L148.014 177.636L148.014 198L158.014 198ZM153.014 182.636L161.167 182.636L161.167 172.636L153.014 172.636L153.014 182.636ZM161.167 182.636C162.209 182.636 162.715 182.796 162.888 182.873L166.944 173.732C165.115 172.921 163.122 172.636 161.167 172.636L161.167 182.636ZM162.888 182.873C163.029 182.935 163.073 182.975 163.062 182.966C163.057 182.961 163.041 182.948 163.021 182.925C163 182.902 162.979 182.874 162.959 182.843L171.387 177.461C170.27 175.712 168.686 174.505 166.944 173.732L162.888 182.873ZM162.97 182.859C162.961 182.846 162.951 182.828 162.942 182.808C162.933 182.788 162.927 182.771 162.924 182.76C162.921 182.749 162.922 182.749 162.924 182.763C162.926 182.777 162.929 182.807 162.929 182.857L172.929 182.857C172.929 180.972 172.451 179.112 171.377 177.445L162.97 182.859ZM162.929 182.857C162.929 182.921 162.922 182.92 162.934 182.869C162.946 182.814 162.974 182.726 163.029 182.622L171.874 187.287C172.63 185.854 172.929 184.329 172.929 182.857L162.929 182.857ZM163.04 182.602C163.062 182.559 163.1 182.502 163.153 182.442C163.207 182.382 163.259 182.339 163.298 182.312L168.98 190.541C170.193 189.703 171.169 188.609 171.863 187.307L163.04 182.602ZM163.308 182.304C163.314 182.301 163.311 182.304 163.293 182.311C163.275 182.319 163.232 182.336 163.156 182.353L165.344 192.11C166.619 191.824 167.849 191.317 168.97 190.548L163.308 182.304ZM159.25 187.232L159.25 187.43L169.25 187.43L169.25 187.232L159.25 187.232ZM164.036 192.426C164.017 192.425 163.979 192.421 163.933 192.407C163.912 192.4 163.894 192.393 163.88 192.387C163.867 192.381 163.86 192.377 163.861 192.378L168.994 183.795C167.615 182.971 166.082 182.504 164.463 182.435L164.036 192.426ZM163.88 192.389C163.864 192.38 163.846 192.367 163.827 192.352C163.808 192.337 163.791 192.322 163.777 192.308C163.749 192.279 163.748 192.27 163.766 192.301L172.41 187.272C171.584 185.854 170.439 184.651 168.975 183.785L163.88 192.389ZM163.776 192.319C163.754 192.281 163.738 192.247 163.727 192.219C163.715 192.191 163.711 192.173 163.71 192.17C163.709 192.164 163.724 192.224 163.724 192.372L173.724 192.372C173.724 190.655 173.355 188.883 172.4 187.255L163.776 192.319ZM163.724 192.372C163.724 192.495 163.71 192.553 163.706 192.565C163.703 192.575 163.702 192.579 163.694 192.592L172.144 197.939C173.226 196.23 173.724 194.324 173.724 192.372L163.724 192.372ZM163.688 192.601C163.704 192.575 163.716 192.568 163.698 192.583C163.676 192.602 163.6 192.662 163.431 192.741L167.694 201.787C169.459 200.955 171.035 199.699 172.149 197.931L163.688 192.601ZM163.431 192.741C163.236 192.833 162.731 193 161.714 193L161.714 203C163.747 203 165.807 202.677 167.694 201.787L163.431 192.741ZM161.714 193L153.014 193L153.014 203L161.714 203L161.714 193ZM157.319 199.48L160.829 199.48L160.829 189.48L157.319 189.48L157.319 199.48ZM160.829 199.48C162.47 199.48 164.769 199.203 166.651 197.639L160.258 189.949C160.675 189.603 161.031 189.495 161.121 189.471C161.206 189.449 161.132 189.48 160.829 189.48L160.829 199.48ZM166.678 197.616C168.439 196.131 169.28 194.072 169.28 191.945L159.28 191.945C159.28 191.724 159.322 191.362 159.507 190.946C159.697 190.521 159.969 190.193 160.231 189.972L166.678 197.616ZM169.28 191.945C169.28 190.541 168.929 189.098 168.101 187.786L159.643 193.121C159.512 192.913 159.415 192.69 159.355 192.467C159.295 192.249 159.28 192.067 159.28 191.945L169.28 191.945ZM168.101 187.786C167.284 186.49 166.152 185.554 164.897 184.943L160.52 193.934C160.411 193.881 160.258 193.79 160.092 193.645C159.923 193.498 159.769 193.32 159.643 193.121L168.101 187.786ZM164.921 184.955C163.589 184.298 162.203 184.071 160.929 184.071L160.929 194.071C161.034 194.071 160.834 194.09 160.497 193.923L164.921 184.955ZM160.929 184.071L157.319 184.071L157.319 194.071L160.929 194.071L160.929 184.071ZM152.319 189.071L152.319 194.48L162.319 194.48L162.319 189.071L152.319 189.071ZM157.319 191.158L160.511 191.158L160.511 181.158L157.319 181.158L157.319 191.158ZM160.511 191.158C161.684 191.158 162.926 190.952 164.131 190.41L160.033 181.289C160.324 181.158 160.518 181.158 160.511 181.158L160.511 191.158ZM164.161 190.397C165.368 189.845 166.468 188.989 167.292 187.793L159.06 182.116C159.354 181.69 159.725 181.429 160.003 181.302L164.161 190.397ZM167.259 187.841C168.209 186.497 168.584 184.993 168.584 183.572L158.584 183.572C158.584 183.226 158.687 182.643 159.093 182.068L167.259 187.841ZM168.584 183.572C168.584 181.488 167.766 179.472 166.06 178.003L159.536 185.582C159.272 185.355 159.002 185.022 158.813 184.594C158.628 184.175 158.584 183.806 158.584 183.572L168.584 183.572ZM166.084 178.024C164.354 176.516 162.282 176.116 160.591 176.116L160.591 186.116C160.809 186.116 160.208 186.168 159.512 185.561L166.084 178.024ZM160.591 176.116L157.319 176.116L157.319 186.116L160.591 186.116L160.591 176.116ZM152.319 181.116L152.319 186.158L162.319 186.158L162.319 181.116L152.319 181.116Z" fill="black" mask="url(#path-42-outside-1_154_8662)"/>
<mask id="path-44-outside-2_154_8662" maskUnits="userSpaceOnUse" x="40.4922" y="172" width="31" height="31" fill="black">
<rect fill="white" x="40.4922" y="172" width="31" height="31"/>
<path d="M50.7994 198L46.1857 198L53.2156 177.636L58.7638 177.636L65.7837 198L61.1701 198L56.0692 182.29L55.9102 182.29L50.7994 198ZM50.511 189.996L61.4087 189.996L61.4087 193.357L50.511 193.357L50.511 189.996Z"/>
</mask>
<path d="M50.7994 198L46.1857 198L53.2156 177.636L58.7638 177.636L65.7837 198L61.1701 198L56.0692 182.29L55.9102 182.29L50.7994 198ZM50.511 189.996L61.4087 189.996L61.4087 193.357L50.511 193.357L50.511 189.996Z" fill="white"/>
<path d="M50.7994 198L50.7994 203C52.9648 203 54.8842 201.606 55.5541 199.547L50.7994 198ZM46.1857 198L41.4594 196.368C40.9319 197.897 41.1757 199.585 42.114 200.902C43.0522 202.218 44.5691 203 46.1857 203L46.1857 198ZM53.2156 177.636L53.2156 172.636C51.083 172.636 49.1851 173.989 48.4893 176.005L53.2156 177.636ZM58.7638 177.636L63.4909 176.007C62.7956 173.99 60.8972 172.636 58.7639 172.636L58.7638 177.636ZM65.7837 198L65.7837 203C67.4 203 68.9165 202.219 69.8548 200.903C70.7931 199.587 71.0375 197.898 70.5107 196.37L65.7837 198ZM61.1701 198L56.4145 199.544C57.0835 201.605 59.0036 203 61.1701 203L61.1701 198ZM56.0692 182.29L60.8249 180.746C60.1558 178.685 58.2358 177.29 56.0692 177.29L56.0692 182.29ZM55.9102 182.29L55.9102 177.29C53.7447 177.29 51.8253 178.684 51.1554 180.743L55.9102 182.29ZM50.511 189.996L50.511 184.996C47.7496 184.996 45.511 187.234 45.511 189.996L50.511 189.996ZM61.4087 189.996L66.4087 189.996C66.4087 187.234 64.1702 184.996 61.4087 184.996L61.4087 189.996ZM61.4087 193.357L61.4087 198.357C64.1702 198.357 66.4087 196.118 66.4087 193.357L61.4087 193.357ZM50.511 193.357L45.511 193.357C45.511 196.118 47.7496 198.357 50.511 198.357L50.511 193.357ZM50.7994 193L46.1857 193L46.1857 203L50.7994 203L50.7994 193ZM50.912 199.632L57.9419 179.268L48.4893 176.005L41.4594 196.368L50.912 199.632ZM53.2156 182.636L58.7638 182.636L58.7639 172.636L53.2156 172.636L53.2156 182.636ZM54.0368 179.266L61.0567 199.63L70.5107 196.37L63.4909 176.007L54.0368 179.266ZM65.7837 193L61.1701 193L61.1701 203L65.7837 203L65.7837 193ZM65.9257 196.456L60.8249 180.746L51.3136 183.834L56.4145 199.544L65.9257 196.456ZM56.0692 177.29L55.9102 177.29L55.9102 187.29L56.0692 187.29L56.0692 177.29ZM51.1554 180.743L46.0446 196.453L55.5541 199.547L60.6649 183.837L51.1554 180.743ZM50.511 194.996L61.4087 194.996L61.4087 184.996L50.511 184.996L50.511 194.996ZM56.4087 189.996L56.4087 193.357L66.4087 193.357L66.4087 189.996L56.4087 189.996ZM61.4087 188.357L50.511 188.357L50.511 198.357L61.4087 198.357L61.4087 188.357ZM55.511 193.357L55.511 189.996L45.511 189.996L45.511 193.357L55.511 193.357Z" fill="black" mask="url(#path-44-outside-2_154_8662)"/>
</svg>
