<svg width="150" height="150" viewBox="0 0 150 150" fill="none" xmlns="http://www.w3.org/2000/svg">
<path d="M60.4293 31.1111C56.9432 18 64.846 9.69447 77.1793 6.95836C77.6436 6.86011 78.129 6.93935 78.5404 7.18058C82.7904 9.70836 81.0127 12.5834 79.6238 16.0556C78.7534 18.2223 79.5358 19.551 81.971 20.0417C95.7904 22.8195 102.096 27.1806 104.013 41.5695C104.304 43.7361 103.763 45.4723 102.804 47.3056C102.747 47.4129 102.717 47.5326 102.716 47.6543C102.715 47.776 102.744 47.896 102.8 48.004C102.856 48.112 102.938 48.2047 103.038 48.2742C103.138 48.3437 103.253 48.3878 103.374 48.4028C123.054 50.75 134.749 65.1806 129.346 85.5139C129.068 86.5787 129.471 87.2084 130.554 87.4028C136.679 88.5 144.402 96.6389 146.165 102.431C147.902 108.194 148.221 116.931 146.707 122.736C143.92 133.477 136.101 138.856 123.249 138.875C94.2117 138.912 65.1654 138.912 36.1099 138.875C31.1099 138.866 26.133 138.509 21.1793 137.806C14.1238 136.792 4.33212 130.889 3.08212 122.889C1.59601 113.472 2.84601 102.292 12.471 97.8472C15.2488 96.5602 17.3136 95.5787 18.6654 94.9028C19.1099 94.6898 19.258 94.3472 19.1099 93.875C14.9849 81.4167 21.2766 70.4167 32.0682 64.3473C32.4387 64.1417 32.7474 63.8413 32.9624 63.4774C33.1773 63.1135 33.2906 62.6993 33.2904 62.2778C33.3043 58.8611 33.0543 55.0417 33.8182 51.9167C36.8182 39.7084 48.5405 34.25 59.9016 31.9584C60.3738 31.8658 60.5497 31.5834 60.4293 31.1111Z" fill="#B79664"/>
<path fill-rule="evenodd" clip-rule="evenodd" d="M70.9676 8.98221C72.2719 10.8195 71.4256 12.8441 70.4678 15.1353C70.3304 15.4641 70.1907 15.7984 70.0547 16.1383C69.1843 18.305 69.9667 19.6337 72.4019 20.1245C86.2214 22.9022 92.5269 27.2633 94.4436 41.6522C94.7352 43.8189 94.1936 45.555 93.2352 47.3883C93.178 47.4957 93.1477 47.6154 93.147 47.7371C93.1464 47.8587 93.1753 47.9788 93.2313 48.0868C93.2874 48.1948 93.3689 48.2875 93.4688 48.357C93.5686 48.4265 93.6839 48.4706 93.8047 48.4856C113.485 50.8328 125.18 65.2633 119.777 85.5967C119.499 86.6615 119.902 87.2911 120.985 87.4856C127.11 88.5828 134.832 96.7217 136.596 102.513C138.332 108.277 138.652 117.013 137.138 122.819C134.536 132.847 127.547 138.202 116.171 138.883C118.53 138.881 120.888 138.878 123.247 138.875C136.099 138.856 143.918 133.477 146.705 122.736C148.219 116.931 147.9 108.194 146.164 102.431C144.4 96.6389 136.677 88.5 130.552 87.4028C129.469 87.2084 129.066 86.5787 129.344 85.5139C134.747 65.1806 123.052 50.75 103.372 48.4028C103.251 48.3878 103.136 48.3437 103.036 48.2742C102.936 48.2047 102.855 48.112 102.799 48.004C102.742 47.896 102.714 47.776 102.714 47.6543C102.715 47.5326 102.745 47.4129 102.802 47.3056C103.761 45.4723 104.302 43.7361 104.011 41.5695C102.094 27.1806 95.7886 22.8195 81.9691 20.0417C79.5339 19.551 78.7515 18.2222 79.6219 16.0556C79.7579 15.7156 79.8976 15.3813 80.035 15.0526C81.3011 12.0237 82.3724 9.46085 78.5386 7.18058C78.1271 6.93935 77.6418 6.86011 77.1774 6.95836C74.9492 7.45269 72.8656 8.1288 70.9676 8.98221Z" fill="#9C8057"/>
<path d="M25.1067 84.1703C26.3974 84.8023 27.7951 83.3919 29.7581 80.5674C30.7804 79.0916 32.8903 76.9942 33.8952 76.1446C36.0442 74.3304 38.6979 72.5101 37.5342 70.5612C36.2898 68.4825 31.6087 69.8317 28.0997 73.8251C24.5907 77.8185 23.2221 83.2501 25.1067 84.1703Z" fill="#EBC181"/>
<path d="M9.36404 118.917C10.9585 119.417 12.3422 117.626 14.1473 114.17C15.0866 112.365 17.1804 109.695 18.2022 108.59C20.3876 106.23 23.155 103.784 21.4918 101.797C19.7141 99.6779 14.5276 101.92 11.128 106.922C7.72837 111.924 7.03653 118.19 9.36404 118.917Z" fill="#EBC181"/>
<path d="M39.934 54.3622C40.8259 55.2799 41.9196 53.1216 44.1683 49.4551C45.4533 47.3599 47.9259 45.8632 49.0796 45.0208C51.477 43.2701 55.1552 43.0772 54.7902 40.6723C54.3981 38.1067 48.9158 38.3644 44.6731 42.4023C40.4304 46.4402 38.631 53.025 39.934 54.3622Z" fill="#EBC181"/>
</svg>
