<svg width="150" height="150" viewBox="0 0 150 150" fill="none" xmlns="http://www.w3.org/2000/svg">
<path d="M83.8008 120.902L75.8672 143.461C75.8672 143.461 92.543 143.238 97.3945 142.746C102.246 142.254 111.234 139.102 112.688 134.25C114.141 129.398 111.469 110.215 111.469 110.215C111.469 110.215 118.758 108.27 122.156 104.391C125.555 100.512 124.582 94.1953 124.336 89.8242C124.09 85.4531 123.914 49.2422 123.363 44.9062C122.531 38.4375 120.211 32.5195 116.32 28.1602C112.43 23.8008 107.918 21.7383 106.301 20.9297C104.238 19.8867 97.6406 18.2578 97.6406 18.2578L83.8008 120.902Z" fill="#605656"/>
<path d="M39.0453 30.4922C38.8578 30.8789 35.0024 33.9609 34.9086 37.125C34.8149 40.3008 35.3891 42.8555 35.7758 45.0117C36.1391 47.0508 36.9008 50.7422 36.9008 50.7422L98.2953 50.4023C98.2953 50.4023 100.674 48.1992 100.311 44.25C99.7367 37.8984 97.0414 34.7227 94.6391 31.8398C92.2367 28.957 61.2641 24.2461 61.2641 24.2461C61.2641 24.2461 39.1391 30.3047 39.0453 30.4922Z" fill="#494341"/>
<path d="M100.089 10.3477C100.089 10.3477 102.374 11.0859 105.432 15.0703C107.987 18.3867 107.132 22.8047 105.69 27.1992C104.53 30.75 101.882 35.8945 98.2606 35.1094C95.3192 34.4766 83.741 30.832 74.4363 29.4023C62.5184 27.5742 54.7371 27.9492 46.6981 30.6328C39.0574 33.1758 34.9207 37.1367 34.9207 37.1367C34.9207 37.1367 34.5926 32.5664 35.6238 30.0117C36.6551 27.457 47.6238 22.1016 47.6238 22.1016L100.089 10.3477Z" fill="#8F8481"/>
<path d="M92.0277 26.5548C96.3519 26.9884 99.4339 23.8712 100.84 18.8907C102.246 13.9102 101.895 11.7071 101.25 10.9454C100.618 10.1837 86.4144 3.31649 68.4144 4.85165C50.4144 6.3868 45.8089 11.9532 43.137 14.5548C38.5433 19.0196 35.3324 26.8829 35.5667 30.2579C35.5667 30.3282 38.2386 25.1368 55.5238 23.1095C75.1761 20.8126 86.93 26.0509 92.0277 26.5548Z" fill="#BEB4B4"/>
<path d="M37.2639 53.3672C37.2639 53.3672 36.3732 49.9219 37.135 48.9023C37.8967 47.8828 40.8381 45.3281 45.3029 44.4375C49.7678 43.5469 54.3615 44.6953 54.3615 44.6953L71.0842 38.9531C71.0842 38.9531 72.2326 40.6172 73.1232 42.5273C74.0139 44.4375 75.1623 48.5273 75.1623 48.5273C75.1623 48.5273 76.3693 46.7812 80.1897 45.6328C84.0217 44.4844 90.467 46.1367 90.467 46.1367L94.0529 76.8633C94.0529 76.8633 93.1623 85.2891 93.4201 102.27C93.6779 119.25 93.549 127.031 92.7873 133.031C92.4592 135.598 90.1506 141.832 80.1545 143.367C70.6154 144.832 53.8576 146.555 41.3537 145.535C28.8381 144.516 25.3576 139.617 24.1154 137.238C22.8381 134.777 24.6311 127.875 24.6311 127.875L31.135 121.535C31.135 121.535 27.8186 98.5547 27.6897 97.9219C27.5607 97.2773 37.2639 53.3672 37.2639 53.3672Z" fill="#938686"/>
<path d="M98.9524 50.3789C97.3704 48.4218 90.5735 44.414 84.9836 46.5468C79.1477 48.7851 76.1829 56.1562 78.093 62.2851C79.3938 66.4687 83.2258 70.4999 86.4485 74.0273C89.9055 77.8242 91.4993 80.7187 92.9876 80.7187C94.4758 80.7187 95.9641 67.4062 97.0891 62.6601C98.2141 57.914 99.9837 51.6562 98.9524 50.3789Z" fill="#BEB4B4"/>
<path d="M76.793 47.1211C76.793 47.1211 75.8672 47.5898 75.3984 47.3086C74.9297 47.0273 74.2266 45.4102 74.2266 45.4102C74.2266 45.4102 60.5391 63.6094 59.8008 64.7227C59.0508 65.8359 59.3203 66.293 59.6953 66.7617C60.0703 67.2305 67.2891 65.7187 71.6602 68.9648C76.2188 72.3633 76.3945 78.9844 74.625 81.5039C72.8555 84.0117 67.4414 84.1875 63.8906 81.5625C62.1445 80.2734 54.5859 76.3242 45.082 76.3242C41.1211 76.3242 34.125 77.0039 34.125 77.0039L29.8828 80.8945L34.0664 86.7539L50.8828 92.7539L53.3672 88.7695C53.3672 88.7695 67.9687 90.3047 72.8789 89.4844C77.7891 88.6641 81.832 84.7266 80.9766 77.2969C80.1914 70.5 75.4922 67.5117 73.207 62.25C71.2383 57.7031 73.2422 53.1562 73.9453 51.457C74.5195 50.0977 76.793 47.1211 76.793 47.1211Z" fill="#5F5755"/>
<path d="M55.0196 95.2031L64.793 99.4453C64.793 99.4453 70.2657 100.746 71.0157 102.316C71.4961 103.312 70.9453 105.117 68.3438 104.367C66.8438 103.934 59.8711 102 57.8086 101.496C55.2774 100.875 41.5899 100.125 38.3321 100.969C35.8828 101.602 32.6836 104.121 30.9024 103.688C29.1914 103.277 29.3321 102.211 29.3086 100.301C29.2969 99.1992 32.9883 96.7734 32.9883 96.7734L52.336 94.3125L55.0196 95.2031Z" fill="#5F5755"/>
<path d="M35.9428 104.777C34.7826 107.449 42.7162 110.672 46.6772 110.789C55.5717 111.059 60.5873 105.797 60.4936 105.316C60.2826 104.355 51.8803 104.227 46.4076 104.156C41.4037 104.098 36.3529 103.816 35.9428 104.777Z" fill="#5F5755"/>
<path d="M58.5589 76.0664C59.9886 76.5938 63.8441 75.6563 67.4183 73.875C70.9925 72.082 72.8675 70.8633 72.7855 70.0547C72.7034 69.2461 70.348 67.2891 67.2542 66.9609C64.0198 66.6211 61.9925 67.1016 61.2425 67.8516C60.1878 68.9063 56.1214 75.1758 58.5589 76.0664Z" fill="#BEB4B4"/>
<path d="M49.1119 79.1718C46.9674 79.4648 48.069 82.5234 49.1119 84.1523C50.2486 85.9335 51.3736 87.1288 52.6979 87.3632C54.0221 87.5976 60.6432 87.6796 60.5729 85.4882C60.5026 83.2968 51.9947 78.7851 49.1119 79.1718Z" fill="#494341"/>
<path d="M40.1009 79.9452C38.8939 79.5468 36.2923 81.7733 36.011 82.664C35.7298 83.5897 37.6985 86.7186 40.7103 86.0038C42.8314 85.5116 41.1673 80.2968 40.1009 79.9452Z" fill="#494341"/>
<path d="M71.0974 38.9414C71.1677 40.5352 57.8669 61.8047 56.2966 64.3711C54.7263 66.9375 50.988 73.0781 49.8865 74.0508C48.5388 75.2578 44.0154 76.5117 41.6482 76.6875C35.7302 77.1445 32.8005 79.1719 32.0974 80.5898C31.3943 82.0078 36.656 86.707 40.4294 87.6328C44.2029 88.5586 52.2419 88.2774 53.7419 88.9102C55.2419 89.543 58.2185 92.0977 60.5622 93.457C62.906 94.8164 66.1169 97.1016 66.0466 98.3086C65.9763 99.5156 65.4607 99.6328 64.406 99.3633C63.1638 99.0469 57.9255 97.4649 54.8083 97.1016C49.1482 96.4453 40.8396 96.1523 36.0935 97.3711C33.4802 98.0391 28.7341 100.418 29.4021 102.574C29.9997 104.484 30.9841 105.926 32.3904 107.695C33.6091 109.23 35.9529 113.32 37.4412 115.734C38.9412 118.148 41.8591 122.133 47.531 122.543C54.1404 123.023 56.7185 119.719 59.7888 115.582C62.8474 111.457 64.6287 107.18 68.9646 107.684C73.3005 108.188 74.2263 113.59 75.0115 117.434C75.7966 121.277 78.2107 131.672 77.0037 134.086C75.7966 136.5 73.8044 136.723 70.2419 137.355C66.6794 138 50.6013 140.273 40.9216 138.926C31.2419 137.578 25.1951 134.449 24.6208 131.203C24.0466 127.957 25.406 126.609 25.6169 120.352C25.8279 114.094 25.1247 84.9258 27.9021 72.9609C30.6794 60.9961 35.3669 54.4922 38.1443 52.2891C40.9216 50.0859 46.6638 47.8828 47.906 48.5508C49.1482 49.2188 42.6443 63 42.6443 63C42.6443 63 46.7576 61.8516 47.1443 60.8906C47.531 59.9297 58.1482 36.9609 60.1638 35.8125C62.1794 34.6641 64.2068 34.8633 66.5974 35.625C68.9997 36.4336 71.0974 38.9414 71.0974 38.9414Z" fill="#BEB4B4"/>
<path d="M39.8777 53.6602C38.5183 52.7579 36.5261 54.1407 35.6707 55.9571C34.8152 57.7735 35.4832 59.4024 36.3386 59.7891C37.1941 60.1759 38.905 59.7774 40.0769 57.9727C41.1199 56.3321 41.3074 54.6095 39.8777 53.6602Z" fill="#D3CDCE"/>
<path d="M62.5997 34.9688C58.4395 34.9922 56.3887 37.1133 54.1856 40.9219C51.7833 45.0821 51.1739 49.9219 47.7286 55.1836C44.2833 60.4454 40.6505 65.0391 39.1153 66.4805C37.5802 67.9219 34.2286 72.0352 36.4317 73.9454C38.6348 75.8555 41.6934 72.8907 43.8028 70.2071C45.9122 67.5235 50.3067 59.3907 52.5098 55.9454C54.713 52.5 63.2325 41.2969 64.6622 38.7188C65.5411 37.1368 64.92 34.9571 62.5997 34.9688Z" fill="#D3CDCE"/>
<path d="M38.5303 89.168C37.0889 88.8281 35.753 88.875 34.6983 90.2227C33.6436 91.5586 33.4326 93.3516 34.8858 93.8555C36.7959 94.5234 38.2373 93.8555 39.3858 92.6133C40.2764 91.6641 40.5459 89.6484 38.5303 89.168Z" fill="#D3CDCE"/>
<path d="M41.2135 129.07C38.5299 129.363 38.8229 132.902 39.3971 134.332C39.9713 135.762 41.6002 136.629 43.5104 136.055C45.4205 135.48 45.7135 133.371 45.1393 131.648C44.565 129.926 43.6861 128.812 41.2135 129.07Z" fill="#D3CDCE"/>
<path d="M88.7229 47.2265C85.8987 47.3203 84.844 48.1172 83.8831 49.9687C82.805 52.0312 83.9651 53.6367 85.8167 53.7656C88.0784 53.9297 89.5315 53.2851 90.9026 51.0234C91.887 49.4062 91.1487 47.1445 88.7229 47.2265Z" fill="#D3CDCE"/>
<path d="M83.3888 55.6992C82.0997 55.582 81.5372 56.1797 81.2911 57.0703C81.045 57.9609 81.6896 58.6875 82.5802 58.7695C83.4708 58.8516 84.1974 58.2891 84.5138 57.5625C84.8419 56.8359 84.2794 55.7813 83.3888 55.6992Z" fill="#D3CDCE"/>
<path d="M45.2009 12.5859C45.2009 12.5859 47.99 9.89062 51.74 8.40234C57.0134 6.30468 61.197 5.76562 61.197 5.76562C61.197 5.76562 64.0213 5.47265 64.7478 6.36327C65.6736 7.48827 64.0213 9.02343 64.0213 9.02343C64.0213 9.02343 66.447 8.6953 67.0916 9.91405C67.7361 11.1211 67.2556 13.0664 64.3494 13.1484C61.4431 13.2305 62.3338 10.6406 62.3338 10.6406C62.3338 10.6406 60.4002 11.6133 58.783 12.0117C57.1658 12.4101 55.0681 11.9297 55.0681 11.9297C55.0681 11.9297 51.6111 17.4141 47.5564 16.2891C44.2049 15.375 45.2009 12.5859 45.2009 12.5859Z" fill="#D3CDCE"/>
<path d="M41.38 22.0548C42.3761 23.004 44.3448 22.5587 45.3995 20.9415C46.4659 19.3243 46.3487 17.6485 45.3995 16.922C44.4503 16.1954 42.6573 16.7579 41.6612 18.0352C40.6651 19.3126 40.1964 20.9415 41.38 22.0548Z" fill="#D3CDCE"/>
</svg>
