<svg width="150" height="150" viewBox="0 0 150 150" fill="none" xmlns="http://www.w3.org/2000/svg">
<path d="M110.109 10.5117C84.4336 10.5117 75.0001 36.7383 75.0001 36.7383C75.0001 36.7383 65.6954 10.5117 39.8321 10.5117C20.4024 10.5117 -1.74604 25.9102 6.43365 60.9141C14.6133 95.918 75.0587 139.523 75.0587 139.523C75.0587 139.523 135.281 95.918 143.473 60.9141C151.652 25.9102 131.098 10.5117 110.109 10.5117Z" fill="#FFCC32"/>
<path d="M35.8711 13.125C56.0273 13.125 66.0352 34.793 69.2695 43.5703C69.7266 44.8242 71.4727 44.8594 72 43.6406L74.9531 36.75C70.793 23.4492 59.3555 10.5117 39.832 10.5117C31.7461 10.5117 23.2031 13.1836 16.5586 18.8203C22.4297 14.9648 29.3086 13.125 35.8711 13.125Z" fill="#F2A600"/>
<path d="M110.109 10.5117C103.91 10.5117 98.6602 12.3164 94.2539 15.0234C97.3477 13.8281 100.77 13.125 104.566 13.125C123.562 13.125 140.566 27.5273 132.891 60.8203C126.305 89.4023 87.8203 124.078 76.0664 137.309C75.3164 138.152 75.0586 139.512 75.0586 139.512C75.0586 139.512 135.281 95.9063 143.473 60.9023C151.652 25.9102 129.527 10.5117 110.109 10.5117Z" fill="#F2A600"/>
<path d="M19.9219 29.086C24.3164 23.6016 32.168 19.0664 38.8242 24.293C42.4219 27.1172 40.8516 32.9063 37.6289 35.3438C32.9414 38.9063 28.8633 41.0508 26.0039 46.6289C24.293 49.9805 23.2617 53.6485 22.7344 57.3867C22.5234 58.8633 20.5898 59.2266 19.8633 57.9258C14.918 49.1602 13.5117 37.0899 19.9219 29.086Z" fill="#FFF170"/>
<path d="M90.3867 40.6172C88.3242 40.6172 86.8711 38.625 87.6211 36.7032C89.0156 33.1641 90.8203 29.7422 92.9883 26.6954C96.1992 22.1954 102.305 19.5704 106.172 22.3008C110.133 25.0899 109.617 30.668 106.84 33.3633C100.863 39.1407 93.3515 40.6172 90.3867 40.6172Z" fill="#FFF170"/>
</svg>
