<svg width="150" height="150" viewBox="0 0 150 150" fill="none" xmlns="http://www.w3.org/2000/svg">
<path d="M110.109 10.5117C84.4336 10.5117 75.0001 36.7383 75.0001 36.7383C75.0001 36.7383 65.6954 10.5117 39.8321 10.5117C20.4024 10.5117 -1.74604 25.9102 6.43365 60.9141C14.6133 95.918 75.0587 139.523 75.0587 139.523C75.0587 139.523 135.281 95.918 143.473 60.9141C151.652 25.9102 131.098 10.5117 110.109 10.5117Z" fill="#7CB342"/>
<path d="M35.8711 13.125C56.0273 13.125 66.0352 34.793 69.2695 43.5703C69.7266 44.8242 71.4727 44.8594 72 43.6406L74.9531 36.75C70.793 23.4492 59.3555 10.5117 39.832 10.5117C31.7461 10.5117 23.2031 13.1836 16.5586 18.8203C22.4297 14.9648 29.3086 13.125 35.8711 13.125Z" fill="#689F38"/>
<path d="M110.109 10.5117C103.91 10.5117 98.6602 12.3164 94.2539 15.0234C97.3477 13.8281 100.77 13.125 104.566 13.125C123.562 13.125 140.566 27.5273 132.891 60.8203C126.305 89.4023 87.8203 124.078 76.0664 137.309C75.3164 138.152 75.0586 139.512 75.0586 139.512C75.0586 139.512 135.281 95.9063 143.473 60.9023C151.652 25.9102 129.527 10.5117 110.109 10.5117Z" fill="#689F38"/>
<path d="M19.9236 29.0858C24.3181 23.6015 32.1697 19.0663 38.8259 24.2929C42.4236 27.1171 40.8533 32.9061 37.6306 35.3436C32.9431 38.9061 28.865 41.0507 26.0056 46.6288C24.2947 49.9804 23.2634 53.6483 22.7361 57.3866C22.5251 58.8632 20.5915 59.2265 19.865 57.9257C14.9197 49.1601 13.5134 37.0897 19.9236 29.0858Z" fill="#AED581"/>
<path d="M90.3877 40.6172C88.3252 40.6172 86.8721 38.625 87.6221 36.7032C89.0166 33.1641 90.8213 29.7422 92.9892 26.6954C96.2002 22.1954 102.306 19.5704 106.173 22.3008C110.134 25.0899 109.618 30.668 106.841 33.3633C100.864 39.1407 93.3525 40.6172 90.3877 40.6172Z" fill="#AED581"/>
</svg>
