<svg width="150" height="150" viewBox="0 0 150 150" fill="none" xmlns="http://www.w3.org/2000/svg">
<path d="M110.145 10.5117C84.4688 10.5117 75.0352 36.75 75.0352 36.75C75.0352 36.75 65.7305 10.5117 39.879 10.5117C20.4493 10.5117 -1.69916 25.9102 6.48053 60.9141C14.6602 95.918 75.1055 139.523 75.1055 139.523C75.1055 139.523 135.328 95.918 143.52 60.9141C151.699 25.9102 131.145 10.5117 110.145 10.5117Z" fill="#424242"/>
<path d="M35.918 13.125C56.0742 13.125 66.082 34.793 69.3164 43.5703C69.7734 44.8242 71.5195 44.8594 72.0469 43.6406L75 36.7383C70.8398 23.4492 59.4023 10.5117 39.8789 10.5117C31.793 10.5117 23.25 13.1836 16.6055 18.8203C22.4766 14.9648 29.3555 13.125 35.918 13.125Z" fill="#575757"/>
<path d="M110.145 10.5117C103.945 10.5117 98.6953 12.3164 94.2891 15.0234C97.3828 13.8281 100.805 13.125 104.602 13.125C123.598 13.125 140.602 27.5273 132.926 60.8203C126.34 89.4023 87.8555 124.078 76.1016 137.309C75.3516 138.152 75.0938 139.512 75.0938 139.512C75.0938 139.512 135.316 95.9063 143.508 60.9023C151.699 25.9102 129.574 10.5117 110.145 10.5117Z" fill="#575757"/>
<path d="M19.9705 29.0858C24.365 23.6015 32.2165 19.0663 38.8728 24.2929C42.4704 27.1171 40.9001 32.9061 37.6775 35.3436C32.99 38.9061 28.9119 41.0507 26.0525 46.6288C24.3415 49.9804 23.3103 53.6483 22.783 57.3866C22.572 58.8632 20.6384 59.2265 19.9119 57.9257C14.9665 49.1601 13.5603 37.0897 19.9705 29.0858Z" fill="#787878"/>
<path d="M90.4228 40.6172C88.3603 40.6172 86.9072 38.625 87.6572 36.7032C89.0517 33.1641 90.8564 29.7422 93.0244 26.6954C96.2353 22.1954 102.341 19.5704 106.208 22.3008C110.169 25.0899 109.653 30.668 106.876 33.3633C100.911 39.1407 93.3877 40.6172 90.4228 40.6172Z" fill="#787878"/>
</svg>
