<svg width="150" height="150" viewBox="0 0 150 150" fill="none" xmlns="http://www.w3.org/2000/svg">
<path d="M74.918 145.312C113.75 145.312 145.23 113.833 145.23 75C145.23 36.1675 113.75 4.6875 74.918 4.6875C36.0854 4.6875 4.60547 36.1675 4.60547 75C4.60547 113.833 36.0854 145.312 74.918 145.312Z" fill="#2463C5"/>
<path d="M70.3477 139.688C106.656 139.688 136.09 110.254 136.09 73.9453C136.09 37.6369 106.656 8.20312 70.3477 8.20312C34.0392 8.20312 4.60547 37.6369 4.60547 73.9453C4.60547 110.254 34.0392 139.688 70.3477 139.688Z" fill="#1D89F3"/>
<path opacity="0.3" d="M28.043 34.8047C33.3164 26.4844 44.5664 19.5703 56.2852 17.4609C59.2149 16.9922 62.1445 16.7578 64.6055 17.6953C66.4805 18.3984 68.0039 20.1562 66.9492 22.1484C66.1289 23.7891 63.9024 24.4922 62.1445 25.0781C51.1524 28.7109 41.6719 35.8711 35.1914 45.4688C32.8477 48.9844 29.332 58.7109 24.9961 56.25C20.4258 53.5547 21.3633 45.1172 28.043 34.8047Z" fill="white"/>
</svg>
