<svg width="150" height="150" viewBox="0 0 150 150" fill="none" xmlns="http://www.w3.org/2000/svg">
<path d="M135.938 4.6875H14.0625C8.88281 4.6875 4.6875 8.88281 4.6875 14.0625V135.938C4.6875 141.117 8.88281 145.312 14.0625 145.312H135.938C141.117 145.312 145.312 141.117 145.312 135.938V14.0625C145.312 8.88281 141.117 4.6875 135.938 4.6875Z" fill="#CC3333"/>
<path d="M128.555 4.6875H13.4766C8.63674 4.72266 4.72268 8.63672 4.68753 13.4766V128.203C4.67581 133.055 8.60159 136.98 13.4532 136.992C13.4649 136.992 13.4649 136.992 13.4766 136.992H128.438C133.289 137.004 137.215 133.078 137.227 128.227C137.227 128.215 137.227 128.215 137.227 128.203V13.4766C137.332 8.73047 133.559 4.79297 128.813 4.6875C128.73 4.6875 128.637 4.6875 128.555 4.6875Z" fill="#F44336"/>
<path d="M46.5248 15.1172C46.5248 12.4218 44.6498 11.6015 33.8686 11.9531C24.8451 12.3047 20.392 13.3593 17.6967 16.6406C15.4701 19.3359 15.0014 23.2031 14.6498 26.4843C14.4154 29.0625 12.0717 43.9453 18.7514 39.6093C19.5482 39.082 20.1928 38.3554 20.6264 37.5C22.0326 35.039 22.8529 33.3984 24.4936 30.9375C30.7045 20.8593 46.5248 18.6328 46.5248 15.1172Z" fill="#FF8A80"/>
</svg>
