<svg width="150" height="150" viewBox="0 0 150 150" fill="none" xmlns="http://www.w3.org/2000/svg">
<path d="M135.938 4.6875H14.0625C8.88281 4.6875 4.6875 8.88281 4.6875 14.0625V135.938C4.6875 141.117 8.88281 145.312 14.0625 145.312H135.938C141.117 145.312 145.312 141.117 145.312 135.938V14.0625C145.312 8.88281 141.117 4.6875 135.938 4.6875Z" fill="#2463C5"/>
<path d="M128.555 4.6875H13.4766C8.63674 4.72266 4.72268 8.63672 4.68753 13.4766V128.203C4.67581 133.055 8.60159 136.98 13.4532 136.992C13.4649 136.992 13.4649 136.992 13.4766 136.992H128.438C133.289 137.004 137.215 133.078 137.227 128.227C137.227 128.215 137.227 128.215 137.227 128.203V13.4766C137.332 8.73047 133.559 4.79297 128.813 4.6875C128.73 4.6875 128.637 4.6875 128.555 4.6875Z" fill="#1D89F3"/>
<path opacity="0.3" d="M46.5235 15.1172C46.5235 12.4218 44.6485 11.6015 33.8672 11.9531C24.8438 12.3047 20.3907 13.3593 17.6953 16.6406C15.4688 19.3359 15 23.2031 14.6485 26.4843C14.4141 29.0625 12.0703 43.9453 18.75 39.6093C19.5469 39.082 20.1914 38.3554 20.625 37.5C22.0313 35.039 22.8516 33.3984 24.4922 30.9375C30.7031 20.8593 46.5235 18.6328 46.5235 15.1172Z" fill="white"/>
</svg>
