<svg width="150" height="150" viewBox="0 0 150 150" fill="none" xmlns="http://www.w3.org/2000/svg">
<path d="M135.938 4.6875H14.0625C8.88281 4.6875 4.6875 8.88281 4.6875 14.0625V135.938C4.6875 141.117 8.88281 145.312 14.0625 145.312H135.938C141.117 145.312 145.312 141.117 145.312 135.938V14.0625C145.312 8.88281 141.117 4.6875 135.938 4.6875Z" fill="#575757"/>
<path d="M128.555 4.6875H13.4766C8.63674 4.72266 4.72268 8.63672 4.68753 13.4766V128.203C4.67581 133.055 8.60159 136.98 13.4532 136.992C13.4649 136.992 13.4649 136.992 13.4766 136.992H128.438C133.289 137.004 137.215 133.078 137.227 128.227C137.227 128.215 137.227 128.215 137.227 128.203V13.4766C137.332 8.73047 133.559 4.79297 128.813 4.6875C128.73 4.6875 128.637 4.6875 128.555 4.6875Z" fill="#424242"/>
<path d="M46.5234 15.1172C46.5234 12.4218 44.6484 11.6015 33.8672 11.9531C24.8437 12.3047 20.3906 13.3593 17.6953 16.6406C15 19.9218 14.2969 26.6015 14.1797 34.5703C14.1797 40.1953 14.1797 45.4687 17.1094 45.4687C21.0938 45.4687 21.0937 36.2109 24.375 31.0547C30.7031 20.8593 46.5234 18.6328 46.5234 15.1172Z" fill="#787878"/>
</svg>
