<svg width="150" height="150" viewBox="0 0 150 150" fill="none" xmlns="http://www.w3.org/2000/svg">
<path fill-rule="evenodd" clip-rule="evenodd" d="M66.047 6.55165C69.7176 -0.833603 80.2633 -0.865243 83.9352 6.54496L83.9839 6.64324L99.8014 42.7202C100.325 43.9153 101.46 44.732 102.755 44.8484L141.308 48.3051L141.436 48.3237C149.62 49.5151 152.889 59.565 146.956 65.343L146.833 65.4628L117.756 89.8898C116.733 90.7488 116.278 92.0872 116.555 93.3713L116.556 93.3794L124.992 132.861L125.008 132.957C126.396 141.09 117.861 147.329 110.524 143.462L110.432 143.414L76.8026 123.72L76.8012 123.719C75.6845 123.064 74.3071 123.064 73.1902 123.719L73.1877 123.72L39.5568 143.403L39.4624 143.453C32.1591 147.292 23.5918 141.099 24.9841 132.945L25.0004 132.849L33.4329 93.376L33.4334 93.3733C33.7092 92.066 33.247 90.7278 32.2356 89.8782L3.14787 65.4757L3.02353 65.3546C-2.89607 59.5896 0.369186 49.5285 8.54254 48.3357L8.67108 48.3169L47.2254 44.8601C48.5198 44.7435 49.6544 43.9273 50.1782 42.7323L65.9969 6.65238L66.047 6.55165Z" fill="#CBAA16"/>
<path d="M79.7442 8.47266L95.5176 44.4492C96.7247 47.2031 99.338 49.0898 102.338 49.3594L140.764 52.8047C145.111 53.4375 146.846 58.7695 143.693 61.8398L114.748 86.1562C112.404 88.125 111.338 91.2187 111.982 94.207L120.397 133.594C121.135 137.918 116.6 141.223 112.709 139.172L79.17 119.531C76.5919 118.02 73.4044 118.02 70.8262 119.531L37.2872 139.16C33.4083 141.199 28.8614 137.906 29.5997 133.582L38.0137 94.1953C38.6465 91.207 37.5919 88.1133 35.2481 86.1445L6.29108 61.8516C3.15045 58.793 4.88483 53.4492 9.22076 52.8164L47.6465 49.3711C50.6465 49.1016 53.2598 47.2148 54.4669 44.4609L70.2403 8.48438C72.1973 4.54688 77.7989 4.54688 79.7442 8.47266Z" fill="#FDD835"/>
<path d="M78.5959 46.6055L75.9241 20.0977C75.8186 18.6211 75.5139 16.0898 77.8811 16.0898C79.7561 16.0898 80.7756 19.9922 80.7756 19.9922L88.7913 41.2734C91.8147 49.3711 90.5725 52.1484 87.6545 53.7891C84.303 55.6641 79.3577 54.1992 78.5959 46.6055Z" fill="#FFFF8D"/>
<path d="M111.654 83.8008L134.646 65.8594C135.783 64.9101 137.834 63.3984 136.193 61.6758C134.892 60.3164 131.377 62.2734 131.377 62.2734L111.256 70.1367C105.256 72.2109 101.271 75.2812 100.92 79.1484C100.463 84.3047 105.092 88.2773 111.654 83.8008Z" fill="#F4B400"/>
</svg>
