<svg width="150" height="150" viewBox="0 0 150 150" fill="none" xmlns="http://www.w3.org/2000/svg">
<path fill-rule="evenodd" clip-rule="evenodd" d="M80.2513 79.1133L73.9486 77.2224C72.3092 81.921 71.9305 88.948 71.4332 98.1736C71.2956 100.727 71.1489 103.45 70.9638 106.338C70.0987 119.657 75.0046 127.949 78.4912 133.651C78.9739 134.442 79.773 135.507 80.6315 136.651C82.2563 138.815 84.0936 141.264 84.3994 142.669C84.8669 144.818 85.7831 147.952 87.8861 148.372C89.9892 148.792 93.7138 146.834 94.9968 142.98C95.6617 140.982 94.264 139.815 92.036 137.954C89.965 136.225 87.1765 133.896 84.6603 129.744C79.8695 121.833 76.9262 113.168 78.073 102.869C78.56 98.54 78.7774 94.3086 78.969 90.5819C79.233 85.4445 79.4477 81.2662 80.2513 79.1133Z" fill="#65A21B"/>
<path d="M93.1953 10.7649C96.39 9.17462 106.861 6.66954 113.813 13.7204C120.765 20.7712 119.048 29.553 120.765 30.8056C122.468 32.0581 132.953 30.0034 140.243 37.2935C147.533 44.5835 145.366 56.8697 142.171 59.9518C138.976 63.0339 107.775 40.9385 107.775 40.9385L93.1953 10.7649Z" fill="#65A21B"/>
<path d="M26.2168 30.5804C26.2168 30.5804 27.2442 20.2223 32.5921 14.7477C37.3771 9.85012 45.1316 7.90798 52.2809 10.9901C61.5131 14.9729 42.2747 44.2457 42.2747 44.2457L7.87906 61.2184C7.87906 61.2184 -0.213195 50.241 7.65388 38.7852C14.3669 28.9901 26.2168 30.5804 26.2168 30.5804Z" fill="#65A21B"/>
<path d="M11.1884 85.8469C7.88113 87.9017 0.985123 97.7953 7.5293 108.266C13.2291 117.372 21.3072 117.146 21.3072 117.146C21.3072 117.146 19.2525 129.221 27.007 136.047C34.5222 142.676 46.738 140.494 50.2705 138.327C54.4784 135.752 42.9523 101.201 42.9523 101.201L11.1884 85.8469Z" fill="#65A21B"/>
<path d="M114.716 104.846C114.716 104.846 87.5967 125.577 91.4106 131.473C95.703 138.13 111.733 140.663 119.051 134.682C127.819 127.505 124.751 120.215 126.228 118.512C127.706 116.809 134.433 116.57 137.614 109.744C140.809 102.904 140.119 94.7276 136.122 89.83C132.139 84.9324 114.716 104.846 114.716 104.846Z" fill="#65A21B"/>
<path d="M73.7052 63.8781C78.3776 63.5403 75.9429 51.1416 76.3229 41.2057C76.9562 24.5849 81.5442 19.0962 85.7662 15.1416C89.7772 11.3839 96.1243 9.56847 97.5598 9.30107C99.8116 8.89294 105.652 12.9039 108.819 20.3769C111.535 26.7944 111.324 34.8726 113.618 36.8429C115.912 38.8132 126.537 35.4496 134.714 42.9789C142.891 50.5083 142.834 57.348 142.834 58.8679C142.834 60.3878 137.824 66.6083 129.31 69.1697C118.769 72.3503 100.304 70.9711 94.6466 70.8585C88.989 70.7459 84.7248 71.2948 84.8374 73.7999C84.95 76.305 91.8178 75.6576 97.3769 75.545C102.936 75.4324 116.109 76.9664 126.27 81.5403C136.079 85.9594 138.373 92.2784 139.245 96.5849C140.005 100.342 137.726 105.409 133.799 107.815C129.873 110.208 121.316 109.997 119.402 112.235C116.784 115.289 120.598 124.887 111.661 130.769C102.725 136.652 94.1822 134.161 92.3526 132.613C85.4988 126.787 83.8522 119.384 82.5434 108.364C81.2346 97.3589 80.362 85.5794 75.5629 85.5794C70.7639 85.5794 68.2588 99.4277 66.19 111.306C64.1212 123.184 58.6607 136.976 46.8952 139.593C38.3667 141.493 30.4293 132.5 29.8945 126.35C29.3315 119.919 30.3026 113.501 28.6982 111.137C26.742 108.252 16.8906 111.165 11.036 102.256C5.91323 94.4598 8.09462 89.1259 9.17828 87.7045C10.2197 86.3534 15.2862 79.6967 28.0368 77.6138C40.7873 75.5309 64.9937 79.19 65.3174 74.6724C65.6411 70.1548 45.699 70.9148 39.1548 70.9148C32.6106 70.9148 19.0719 71.4355 12.3307 66.0032C7.20799 61.8656 5.68806 57.6998 5.37844 56.391C4.88587 54.3503 6.26507 45.2588 13.6677 40.7412C22.8718 35.1119 30.2182 38.9821 32.3995 37.4621C34.5809 35.9422 30.6544 28.5677 37.1001 19.1525C42.1102 11.8484 50.7654 10.4269 51.821 10.8632C56.24 12.6506 61.7146 16.2112 65.6411 24.1627C69.5676 32.1142 70.8765 41.1635 70.8765 47.8202C70.8765 54.477 69.8913 64.1455 73.7052 63.8781Z" fill="#8BC02B"/>
<path d="M101.374 46.7791C101.374 46.7791 104.654 41.206 100.657 38.6024C96.0266 35.5907 92.5645 40.4461 92.5645 40.4461C92.5645 40.4461 92.0297 36.4914 88.0751 36.4492C85.2463 36.421 83.67 39.1513 83.5434 43.8659C83.4027 48.5805 84.4863 50.396 86.7803 50.8745C89.975 51.55 91.1431 48.7635 91.1431 48.7635C91.1431 48.7635 91.1008 50.959 93.2963 52.493C95.4918 54.027 97.7858 52.1271 97.7858 52.1271C97.7858 52.1271 95.8155 55.0966 97.5184 56.9402C98.9116 58.432 101.332 57.4328 101.332 57.4328C101.332 57.4328 97.2369 61.12 99.0805 63.5829C100.924 66.0598 104.837 66.102 107.482 65.3843C110.128 64.6665 113.506 62.0207 112.873 57.7846C112.239 53.5485 105.498 54.4351 105.498 54.4351C105.498 54.4351 109.143 50.016 107.074 47.4687C104.654 44.457 101.374 46.7791 101.374 46.7791Z" fill="#BDCE46"/>
<path d="M103.245 81.5264C102.527 83.5248 105.046 85.9877 105.046 85.9877C105.046 85.9877 103.034 86.1003 102.372 87.5076C101.711 88.915 102.541 90.8853 102.541 90.8853C102.541 90.8853 98.9807 88.7602 96.166 90.7727C93.6609 92.5741 94.7446 96.6554 94.7446 96.6554C94.7446 96.6554 92.1832 93.6578 88.8619 95.4029C86.5679 96.5991 86.3568 100.906 86.9619 104.34C87.5671 107.773 89.6922 111.419 93.3935 110.715C97.0948 110.011 96.7149 102.594 96.7149 102.594C96.7149 102.594 101.894 107.858 105.483 104.72C108.48 102.102 106.186 98.2879 106.186 98.2879C106.186 98.2879 107.875 98.9916 109.184 97.7391C110.493 96.4865 109.297 94.474 109.297 94.474C109.297 94.474 113.927 96.4865 114.968 93.2215C116.01 89.9564 112.576 88.3239 112.576 88.3239C112.576 88.3239 114.813 88.5913 114.532 85.5514C114.222 82.216 105.201 76.0237 103.245 81.5264Z" fill="#BDCE46"/>
<path d="M50.961 93.5312C50.961 93.5312 52.7342 91.8002 52.0165 88.0566C51.1298 83.4687 44.7827 82.2302 42.3198 82.4132C39.857 82.5961 36.8452 83.1169 36.9438 86.5649C37.0141 89.1262 39.2377 89.7455 39.2377 89.7455C39.2377 89.7455 36.7749 91.195 37.4785 94.249C38.5341 98.8369 45.9508 97.4296 45.9508 97.4296C45.9508 97.4296 41.3628 101.398 44.0087 105.283C46.6545 109.167 51.6787 106.169 51.6787 106.169C51.6787 106.169 50.1869 110.335 53.1846 111.461C56.0133 112.516 58.3495 110.532 60.0665 107.056C61.7131 103.72 61.9383 98.4007 59.1799 95.7689C55.1971 91.9409 50.961 93.5312 50.961 93.5312Z" fill="#BDCE46"/>
<path d="M49.1319 39.714C45.4728 42.3599 47.1898 47.4685 47.1898 47.4685C47.1898 47.4685 43.8403 46.7649 42.9537 49.1433C42.067 51.5217 44.2766 52.6757 44.2766 52.6757C44.2766 52.6757 41.0115 51.8876 40.3078 54.5334C39.6042 57.1792 41.9826 58.3192 41.9826 58.3192C41.9826 58.3192 38.5627 58.7695 38.2812 62.3724C38.0983 64.5819 40.0404 67.8469 45.3321 67.9314C50.6237 68.0158 53.0866 67.5795 53.2695 65.0182C53.4525 62.4568 50.6237 61.2324 50.6237 61.2324C50.6237 61.2324 52.9318 60.7961 53.0021 58.4036C53.0866 55.223 50.1733 54.0831 50.1733 54.0831C50.1733 54.0831 53.7762 55.8563 56.6049 54.3505C60.5737 52.2394 58.716 47.9189 58.716 47.9189C58.716 47.9189 60.0389 51.6202 62.9521 51.0995C65.1898 50.6914 67.1038 48.1018 66.7378 43.4294C66.3719 38.757 64.275 37.406 62.0654 37.3497C59.1522 37.2652 58.0967 41.3184 58.0967 41.3184C58.0967 41.3184 54.2547 36.0127 49.1319 39.714Z" fill="#BDCE46"/>
</svg>
