<svg width="150" height="150" viewBox="0 0 150 150" fill="none" xmlns="http://www.w3.org/2000/svg">
<path d="M5.21606 92.2734C8.79028 125.777 33.0364 144.715 74.8606 145.359C116.685 146.004 132.306 125.73 138.775 115.207C146.204 103.102 158.099 46.1953 92.4856 32.8242C67.4192 27.7148 47.9426 31.8867 34.5129 39.4101C10.5481 52.8164 3.71606 78.2461 5.21606 92.2734Z" fill="#FF8E00"/>
<path d="M134.566 13.1132C134.402 11.4725 128.637 5.70692 113.824 4.71082C99.0117 3.71473 87.9492 10.2889 82.9219 19.535C79.043 26.6718 76.7812 32.5311 76.7812 32.5311L85.9219 33.41L124.207 20.0272L134.566 13.1132Z" fill="#5C6A23"/>
<path d="M104.602 21.3398C114.879 17.7305 134.566 13.1133 134.566 13.1133C134.566 13.1133 131.109 20.8477 124.195 27.9258C117.281 35.0039 106.02 42.3398 90.4453 38.4609C84.082 36.8789 79.8633 32.7305 79.8633 32.7305C79.8633 32.7305 89.1328 26.7773 104.602 21.3398Z" fill="#767E3A"/>
<path d="M65.5206 13.8984C64.6417 15.7734 67.5596 17.2499 69.3643 20.3671C72.6807 26.0859 72.6807 34.1484 72.6807 34.1484C72.6807 34.1484 65.6026 34.8984 65.8253 41.0741C66.0245 46.5702 70.9346 48.832 76.5948 48.832C82.7706 48.832 85.1729 44.2382 84.9503 41.2265C84.5987 36.5624 79.7589 34.7577 79.7589 34.7577C79.7589 34.7577 80.4386 24.0702 79.7589 18.7265C79.0792 13.3827 78.1768 12.0234 76.5948 11.3437C75.0128 10.664 66.6573 11.4843 65.5206 13.8984Z" fill="#5C6A23"/>
<path d="M21.399 91.0312C25.4771 92.3203 29.0162 87.7031 33.6334 78.7969C36.0357 74.1445 41.3912 67.2656 44.0045 64.418C49.5943 58.3359 56.6724 52.0312 52.4185 46.9102C47.8716 41.4492 34.606 47.2266 25.9107 60.1172C17.2154 73.0078 15.4459 89.1562 21.399 91.0312Z" fill="#FFE265"/>
<path d="M98.4855 48.1525C97.8176 50.8243 98.9894 53.086 100.958 53.2501C103.325 53.4493 104.497 51.1759 104.544 48.8556C104.579 46.9806 103.337 45.7267 101.72 45.5743C100.091 45.4337 98.884 46.5353 98.4855 48.1525Z" fill="#FF6110"/>
<path d="M114.432 59.6603C112.686 61.5353 112.498 65.1329 114.737 66.5274C117.256 68.0978 119.881 66.0235 120.748 64.254C121.428 62.8595 121.803 60.586 120.198 59.1095C118.264 57.3399 115.838 58.1485 114.432 59.6603Z" fill="#FF6110"/>
<path d="M125.169 67.4766C124.724 69.7266 125.673 72.3047 128.063 72.668C130.454 73.0312 132.071 70.7109 132.212 69C132.399 66.8437 131.556 65.1094 129.657 64.3828C127.759 63.6328 125.567 65.4375 125.169 67.4766Z" fill="#FF6110"/>
<path d="M126.55 78.5976C124.968 77.8242 121.839 78.4687 120.772 82.2187C119.905 85.2656 120.901 88.2187 123.116 88.7578C126.093 89.4726 128.061 87.164 128.565 84.5625C129.139 81.6445 128.378 79.5 126.55 78.5976Z" fill="#FF6110"/>
<path d="M116.451 103.524C118.678 105.234 117.693 108.199 115.994 109.934C114.131 111.856 111.353 112.055 109.982 110.695C108.623 109.336 109.021 106.559 110.943 104.637C112.865 102.715 115.256 102.598 116.451 103.524Z" fill="#FF6110"/>
<path d="M86.9166 124.066C87.819 125.918 86.5182 128.309 84.7955 129.562C83.4245 130.57 79.8971 131.637 78.233 129.211C76.862 127.219 77.8815 125.121 80.1549 123.41C82.4284 121.699 85.9088 122.004 86.9166 124.066Z" fill="#FF6110"/>
</svg>
