<svg width="150" height="150" viewBox="0 0 150 150" fill="none" xmlns="http://www.w3.org/2000/svg">
<path d="M23.4727 30.2461L10.8047 38.625C10.8047 38.625 8.98832 42.1875 11.4493 54.2461C13.9102 66.3047 25.0196 90.1641 47.3907 112.805C66.6914 132.328 89.2266 141.844 109.043 142.863C128.859 143.883 138.387 131.074 138.387 131.074L23.4727 30.2461Z" fill="#9540DD"/>
<path d="M34.3125 24.1172L23.4727 42.8203C23.4727 42.8203 30.293 67.6523 41.7891 83.1094C54.2578 99.8672 68.5195 114.422 90.8672 125.777C109.934 135.469 127.77 139.148 127.77 139.148C127.77 139.148 139.406 134.496 144.047 121.594C148.465 109.313 142.617 95.8477 134.238 89.3086C125.859 82.7695 109.09 78.7266 93.8086 70.6055C77.6016 61.9922 65.5898 51.9258 54.9727 40.4883C48.3281 33.3398 46.793 30.293 46.5703 29.0039C46.4648 28.3945 46.0781 27.8789 45.4922 27.6914L34.3125 24.1172Z" fill="#AA45FF"/>
<path d="M26.6133 44.543L25.6641 51.2695C25.6641 51.2695 27.3867 53.5547 29.4492 53.3789C31.5117 53.2031 34.6875 47.8945 35.4844 44.2735C36.6563 38.9766 36.0234 36.0235 36.0234 36.0235C36.0234 36.0235 40.1484 38.1797 46.3359 37.2774C52.5234 36.375 55.6641 32.8828 56.4727 31.0899C57.2812 29.2969 57.1055 27.3164 56.2031 26.8711C55.3008 26.4258 50.9062 28.3945 50.9062 28.3945L36.9141 27.8555L23.6367 31.711L26.6133 44.543Z" fill="#BDCF46"/>
<path d="M3.51561 54.3867C3.51561 54.3867 1.65233 55.0898 2.21483 57.1523C2.61326 58.582 6.03514 60.8438 10.5937 58.5586C15.1523 56.2734 18.0586 50.2148 19.1953 47.3438C21.0703 42.5859 21.8906 39.3164 21.8906 39.3164L15.5625 35.5664L9.93748 49.1016C9.93748 49.1016 7.40623 53.3789 3.51561 54.3867Z" fill="#BDCF46"/>
<path d="M12.9024 23.6718C12.9024 23.6718 9.10551 17.4257 8.68364 13.6992C8.33208 10.5351 9.80864 8.57808 10.5704 7.60542C11.7422 6.10542 14.1915 5.13277 15.7969 5.98823C17.7891 7.04292 17.7657 9.05855 19.0665 11.6718C20.3672 14.2851 22.6055 18.2226 22.6055 18.2226C22.6055 18.2226 27.1055 16.7929 33.6329 19.0546C40.1602 21.3164 43.043 24.2578 47.0508 25.3945C51.0586 26.5312 55.9571 25.0312 56.2149 26.8828C56.4727 28.7343 50.0274 32.5546 44.4493 32.8125C38.8711 33.0703 35.3907 29.9414 33.4688 31.1601C31.5469 32.3789 33.0469 39.8085 31.3243 45.1171C29.9532 49.3359 26.5665 51.457 25.6875 51.3398C25.5352 51.3164 21.6094 45.2812 20.836 43.6289C20.0508 41.9765 18.5743 37.7929 16.3946 41.0156C14.2149 44.2382 14.6719 49.1132 10.3829 52.8632C7.20708 55.6406 4.07817 55.3945 3.37505 54.6328C3.15239 54.3867 6.16411 52.289 6.16411 49.7578C6.16411 47.2265 5.43755 37.6054 6.75005 32.8945C8.48442 26.625 12.9024 23.6718 12.9024 23.6718Z" fill="#6F9823"/>
</svg>
