<svg width="150" height="150" viewBox="0 0 150 150" fill="none" xmlns="http://www.w3.org/2000/svg">
<path d="M141.142 60.0352C143.369 55.418 144.611 50.25 144.611 44.7773C144.611 25.3242 128.849 9.5625 109.396 9.5625C104.838 9.5625 100.478 10.4414 96.4703 12.0234C91.3492 7.55859 84.6344 4.80469 77.3453 4.80469C68.4391 4.80469 60.4703 8.78906 55.1969 15C51.0953 12.7734 46.4078 11.4844 41.486 11.4844C25.7828 11.6016 13.0094 24.2578 13.0094 39.9609C13.0094 45.8203 14.7672 51.3281 17.9313 55.8984C12.0719 60.5859 7.97033 67.5 7.15002 75.5859C5.62658 91.2891 17.2281 105.469 33.1656 106.992C36.9156 107.344 40.4313 106.992 43.8297 106.055C45.1188 118.594 55.6656 128.32 68.5563 128.32C76.7594 128.32 84.025 124.336 88.4781 118.242C92.6969 121.523 97.9703 123.633 103.83 123.633C116.72 123.633 127.384 113.672 128.322 101.133C138.283 96.5625 145.314 86.4844 145.314 74.7656C145.314 69.3867 143.755 64.3125 141.142 60.0352Z" fill="white" stroke="black" stroke-width="6" stroke-miterlimit="10"/>
<path d="M28.4767 114.024C23.2033 113.438 18.5158 117.305 17.9298 122.578C17.3439 127.852 21.2111 132.539 26.4845 133.008C31.7579 133.594 36.4454 129.727 37.0314 124.453C37.6173 119.18 33.7501 114.492 28.4767 114.024Z" fill="white" stroke="black" stroke-width="4.5" stroke-miterlimit="10"/>
<path d="M10.5477 133.945C7.03208 133.594 3.86802 136.172 3.51646 139.688C3.1649 143.203 5.74302 146.25 9.25865 146.602C12.7743 146.953 15.9383 144.375 16.2899 140.859C16.6415 137.461 14.0633 134.297 10.5477 133.945Z" fill="white" stroke="black" stroke-width="4.5" stroke-miterlimit="10"/>
</svg>
