<svg width="150" height="150" viewBox="0 0 150 150" fill="none" xmlns="http://www.w3.org/2000/svg">
<path d="M62.495 70.8334C61.6283 70.8334 60.7492 70.5626 59.9992 70.0001C41.095 55.8209 28.995 31.6042 29.1658 8.30425C29.1825 6.00008 30.8825 4.24175 33.3617 4.16675C35.6658 4.18341 37.5158 6.06258 37.4992 8.36258C37.345 29.1126 48.1408 50.6917 64.9992 63.3334C66.8409 64.7126 67.2117 67.3251 65.8325 69.1667C65.0159 70.2584 63.7617 70.8334 62.495 70.8334Z" fill="#424242"/>
<path d="M66.6677 79.1667C65.0969 79.1667 28.0302 78.7584 12.8385 43.3084C11.9302 41.1917 12.9135 38.7417 15.026 37.8375C17.1427 36.9292 19.5927 37.9125 20.4969 40.025C33.551 70.4834 65.3219 70.8334 66.6677 70.8334C68.9677 70.8334 70.8344 72.7 70.8344 75C70.8344 77.3042 68.9677 79.1667 66.6677 79.1667Z" fill="#424242"/>
<path d="M16.6657 120.833C16.2324 120.833 15.7866 120.762 15.3491 120.617C13.1657 119.892 11.9866 117.533 12.7157 115.346C18.4991 97.9957 32.3782 77.6207 65.6741 79.1291C66.0991 79.1499 66.4366 79.1666 66.6657 79.1666C68.9657 79.1666 70.8324 81.0291 70.8324 83.3332C70.8324 85.6374 68.9657 87.4999 66.6657 87.4999C66.3491 87.4999 65.8866 87.4791 65.2991 87.4541C42.7532 86.4666 27.7116 96.7124 20.6199 117.983C20.0366 119.729 18.4116 120.833 16.6657 120.833Z" fill="#424242"/>
<path d="M33.3346 150C31.0346 150 29.168 148.138 29.168 145.833C29.168 127.104 42.618 92.9042 64.5221 79.7626C66.4971 78.5792 69.0555 79.2167 70.2388 81.1917C71.4221 83.1667 70.7846 85.7251 68.8096 86.9084C49.9888 98.2001 37.5013 129.854 37.5013 145.833C37.5013 148.138 35.6346 150 33.3346 150ZM87.5055 70.8334C86.2346 70.8334 84.9888 70.2584 84.168 69.1667C82.7846 67.3251 83.1596 64.7126 85.0013 63.3334C101.86 50.6876 112.655 29.1126 112.501 8.36258C112.485 6.06258 114.335 4.18341 116.635 4.16675H116.668C118.955 4.16675 120.818 6.01258 120.835 8.30425C121.01 31.6042 108.905 55.8209 90.0013 70.0001C89.2513 70.5626 88.3763 70.8334 87.5055 70.8334Z" fill="#424242"/>
<path d="M83.3346 79.1667C81.0305 79.1667 79.168 77.3042 79.168 75C79.168 72.7 81.0305 70.8333 83.3346 70.8333C84.6805 70.8333 116.451 70.4833 129.505 40.025C130.414 37.9125 132.872 36.9333 134.972 37.8375C137.089 38.7417 138.068 41.1917 137.16 43.3083C121.968 78.7583 84.9055 79.1667 83.3346 79.1667Z" fill="#424242"/>
<path d="M133.335 120.833C131.589 120.833 129.964 119.729 129.385 117.983C122.293 96.7126 107.33 86.4876 84.7013 87.4542C84.1138 87.4792 83.6513 87.5001 83.3346 87.5001C81.0305 87.5001 79.168 85.6376 79.168 83.3334C79.168 81.0292 81.0305 79.1667 83.3346 79.1667C83.5638 79.1667 83.9013 79.1501 84.3263 79.1292C117.572 77.6292 131.505 97.9959 137.285 115.346C138.014 117.529 136.835 119.892 134.651 120.617C134.214 120.763 133.768 120.833 133.335 120.833Z" fill="#424242"/>
<path d="M116.667 150C114.363 150 112.5 148.138 112.5 145.833C112.5 129.854 100.013 98.2 81.1878 86.9042C79.2128 85.7209 78.5753 83.1625 79.7586 81.1875C80.9419 79.2167 83.4961 78.575 85.4753 79.7584C107.379 92.9042 120.834 127.104 120.834 145.833C120.834 148.138 118.971 150 116.667 150Z" fill="#424242"/>
<path d="M75 133.333C88.8071 133.333 100 120.663 100 105.033C100 89.4037 88.8071 76.7334 75 76.7334C61.1929 76.7334 50 89.4037 50 105.033C50 120.663 61.1929 133.333 75 133.333Z" fill="#424242"/>
<path d="M74.9987 95.8333C84.2034 95.8333 91.6654 84.6404 91.6654 70.8333C91.6654 57.0261 84.2034 45.8333 74.9987 45.8333C65.794 45.8333 58.332 57.0261 58.332 70.8333C58.332 84.6404 65.794 95.8333 74.9987 95.8333Z" fill="#424242"/>
<path d="M66.6654 58.3333C65.5987 58.3333 64.532 57.925 63.7195 57.1125C58.332 51.725 58.332 46.15 58.332 41.6667C58.332 39.3667 60.1987 37.5 62.4987 37.5C64.7987 37.5 66.6654 39.3667 66.6654 41.6667C66.6654 45.5 66.6654 48.275 69.6112 51.2208C71.2404 52.85 71.2404 55.4833 69.6112 57.1125C68.7987 57.925 67.732 58.3333 66.6654 58.3333ZM83.332 58.3333C82.2654 58.3333 81.1987 57.925 80.3862 57.1125C78.757 55.4833 78.757 52.85 80.3862 51.2208C83.332 48.275 83.332 45.5 83.332 41.6667C83.332 39.3667 85.1945 37.5 87.4987 37.5C89.8029 37.5 91.6654 39.3667 91.6654 41.6667C91.6654 46.15 91.6654 51.725 86.2779 57.1125C85.4654 57.925 84.3987 58.3333 83.332 58.3333Z" fill="#424242"/>
</svg>
