<svg width="150" height="150" viewBox="0 0 150 150" fill="none" xmlns="http://www.w3.org/2000/svg">
<path d="M71.9635 17.086C71.9635 17.086 74.0729 6.8555 76.3229 6.25785C78.5846 5.66019 88.4401 7.793 93.2799 10.3594C100.042 13.9336 104.214 19.8985 105.21 27.1641C106.264 34.9453 103.253 41.461 103.253 41.461C103.253 41.461 110.319 37.2539 118.745 38.0039C127.171 38.7539 133.487 42.8203 135.901 45.8321C138.303 48.8438 141.62 52.1485 141.163 53.6602C140.706 55.1602 131.987 60.586 132.432 61.9336C132.889 63.293 143.12 62.5313 144.163 64.336C145.217 66.1407 147.327 77.7305 139.651 86.0039C131.975 94.2774 124.452 95.4844 124.452 95.4844C124.452 95.4844 132.046 102.621 132.444 112.371C132.772 120.352 130.628 125.121 126.268 126.785C121.909 128.438 113.776 123.176 113.776 123.176C113.776 123.176 120.842 135.809 117.69 137.766C114.526 139.723 112.967 136.231 111.667 136.559C110.6 136.828 112.417 139.418 110.014 141.68C107.612 143.941 97.2291 145.441 88.0534 140.473C78.8776 135.504 76.0182 127.688 76.0182 127.688C76.0182 127.688 73.5455 137.18 62.2604 141.996C50.9752 146.813 42.7604 140.918 41.2604 140.016C39.7604 139.113 40.358 131.895 40.6627 130.688C40.9674 129.481 42.3151 126.621 41.4127 126.023C40.5104 125.426 37.4987 129.633 35.3893 130.992C33.2799 132.352 30.5729 133.852 27.8659 131.59C25.1588 129.328 18.6901 121.805 20.3424 111.727C21.9948 101.648 27.7135 95.9297 27.7135 95.9297C27.7135 95.9297 15.6784 94.875 9.80727 84.6446C3.93617 74.4141 4.70961 64.1836 5.7643 62.8243C6.81898 61.4649 15.8424 61.3243 15.8424 61.3243C15.8424 61.3243 7.2643 56.3555 8.16664 52.4532C9.06898 48.5391 13.4284 51.5508 14.6354 50.3438C15.8424 49.1368 11.5651 44.5664 14.9401 42.1758C17.4713 40.3828 21.9245 37.043 30.4323 36.3516C39.3971 35.6133 45.6315 40.1133 45.6315 40.1133C45.6315 40.1133 41.7995 33.6328 43.3815 26.2735C44.6354 20.4493 48.9479 15.4453 53.0026 12.586C57.0573 9.7266 62.483 7.46488 64.8854 7.46488C67.2877 7.46488 71.9635 17.086 71.9635 17.086Z" fill="#FF94CD"/>
<path d="M93.3744 54.3398C94.9915 56.2031 98.4017 53.6601 100.64 49.8632C102.351 46.9687 104.308 42.0234 103.617 41.414C102.925 40.8046 97.5931 44.9531 95.7884 47.0038C93.9954 49.0663 92.097 52.8632 93.3744 54.3398Z" fill="#FF79C5"/>
<path d="M102.445 90.6212C102.012 93.3868 108.902 95.3439 112.57 95.7775C116.051 96.1876 124.441 96.6564 124.465 95.4728C124.5 94.2892 117.844 89.6837 112.57 88.5704C107.941 87.5978 102.82 88.2657 102.445 90.6212Z" fill="#FF79C5"/>
<path d="M76.4778 108.269C74.1223 108.129 73.2434 113.613 73.677 117.832C74.1106 122.051 75.013 127.559 76.0208 127.664C77.0286 127.77 78.7747 121.676 79.2083 115.969C79.4778 112.383 78.5872 108.398 76.4778 108.269Z" fill="#FF79C5"/>
<path d="M27.7253 95.9296C27.8894 96.7147 36.0222 96.7147 40.3699 95.4726C44.7175 94.2304 47.448 91.6874 46.9558 89.8241C46.4636 87.9608 41.0027 88.4882 37.9441 89.6366C33.9714 91.1249 27.573 95.1561 27.7253 95.9296Z" fill="#FF79C5"/>
<path d="M46.088 40.5468C45.1622 41.2264 48.1388 46.8866 50.131 49.3124C52.1232 51.7382 55.2286 54.41 56.7755 53.7186C58.3341 53.039 56.9044 48.1288 53.4825 44.8358C51.8302 43.2421 47.0255 39.8671 46.088 40.5468Z" fill="#FF79C5"/>
<path d="M91.8745 53.8946C89.7417 52.793 83.0503 61.8164 75.2456 61.5C67.4409 61.1836 59.4018 52.9102 57.9839 54.1758C56.5659 55.4414 62.2612 64.5821 59.2846 73.5117C56.5659 81.6797 47.0268 87.1172 48.0581 89.1328C49.019 91.0196 58.2651 87.1055 65.9526 90.9844C74.9175 95.5196 73.2065 107.098 76.3589 107.18C79.5112 107.262 78.1167 97.0782 85.8979 92.168C93.3862 87.4336 101.378 91.1133 102.058 88.6993C102.843 85.8633 92.6831 82.3594 90.562 72.668C88.0893 61.4766 94.0893 55.0313 91.8745 53.8946Z" fill="#BF044B"/>
<path d="M69.9954 68.9413C68.3899 69.4804 64.2298 79.0077 64.886 80.1796C65.5423 81.3515 74.0852 88.7225 76.3469 88.7225C78.6087 88.7225 86.0501 81.5741 86.1204 80.4725C86.1907 79.3827 82.4758 69.6679 81.2337 68.9413C79.9915 68.2147 71.5305 68.4257 69.9954 68.9413Z" fill="#F2C559"/>
<path d="M80.6265 63.3749C78.7866 65.0858 78.6109 68.3671 80.8374 70.2069C83.2163 72.164 86.4507 71.4257 87.8218 69.5155C89.0288 67.8515 89.146 65.2851 87.1304 63.4804C85.8882 62.3671 82.9585 61.2069 80.6265 63.3749Z" fill="#FDE1B1"/>
<path d="M83.5302 81.6913C83.2138 84.7617 85.8037 87.0937 88.3935 87.0351C91.7802 86.9648 93.0341 84.1406 92.999 82.2187C92.9404 79.6288 91.1474 77.4023 88.288 77.5078C85.4287 77.6132 83.7998 79.1015 83.5302 81.6913Z" fill="#FDE1B1"/>
<path d="M76.2312 87.1876C73.9577 87.2462 71.5788 88.7696 71.6257 92.1095C71.6726 95.1798 74.0632 96.5509 76.4421 96.5509C78.821 96.5509 80.778 94.8516 80.778 91.9454C80.778 89.0391 78.6687 87.129 76.2312 87.1876Z" fill="#FDE1B1"/>
<path d="M61.7344 77.2969C58.3477 77.2969 56.918 79.6289 56.918 82.2773C56.918 84.9258 58.875 86.8477 62.0039 86.7188C64.6992 86.6133 66.375 84.3281 66.1289 81.7969C65.8594 79.043 64.5938 77.2969 61.7344 77.2969Z" fill="#FDE1B1"/>
<path d="M64.0562 62.7422C62.1108 64.6289 62.0405 67.875 64.1147 69.5742C65.7319 70.9102 68.6147 71.3789 70.5132 69.4102C72.4233 67.4531 72.0952 64.6524 70.4077 63.0117C68.7202 61.3594 65.9663 60.8906 64.0562 62.7422Z" fill="#FDE1B1"/>
</svg>
