<svg xmlns="http://www.w3.org/2000/svg" fill="none" viewBox="0 0 3230 2660"><path stroke="#D1D1D1" stroke-linecap="square" stroke-width="4" d="M245 475h2890M245 665h2890M245 855h2890M245 1235h2890M245 1425h2890M245 1615h2890M245 1995h1940M245 2185h1940M245 2375h1940M475 245v2322M665 245v2322M855 245v2322M1045 245v2322M1235 245v2322M1425 245v2322M1615 245v2322M1805 245v2322M1995 245v2322M2375 245v1560M2565 245v1560M2755 245v1560M2945 245v1560"/><path stroke="#797979" stroke-linecap="square" stroke-width="4" d="M245 285h2890M245 1045h2890M245 1805h2890M245 2565h1940M285 245v2322M2185 245v2322M3135 245v1560"/><path fill="url(#a)" d="M156.673 352.731c-.668 7.125-1.137 19.734 3.07 25.101 0 0-1.98-13.851 15.774-31.23 7.148-6.996 8.8-16.512 6.304-23.649-1.418-4.043-4.007-7.382-6.257-9.715-1.313-1.371-.305-3.632 1.605-3.55 11.555.515 30.281 3.726 38.238 23.695 3.493 8.766 3.75 17.824 2.086 27.035-1.054 5.883-4.804 18.961 3.75 20.567 6.106 1.148 9.059-3.704 10.383-7.196.551-1.453 2.461-1.816 3.492-.656 10.313 11.731 11.192 25.547 9.059 37.441-4.125 22.993-27.41 39.727-50.543 39.727-28.899 0-51.902-16.535-57.867-46.465-2.403-12.082-1.184-35.988 17.449-52.863 1.383-1.266 3.644-.141 3.457 1.758Z"/><path fill="url(#b)" d="M204.191 395.727c-10.652-13.711-5.883-29.356-3.269-35.59.351-.821-.586-1.594-1.325-1.09-4.582 3.117-13.968 10.453-18.339 20.777-5.918 13.957-5.496 20.789-1.993 29.133 2.11 5.027-.339 6.094-1.57 6.281-1.195.188-2.297-.609-3.176-1.441a18.856 18.856 0 0 1-5.203-8.906c-.187-.727-1.136-.926-1.57-.328-3.281 4.535-4.981 11.812-5.063 16.957-.257 15.902 12.879 28.793 28.77 28.793 20.027 0 34.617-22.149 23.109-40.665-3.34-5.39-6.48-8.917-10.371-13.921Z"/><path fill="#0080FD" d="M188.75 500.002c-6.19.106-7.98 5.483-10.195 9.879-2.216 4.396-15.404 28.303-23.942 40.368-8.538 12.065-20.099 27.871-18.455 50.469 1.657 22.598 23.677 39.468 54.529 39.28 27.888-.163 52.285-12.976 53.282-40.812.822-23.042-15.081-42.951-22.929-55.133-4.665-7.248-19.937-31.507-21.551-34.511-2.89-5.378-4.122-9.657-10.739-9.54Z"/><path fill="#67B3FF" d="M156.889 570.003c-3.519.153-11.889 10.965-11.889 24.598s6.48 23.702 13.553 22.262c8.204-1.664 6.86-9.974 5.184-16.62-1.438-5.713-3.686-12.464-4.185-18.614-.309-3.978 1.023-11.792-2.663-11.626Z"/><path fill="#FDD835" d="m194.744 693.472 15.774 35.977a8.258 8.258 0 0 0 6.82 4.91l38.426 3.445c4.347.633 6.082 5.965 2.929 9.035l-28.945 24.317a8.243 8.243 0 0 0-2.766 8.051l8.415 39.386c.738 4.324-3.797 7.629-7.688 5.578l-33.539-19.64a8.241 8.241 0 0 0-8.344 0l-33.539 19.629c-3.879 2.039-8.426-1.254-7.687-5.578l8.414-39.387a8.267 8.267 0 0 0-2.766-8.051l-28.957-24.293c-3.141-3.059-1.406-8.402 2.93-9.035l38.426-3.445a8.26 8.26 0 0 0 6.82-4.911l15.773-35.976c1.957-3.938 7.559-3.938 9.504-.012Z"/><path fill="#D2A008" fill-rule="evenodd" d="M217.519 732.367a6.26 6.26 0 0 1-5.167-3.721l-15.814-36.062c-2.683-5.415-10.397-5.401-13.086.01l-.022.043-15.793 36.021a6.261 6.261 0 0 1-5.167 3.721l-38.481 3.45-.055.008c-5.976.872-8.364 8.232-4.036 12.447l.053.052 29.014 24.34a6.27 6.27 0 0 1 2.095 6.103l-.001.001-8.422 39.424-.007.041c-1.017 5.961 5.248 10.493 10.59 7.685l.04-.021 33.579-19.652.001-.001a6.245 6.245 0 0 1 6.321 0l33.578 19.664.04.021c5.363 2.826 11.607-1.732 10.591-7.684l-.007-.041-8.422-39.427-.001-.004a6.24 6.24 0 0 1 2.097-6.098l29.001-24.364.053-.051c4.34-4.227 1.951-11.575-4.037-12.447l-.055-.008-38.48-3.45Zm-54.87 2.004-38.426 3.445c-4.336.633-6.07 5.976-2.93 9.035l28.957 24.293a8.267 8.267 0 0 1 2.766 8.051l-8.414 39.387c-.738 4.324 3.808 7.617 7.687 5.578l33.539-19.629a8.241 8.241 0 0 1 8.344 0l33.539 19.64c3.891 2.051 8.426-1.254 7.688-5.578l-8.414-39.386a8.242 8.242 0 0 1 2.765-8.051l28.946-24.317c3.152-3.07 1.418-8.402-2.93-9.035l-38.426-3.445a8.258 8.258 0 0 1-6.82-4.91l-15.774-35.977c-1.945-3.926-7.546-3.926-9.504.012l-15.773 35.976a8.26 8.26 0 0 1-6.82 4.911Z" clip-rule="evenodd"/><path fill="#FFFF8D" d="m193.596 731.605-2.672-26.507c-.105-1.477-.41-4.008 1.957-4.008 1.875 0 2.895 3.902 2.895 3.902l8.015 21.281c3.024 8.098 1.782 10.875-1.136 12.516-3.352 1.875-8.297.41-9.059-7.184Z"/><path fill="#F4B400" d="m226.656 768.801 22.992-17.942c1.137-.949 3.188-2.461 1.547-4.183-1.301-1.36-4.816.597-4.816.597l-20.121 7.864c-6 2.074-9.985 5.144-10.336 9.011-.457 5.157 4.172 9.129 10.734 4.653Z"/><path fill="#16A34A" d="m197.441 950.527-7.23-2.918-8.016 5.297s2.098 1.84 2.098 4.442c0 2.601-1.5 20.461-.035 32.215 1.301 10.406 4.875 17.897 7.969 21.957 3.093 4.07 9.269 8.46 11.062 8.46 1.793 0 6.024-3.41 7.477-8.13 1.464-4.72-8.461-3.26-8.461-3.26s-7.547-4.14-9.434-18.207c-1.453-10.781-.926-22.922-.808-27.492.175-6.832 5.378-12.364 5.378-12.364ZM148.883 915.535s1.675-4.829-6.621-3.692c-3.446.469-13.29 3.235-14.649 14.543-1.137 9.434 4.301 14.145 4.125 16.5-.223 3.141-9.984 7.699-8.941 20.66.996 12.305 12.797 16.782 18.492 14.825 10.406-3.586 7.594-62.836 7.594-62.836ZM179.233 905.809s-10.594-14.754-7.02-19.465c2.988-3.937 7.406-7.042 15.082-6.726 10.641.434 14.321 9.762 16.489 10.09.996.152 7.804-5.696 17.566-3.41 9.762 2.285 11.226 10.734 11.707 13.007.48 2.274-53.824 6.504-53.824 6.504ZM232.741 943.695s15.61-15.129 19.196-12.036c3.574 3.094 5.847 8.942 5.367 13.993-.973 10.242-6.504 11.707-6.34 13.007.164 1.301 3.902 2.11 3.738 11.871-.14 8.403-8.261 18.059-19.476 18.868-11.227.82-5.731-40.325-2.485-45.703Z"/><path fill="#22C55E" d="M185.45 942.336c2.426-1.945-1.183-3.844-4.757-8.39-3.586-4.559-13.172-17.063-13.336-32.051-.082-6.996 2.273-12.364 4.945-15.692 2.449-3.058 6.832-3.117 9.691-2.847 13.828 1.3 16.805 16.5 19.676 17.074 2.438.492 10.664-10.641 23.602-8.566 8.789 1.406 11.554 14.765 4.664 24.738-7.969 11.543-21.762 19.969-26.157 22.242-4.394 2.273-5.367 3.363-4.558 5.32.808 1.957 3.762-.175 6.34-2.109 10.242-7.641 21.797-14.965 30.574-15.293 8.777-.328 13.828 2.602 15.773 4.875 1.957 2.273 2.766 10.57 0 15.937-2.73 5.309-9.761 9.106-9.925 10.407-.164 1.3 6.668 6.996 5.531 17.402-.75 6.82-4.395 11.227-6.832 12.844-2.438 1.629-12.738 2.883-20.168-.973-8.133-4.23-17.074-15.609-20.977-21.961-3.902-6.34-6.679-12.949-10.57-13.172-5.695-.328-12.363 11.707-27.328 20.004-11.168 6.188-20.66 8.297-25.535 6.34-4.875-1.957-7.453-11.203-6.996-17.238.996-12.809 13.195-14.766 13.195-17.203 0-2.438-7.805-7.325-7.16-18.539.551-9.457 5.039-12.844 6.668-13.5 1.629-.657 11.871-1.137 19.195 4.23 7.324 5.367 12.691 14.965 15.938 18.703 3.257 3.738 6.07 9.375 8.507 7.418Z"/><path fill="#64D68E" d="M184.56 919.66s-2.894-2.531-5.508-.48c-2.168 1.699-.96 5.871.844 8.261 1.793 2.391 3.996 4.336 6.352 3.235 2.32-1.09 1.312-5.508 1.312-5.508s1.793 1.969 4.43 1.922c3.902-.07 5.391-3.235 5.391-3.235s0 2.391 2.636 3.95c2.637 1.558 5.508.363 5.508.363s-1.195 2.273.234 3.598c1.442 1.312 3.352.363 5.625-2.52 2.274-2.871 3.469-5.871 1.079-7.43-2.391-1.558-5.508.364-5.508.364s1.957-6.258-1.793-7.782c-2.883-1.171-4.676 1.442-4.676 1.442s-.961-3.598-4.43-3.598c-3.468 0-4.547 3.352-4.547 3.352s-2.636-2.391-4.91-.961c-2.273 1.429-2.039 5.027-2.039 5.027ZM209.185 947.809c.516 2.472 2.731 2.472 2.731 2.472s-1.7.176-2.039 1.875c-.34 1.7.339 2.297.339 2.297s-2.812-.679-4.089 1.535c-.938 1.618 0 3.235 0 3.235s-1.7-.258-2.977 1.699 1.019 6.375 4.008 8.684c3.41 2.636 7.769 4.886 9.539 1.699 1.699-3.071-1.278-6.223-1.278-6.223s3.411 1.195 4.77-1.359c1.078-2.028-.176-3.75-.176-3.75s1.36.082 1.793-1.793c.75-3.281-2.976-4.172-2.976-4.172s6.445.434 6.644-5.285c.176-4.946-5.883-4.512-5.883-4.512s1.817-2.777 0-4.254c-4.183-3.398-11.086 4.547-10.406 7.852ZM174.428 940.484c.855-1.793.082-4.09-3.575-6.82-3.89-2.895-6.129-2.813-7.324-1.618-1.195 1.196-.422 2.977-.422 2.977s-2.472.34-2.636 2.473c-.176 2.132 1.699 2.894 1.699 2.894s-2.895.598-2.895 3.41c0 2.813 2.133 3.575 2.133 3.575s-4.348 1.875-2.977 4.945c1.442 3.234 8.098 2.555 8.098 2.555s-7.5 5.707-4.254 9.199c3.235 3.492 15.328-4.125 12.692-8.942-1.536-2.812-4.348-1.793-4.348-1.793s1.793-1.793 1.699-3.914c-.082-2.133-3.152-3.492-3.152-3.492s1.453-.762 1.535-1.875c.082-1.113-.938-2.391-.938-2.391s3.727.774 4.665-1.183Z"/><path fill="#FF8E00" d="M120.212 1157.27c3.574 33.51 27.82 52.44 69.645 53.09 41.824.64 57.445-19.63 63.914-30.15 7.429-12.11 19.324-69.02-46.289-82.39-25.067-5.11-44.543-.93-57.973 6.59-23.965 13.41-30.797 38.84-29.297 52.86Z"/><path fill="#5C6A23" d="M249.566 1078.11c-.164-1.64-5.929-7.4-20.742-8.4-14.812-1-25.875 5.58-30.902 14.83-3.879 7.13-6.141 12.99-6.141 12.99l9.141.88 38.285-13.38 10.359-6.92Z"/><path fill="#767E3A" d="M219.598 1086.34c10.277-3.61 29.964-8.23 29.964-8.23s-3.457 7.74-10.371 14.82c-6.914 7.07-18.175 14.41-33.75 10.53-6.363-1.58-10.582-5.73-10.582-5.73s9.27-5.95 24.739-11.39Z"/><path fill="#5C6A23" d="M180.521 1078.9c-.879 1.87 2.039 3.35 3.843 6.47 3.317 5.72 3.317 13.78 3.317 13.78s-7.078.75-6.856 6.92c.199 5.5 5.11 7.76 10.77 7.76 6.176 0 8.578-4.59 8.355-7.6-.351-4.67-5.191-6.47-5.191-6.47s.68-10.69 0-16.03c-.68-5.35-1.582-6.71-3.164-7.39-1.582-.68-9.938.14-11.074 2.56Z"/><path fill="#FFBD6F" d="M136.395 1156.03c4.078 1.29 7.617-3.33 12.234-12.23 2.403-4.66 7.758-11.54 10.372-14.38 5.589-6.09 12.668-12.39 8.414-17.51-4.547-5.46-17.813.32-26.508 13.21-8.696 12.89-10.465 29.04-4.512 30.91Z"/><path fill="#FF6110" d="M213.486 1113.15c-.668 2.67.503 4.94 2.472 5.1 2.367.2 3.539-2.07 3.586-4.39.035-1.88-1.207-3.13-2.824-3.29-1.629-.14-2.836.97-3.234 2.58ZM229.436 1124.66c-1.746 1.88-1.934 5.47.305 6.87 2.519 1.57 5.144-.51 6.011-2.28.68-1.39 1.055-3.66-.551-5.14-1.933-1.77-4.359-.96-5.765.55ZM240.169 1132.48c-.445 2.25.504 4.82 2.894 5.19 2.391.36 4.008-1.96 4.149-3.67.187-2.16-.656-3.89-2.555-4.62-1.898-.75-4.09 1.06-4.488 3.1ZM241.55 1143.6c-1.582-.78-4.711-.13-5.778 3.62-.867 3.05.129 6 2.344 6.54 2.977.71 4.945-1.6 5.449-4.2.574-2.92-.187-5.06-2.015-5.96ZM231.451 1168.52c2.227 1.71 1.242 4.68-.457 6.41-1.863 1.93-4.641 2.12-6.012.76-1.359-1.35-.961-4.13.961-6.05 1.922-1.93 4.313-2.04 5.508-1.12ZM201.921 1189.07c.902 1.85-.399 4.24-2.122 5.49-1.371 1.01-4.898 2.08-6.562-.35-1.371-1.99-.352-4.09 1.922-5.8 2.273-1.71 5.754-1.41 6.762.66Z"/><path fill="#854CE8" d="m138.47 1285.25-12.668 8.37s-1.817 3.57.644 15.63c2.461 12.05 13.571 35.91 35.942 58.55 19.301 19.53 41.836 29.04 61.652 30.06 19.816 1.02 29.344-11.79 29.344-11.79L138.47 1285.25Z"/><path fill="#985DFF" d="m149.309 1279.12-10.84 18.7s6.82 24.83 18.316 40.29c12.469 16.76 26.731 31.31 49.078 42.67 19.067 9.69 36.903 13.37 36.903 13.37s11.636-4.65 16.277-17.56c4.418-12.28-1.43-25.74-9.809-32.28-8.379-6.54-25.148-10.58-40.429-18.7-16.207-8.62-28.219-18.68-38.836-30.12-6.645-7.15-8.18-10.2-8.403-11.49-.105-.61-.492-1.12-1.078-1.31l-11.179-3.57Z"/><path fill="#BDCF46" d="m141.617 1299.54-.949 6.73s1.723 2.28 3.785 2.11c2.063-.18 5.238-5.49 6.035-9.11 1.172-5.29.539-8.25.539-8.25s4.125 2.16 10.313 1.26c6.187-.91 9.328-4.4 10.137-6.19.808-1.79.632-3.77-.27-4.22-.902-.45-5.297 1.52-5.297 1.52l-13.992-.54-13.277 3.86 2.976 12.83ZM118.516 1309.39s-1.863.7-1.301 2.76c.399 1.43 3.821 3.69 8.379 1.41 4.559-2.29 7.465-8.35 8.602-11.22 1.875-4.75 2.695-8.02 2.695-8.02l-6.328-3.75-5.625 13.53s-2.531 4.28-6.422 5.29Z"/><path fill="#6F9823" d="M127.898 1278.67s-3.796-6.25-4.218-9.97c-.352-3.17 1.125-5.12 1.886-6.1 1.172-1.5 3.622-2.47 5.227-1.61 1.992 1.05 1.969 3.07 3.27 5.68 1.3 2.61 3.539 6.55 3.539 6.55s4.5-1.43 11.027.83c6.527 2.27 9.41 5.21 13.418 6.34 4.008 1.14 8.906-.36 9.164 1.49.258 1.85-6.188 5.67-11.766 5.93-5.578.26-9.058-2.87-10.98-1.65-1.922 1.22-.422 8.65-2.145 13.96-1.371 4.22-4.757 6.34-5.636 6.22-.153-.02-4.078-6.06-4.852-7.71-.785-1.65-2.262-5.84-4.441-2.62-2.18 3.23-1.723 8.1-6.012 11.85-3.176 2.78-6.305 2.53-7.008 1.77-.223-.24 2.789-2.34 2.789-4.87 0-2.53-.726-12.16.586-16.87 1.735-6.27 6.152-9.22 6.152-9.22Z"/><path fill="#fff" d="M256.142 1505.04a35.024 35.024 0 0 0 3.469-15.26c0-19.46-15.762-35.22-35.215-35.22-4.558 0-8.918.88-12.926 2.46-5.121-4.46-11.836-7.22-19.125-7.22-8.906 0-16.875 3.99-22.148 10.2-4.102-2.23-8.789-3.52-13.711-3.52-15.703.12-28.477 12.78-28.477 28.48 0 5.86 1.758 11.37 4.922 15.94-5.859 4.69-9.961 11.6-10.781 19.69-1.523 15.7 10.078 29.88 26.016 31.4 3.75.35 7.265 0 10.664-.94 1.289 12.54 11.836 22.27 24.726 22.27 8.203 0 15.469-3.98 19.922-10.08 4.219 3.28 9.492 5.39 15.352 5.39 12.89 0 23.554-9.96 24.492-22.5 9.961-4.57 16.992-14.65 16.992-26.36 0-5.38-1.559-10.46-4.172-14.73Z"/><path fill="#000" fill-rule="evenodd" d="M169.51 1456.31a32.028 32.028 0 0 1 22.836-9.51c7.407 0 14.266 2.58 19.704 6.81a38.238 38.238 0 0 1 12.346-2.05c21.11 0 38.215 17.11 38.215 38.22 0 5.36-1.101 10.46-3.099 15.1a31.216 31.216 0 0 1 3.802 14.89c0 12.33-7.042 22.99-17.187 28.32-1.866 13.29-13.449 23.54-27.297 23.54-5.52 0-10.555-1.66-14.794-4.34a27.62 27.62 0 0 1-20.48 9.03c-13.286 0-24.357-9.23-27.168-21.65-2.735.47-5.557.59-8.502.31h-.006c-17.585-1.68-30.4-17.33-28.716-34.68l.002-.02c.808-7.96 4.501-14.89 9.862-19.96-2.602-4.58-4.018-9.84-4.018-15.36 0-17.38 14.132-31.35 31.454-31.48h.022c4.616 0 9.036 1.03 13.024 2.83Zm22.836-3.51c-7.997 0-15.14 3.58-19.862 9.14l-1.577 1.86-2.141-1.16c-3.684-2-7.878-3.15-12.269-3.16-14.079.12-25.487 11.46-25.487 25.48 0 5.25 1.573 10.17 4.388 14.23l1.593 2.3-2.185 1.75c-5.269 4.22-8.935 10.41-9.67 17.64-1.359 14.05 9.026 26.76 23.311 28.13 3.376.31 6.526 0 9.585-.85l3.419-.94.363 3.53c1.133 11.02 10.403 19.57 21.742 19.57 7.213 0 13.592-3.5 17.5-8.85l1.824-2.49 2.44 1.89c3.755 2.92 8.393 4.76 13.51 4.76 11.334 0 20.681-8.76 21.5-19.72l.132-1.77 1.609-.73c8.95-4.11 15.243-13.16 15.243-23.64 0-4.8-1.39-9.34-3.732-13.17l-.852-1.4.71-1.47a32 32 0 0 0 3.171-13.95c0-17.8-14.418-32.22-32.215-32.22-4.17 0-8.156.81-11.824 2.25l-1.697.67-1.376-1.2c-4.607-4.01-10.631-6.48-17.153-6.48Z" clip-rule="evenodd"/><path fill="#fff" d="M143.481 1559.02c-5.274-.58-9.961 3.28-10.547 8.56-.586 5.27 3.281 9.96 8.554 10.43 5.274.58 9.961-3.28 10.547-8.56.586-5.27-3.281-9.96-8.554-10.43Z"/><path fill="#000" fill-rule="evenodd" d="M143.697 1556.79c6.509.59 11.292 6.38 10.567 12.91-.718 6.46-6.47 11.26-13.007 10.55-6.509-.59-11.292-6.39-10.567-12.92.718-6.46 6.47-11.26 13.007-10.54Zm-.472 4.47c-4-.44-7.609 2.49-8.063 6.57-.445 4.01 2.493 7.58 6.518 7.94h.049c4 .45 7.609-2.49 8.063-6.56a7.172 7.172 0 0 0-6.518-7.94l-.025-.01h-.024Z" clip-rule="evenodd"/><path fill="#fff" d="M125.548 1578.95c-3.516-.36-6.68 2.22-7.032 5.74-.351 3.51 2.227 6.56 5.743 6.91 3.515.35 6.679-2.22 7.031-5.74.351-3.4-2.227-6.56-5.742-6.91Z"/><path fill="#000" fill-rule="evenodd" d="M116.278 1584.46c.476-4.75 4.747-8.23 9.494-7.75 4.728.47 8.237 4.71 7.757 9.38-.478 4.75-4.748 8.22-9.494 7.75-4.709-.47-8.236-4.58-7.757-9.38Zm9.046-3.28c-2.284-.23-4.341 1.46-4.568 3.73-.224 2.24 1.405 4.22 3.727 4.45 2.284.23 4.341-1.45 4.568-3.73h.001c.221-2.14-1.426-4.22-3.728-4.45Z" clip-rule="evenodd"/><path fill="#424242" d="M177.495 1705.83c-.867 0-1.746-.27-2.496-.83-18.904-14.18-31.004-38.4-30.833-61.7.017-2.3 1.717-4.06 4.196-4.13a4.156 4.156 0 0 1 4.137 4.19c-.154 20.75 10.642 42.33 27.5 54.97a4.174 4.174 0 0 1 .834 5.84 4.158 4.158 0 0 1-3.338 1.66Z"/><path fill="#424242" d="M181.668 1714.17c-1.571 0-38.638-.41-53.829-35.86a4.161 4.161 0 0 1 2.187-5.47 4.163 4.163 0 0 1 5.471 2.18c13.054 30.46 44.825 30.81 46.171 30.81a4.17 4.17 0 0 1 0 8.34Z"/><path fill="#424242" d="M131.666 1755.83c-.434 0-.879-.07-1.317-.21a4.166 4.166 0 0 1-2.633-5.27c5.783-17.35 19.662-37.73 52.958-36.22.425.02.763.04.992.04 2.3 0 4.166 1.86 4.166 4.16 0 2.31-1.866 4.17-4.166 4.17-.317 0-.779-.02-1.367-.05-22.546-.98-37.587 9.26-44.679 30.53a4.165 4.165 0 0 1-3.954 2.85Z"/><path fill="#424242" d="M148.339 1785c-2.3 0-4.167-1.86-4.167-4.17 0-18.73 13.45-52.93 35.354-66.07a4.173 4.173 0 0 1 5.717 1.43 4.17 4.17 0 0 1-1.429 5.72c-18.821 11.29-31.309 42.94-31.309 58.92 0 2.31-1.866 4.17-4.166 4.17Zm54.17-79.17c-1.27 0-2.516-.57-3.337-1.66a4.171 4.171 0 0 1 .833-5.84c16.859-12.64 27.654-34.22 27.5-54.97a4.157 4.157 0 0 1 4.134-4.19h.033c2.287 0 4.15 1.84 4.167 4.13.175 23.3-11.93 47.52-30.834 61.7-.75.56-1.625.83-2.496.83Z"/><path fill="#424242" d="M198.339 1714.17a4.168 4.168 0 0 1-4.167-4.17c0-2.3 1.862-4.17 4.167-4.17 1.345 0 33.116-.35 46.17-30.81.909-2.11 3.367-3.09 5.467-2.18a4.159 4.159 0 0 1 2.188 5.47c-15.192 35.45-52.255 35.86-53.825 35.86Z"/><path fill="#424242" d="M248.339 1755.83a4.156 4.156 0 0 1-3.95-2.85c-7.092-21.27-22.055-31.49-44.684-30.53-.587.03-1.05.05-1.366.05a4.162 4.162 0 0 1-4.167-4.17 4.16 4.16 0 0 1 4.167-4.16c.229 0 .566-.02.991-.04 33.246-1.5 47.179 18.87 52.959 36.22a4.166 4.166 0 0 1-2.634 5.27c-.437.14-.883.21-1.316.21Z"/><path fill="#424242" d="M231.667 1785a4.162 4.162 0 0 1-4.167-4.17c0-15.98-12.487-47.63-31.312-58.93a4.157 4.157 0 0 1-1.429-5.71 4.162 4.162 0 0 1 5.716-1.43c21.904 13.14 35.359 47.34 35.359 66.07 0 2.31-1.863 4.17-4.167 4.17Z"/><path fill="#424242" d="M190 1768.33c13.807 0 25-12.67 25-28.3s-11.193-28.3-25-28.3-25 12.67-25 28.3 11.193 28.3 25 28.3Z"/><path fill="#424242" d="M189.995 1730.83c9.205 0 16.666-11.19 16.666-25 0-13.8-7.461-25-16.666-25s-16.667 11.2-16.667 25c0 13.81 7.462 25 16.667 25Z"/><path fill="#424242" d="M181.661 1693.33c-1.066 0-2.133-.4-2.945-1.22-5.388-5.38-5.388-10.96-5.388-15.44 0-2.3 1.867-4.17 4.167-4.17a4.17 4.17 0 0 1 4.166 4.17c0 3.83 0 6.61 2.946 9.55a4.16 4.16 0 0 1 0 5.89 4.122 4.122 0 0 1-2.946 1.22Zm16.667 0c-1.067 0-2.133-.4-2.946-1.22a4.16 4.16 0 0 1 0-5.89c2.946-2.94 2.946-5.72 2.946-9.55 0-2.3 1.863-4.17 4.167-4.17a4.168 4.168 0 0 1 4.166 4.17c0 4.48 0 10.06-5.387 15.44a4.124 4.124 0 0 1-2.946 1.22Z"/><path fill="#FF94CD" d="M186.964 1842.09s2.109-10.23 4.359-10.83c2.262-.6 12.117 1.53 16.957 4.1 6.762 3.57 10.934 9.54 11.93 16.8 1.054 7.79-1.957 14.3-1.957 14.3s7.066-4.21 15.492-3.46c8.426.75 14.742 4.82 17.156 7.83 2.402 3.01 5.719 6.32 5.262 7.83-.457 1.5-9.176 6.93-8.731 8.27.457 1.36 10.688.6 11.731 2.41 1.054 1.8 3.164 13.39-4.512 21.66-7.676 8.28-15.199 9.48-15.199 9.48s7.594 7.14 7.992 16.89c.328 7.98-1.816 12.75-6.176 14.41-4.359 1.66-12.492-3.6-12.492-3.6s7.066 12.63 3.914 14.59c-3.164 1.95-4.723-1.54-6.023-1.21-1.067.27.75 2.86-1.653 5.12-2.402 2.26-12.785 3.76-21.961-1.21-9.175-4.97-12.035-12.78-12.035-12.78s-2.472 9.49-13.758 14.31c-11.285 4.81-19.5-1.08-21-1.98-1.5-.91-.902-8.13-.597-9.33.304-1.21 1.652-4.07.75-4.67-.903-.59-3.914 3.61-6.024 4.97-2.109 1.36-4.816 2.86-7.523.6s-9.176-9.79-7.524-19.86c1.653-10.08 7.372-15.8 7.372-15.8s-12.036-1.06-17.907-11.29c-5.871-10.23-5.097-20.46-4.043-21.82 1.055-1.36 10.078-1.5 10.078-1.5s-8.578-4.96-7.675-8.87c.902-3.91 5.261-.9 6.468-2.11 1.207-1.2-3.07-5.77.305-8.16 2.531-1.8 6.984-5.14 15.492-5.83 8.965-.74 15.199 3.76 15.199 3.76s-3.832-6.48-2.25-13.84c1.254-5.82 5.567-10.82 9.622-13.68 4.054-2.86 9.48-5.13 11.882-5.13 2.403 0 7.079 9.63 7.079 9.63Z"/><path fill="#FF79C5" d="M208.378 1879.34c1.617 1.86 5.028-.68 7.266-4.48 1.711-2.89 3.668-7.84 2.976-8.45-.691-.61-6.023 3.54-7.828 5.59-1.793 2.07-3.691 5.86-2.414 7.34ZM217.441 1915.62c-.433 2.77 6.457 4.72 10.125 5.16 3.481.41 11.872.88 11.895-.31.035-1.18-6.621-5.79-11.895-6.9-4.628-.97-9.75-.3-10.125 2.05ZM191.478 1933.27c-2.356-.14-3.235 5.34-2.801 9.56.434 4.22 1.336 9.73 2.344 9.83 1.008.11 2.754-5.98 3.187-11.69.27-3.59-.621-7.57-2.73-7.7ZM142.729 1920.93c.164.78 8.297.78 12.645-.46 4.347-1.24 7.078-3.78 6.586-5.65-.492-1.86-5.953-1.33-9.012-.18-3.973 1.49-10.371 5.52-10.219 6.29ZM161.088 1865.55c-.926.68 2.051 6.34 4.043 8.76 1.992 2.43 5.098 5.1 6.645 4.41 1.558-.68.128-5.59-3.293-8.88-1.653-1.6-6.457-4.97-7.395-4.29Z"/><path fill="#BF044B" d="M206.878 1878.89c-2.132-1.1-8.824 7.93-16.629 7.61-7.804-.32-15.843-8.59-17.261-7.32-1.418 1.26 4.277 10.4 1.301 19.33-2.719 8.17-12.258 13.61-11.227 15.62.961 1.89 10.207-2.02 17.895 1.85 8.964 4.54 7.253 16.12 10.406 16.2 3.152.08 1.758-10.1 9.539-15.01 7.488-4.74 15.48-1.06 16.16-3.47.785-2.84-9.375-6.34-11.496-16.03-2.473-11.19 3.527-17.64 1.312-18.78Z"/><path fill="#F2C559" d="M184.999 1893.94c-1.605.54-5.765 10.07-5.109 11.24.656 1.17 9.199 8.54 11.461 8.54 2.262 0 9.703-7.15 9.773-8.25.071-1.09-3.644-10.8-4.886-11.53-1.243-.72-9.704-.51-11.239 0Z"/><path fill="#FDE1B1" d="M195.623 1888.38c-1.84 1.71-2.016 4.99.211 6.83 2.378 1.95 5.613 1.22 6.984-.69 1.207-1.67 1.324-4.23-.692-6.04-1.242-1.11-4.171-2.27-6.503-.1ZM198.534 1906.69c-.316 3.07 2.274 5.4 4.863 5.34 3.387-.07 4.641-2.89 4.606-4.81-.059-2.59-1.852-4.82-4.711-4.71-2.859.1-4.488 1.59-4.758 4.18ZM191.231 1912.19c-2.273.06-4.652 1.58-4.605 4.92.047 3.07 2.437 4.44 4.816 4.44s4.336-1.7 4.336-4.61c0-2.9-2.109-4.81-4.547-4.75ZM176.738 1902.3c-3.386 0-4.816 2.33-4.816 4.98 0 2.65 1.957 4.57 5.086 4.44 2.695-.11 4.371-2.39 4.125-4.92-.27-2.76-1.535-4.5-4.395-4.5ZM179.056 1887.74c-1.945 1.89-2.015 5.14.059 6.83 1.617 1.34 4.5 1.81 6.398-.16 1.91-1.96 1.582-4.76-.105-6.4-1.688-1.65-4.442-2.12-6.352-.27Z"/><path fill="#D4EDEF" d="m119.703 2071.18 20.485-31.07 15.867 18.13-36.352 12.94Z"/><path fill="#7AE4EB" d="m166.695 2094.99-46.992-23.81 36.352-12.94 10.64 36.75Z"/><path fill="#5ECFE7" d="m189.926 2065.46-33.879-7.22 10.641 36.75 23.238-29.53Z"/><path fill="#06B0C5" d="m260.156 2071.18-20.484-31.07-15.867 18.13 36.351 12.94Z"/><path fill="#7AE4EB" d="m213.164 2094.99 46.992-23.81-36.351-12.94-10.641 36.75Z"/><path fill="#D4EDEF" d="m189.93 2065.46 33.879-7.22-10.641 36.75-23.238-29.53Z"/><path fill="#A9E4DA" d="m213.164 2094.99-23.238-29.53-23.238 29.53h46.476Z"/><path fill="#A8E9ED" d="M165.395 2026.79h49.078l25.207 13.32-15.868 18.13-33.878 7.22-33.879-7.22-15.867-18.13 25.207-13.32Z"/><path fill="#1DB2D7" d="m189.934 2152.43-70.231-81.25 46.992 23.81 23.239 57.44Z"/><path fill="#A8E9ED" d="m189.93 2152.43 70.23-81.25-46.992 23.81-23.238 57.44Z"/><path fill="#D4EDEF" d="m213.164 2094.99-23.238 57.44-23.238-57.44h46.476Z"/><path fill="#B79664" d="M175.433 2236.11c-3.486-13.11 4.417-21.41 16.75-24.15.465-.1.95-.02 1.361.22 4.25 2.53 2.473 5.4 1.084 8.88-.871 2.16-.088 3.49 2.347 3.98 13.819 2.78 20.125 7.14 22.042 21.53.291 2.17-.25 3.9-1.209 5.74a.715.715 0 0 0-.088.35c-.001.12.028.24.084.34.056.11.138.21.238.27.1.07.215.12.336.13 19.68 2.35 31.375 16.78 25.972 37.11-.278 1.07.125 1.7 1.208 1.89 6.125 1.1 13.847 9.24 15.611 15.03 1.736 5.77 2.056 14.5.542 20.31-2.787 10.74-10.606 16.12-23.458 16.14-29.037.03-58.084.03-87.139 0-5-.01-9.977-.37-14.931-1.07-7.055-1.02-16.847-6.92-18.097-14.92-1.486-9.42-.236-20.6 9.389-25.04 2.778-1.29 4.843-2.27 6.194-2.95.445-.21.593-.55.445-1.02-4.125-12.46 2.166-23.46 12.958-29.53.371-.21.679-.51.894-.87.215-.37.328-.78.328-1.2.014-3.42-.236-7.24.528-10.36 3-12.21 14.722-17.67 26.083-19.96.473-.09.649-.38.528-.85Z"/><path fill="#9C8057" fill-rule="evenodd" d="M185.968 2213.98c1.304 1.84.458 3.86-.5 6.16-.138.32-.277.66-.413 1-.871 2.17-.088 3.49 2.347 3.99 13.819 2.77 20.125 7.13 22.042 21.52.291 2.17-.25 3.91-1.209 5.74a.758.758 0 0 0-.004.7c.056.11.138.2.238.27.1.07.215.11.336.13 19.68 2.34 31.375 16.77 25.972 37.11-.278 1.06.125 1.69 1.208 1.89 6.125 1.09 13.847 9.23 15.611 15.02 1.736 5.77 2.056 14.5.542 20.31-2.602 10.03-9.591 15.38-20.967 16.06h7.076c12.852-.02 20.671-5.4 23.458-16.14 1.514-5.81 1.195-14.54-.541-20.31-1.764-5.79-9.487-13.93-15.612-15.03-1.083-.19-1.486-.82-1.208-1.89 5.403-20.33-6.292-34.76-25.972-37.11a.693.693 0 0 1-.336-.13.664.664 0 0 1-.237-.27.692.692 0 0 1-.085-.34.715.715 0 0 1 .088-.35c.959-1.84 1.5-3.57 1.209-5.74-1.917-14.39-8.222-18.75-22.042-21.53-2.435-.49-3.217-1.82-2.347-3.98.136-.34.276-.68.413-1.01 1.266-3.03 2.337-5.59-1.496-7.87a1.908 1.908 0 0 0-1.362-.22c-2.228.49-4.311 1.17-6.209 2.02Z" clip-rule="evenodd"/><path fill="#EBC181" d="M140.103 2289.17c1.291.63 2.688-.78 4.651-3.6 1.022-1.48 3.132-3.57 4.137-4.42 2.149-1.82 4.803-3.64 3.639-5.59-1.244-2.08-5.925-.73-9.434 3.27-3.509 3.99-4.878 9.42-2.993 10.34ZM124.364 2323.92c1.594.5 2.978-1.29 4.783-4.75.94-1.81 3.033-4.47 4.055-5.58 2.186-2.36 4.953-4.81 3.29-6.79-1.778-2.12-6.964.12-10.364 5.12-3.4 5-4.091 11.27-1.764 12ZM154.934 2259.36c.892.92 1.986-1.24 4.234-4.9 1.285-2.1 3.758-3.6 4.912-4.44 2.397-1.75 6.075-1.94 5.71-4.35-.392-2.56-5.874-2.31-10.117 1.73-4.243 4.04-6.042 10.63-4.739 11.96Z"/><path fill="#FF542F" d="m148.255 2526.98-6.785 13.64s-13.125.29-13.875-.2-9.351-54.2 29.696-97.24c41.296-45.56 93.187-45.23 94.429-43.73 1.242 1.49.938 19.7.938 19.7l-104.403 107.83Z"/><path fill="#FF8E00" d="M197.945 2428.06c-25.641 14.49-45 36.43-53.965 70.76-4.266 16.32-2.66 41.77-2.66 41.77h15.14l45.035-66.11 51.164-47.96v-14.01s-30.609 1.91-54.714 15.55Z"/><path fill="#F9D81E" d="M166.584 2482.8c-12.363 23.81-10.149 57.79-10.149 57.79l14.778-.01 50.472-67.05 30.985-31.87-.024-15.12s-17.66-.17-45.152 13.14c-22.078 10.68-34.184 30.17-40.91 43.12Z"/><path fill="#60DF6D" d="M191.721 2470.86c-25.629 32.02-20.777 69.72-20.777 69.72h16.441l28.079-50.94 37.207-30.85-.012-17.28s-38.039.72-60.938 29.35Z"/><path fill="#00C0E9" d="M205.152 2478.06c-25.571 24.55-19.887 62.52-19.887 62.52h13.195l19.664-49.29 34.547-18.08-.012-17.05s-22.605-1.99-47.507 21.9Z"/><path fill="#8C83FF" d="M252.145 2482.56c.785-1.23.527-14.06.527-14.06s-21.386-.39-39.41 19.92c-17.988 20.28-15.398 52.16-15.398 52.16s12.328.38 12.832-.62c1.008-1.99-3.41-25.46 11.297-42.02 15.234-17.15 29.718-14.72 30.152-15.38Z"/><path fill="#000" d="M380.011 237.92c-6.827 0-12.8-1.429-17.92-4.288-5.12-2.859-9.109-6.848-11.968-11.968s-4.288-11.093-4.288-17.92v-27.648c0-6.827 1.429-12.8 4.288-17.92 2.859-5.12 6.848-9.109 11.968-11.968s11.093-4.288 17.92-4.288c6.827 0 12.8 1.429 17.92 4.288 5.12 2.859 9.109 6.848 11.968 11.968s4.288 11.093 4.288 17.92v27.648c0 6.827-1.429 12.8-4.288 17.92-2.859 5.12-6.848 9.109-11.968 11.968s-11.093 4.288-17.92 4.288Zm0-16.512c3.072 0 5.845-.725 8.32-2.176a16.231 16.231 0 0 0 5.888-5.888c1.451-2.475 2.176-5.248 2.176-8.32v-30.336c0-3.072-.725-5.845-2.176-8.32a16.231 16.231 0 0 0-5.888-5.888c-2.475-1.451-5.248-2.176-8.32-2.176s-5.845.725-8.32 2.176a16.231 16.231 0 0 0-5.888 5.888c-1.451 2.475-2.176 5.248-2.176 8.32v30.336c0 3.072.725 5.845 2.176 8.32a16.231 16.231 0 0 0 5.888 5.888c2.475 1.451 5.248 2.176 8.32 2.176ZM565.898 236v-73.216l-17.28 10.624v-19.2l17.28-10.368h17.792V236h-17.792ZM727.775 235.872v-15.104l38.656-34.304c2.901-2.56 4.949-4.971 6.144-7.232 1.195-2.261 1.792-4.373 1.792-6.336 0-2.816-.576-5.312-1.728-7.488-1.152-2.219-2.773-3.947-4.864-5.184-2.091-1.28-4.544-1.92-7.36-1.92-2.944 0-5.547.683-7.808 2.048-2.219 1.323-3.947 3.093-5.184 5.312-1.237 2.176-1.813 4.544-1.728 7.104h-17.92c0-6.315 1.387-11.776 4.16-16.384 2.773-4.608 6.635-8.171 11.584-10.688 4.949-2.517 10.709-3.776 17.28-3.776 6.016 0 11.392 1.323 16.128 3.968 4.779 2.603 8.533 6.251 11.264 10.944 2.731 4.693 4.096 10.133 4.096 16.32 0 4.565-.64 8.363-1.92 11.392-1.28 2.987-3.179 5.76-5.696 8.32-2.517 2.517-5.611 5.376-9.28 8.576l-24.96 21.888-1.408-3.84h43.264v16.384h-64.512ZM948.028 237.664c-4.608 0-9.003-.917-13.184-2.752a33.331 33.331 0 0 1-10.944-7.872c-3.072-3.371-5.27-7.339-6.592-11.904l16.896-4.48c.896 3.371 2.645 5.995 5.248 7.872 2.645 1.835 5.504 2.752 8.576 2.752 2.645 0 5.056-.64 7.232-1.92 2.218-1.28 3.968-3.008 5.248-5.184 1.322-2.176 1.984-4.587 1.984-7.232 0-3.968-1.366-7.36-4.096-10.176-2.688-2.859-6.144-4.288-10.368-4.288-1.28 0-2.518.192-3.712.576a15.29 15.29 0 0 0-3.456 1.472l-7.808-13.696 29.312-24.32 1.28 3.712h-42.752V143.84h57.6v16.384l-22.784 22.016-.128-4.864c5.29.811 9.749 2.667 13.376 5.568 3.669 2.859 6.442 6.4 8.32 10.624 1.92 4.181 2.88 8.64 2.88 13.376 0 5.803-1.472 11.029-4.416 15.68-2.944 4.608-6.848 8.277-11.712 11.008-4.864 2.688-10.198 4.032-16 4.032ZM1147.09 236v-14.336h-40.06v-16.256l29.05-61.568h19.97l-29.06 61.568h20.1v-23.04h17.66v23.04h8.19v16.256h-8.19V236h-17.66ZM1328.66 237.92c-4.65 0-9.02-.96-13.12-2.88a31.534 31.534 0 0 1-10.49-8c-2.95-3.413-5.06-7.381-6.34-11.904l16.77-4.48c.56 2.176 1.54 4.053 2.94 5.632 1.46 1.579 3.12 2.816 5 3.712 1.92.853 3.88 1.28 5.88 1.28 2.65 0 5.06-.64 7.24-1.92a14.195 14.195 0 0 0 5.24-5.184c1.33-2.176 1.99-4.587 1.99-7.232 0-2.645-.66-5.056-1.99-7.232a14.195 14.195 0 0 0-5.24-5.184c-2.18-1.28-4.59-1.92-7.24-1.92-3.24 0-5.88.555-7.93 1.664-2.05 1.067-3.59 2.091-4.61 3.072l-14.72-4.48 2.82-49.024h50.3v16.256h-40.7l6.14-5.76-1.92 31.616-2.94-3.584c2.3-1.877 4.92-3.243 7.87-4.096 2.94-.853 5.69-1.28 8.25-1.28 5.81 0 10.91 1.301 15.3 3.904 4.44 2.56 7.89 6.101 10.37 10.624 2.52 4.48 3.77 9.621 3.77 15.424 0 5.803-1.51 11.051-4.54 15.744-3.03 4.651-7.02 8.363-11.97 11.136-4.95 2.731-10.32 4.096-16.13 4.096ZM1521.28 237.92c-6.11 0-11.59-1.429-16.45-4.288-4.82-2.859-8.64-6.827-11.46-11.904-2.81-5.12-4.22-11.029-4.22-17.728v-26.752c0-7.253 1.41-13.504 4.22-18.752 2.82-5.291 6.79-9.344 11.91-12.16 5.12-2.859 11.13-4.288 18.04-4.288 4.48 0 8.75.661 12.8 1.984 4.06 1.323 7.77 3.563 11.14 6.72l-12.42 12.416a16.547 16.547 0 0 0-5.31-3.584c-2-.853-4.07-1.28-6.21-1.28-3.32 0-6.23.789-8.7 2.368a16.301 16.301 0 0 0-5.7 6.08 16.613 16.613 0 0 0-1.98 7.936v13.696l-2.94-3.2a26.927 26.927 0 0 1 9.15-6.144c3.5-1.451 7.1-2.176 10.81-2.176 5.81 0 10.9 1.301 15.3 3.904 4.44 2.603 7.89 6.165 10.37 10.688 2.51 4.523 3.77 9.685 3.77 15.488 0 5.803-1.47 11.051-4.41 15.744-2.95 4.651-6.85 8.363-11.71 11.136-4.87 2.731-10.2 4.096-16 4.096Zm0-16.64c2.64 0 5.05-.64 7.23-1.92 2.22-1.28 3.97-3.008 5.25-5.184 1.32-2.176 1.98-4.587 1.98-7.232 0-2.645-.64-5.056-1.92-7.232-1.28-2.219-3.01-3.968-5.18-5.248-2.18-1.323-4.59-1.984-7.24-1.984-2.64 0-5.07.661-7.29 1.984-2.18 1.28-3.93 3.029-5.25 5.248-1.28 2.176-1.92 4.587-1.92 7.232 0 2.56.64 4.928 1.92 7.104a14.935 14.935 0 0 0 5.18 5.248c2.18 1.323 4.59 1.984 7.24 1.984ZM1688.76 236l30.97-75.776h-39.42V143.84h58.11v16.384L1707.57 236h-18.81ZM1899.93 237.92c-6.23 0-11.77-1.259-16.64-3.776-4.82-2.56-8.62-6.059-11.39-10.496-2.73-4.48-4.09-9.579-4.09-15.296 0-4.864 1.08-9.451 3.26-13.76 2.22-4.309 5.4-7.829 9.54-10.56l-.39 5.376c-3.11-3.029-5.57-6.229-7.36-9.6-1.75-3.371-2.62-7.168-2.62-11.392 0-5.333 1.26-9.984 3.77-13.952 2.56-3.968 6.06-7.04 10.5-9.216 4.48-2.219 9.62-3.328 15.42-3.328 5.81 0 10.93 1.109 15.36 3.328 4.48 2.176 7.98 5.248 10.5 9.216 2.56 3.968 3.84 8.619 3.84 13.952 0 4.224-.83 8.021-2.5 11.392-1.66 3.328-4.2 6.571-7.61 9.728v-5.376c4.05 2.56 7.17 6.016 9.34 10.368 2.22 4.352 3.33 8.96 3.33 13.824 0 5.717-1.39 10.816-4.16 15.296-2.77 4.437-6.59 7.936-11.46 10.496-4.86 2.517-10.41 3.776-16.64 3.776Zm0-16.384c4.1 0 7.43-1.109 9.99-3.328 2.56-2.219 3.84-5.504 3.84-9.856 0-4.309-1.28-7.595-3.84-9.856-2.56-2.304-5.89-3.456-9.99-3.456-4.09 0-7.4 1.152-9.92 3.456-2.51 2.261-3.77 5.547-3.77 9.856 0 4.352 1.26 7.637 3.77 9.856 2.52 2.219 5.83 3.328 9.92 3.328Zm0-43.008c3.33 0 6.04-.811 8.13-2.432 2.09-1.664 3.14-4.224 3.14-7.68 0-3.456-1.05-6.016-3.14-7.68-2.09-1.707-4.8-2.56-8.13-2.56-3.32 0-6.03.853-8.12 2.56-2.1 1.664-3.14 4.224-3.14 7.68 0 3.456 1.04 6.016 3.14 7.68 2.09 1.621 4.8 2.432 8.12 2.432ZM2088.72 142.048c6.1 0 11.56 1.429 16.38 4.288 4.86 2.859 8.7 6.848 11.52 11.968 2.82 5.077 4.22 10.965 4.22 17.664v26.752c0 7.253-1.4 13.525-4.22 18.816-2.82 5.248-6.78 9.301-11.9 12.16-5.12 2.816-11.14 4.224-18.05 4.224-4.48 0-8.75-.661-12.8-1.984-4.01-1.365-7.73-3.605-11.14-6.72l12.42-12.416a16.547 16.547 0 0 0 5.31 3.584c2.05.853 4.12 1.28 6.21 1.28 3.33 0 6.21-.768 8.64-2.304 2.47-1.579 4.37-3.605 5.69-6.08 1.37-2.517 2.05-5.184 2.05-8v-13.696l2.95 3.2a27.08 27.08 0 0 1-9.16 6.208c-3.5 1.408-7.1 2.112-10.81 2.112-5.81 0-10.93-1.301-15.36-3.904-4.4-2.603-7.85-6.165-10.37-10.688-2.48-4.523-3.71-9.685-3.71-15.488 0-5.803 1.47-11.029 4.41-15.68 2.95-4.693 6.85-8.405 11.72-11.136 4.86-2.773 10.19-4.16 16-4.16Zm0 16.64c-2.65 0-5.08.64-7.3 1.92a14.845 14.845 0 0 0-5.25 5.184c-1.28 2.176-1.92 4.587-1.92 7.232 0 2.645.64 5.077 1.92 7.296a14.88 14.88 0 0 0 5.19 5.248c2.17 1.28 4.58 1.92 7.23 1.92 2.64 0 5.05-.64 7.23-1.92 2.22-1.323 3.97-3.072 5.25-5.248 1.32-2.219 1.98-4.651 1.98-7.296 0-2.56-.64-4.928-1.92-7.104a14.935 14.935 0 0 0-5.18-5.248c-2.18-1.323-4.59-1.984-7.23-1.984ZM2238.28 236l30.98-46.592-30.08-45.568h21.37l19.59 30.72 19.32-30.72h21.51l-30.08 45.568L2321.74 236h-21.38l-20.22-31.744L2259.78 236h-21.5ZM2465.48 237.92c-7.34 0-13.4-1.877-18.18-5.632-4.74-3.755-8.11-8.832-10.11-15.232l17.15-4.096c.38 2.347 1.62 4.395 3.71 6.144 2.09 1.707 4.31 2.56 6.66 2.56 1.62 0 3.35-.448 5.18-1.344 1.88-.896 3.22-2.325 4.03-4.288.52-1.237.81-2.752.9-4.544.08-1.792.13-3.861.13-6.208v-61.44h17.66v61.44c0 2.944-.02 5.504-.06 7.68 0 2.176-.22 4.224-.64 6.144-.39 1.877-1.18 3.84-2.37 5.888-2.6 4.523-6 7.808-10.18 9.856s-8.81 3.072-13.88 3.072ZM2692.52 237.92l-26.88-26.752 10.76-10.752 26.75 26.752-10.63 10.752Zm-32.51 0c-9.21 0-17.17-2.005-23.87-6.016-6.66-4.011-11.8-9.621-15.42-16.832-3.59-7.211-5.38-15.595-5.38-25.152s1.79-17.941 5.38-25.152c3.62-7.211 8.76-12.821 15.42-16.832 6.7-4.011 14.66-6.016 23.87-6.016 9.22 0 17.15 2.005 23.81 6.016 6.7 4.011 11.84 9.621 15.42 16.832 3.63 7.211 5.44 15.595 5.44 25.152s-1.81 17.941-5.44 25.152c-3.58 7.211-8.72 12.821-15.42 16.832-6.66 4.011-14.59 6.016-23.81 6.016Zm0-16.384c5.85.085 10.71-1.173 14.59-3.776 3.89-2.603 6.79-6.293 8.71-11.072 1.96-4.779 2.94-10.368 2.94-16.768s-.98-11.947-2.94-16.64c-1.92-4.693-4.82-8.341-8.71-10.944-3.88-2.603-8.74-3.947-14.59-4.032-5.84-.085-10.71 1.173-14.59 3.776-3.88 2.603-6.81 6.293-8.77 11.072-1.92 4.779-2.88 10.368-2.88 16.768s.96 11.947 2.88 16.64c1.96 4.693 4.89 8.341 8.77 10.944 3.88 2.603 8.75 3.947 14.59 4.032ZM2816.4 236v-92.16h17.41v42.496l35.07-42.496h21.25l-38.53 45.44 40.96 46.72h-22.02l-36.73-41.984V236h-17.41ZM2998.87 236l28.16-92.16h25.99l28.16 92.16h-17.92l-25.09-81.28h3.33L3016.79 236h-17.92Zm16.9-19.2v-16.256h48.64V216.8h-48.64Z"/><rect width="195" height="60" x="99.844" y="237.73" fill="#292929" rx="30" transform="rotate(-45 99.844 237.73)"/><path fill="#fff" d="m150.232 254.521-24.437-24.438 9.775-9.775c1.742-1.742 3.501-2.8 5.278-3.173 1.764-.385 3.422-.3 4.972.254 1.55.555 2.862 1.369 3.937 2.444 1.369 1.369 2.195 2.817 2.478 4.345.294 1.516.056 2.964-.713 4.344l-.848-.848c1.844-1.211 3.693-1.647 5.549-1.307 1.867.328 3.479 1.171 4.836 2.529 1.46 1.459 2.473 3.015 3.038 4.666.577 1.641.634 3.327.17 5.058-.475 1.719-1.544 3.411-3.208 5.074l-10.827 10.827Zm.34-9.028 5.668-5.668c.622-.623 1.046-1.307 1.273-2.054.215-.758.22-1.51.017-2.257-.204-.769-.634-1.482-1.29-2.138-.577-.577-1.211-.973-1.901-1.188-.69-.215-1.408-.209-2.155.017-.747.203-1.477.662-2.189 1.374l-5.668 5.669 6.245 6.245Zm-10.556-10.556 5.023-5.023c.521-.521.894-1.075 1.12-1.663a3.052 3.052 0 0 0 .136-1.799c-.147-.622-.52-1.233-1.12-1.833-.747-.747-1.607-1.143-2.579-1.188-.973-.045-1.901.373-2.784 1.256l-5.023 5.023 5.227 5.227Zm31.827-2.027-16.97-31.905 6.89-6.89 31.904 16.971-4.751 4.752-28.205-14.9.882-.883 15.002 28.103-4.752 4.752Zm-.611-9.571-4.31-4.311 12.897-12.897 4.311 4.31-12.898 12.898Zm36.252-25.052c-1.81 1.81-3.761 3.128-5.855 3.954-2.093.804-4.203 1.081-6.33.832-2.127-.272-4.14-1.109-6.041-2.512l4.107-5.532c1.742 1.063 3.524 1.442 5.346 1.137 1.821-.306 3.411-1.137 4.768-2.495a9.802 9.802 0 0 0 1.85-2.562c.475-.951.707-1.884.696-2.8 0-.928-.34-1.731-1.018-2.41a3.021 3.021 0 0 0-.832-.594 2.541 2.541 0 0 0-1.018-.306c-.374-.034-.809.017-1.307.153-.486.124-1.041.351-1.663.679l-8.214 4.48c-.611.339-1.357.702-2.24 1.086-.871.374-1.833.622-2.885.747-1.052.124-2.155.006-3.309-.356-1.154-.385-2.314-1.16-3.479-2.325-1.641-1.641-2.591-3.417-2.851-5.329-.26-1.912.034-3.824.882-5.736.849-1.912 2.116-3.7 3.802-5.363 1.708-1.663 3.501-2.879 5.379-3.649 1.878-.769 3.796-1.069 5.753-.899 1.946.158 3.881.803 5.804 1.935l-4.14 5.837c-.973-.61-1.975-.944-3.004-1.001a6.782 6.782 0 0 0-2.987.509 8.233 8.233 0 0 0-2.563 1.646 7.975 7.975 0 0 0-1.748 2.359c-.418.849-.622 1.686-.611 2.512.023.815.323 1.51.9 2.087.532.532 1.131.804 1.799.815.656 0 1.335-.147 2.036-.441a17.122 17.122 0 0 0 2.037-1.018l5.396-3.089a34.96 34.96 0 0 1 2.784-1.426 12.68 12.68 0 0 1 3.36-1.052c1.199-.226 2.426-.164 3.682.187 1.267.339 2.518 1.126 3.751 2.359 1.312 1.312 2.183 2.738 2.613 4.276.43 1.516.504 3.061.221 4.633-.294 1.562-.871 3.089-1.731 4.582a19.392 19.392 0 0 1-3.14 4.09Zm15.067-16.084-24.438-24.438 4.616-4.616 24.438 24.438-4.616 4.616Zm22.397-21.38c-2.443 2.444-5.085 4.022-7.925 4.735-2.828.701-5.679.577-8.553-.373-2.862-.962-5.561-2.71-8.095-5.244-2.534-2.535-4.282-5.233-5.244-8.095-.95-2.874-1.075-5.725-.373-8.553.713-2.84 2.291-5.482 4.735-7.926 2.805-2.805 5.854-4.463 9.147-4.972 3.303-.521 6.533.017 9.69 1.612l-3.36 5.94c-1.935-1.03-3.847-1.414-5.736-1.154-1.901.249-3.7 1.222-5.397 2.919-1.55 1.55-2.5 3.19-2.851 4.921-.339 1.72-.141 3.468.594 5.244.735 1.776 1.952 3.513 3.649 5.21s3.433 2.913 5.21 3.649c1.776.735 3.524.933 5.243.594 1.731-.351 3.372-1.301 4.922-2.851 1.697-1.697 2.67-3.496 2.919-5.397.249-1.901-.136-3.813-1.154-5.736l5.94-3.36c1.595 3.156 2.132 6.386 1.612 9.69-.509 3.292-2.167 6.341-4.973 9.147Z"/><defs><radialGradient id="a" cx="0" cy="0" r="1" gradientTransform="rotate(-179.751 94.445 225.128) scale(82.7199 135.727)" gradientUnits="userSpaceOnUse"><stop offset=".314" stop-color="#FE4F02"/><stop offset=".662" stop-color="#FF2500"/><stop offset=".972" stop-color="#F33762"/></radialGradient><radialGradient id="b" cx="0" cy="0" r="1" gradientTransform="matrix(-.87416 86.54589 -65.13228 -.65787 192.554 368.35)" gradientUnits="userSpaceOnUse"><stop offset=".214" stop-color="#FFCA76"/><stop offset=".328" stop-color="#FFCD7D"/><stop offset=".487" stop-color="#FFD48F"/><stop offset=".672" stop-color="#FFE0AD"/><stop offset=".793" stop-color="#FFE8C4"/><stop offset=".822" stop-color="#FFE6BD" stop-opacity=".804"/><stop offset=".863" stop-color="#FFDFAB" stop-opacity=".529"/><stop offset=".91" stop-color="#FFD38D" stop-opacity=".209"/><stop offset=".941" stop-color="#FFCA76" stop-opacity="0"/><stop offset="1" stop-color="#FFCA76" stop-opacity="0"/></radialGradient></defs></svg>