<svg width="1024" height="101" viewBox="0 0 1024 101" fill="none" xmlns="http://www.w3.org/2000/svg">
<path fill-rule="evenodd" clip-rule="evenodd" d="M50 100.25C77.6142 100.25 100 77.8642 100 50.25C100 22.6358 77.6142 0.25 50 0.25C22.3858 0.25 0 22.6358 0 50.25C0 77.8642 22.3858 100.25 50 100.25ZM74.7546 33.4197C76.5052 30.7938 75.7956 27.246 73.1697 25.4954C70.5438 23.7448 66.996 24.4544 65.2454 27.0803L43.3333 59.9484L34.7546 47.0803C33.004 44.4544 29.4562 43.7448 26.8303 45.4954C24.2044 47.246 23.4948 50.7938 25.2454 53.4197L38.5788 73.4197C39.6386 75.0094 41.4227 75.9643 43.3333 75.9643C45.2439 75.9643 47.0281 75.0094 48.0879 73.4197L74.7546 33.4197Z" fill="#7CB342"/>
<path d="M115 32.5L150.5 68M150.5 32.5L115 68" stroke="#858585" stroke-width="11"/>
<path d="M195.25 83.125C191.958 83.1042 188.781 82.5521 185.719 81.4688C182.677 80.3854 179.948 78.625 177.531 76.1875C175.115 73.75 173.198 70.5208 171.781 66.5C170.385 62.4792 169.688 57.5417 169.688 51.6875C169.708 46.3125 170.323 41.5104 171.531 37.2812C172.76 33.0312 174.51 29.4271 176.781 26.4687C179.073 23.5104 181.813 21.2604 185 19.7187C188.188 18.1562 191.76 17.375 195.719 17.375C199.99 17.375 203.76 18.2083 207.031 19.875C210.302 21.5208 212.927 23.7604 214.906 26.5938C216.906 29.4271 218.115 32.6042 218.531 36.125H205.188C204.667 33.8958 203.573 32.1458 201.906 30.875C200.24 29.6042 198.177 28.9688 195.719 28.9688C191.552 28.9688 188.385 30.7812 186.219 34.4062C184.073 38.0312 182.979 42.9583 182.938 49.1875H183.375C184.333 47.2917 185.625 45.6771 187.25 44.3437C188.896 42.9896 190.76 41.9583 192.844 41.25C194.948 40.5208 197.167 40.1562 199.5 40.1562C203.292 40.1562 206.667 41.0521 209.625 42.8437C212.583 44.6146 214.917 47.0521 216.625 50.1562C218.333 53.2604 219.188 56.8125 219.188 60.8125C219.188 65.1458 218.177 69 216.156 72.375C214.156 75.75 211.354 78.3958 207.75 80.3125C204.167 82.2083 200 83.1458 195.25 83.125ZM195.188 72.5C197.271 72.5 199.135 72 200.781 71C202.427 70 203.719 68.6458 204.656 66.9375C205.594 65.2292 206.062 63.3125 206.062 61.1875C206.062 59.0625 205.594 57.1562 204.656 55.4687C203.74 53.7812 202.469 52.4375 200.844 51.4375C199.219 50.4375 197.365 49.9375 195.281 49.9375C193.719 49.9375 192.271 50.2292 190.938 50.8125C189.625 51.3958 188.469 52.2083 187.469 53.25C186.49 54.2917 185.719 55.5 185.156 56.875C184.594 58.2292 184.313 59.6771 184.313 61.2187C184.313 63.2812 184.781 65.1667 185.719 66.875C186.677 68.5833 187.969 69.9479 189.594 70.9687C191.24 71.9896 193.104 72.5 195.188 72.5ZM252.115 83.6562C246.74 83.6354 242.115 82.3125 238.24 79.6875C234.386 77.0625 231.417 73.2604 229.334 68.2812C227.271 63.3021 226.25 57.3125 226.271 50.3125C226.271 43.3333 227.303 37.3854 229.365 32.4687C231.448 27.5521 234.417 23.8125 238.271 21.25C242.146 18.6667 246.761 17.375 252.115 17.375C257.469 17.375 262.073 18.6667 265.928 21.25C269.803 23.8333 272.782 27.5833 274.865 32.5C276.948 37.3958 277.98 43.3333 277.959 50.3125C277.959 57.3333 276.917 63.3333 274.834 68.3125C272.771 73.2917 269.813 77.0937 265.959 79.7187C262.105 82.3437 257.49 83.6562 252.115 83.6562ZM252.115 72.4375C255.782 72.4375 258.709 70.5937 260.896 66.9062C263.084 63.2187 264.167 57.6875 264.146 50.3125C264.146 45.4583 263.646 41.4167 262.646 38.1875C261.667 34.9583 260.271 32.5312 258.459 30.9062C256.667 29.2812 254.553 28.4688 252.115 28.4688C248.469 28.4688 245.553 30.2917 243.365 33.9375C241.178 37.5833 240.073 43.0417 240.053 50.3125C240.053 55.2292 240.542 59.3333 241.521 62.625C242.521 65.8958 243.928 68.3542 245.74 70C247.553 71.625 249.678 72.4375 252.115 72.4375Z" fill="black"/>
<path d="M314.5 50.25H339.5M339.5 50.25H364.5M339.5 50.25V25.25M339.5 50.25V75.25" stroke="#A5A5A5" stroke-width="11"/>
<path fill-rule="evenodd" clip-rule="evenodd" d="M446.5 88.8214C467.802 88.8214 485.071 71.5524 485.071 50.25C485.071 28.9476 467.802 11.6786 446.5 11.6786C425.198 11.6786 407.929 28.9476 407.929 50.25C407.929 71.5524 425.198 88.8214 446.5 88.8214ZM446.5 100.25C474.114 100.25 496.5 77.8642 496.5 50.25C496.5 22.6358 474.114 0.25 446.5 0.25C418.886 0.25 396.5 22.6358 396.5 50.25C396.5 77.8642 418.886 100.25 446.5 100.25Z" fill="#F44336"/>
<path fill-rule="evenodd" clip-rule="evenodd" d="M428.174 30.4951C430.405 28.2635 434.023 28.2635 436.255 30.4951L447.214 41.4545L458.174 30.4951C460.405 28.2635 464.023 28.2635 466.255 30.4951C468.486 32.7267 468.486 36.3448 466.255 38.5763L455.296 49.5357L466.255 60.4951C468.486 62.7267 468.486 66.3448 466.255 68.5763C464.023 70.8079 460.405 70.8079 458.174 68.5763L447.214 57.6169L436.255 68.5763C434.023 70.8079 430.405 70.8079 428.174 68.5763C425.942 66.3448 425.942 62.7267 428.174 60.4951L439.133 49.5357L428.174 38.5763C425.942 36.3448 425.942 32.7267 428.174 30.4951Z" fill="#F44336"/>
<path d="M511.5 32.5L547 68M547 32.5L511.5 68" stroke="#858585" stroke-width="11"/>
<path d="M591.75 83.125C588.458 83.1042 585.281 82.5521 582.219 81.4688C579.177 80.3854 576.448 78.625 574.031 76.1875C571.615 73.75 569.698 70.5208 568.281 66.5C566.885 62.4792 566.188 57.5417 566.188 51.6875C566.208 46.3125 566.823 41.5104 568.031 37.2812C569.26 33.0312 571.01 29.4271 573.281 26.4687C575.573 23.5104 578.313 21.2604 581.5 19.7187C584.688 18.1562 588.26 17.375 592.219 17.375C596.49 17.375 600.26 18.2083 603.531 19.875C606.802 21.5208 609.427 23.7604 611.406 26.5938C613.406 29.4271 614.615 32.6042 615.031 36.125H601.688C601.167 33.8958 600.073 32.1458 598.406 30.875C596.74 29.6042 594.677 28.9688 592.219 28.9688C588.052 28.9688 584.885 30.7812 582.719 34.4062C580.573 38.0312 579.479 42.9583 579.438 49.1875H579.875C580.833 47.2917 582.125 45.6771 583.75 44.3437C585.396 42.9896 587.26 41.9583 589.344 41.25C591.448 40.5208 593.667 40.1562 596 40.1562C599.792 40.1562 603.167 41.0521 606.125 42.8437C609.083 44.6146 611.417 47.0521 613.125 50.1562C614.833 53.2604 615.688 56.8125 615.688 60.8125C615.688 65.1458 614.677 69 612.656 72.375C610.656 75.75 607.854 78.3958 604.25 80.3125C600.667 82.2083 596.5 83.1458 591.75 83.125ZM591.688 72.5C593.771 72.5 595.635 72 597.281 71C598.927 70 600.219 68.6458 601.156 66.9375C602.094 65.2292 602.562 63.3125 602.562 61.1875C602.562 59.0625 602.094 57.1562 601.156 55.4687C600.24 53.7812 598.969 52.4375 597.344 51.4375C595.719 50.4375 593.865 49.9375 591.781 49.9375C590.219 49.9375 588.771 50.2292 587.438 50.8125C586.125 51.3958 584.969 52.2083 583.969 53.25C582.99 54.2917 582.219 55.5 581.656 56.875C581.094 58.2292 580.813 59.6771 580.813 61.2187C580.813 63.2812 581.281 65.1667 582.219 66.875C583.177 68.5833 584.469 69.9479 586.094 70.9687C587.74 71.9896 589.604 72.5 591.688 72.5ZM648.615 83.6562C643.24 83.6354 638.615 82.3125 634.74 79.6875C630.886 77.0625 627.917 73.2604 625.834 68.2812C623.771 63.3021 622.75 57.3125 622.771 50.3125C622.771 43.3333 623.803 37.3854 625.865 32.4687C627.948 27.5521 630.917 23.8125 634.771 21.25C638.646 18.6667 643.261 17.375 648.615 17.375C653.969 17.375 658.573 18.6667 662.428 21.25C666.303 23.8333 669.282 27.5833 671.365 32.5C673.448 37.3958 674.48 43.3333 674.459 50.3125C674.459 57.3333 673.417 63.3333 671.334 68.3125C669.271 73.2917 666.313 77.0937 662.459 79.7187C658.605 82.3437 653.99 83.6562 648.615 83.6562ZM648.615 72.4375C652.282 72.4375 655.209 70.5937 657.396 66.9062C659.584 63.2187 660.667 57.6875 660.646 50.3125C660.646 45.4583 660.146 41.4167 659.146 38.1875C658.167 34.9583 656.771 32.5312 654.959 30.9062C653.167 29.2812 651.053 28.4688 648.615 28.4688C644.969 28.4688 642.053 30.2917 639.865 33.9375C637.678 37.5833 636.573 43.0417 636.553 50.3125C636.553 55.2292 637.042 59.3333 638.021 62.625C639.021 65.8958 640.428 68.3542 642.24 70C644.053 71.625 646.178 72.4375 648.615 72.4375Z" fill="black"/>
<path d="M711 50.25H736M736 50.25H761M736 50.25V25.25M736 50.25V75.25" stroke="#A5A5A5" stroke-width="11"/>
<path fill-rule="evenodd" clip-rule="evenodd" d="M813.714 25.9642C810.991 25.9642 808.524 26.8992 806.826 28.3543C805.156 29.7861 804.429 31.5219 804.429 33.1071C804.429 36.263 801.87 38.8214 798.714 38.8214C795.558 38.8214 793 36.263 793 33.1071C793 27.8724 795.433 23.0676 799.389 19.6771C803.317 16.3099 808.481 14.5356 813.714 14.5356H818C823.234 14.5356 828.397 16.3099 832.325 19.6771C836.24 23.0323 838.663 27.7723 838.713 32.9433C838.904 36.9082 837.819 40.8315 835.616 44.1367C833.45 47.385 830.318 49.8657 826.667 51.2306C825.461 51.8558 824.138 53.121 823.107 55.1827C822.026 57.3437 821.446 60.0486 821.566 62.8642C821.7 66.0173 819.253 68.6821 816.1 68.8162C812.947 68.9503 810.282 66.503 810.148 63.3499C809.952 58.7455 810.873 54.0945 812.885 50.0717C814.892 46.0571 817.999 42.6678 822.003 40.7904C822.176 40.7093 822.353 40.6369 822.533 40.5735C823.994 40.0599 825.248 39.0855 826.107 37.7973C826.966 36.509 827.383 34.9765 827.295 33.4306C827.289 33.3229 827.286 33.215 827.286 33.1071C827.286 31.5219 826.558 29.7861 824.888 28.3543C823.19 26.8992 820.723 25.9642 818 25.9642H813.714ZM815.857 74.5356C819.013 74.5356 821.571 77.094 821.571 80.2499V80.2928C821.571 83.4487 819.013 86.0071 815.857 86.0071C812.701 86.0071 810.143 83.4487 810.143 80.2928V80.2499C810.143 77.094 812.701 74.5356 815.857 74.5356Z" fill="#1D89F3"/>
<path d="M853.715 32.5L889.215 68M889.215 32.5L853.715 68" stroke="#858585" stroke-width="11"/>
<path d="M908.434 71V60.3437L935.152 18.25L944.34 18.25V33H938.902L922.059 59.6563V60.1562H960.027V71H908.434ZM939.152 82.25V67.75L939.402 63.0312V18.25L952.09 18.25V82.25H939.152ZM992.377 83.6562C987.002 83.6354 982.377 82.3125 978.502 79.6875C974.648 77.0625 971.679 73.2604 969.595 68.2812C967.533 63.3021 966.512 57.3125 966.533 50.3125C966.533 43.3333 967.564 37.3854 969.627 32.4687C971.71 27.5521 974.679 23.8125 978.533 21.25C982.408 18.6667 987.023 17.375 992.377 17.375C997.731 17.375 1002.34 18.6667 1006.19 21.25C1010.06 23.8333 1013.04 27.5833 1015.13 32.5C1017.21 37.3958 1018.24 43.3333 1018.22 50.3125C1018.22 57.3333 1017.18 63.3333 1015.1 68.3125C1013.03 73.2917 1010.07 77.0937 1006.22 79.7187C1002.37 82.3437 997.752 83.6562 992.377 83.6562ZM992.377 72.4375C996.043 72.4375 998.97 70.5937 1001.16 66.9062C1003.35 63.2187 1004.43 57.6875 1004.41 50.3125C1004.41 45.4583 1003.91 41.4167 1002.91 38.1875C1001.93 34.9583 1000.53 32.5312 998.72 30.9062C996.929 29.2812 994.814 28.4688 992.377 28.4688C988.731 28.4688 985.814 30.2917 983.627 33.9375C981.439 37.5833 980.335 43.0417 980.314 50.3125C980.314 55.2292 980.804 59.3333 981.783 62.625C982.783 65.8958 984.189 68.3542 986.002 70C987.814 71.625 989.939 72.4375 992.377 72.4375Z" fill="black"/>
</svg>
