<svg width="200" height="200" viewBox="0 0 200 200" fill="none" xmlns="http://www.w3.org/2000/svg">
<path d="M28.7154 119V80.4545H44.1486C46.9843 80.4545 49.3495 80.8749 51.2441 81.7156C53.1388 82.5562 54.5629 83.7231 55.5165 85.2163C56.4701 86.6969 56.9469 88.4033 56.9469 90.3356C56.9469 91.8413 56.6458 93.165 56.0435 94.3068C55.4412 95.4361 54.6131 96.3646 53.5591 97.0923C52.5177 97.8075 51.3257 98.3157 49.9831 98.6168V98.9933C51.4512 99.056 52.8251 99.4701 54.1049 100.235C55.3973 101.001 56.445 102.074 57.248 103.454C58.0511 104.821 58.4526 106.453 58.4526 108.347C58.4526 110.393 57.9444 112.218 56.9281 113.824C55.9243 115.418 54.4374 116.679 52.4675 117.607C50.4976 118.536 48.0697 119 45.1838 119H28.7154ZM36.8649 112.337H43.5087C45.7798 112.337 47.436 111.904 48.4775 111.039C49.5189 110.16 50.0396 108.993 50.0396 107.538C50.0396 106.471 49.7824 105.53 49.2679 104.715C48.7535 103.899 48.0195 103.259 47.0659 102.795C46.1248 102.331 45.0018 102.099 43.6969 102.099H36.8649V112.337ZM36.8649 96.5842H42.9064C44.0231 96.5842 45.0144 96.3897 45.8801 96.0007C46.7585 95.5992 47.4486 95.0346 47.9505 94.3068C48.4649 93.5791 48.7221 92.707 48.7221 91.6907C48.7221 90.2979 48.2265 89.175 47.2353 88.3217C46.2566 87.4685 44.8638 87.0419 43.057 87.0419H36.8649V96.5842ZM70.3992 119H61.6663L74.9727 80.4545H85.4749L98.7625 119H90.0296L80.3744 89.2628H80.0732L70.3992 119ZM69.8534 103.849H90.4813V110.211H69.8534V103.849ZM135.6 93.9492H127.356C127.206 92.8827 126.898 91.9354 126.434 91.1072C125.97 90.2666 125.374 89.5514 124.646 88.9616C123.918 88.3719 123.078 87.9202 122.124 87.6065C121.183 87.2929 120.16 87.136 119.056 87.136C117.061 87.136 115.323 87.6316 113.843 88.6229C112.362 89.6016 111.214 91.032 110.399 92.9141C109.583 94.7836 109.175 97.0547 109.175 99.7273C109.175 102.475 109.583 104.784 110.399 106.653C111.227 108.523 112.381 109.935 113.862 110.888C115.342 111.842 117.055 112.319 119 112.319C120.091 112.319 121.102 112.174 122.03 111.886C122.971 111.597 123.805 111.177 124.533 110.625C125.261 110.06 125.863 109.376 126.34 108.573C126.829 107.77 127.168 106.854 127.356 105.825L135.6 105.863C135.387 107.632 134.853 109.339 134 110.982C133.16 112.613 132.024 114.075 130.594 115.368C129.176 116.647 127.482 117.664 125.512 118.417C123.555 119.157 121.34 119.527 118.868 119.527C115.43 119.527 112.356 118.749 109.646 117.193C106.948 115.637 104.815 113.385 103.247 110.436C101.691 107.488 100.913 103.918 100.913 99.7273C100.913 95.5239 101.703 91.9479 103.284 88.9993C104.865 86.0507 107.011 83.8047 109.721 82.2614C112.431 80.7055 115.48 79.9276 118.868 79.9276C121.102 79.9276 123.172 80.2412 125.079 80.8686C126.999 81.496 128.699 82.4119 130.18 83.6165C131.66 84.8085 132.865 86.2702 133.793 88.0018C134.734 89.7333 135.336 91.7158 135.6 93.9492ZM141.444 119V80.4545H149.593V97.4499H150.102L163.973 80.4545H173.741L159.437 97.7134L173.91 119H164.161L153.602 103.153L149.593 108.046V119H141.444Z" fill="#333333"/>
</svg>
