<svg width="200" height="200" viewBox="0 0 200 200" fill="none" xmlns="http://www.w3.org/2000/svg">
<rect width="200" height="200" fill="white"/>
<path d="M44.3509 93.9492H36.1073C35.9568 92.8827 35.6494 91.9354 35.1851 91.1072C34.7209 90.2666 34.1249 89.5514 33.3971 88.9616C32.6694 88.3719 31.8287 87.9202 30.8751 87.6065C29.934 87.2929 28.9114 87.136 27.8073 87.136C25.8122 87.136 24.0744 87.6316 22.5938 88.6229C21.1133 89.6016 19.9652 91.032 19.1496 92.9141C18.334 94.7836 17.9262 97.0547 17.9262 99.7273C17.9262 102.475 18.334 104.784 19.1496 106.653C19.9777 108.523 21.1321 109.935 22.6127 110.888C24.0932 111.842 25.806 112.319 27.7508 112.319C28.8424 112.319 29.8525 112.174 30.781 111.886C31.722 111.597 32.5564 111.177 33.2842 110.625C34.0119 110.06 34.6142 109.376 35.091 108.573C35.5803 107.77 35.9191 106.854 36.1073 105.825L44.3509 105.863C44.1376 107.632 43.6044 109.339 42.7512 110.982C41.9105 112.613 40.7749 114.075 39.3446 115.368C37.9267 116.647 36.2328 117.664 34.2629 118.417C32.3055 119.157 30.0909 119.527 27.6191 119.527C24.1811 119.527 21.107 118.749 18.3968 117.193C15.6991 115.637 13.566 113.385 11.9976 110.436C10.4417 107.488 9.6638 103.918 9.6638 99.7273C9.6638 95.5239 10.4543 91.9479 12.0352 88.9993C13.6162 86.0507 15.7618 83.8047 18.472 82.2614C21.1823 80.7055 24.2313 79.9276 27.6191 79.9276C29.8525 79.9276 31.9228 80.2412 33.83 80.8686C35.7497 81.496 37.4499 82.4119 38.9305 83.6165C40.4111 84.8085 41.6156 86.2702 42.5441 88.0018C43.4852 89.7333 44.0874 91.7158 44.3509 93.9492ZM85.616 99.7273C85.616 103.931 84.8193 107.507 83.2258 110.455C81.6448 113.404 79.4867 115.656 76.7513 117.212C74.0286 118.755 70.967 119.527 67.5667 119.527C64.1412 119.527 61.0671 118.749 58.3444 117.193C55.6216 115.637 53.4697 113.385 51.8888 110.436C50.3078 107.488 49.5173 103.918 49.5173 99.7273C49.5173 95.5239 50.3078 91.9479 51.8888 88.9993C53.4697 86.0507 55.6216 83.8047 58.3444 82.2614C61.0671 80.7055 64.1412 79.9276 67.5667 79.9276C70.967 79.9276 74.0286 80.7055 76.7513 82.2614C79.4867 83.8047 81.6448 86.0507 83.2258 88.9993C84.8193 91.9479 85.616 95.5239 85.616 99.7273ZM77.3536 99.7273C77.3536 97.0045 76.9458 94.7083 76.1302 92.8388C75.3272 90.9692 74.1917 89.5514 72.7236 88.5852C71.2556 87.6191 69.5366 87.136 67.5667 87.136C65.5967 87.136 63.8778 87.6191 62.4097 88.5852C60.9417 89.5514 59.7999 90.9692 58.9843 92.8388C58.1813 94.7083 57.7797 97.0045 57.7797 99.7273C57.7797 102.45 58.1813 104.746 58.9843 106.616C59.7999 108.485 60.9417 109.903 62.4097 110.869C63.8778 111.835 65.5967 112.319 67.5667 112.319C69.5366 112.319 71.2556 111.835 72.7236 110.869C74.1917 109.903 75.3272 108.485 76.1302 106.616C76.9458 104.746 77.3536 102.45 77.3536 99.7273ZM96.4428 80.4545L105.759 109.74H106.117L115.452 80.4545H124.486L111.199 119H100.696L87.3899 80.4545H96.4428ZM129.126 119V80.4545H155.099V87.1736H137.275V96.3583H153.762V103.077H137.275V112.281H155.174V119H129.126ZM161.578 119V80.4545H176.785C179.696 80.4545 182.18 80.9753 184.238 82.0167C186.309 83.0456 187.883 84.5073 188.962 86.402C190.054 88.2841 190.6 90.4987 190.6 93.0458C190.6 95.6055 190.048 97.8075 188.943 99.652C187.839 101.484 186.239 102.889 184.144 103.868C182.061 104.847 179.539 105.336 176.578 105.336H166.396V98.7862H175.261C176.816 98.7862 178.109 98.5729 179.138 98.1463C180.167 97.7197 180.932 97.0798 181.434 96.2266C181.948 95.3733 182.206 94.3131 182.206 93.0458C182.206 91.766 181.948 90.6869 181.434 89.8086C180.932 88.9303 180.16 88.2653 179.119 87.8136C178.09 87.3493 176.791 87.1172 175.223 87.1172H169.727V119H161.578ZM182.394 101.459L191.974 119H182.977L173.604 101.459H182.394Z" fill="#333333"/>
</svg>
