<svg width="200" height="200" viewBox="0 0 200 200" fill="none" xmlns="http://www.w3.org/2000/svg">
<rect width="200" height="200" fill="white"/>
<path d="M44.9626 80.4545V119H37.9236L21.154 94.7397H20.8717V119H12.7222V80.4545H19.8742L36.512 104.696H36.8508V80.4545H44.9626ZM87.117 99.7273C87.117 103.931 86.3203 107.507 84.7267 110.455C83.1458 113.404 80.9876 115.656 78.2523 117.212C75.5295 118.755 72.468 119.527 69.0676 119.527C65.6422 119.527 62.5681 118.749 59.8453 117.193C57.1226 115.637 54.9707 113.385 53.3897 110.436C51.8088 107.488 51.0183 103.918 51.0183 99.7273C51.0183 95.5239 51.8088 91.9479 53.3897 88.9993C54.9707 86.0507 57.1226 83.8047 59.8453 82.2614C62.5681 80.7055 65.6422 79.9276 69.0676 79.9276C72.468 79.9276 75.5295 80.7055 78.2523 82.2614C80.9876 83.8047 83.1458 86.0507 84.7267 88.9993C86.3203 91.9479 87.117 95.5239 87.117 99.7273ZM78.8546 99.7273C78.8546 97.0045 78.4468 94.7083 77.6312 92.8388C76.8282 90.9692 75.6926 89.5514 74.2246 88.5852C72.7566 87.6191 71.0376 87.136 69.0676 87.136C67.0977 87.136 65.3787 87.6191 63.9107 88.5852C62.4426 89.5514 61.3008 90.9692 60.4853 92.8388C59.6822 94.7083 59.2807 97.0045 59.2807 99.7273C59.2807 102.45 59.6822 104.746 60.4853 106.616C61.3008 108.485 62.4426 109.903 63.9107 110.869C65.3787 111.835 67.0977 112.319 69.0676 112.319C71.0376 112.319 72.7566 111.835 74.2246 110.869C75.6926 109.903 76.8282 108.485 77.6312 106.616C78.4468 104.746 78.8546 102.45 78.8546 99.7273ZM89.926 87.1736V80.4545H121.583V87.1736H109.782V119H101.727V87.1736H89.926ZM126.796 119V80.4545H152.769V87.1736H134.946V96.3583H151.433V103.077H134.946V112.281H152.845V119H126.796ZM180.159 91.5401C180.008 90.0219 179.362 88.8424 178.22 88.0018C177.078 87.1611 175.529 86.7408 173.571 86.7408C172.241 86.7408 171.118 86.929 170.202 87.3054C169.286 87.6693 168.584 88.1774 168.094 88.8299C167.618 89.4824 167.379 90.2227 167.379 91.0508C167.354 91.7409 167.498 92.3432 167.812 92.8576C168.138 93.372 168.584 93.8175 169.148 94.1939C169.713 94.5578 170.366 94.8777 171.106 95.1538C171.846 95.4173 172.637 95.6431 173.477 95.8313L176.94 96.6594C178.622 97.0359 180.165 97.5378 181.57 98.1651C182.976 98.7925 184.193 99.5642 185.222 100.48C186.25 101.396 187.047 102.475 187.612 103.717C188.189 104.96 188.484 106.384 188.496 107.99C188.484 110.349 187.882 112.394 186.69 114.125C185.51 115.844 183.804 117.181 181.57 118.134C179.349 119.075 176.671 119.546 173.534 119.546C170.422 119.546 167.712 119.069 165.403 118.115C163.107 117.162 161.313 115.75 160.02 113.881C158.74 111.999 158.069 109.671 158.006 106.898H165.892C165.98 108.19 166.35 109.27 167.003 110.135C167.668 110.989 168.552 111.635 169.657 112.074C170.773 112.5 172.034 112.714 173.44 112.714C174.82 112.714 176.018 112.513 177.034 112.112C178.063 111.71 178.86 111.152 179.425 110.436C179.989 109.721 180.272 108.899 180.272 107.971C180.272 107.105 180.014 106.377 179.5 105.788C178.998 105.198 178.258 104.696 177.279 104.282C176.313 103.868 175.127 103.491 173.722 103.153L169.525 102.099C166.275 101.308 163.709 100.072 161.827 98.391C159.945 96.7096 159.01 94.4448 159.023 91.5966C159.01 89.2628 159.631 87.2238 160.886 85.4798C162.153 83.7357 163.891 82.3743 166.099 81.3956C168.308 80.4169 170.817 79.9276 173.628 79.9276C176.489 79.9276 178.986 80.4169 181.119 81.3956C183.264 82.3743 184.933 83.7357 186.125 85.4798C187.317 87.2238 187.932 89.244 187.969 91.5401H180.159Z" fill="#333333"/>
</svg>
