<svg width="200" height="200" viewBox="0 0 200 200" fill="none" xmlns="http://www.w3.org/2000/svg">
<rect width="200" height="200" fill="white"/>
<path d="M47.8328 99.7273C47.8328 103.931 47.0361 107.507 45.4426 110.455C43.8616 113.404 41.7035 115.656 38.9681 117.212C36.2454 118.755 33.1838 119.527 29.7835 119.527C26.358 119.527 23.2839 118.749 20.5612 117.193C17.8384 115.637 15.6865 113.385 14.1056 110.436C12.5246 107.488 11.7341 103.918 11.7341 99.7273C11.7341 95.5239 12.5246 91.9479 14.1056 88.9993C15.6865 86.0507 17.8384 83.8047 20.5612 82.2614C23.2839 80.7055 26.358 79.9276 29.7835 79.9276C33.1838 79.9276 36.2454 80.7055 38.9681 82.2614C41.7035 83.8047 43.8616 86.0507 45.4426 88.9993C47.0361 91.9479 47.8328 95.5239 47.8328 99.7273ZM39.5704 99.7273C39.5704 97.0045 39.1626 94.7083 38.347 92.8388C37.544 90.9692 36.4085 89.5514 34.9404 88.5852C33.4724 87.6191 31.7534 87.136 29.7835 87.136C27.8135 87.136 26.0945 87.6191 24.6265 88.5852C23.1585 89.5514 22.0167 90.9692 21.2011 92.8388C20.3981 94.7083 19.9965 97.0045 19.9965 99.7273C19.9965 102.45 20.3981 104.746 21.2011 106.616C22.0167 108.485 23.1585 109.903 24.6265 110.869C26.0945 111.835 27.8135 112.319 29.7835 112.319C31.7534 112.319 33.4724 111.835 34.9404 110.869C36.4085 109.903 37.544 108.485 38.347 106.616C39.1626 104.746 39.5704 102.45 39.5704 99.7273ZM50.6419 87.1736V80.4545H82.2988V87.1736H70.498V119H62.4426V87.1736H50.6419ZM87.5123 119V80.4545H95.6618V96.3583H112.205V80.4545H120.336V119H112.205V103.077H95.6618V119H87.5123ZM127.055 119V80.4545H153.028V87.1736H135.205V96.3583H151.692V103.077H135.205V112.281H153.104V119H127.055ZM159.507 119V80.4545H174.715C177.626 80.4545 180.11 80.9753 182.168 82.0167C184.238 83.0456 185.813 84.5073 186.892 86.402C187.984 88.2841 188.529 90.4987 188.529 93.0458C188.529 95.6055 187.977 97.8075 186.873 99.652C185.769 101.484 184.169 102.889 182.074 103.868C179.991 104.847 177.469 105.336 174.508 105.336H164.326V98.7862H173.19C174.746 98.7862 176.039 98.5729 177.067 98.1463C178.096 97.7197 178.862 97.0798 179.364 96.2266C179.878 95.3733 180.135 94.3131 180.135 93.0458C180.135 91.766 179.878 90.6869 179.364 89.8086C178.862 88.9303 178.09 88.2653 177.049 87.8136C176.02 87.3493 174.721 87.1172 173.153 87.1172H167.657V119H159.507ZM180.323 101.459L189.903 119H180.907L171.534 101.459H180.323Z" fill="#333333"/>
</svg>
