<svg width="150" height="150" viewBox="0 0 150 150" fill="none" xmlns="http://www.w3.org/2000/svg">
  <path
    d="M110.145 10.5117C84.4688 10.5117 75.0352 36.75 75.0352 36.75C75.0352 36.75 65.7305 10.5117 39.879 10.5117C20.4493 10.5117 -1.69916 25.9102 6.48053 60.9141C14.6602 95.918 75.1055 139.523 75.1055 139.523C75.1055 139.523 135.328 95.918 143.52 60.9141C151.699 25.9102 131.145 10.5117 110.145 10.5117Z"
    fill="#1D89F3" />
  <path
    d="M35.918 13.125C56.0742 13.125 66.082 34.793 69.3164 43.5703C69.7734 44.8242 71.5195 44.8594 72.0469 43.6406L75 36.7383C70.8398 23.4492 59.4023 10.5117 39.8789 10.5117C31.793 10.5117 23.25 13.1836 16.6055 18.8203C22.4766 14.9648 29.3555 13.125 35.918 13.125Z"
    fill="#2463C5" />
  <path
    d="M110.145 10.5117C103.945 10.5117 98.6953 12.3164 94.2891 15.0234C97.3828 13.8281 100.805 13.125 104.602 13.125C123.598 13.125 140.602 27.5273 132.926 60.8203C126.34 89.4023 87.8555 124.078 76.1016 137.309C75.3516 138.152 75.0938 139.512 75.0938 139.512C75.0938 139.512 135.316 95.9062 143.508 60.9023C151.699 25.9102 129.574 10.5117 110.145 10.5117Z"
    fill="#2463C5" />
  <path
    d="M19.9705 29.086C24.365 23.6016 32.2165 19.0664 38.8728 24.293C42.4704 27.1172 40.9001 32.9063 37.6775 35.3438C32.99 38.9063 28.9119 41.0508 26.0525 46.6289C24.3415 49.9805 23.3103 53.6485 22.783 57.3868C22.572 58.8633 20.6384 59.2266 19.9119 57.9258C14.9665 49.1602 13.5603 37.0899 19.9705 29.086Z"
    fill="#61ACF7" />
  <path
    d="M90.4233 40.6172C88.3608 40.6172 86.9077 38.625 87.6577 36.7032C89.0522 33.1641 90.8569 29.7422 93.0249 26.6954C96.2358 22.1954 102.341 19.5704 106.208 22.3008C110.169 25.0899 109.654 30.668 106.876 33.3633C100.912 39.1407 93.3882 40.6172 90.4233 40.6172Z"
    fill="#61ACF7" />
  <path fill-rule="evenodd" clip-rule="evenodd"
    d="M56.8851 121.735L56.9167 121.749C62.001 123.987 67.664 125.044 73.8079 125.044C80.0911 125.044 85.8651 123.977 91.0277 121.715C96.1265 119.481 100.33 116.318 103.431 112.147C106.632 107.875 108.215 102.951 108.19 97.559C108.215 91.6862 106.358 86.4747 102.453 82.2988C101.221 80.9658 99.8396 79.8236 98.3267 78.8578C98.9143 78.3476 99.4788 77.8027 100.019 77.2226C103.652 73.35 105.381 68.5229 105.356 63.1082C105.382 58.1119 104.004 53.4969 101.213 49.4123C98.4754 45.3449 94.6893 42.2128 90.0443 39.9633C85.29 37.6609 79.9072 36.5923 74.0316 36.5923C68.1935 36.5923 62.7802 37.665 57.8869 39.92C53.0566 42.1326 49.0717 45.2786 46.0844 49.3936C43.0076 53.6321 41.4563 58.5201 41.3654 63.8797C41.3427 65.2203 41.8593 66.5138 42.7993 67.4699C43.7393 68.426 45.0239 68.9644 46.3647 68.9644L61.8388 68.9644C64.5254 68.9644 66.7318 66.8413 66.8351 64.1566C66.8732 63.1645 67.1464 62.48 67.5747 61.9154C68.095 61.2295 68.8223 60.6382 69.9082 60.1771C69.9259 60.1696 69.9436 60.162 69.9612 60.1542C71.0799 59.6638 72.3882 59.3817 73.957 59.3817C75.4841 59.3817 76.5701 59.6689 77.3612 60.0705L77.3886 60.0843C78.2492 60.5146 78.7869 61.0359 79.1597 61.6469C79.1771 61.6753 79.1947 61.7036 79.2126 61.7316C79.5603 62.2767 79.8075 62.9979 79.8075 64.0763C79.8075 65.1669 79.5438 65.9184 79.134 66.5198C78.6763 67.1674 77.969 67.7889 76.7998 68.3119L76.7772 68.3221C75.6728 68.8228 74.2484 69.1438 72.391 69.1438L65.2692 69.1438C62.5078 69.1438 60.2692 71.3824 60.2692 74.1438L60.2692 86.001C60.2692 88.7624 62.5078 91.001 65.2692 91.001L72.391 91.001C74.7729 91.001 76.5564 91.3723 77.8788 91.9391L77.8984 91.9474C79.3073 92.5441 80.1149 93.2502 80.6055 93.9479C80.6226 93.9723 80.64 93.9965 80.6575 94.0205C81.1427 94.685 81.4109 95.4424 81.4109 96.4786C81.4109 97.5526 81.1441 98.3194 80.699 98.9612C80.1933 99.6903 79.4474 100.348 78.2789 100.886C77.1548 101.404 75.7148 101.733 73.8452 101.733C72.0304 101.733 70.5605 101.438 69.3575 100.947C68.1575 100.458 67.3641 99.8518 66.8155 99.1973C66.3781 98.6299 66.1314 97.9961 66.0859 97.1445C65.9444 94.4904 63.751 92.4108 61.093 92.4108L44.8359 92.4108C43.4953 92.4108 42.2109 92.9492 41.2709 93.905C40.3309 94.8609 39.8142 96.1542 39.8366 97.4946C39.9275 102.914 41.5094 107.855 44.6379 112.141L44.6624 112.175C47.7447 116.325 51.8789 119.491 56.8851 121.735Z"
    fill="#1C4F9D" />
  <path
    d="M73.8079 120.044C68.2397 120.044 63.2805 119.087 58.9304 117.173C54.6051 115.234 51.1871 112.574 48.6765 109.193C46.1907 105.788 44.9105 101.86 44.8359 97.4108L61.093 97.4108C61.1925 99.2752 61.8015 100.916 62.9201 102.333C64.0636 103.725 65.5799 104.806 67.4691 105.577C69.3583 106.347 71.4837 106.733 73.8452 106.733C76.3061 106.733 78.4812 106.298 80.3704 105.428C82.2596 104.557 83.7386 103.352 84.8075 101.811C85.8764 100.269 86.4109 98.4921 86.4109 96.4786C86.4109 94.4403 85.8391 92.6381 84.6957 91.072C83.5771 89.4811 81.9613 88.2382 79.8484 87.3433C77.7603 86.4485 75.2745 86.001 72.391 86.001L65.2692 86.001L65.2692 74.1438L72.391 74.1438C74.8271 74.1438 76.9773 73.7212 78.8416 72.876C80.7308 72.0308 82.1974 70.8625 83.2415 69.3711C84.2855 67.8547 84.8075 66.0898 84.8075 64.0763C84.8075 62.1622 84.3477 60.4843 83.4279 59.0426C82.533 57.576 81.2653 56.4325 79.6246 55.6122C78.0089 54.7919 76.1197 54.3817 73.957 54.3817C71.7695 54.3817 69.7685 54.7794 67.9538 55.5749C66.1392 56.3455 64.685 57.4517 63.5913 58.8934C62.4975 60.3352 61.9134 62.0255 61.8388 63.9644L46.3647 63.9644C46.4393 59.5646 47.6946 55.6867 50.1307 52.3309C52.5668 48.9751 55.848 46.3526 59.9744 44.4634C64.1257 42.5493 68.8114 41.5923 74.0316 41.5923C79.3015 41.5923 83.9126 42.5493 87.8651 44.4634C91.8175 46.3774 94.8874 48.9627 97.0749 52.2191C99.2873 55.4506 100.381 59.0799 100.356 63.1068C100.381 67.3824 99.0511 70.9495 96.3665 73.8082C93.7067 76.6669 90.239 78.4815 85.9634 79.2521L85.9634 79.8487C91.5813 80.5696 95.8569 82.5209 98.7901 85.7027C101.748 88.8597 103.215 92.8121 103.19 97.56C103.215 101.91 101.96 105.776 99.424 109.156C96.9134 112.537 93.4457 115.197 89.021 117.136C84.5962 119.075 79.5252 120.044 73.8079 120.044Z"
    fill="white" />
  <path fill-rule="evenodd" clip-rule="evenodd"
    d="M28.717 82.2919C31.4365 81.8124 34.0298 83.6282 34.5093 86.3477L43.3496 136.483C43.8291 139.203 42.0132 141.796 39.2938 142.276L28.6938 144.145C25.9743 144.624 23.381 142.808 22.9015 140.089L17.3719 108.729L13.6044 112.131C12.2545 113.35 10.3491 113.74 8.62896 113.149C6.9088 112.558 5.64521 111.079 5.32937 109.288L3.67182 99.8877C3.37426 98.2001 3.96163 96.4777 5.22826 95.3236L16.2542 85.2769C16.9542 84.6391 17.8209 84.2132 18.7535 84.0487L28.717 82.2919Z"
    fill="#1C4F9D" />
  <path
    d="M29.5859 87.2158L38.4262 137.351L27.8262 139.221L20.7601 99.1463L20.4663 99.1981L10.2541 108.42L8.59655 99.0193L19.6225 88.9726L29.5859 87.2158Z"
    fill="#D4E2F7" />
  <path fill-rule="evenodd" clip-rule="evenodd"
    d="M101.966 139.091C99.2466 138.611 97.4307 136.018 97.9102 133.298L99.257 125.66C99.4989 124.289 100.302 123.08 101.473 122.326L122.186 108.978C123.864 107.842 125.237 106.838 126.325 105.963L126.356 105.938C127.324 105.172 127.961 104.494 128.366 103.93C128.657 103.515 128.868 103.029 128.978 102.403C129.101 101.703 129.007 101.357 128.939 101.193L128.926 101.161C128.802 100.85 128.625 100.611 128.306 100.377C128.29 100.366 128.275 100.355 128.26 100.343C127.911 100.082 127.404 99.8326 126.607 99.6921C125.746 99.5402 125.213 99.6216 124.883 99.7321C124.568 99.8373 124.342 99.9914 124.114 100.282C123.897 100.558 123.616 101.071 123.447 102.034C122.967 104.753 120.374 106.569 117.654 106.09L107.593 104.316C104.873 103.836 103.058 101.243 103.537 98.5234C104.25 94.4779 105.84 90.8699 108.456 87.9221C111.025 85.0269 114.262 83.0353 118.024 81.9361C121.786 80.837 125.777 80.7336 129.898 81.4602C134.06 82.1941 137.805 83.6148 140.962 85.8693C144.08 88.0679 146.478 90.8709 147.97 94.2852C149.485 97.7543 149.851 101.454 149.184 105.234C148.733 107.791 147.785 110.193 146.388 112.418C144.948 114.744 142.847 116.949 140.331 119.056L140.317 119.068C138.075 120.932 135.183 122.993 131.696 125.243L140.972 126.879C143.691 127.358 145.507 129.951 145.028 132.671L143.5 141.337C143.02 144.056 140.427 145.872 137.707 145.393L101.966 139.091Z"
    fill="#1C4F9D" />
  <path
    d="M102.833 134.167L104.18 126.529L124.94 113.151C126.717 111.95 128.223 110.853 129.458 109.859C130.71 108.868 131.704 107.857 132.441 106.826C133.181 105.779 133.668 104.594 133.901 103.272C134.16 101.803 134.048 100.479 133.566 99.3005C133.087 98.1053 132.318 97.12 131.26 96.3445C130.205 95.5527 128.943 95.0272 127.474 94.7682C125.94 94.4977 124.547 94.5719 123.296 94.9906C122.044 95.4093 121.006 96.1434 120.181 97.1928C119.357 98.2421 118.804 99.5665 118.521 101.166L108.46 99.3918C109.039 96.1114 110.283 93.3945 112.194 91.241C114.105 89.0875 116.516 87.5857 119.425 86.7357C122.335 85.8857 125.536 85.7686 129.028 86.3844C132.619 87.0175 135.632 88.2051 138.068 89.9471C140.523 91.6757 142.296 93.7889 143.386 96.2866C144.477 98.7844 144.768 101.478 144.259 104.366C143.925 106.259 143.22 108.062 142.144 109.774C141.085 111.488 139.41 113.305 137.119 115.223C134.832 117.125 131.69 119.34 127.694 121.866L119.11 127.748L119.049 128.091L140.102 131.803L138.574 140.469L102.833 134.167Z"
    fill="#D4E2F7" />
</svg>