<svg xmlns="http://www.w3.org/2000/svg" fill="none" viewBox="0 0 1412 610"><path fill="url(#a)" d="M41.673 67.73c-.668 7.126-1.137 19.735 3.07 25.102 0 0-1.98-13.851 15.774-31.23 7.148-6.996 8.8-16.512 6.304-23.649-1.418-4.043-4.007-7.383-6.257-9.715-1.313-1.37-.305-3.632 1.605-3.55 11.555.515 30.281 3.726 38.238 23.695 3.493 8.766 3.75 17.824 2.086 27.035-1.054 5.883-4.804 18.961 3.75 20.567 6.106 1.148 9.059-3.704 10.383-7.196.551-1.453 2.461-1.816 3.492-.656 10.313 11.73 11.192 25.547 9.059 37.441-4.125 22.993-27.41 39.727-50.543 39.727-28.899 0-51.903-16.535-57.867-46.465-2.403-12.082-1.184-35.988 17.449-52.863 1.383-1.266 3.645-.14 3.457 1.758Z"/><path fill="url(#b)" d="M89.191 110.727c-10.652-13.711-5.883-29.356-3.27-35.59.352-.82-.585-1.594-1.324-1.09-4.581 3.117-13.968 10.453-18.34 20.777-5.917 13.957-5.496 20.789-1.992 29.133 2.11 5.027-.34 6.094-1.57 6.281-1.195.188-2.297-.609-3.176-1.441-2.52-2.402-4.336-5.531-5.203-8.906-.187-.727-1.137-.926-1.57-.328-3.281 4.535-4.98 11.812-5.063 16.957-.257 15.902 12.88 28.793 28.77 28.793 20.027 0 34.617-22.149 23.11-40.665-3.34-5.39-6.481-8.917-10.372-13.921Z"/><path fill="#0080FD" d="M263.75 25.002c-6.19.106-7.98 5.483-10.195 9.879-2.216 4.396-15.404 28.303-23.942 40.368-8.538 12.065-20.099 27.871-18.455 50.469 1.657 22.598 23.677 39.468 54.529 39.28 27.888-.163 52.285-12.976 53.282-40.812.822-23.042-15.081-42.951-22.929-55.133-4.665-7.248-19.937-31.506-21.551-34.511-2.89-5.378-4.122-9.657-10.739-9.54Z"/><path fill="#67B3FF" d="M231.889 95.003C228.37 95.156 220 105.968 220 119.6s6.48 23.702 13.553 22.262c8.204-1.664 6.86-9.974 5.184-16.62-1.438-5.713-3.686-12.464-4.185-18.614-.309-3.978 1.023-11.792-2.663-11.626Z"/><path fill="#FDD835" d="m459.744 28.472 15.774 35.977a8.258 8.258 0 0 0 6.82 4.91l38.426 3.445c4.347.633 6.082 5.965 2.929 9.035l-28.945 24.317a8.243 8.243 0 0 0-2.766 8.051l8.415 39.386c.738 4.324-3.797 7.629-7.688 5.578l-33.539-19.64a8.241 8.241 0 0 0-8.344 0l-33.539 19.629c-3.879 2.039-8.426-1.254-7.687-5.578l8.414-39.387a8.267 8.267 0 0 0-2.766-8.051l-28.957-24.293c-3.141-3.058-1.406-8.402 2.93-9.035l38.426-3.445c3-.27 5.613-2.157 6.82-4.91l15.773-35.977c1.957-3.938 7.559-3.938 9.504-.012Z"/><path fill="#D2A008" fill-rule="evenodd" d="M482.519 67.367a6.259 6.259 0 0 1-5.167-3.721l-15.814-36.062c-2.683-5.415-10.397-5.401-13.086.01l-.022.043-15.793 36.02a6.258 6.258 0 0 1-5.167 3.722l-38.481 3.45-.055.008c-5.976.872-8.364 8.232-4.036 12.447l.053.052 29.014 24.34a6.27 6.27 0 0 1 2.095 6.103l-.001.001-8.422 39.424-.007.041c-1.017 5.961 5.248 10.493 10.59 7.685l.04-.021 33.579-19.652.001-.001a6.245 6.245 0 0 1 6.321 0l33.578 19.664.04.021c5.363 2.826 11.607-1.732 10.591-7.684l-.007-.041-8.422-39.427-.001-.004a6.24 6.24 0 0 1 2.097-6.098l29.001-24.364.053-.05c4.34-4.228 1.951-11.576-4.037-12.448l-.055-.008-38.48-3.45Zm-54.87 2.004-38.426 3.445c-4.336.633-6.07 5.977-2.93 9.035l28.957 24.293a8.267 8.267 0 0 1 2.766 8.051l-8.414 39.387c-.738 4.324 3.808 7.617 7.687 5.578l33.539-19.629a8.241 8.241 0 0 1 8.344 0l33.539 19.64c3.891 2.051 8.426-1.254 7.688-5.578l-8.414-39.386a8.242 8.242 0 0 1 2.765-8.051l28.946-24.317c3.152-3.07 1.418-8.402-2.93-9.035L482.34 69.36a8.258 8.258 0 0 1-6.82-4.91l-15.774-35.977c-1.945-3.926-7.546-3.926-9.504.012L434.469 64.46a8.258 8.258 0 0 1-6.82 4.91Z" clip-rule="evenodd"/><path fill="#FFFF8D" d="m458.596 66.606-2.672-26.508c-.105-1.477-.41-4.008 1.957-4.008 1.875 0 2.895 3.902 2.895 3.902l8.015 21.281c3.024 8.098 1.782 10.875-1.136 12.516-3.352 1.875-8.297.41-9.059-7.183Z"/><path fill="#F4B400" d="m491.656 103.801 22.992-17.942c1.137-.949 3.188-2.46 1.547-4.183-1.301-1.36-4.816.597-4.816.597l-20.121 7.864c-6 2.074-9.985 5.144-10.336 9.011-.457 5.157 4.172 9.129 10.734 4.653Z"/><path fill="#16A34A" d="m652.441 95.527-7.23-2.918-8.016 5.297s2.098 1.84 2.098 4.442c0 2.601-1.5 20.461-.035 32.215 1.301 10.406 4.875 17.894 7.969 21.96 3.093 4.067 9.269 8.461 11.062 8.461 1.793 0 6.024-3.41 7.477-8.132 1.464-4.723-8.461-3.258-8.461-3.258s-7.547-4.149-9.434-18.211c-1.453-10.781-.926-22.922-.808-27.492.175-6.832 5.378-12.364 5.378-12.364ZM603.883 60.536s1.675-4.828-6.621-3.692c-3.446.469-13.29 3.234-14.649 14.543-1.137 9.434 4.301 14.145 4.125 16.5-.223 3.14-9.984 7.7-8.941 20.66.996 12.305 12.797 16.782 18.492 14.825 10.406-3.586 7.594-62.836 7.594-62.836ZM634.233 50.808s-10.594-14.754-7.02-19.465c2.988-3.937 7.406-7.043 15.082-6.726 10.641.433 14.321 9.762 16.489 10.09.996.152 7.804-5.695 17.566-3.41 9.762 2.285 11.226 10.734 11.707 13.007.48 2.274-53.824 6.504-53.824 6.504ZM687.741 88.695s15.61-15.128 19.196-12.035c3.574 3.094 5.847 8.942 5.367 13.993-.973 10.242-6.504 11.707-6.34 13.007.164 1.301 3.902 2.11 3.738 11.871-.14 8.403-8.261 18.059-19.476 18.868-11.227.82-5.731-40.325-2.485-45.704Z"/><path fill="#22C55E" d="M640.45 87.336c2.426-1.945-1.183-3.844-4.757-8.39-3.586-4.559-13.172-17.063-13.336-32.051-.082-6.996 2.273-12.364 4.945-15.692 2.449-3.058 6.832-3.117 9.691-2.847 13.828 1.3 16.805 16.5 19.676 17.074 2.438.492 10.664-10.64 23.602-8.566 8.789 1.406 11.554 14.765 4.664 24.738-7.969 11.543-21.762 19.969-26.157 22.242-4.394 2.273-5.367 3.363-4.558 5.32.808 1.957 3.762-.175 6.34-2.11 10.242-7.64 21.797-14.964 30.574-15.292 8.777-.328 13.828 2.602 15.773 4.875 1.957 2.273 2.766 10.57 0 15.938-2.73 5.308-9.761 9.105-9.925 10.406-.164 1.3 6.668 6.996 5.531 17.402-.75 6.82-4.395 11.227-6.832 12.844-2.438 1.629-12.738 2.883-20.168-.973-8.133-4.23-17.074-15.609-20.977-21.961-3.902-6.34-6.679-12.949-10.57-13.172-5.695-.328-12.363 11.707-27.328 20.004-11.168 6.188-20.66 8.297-25.535 6.34-4.875-1.957-7.453-11.203-6.996-17.238.996-12.809 13.195-14.766 13.195-17.203 0-2.438-7.805-7.325-7.16-18.54.551-9.456 5.039-12.843 6.668-13.5 1.629-.656 11.871-1.136 19.195 4.231s12.691 14.965 15.938 18.703c3.257 3.738 6.07 9.375 8.507 7.418Z"/><path fill="#64D68E" d="M639.56 64.66s-2.894-2.531-5.508-.48c-2.168 1.699-.96 5.87.844 8.261 1.793 2.391 3.996 4.336 6.352 3.235 2.32-1.09 1.312-5.508 1.312-5.508s1.793 1.969 4.43 1.922c3.902-.07 5.391-3.234 5.391-3.234s0 2.39 2.636 3.949c2.637 1.558 5.508.363 5.508.363s-1.195 2.273.234 3.598c1.442 1.312 3.352.363 5.625-2.52 2.274-2.871 3.469-5.871 1.079-7.43-2.391-1.558-5.508.364-5.508.364s1.957-6.258-1.793-7.782c-2.883-1.171-4.676 1.442-4.676 1.442s-.961-3.598-4.43-3.598c-3.468 0-4.547 3.352-4.547 3.352s-2.636-2.39-4.91-.961c-2.273 1.43-2.039 5.027-2.039 5.027ZM664.185 92.809c.516 2.472 2.731 2.472 2.731 2.472s-1.7.176-2.039 1.875c-.34 1.7.339 2.297.339 2.297s-2.812-.68-4.089 1.535c-.938 1.618 0 3.235 0 3.235s-1.7-.258-2.977 1.699 1.019 6.375 4.008 8.684c3.41 2.636 7.769 4.886 9.539 1.699 1.699-3.071-1.278-6.223-1.278-6.223s3.411 1.195 4.77-1.359c1.078-2.028-.176-3.75-.176-3.75s1.36.082 1.793-1.793c.75-3.282-2.976-4.172-2.976-4.172s6.445.434 6.644-5.285c.176-4.945-5.883-4.512-5.883-4.512s1.817-2.777 0-4.254c-4.183-3.398-11.086 4.547-10.406 7.852ZM629.428 85.484c.855-1.793.082-4.09-3.575-6.82-3.89-2.895-6.129-2.813-7.324-1.618-1.195 1.196-.422 2.977-.422 2.977s-2.472.34-2.636 2.473c-.176 2.132 1.699 2.894 1.699 2.894s-2.895.598-2.895 3.41c0 2.813 2.133 3.575 2.133 3.575s-4.348 1.874-2.977 4.945c1.442 3.234 8.098 2.555 8.098 2.555s-7.5 5.707-4.254 9.199c3.235 3.492 15.328-4.125 12.692-8.942-1.536-2.812-4.348-1.793-4.348-1.793s1.793-1.793 1.699-3.914c-.082-2.132-3.152-3.492-3.152-3.492s1.453-.762 1.535-1.875c.082-1.113-.938-2.39-.938-2.39s3.727.773 4.665-1.184Z"/><path fill="#FF8E00" d="M5.212 302.274c3.574 33.504 27.82 52.441 69.645 53.086 41.824.644 57.445-19.629 63.914-30.153 7.429-12.105 19.324-69.011-46.29-82.383-25.066-5.109-44.542-.937-57.972 6.586-23.965 13.407-30.797 38.836-29.297 52.864Z"/><path fill="#5C6A23" d="M134.566 223.113c-.164-1.64-5.929-7.406-20.742-8.402-14.812-.996-25.875 5.578-30.902 14.824-3.879 7.137-6.14 12.996-6.14 12.996l9.14.879 38.285-13.383 10.359-6.914Z"/><path fill="#767E3A" d="M104.598 231.34c10.277-3.61 29.965-8.227 29.965-8.227s-3.458 7.735-10.372 14.813-18.175 14.414-33.75 10.535c-6.363-1.582-10.582-5.731-10.582-5.731s9.27-5.953 24.739-11.39Z"/><path fill="#5C6A23" d="M65.52 223.899c-.878 1.875 2.04 3.351 3.844 6.469 3.317 5.718 3.317 13.781 3.317 13.781s-7.078.75-6.856 6.926c.2 5.496 5.11 7.757 10.77 7.757 6.176 0 8.578-4.593 8.355-7.605-.351-4.664-5.191-6.469-5.191-6.469s.68-10.687 0-16.031c-.68-5.344-1.582-6.703-3.164-7.383-1.582-.68-9.938.141-11.074 2.555Z"/><path fill="#FFBD6F" d="M21.395 301.031c4.078 1.289 7.617-3.328 12.235-12.234 2.402-4.652 7.757-11.531 10.37-14.379 5.59-6.082 12.669-12.387 8.415-17.508-4.547-5.461-17.813.317-26.508 13.207-8.695 12.891-10.465 29.039-4.512 30.914Z"/><path fill="#FF6110" d="M98.486 258.153c-.668 2.672.503 4.933 2.472 5.097 2.367.2 3.539-2.074 3.586-4.394.035-1.875-1.207-3.129-2.824-3.281-1.629-.141-2.836.961-3.234 2.578ZM114.436 269.66c-1.746 1.875-1.934 5.473.305 6.867 2.519 1.571 5.144-.503 6.011-2.273.68-1.395 1.055-3.668-.551-5.145-1.933-1.769-4.359-.96-5.765.551ZM125.169 277.477c-.445 2.25.504 4.828 2.894 5.191 2.391.364 4.008-1.957 4.149-3.668.187-2.156-.656-3.89-2.555-4.617-1.898-.75-4.09 1.055-4.488 3.094ZM126.55 288.598c-1.582-.773-4.711-.129-5.778 3.621-.867 3.047.129 6 2.344 6.539 2.977.715 4.945-1.593 5.449-4.195.574-2.918-.187-5.063-2.015-5.965ZM116.451 313.523c2.227 1.711 1.242 4.676-.457 6.41-1.863 1.922-4.641 2.121-6.012.762-1.359-1.359-.961-4.137.961-6.059 1.922-1.922 4.313-2.039 5.508-1.113ZM86.92 334.067c.903 1.851-.398 4.242-2.12 5.496-1.372 1.008-4.899 2.074-6.563-.352-1.371-1.992-.352-4.089 1.922-5.8 2.273-1.711 5.754-1.407 6.761.656Z"/><path fill="#854CE8" d="m213.47 240.246-12.668 8.379s-1.817 3.563.644 15.621c2.461 12.059 13.571 35.918 35.942 58.559 19.301 19.523 41.836 29.039 61.652 30.058 19.816 1.02 29.344-11.789 29.344-11.789L213.47 240.246Z"/><path fill="#985DFF" d="m224.309 234.117-10.84 18.703s6.82 24.832 18.316 40.289c12.469 16.758 26.731 31.313 49.078 42.668 19.067 9.692 36.903 13.371 36.903 13.371s11.636-4.652 16.277-17.554c4.418-12.281-1.43-25.746-9.809-32.285-8.379-6.539-25.148-10.582-40.429-18.704-16.207-8.613-28.219-18.679-38.836-30.117-6.645-7.148-8.18-10.195-8.403-11.484-.105-.609-.492-1.125-1.078-1.313l-11.179-3.574Z"/><path fill="#BDCF46" d="m216.617 254.543-.949 6.727s1.723 2.285 3.785 2.109c2.063-.176 5.238-5.484 6.035-9.105 1.172-5.297.539-8.25.539-8.25s4.125 2.156 10.313 1.253c6.187-.902 9.328-4.394 10.137-6.187.808-1.793.632-3.773-.27-4.219-.902-.445-5.297 1.524-5.297 1.524l-13.992-.539-13.277 3.855 2.976 12.832ZM193.516 264.387s-1.863.703-1.301 2.765c.399 1.43 3.821 3.692 8.379 1.407 4.559-2.286 7.465-8.344 8.602-11.215 1.875-4.758 2.695-8.028 2.695-8.028l-6.328-3.75-5.625 13.536s-2.531 4.277-6.422 5.285Z"/><path fill="#6F9823" d="M202.898 233.672s-3.796-6.246-4.218-9.973c-.352-3.164 1.125-5.121 1.886-6.093 1.172-1.5 3.622-2.473 5.227-1.618 1.992 1.055 1.969 3.071 3.27 5.684 1.3 2.613 3.539 6.551 3.539 6.551s4.5-1.43 11.027.832c6.527 2.261 9.41 5.203 13.418 6.34 4.008 1.136 8.906-.364 9.164 1.488.258 1.851-6.188 5.672-11.766 5.93-5.578.257-9.058-2.872-10.98-1.653-1.922 1.219-.422 8.649-2.145 13.957-1.371 4.219-4.757 6.34-5.636 6.223-.153-.024-4.078-6.059-4.852-7.711-.785-1.652-2.262-5.836-4.441-2.613-2.18 3.222-1.723 8.097-6.012 11.847-3.176 2.778-6.305 2.532-7.008 1.77-.223-.246 2.789-2.344 2.789-4.875s-.726-12.152.586-16.863c1.735-6.27 6.152-9.223 6.152-9.223Z"/><path fill="#fff" d="M521.142 270.035a34.996 34.996 0 0 0 3.469-15.258c0-19.453-15.762-35.215-35.215-35.215-4.558 0-8.918.879-12.926 2.461-5.121-4.464-11.836-7.218-19.125-7.218-8.906 0-16.875 3.984-22.148 10.195-4.102-2.227-8.789-3.516-13.711-3.516-15.703.118-28.477 12.774-28.477 28.477 0 5.859 1.758 11.367 4.922 15.937-5.859 4.688-9.961 11.602-10.781 19.688-1.523 15.703 10.078 29.883 26.016 31.406 3.75.352 7.265 0 10.664-.937 1.289 12.539 11.836 22.265 24.726 22.265a24.63 24.63 0 0 0 19.922-10.078c4.219 3.281 9.492 5.391 15.352 5.391 12.89 0 23.554-9.961 24.492-22.5 9.961-4.57 16.992-14.649 16.992-26.367 0-5.379-1.559-10.454-4.172-14.731Z"/><path fill="#000" fill-rule="evenodd" d="M434.51 221.311c5.775-5.85 13.881-9.506 22.836-9.506 7.407 0 14.266 2.574 19.704 6.809a38.104 38.104 0 0 1 12.346-2.052c21.11 0 38.215 17.105 38.215 38.215a38.04 38.04 0 0 1-3.099 15.099 31.222 31.222 0 0 1 3.802 14.89c0 12.33-7.042 22.991-17.187 28.329-1.866 13.285-13.449 23.538-27.297 23.538-5.52 0-10.555-1.664-14.794-4.338a27.637 27.637 0 0 1-20.48 9.025c-13.286 0-24.357-9.228-27.168-21.65a32.338 32.338 0 0 1-8.502.309h-.006c-17.585-1.681-30.4-17.326-28.716-34.683l.002-.013c.808-7.967 4.501-14.897 9.862-19.962-2.602-4.579-4.018-9.838-4.018-15.36 0-17.38 14.132-31.347 31.454-31.477h.022a31.59 31.59 0 0 1 13.024 2.827Zm22.836-3.506c-7.997 0-15.14 3.575-19.862 9.137l-1.577 1.857-2.141-1.162c-3.684-2-7.878-3.151-12.269-3.153-14.079.111-25.487 11.455-25.487 25.477 0 5.253 1.573 10.164 4.388 14.23l1.593 2.301-2.185 1.749c-5.269 4.215-8.935 10.408-9.67 17.641-1.359 14.046 9.026 26.755 23.311 28.123 3.376.317 6.526.002 9.585-.842l3.419-.944.363 3.529c1.133 11.022 10.403 19.572 21.742 19.572a21.63 21.63 0 0 0 17.5-8.848l1.824-2.496 2.44 1.898c3.755 2.92 8.393 4.759 13.51 4.759 11.334 0 20.681-8.764 21.5-19.724l.132-1.765 1.609-.738c8.95-4.106 15.243-13.153 15.243-23.64 0-4.797-1.39-9.334-3.732-13.167l-.852-1.395.71-1.472a32.003 32.003 0 0 0 3.171-13.955c0-17.796-14.418-32.215-32.215-32.215-4.17 0-8.156.804-11.824 2.252l-1.697.67-1.376-1.199c-4.607-4.017-10.631-6.48-17.153-6.48Z" clip-rule="evenodd"/><path fill="#fff" d="M408.481 324.024c-5.274-.586-9.961 3.281-10.547 8.554-.586 5.274 3.281 9.961 8.554 10.43 5.274.586 9.961-3.281 10.547-8.555.586-5.273-3.281-9.961-8.554-10.429Z"/><path fill="#000" fill-rule="evenodd" d="M408.697 321.785c6.509.592 11.292 6.389 10.567 12.917-.718 6.461-6.47 11.258-13.007 10.545-6.509-.592-11.292-6.388-10.567-12.917.718-6.461 6.47-11.258 13.007-10.545Zm-.472 4.475c-4-.444-7.609 2.489-8.063 6.567-.445 4.01 2.493 7.582 6.518 7.94l.025.002.024.003c4 .445 7.609-2.489 8.063-6.567.445-4.01-2.493-7.582-6.518-7.94l-.025-.002-.024-.003Z" clip-rule="evenodd"/><path fill="#fff" d="M390.548 343.945c-3.516-.351-6.68 2.227-7.032 5.742-.351 3.516 2.227 6.563 5.743 6.914 3.515.352 6.679-2.226 7.031-5.742.351-3.398-2.227-6.562-5.742-6.914Z"/><path fill="#000" fill-rule="evenodd" d="M381.278 349.464c.476-4.758 4.747-8.232 9.494-7.758 4.728.473 8.237 4.719 7.757 9.381-.478 4.755-4.748 8.228-9.494 7.753-4.709-.471-8.236-4.582-7.757-9.376Zm9.046-3.28c-2.284-.228-4.341 1.454-4.568 3.727-.224 2.237 1.405 4.219 3.727 4.452 2.284.228 4.341-1.454 4.568-3.728l.001-.007c.221-2.134-1.426-4.214-3.728-4.444Z" clip-rule="evenodd"/><path fill="#424242" d="M632.495 280.833a4.148 4.148 0 0 1-2.496-.834c-18.904-14.179-31.004-38.395-30.833-61.695.017-2.305 1.717-4.063 4.196-4.138a4.165 4.165 0 0 1 4.137 4.196c-.154 20.75 10.642 42.329 27.5 54.971a4.167 4.167 0 0 1-2.504 7.5Z"/><path fill="#424242" d="M636.668 289.166c-1.571 0-38.638-.409-53.829-35.859a4.164 4.164 0 0 1 2.187-5.47 4.165 4.165 0 0 1 5.471 2.187c13.054 30.458 44.825 30.808 46.171 30.808a4.168 4.168 0 0 1 0 8.334Z"/><path fill="#424242" d="M586.666 330.834c-.434 0-.879-.071-1.317-.217a4.162 4.162 0 0 1-2.633-5.271c5.783-17.35 19.662-37.725 52.958-36.216.425.021.763.037.992.037 2.3 0 4.166 1.863 4.166 4.167a4.165 4.165 0 0 1-4.166 4.167c-.317 0-.779-.021-1.367-.046-22.546-.988-37.587 9.258-44.679 30.529a4.17 4.17 0 0 1-3.954 2.85Z"/><path fill="#424242" d="M603.339 359.999a4.165 4.165 0 0 1-4.167-4.166c0-18.729 13.45-52.929 35.354-66.071a4.166 4.166 0 1 1 4.288 7.146c-18.821 11.291-31.309 42.946-31.309 58.925a4.164 4.164 0 0 1-4.166 4.166Zm54.17-79.166a4.159 4.159 0 0 1-3.337-1.667 4.164 4.164 0 0 1 .833-5.833c16.859-12.646 27.654-34.221 27.5-54.971a4.166 4.166 0 0 1 4.134-4.196h.033a4.168 4.168 0 0 1 4.167 4.138c.175 23.3-11.93 47.516-30.834 61.695a4.14 4.14 0 0 1-2.496.834Z"/><path fill="#424242" d="M653.339 289.166a4.163 4.163 0 0 1-4.167-4.167c0-2.3 1.862-4.166 4.167-4.166 1.345 0 33.116-.35 46.17-30.809.909-2.112 3.367-3.091 5.467-2.187a4.162 4.162 0 0 1 2.188 5.471c-15.192 35.45-52.255 35.858-53.825 35.858Z"/><path fill="#424242" d="M703.339 330.833a4.161 4.161 0 0 1-3.95-2.85c-7.092-21.271-22.055-31.496-44.684-30.529-.587.025-1.05.046-1.366.046a4.163 4.163 0 0 1-4.167-4.167 4.163 4.163 0 0 1 4.167-4.167c.229 0 .566-.016.991-.037 33.246-1.5 47.179 18.867 52.959 36.217a4.163 4.163 0 0 1-2.634 5.27 4.16 4.16 0 0 1-1.316.217Z"/><path fill="#424242" d="M686.667 359.999a4.163 4.163 0 0 1-4.167-4.166c0-15.98-12.487-47.634-31.312-58.93a4.166 4.166 0 0 1 4.287-7.145c21.904 13.145 35.359 47.345 35.359 66.075a4.163 4.163 0 0 1-4.167 4.166Z"/><path fill="#424242" d="M645 343.332c13.807 0 25-12.67 25-28.3 0-15.629-11.193-28.3-25-28.3s-25 12.671-25 28.3c0 15.63 11.193 28.3 25 28.3Z"/><path fill="#424242" d="M644.995 305.834c9.205 0 16.666-11.193 16.666-25s-7.461-25-16.666-25-16.667 11.193-16.667 25 7.462 25 16.667 25Z"/><path fill="#424242" d="M636.661 268.333a4.155 4.155 0 0 1-2.945-1.22c-5.388-5.388-5.388-10.963-5.388-15.446 0-2.3 1.867-4.167 4.167-4.167s4.166 1.867 4.166 4.167c0 3.833 0 6.608 2.946 9.554a4.163 4.163 0 0 1 0 5.892 4.155 4.155 0 0 1-2.946 1.22Zm16.667 0a4.157 4.157 0 0 1-2.946-1.22 4.163 4.163 0 0 1 0-5.892c2.946-2.946 2.946-5.721 2.946-9.554a4.166 4.166 0 1 1 8.333 0c0 4.483 0 10.058-5.387 15.446a4.157 4.157 0 0 1-2.946 1.22Z"/><path fill="#fff" d="M780.572 376.976H765V364.88h15.572c5.095 0 9.372-1.776 12.833-5.328 3.556-3.456 5.335-7.632 5.335-12.528V220.24c0-6.432 1.826-12.192 5.479-17.28l9.228-12.96-9.228-12.96c-3.653-5.088-5.479-10.848-5.479-17.28V33.264c0-5.088-1.779-9.36-5.335-12.816-3.461-3.552-7.738-5.328-12.833-5.328H765V3.024h15.572c8.363 0 15.476 2.976 21.34 8.928 5.959 5.856 8.939 12.96 8.939 21.312V159.76c0 3.552 1.058 7.008 3.172 10.368l11.824 16.416c.768.96 1.153 2.112 1.153 3.456 0 1.248-.385 2.4-1.153 3.456l-11.824 16.416c-2.114 3.36-3.172 6.816-3.172 10.368v126.784c0 8.16-2.98 15.168-8.939 21.024-5.864 5.952-12.977 8.928-21.34 8.928Z" opacity=".2"/><path fill="#fff" d="M904.724 225.94c-5.12 0-9.6-1.072-13.44-3.216s-6.832-5.136-8.976-8.976c-2.144-3.84-3.216-8.32-3.216-13.44v-20.736c0-5.12 1.072-9.6 3.216-13.44s5.136-6.832 8.976-8.976c3.84-2.144 8.32-3.216 13.44-3.216 5.12 0 9.6 1.072 13.44 3.216s6.832 5.136 8.976 8.976c2.144 3.84 3.216 8.32 3.216 13.44v20.736c0 5.12-1.072 9.6-3.216 13.44s-5.136 6.832-8.976 8.976c-3.84 2.144-8.32 3.216-13.44 3.216Zm0-12.384c2.304 0 4.384-.544 6.24-1.632a12.174 12.174 0 0 0 4.416-4.416c1.088-1.856 1.632-3.936 1.632-6.24v-22.752c0-2.304-.544-4.384-1.632-6.24a12.174 12.174 0 0 0-4.416-4.416c-1.856-1.088-3.936-1.632-6.24-1.632-2.304 0-4.384.544-6.24 1.632a12.174 12.174 0 0 0-4.416 4.416c-1.088 1.856-1.632 3.936-1.632 6.24v22.752c0 2.304.544 4.384 1.632 6.24a12.174 12.174 0 0 0 4.416 4.416c1.856 1.088 3.936 1.632 6.24 1.632Zm31.567 10.944v-13.056h13.056V224.5h-13.056Zm21.15 0v-13.056h13.056V224.5h-13.056Zm21.15 0v-13.056h13.056V224.5h-13.056Zm41.219-70.464c4.57 0 8.67 1.072 12.28 3.216 3.65 2.144 6.53 5.136 8.64 8.976 2.12 3.808 3.17 8.224 3.17 13.248v20.064c0 5.44-1.05 10.144-3.17 14.112-2.11 3.936-5.08 6.976-8.92 9.12-3.84 2.112-8.36 3.168-13.54 3.168-3.36 0-6.56-.496-9.6-1.488-3.01-1.024-5.79-2.704-8.35-5.04l9.31-9.312a12.513 12.513 0 0 0 3.98 2.688c1.54.64 3.09.96 4.66.96 2.5 0 4.66-.576 6.48-1.728 1.86-1.184 3.28-2.704 4.27-4.56a12.34 12.34 0 0 0 1.54-6v-10.272l2.21 2.4a20.281 20.281 0 0 1-6.87 4.656 21.53 21.53 0 0 1-8.11 1.584c-4.35 0-8.19-.976-11.52-2.928-3.3-1.952-5.89-4.624-7.777-8.016-1.856-3.392-2.784-7.264-2.784-11.616 0-4.352 1.104-8.272 3.312-11.76 2.209-3.52 5.139-6.304 8.789-8.352 3.64-2.08 7.64-3.12 12-3.12Zm0 12.48c-1.99 0-3.81.48-5.48 1.44-1.63.96-2.94 2.256-3.93 3.888-.96 1.632-1.44 3.44-1.44 5.424 0 1.984.48 3.808 1.44 5.472a11.11 11.11 0 0 0 3.89 3.936c1.63.96 3.44 1.44 5.42 1.44s3.79-.48 5.42-1.44c1.67-.992 2.98-2.304 3.94-3.936.99-1.664 1.49-3.488 1.49-5.472 0-1.92-.48-3.696-1.44-5.328a11.193 11.193 0 0 0-3.89-3.936c-1.63-.992-3.44-1.488-5.42-1.488ZM1077.44 224.5l23.23-34.944-22.56-34.176h16.03l14.69 23.04 14.5-23.04h16.12l-22.56 34.176 23.14 34.944H1124l-15.17-23.808-15.26 23.808h-16.13Zm89.55 1.44c-5.5 0-10.04-1.408-13.63-4.224-3.55-2.816-6.08-6.624-7.58-11.424l12.86-3.072c.29 1.76 1.22 3.296 2.79 4.608 1.56 1.28 3.23 1.92 4.99 1.92 1.21 0 2.51-.336 3.89-1.008 1.4-.672 2.41-1.744 3.02-3.216.38-.928.61-2.064.67-3.408.07-1.344.1-2.896.1-4.656v-46.08h13.25v46.08c0 2.208-.02 4.128-.05 5.76 0 1.632-.16 3.168-.48 4.608-.29 1.408-.88 2.88-1.78 4.416-1.95 3.392-4.49 5.856-7.63 7.392-3.14 1.536-6.61 2.304-10.42 2.304Zm93.57 0-20.16-20.064 8.07-8.064 20.06 20.064-7.97 8.064Zm-24.38 0c-6.91 0-12.88-1.504-17.9-4.512-5-3.008-8.85-7.216-11.57-12.624-2.69-5.408-4.03-11.696-4.03-18.864 0-7.168 1.34-13.456 4.03-18.864 2.72-5.408 6.57-9.616 11.57-12.624 5.02-3.008 10.99-4.512 17.9-4.512 6.91 0 12.86 1.504 17.86 4.512 5.02 3.008 8.88 7.216 11.56 12.624 2.72 5.408 4.08 11.696 4.08 18.864 0 7.168-1.36 13.456-4.08 18.864-2.68 5.408-6.54 9.616-11.56 12.624-5 3.008-10.95 4.512-17.86 4.512Zm0-12.288c4.38.064 8.03-.88 10.94-2.832 2.92-1.952 5.09-4.72 6.53-8.304 1.47-3.584 2.21-7.776 2.21-12.576 0-4.8-.74-8.96-2.21-12.48-1.44-3.52-3.61-6.256-6.53-8.208-2.91-1.952-6.56-2.96-10.94-3.024-4.38-.064-8.03.88-10.94 2.832-2.92 1.952-5.11 4.72-6.58 8.304-1.44 3.584-2.16 7.776-2.16 12.576 0 4.8.72 8.96 2.16 12.48 1.47 3.52 3.66 6.256 6.58 8.208 2.91 1.952 6.56 2.96 10.94 3.024Zm47.89 10.848v-69.12h13.05v31.872l26.31-31.872h15.93l-28.89 34.08 30.72 35.04h-16.52l-27.55-31.488V224.5h-13.05Zm63.84 0 21.12-69.12h19.49l21.12 69.12h-13.44l-18.82-60.96h2.5l-18.53 60.96h-13.44Zm12.67-14.4v-12.192h36.48V210.1h-36.48Z"/><path fill="#FF94CD" d="M71.963 457.086s2.11-10.231 4.36-10.828c2.262-.598 12.117 1.535 16.957 4.101 6.762 3.574 10.934 9.539 11.93 16.805 1.054 7.781-1.957 14.297-1.957 14.297s7.066-4.207 15.492-3.457c8.426.75 14.742 4.816 17.156 7.828 2.402 3.012 5.719 6.316 5.262 7.828-.457 1.5-9.176 6.926-8.731 8.273.457 1.36 10.688.598 11.731 2.403 1.054 1.804 3.164 13.394-4.512 21.668-7.676 8.273-15.199 9.48-15.199 9.48s7.594 7.137 7.992 16.887c.328 7.98-1.816 12.75-6.176 14.414-4.359 1.652-12.492-3.609-12.492-3.609s7.066 12.632 3.914 14.589c-3.164 1.957-4.723-1.535-6.023-1.207-1.067.27.75 2.86-1.653 5.121-2.402 2.262-12.785 3.762-21.96-1.207-9.176-4.968-12.036-12.785-12.036-12.785s-2.472 9.492-13.758 14.309c-11.285 4.816-19.5-1.078-21-1.981-1.5-.902-.902-8.121-.597-9.328.304-1.207 1.652-4.066.75-4.664-.903-.597-3.914 3.61-6.024 4.969-2.11 1.359-4.816 2.859-7.523.598-2.707-2.262-9.176-9.786-7.524-19.864 1.653-10.078 7.372-15.797 7.372-15.797s-12.036-1.054-17.907-11.285c-5.87-10.23-5.097-20.461-4.043-21.82 1.055-1.359 10.078-1.5 10.078-1.5s-8.578-4.969-7.675-8.871c.902-3.914 5.261-.902 6.468-2.109 1.207-1.207-3.07-5.778.305-8.168 2.531-1.793 6.984-5.133 15.492-5.825 8.965-.738 15.2 3.762 15.2 3.762s-3.832-6.48-2.25-13.84c1.253-5.824 5.566-10.828 9.62-13.687 4.055-2.86 9.481-5.121 11.883-5.121 2.403 0 7.078 9.621 7.078 9.621Z"/><path fill="#FF79C5" d="M93.378 494.34c1.617 1.863 5.028-.68 7.266-4.477 1.711-2.894 3.668-7.84 2.976-8.449-.691-.609-6.023 3.539-7.828 5.59-1.793 2.062-3.691 5.859-2.414 7.336ZM102.441 530.621c-.433 2.765 6.457 4.722 10.125 5.156 3.481.41 11.872.879 11.895-.305.035-1.183-6.621-5.789-11.895-6.902-4.628-.973-9.75-.305-10.125 2.051ZM76.478 548.269c-2.356-.14-3.235 5.344-2.801 9.563.434 4.219 1.336 9.726 2.344 9.832 1.008.105 2.754-5.988 3.187-11.696.27-3.585-.62-7.57-2.73-7.699ZM27.73 535.93c.163.785 8.296.785 12.644-.457 4.347-1.242 7.078-3.785 6.586-5.649-.492-1.863-5.953-1.336-9.012-.187-3.973 1.488-10.371 5.519-10.219 6.293ZM46.088 480.547c-.926.68 2.05 6.34 4.043 8.766 1.992 2.426 5.098 5.098 6.645 4.406 1.558-.68.128-5.59-3.294-8.883-1.652-1.593-6.456-4.968-7.394-4.289Z"/><path fill="#BF044B" d="M91.878 493.894c-2.132-1.101-8.824 7.922-16.629 7.606-7.804-.317-15.843-8.59-17.261-7.325-1.418 1.266 4.277 10.407 1.3 19.336-2.718 8.168-12.257 13.606-11.226 15.621.96 1.887 10.207-2.027 17.895 1.852 8.964 4.535 7.253 16.113 10.406 16.195 3.152.082 1.758-10.101 9.539-15.011 7.488-4.735 15.48-1.055 16.16-3.469.785-2.836-9.375-6.34-11.496-16.031-2.473-11.192 3.527-17.637 1.312-18.774Z"/><path fill="#F2C559" d="M70 508.942c-1.606.539-5.766 10.066-5.11 11.238.656 1.172 9.2 8.543 11.46 8.543 2.263 0 9.704-7.148 9.774-8.25.07-1.09-3.644-10.805-4.886-11.531-1.243-.727-9.704-.516-11.239 0Z"/><path fill="#FDE1B1" d="M80.623 503.375c-1.84 1.711-2.016 4.992.21 6.832 2.38 1.957 5.614 1.219 6.985-.691 1.207-1.664 1.324-4.231-.692-6.035-1.242-1.114-4.171-2.274-6.503-.106ZM83.534 521.691c-.316 3.07 2.274 5.402 4.863 5.344 3.387-.07 4.641-2.895 4.606-4.817-.059-2.589-1.852-4.816-4.711-4.71-2.86.105-4.488 1.593-4.758 4.183ZM76.231 527.188c-2.273.058-4.652 1.582-4.605 4.922.047 3.07 2.437 4.441 4.816 4.441s4.336-1.699 4.336-4.605c0-2.907-2.11-4.817-4.547-4.758ZM61.738 517.297c-3.386 0-4.816 2.332-4.816 4.98 0 2.649 1.957 4.571 5.086 4.442 2.695-.106 4.37-2.391 4.125-4.922-.27-2.754-1.535-4.5-4.395-4.5ZM64.056 502.742c-1.945 1.887-2.015 5.133.059 6.832 1.617 1.336 4.5 1.805 6.398-.164 1.91-1.957 1.582-4.757-.105-6.398-1.688-1.652-4.442-2.121-6.352-.27Z"/><path fill="#D4EDEF" d="m194.703 496.18 20.484-31.067 15.868 18.129-36.352 12.938Z"/><path fill="#7AE4EB" d="m241.695 519.992-46.992-23.812 36.352-12.938 10.64 36.75Z"/><path fill="#5ECFE7" d="m264.926 490.461-33.879-7.219 10.641 36.75 23.238-29.531Z"/><path fill="#06B0C5" d="m335.156 496.18-20.484-31.067-15.867 18.129 36.351 12.938Z"/><path fill="#7AE4EB" d="m288.164 519.992 46.992-23.812-36.351-12.938-10.641 36.75Z"/><path fill="#D4EDEF" d="m264.93 490.461 33.879-7.219-10.641 36.75-23.238-29.531Z"/><path fill="#A9E4DA" d="m288.164 519.992-23.238-29.531-23.238 29.531h46.476Z"/><path fill="#A8E9ED" d="M240.395 451.789h49.078l25.207 13.324-15.867 18.129-33.879 7.219-33.879-7.219-15.867-18.129 25.207-13.324Z"/><path fill="#1DB2D7" d="m264.934 577.426-70.231-81.246 46.992 23.812 23.239 57.434Z"/><path fill="#A8E9ED" d="m264.93 577.426 70.23-81.246-46.992 23.812-23.238 57.434Z"/><path fill="#D4EDEF" d="m288.164 519.992-23.238 57.434-23.238-57.434h46.476Z"/><path fill="#B79664" d="M440.433 471.111c-3.486-13.111 4.417-21.417 16.75-24.153a1.91 1.91 0 0 1 1.361.222c4.25 2.528 2.473 5.403 1.084 8.875-.871 2.167-.088 3.496 2.347 3.986 13.819 2.778 20.125 7.139 22.042 21.528.291 2.167-.25 3.903-1.209 5.736a.759.759 0 0 0-.004.699.754.754 0 0 0 .574.399c19.68 2.347 31.375 16.777 25.972 37.111-.278 1.064.125 1.694 1.208 1.889 6.125 1.097 13.847 9.236 15.611 15.027 1.736 5.764 2.056 14.5.542 20.306-2.787 10.741-10.606 16.12-23.458 16.139-29.037.037-58.084.037-87.139 0-5-.009-9.977-.366-14.931-1.07-7.055-1.014-16.847-6.916-18.097-14.916-1.486-9.417-.236-20.598 9.389-25.042 2.778-1.287 4.843-2.269 6.194-2.944.445-.213.593-.556.445-1.028-4.125-12.459 2.166-23.459 12.958-29.528.371-.206.679-.506.894-.87.215-.364.328-.778.328-1.199.014-3.417-.236-7.237.528-10.362 3-12.208 14.722-17.666 26.083-19.958.473-.092.649-.375.528-.847Z"/><path fill="#9C8057" fill-rule="evenodd" d="M450.968 448.982c1.304 1.837.458 3.862-.5 6.153-.138.329-.277.663-.413 1.003-.871 2.167-.088 3.495 2.347 3.986 13.819 2.778 20.125 7.139 22.042 21.528.291 2.167-.25 3.903-1.209 5.736a.756.756 0 0 0-.004.699.754.754 0 0 0 .574.398c19.68 2.348 31.375 16.778 25.972 37.111-.278 1.065.125 1.695 1.208 1.889 6.125 1.098 13.847 9.236 15.611 15.028 1.736 5.764 2.056 14.5.542 20.306-2.602 10.028-9.591 15.383-20.967 16.064l7.076-.008c12.852-.019 20.671-5.398 23.458-16.139 1.514-5.806 1.195-14.542-.541-20.306-1.764-5.791-9.487-13.93-15.612-15.027-1.083-.195-1.486-.825-1.208-1.889 5.403-20.334-6.292-34.764-25.972-37.111a.756.756 0 0 1-.573-.399.748.748 0 0 1 .003-.699c.959-1.833 1.5-3.569 1.209-5.736-1.917-14.389-8.222-18.75-22.042-21.528-2.435-.49-3.217-1.819-2.347-3.986.136-.34.276-.674.413-1.003 1.266-3.029 2.337-5.591-1.496-7.872a1.914 1.914 0 0 0-1.362-.222c-2.228.494-4.311 1.171-6.209 2.024Z" clip-rule="evenodd"/><path fill="#EBC181" d="M405.103 524.17c1.291.632 2.688-.778 4.651-3.603 1.022-1.475 3.132-3.573 4.137-4.422 2.149-1.815 4.803-3.635 3.639-5.584-1.244-2.079-5.925-.729-9.434 3.264-3.509 3.993-4.878 9.425-2.993 10.345ZM389.364 558.917c1.594.5 2.978-1.291 4.783-4.747.94-1.805 3.033-4.475 4.055-5.58 2.186-2.36 4.953-4.806 3.29-6.793-1.778-2.119-6.964.123-10.364 5.125-3.4 5.002-4.091 11.268-1.764 11.995ZM419.934 494.362c.892.918 1.986-1.24 4.234-4.907 1.285-2.095 3.758-3.592 4.912-4.434 2.397-1.751 6.075-1.944 5.71-4.349-.392-2.565-5.874-2.308-10.117 1.73-4.243 4.038-6.042 10.623-4.739 11.96Z"/><path fill="#FF542F" d="m603.255 571.976-6.785 13.641s-13.125.293-13.875-.199c-.75-.493-9.351-54.2 29.696-97.243 41.296-45.55 93.187-45.222 94.429-43.722 1.242 1.488.938 19.699.938 19.699L603.255 571.976Z"/><path fill="#FF8E00" d="M652.945 473.059c-25.641 14.496-45 36.433-53.965 70.757-4.266 16.325-2.66 41.778-2.66 41.778h15.14l45.035-66.117 51.164-47.954v-14.015s-30.609 1.91-54.714 15.551Z"/><path fill="#F9D81E" d="M621.584 527.797c-12.363 23.812-10.149 57.797-10.149 57.797l14.778-.012 50.472-67.055 30.985-31.863-.024-15.129s-17.66-.164-45.152 13.149c-22.078 10.675-34.184 30.164-40.91 43.113Z"/><path fill="#60DF6D" d="M646.721 515.855c-25.629 32.028-20.777 69.727-20.777 69.727h16.441l28.079-50.941 37.207-30.856-.012-17.273s-38.039.715-60.938 29.343Z"/><path fill="#00C0E9" d="M660.152 523.062c-25.571 24.551-19.887 62.52-19.887 62.52h13.195l19.664-49.289 34.547-18.082-.012-17.051s-22.605-1.992-47.507 21.902Z"/><path fill="#8C83FF" d="M707.145 527.562c.785-1.23.527-14.062.527-14.062s-21.386-.387-39.41 19.921c-17.988 20.274-15.398 52.161-15.398 52.161s12.328.375 12.832-.622c1.008-1.992-3.41-25.464 11.297-42.023 15.234-17.144 29.718-14.719 30.152-15.375Z"/><path fill="#fff" d="M780.572 607.52H765v-12.096h15.572c5.095 0 9.372-1.776 12.833-5.328 3.556-3.456 5.335-7.632 5.335-12.528v-32.184c0-6.432 1.826-12.192 5.479-17.28l9.228-12.96-9.228-12.96c-3.653-5.088-5.479-10.849-5.479-17.281v-32.184c0-5.088-1.779-9.36-5.335-12.816-3.461-3.552-7.738-5.328-12.833-5.328H765v-12.096h15.572c8.363 0 15.476 2.976 21.34 8.928 5.959 5.856 8.939 12.96 8.939 21.312v32.184c0 3.552 1.058 7.009 3.172 10.369l11.824 16.416c.768.96 1.153 2.112 1.153 3.456 0 1.248-.385 2.4-1.153 3.456l-11.824 16.416c-2.114 3.36-3.172 6.816-3.172 10.368v32.184c0 8.16-2.98 15.168-8.939 21.024-5.864 5.952-12.977 8.928-21.34 8.928Z" opacity=".2"/><path fill="#fff" d="M904.724 550.94c-5.12 0-9.6-1.072-13.44-3.216s-6.832-5.136-8.976-8.976c-2.144-3.84-3.216-8.32-3.216-13.44v-20.736c0-5.12 1.072-9.6 3.216-13.44s5.136-6.832 8.976-8.976c3.84-2.144 8.32-3.216 13.44-3.216 5.12 0 9.6 1.072 13.44 3.216s6.832 5.136 8.976 8.976c2.144 3.84 3.216 8.32 3.216 13.44v20.736c0 5.12-1.072 9.6-3.216 13.44s-5.136 6.832-8.976 8.976c-3.84 2.144-8.32 3.216-13.44 3.216Zm0-12.384c2.304 0 4.384-.544 6.24-1.632a12.174 12.174 0 0 0 4.416-4.416c1.088-1.856 1.632-3.936 1.632-6.24v-22.752c0-2.304-.544-4.384-1.632-6.24a12.174 12.174 0 0 0-4.416-4.416c-1.856-1.088-3.936-1.632-6.24-1.632-2.304 0-4.384.544-6.24 1.632a12.174 12.174 0 0 0-4.416 4.416c-1.088 1.856-1.632 3.936-1.632 6.24v22.752c0 2.304.544 4.384 1.632 6.24a12.174 12.174 0 0 0 4.416 4.416c1.856 1.088 3.936 1.632 6.24 1.632Zm31.567 10.944v-13.056h13.056V549.5h-13.056Zm21.15 0v-13.056h13.056V549.5h-13.056Zm21.15 0v-13.056h13.056V549.5h-13.056Zm41.219-70.464c4.57 0 8.67 1.072 12.28 3.216 3.65 2.144 6.53 5.136 8.64 8.976 2.12 3.808 3.17 8.224 3.17 13.248v20.064c0 5.44-1.05 10.144-3.17 14.112-2.11 3.936-5.08 6.976-8.92 9.12-3.84 2.112-8.36 3.168-13.54 3.168-3.36 0-6.56-.496-9.6-1.488-3.01-1.024-5.79-2.704-8.35-5.04l9.31-9.312a12.513 12.513 0 0 0 3.98 2.688c1.54.64 3.09.96 4.66.96 2.5 0 4.66-.576 6.48-1.728 1.86-1.184 3.28-2.704 4.27-4.56a12.34 12.34 0 0 0 1.54-6v-10.272l2.21 2.4a20.281 20.281 0 0 1-6.87 4.656 21.53 21.53 0 0 1-8.11 1.584c-4.35 0-8.19-.976-11.52-2.928-3.3-1.952-5.89-4.624-7.777-8.016-1.856-3.392-2.784-7.264-2.784-11.616 0-4.352 1.104-8.272 3.312-11.76 2.209-3.52 5.139-6.304 8.789-8.352 3.64-2.08 7.64-3.12 12-3.12Zm0 12.48c-1.99 0-3.81.48-5.48 1.44-1.63.96-2.94 2.256-3.93 3.888-.96 1.632-1.44 3.44-1.44 5.424 0 1.984.48 3.808 1.44 5.472a11.11 11.11 0 0 0 3.89 3.936c1.63.96 3.44 1.44 5.42 1.44s3.79-.48 5.42-1.44c1.67-.992 2.98-2.304 3.94-3.936.99-1.664 1.49-3.488 1.49-5.472 0-1.92-.48-3.696-1.44-5.328a11.193 11.193 0 0 0-3.89-3.936c-1.63-.992-3.44-1.488-5.42-1.488Z"/><defs><radialGradient id="a" cx="0" cy="0" r="1" gradientTransform="rotate(-179.751 36.635 82.753) scale(82.7199 135.727)" gradientUnits="userSpaceOnUse"><stop offset=".314" stop-color="#FE4F02"/><stop offset=".662" stop-color="#FF2500"/><stop offset=".972" stop-color="#F33762"/></radialGradient><radialGradient id="b" cx="0" cy="0" r="1" gradientTransform="matrix(-.87416 86.54589 -65.13228 -.65787 77.554 83.35)" gradientUnits="userSpaceOnUse"><stop offset=".214" stop-color="#FFCA76"/><stop offset=".328" stop-color="#FFCD7D"/><stop offset=".487" stop-color="#FFD48F"/><stop offset=".672" stop-color="#FFE0AD"/><stop offset=".793" stop-color="#FFE8C4"/><stop offset=".822" stop-color="#FFE6BD" stop-opacity=".804"/><stop offset=".863" stop-color="#FFDFAB" stop-opacity=".529"/><stop offset=".91" stop-color="#FFD38D" stop-opacity=".209"/><stop offset=".941" stop-color="#FFCA76" stop-opacity="0"/><stop offset="1" stop-color="#FFCA76" stop-opacity="0"/></radialGradient></defs></svg>