<svg xmlns="http://www.w3.org/2000/svg" fill="none" viewBox="0 0 433 115"><path fill="#fff" d="M43.586 108.92c-6.827 0-12.8-1.429-17.92-4.288-5.12-2.859-9.11-6.848-11.968-11.968-2.859-5.12-4.288-11.093-4.288-17.92V47.096c0-6.827 1.43-12.8 4.288-17.92 2.859-5.12 6.848-9.11 11.968-11.968 5.12-2.859 11.093-4.288 17.92-4.288 6.827 0 12.8 1.43 17.92 4.288 5.12 2.859 9.11 6.848 11.968 11.968 2.859 5.12 4.288 11.093 4.288 17.92v27.648c0 6.827-1.43 12.8-4.288 17.92-2.859 5.12-6.848 9.109-11.968 11.968s-11.093 4.288-17.92 4.288Zm0-16.512c3.072 0 5.845-.725 8.32-2.176a16.231 16.231 0 0 0 5.888-5.888c1.45-2.475 2.176-5.248 2.176-8.32V45.688c0-3.072-.725-5.845-2.176-8.32a16.231 16.231 0 0 0-5.888-5.888c-2.475-1.45-5.248-2.176-8.32-2.176s-5.845.725-8.32 2.176a16.231 16.231 0 0 0-5.888 5.888c-1.45 2.475-2.176 5.248-2.176 8.32v30.336c0 3.072.725 5.845 2.176 8.32a16.231 16.231 0 0 0 5.888 5.888c2.475 1.45 5.248 2.176 8.32 2.176Z"/><path fill="#F44336" d="M123.436 108.92c-6.827 0-12.8-1.429-17.92-4.288-5.12-2.859-9.11-6.848-11.968-11.968-2.859-5.12-4.288-11.093-4.288-17.92V47.096c0-6.827 1.43-12.8 4.288-17.92 2.859-5.12 6.848-9.11 11.968-11.968 5.12-2.859 11.093-4.288 17.92-4.288 6.827 0 12.8 1.43 17.92 4.288 5.12 2.859 9.109 6.848 11.968 11.968s4.288 11.093 4.288 17.92v27.648c0 6.827-1.429 12.8-4.288 17.92-2.859 5.12-6.848 9.109-11.968 11.968s-11.093 4.288-17.92 4.288Zm0-16.512c3.072 0 5.845-.725 8.32-2.176a16.231 16.231 0 0 0 5.888-5.888c1.451-2.475 2.176-5.248 2.176-8.32V45.688c0-3.072-.725-5.845-2.176-8.32a16.231 16.231 0 0 0-5.888-5.888c-2.475-1.45-5.248-2.176-8.32-2.176s-5.845.725-8.32 2.176a16.231 16.231 0 0 0-5.888 5.888c-1.451 2.475-2.176 5.248-2.176 8.32v30.336c0 3.072.725 5.845 2.176 8.32a16.231 16.231 0 0 0 5.888 5.888c2.475 1.45 5.248 2.176 8.32 2.176Z"/><path fill="#fff" d="M169.076 107V89.592h17.408V107h-17.408Zm28.2 0V89.592h17.408V107h-17.408Zm28.2 0V89.592h17.408V107h-17.408ZM270.198 107V33.784l-17.28 10.624v-19.2l17.28-10.368h17.792V107h-17.792Zm56.717 1.92c-4.651 0-9.024-.96-13.12-2.88a31.557 31.557 0 0 1-10.496-8c-2.944-3.413-5.056-7.381-6.336-11.904l16.768-4.48c.554 2.176 1.536 4.053 2.944 5.632A16.21 16.21 0 0 0 321.667 91c1.92.853 3.882 1.28 5.888 1.28 2.645 0 5.056-.64 7.232-1.92 2.218-1.28 3.968-3.008 5.248-5.184 1.322-2.176 1.984-4.587 1.984-7.232 0-2.645-.662-5.056-1.984-7.232-1.28-2.176-3.03-3.904-5.248-5.184-2.176-1.28-4.587-1.92-7.232-1.92-3.243 0-5.888.555-7.936 1.664-2.048 1.067-3.584 2.09-4.608 3.072l-14.72-4.48 2.816-49.024h50.304v16.256h-40.704l6.144-5.76-1.92 31.616-2.944-3.584c2.304-1.877 4.928-3.243 7.872-4.096 2.944-.853 5.696-1.28 8.256-1.28 5.802 0 10.901 1.301 15.296 3.904 4.437 2.56 7.893 6.101 10.368 10.624 2.517 4.48 3.776 9.621 3.776 15.424 0 5.803-1.515 11.05-4.544 15.744-3.03 4.65-7.019 8.363-11.968 11.136-4.95 2.731-10.326 4.096-16.128 4.096Z"/><path fill="#F44336" d="M391.666 13.048c6.101 0 11.562 1.43 16.384 4.288 4.864 2.859 8.704 6.848 11.52 11.968 2.816 5.077 4.224 10.965 4.224 17.664V73.72c0 7.253-1.408 13.525-4.224 18.816-2.816 5.248-6.784 9.301-11.904 12.16-5.12 2.816-11.136 4.224-18.048 4.224-4.48 0-8.747-.661-12.8-1.984-4.011-1.365-7.723-3.605-11.136-6.72L378.098 87.8a16.67 16.67 0 0 0 5.312 3.584c2.048.853 4.117 1.28 6.208 1.28 3.328 0 6.208-.768 8.64-2.304 2.474-1.579 4.373-3.605 5.696-6.08 1.365-2.517 2.048-5.184 2.048-8V62.584l2.944 3.2a26.994 26.994 0 0 1-9.152 6.208c-3.499 1.408-7.104 2.112-10.816 2.112-5.803 0-10.923-1.301-15.36-3.904-4.395-2.603-7.851-6.165-10.368-10.688-2.475-4.523-3.712-9.685-3.712-15.488 0-5.803 1.472-11.03 4.416-15.68 2.944-4.693 6.848-8.405 11.712-11.136 4.864-2.773 10.197-4.16 16-4.16Zm0 16.64c-2.646 0-5.078.64-7.296 1.92a14.888 14.888 0 0 0-5.248 5.184c-1.28 2.176-1.92 4.587-1.92 7.232 0 2.645.64 5.077 1.92 7.296a14.894 14.894 0 0 0 5.184 5.248c2.176 1.28 4.586 1.92 7.232 1.92 2.645 0 5.056-.64 7.232-1.92 2.218-1.323 3.968-3.072 5.248-5.248 1.322-2.219 1.984-4.65 1.984-7.296 0-2.56-.64-4.928-1.92-7.104a14.894 14.894 0 0 0-5.184-5.248c-2.176-1.323-4.587-1.984-7.232-1.984Z"/></svg>