<svg width="150" height="150" viewBox="0 0 150 150" fill="none" xmlns="http://www.w3.org/2000/svg">
  <path
    d="M33.2574 131.976L26.4722 145.617C26.4722 145.617 13.3472 145.91 12.5972 145.418C11.8472 144.926 3.24565 91.2186 42.2925 48.1757C83.5894 2.6249 135.48 2.95302 136.722 4.45302C137.964 5.9413 137.66 24.1522 137.66 24.1522L33.2574 131.976Z"
    fill="#FF542F" />
  <path
    d="M82.9446 33.0586C57.3039 47.5547 37.9446 69.4922 28.9797 103.816C24.7141 120.141 26.3196 145.594 26.3196 145.594H41.4602L86.4953 79.4766L137.659 31.5234V17.5078C137.659 17.5078 107.05 19.418 82.9446 33.0586Z"
    fill="#FF8E00" />
  <path
    d="M51.5858 87.797C39.2225 111.609 41.4373 145.594 41.4373 145.594L56.2147 145.582L106.687 78.5274L137.672 46.6642L137.648 31.5353C137.648 31.5353 119.988 31.3712 92.4959 44.6837C70.4178 55.3595 58.3123 74.8477 51.5858 87.797Z"
    fill="#F9D81E" />
  <path
    d="M76.7233 75.8555C51.0944 107.883 55.946 145.582 55.946 145.582H72.3874L100.466 94.6406L137.673 63.7852L137.661 46.5117C137.661 46.5117 99.6218 47.2266 76.7233 75.8555Z"
    fill="#97CC37" />
  <path
    d="M90.1515 83.0624C64.5812 107.613 70.2648 145.582 70.2648 145.582H83.4601L103.124 96.2929L137.671 78.2109L137.659 61.1601C137.659 61.1601 115.054 59.1679 90.1515 83.0624Z"
    fill="#00C0E9" />
  <path
    d="M137.145 87.5625C137.93 86.3321 137.672 73.5 137.672 73.5C137.672 73.5 116.286 73.1133 98.2623 93.4219C80.274 113.695 82.8638 145.582 82.8638 145.582C82.8638 145.582 95.192 145.957 95.6959 144.961C96.7037 142.969 92.2857 119.496 106.993 102.938C122.227 85.793 136.711 88.2188 137.145 87.5625Z"
    fill="#8C83FF" />
</svg>