<svg width="150" height="150" viewBox="0 0 150 150" fill="none" xmlns="http://www.w3.org/2000/svg">
  <path
    d="M63.099 9.29989C64.399 5.89989 67.799 2.09989 70.499 0.999892C75.999 -1.30011 85.299 1.49989 88.499 6.39989C93.599 14.1999 92.699 20.7999 84.399 34.6999C75.599 49.3999 75.899 53.5999 85.799 55.5999C91.399 56.6999 93.699 55.4999 95.599 50.2999C98.199 43.1999 100.499 40.9999 105.499 40.9999C117.399 40.9999 118.399 54.5999 107.099 62.5999C101.999 66.1999 101.899 67.3999 106.699 66.6999C112.399 65.6999 115.099 63.0999 119.199 54.6999C123.499 45.7999 126.999 42.9999 133.799 42.9999C145.399 42.9999 152.899 54.2999 148.099 64.2999C145.299 70.0999 141.599 71.9999 131.599 72.8999C125.399 73.4999 121.999 74.3999 117.999 76.5999C112.199 79.6999 107.699 85.0999 108.199 88.4999C108.499 90.2999 109.099 90.4999 114.199 90.1999C123.599 89.6999 128.999 94.0999 127.499 101.1C126.199 107 123.599 107.8 108.499 106.5C100.199 105.8 99.399 105.9 97.699 107.8C94.799 111 96.399 113.6 104.199 118.8C108.599 121.7 111.999 124.8 113.199 127C119.699 139.3 107.599 154.5 96.099 148.5C92.199 146.5 88.299 141.6 86.999 137.2C86.499 135.2 85.999 129.3 85.999 124.2C85.999 114.1 84.799 112 80.999 115.5C79.399 116.9 78.999 118.6 78.999 123.5C78.999 130.1 77.199 132.9 72.199 134.5C63.299 137.2 57.899 128 62.799 118.3C64.099 115.8 64.499 113.9 63.999 112.9C62.699 110.9 61.599 112.5 59.499 119C54.999 132.7 41.799 136.1 31.799 126C28.599 122.8 27.999 121.6 27.999 117.8C27.999 111.9 29.999 109.5 38.299 105.4C46.799 101.3 48.999 99.3999 48.999 96.4999C48.999 92.3999 42.799 91.8999 30.999 94.9999C26.899 96.0999 21.899 96.9999 19.999 96.9999C8.79898 96.8999 -2.30102 83.9999 0.998981 74.6999C2.69898 69.5999 4.79898 67.0999 9.19898 64.8999C14.699 62.0999 19.599 62.7999 26.699 67.4999C29.699 69.4999 33.699 71.3999 35.599 71.6999C38.499 72.1999 38.999 71.9999 38.999 70.2999C38.999 69.1999 37.199 65.9999 34.899 63.1999C30.499 57.4999 28.999 53.6999 29.699 49.5999C30.499 45.5999 35.099 41.2999 39.399 40.4999C42.599 39.7999 43.499 40.0999 45.999 42.4999C47.499 43.9999 49.099 46.7999 49.499 48.6999C51.099 57.1999 54.899 59.9999 59.799 56.2999C64.399 52.7999 66.199 48.5999 66.699 39.6999C67.099 32.5999 66.799 30.5999 64.599 24.6999C61.799 17.3999 61.399 13.6999 63.099 9.29989Z"
    fill="#FEFEFE" />
  <path
    d="M70.499 0.999794C67.799 2.09979 64.399 5.89979 63.099 9.29979C61.399 13.6998 61.799 17.3998 64.599 24.6998C66.799 30.5998 67.099 32.5998 66.699 39.6998C66.199 48.5998 64.399 52.7998 59.799 56.2998C54.899 59.9998 51.099 57.1998 49.499 48.6998C49.099 46.7998 47.499 43.9998 45.999 42.4998C43.499 40.0998 42.599 39.7998 39.399 40.4998C35.099 41.2998 30.499 45.5998 29.699 49.5998C28.999 53.6998 30.499 57.4998 34.899 63.1998C37.199 65.9998 38.999 69.1998 38.999 70.2998C38.999 71.9998 38.499 72.1998 35.599 71.6998C33.699 71.3998 29.699 69.4998 26.699 67.4998C19.599 62.7998 14.699 62.0998 9.19898 64.8998C4.79898 67.0998 2.69898 69.5998 0.998981 74.6998C-2.30102 83.9998 8.79898 96.8998 19.999 96.9998C21.899 96.9998 26.899 96.0998 30.999 94.9998C42.799 91.8998 48.999 92.3998 48.999 96.4998C48.999 99.3998 46.799 101.3 38.299 105.4C29.999 109.5 27.999 111.9 27.999 117.8C27.999 121.6 28.599 122.8 31.799 126C41.799 136.1 54.999 132.7 59.499 119C61.599 112.5 62.699 110.9 63.999 112.9C64.499 113.9 64.099 115.8 62.799 118.3C57.899 128 63.299 137.2 72.199 134.5C77.199 132.9 78.999 130.1 78.999 123.5C78.999 118.6 79.399 116.9 80.999 115.5C84.799 112 85.999 114.1 85.999 124.2C85.999 129.3 86.499 135.2 86.999 137.2C88.299 141.6 92.199 146.5 96.099 148.5C107.599 154.5 119.699 139.3 113.199 127C111.999 124.8 108.599 121.7 104.199 118.8C96.399 113.6 94.799 111 97.699 107.8C99.399 105.9 100.199 105.8 108.499 106.5C123.599 107.8 126.199 107 127.499 101.1C128.999 94.0998 123.599 89.6998 114.199 90.1998C109.099 90.4998 108.499 90.2998 108.199 88.4998C107.699 85.0998 112.199 79.6998 117.999 76.5998C121.999 74.3998 125.399 73.4998 131.599 72.8998C141.599 71.9998 145.299 70.0998 148.099 64.2998C152.899 54.2998 145.399 42.9998 133.799 42.9998C126.999 42.9998 123.499 45.7998 119.199 54.6998C115.099 63.0998 112.399 65.6998 106.699 66.6998C101.899 67.3998 101.999 66.1998 107.099 62.5998C118.399 54.5998 117.399 40.9998 105.499 40.9998C100.499 40.9998 98.199 43.1998 95.599 50.2998C93.699 55.4998 91.399 56.6998 85.799 55.5998C75.899 53.5998 75.599 49.3998 84.399 34.6998C92.699 20.7998 93.599 14.1998 88.499 6.39979C85.299 1.49979 75.999 -1.30021 70.499 0.999794ZM83.599 7.09979C86.699 9.99979 88.199 15.4998 87.099 20.1998C86.599 22.2998 84.199 27.2998 81.699 31.1998C75.099 41.8998 73.999 44.4998 73.999 48.7998C73.999 55.1998 80.399 59.9998 88.799 59.9998C93.799 59.9998 97.499 57.1998 99.099 52.1998C100.699 47.1998 102.799 44.9998 105.999 44.9998C109.299 44.9998 110.999 46.6998 110.999 50.0998C110.999 53.5998 108.099 57.0998 100.999 62.0998C97.699 64.3998 94.999 66.4998 94.999 66.6998C94.999 66.8998 97.099 67.9998 99.599 69.1998C108.999 73.2998 116.799 69.2998 122.299 57.6998C124.299 53.5998 126.899 49.4998 128.199 48.5998C131.899 45.9998 137.399 46.4998 141.399 49.9998C145.599 53.7998 146.599 57.5998 144.599 62.3998C142.699 66.8998 138.299 68.9998 130.699 68.9998C116.499 68.9998 102.599 79.7998 104.399 89.5998C105.299 94.0998 107.899 95.3998 114.399 94.4998C118.699 93.9998 120.099 94.1998 121.999 95.7998C124.199 97.5998 123.375 97.8749 123.375 99.7499C123.375 99.7499 122.749 102.375 121.999 102.75C117.764 104.867 109.875 103.1 109.875 103.1C109.875 103.1 103.125 102 99.7495 102.75C98.1049 103.115 95.099 104.8 95.099 104.8C89.299 110.5 91.299 115.3 102.299 122.3C110.999 127.9 113.199 134.4 108.699 141.1C105.499 145.8 101.899 146.9 97.499 144.6C92.099 141.6 89.999 136.3 89.999 124.9C89.999 113.4 88.799 110.6 83.899 110.2C78.499 109.7 75.899 113.2 75.099 122C74.399 129.4 73.399 131 69.399 131C64.699 131 63.699 126.2 66.999 118.7C68.699 114.9 68.799 113.7 67.799 111.6C67.199 110.1 65.699 108.7 64.399 108.4C60.599 107.4 58.299 109.6 55.999 116.5C51.799 129 43.699 131.6 34.699 123.2C29.499 118.3 31.699 112.2 39.999 109C49.599 105.3 55.199 98.6998 52.899 93.6998C50.499 88.4998 43.999 87.7998 29.799 91.0998C18.999 93.5998 15.299 93.0998 9.99898 88.3998C2.69898 81.7998 2.79898 73.4998 10.199 68.9998C14.699 66.2998 17.699 66.4998 22.999 69.9998C31.899 75.9998 37.799 77.3998 41.199 74.2998C44.599 71.2998 43.399 66.6998 37.299 59.5998C32.999 54.4998 32.699 49.1998 36.599 46.0998C38.099 44.8998 40.099 43.9998 41.099 43.9998C43.199 43.9998 45.399 47.7998 46.399 53.1998C47.199 57.5998 51.899 61.9998 55.899 61.9998C63.799 61.9998 70.099 52.6998 70.799 39.8998C71.199 33.1998 70.799 30.7998 68.399 23.4998C65.699 15.3998 65.699 14.6998 66.999 10.7998C67.899 8.19979 69.499 5.9998 70.999 5.1998C74.399 3.3998 80.699 4.39979 83.599 7.09979Z"
    fill="black" />
  <path
    d="M76 13.3854C72.4799 13.3854 69.6276 14.3351 69.6276 11.7253C69.6276 9.11474 72.4799 7 76 7C79.5201 7 82.3741 9.11474 82.3741 11.7253C82.3738 14.3351 79.5201 13.3854 76 13.3854Z"
    fill="#EEEEEE" />
  <path
    d="M40.211 49.8891C38.3438 50.0027 36.8609 50.5995 36.7733 49.2154C36.6878 47.8289 38.1315 46.6134 40.0008 46.5001C41.8681 46.3848 43.4535 47.4148 43.5386 48.7996C43.6266 50.1854 42.0807 49.7737 40.211 49.8891Z"
    fill="#EEEEEE" />
  <path
    d="M15.0006 75.5001C11.8863 75.6921 9.41419 76.6871 9.26981 74.3777C9.12578 72.0679 11.5342 70.0418 14.6478 69.8502C17.7625 69.6603 20.4039 71.3754 20.5473 73.6851C20.6916 75.9949 18.115 75.3085 15.0006 75.5001Z"
    fill="#EEEEEE" />
  <path
    d="M42 124C39.4864 124.778 36.6009 122.707 35.5521 119.375C34.502 116.042 35.6879 112.712 38.2012 111.934C40.712 111.155 40.649 114.139 41.6974 117.471C42.7472 120.804 44.5109 123.223 42 124Z"
    fill="#EEEEEE" />
  <path
    d="M99.1977 134.472C100.248 137.804 102.011 140.223 99.5 141C96.9864 141.778 94.1009 139.707 93.0532 136.375C92.0024 133.043 93.1882 129.712 95.7011 128.934C98.2124 128.156 98.1493 131.14 99.1977 134.472Z"
    fill="#EEEEEE" />
  <path
    d="M133.898 55.1727C130.385 55.3873 127.595 56.5111 127.433 53.9064C127.271 51.3013 129.988 49.0142 133.5 48.7996C137.013 48.5829 139.993 50.5202 140.155 53.1252C140.318 55.7299 137.411 54.9581 133.898 55.1727Z"
    fill="#EEEEEE" />
</svg>