<svg width="125" height="125" viewBox="0 0 125 125" fill="none" xmlns="http://www.w3.org/2000/svg">
  <path
    d="M28.9048 108.859L23.3762 119.93C23.3762 119.93 12.6818 120.168 12.0707 119.768C11.4596 119.369 4.4509 75.7807 36.2668 40.8475C69.916 3.87903 112.197 4.14533 113.209 5.36271C114.221 6.57058 113.973 21.3504 113.973 21.3504L28.9048 108.859Z"
    fill="#FF542F" />
  <path
    d="M69.3992 28.6265C48.4983 40.3967 32.7175 58.209 25.4098 86.0787C21.9327 99.3332 23.2414 120 23.2414 120H35.5833L72.2936 66.3158L114 27.3801V16C114 16 89.0488 17.551 69.3992 28.6265Z"
    fill="#FF8E00" />
  <path
    d="M43.444 72.8742C33.311 92.2902 35.1263 120 35.1263 120L47.2378 119.99L88.6052 65.3161L114 39.3357L113.981 27.0001C113.981 27.0001 99.5065 26.8663 76.9739 37.7209C58.8787 46.4256 48.9571 62.3158 43.444 72.8742Z"
    fill="#F9D81E" />
  <path
    d="M64.2561 62.9915C43.339 89.1771 47.2986 120 47.2986 120H60.7173L83.6334 78.3502L114 53.1228L113.99 39C113.99 39 82.9447 39.5845 64.2561 62.9915Z"
    fill="#97CC37" />
  <path
    d="M75.5337 68.9259C54.8349 88.9822 59.4357 120 59.4357 120H70.1171L86.0349 79.7343L114 64.9625L113.991 51.0332C113.991 51.0332 95.6917 49.4058 75.5337 68.9259Z"
    fill="#00C0E9" />
  <path
    d="M113.535 72.4996C114.178 71.4934 113.967 61.0004 113.967 61.0004C113.967 61.0004 96.4618 60.6842 81.7096 77.291C66.9862 93.869 69.106 119.943 69.106 119.943C69.106 119.943 79.1965 120.25 79.609 119.436C80.4339 117.806 76.8178 98.6124 88.8555 85.0721C101.325 71.0526 113.18 73.0363 113.535 72.4996Z"
    fill="#8C83FF" />
</svg>