<svg width="175" height="175" viewBox="0 0 175 175" fill="none" xmlns="http://www.w3.org/2000/svg">
<path d="M131.261 143.744C124.862 143.75 118.539 142.348 112.741 139.639C106.943 136.929 101.811 132.979 97.7092 128.066C103.282 140.709 109.897 152.865 117.485 164.41C120.373 168.786 117.235 175 112.01 175H63.0071C57.7693 175 54.6316 168.786 57.5318 164.41C65.1205 152.865 71.7354 140.709 77.308 128.066C72.5356 133.77 66.3882 138.164 59.4464 140.832C52.5045 143.499 44.9973 144.353 37.6337 143.313C30.27 142.273 23.293 139.373 17.3615 134.887C11.43 130.4 6.73977 124.476 3.73372 117.673C0.727678 110.87 -0.494959 103.413 0.181274 96.006C0.857507 88.5992 3.41029 81.4869 7.59855 75.341C11.7868 69.195 17.4723 64.2181 24.1181 60.8804C30.764 57.5426 38.1508 55.9542 45.581 56.265C43.6333 49.7336 43.2379 42.8375 44.4265 36.1263C45.6151 29.4151 48.3547 23.0744 52.4271 17.6095C56.4994 12.1446 61.7918 7.70667 67.8825 4.64938C73.9733 1.59209 80.6938 0 87.5086 0C94.3234 0 101.044 1.59209 107.135 4.64938C113.225 7.70667 118.518 12.1446 122.59 17.6095C126.662 23.0744 129.402 29.4151 130.591 36.1263C131.779 42.8375 131.384 49.7336 129.436 56.265C135.253 56.024 141.058 56.9462 146.514 58.9777C151.969 61.0092 156.965 64.1091 161.207 68.0958C165.45 72.0824 168.854 76.8757 171.221 82.1949C173.587 87.5141 174.869 93.2521 174.99 99.0729C175.112 104.894 174.071 110.68 171.928 116.093C169.785 121.507 166.584 126.438 162.511 130.598C158.439 134.758 153.577 138.064 148.211 140.321C142.845 142.579 137.083 143.742 131.261 143.744Z" fill="#443935"/>
</svg>
