<svg width="150" height="150" viewBox="0 0 150 150" fill="none" xmlns="http://www.w3.org/2000/svg">
<path d="M41.673 47.7304C41.005 54.8554 40.5362 67.4648 44.7433 72.832C44.7433 72.832 42.7628 58.9804 60.5167 41.6015C67.6651 34.6054 69.3175 25.0898 66.8214 17.9531C65.4034 13.9101 62.8136 10.5703 60.5636 8.23826C59.2511 6.86716 60.2589 4.60544 62.169 4.68747C73.7237 5.2031 92.4503 8.41403 100.407 28.3828C103.9 37.1484 104.157 46.207 102.493 55.4179C101.439 61.3008 97.6886 74.3789 106.243 75.9843C112.349 77.1328 115.302 72.2812 116.626 68.789C117.177 67.3359 119.087 66.9726 120.118 68.1328C130.431 79.8633 131.31 93.6797 129.177 105.574C125.052 128.566 101.767 145.301 78.6339 145.301C49.7354 145.301 26.7315 128.766 20.7667 98.8359C18.3644 86.7539 19.5831 62.8476 38.2159 45.9726C39.5987 44.707 41.8605 45.832 41.673 47.7304Z" fill="url(#paint0_radial_654_7801)"/>
<path d="M89.1912 90.7266C78.5389 77.0157 83.3084 61.3711 85.9217 55.1368C86.2733 54.3165 85.3358 53.543 84.5975 54.0469C80.0155 57.1641 70.6287 64.5001 66.2576 74.8243C60.3397 88.7813 60.7615 95.6133 64.2655 103.957C66.3748 108.984 63.9256 110.051 62.6951 110.238C61.4998 110.426 60.3983 109.629 59.5194 108.797C56.9998 106.395 55.1834 103.266 54.3162 99.8907C54.1287 99.1641 53.1795 98.9649 52.7459 99.5626C49.4647 104.098 47.7654 111.375 47.6834 116.52C47.4256 132.422 60.5623 145.313 76.4529 145.313C96.4803 145.313 111.07 123.164 99.5623 104.648C96.2225 99.2579 93.0819 95.7305 89.1912 90.7266Z" fill="url(#paint1_radial_654_7801)"/>
<defs>
<radialGradient id="paint0_radial_654_7801" cx="0" cy="0" r="1" gradientUnits="userSpaceOnUse" gradientTransform="translate(72.9105 145.665) rotate(-179.751) scale(82.7199 135.727)">
<stop offset="0.3144" stop-color="#FE4F02"/>
<stop offset="0.6616" stop-color="#FF2500"/>
<stop offset="0.9715" stop-color="#F33762"/>
</radialGradient>
<radialGradient id="paint1_radial_654_7801" cx="0" cy="0" r="1" gradientUnits="userSpaceOnUse" gradientTransform="translate(77.5543 63.3503) rotate(90.5787) scale(86.5503 65.1356)">
<stop offset="0.2141" stop-color="#FFCA76"/>
<stop offset="0.3275" stop-color="#FFCD7D"/>
<stop offset="0.4868" stop-color="#FFD48F"/>
<stop offset="0.6722" stop-color="#FFE0AD"/>
<stop offset="0.7931" stop-color="#FFE8C4"/>
<stop offset="0.8221" stop-color="#FFE6BD" stop-opacity="0.804"/>
<stop offset="0.8627" stop-color="#FFDFAB" stop-opacity="0.529"/>
<stop offset="0.9101" stop-color="#FFD38D" stop-opacity="0.2088"/>
<stop offset="0.9409" stop-color="#FFCA76" stop-opacity="0"/>
<stop offset="1" stop-color="#FFCA76" stop-opacity="0"/>
</radialGradient>
</defs>
</svg>
