<svg width="150" height="150" viewBox="0 0 150 150" fill="none" xmlns="http://www.w3.org/2000/svg">
<path d="M73.7504 5.00234C67.5596 5.10756 65.7698 10.4853 63.5546 14.881C61.3394 19.2767 48.1508 43.1842 39.6127 55.249C31.0746 67.3138 19.5144 83.1196 21.1575 105.718C22.8152 128.316 44.8353 145.186 75.6869 144.998C103.575 144.835 127.972 132.022 128.969 104.186C129.791 81.1439 113.888 61.2346 106.04 49.0529C101.375 41.8047 86.1028 17.5465 84.4891 14.5419C81.599 9.16423 80.3667 4.88543 73.7504 5.00234Z" fill="#0080FD"/>
<path d="M41.889 75.0026C38.3699 75.156 30 85.9681 30 99.6013C30 113.234 36.4795 123.303 43.5535 121.863C51.7569 120.199 50.4134 111.889 48.7371 105.243C47.2985 99.5304 45.0515 92.7788 44.5522 86.6291C44.243 82.6513 45.5746 74.8373 41.889 75.0026Z" fill="#67B3FF"/>
</svg>
