<svg width="150" height="150" viewBox="0 0 150 150" fill="none" xmlns="http://www.w3.org/2000/svg">
<path d="M60.4293 31.1109C56.9432 17.9998 64.846 9.69423 77.1793 6.95812C77.6436 6.85986 78.129 6.93911 78.5404 7.18034C82.7904 9.70812 81.0127 12.5831 79.6238 16.0553C78.7534 18.222 79.5358 19.5507 81.971 20.0415C95.7904 22.8192 102.096 27.1803 104.013 41.5692C104.304 43.7359 103.763 45.472 102.804 47.3053C102.747 47.4127 102.717 47.5324 102.716 47.6541C102.715 47.7757 102.744 47.8957 102.8 48.0037C102.856 48.1117 102.938 48.2045 103.038 48.274C103.138 48.3434 103.253 48.3876 103.374 48.4026C123.054 50.7498 134.749 65.1803 129.346 85.5137C129.068 86.5785 129.471 87.2081 130.554 87.4026C136.679 88.4998 144.402 96.6387 146.165 102.43C147.902 108.194 148.221 116.93 146.707 122.736C143.92 133.477 136.101 138.856 123.249 138.875C94.2117 138.912 65.1655 138.912 36.1099 138.875C31.1099 138.866 26.133 138.509 21.1793 137.805C14.1238 136.791 4.33212 130.889 3.08212 122.889C1.59601 113.472 2.84601 102.291 12.471 97.847C15.2488 96.56 17.3136 95.5785 18.6654 94.9026C19.1099 94.6896 19.258 94.347 19.1099 93.8748C14.9849 81.4164 21.2766 70.4165 32.0682 64.347C32.4387 64.1414 32.7474 63.8411 32.9624 63.4772C33.1773 63.1133 33.2906 62.6991 33.2904 62.2776C33.3043 58.8609 33.0543 55.0415 33.8182 51.9165C36.8182 39.7081 48.5405 34.2498 59.9016 31.9581C60.3738 31.8655 60.5497 31.5831 60.4293 31.1109Z" fill="#B79664"/>
<path fill-rule="evenodd" clip-rule="evenodd" d="M70.9676 8.98196C72.2719 10.8193 71.4256 12.8438 70.4678 15.1351C70.3304 15.4639 70.1907 15.7981 70.0547 16.1381C69.1843 18.3048 69.9667 19.6335 72.4019 20.1242C86.2214 22.902 92.5269 27.2631 94.4436 41.652C94.7352 43.8187 94.1936 45.5548 93.2352 47.3881C93.178 47.4955 93.1477 47.6152 93.147 47.7368C93.1464 47.8585 93.1753 47.9785 93.2313 48.0865C93.2874 48.1945 93.3689 48.2872 93.4688 48.3567C93.5686 48.4262 93.6839 48.4703 93.8047 48.4853C113.485 50.8325 125.18 65.2631 119.777 85.5964C119.499 86.6612 119.902 87.2909 120.985 87.4853C127.11 88.5825 134.832 96.7214 136.596 102.513C138.332 108.277 138.652 117.013 137.138 122.819C134.536 132.847 127.547 138.202 116.171 138.883C118.53 138.881 120.888 138.878 123.247 138.875C136.099 138.856 143.918 133.477 146.705 122.736C148.219 116.93 147.9 108.194 146.164 102.43C144.4 96.6387 136.677 88.4998 130.552 87.4026C129.469 87.2081 129.066 86.5785 129.344 85.5137C134.747 65.1803 123.052 50.7498 103.372 48.4026C103.251 48.3876 103.136 48.3434 103.036 48.274C102.936 48.2045 102.855 48.1117 102.799 48.0037C102.742 47.8957 102.714 47.7757 102.714 47.6541C102.715 47.5324 102.745 47.4127 102.802 47.3053C103.761 45.472 104.302 43.7359 104.011 41.5692C102.094 27.1803 95.7886 22.8192 81.9691 20.0415C79.5339 19.5507 78.7515 18.222 79.6219 16.0553C79.7579 15.7154 79.8976 15.3811 80.035 15.0523C81.3011 12.0234 82.3724 9.46061 78.5386 7.18034C78.1271 6.93911 77.6418 6.85986 77.1774 6.95812C74.9492 7.45244 72.8656 8.12856 70.9676 8.98196Z" fill="#9C8057"/>
<path d="M25.1067 84.1703C26.3974 84.8023 27.7951 83.3919 29.7581 80.5674C30.7804 79.0916 32.8903 76.9942 33.8952 76.1446C36.0442 74.3304 38.6979 72.5101 37.5342 70.5612C36.2898 68.4825 31.6087 69.8317 28.0997 73.8251C24.5907 77.8185 23.2221 83.2501 25.1067 84.1703Z" fill="#EBC181"/>
<path d="M9.36404 118.917C10.9585 119.417 12.3422 117.626 14.1473 114.17C15.0866 112.365 17.1804 109.695 18.2022 108.59C20.3876 106.23 23.155 103.784 21.4918 101.797C19.7141 99.6779 14.5276 101.92 11.128 106.922C7.72837 111.924 7.03653 118.19 9.36404 118.917Z" fill="#EBC181"/>
<path d="M39.934 54.3622C40.8259 55.2799 41.9196 53.1216 44.1683 49.4551C45.4533 47.3599 47.9259 45.8632 49.0796 45.0208C51.477 43.2701 55.1552 43.0772 54.7902 40.6723C54.3981 38.1067 48.9158 38.3644 44.6731 42.4023C40.4304 46.4402 38.631 53.025 39.934 54.3622Z" fill="#EBC181"/>
</svg>
