<svg width="151" height="151" viewBox="0 0 151 151" fill="none" xmlns="http://www.w3.org/2000/svg">
<path d="M121.168 123.32C124.572 122.421 127.765 120.858 130.563 118.723C133.361 116.587 135.708 113.92 137.47 110.874C139.231 107.829 140.373 104.464 140.826 100.976C141.28 97.4875 141.039 93.9422 140.115 90.547C139.191 87.1528 137.604 83.9745 135.445 81.1954C133.832 79.1186 131.924 77.2955 129.784 75.7817C134.738 72.1894 138.33 66.9858 139.909 61.0223C141.713 54.2116 140.743 46.9655 137.215 40.8668C133.687 34.768 127.886 30.3126 121.082 28.4693C115.113 26.8522 108.794 27.3602 103.194 29.8585C102.592 23.7414 99.8854 17.9903 95.4952 13.609C90.4856 8.60947 83.6937 5.80268 76.6134 5.80322C69.5333 5.80376 62.7415 8.61165 57.7325 13.6119C53.3429 17.9939 50.6379 23.7455 50.0363 29.8626C44.4361 27.3651 38.1169 26.8581 32.1479 28.4761C25.3442 30.3204 19.5447 34.7768 16.0172 40.8759C12.4896 46.9755 11.5218 54.2213 13.3262 61.0315C14.9064 66.9951 18.4993 72.1983 23.4535 75.7899C21.3146 77.3039 19.4063 79.1272 17.7934 81.2041C15.6349 83.9835 14.048 87.1624 13.1249 90.5574C12.2018 93.9528 11.9605 97.496 12.4151 100.985C12.8697 104.473 14.011 107.838 15.7733 110.884C17.5353 113.929 19.8838 116.596 22.6818 118.732C25.4797 120.867 28.6728 122.429 32.0771 123.327C35.481 124.224 39.0293 124.442 42.5177 123.965C45.1262 123.609 47.6626 122.87 50.0462 121.777C50.6546 127.883 53.3589 133.623 57.742 137.997C62.7517 142.997 69.544 145.804 76.6242 145.803C83.7044 145.803 90.496 142.995 95.5048 137.994C99.8871 133.619 102.591 127.88 103.198 121.773C105.582 122.866 108.119 123.604 110.727 123.96C114.215 124.436 117.764 124.218 121.168 123.32Z" fill="#250525" stroke="#250525" stroke-width="10"/>
<path d="M100.347 113.892C101.392 114.882 102.403 115.678 103.365 116.231C105.835 117.676 108.566 118.619 111.403 119.006C114.239 119.393 117.124 119.216 119.892 118.485C122.66 117.755 125.255 116.485 127.529 114.75C129.803 113.013 131.71 110.846 133.142 108.371C134.573 105.896 135.5 103.163 135.868 100.33C136.237 97.496 136.041 94.6182 135.29 91.86C134.54 89.1026 133.251 86.5205 131.497 84.2626C129.742 82.0045 127.558 80.115 125.07 78.7028C124.176 78.1888 123.079 77.7421 121.82 77.3545C121.845 76.7399 121.858 76.1221 121.858 75.5014C121.858 75.0791 121.852 74.6583 121.84 74.2388C123.091 73.8525 124.181 73.4076 125.069 72.8962C130.013 70.0022 133.611 65.2735 135.076 59.742C136.54 54.2105 135.753 48.3252 132.887 43.3705C130.021 38.4159 125.307 34.794 119.775 33.2953C114.243 31.7967 108.341 32.543 103.359 35.3712C102.517 35.8553 101.638 36.5257 100.731 37.3491C99.8158 36.7752 98.8784 36.2333 97.9205 35.725C98.181 34.5305 98.3226 33.4361 98.3225 32.4683C98.3221 26.7219 96.0344 21.211 91.9632 17.1481C87.8921 13.0851 82.3709 10.8028 76.6138 10.8032C70.8568 10.8037 65.3356 13.0868 61.265 17.1504C57.1945 21.214 54.9079 26.7252 54.9084 32.4716C54.9085 33.501 55.0689 34.6736 55.3622 35.9575C54.4539 36.4523 53.5646 36.9774 52.6955 37.5316C51.7199 36.6263 50.7741 35.8939 49.8726 35.3753C44.8892 32.5478 38.9878 31.8024 33.4561 33.302C27.9243 34.8015 23.2113 38.4241 20.3455 43.3791C17.4797 48.3343 16.6939 54.2196 18.1595 59.7509C19.625 65.2822 23.223 70.0103 28.1682 72.9036C29.1675 73.4784 30.4211 73.9692 31.8711 74.3871C31.8621 74.7574 31.8576 75.1289 31.8576 75.5014C31.8576 76.0771 31.8684 76.6503 31.8899 77.2208C30.432 77.6402 29.1721 78.1328 28.1687 78.7102C25.6802 80.1228 23.4962 82.0126 21.7424 84.271C19.9886 86.5292 18.6996 89.1115 17.9498 91.869C17.1999 94.6273 17.004 97.5052 17.3732 100.339C17.7424 103.172 18.6695 105.905 20.1011 108.38C21.5327 110.854 23.4404 113.021 25.7147 114.757C27.9888 116.492 30.5846 117.762 33.3523 118.492C36.1199 119.222 39.005 119.398 41.8413 119.011C44.6777 118.624 47.4092 117.68 49.8787 116.235C50.8976 115.649 51.973 114.79 53.084 113.716C53.8722 114.207 54.6766 114.675 55.4963 115.118C55.1221 116.612 54.9149 117.967 54.915 119.138C54.9155 124.885 57.2028 130.395 61.274 134.458C65.3452 138.521 70.8667 140.804 76.6238 140.803C82.3808 140.803 87.9017 138.52 91.9722 134.456C96.0427 130.392 98.3296 124.881 98.3291 119.135C98.3291 118.023 98.1422 116.745 97.8028 115.34C98.6679 114.884 99.5163 114.401 100.347 113.892Z" fill="#EF76EF"/>
</svg>
