<svg width="150" height="150" viewBox="0 0 150 150" fill="none" xmlns="http://www.w3.org/2000/svg">
<path d="M33.2593 131.976L26.4742 145.617C26.4742 145.617 13.3492 145.91 12.5992 145.418C11.8492 144.925 3.2476 91.2184 42.2945 48.1754C83.5914 2.62465 135.482 2.95277 136.724 4.45277C137.966 5.94105 137.662 24.152 137.662 24.152L33.2593 131.976Z" fill="#FF542F"/>
<path d="M82.9446 33.0586C57.3039 47.5547 37.9446 69.4922 28.9797 103.816C24.7141 120.141 26.3196 145.594 26.3196 145.594H41.4602L86.4953 79.4766L137.659 31.5234V17.5078C137.659 17.5078 107.05 19.418 82.9446 33.0586Z" fill="#FF8E00"/>
<path d="M51.5877 87.797C39.2244 111.609 41.4393 145.594 41.4393 145.594L56.2166 145.582L106.689 78.5274L137.674 46.6642L137.65 31.5353C137.65 31.5353 119.99 31.3712 92.4979 44.6837C70.4197 55.3595 58.3143 74.8477 51.5877 87.797Z" fill="#F9D81E"/>
<path d="M76.7214 75.8555C51.0925 107.883 55.944 145.582 55.944 145.582H72.3854L100.464 94.6406L137.671 63.7852L137.659 46.5117C137.659 46.5117 99.6198 47.2266 76.7214 75.8555Z" fill="#60DF6D"/>
<path d="M90.1515 83.0622C64.5812 107.613 70.2648 145.582 70.2648 145.582H83.4601L103.124 96.2926L137.671 78.2106L137.659 61.1598C137.659 61.1598 115.054 59.1676 90.1515 83.0622Z" fill="#00C0E9"/>
<path d="M137.145 87.562C137.93 86.3316 137.672 73.4995 137.672 73.4995C137.672 73.4995 116.286 73.1128 98.2623 93.4214C80.274 113.695 82.8638 145.582 82.8638 145.582C82.8638 145.582 95.192 145.957 95.6959 144.96C96.7037 142.968 92.2857 119.496 106.993 102.937C122.227 85.7925 136.711 88.2183 137.145 87.562Z" fill="#8C83FF"/>
</svg>
