<svg width="152" height="151" viewBox="0 0 152 151" fill="none" xmlns="http://www.w3.org/2000/svg">
<path d="M112.377 143.782C110.828 145.33 108.652 146.073 106.483 145.797C104.318 145.521 102.394 144.261 101.281 142.372C100.991 141.88 97.9054 136.302 95.5 129C89.6452 131.029 83.4079 132.481 76.8739 132.481C45.3937 132.481 19.874 106.962 19.874 75.4814C19.874 68.9476 21.4708 62.3546 23.5 56.4999C16.1976 54.0946 10.4767 51.3655 9.98776 51.0777C8.1027 49.9669 6.83494 48.0433 6.55861 45.8725C6.52112 45.5772 6.5022 45.2792 6.5022 44.981C6.5022 43.1171 7.24044 41.3132 8.5744 39.9781C9.11732 39.4353 9.30837 39.125 9.39852 38.9575C9.51808 38.7353 9.60572 38.5052 9.8547 37.7497C10.4908 35.8213 11.4073 33.1069 14.5681 29.9458C17.7247 26.7897 20.4342 25.8717 22.3626 25.2358C22.9182 25.0842 23.1988 24.9701 23.58 24.7761C23.7479 24.6857 24.0583 24.4945 24.6008 23.952C25.1437 23.4091 25.3348 23.0988 25.425 22.9311C25.5447 22.7088 25.6325 22.4784 25.8816 21.7227C26.5177 19.793 27.4342 17.0802 30.5949 13.9191C33.7557 10.7586 36.4689 9.84263 38.3969 9.2066C39.1527 8.95735 39.3834 8.86958 39.6061 8.74971C39.7741 8.65935 40.0846 8.468 40.627 7.92553C42.1755 6.37706 44.3538 5.63485 46.5226 5.90996C48.6935 6.18628 50.6145 7.45225 51.7253 9.33729C52.0102 9.8208 54.62 15.4245 57 22.4999C63.1048 20.2696 70.0085 18.4816 76.8739 18.4816C108.354 18.4816 133.874 44.0013 133.874 75.4814C133.874 82.3465 132.73 88.8952 130.5 94.9998C137.576 97.3805 142.536 100.347 143.021 100.632C144.908 101.745 146.17 103.667 146.446 105.835C146.722 108.005 145.978 110.179 144.433 111.726C143.89 112.269 143.696 112.583 143.606 112.75C143.487 112.972 143.397 113.209 143.149 113.961C142.513 115.889 141.597 118.601 138.436 121.761C135.849 124.349 133.561 125.432 131.758 126.089L130.633 126.475C129.877 126.724 129.647 126.811 129.424 126.931C129.257 127.022 128.946 127.213 128.403 127.756C127.861 128.298 127.67 128.609 127.579 128.776C127.46 128.999 127.372 129.23 127.123 129.985C126.487 131.915 125.571 134.627 122.41 137.788C119.251 140.947 116.363 141.922 114.436 142.558C113.814 142.764 113.603 142.848 113.398 142.958C113.23 143.048 112.92 143.239 112.377 143.782Z" fill="#05261F" stroke="#05261F" stroke-width="10"/>
<path d="M113.041 137.753C111.619 138.221 110.496 138.592 108.842 140.246C108.388 140.7 107.75 140.918 107.114 140.837C106.477 140.756 105.913 140.385 105.588 139.832C105.327 139.39 101.034 132.006 98.8391 122.628C92.1665 125.742 84.7233 127.481 76.8739 127.481C48.1552 127.481 24.874 104.2 24.874 75.4815C24.874 67.6322 26.6132 60.1891 29.7272 53.5165C20.349 51.3217 12.9668 47.0295 12.5239 46.7688C11.971 46.443 11.5998 45.8795 11.5188 45.2428C11.5077 45.1557 11.5022 45.068 11.5022 44.9811C11.5022 44.4343 11.7182 43.9058 12.1096 43.5141C13.7645 41.8595 14.1349 40.7365 14.6034 39.3148C15.1417 37.683 15.7517 35.8337 18.1034 33.4817C20.4556 31.1298 22.3052 30.5197 23.9368 29.9817L23.9379 29.9813C25.3591 29.5124 26.4822 29.1418 28.1364 27.4876C29.7909 25.833 30.1613 24.7103 30.6301 23.2883C31.1681 21.6564 31.7783 19.8072 34.1302 17.455C36.482 15.1035 38.3313 14.4934 39.9628 13.9552C41.3845 13.4864 42.5082 13.1157 44.1626 11.4611C44.6165 11.0072 45.2546 10.7893 45.8913 10.8701C46.528 10.9511 47.0914 11.3223 47.4173 11.8752C47.6749 12.3125 51.8636 19.5178 54.0816 28.7298C60.964 25.3682 68.6986 23.4817 76.8739 23.4817C105.593 23.4817 128.874 46.7628 128.874 75.4815C128.874 83.6564 126.987 91.3906 123.626 98.2727C132.838 100.491 140.044 104.682 140.48 104.939C141.034 105.265 141.405 105.828 141.486 106.465C141.567 107.102 141.349 107.739 140.895 108.194C139.24 109.848 138.869 110.971 138.401 112.392V112.394C137.862 114.025 137.252 115.875 134.901 118.226C132.549 120.578 130.699 121.188 129.067 121.725C127.645 122.194 126.522 122.566 124.868 124.22C123.214 125.874 122.843 126.997 122.374 128.419C121.836 130.051 121.226 131.9 118.875 134.252C116.524 136.603 114.675 137.213 113.044 137.752L113.041 137.753Z" fill="#0CA789"/>
</svg>
