<svg width="150" height="150" viewBox="0 0 150 150" fill="none" xmlns="http://www.w3.org/2000/svg">
<path d="M110.145 10.5117C84.4688 10.5117 75.0352 36.75 75.0352 36.75C75.0352 36.75 65.7305 10.5117 39.879 10.5117C20.4493 10.5117 -1.69916 25.9102 6.48053 60.9141C14.6602 95.918 75.1055 139.523 75.1055 139.523C75.1055 139.523 135.328 95.918 143.52 60.9141C151.699 25.9102 131.145 10.5117 110.145 10.5117Z" fill="#1D89F3"/>
<path d="M35.918 13.125C56.0742 13.125 66.082 34.793 69.3164 43.5703C69.7734 44.8242 71.5195 44.8594 72.0469 43.6406L75 36.7383C70.8398 23.4492 59.4023 10.5117 39.8789 10.5117C31.793 10.5117 23.25 13.1836 16.6055 18.8203C22.4766 14.9648 29.3555 13.125 35.918 13.125Z" fill="#2463C5"/>
<path d="M110.145 10.5117C103.945 10.5117 98.6953 12.3164 94.2891 15.0234C97.3828 13.8281 100.805 13.125 104.602 13.125C123.598 13.125 140.602 27.5273 132.926 60.8203C126.34 89.4023 87.8555 124.078 76.1016 137.309C75.3516 138.152 75.0938 139.512 75.0938 139.512C75.0938 139.512 135.316 95.9063 143.508 60.9023C151.699 25.9102 129.574 10.5117 110.145 10.5117Z" fill="#2463C5"/>
<g opacity="0.3">
<path d="M19.9689 29.086C24.3634 23.6016 32.215 19.0664 38.8712 24.293C42.4689 27.1172 40.8986 32.9063 37.6759 35.3438C32.9884 38.9063 28.9103 41.0508 26.0509 46.6289C24.34 49.9805 23.3087 53.6485 22.7814 57.3867C22.5704 58.8633 20.6368 59.2266 19.9103 57.9258C14.965 49.1602 13.5587 37.0899 19.9689 29.086Z" fill="white"/>
</g>
<path opacity="0.3" d="M90.422 40.6172C88.3595 40.6172 86.9064 38.625 87.6564 36.7032C89.0509 33.1641 90.8556 29.7422 93.0235 26.6954C96.2345 22.1954 102.34 19.5704 106.207 22.3008C110.168 25.0899 109.652 30.668 106.875 33.3633C100.91 39.1407 93.3868 40.6172 90.422 40.6172Z" fill="white"/>
</svg>
