<svg width="175" height="175" viewBox="0 0 175 175" fill="none" xmlns="http://www.w3.org/2000/svg">
<rect x="42" y="41" width="92" height="92" fill="#443935"/>
<path d="M106 17H134.5L146.75 17V23.125H152.875V29.25L159 29.25V41.5V70H106V17Z" fill="#443935"/>
<rect x="124.394" y="31.3933" width="21.2134" height="21.2134" fill="#B79664"/>
<rect x="131" y="38" width="8" height="8" fill="#899897"/>
<rect x="145" y="38" width="8" height="8" fill="#899897"/>
<rect x="118" y="38" width="8" height="8" fill="#899897"/>
<rect x="131" y="24" width="8" height="8" fill="#899897"/>
<rect x="131" y="52" width="8" height="8" fill="#899897"/>
<path d="M55.5 29.5002L71.75 13.2502L79.875 5.12525L83.9375 1.06274L92.0625 1.06274L96.125 5.12524L104.25 13.2502L120.5 29.5002L88 62.0002L55.5 29.5002Z" fill="#443935"/>
<rect x="75.2329" y="42.2673" width="25.5347" height="25.5347" transform="rotate(-90 75.2329 42.2673)" fill="#899897"/>
<rect x="83.1855" y="34.3152" width="9.62967" height="9.62967" transform="rotate(-90 83.1855 34.3152)" fill="#B79664"/>
<rect x="83.1855" y="17.4634" width="9.62967" height="9.62967" transform="rotate(-90 83.1855 17.4634)" fill="#B79664"/>
<rect x="83.1855" y="49.9634" width="9.62967" height="9.62967" transform="rotate(-90 83.1855 49.9634)" fill="#B79664"/>
<rect x="66.3335" y="34.3152" width="9.62967" height="9.62967" transform="rotate(-90 66.3335 34.3152)" fill="#B79664"/>
<rect x="100.037" y="34.3152" width="9.62967" height="9.62967" transform="rotate(-90 100.037 34.3152)" fill="#B79664"/>
<path d="M158 106L158 134.5L158 146.75L151.875 146.75L151.875 152.875L145.75 152.875L145.75 159L133.5 159L105 159L105 106L158 106Z" fill="#443935"/>
<rect x="143.607" y="124.394" width="21.2134" height="21.2134" transform="rotate(90 143.607 124.394)" fill="#B79664"/>
<rect x="137" y="131" width="8" height="8" transform="rotate(90 137 131)" fill="#899897"/>
<rect x="137" y="145" width="8" height="8" transform="rotate(90 137 145)" fill="#899897"/>
<rect x="137" y="118" width="8" height="8" transform="rotate(90 137 118)" fill="#899897"/>
<rect x="151" y="131" width="8" height="8" transform="rotate(90 151 131)" fill="#899897"/>
<rect x="123" y="131" width="8" height="8" transform="rotate(90 123 131)" fill="#899897"/>
<path d="M145.5 55.5L161.75 71.75L169.875 79.875L173.937 83.9375L173.937 92.0625L169.875 96.125L161.75 104.25L145.5 120.5L113 88L145.5 55.5Z" fill="#443935"/>
<rect x="132.733" y="75.2329" width="25.5347" height="25.5347" fill="#899897"/>
<rect x="140.685" y="83.1855" width="9.62967" height="9.62967" fill="#B79664"/>
<rect x="157.537" y="83.1855" width="9.62967" height="9.62967" fill="#B79664"/>
<rect x="125.037" y="83.1855" width="9.62967" height="9.62967" fill="#B79664"/>
<rect x="140.685" y="66.3335" width="9.62967" height="9.62967" fill="#B79664"/>
<rect x="140.685" y="100.037" width="9.62967" height="9.62967" fill="#B79664"/>
<path d="M69 158L40.5 158L28.25 158L28.25 151.875L22.125 151.875L22.125 145.75L16 145.75L16 133.5L16 105L69 105L69 158Z" fill="#443935"/>
<rect x="50.6064" y="143.607" width="21.2134" height="21.2134" transform="rotate(180 50.6064 143.607)" fill="#B79664"/>
<rect x="44" y="137" width="8" height="8" transform="rotate(180 44 137)" fill="#899897"/>
<rect x="30" y="137" width="8" height="8" transform="rotate(180 30 137)" fill="#899897"/>
<rect x="57" y="137" width="8" height="8" transform="rotate(180 57 137)" fill="#899897"/>
<rect x="44" y="151" width="8" height="8" transform="rotate(180 44 151)" fill="#899897"/>
<rect x="44" y="123" width="8" height="8" transform="rotate(180 44 123)" fill="#899897"/>
<path d="M119.5 145.5L103.25 161.75L95.125 169.875L91.0625 173.937L82.9375 173.937L78.875 169.875L70.75 161.75L54.5 145.5L87 113L119.5 145.5Z" fill="#443935"/>
<rect x="99.7671" y="132.733" width="25.5347" height="25.5347" transform="rotate(90 99.7671 132.733)" fill="#899897"/>
<rect x="91.8145" y="140.685" width="9.62967" height="9.62967" transform="rotate(90 91.8145 140.685)" fill="#B79664"/>
<rect x="91.8145" y="157.537" width="9.62967" height="9.62967" transform="rotate(90 91.8145 157.537)" fill="#B79664"/>
<rect x="91.8145" y="125.037" width="9.62967" height="9.62967" transform="rotate(90 91.8145 125.037)" fill="#B79664"/>
<rect x="108.667" y="140.685" width="9.62967" height="9.62967" transform="rotate(90 108.667 140.685)" fill="#B79664"/>
<rect x="74.9626" y="140.685" width="9.62967" height="9.62967" transform="rotate(90 74.9626 140.685)" fill="#B79664"/>
<path d="M17 69L17 40.5L17 28.25L23.125 28.25L23.125 22.125L29.25 22.125L29.25 16L41.5 16L70 16L70 69L17 69Z" fill="#443935"/>
<rect x="31.3933" y="50.6064" width="21.2134" height="21.2134" transform="rotate(-90 31.3933 50.6064)" fill="#B79664"/>
<rect x="38" y="44" width="8" height="8" transform="rotate(-90 38 44)" fill="#899897"/>
<rect x="38" y="30" width="8" height="8" transform="rotate(-90 38 30)" fill="#899897"/>
<rect x="38" y="57" width="8" height="8" transform="rotate(-90 38 57)" fill="#899897"/>
<rect x="24" y="44" width="8" height="8" transform="rotate(-90 24 44)" fill="#899897"/>
<rect x="52" y="44" width="8" height="8" transform="rotate(-90 52 44)" fill="#899897"/>
<path d="M29.5002 119.5L13.2502 103.25L5.12525 95.125L1.06274 91.0625L1.06274 82.9375L5.12524 78.875L13.2502 70.75L29.5002 54.5L62.0002 87L29.5002 119.5Z" fill="#443935"/>
<rect x="42.2673" y="99.7671" width="25.5347" height="25.5347" transform="rotate(180 42.2673 99.7671)" fill="#899897"/>
<rect x="34.3152" y="91.8145" width="9.62967" height="9.62967" transform="rotate(180 34.3152 91.8145)" fill="#B79664"/>
<rect x="17.4634" y="91.8145" width="9.62967" height="9.62967" transform="rotate(180 17.4634 91.8145)" fill="#B79664"/>
<rect x="49.9634" y="91.8145" width="9.62967" height="9.62967" transform="rotate(180 49.9634 91.8145)" fill="#B79664"/>
<rect x="34.3152" y="108.667" width="9.62967" height="9.62967" transform="rotate(180 34.3152 108.667)" fill="#B79664"/>
<rect x="34.3152" y="74.9626" width="9.62967" height="9.62967" transform="rotate(180 34.3152 74.9626)" fill="#B79664"/>
<rect x="54.783" y="88.5071" width="45.224" height="45.224" transform="rotate(-45 54.783 88.5071)" fill="#899897"/>
<rect x="74.7014" y="88.5076" width="17.0549" height="17.0549" transform="rotate(-45 74.7014 88.5076)" fill="#B79664"/>
<rect x="95.8059" y="67.4033" width="17.0549" height="17.0549" transform="rotate(-45 95.8059 67.4033)" fill="#B79664"/>
<rect x="55.1045" y="108.105" width="17.0549" height="17.0549" transform="rotate(-45 55.1045 108.105)" fill="#B79664"/>
<rect x="53.5969" y="67.4031" width="17.0549" height="17.0549" transform="rotate(-45 53.5969 67.4031)" fill="#B79664"/>
<rect x="95.8059" y="109.612" width="17.0549" height="17.0549" transform="rotate(-45 95.8059 109.612)" fill="#B79664"/>
</svg>
