<svg width="150" height="150" viewBox="0 0 150 150" fill="none" xmlns="http://www.w3.org/2000/svg">
<path d="M145.23 75C145.23 93.648 137.823 111.532 124.636 124.718C111.45 137.905 93.566 145.312 74.918 145.312C56.2699 145.312 38.3857 137.905 25.1995 124.718C12.0134 111.532 4.60547 93.648 4.60547 75C4.60547 56.352 12.0134 38.4677 25.1995 25.2816C38.3857 12.0954 56.2699 4.6875 74.918 4.6875C93.566 4.6875 111.45 12.0954 124.636 25.2816C137.823 38.4677 145.23 56.352 145.23 75Z" fill="#F2A600"/>
<path d="M136.09 73.9453C136.09 82.5787 134.389 91.1276 131.086 99.1038C127.782 107.08 122.939 114.327 116.834 120.432C110.73 126.537 103.482 131.379 95.5061 134.683C87.5299 137.987 78.981 139.688 70.3477 139.688C61.7143 139.688 53.1654 137.987 45.1892 134.683C37.213 131.379 29.9656 126.537 23.8609 120.432C17.7562 114.327 12.9136 107.08 9.6098 99.1038C6.30594 91.1276 4.60547 82.5787 4.60547 73.9453C4.60547 65.3119 6.30594 56.7631 9.6098 48.7869C12.9136 40.8107 17.7562 33.5633 23.8609 27.4586C29.9656 21.3538 37.213 16.5113 45.1892 13.2075C53.1654 9.9036 61.7143 8.20313 70.3477 8.20312C78.981 8.20312 87.5299 9.9036 95.5061 13.2075C103.482 16.5113 110.73 21.3538 116.834 27.4586C122.939 33.5633 127.782 40.8107 131.086 48.7869C134.389 56.7631 136.09 65.3119 136.09 73.9453Z" fill="#FFCC32"/>
<path d="M28.043 34.8047C33.3164 26.4844 44.5664 19.5703 56.2852 17.4609C59.2149 16.9922 62.1445 16.7578 64.6055 17.6953C66.4805 18.3984 68.0039 20.1562 66.9492 22.1484C66.1289 23.7891 63.9024 24.4922 62.1445 25.0781C51.1524 28.7109 41.6719 35.8711 35.1914 45.4688C32.8477 48.9844 29.332 58.7109 24.9961 56.25C20.4258 53.5547 21.3633 45.1172 28.043 34.8047Z" fill="#FFF170"/>
</svg>
