<svg width="150" height="150" viewBox="0 0 150 150" fill="none" xmlns="http://www.w3.org/2000/svg">
<path d="M74.918 145.312C113.75 145.312 145.23 113.833 145.23 75C145.23 36.1675 113.75 4.6875 74.918 4.6875C36.0854 4.6875 4.60547 36.1675 4.60547 75C4.60547 113.833 36.0854 145.312 74.918 145.312Z" fill="#689F38"/>
<path d="M70.3477 139.688C106.656 139.688 136.09 110.254 136.09 73.9453C136.09 37.6369 106.656 8.20312 70.3477 8.20312C34.0392 8.20312 4.60547 37.6369 4.60547 73.9453C4.60547 110.254 34.0392 139.688 70.3477 139.688Z" fill="#7CB342"/>
<path d="M28.0426 34.8047C33.3161 26.4844 44.5661 19.5703 56.2848 17.4609C59.2145 16.9922 62.1442 16.7578 64.6051 17.6953C66.4801 18.3984 68.0036 20.1562 66.9489 22.1484C66.1286 23.7891 63.902 24.4922 62.1442 25.0781C51.152 28.7109 41.6715 35.8711 35.1911 45.4688C32.8473 48.9844 29.3317 58.7109 24.9957 56.25C20.4254 53.5547 21.3629 45.1172 28.0426 34.8047Z" fill="#AED581"/>
</svg>
