<svg width="175" height="175" viewBox="0 0 175 175" fill="none" xmlns="http://www.w3.org/2000/svg">
<circle cx="88" cy="87" r="43" fill="#A253F3"/>
<path d="M87.5 88L69 51.5L87.5 15L106 51.5L87.5 88Z" fill="#12CDD4"/>
<path d="M69.5 52L60 33.5L69.5 15L79 33.5L69.5 52Z" fill="#12CDD4"/>
<path d="M105.5 52L96 33.5L105.5 15L115 33.5L105.5 52Z" fill="#12CDD4"/>
<path d="M87 87.5L131 65.5L175 87.5L131 109.5L87 87.5Z" fill="#12CDD4"/>
<path d="M133 67.5L153.5 57L174 67.5L153.5 78L133 67.5Z" fill="#A253F3"/>
<path d="M134 107.5L154.5 97L175 107.5L154.5 118L134 107.5Z" fill="#A253F3"/>
<path d="M87.5 87L106 123.5L87.5 160L69 123.5L87.5 87Z" fill="#12CDD4"/>
<path d="M105.5 123L115 141.5L105.5 160L96 141.5L105.5 123Z" fill="#12CDD4"/>
<path d="M69.5 123L79 141.5L69.5 160L60 141.5L69.5 123Z" fill="#12CDD4"/>
<path d="M88 87.5L44 109.5L9.61651e-07 87.5L44 65.5L88 87.5Z" fill="#12CDD4"/>
<path d="M42 107.5L21.5 118L1 107.5L21.5 97L42 107.5Z" fill="#A253F3"/>
<path d="M41 67.5L20.5 78L4.5897e-07 67.5L20.5 57L41 67.5Z" fill="#A253F3"/>
<path d="M87.5 87.5L123 5L141.48 15.6694L87.5 87.5Z" fill="#4384E7"/>
<path d="M87.5 87.5L169.612 51.48L158.942 33L87.5 87.5Z" fill="#4384E7"/>
<path d="M163.189 25.6383L105.245 69.6323L148.882 11.3313L163.189 25.6383Z" fill="#12CDD4" stroke="#A253F3" stroke-width="7"/>
<path d="M96.5 33L87.5 87.5L78.5 33L87.5 16L96.5 33Z" fill="#A253F3"/>
<path d="M87.5 20.2745L94.4168 33.3396L87.5 75.2249L80.5832 33.3396L87.5 20.2745Z" fill="#A253F3" stroke="#4384E7" stroke-width="4"/>
<path d="M87.5 87.5L170 123L159.331 141.48L87.5 87.5Z" fill="#4384E7"/>
<path d="M87.5 87.5L123.52 169.612L142 158.942L87.5 87.5Z" fill="#4384E7"/>
<path d="M149.362 163.189L105.368 105.245L163.669 148.882L149.362 163.189Z" fill="#12CDD4" stroke="#A253F3" stroke-width="7"/>
<path d="M142 96.5L87.5 87.5L142 78.5L159 87.5L142 96.5Z" fill="#A253F3"/>
<path d="M154.725 87.5L141.66 94.4168L99.7751 87.5L141.66 80.5832L154.725 87.5Z" fill="#A253F3" stroke="#4384E7" stroke-width="4"/>
<path d="M87.5 87.5L52 170L33.5201 159.331L87.5 87.5Z" fill="#4384E7"/>
<path d="M87.5 87.5L5.38843 123.52L16.0578 142L87.5 87.5Z" fill="#4384E7"/>
<path d="M11.8115 149.362L69.7549 105.368L26.1185 163.669L11.8115 149.362Z" fill="#12CDD4" stroke="#A253F3" stroke-width="7"/>
<path d="M78.5 142L87.5 87.5L96.5 142L87.5 159L78.5 142Z" fill="#A253F3"/>
<path d="M87.5 154.725L80.5832 141.66L87.5 99.7751L94.4168 141.66L87.5 154.725Z" fill="#A253F3" stroke="#4384E7" stroke-width="4"/>
<path d="M87.5 87.5L5 52L15.6694 33.5201L87.5 87.5Z" fill="#4384E7"/>
<path d="M87.5 87.5L51.48 5.38843L33 16.0578L87.5 87.5Z" fill="#4384E7"/>
<path d="M25.6383 11.8115L69.6323 69.7549L11.3313 26.1185L25.6383 11.8115Z" fill="#12CDD4" stroke="#A253F3" stroke-width="7"/>
<path d="M33 78.5L87.5 87.5L33 96.5L16 87.5L33 78.5Z" fill="#A253F3"/>
<path d="M20.2745 87.5L33.3396 80.5832L75.2249 87.5L33.3396 94.4168L20.2745 87.5Z" fill="#A253F3" stroke="#4384E7" stroke-width="4"/>
</svg>
