<svg width="175" height="175" viewBox="0 0 175 175" fill="none" xmlns="http://www.w3.org/2000/svg">
  <path
    d="M2.18839 108.452C10.4438 145.776 41.7003 165.891 64.4623 171.223C75.14 173.722 88.678 173.719 90.4421 173.718H90.5C92 173.718 93.5 174 93 173C92.5 172 91.6667 172.167 93.5 171.5L101.474 172.087L117.378 149.141L141.813 131.601L155.382 114.685L164.538 91.2981L166.009 64.7853L160.365 45.3694L148.469 25.3285L129.936 12.0169C129.936 12.0169 92.0048 -12.0506 50.4153 7.93521C8.82579 27.921 -6.067 71.1285 2.18839 108.452Z"
    fill="#EF76EF" />
  <path
    d="M171.286 61.6963C174.202 71.2768 174.982 73.3164 175 87.0692C175 102.826 169.135 119.98 165.274 124.926C161.413 129.872 139.239 154.16 139.239 154.16L108.258 167.619L70.7922 165.823L66.2869 166.395L58.3773 159.605L39.2916 149.38L21.9535 127.997L12.3743 94.8098L16.6072 75.0648L16.4666 66.9246L19.0891 63.4874L21.5857 51.8413L44.6236 22.9015L79.8331 11.6492L116.9 22.1661L134.238 36.544L144.203 52.0252L149.921 75.2653L141.629 104.573L124.659 124.485L99.2122 135.002L71.9271 130.939L58.6523 120.054L53.7617 111.516L49.7787 108.119L49.3641 103.839L45.5613 97.2L47.4171 83.7398L46.6144 75.4526L55.8961 65.3467L65.4735 53.1468L67.628 52.573L69.5396 50.4917L72.9838 51.1468L88.3275 47.0609L109.159 55.1692L112.657 67.7516L119.762 72.2621L109.76 91.626L109.711 91.868L109.629 91.8792L108.725 93.6283L94.4144 101.688L84.0893 98.686C84.0893 98.686 84.6692 92.8263 85.7447 91.0488C86.3105 90.1137 86.4632 90.1953 86.9721 90.4672C87.4306 90.7121 88.1783 91.1114 89.7776 91.0606C93.5494 90.9359 100.654 86.6171 98.5373 77.4712C96.1541 67.1324 85.6743 65.0249 77.6894 66.9629C70.2253 68.7861 56.1957 84.3015 67.0627 101.858C79.2649 121.576 105.701 118.231 119.804 105.188C133.906 92.1453 139.28 64.688 115.166 44.6606C93.9978 27.0816 69.2983 30.575 47.6308 48.84C25.8843 67.1646 20.7227 115.51 56.9032 139.142C93.7097 163.196 126.811 143.081 139.245 130.984C154.803 115.856 162.222 100.911 164.5 78.5C166.035 63.4617 158.847 43.3251 153.947 35.4396C149.672 28.5579 144.021 23.2993 142.095 21.5062C141.814 21.2447 141.612 21.0568 141.505 20.9485C140.666 20.0971 140.915 18.5498 141.872 18.957C144.441 20.0386 165.387 42.3126 171.286 61.6963Z"
    fill="#FF8B37" />
  <path
    d="M163.637 128.475C164.263 127.28 165.881 124.651 165.163 124.356C164.446 124.044 159.923 130.994 155.547 135.517C150.032 141.216 137.768 159.4 102.89 163.887C68.0109 168.391 42.6564 148.571 29.7493 129.964C19.1773 114.722 3.7145 70.8526 39.1079 38.2539C80.4216 0.231327 127.748 25.3468 139.827 50.7014C149.737 71.5145 145.104 112.608 112.45 126.471C74.3726 142.632 51.4266 109.519 51.6472 90.8384C51.923 67.3409 68.7648 50.9036 86.8935 52.7606C113.645 55.5185 111.366 79.5125 108.019 85.4145C104.507 91.6106 98.4217 94.7362 93.0897 91.4819C90.2214 89.7352 93.7883 80.2847 87.2613 78.6483C80.7342 77.012 74.299 80.5973 77.3511 92.0151C79.9068 101.576 89.4124 103.709 94.6525 103.635C101.75 103.525 121.882 99.1857 119.915 72.1213C117.893 44.064 81.4328 34.6319 59.7372 52.8342C38.0415 71.0365 35.0078 108.287 63.2305 129.284C91.4533 150.281 136.628 137.355 149.701 97.4574C162.773 57.5594 140.066 13.1016 89.2102 9.36925C38.354 5.63686 6.43565 51.6574 8.4949 92.3093C10.2784 127.739 31.5144 157.047 67.9006 168.704C104.287 180.361 129.163 165.082 133.907 161.938C142.365 156.33 153.378 143.533 157.846 137.208C160.585 133.366 163.031 129.652 163.637 128.475Z"
    fill="#F45353" />
</svg>