<svg width="175" height="175" viewBox="0 0 175 175" fill="none" xmlns="http://www.w3.org/2000/svg">
<circle cx="88" cy="87" r="66" fill="#0CA789"/>
<circle cx="87.5" cy="87.5" r="4.5" fill="#8FD14F"/>
<circle cx="87.5" cy="71.5" r="9.5" fill="#8FD14F"/>
<circle cx="87.5" cy="71.5" r="3.5" fill="#FAC710"/>
<circle cx="138.5" cy="36.5" r="23.5" fill="#0CA789"/>
<circle cx="88" cy="30" r="30" fill="#FAC710"/>
<circle cx="145" cy="88" r="25" stroke="#FAC710" stroke-width="10"/>
<circle cx="87.5" cy="30.5" r="12.5" fill="#8FD14F"/>
<circle cx="138.5" cy="36.5" r="7.5" fill="#8FD14F"/>
<circle cx="108.5" cy="67.5" r="7.5" transform="rotate(90 108.5 67.5)" fill="#8FD14F"/>
<circle cx="108.5" cy="67.5" r="2.5" transform="rotate(90 108.5 67.5)" fill="#0CA789"/>
<circle cx="113.5" cy="55.5" r="3.5" transform="rotate(90 113.5 55.5)" fill="#8FD14F"/>
<circle cx="121.5" cy="61.5" r="3.5" transform="rotate(90 121.5 61.5)" fill="#8FD14F"/>
<ellipse cx="121" cy="54" rx="2" ry="2" transform="rotate(90 121 54)" fill="#8FD14F"/>
<ellipse cx="129" cy="59" rx="2" ry="2" transform="rotate(90 129 59)" fill="#8FD14F"/>
<ellipse cx="117" cy="47" rx="2" ry="2" transform="rotate(90 117 47)" fill="#8FD14F"/>
<circle cx="87.5" cy="87.5" r="4.5" transform="rotate(90 87.5 87.5)" fill="#8FD14F"/>
<circle cx="103.5" cy="87.5" r="9.5" transform="rotate(90 103.5 87.5)" fill="#8FD14F"/>
<circle cx="103.5" cy="87.5" r="3.5" transform="rotate(90 103.5 87.5)" fill="#FAC710"/>
<circle cx="138.5" cy="138.5" r="23.5" transform="rotate(90 138.5 138.5)" fill="#0CA789"/>
<circle cx="145" cy="88" r="30" transform="rotate(90 145 88)" fill="#FAC710"/>
<circle cx="87" cy="145" r="25" transform="rotate(90 87 145)" stroke="#FAC710" stroke-width="10"/>
<circle cx="144.5" cy="87.5" r="12.5" transform="rotate(90 144.5 87.5)" fill="#8FD14F"/>
<circle cx="138.5" cy="138.5" r="7.5" transform="rotate(90 138.5 138.5)" fill="#8FD14F"/>
<circle cx="107.5" cy="108.5" r="7.5" transform="rotate(-180 107.5 108.5)" fill="#8FD14F"/>
<circle cx="107.5" cy="108.5" r="2.5" transform="rotate(-180 107.5 108.5)" fill="#0CA789"/>
<circle cx="119.5" cy="113.5" r="3.5" transform="rotate(-180 119.5 113.5)" fill="#8FD14F"/>
<circle cx="113.5" cy="121.5" r="3.5" transform="rotate(-180 113.5 121.5)" fill="#8FD14F"/>
<ellipse cx="121" cy="121" rx="2" ry="2" transform="rotate(-180 121 121)" fill="#8FD14F"/>
<ellipse cx="116" cy="129" rx="2" ry="2" transform="rotate(-180 116 129)" fill="#8FD14F"/>
<ellipse cx="128" cy="117" rx="2" ry="2" transform="rotate(-180 128 117)" fill="#8FD14F"/>
<circle cx="87.5" cy="87.5" r="4.5" transform="rotate(-90 87.5 87.5)" fill="#8FD14F"/>
<circle cx="71.5" cy="87.5" r="9.5" transform="rotate(-90 71.5 87.5)" fill="#8FD14F"/>
<circle cx="71.5" cy="87.5" r="3.5" transform="rotate(-90 71.5 87.5)" fill="#FAC710"/>
<circle cx="36.5" cy="36.5" r="23.5" transform="rotate(-90 36.5 36.5)" fill="#0CA789"/>
<circle cx="30" cy="87" r="30" transform="rotate(-90 30 87)" fill="#FAC710"/>
<circle cx="88" cy="30" r="25" transform="rotate(-90 88 30)" stroke="#FAC710" stroke-width="10"/>
<circle cx="30.5" cy="87.5" r="12.5" transform="rotate(-90 30.5 87.5)" fill="#8FD14F"/>
<circle cx="36.5" cy="36.5" r="7.5" transform="rotate(-90 36.5 36.5)" fill="#8FD14F"/>
<circle cx="67.5" cy="66.5" r="7.5" fill="#8FD14F"/>
<circle cx="67.5" cy="66.5" r="2.5" fill="#0CA789"/>
<circle cx="55.5" cy="61.5" r="3.5" fill="#8FD14F"/>
<circle cx="61.5" cy="53.5" r="3.5" fill="#8FD14F"/>
<ellipse cx="54" cy="54" rx="2" ry="2" fill="#8FD14F"/>
<ellipse cx="59" cy="46" rx="2" ry="2" fill="#8FD14F"/>
<ellipse cx="47" cy="58" rx="2" ry="2" fill="#8FD14F"/>
<circle cx="87.5" cy="87.5" r="4.5" transform="rotate(-180 87.5 87.5)" fill="#8FD14F"/>
<circle cx="87.5" cy="103.5" r="9.5" transform="rotate(-180 87.5 103.5)" fill="#8FD14F"/>
<circle cx="87.5" cy="103.5" r="3.5" transform="rotate(-180 87.5 103.5)" fill="#FAC710"/>
<circle cx="36.5" cy="138.5" r="23.5" transform="rotate(-180 36.5 138.5)" fill="#0CA789"/>
<circle cx="87" cy="145" r="30" transform="rotate(-180 87 145)" fill="#FAC710"/>
<circle cx="30" cy="87" r="25" transform="rotate(-180 30 87)" stroke="#FAC710" stroke-width="10"/>
<circle cx="87.5" cy="144.5" r="12.5" transform="rotate(-180 87.5 144.5)" fill="#8FD14F"/>
<circle cx="36.5" cy="138.5" r="7.5" transform="rotate(-180 36.5 138.5)" fill="#8FD14F"/>
<circle cx="66.5" cy="107.5" r="7.5" transform="rotate(-90 66.5 107.5)" fill="#8FD14F"/>
<circle cx="66.5" cy="107.5" r="2.5" transform="rotate(-90 66.5 107.5)" fill="#0CA789"/>
<circle cx="61.5" cy="119.5" r="3.5" transform="rotate(-90 61.5 119.5)" fill="#8FD14F"/>
<circle cx="53.5" cy="113.5" r="3.5" transform="rotate(-90 53.5 113.5)" fill="#8FD14F"/>
<ellipse cx="54" cy="121" rx="2" ry="2" transform="rotate(-90 54 121)" fill="#8FD14F"/>
<ellipse cx="46" cy="116" rx="2" ry="2" transform="rotate(-90 46 116)" fill="#8FD14F"/>
<ellipse cx="58" cy="128" rx="2" ry="2" transform="rotate(-90 58 128)" fill="#8FD14F"/>
</svg>
