<svg width="182" height="175" viewBox="0 0 182 175" fill="none" xmlns="http://www.w3.org/2000/svg">
<path fill-rule="evenodd" clip-rule="evenodd" d="M108.444 153.103C100.029 167.686 78.9708 167.686 70.5489 153.103H70.5416L65.2045 143.85C61.0519 146.619 57.3923 150.086 54.394 154.109C52.1521 157.118 46.8756 156.635 46.3846 152.916C45.9181 149.381 45.8241 145.841 46.3935 142.626C47.5504 136.094 50.1768 129.913 54.0713 124.548L32.228 86.6782C31.7347 86.7533 31.2397 86.82 30.7432 86.8783C23.9743 87.6725 17.1133 86.8748 10.7069 84.5485C7.63829 83.4343 4.61917 81.5827 1.7916 79.4115C-1.18435 77.1264 1.03596 72.3155 4.76246 71.8783C10.3798 71.2191 15.8048 69.4786 20.7418 66.7645L16.926 60.1489C8.51141 45.5655 19.0333 27.3364 35.8697 27.3364H43.401C43.262 21.7632 42.0587 16.256 39.844 11.1152C38.4112 7.78952 41.3763 3.56432 44.7556 4.86584C48.0747 6.14426 51.2167 7.76643 53.789 9.92815C59.0068 14.3131 63.1282 19.856 65.8248 26.1152C65.9992 26.5201 66.1673 26.9272 66.3291 27.3364L115.363 27.3364C115.525 26.9272 115.693 26.5201 115.867 26.1152C118.564 19.856 122.685 14.3131 127.903 9.92815C130.475 7.76643 133.617 6.14426 136.936 4.86584C140.315 3.56432 143.281 7.78952 141.848 11.1152C139.633 16.256 138.43 21.7632 138.291 27.3364H143.123C159.959 27.3364 170.489 45.5655 162.074 60.1489L158.937 65.5866C164.395 68.9781 170.538 71.1282 176.929 71.8783C180.656 72.3155 182.876 77.1264 179.9 79.4115C177.073 81.5827 174.054 83.4343 170.985 84.5485C164.579 86.8748 157.717 87.6725 150.949 86.8783C149.628 86.7233 148.318 86.5086 147.023 86.2356L124.901 124.578C128.784 129.935 131.403 136.106 132.558 142.626C133.144 145.935 132.977 149.467 132.425 152.981C131.863 156.558 126.721 157.013 124.557 154.109C121.565 150.094 117.914 146.633 113.772 143.867L108.444 153.103Z" fill="#AFB585"/>
</svg>
