<svg width="176" height="175" viewBox="0 0 176 175" fill="none" xmlns="http://www.w3.org/2000/svg">
<path d="M58.5833 58.3333L87.75 0L116.917 58.3333L175.25 87.5L116.917 116.667L87.75 175L58.5833 116.667L0.25 87.5L58.5833 58.3333Z" fill="#9C5C2D"/>
<path d="M145.833 29.1667L87.5 0L29.1667 29.1667L0 87.5L29.1667 145.833L87.5 175L145.833 145.833L175 87.5L145.833 29.1667Z" fill="#9C5C2D"/>
<path d="M65.5 87.5L153 0L109 87.5L153 175L65.5 87.5Z" fill="#FF1111"/>
<path d="M109.5 87.5L22 0L66 87.5L22 175L109.5 87.5Z" fill="#FF1111"/>
<path d="M87.5 65.5L175 153L87.5 109L0 153L87.5 65.5Z" fill="#FF1111"/>
<path d="M87.5 109.5L175 22L87.5 66L0 22L87.5 109.5Z" fill="#FF1111"/>
<path d="M87.4999 0L65.3101 43.8754L87.4999 87.7507L109.69 43.8754L87.4999 0Z" fill="#FAD92E"/>
<path d="M87.4999 87.2493L65.3101 131.125L87.4999 175L109.69 131.125L87.4999 87.2493Z" fill="#FAD92E"/>
<path d="M175 87.4999L131.125 65.3101L87.2493 87.4999L131.125 109.69L175 87.4999Z" fill="#FAD92E"/>
<path d="M87.7507 87.4999L43.8754 65.3101L1.64346e-05 87.4999L43.8754 109.69L87.7507 87.4999Z" fill="#FAD92E"/>
<path d="M77.6941 77.6941L155.694 77.6941L97.0826 97.0827L77.6941 155.694L77.6941 77.6941Z" fill="#FF1111"/>
<path d="M97.3054 97.3054L97.3054 19.3054L77.9168 77.9169L19.3054 97.3054L97.3054 97.3054Z" fill="#FF1111"/>
<path d="M97.3054 77.6941L97.3054 155.694L77.9169 97.0826L19.3054 77.6941L97.3054 77.6941Z" fill="#FF1111"/>
<path d="M77.6941 97.3054L155.694 97.3054L97.0826 77.9168L77.6941 19.3054L77.6941 97.3054Z" fill="#FF1111"/>
<path d="M87.75 46.2521L56.8141 56.5641L46.5021 87.5L56.8141 118.436L87.75 128.748L118.686 118.436L128.998 87.5L118.686 56.5641L87.75 46.2521Z" fill="#9C5C2D"/>
<path d="M56.8141 56.9176L64.4373 80.1417L87.6614 87.7648L80.0382 64.5407L56.8141 56.9176Z" fill="#FAD92E"/>
<path d="M87.485 87.5887L95.1082 110.813L118.332 118.436L110.709 95.2119L87.485 87.5887Z" fill="#FAD92E"/>
<path d="M118.332 56.9176L95.1083 64.5408L87.4852 87.7649L110.709 80.1418L118.332 56.9176Z" fill="#FAD92E"/>
<path d="M87.6613 87.5885L64.4372 95.2117L56.814 118.436L80.0381 110.813L87.6613 87.5885Z" fill="#FAD92E"/>
<path d="M80.5857 87.5L108.086 60L94.2571 87.5L108.086 115L80.5857 87.5Z" fill="#FF1111"/>
<path d="M94.4143 87.5L66.9143 60L80.7429 87.5L66.9143 115L94.4143 87.5Z" fill="#FF1111"/>
<path d="M87.5 80.5857L115 108.086L87.5 94.2571L60 108.086L87.5 80.5857Z" fill="#FF1111"/>
<path d="M87.5 94.4143L115 66.9143L87.5 80.7429L60 66.9143L87.5 94.4143Z" fill="#FF1111"/>
<path d="M73.4167 73.1669L66.25 87.5002L73.4167 101.834L87.75 109L102.083 101.834L109.25 87.5002L102.083 73.1669L87.75 66.0002L73.4167 73.1669Z" fill="#9C5C2D"/>
<path d="M66.3728 87.6232L77.092 93.0444L87.8112 87.6232L77.092 82.202L66.3728 87.6232Z" fill="#FAD92E"/>
<path d="M87.6887 87.6232L98.4079 93.0444L109.127 87.6232L98.4079 82.202L87.6887 87.6232Z" fill="#FAD92E"/>
<path d="M87.7501 66.2458L82.3289 76.965L87.7501 87.6842L93.1713 76.965L87.7501 66.2458Z" fill="#FAD92E"/>
<path d="M87.7501 87.5618L82.3289 98.281L87.7501 109L93.1713 98.281L87.7501 87.5618Z" fill="#FAD92E"/>
<path d="M85.3608 85.1116L104.361 85.1116L90.0836 89.8344L85.3608 104.111L85.3608 85.1116Z" fill="#FF1111"/>
<path d="M90.1382 89.8889L90.1382 70.8892L85.4154 85.1661L71.1384 89.8889L90.1382 89.8889Z" fill="#FF1111"/>
<path d="M90.1382 85.1118L90.1382 104.112L85.4154 89.8346L71.1384 85.1118L90.1382 85.1118Z" fill="#FF1111"/>
<path d="M85.3608 89.8889L104.361 89.8889L90.0836 85.1661L85.3608 70.8892L85.3608 89.8889Z" fill="#FF1111"/>
<path d="M86.9991 77.8365L79.7513 80.2524L77.3353 87.5002L79.7513 94.7481L86.9991 97.164L94.2469 94.7481L96.6629 87.5002L94.247 80.2524L86.9991 77.8365Z" fill="#9C5C2D"/>
<path d="M79.7514 80.3353L81.5374 85.7764L86.9784 87.5624L85.1924 82.1213L79.7514 80.3353Z" fill="#FAD92E"/>
<path d="M86.9372 87.5211L88.7232 92.9622L94.1642 94.7482L92.3782 89.3071L86.9372 87.5211Z" fill="#FAD92E"/>
<path d="M94.1642 80.3353L88.7231 82.1214L86.9371 87.5624L92.3782 85.7764L94.1642 80.3353Z" fill="#FAD92E"/>
<path d="M86.9784 87.5211L81.5373 89.3071L79.7513 94.7482L85.1924 92.9622L86.9784 87.5211Z" fill="#FAD92E"/>
<path d="M87 86.4316L91.25 90.6816L87 88.5445L82.7499 90.6816L87 86.4316Z" fill="#FF1111"/>
<path d="M87 88.5689L91.25 84.3188L87 86.456L82.7499 84.3188L87 88.5689Z" fill="#FF1111"/>
<path d="M88.0686 87.5002L83.8186 91.7502L85.9558 87.5002L83.8186 83.2502L88.0686 87.5002Z" fill="#FF1111"/>
<path d="M85.9314 87.5002L90.1814 91.7502L88.0442 87.5002L90.1814 83.2502L85.9314 87.5002Z" fill="#FF1111"/>
</svg>
