<svg width="175" height="175" viewBox="0 0 175 175" fill="none" xmlns="http://www.w3.org/2000/svg">
<path d="M0.875183 44.9999C0.301277 47.8271 0 50.7534 0 53.75C0 73.0115 10.5361 83.9044 26.4378 100.345C40.6073 114.994 59.0371 134.048 78.0691 167.352C82.1577 174.506 92.8423 174.506 96.9309 167.352C115.963 134.048 134.393 114.994 148.562 100.345C164.464 83.9044 175 73.0115 175 53.75C175 50.7534 174.699 47.8271 174.125 44.9999C170.071 25.0303 152.416 10 131.25 10C107.088 10 87.5 23.0583 87.5 39.1665C87.5 23.0583 67.9125 10 43.75 10C22.5842 10 4.92885 25.0303 0.875183 44.9999Z" fill="#F45353"/>
</svg>
