<svg width="150" height="150" viewBox="0 0 150 150" fill="none" xmlns="http://www.w3.org/2000/svg">
  <path
    d="M79.7442 8.47217L95.5176 44.4487C96.7247 47.2026 99.338 49.0894 102.338 49.3589L140.764 52.8042C145.111 53.437 146.846 58.769 143.693 61.8394L114.748 86.1558C112.404 88.1245 111.338 91.2183 111.982 94.2065L120.397 133.593C121.135 137.917 116.6 141.222 112.709 139.171L79.17 119.531C76.5919 118.019 73.4044 118.019 70.8262 119.531L37.2872 139.16C33.4083 141.199 28.8614 137.906 29.5997 133.582L38.0137 94.1948C38.6465 91.2065 37.5919 88.1128 35.2481 86.144L6.29108 61.8511C3.15045 58.7925 4.88483 53.4487 9.22076 52.8159L47.6465 49.3706C50.6465 49.1011 53.2598 47.2144 54.4669 44.4604L70.2403 8.48389C72.1973 4.54639 77.7989 4.54639 79.7442 8.47217Z"
    fill="#FDD835" />
  <path fill-rule="evenodd" clip-rule="evenodd"
    d="M102.515 47.3669C100.244 47.1627 98.2626 45.7333 97.3476 43.6457L81.5345 7.58417C78.8514 2.16932 71.1369 2.18285 68.4476 7.59373L68.4262 7.63678L52.6334 43.6576C51.7184 45.7452 49.737 47.1745 47.4659 47.3786L8.98516 50.8289L8.93022 50.8369C2.95438 51.709 0.565756 59.0687 4.89399 63.2839L4.94712 63.3356L33.961 87.6763C35.7346 89.1667 36.5357 91.5097 36.0557 93.779L36.0554 93.7805L27.6335 133.204L27.6265 133.245C26.6088 139.206 32.8737 143.738 38.2161 140.93L38.2564 140.909L71.8347 121.257L71.8362 121.256C73.7896 120.111 76.2032 120.111 78.1566 121.256L111.735 140.92L111.775 140.941C117.138 143.767 123.383 139.209 122.366 133.257L122.359 133.216L113.937 93.7887L113.936 93.7849C113.448 91.5253 114.254 89.1817 116.033 87.6871L145.034 63.3234L145.087 63.2721C149.427 59.0448 147.038 51.6966 141.05 50.8251L140.996 50.8171L102.515 47.3669ZM47.6448 49.3706L9.21905 52.8159C4.88312 53.4487 3.14874 58.7925 6.28937 61.8511L35.2464 86.144C37.5901 88.1128 38.6448 91.2065 38.012 94.1948L29.598 133.582C28.8597 137.906 33.4066 141.199 37.2855 139.16L70.8245 119.531C73.4026 118.019 76.5901 118.019 79.1683 119.531L112.707 139.171C116.598 141.222 121.133 137.917 120.395 133.593L111.981 94.2065C111.336 91.2183 112.403 88.1245 114.746 86.1558L143.692 61.8394C146.844 58.7691 145.11 53.437 140.762 52.8042L102.336 49.3589C99.3362 49.0894 96.723 47.2026 95.5159 44.4487L79.7425 8.47217C77.7972 4.54639 72.1956 4.54639 70.2386 8.48389L54.4651 44.4605C53.2581 47.2144 50.6448 49.1011 47.6448 49.3706Z"
    fill="#D2A008" />
  <path
    d="M78.5959 46.6055L75.9241 20.0977C75.8186 18.6211 75.5139 16.0898 77.8811 16.0898C79.7561 16.0898 80.7756 19.9922 80.7756 19.9922L88.7913 41.2734C91.8147 49.3711 90.5725 52.1484 87.6545 53.7891C84.303 55.6641 79.3577 54.1992 78.5959 46.6055Z"
    fill="#FFFF8D" />
  <path
    d="M111.656 83.8008L134.648 65.8594C135.785 64.9101 137.836 63.3984 136.195 61.6758C134.894 60.3164 131.379 62.2734 131.379 62.2734L111.258 70.1367C105.258 72.2109 101.273 75.2812 100.922 79.1484C100.465 84.3047 105.094 88.2773 111.656 83.8008Z"
    fill="#F4B400" />
</svg>