<svg width="175" height="175" viewBox="0 0 175 175" fill="none" xmlns="http://www.w3.org/2000/svg">
<path d="M125.819 136.717C112.676 145.147 97.5992 150.916 81.9571 152.577C55.6631 155.371 32.252 144.801 32.252 144.801C27.102 145.348 23.1481 166.9 14.2235 167.848C5.58675 168.765 0.543491 161.487 0.0475585 156.818C-1.08456 146.161 18.3773 135.693 17.748 129.769C17.748 129.769 13.0244 123.368 11.7247 111.133C8.26336 78.5499 31.8001 52.5414 59.9823 39.812C80.3235 30.6182 125.997 33.9387 138.859 18.8974C143.967 13.0801 146.237 7.95491 154.873 7.03743C166.485 5.80393 173.479 35.4068 174.406 44.1323C178.199 79.8383 164.036 112.47 125.819 136.717Z" fill="#8FD14F"/>
</svg>
