<svg width="150" height="150" viewBox="0 0 150 150" fill="none" xmlns="http://www.w3.org/2000/svg">
<path d="M82.4414 75.5273L75.2109 72.6094L67.1953 77.9063C67.1953 77.9063 69.293 79.7461 69.293 82.3477C69.293 84.9492 67.793 102.809 69.2578 114.563C70.5586 124.969 74.1328 132.457 77.2266 136.523C80.3203 140.59 86.4961 144.984 88.2891 144.984C90.082 144.984 94.3125 141.574 95.7656 136.852C97.2305 132.129 87.3047 133.594 87.3047 133.594C87.3047 133.594 79.7578 129.445 77.8711 115.383C76.418 104.602 76.9453 92.4609 77.0625 87.8906C77.2383 81.0586 82.4414 75.5273 82.4414 75.5273Z" fill="#16A34A"/>
<path d="M33.8787 40.5356C33.8787 40.5356 35.5545 35.7075 27.2577 36.8442C23.8123 37.3129 13.9686 40.0785 12.6092 51.3871C11.4725 60.8207 16.91 65.5317 16.7342 67.8871C16.5116 71.0278 6.74984 75.5864 7.79281 88.5473C8.7889 100.852 20.5897 105.329 26.285 103.372C36.6912 99.7856 33.8787 40.5356 33.8787 40.5356Z" fill="#16A34A"/>
<path d="M64.2288 30.8083C64.2288 30.8083 53.6351 16.0544 57.2093 11.3435C60.1976 7.40599 64.6155 4.30053 72.2913 4.61693C82.932 5.05053 86.6116 14.3787 88.7796 14.7068C89.7757 14.8591 96.5843 9.01146 106.346 11.2966C116.108 13.5818 117.573 22.031 118.053 24.3044C118.534 26.5779 64.2288 30.8083 64.2288 30.8083Z" fill="#16A34A"/>
<path d="M117.737 68.6955C117.737 68.6955 133.347 53.5666 136.933 56.6603C140.507 59.7541 142.78 65.6017 142.3 70.6525C141.327 80.8947 135.796 82.3595 135.96 83.6603C136.124 84.9611 139.862 85.7697 139.698 95.5314C139.558 103.934 131.437 113.59 120.222 114.399C108.995 115.219 114.491 74.0744 117.737 68.6955Z" fill="#16A34A"/>
<path d="M70.4543 67.3362C72.8801 65.3909 69.2707 63.4924 65.6965 58.9456C62.1105 54.387 52.5246 41.8831 52.3605 26.8948C52.2785 19.8987 54.634 14.5315 57.3058 11.2034C59.7551 8.14478 64.1379 8.08619 66.9972 8.35572C80.8254 9.6565 83.8019 24.8557 86.673 25.4299C89.1105 25.9221 97.3371 14.7893 110.275 16.8635C119.064 18.2698 121.829 31.6292 114.939 41.6018C106.97 53.1448 93.1769 61.5706 88.7824 63.844C84.3879 66.1174 83.4152 67.2073 84.2238 69.1643C85.0324 71.1213 87.9855 68.9885 90.5636 67.0549C100.806 59.4143 112.361 52.0901 121.138 51.762C129.915 51.4338 134.966 54.3635 136.911 56.637C138.868 58.9104 139.677 67.2073 136.911 72.5745C134.181 77.8831 127.15 81.6799 126.986 82.9807C126.821 84.2815 133.653 89.9768 132.517 100.383C131.767 107.203 128.122 111.61 125.685 113.227C123.247 114.856 112.946 116.11 105.517 112.254C97.384 108.024 88.4426 96.6448 84.5402 90.2932C80.6379 83.9534 77.8605 77.344 73.9699 77.1213C68.2746 76.7932 61.6066 88.8284 46.6418 97.1252C35.4738 103.313 25.9816 105.422 21.1066 103.465C16.2316 101.508 13.6535 92.262 14.1105 86.2268C15.1066 73.4182 27.3058 71.4612 27.3058 69.0237C27.3058 66.5862 19.5012 61.6995 20.1457 50.4846C20.6965 41.0276 25.1847 37.6409 26.8137 36.9846C28.4426 36.3284 38.6847 35.8479 46.009 41.2151C53.3332 46.5823 58.7004 56.1799 61.9465 59.9182C65.2043 63.6565 68.0168 69.2932 70.4543 67.3362Z" fill="#22C55E"/>
<path d="M69.5642 44.6602C69.5642 44.6602 66.6697 42.1289 64.0564 44.1797C61.8884 45.8789 63.0954 50.0508 64.9001 52.4414C66.6931 54.832 68.8962 56.7773 71.2517 55.6758C73.572 54.5859 72.5642 50.168 72.5642 50.168C72.5642 50.168 74.3571 52.1367 76.9939 52.0898C80.8962 52.0195 82.3845 48.8555 82.3845 48.8555C82.3845 48.8555 82.3845 51.2461 85.0212 52.8047C87.6579 54.3633 90.529 53.168 90.529 53.168C90.529 53.168 89.3337 55.4414 90.7634 56.7656C92.2048 58.0781 94.115 57.1289 96.3884 54.2461C98.6618 51.375 99.8571 48.375 97.4665 46.8164C95.0759 45.2578 91.9587 47.1797 91.9587 47.1797C91.9587 47.1797 93.9157 40.9219 90.1657 39.3984C87.2829 38.2266 85.49 40.8398 85.49 40.8398C85.49 40.8398 84.529 37.2422 81.0603 37.2422C77.5915 37.2422 76.5134 40.5937 76.5134 40.5937C76.5134 40.5937 73.8767 38.2031 71.6032 39.6328C69.3298 41.0625 69.5642 44.6602 69.5642 44.6602Z" fill="#64D68E"/>
<path d="M94.1851 72.8087C94.7008 75.2814 96.9156 75.2814 96.9156 75.2814C96.9156 75.2814 95.2164 75.4571 94.8765 77.1564C94.5367 78.8556 95.2164 79.4532 95.2164 79.4532C95.2164 79.4532 92.4039 78.7735 91.1265 80.9884C90.189 82.6056 91.1265 84.2228 91.1265 84.2228C91.1265 84.2228 89.4273 83.965 88.15 85.922C86.8726 87.879 89.1695 92.297 92.1578 94.6056C95.5679 97.2423 99.9273 99.4923 101.697 96.3048C103.396 93.2345 100.419 90.0821 100.419 90.0821C100.419 90.0821 103.83 91.2775 105.189 88.7228C106.267 86.6954 105.013 84.9728 105.013 84.9728C105.013 84.9728 106.373 85.0548 106.806 83.1798C107.556 79.8985 103.83 79.0079 103.83 79.0079C103.83 79.0079 110.275 79.4415 110.474 73.7228C110.65 68.7775 104.591 69.211 104.591 69.211C104.591 69.211 106.408 66.4337 104.591 64.9571C100.408 61.5587 93.5054 69.504 94.1851 72.8087Z" fill="#64D68E"/>
<path d="M59.4276 65.4839C60.283 63.6909 59.5096 61.394 55.8533 58.6636C51.9627 55.769 49.7244 55.8511 48.5291 57.0464C47.3338 58.2417 48.1072 60.023 48.1072 60.023C48.1072 60.023 45.6346 60.3628 45.4705 62.4956C45.2947 64.6284 47.1697 65.3901 47.1697 65.3901C47.1697 65.3901 44.2752 65.9878 44.2752 68.8003C44.2752 71.6128 46.408 72.3745 46.408 72.3745C46.408 72.3745 42.0604 74.2495 43.4315 77.3198C44.8729 80.5542 51.5291 79.8745 51.5291 79.8745C51.5291 79.8745 44.0291 85.5815 47.2752 89.0737C50.5096 92.5659 62.6033 84.9487 59.9666 80.1323C58.4315 77.3198 55.619 78.3394 55.619 78.3394C55.619 78.3394 57.4119 76.5464 57.3182 74.4253C57.2362 72.2925 54.1658 70.9331 54.1658 70.9331C54.1658 70.9331 55.619 70.1714 55.701 69.0581C55.783 67.9448 54.7635 66.6675 54.7635 66.6675C54.7635 66.6675 58.4901 67.4409 59.4276 65.4839Z" fill="#64D68E"/>
</svg>
