<svg width="150" height="150" viewBox="0 0 150 150" fill="none" xmlns="http://www.w3.org/2000/svg">
  <path
    d="M5.21606 92.2737C8.79028 125.778 33.0364 144.715 74.8606 145.36C116.685 146.004 132.306 125.731 138.775 115.207C146.204 103.102 158.099 46.1955 92.4856 32.8244C67.4192 27.7151 47.9426 31.8869 34.5129 39.4104C10.5481 52.8166 3.71606 78.2463 5.21606 92.2737Z"
    fill="#FF8E00" />
  <path
    d="M134.566 13.1134C134.402 11.4728 128.637 5.70716 113.824 4.71107C99.0117 3.71497 87.9492 10.2892 82.9219 19.5353C79.043 26.672 76.7812 32.5314 76.7812 32.5314L85.9219 33.4103L124.207 20.0275L134.566 13.1134Z"
    fill="#5C6A23" />
  <path
    d="M104.602 21.3398C114.879 17.7305 134.566 13.1133 134.566 13.1133C134.566 13.1133 131.109 20.8477 124.195 27.9258C117.281 35.0039 106.02 42.3398 90.4453 38.4609C84.082 36.8789 79.8633 32.7305 79.8633 32.7305C79.8633 32.7305 89.1328 26.7773 104.602 21.3398Z"
    fill="#767E3A" />
  <path
    d="M65.5206 13.8989C64.6417 15.7739 67.5596 17.2504 69.3643 20.3676C72.6807 26.0864 72.6807 34.1489 72.6807 34.1489C72.6807 34.1489 65.6026 34.8989 65.8253 41.0746C66.0245 46.5707 70.9346 48.8324 76.5948 48.8324C82.7706 48.8324 85.1729 44.2387 84.9503 41.227C84.5987 36.5629 79.7589 34.7582 79.7589 34.7582C79.7589 34.7582 80.4386 24.0707 79.7589 18.727C79.0792 13.3832 78.1768 12.0239 76.5948 11.3442C75.0128 10.6645 66.6573 11.4848 65.5206 13.8989Z"
    fill="#5C6A23" />
  <path
    d="M21.399 91.0312C25.4771 92.3203 29.0162 87.7031 33.6334 78.7969C36.0357 74.1445 41.3912 67.2656 44.0045 64.418C49.5943 58.3359 56.6724 52.0312 52.4185 46.9102C47.8716 41.4492 34.606 47.2266 25.9107 60.1172C17.2154 73.0078 15.4459 89.1562 21.399 91.0312Z"
    fill="#FFBD6F" />
  <path
    d="M98.4855 48.1527C97.8176 50.8246 98.9894 53.0863 100.958 53.2504C103.325 53.4496 104.497 51.1761 104.544 48.8558C104.579 46.9808 103.337 45.7269 101.72 45.5746C100.091 45.434 98.884 46.5355 98.4855 48.1527Z"
    fill="#FF6110" />
  <path
    d="M114.432 59.6603C112.686 61.5353 112.498 65.1329 114.737 66.5274C117.256 68.0978 119.881 66.0235 120.748 64.254C121.428 62.8595 121.803 60.586 120.198 59.1095C118.264 57.3399 115.838 58.1485 114.432 59.6603Z"
    fill="#FF6110" />
  <path
    d="M125.169 67.477C124.724 69.727 125.673 72.3052 128.063 72.6684C130.454 73.0317 132.071 70.7114 132.212 69.0005C132.399 66.8442 131.556 65.1098 129.657 64.3833C127.759 63.6333 125.567 65.438 125.169 67.477Z"
    fill="#FF6110" />
  <path
    d="M126.55 78.5981C124.968 77.8247 121.839 78.4692 120.772 82.2192C119.905 85.2661 120.901 88.2192 123.116 88.7583C126.093 89.4731 128.061 87.1645 128.565 84.5629C129.139 81.645 128.378 79.5004 126.55 78.5981Z"
    fill="#FF6110" />
  <path
    d="M116.451 103.523C118.678 105.234 117.693 108.199 115.994 109.933C114.131 111.855 111.353 112.054 109.982 110.695C108.623 109.336 109.021 106.558 110.943 104.636C112.865 102.714 115.256 102.597 116.451 103.523Z"
    fill="#FF6110" />
  <path
    d="M86.9166 124.067C87.819 125.918 86.5182 128.309 84.7955 129.563C83.4245 130.571 79.8971 131.637 78.233 129.211C76.862 127.219 77.8815 125.122 80.1549 123.411C82.4284 121.7 85.9088 122.004 86.9166 124.067Z"
    fill="#FF6110" />
</svg>