<svg width="175" height="175" viewBox="0 0 175 175" fill="none" xmlns="http://www.w3.org/2000/svg">
<path d="M77.9994 131.203C72.6295 137.633 65.4148 142.25 57.3352 144.427C49.2557 146.605 40.703 146.238 32.8389 143.376C24.9748 140.514 18.1804 135.296 13.3788 128.43C8.5771 121.564 6.00087 113.384 6 105C6 86.31 19.2729 74.2817 36.97 58.24C52.4084 44.24 71.2233 27.1833 87.5 0C103.777 27.1833 122.592 44.24 138.03 58.24C155.727 74.2817 169 86.31 169 105C168.999 113.384 166.423 121.564 161.621 128.43C156.82 135.296 150.025 140.514 142.161 143.376C134.297 146.238 125.744 146.605 117.665 144.427C109.585 142.25 102.371 137.633 97.0006 131.203C102.191 143.001 108.352 154.345 115.42 165.118C118.109 169.202 115.187 175 110.32 175H64.68C59.8016 175 56.8793 169.202 59.5804 165.118C66.6484 154.345 72.8093 143.001 77.9994 131.203Z" fill="#899897"/>
</svg>
