<svg width="150" height="150" viewBox="0 0 150 150" fill="none" xmlns="http://www.w3.org/2000/svg">
<path d="M23.4737 30.2461L10.8057 38.625C10.8057 38.625 8.9893 42.1875 11.4502 54.2461C13.9112 66.3047 25.0205 90.1641 47.3916 112.805C66.6924 132.328 89.2276 141.844 109.044 142.863C128.86 143.883 138.388 131.074 138.388 131.074L23.4737 30.2461Z" fill="#854CE8"/>
<path d="M34.3125 24.1172L23.4727 42.8203C23.4727 42.8203 30.293 67.6523 41.7891 83.1094C54.2578 99.8672 68.5195 114.422 90.8672 125.777C109.934 135.469 127.77 139.148 127.77 139.148C127.77 139.148 139.406 134.496 144.047 121.594C148.465 109.312 142.617 95.8477 134.238 89.3086C125.859 82.7695 109.09 78.7266 93.8086 70.6055C77.6016 61.9922 65.5898 51.9258 54.9727 40.4883C48.3281 33.3398 46.793 30.293 46.5703 29.0039C46.4648 28.3945 46.0781 27.8789 45.4922 27.6914L34.3125 24.1172Z" fill="#985DFF"/>
<path d="M26.6133 44.5431L25.6641 51.2697C25.6641 51.2697 27.3867 53.5548 29.4492 53.379C31.5117 53.2033 34.6875 47.8947 35.4844 44.2736C36.6563 38.9767 36.0234 36.0236 36.0234 36.0236C36.0234 36.0236 40.1484 38.1798 46.3359 37.2775C52.5234 36.3751 55.6641 32.883 56.4727 31.09C57.2812 29.297 57.1055 27.3165 56.2031 26.8712C55.3008 26.4259 50.9062 28.3947 50.9062 28.3947L36.9141 27.8556L23.6367 31.7111L26.6133 44.5431Z" fill="#BDCF46"/>
<path d="M3.51597 54.3867C3.51597 54.3867 1.65269 55.0898 2.21519 57.1523C2.61363 58.582 6.03551 60.8438 10.5941 58.5586C15.1527 56.2734 18.0589 50.2148 19.1957 47.3438C21.0707 42.5859 21.891 39.3164 21.891 39.3164L15.5628 35.5664L9.93785 49.1016C9.93785 49.1016 7.4066 53.3789 3.51597 54.3867Z" fill="#BDCF46"/>
<path d="M12.9024 23.6719C12.9024 23.6719 9.10551 17.4259 8.68364 13.6993C8.33208 10.5352 9.80864 8.5782 10.5704 7.60554C11.7422 6.10554 14.1915 5.13289 15.7969 5.98836C17.7891 7.04304 17.7657 9.05867 19.0665 11.6719C20.3672 14.2852 22.6055 18.2227 22.6055 18.2227C22.6055 18.2227 27.1055 16.793 33.6329 19.0548C40.1602 21.3165 43.043 24.2579 47.0508 25.3946C51.0586 26.5313 55.9571 25.0313 56.2149 26.8829C56.4727 28.7344 50.0274 32.5548 44.4493 32.8126C38.8711 33.0704 35.3907 29.9415 33.4688 31.1602C31.5469 32.379 33.0469 39.8087 31.3243 45.1173C29.9532 49.336 26.5665 51.4571 25.6875 51.3399C25.5352 51.3165 21.6094 45.2813 20.836 43.629C20.0508 41.9766 18.5743 37.793 16.3946 41.0157C14.2149 44.2384 14.6719 49.1134 10.3829 52.8634C7.20708 55.6407 4.07817 55.3946 3.37505 54.6329C3.15239 54.3868 6.16411 52.2891 6.16411 49.7579C6.16411 47.2266 5.43755 37.6055 6.75005 32.8946C8.48442 26.6251 12.9024 23.6719 12.9024 23.6719Z" fill="#6F9823"/>
</svg>
