<svg width="175" height="175" viewBox="0 0 175 175" fill="none" xmlns="http://www.w3.org/2000/svg">
<path d="M145.604 9.56095C151.1 10.4737 157.627 17.5475 147.894 22.1112C138.161 26.6749 93.5026 50.6344 140.451 56.9095C162.059 59.7976 161.635 79.7281 140.451 89.9964C119.267 100.265 145.604 108.822 151.902 108.822C158.2 108.822 200.568 128.788 151.902 149.895C103.236 171.002 28.2329 165.298 21.3624 165.298C14.4919 165.298 5.33123 152.747 17.3546 149.895C26.9733 147.613 43.5007 139.817 50.562 136.204C37.9661 132.781 19.0722 125.936 19.0722 108.822C19.0722 95.1306 34.7216 83.7213 42.5463 79.7281C25.3701 77.0659 -6.92127 66.3792 1.32333 44.9298C11.6291 18.1179 51.707 12.4133 72.3185 9.56095C92.93 6.70863 138.733 8.42002 145.604 9.56095Z" fill="#A253F3"/>
</svg>
