<svg width="150" height="150" viewBox="0 0 150 150" fill="none" xmlns="http://www.w3.org/2000/svg">
  <path
    d="M141.142 60.0352C143.369 55.418 144.611 50.25 144.611 44.7773C144.611 25.3242 128.849 9.5625 109.396 9.5625C104.838 9.5625 100.478 10.4414 96.4703 12.0234C91.3492 7.55859 84.6344 4.80469 77.3453 4.80469C68.4391 4.80469 60.4703 8.78906 55.1969 15C51.0953 12.7734 46.4078 11.4844 41.486 11.4844C25.7828 11.6016 13.0094 24.2578 13.0094 39.9609C13.0094 45.8203 14.7672 51.3281 17.9313 55.8984C12.0719 60.5859 7.97033 67.5 7.15002 75.5859C5.62658 91.2891 17.2281 105.469 33.1656 106.992C36.9156 107.344 40.4313 106.992 43.8297 106.055C45.1188 118.594 55.6656 128.32 68.5563 128.32C76.7594 128.32 84.025 124.336 88.4781 118.242C92.6969 121.523 97.9703 123.633 103.83 123.633C116.72 123.633 127.384 113.672 128.322 101.133C138.283 96.5625 145.314 86.4844 145.314 74.7656C145.314 69.3867 143.755 64.3125 141.142 60.0352Z"
    fill="white" />
  <path fill-rule="evenodd" clip-rule="evenodd"
    d="M54.5102 11.3114C60.2855 5.4614 68.3907 1.80469 77.3456 1.80469C84.7534 1.80469 91.612 4.37924 97.0496 8.61439C100.926 7.2891 105.079 6.5625 109.396 6.5625C130.506 6.5625 147.611 23.6674 147.611 44.7773C147.611 50.1394 146.51 55.2404 144.512 59.8759C146.907 64.2894 148.314 69.3851 148.314 74.7656C148.314 87.0955 141.272 97.7569 131.127 103.095C129.261 116.38 117.678 126.633 103.83 126.633C98.3105 126.633 93.2752 124.969 89.0359 122.295C83.996 127.829 76.6832 131.32 68.5565 131.32C55.2696 131.32 44.1988 122.092 41.3876 109.67C38.6533 110.136 35.8315 110.255 32.8858 109.979L32.8804 109.979C15.2949 108.298 2.48039 92.6531 4.16426 75.2963L4.16557 75.2831C4.97381 67.3162 8.66698 60.3862 14.0283 55.3207C11.4261 50.742 10.0096 45.4835 10.0096 39.9609C10.0096 22.5807 24.1417 8.61373 41.4638 8.48446L41.475 8.48438H41.4862C46.1017 8.48438 50.5216 9.50842 54.5102 11.3114ZM77.3456 7.80469C69.3489 7.80469 62.2064 11.3797 57.484 16.9417L55.9071 18.799L53.7658 17.6366C50.0819 15.6367 45.8877 14.4863 41.4974 14.4844C27.4184 14.5954 16.0096 25.9386 16.0096 39.9609C16.0096 45.2135 17.5833 50.125 20.3981 54.1908L21.9914 56.4924L19.8056 58.241C14.5373 62.4556 10.8712 68.6495 10.1356 75.8821C8.77658 89.9275 19.1619 102.637 33.4468 104.005C36.8231 104.322 39.9734 104.007 43.0321 103.163L46.4515 102.219L46.8142 105.748C47.9473 116.77 57.2173 125.32 68.5565 125.32C75.7689 125.32 82.148 121.82 86.0562 116.472L87.8801 113.976L90.3202 115.874C94.0749 118.794 98.7128 120.633 103.83 120.633C115.164 120.633 124.511 111.869 125.33 100.909L125.462 99.1442L127.071 98.4061C136.021 94.2999 142.314 85.2531 142.314 74.7656C142.314 69.9691 140.924 65.4323 138.582 61.5992L137.73 60.2044L138.44 58.7321C140.474 54.5139 141.611 49.7906 141.611 44.7773C141.611 26.9811 127.193 12.5625 109.396 12.5625C105.226 12.5625 101.24 13.366 97.5721 14.8139L95.8746 15.484L94.4991 14.2847C89.8923 10.2683 83.8685 7.80469 77.3456 7.80469Z"
    fill="black" />
  <path
    d="M28.4767 114.024C23.2033 113.438 18.5158 117.305 17.9298 122.578C17.3439 127.852 21.2111 132.539 26.4845 133.008C31.7579 133.594 36.4454 129.727 37.0314 124.453C37.6173 119.18 33.7501 114.492 28.4767 114.024Z"
    fill="white" />
  <path fill-rule="evenodd" clip-rule="evenodd"
    d="M28.7008 111.785C35.2098 112.377 39.9933 118.174 39.2679 124.702C38.55 131.163 32.7983 135.96 26.261 135.247C19.752 134.655 14.9685 128.859 15.6938 122.33C16.4117 115.869 22.1634 111.072 28.7008 111.785ZM28.2285 116.26C24.2292 115.816 20.6194 118.749 20.1663 122.827C19.7207 126.837 22.6587 130.409 26.684 130.767L26.7086 130.769L26.7332 130.772C30.7326 131.217 34.3423 128.283 34.7954 124.205C35.241 120.195 32.3031 116.623 28.2777 116.265L28.2531 116.263L28.2285 116.26Z"
    fill="black" />
  <path
    d="M10.5477 133.945C7.03208 133.594 3.86802 136.172 3.51646 139.687C3.1649 143.203 5.74302 146.25 9.25865 146.601C12.7743 146.953 15.9383 144.375 16.2899 140.859C16.6415 137.461 14.0633 134.297 10.5477 133.945Z"
    fill="white" />
  <path fill-rule="evenodd" clip-rule="evenodd"
    d="M1.27803 139.464C1.75377 134.706 6.0252 131.232 10.772 131.706C15.4998 132.179 19.0088 136.425 18.5288 141.087C18.0511 145.842 13.7807 149.315 9.03517 148.84C4.3262 148.369 0.798551 144.258 1.27803 139.464ZM10.3242 136.184C8.03978 135.956 5.98308 137.638 5.7557 139.911C5.53205 142.148 7.16065 144.13 9.48293 144.363C11.7674 144.591 13.8241 142.909 14.0515 140.635L14.0522 140.628C14.273 138.494 12.6264 136.414 10.3242 136.184Z"
    fill="black" />
</svg>