<svg width="175" height="175" viewBox="0 0 175 175" fill="none" xmlns="http://www.w3.org/2000/svg">
<path d="M21.3864 80.3406L78.0625 4.77294C79.1739 3.29099 80.6151 2.08817 82.2719 1.25973C83.9287 0.431296 85.7556 0 87.608 0C89.4603 0 91.2872 0.431296 92.944 1.25973C94.6008 2.08817 96.042 3.29099 97.1534 4.77294L153.83 80.3406C155.379 82.406 156.216 84.9182 156.216 87.5C156.216 90.0818 155.379 92.594 153.83 94.6594L97.1534 170.227C96.042 171.709 94.6008 172.912 92.944 173.74C91.2872 174.569 89.4603 175 87.608 175C85.7556 175 83.9287 174.569 82.2719 173.74C80.6151 172.912 79.1739 171.709 78.0625 170.227L21.3864 94.6594C19.8374 92.594 19 90.0818 19 87.5C19 84.9182 19.8374 82.406 21.3864 80.3406Z" fill="#FF8B37"/>
</svg>
