<svg width="175" height="175" viewBox="0 0 175 175" fill="none" xmlns="http://www.w3.org/2000/svg">
  <path
    d="M93.8802 29.4826C97.3438 27.3559 99.6528 23.4974 99.6528 19.1528C99.6528 12.4384 94.2144 7 87.5 7C80.7856 7 75.3472 12.4384 75.3472 19.1528C75.3472 23.5278 77.6562 27.3559 81.1198 29.4826L64.9054 57.2005C62.1406 62.73 54.9705 64.3099 50.1398 60.4514L21.875 45.8889C23.3941 43.8533 24.3056 41.3316 24.3056 38.5972C24.3056 31.8828 18.8672 26.4444 12.1528 26.4444C5.43837 26.4444 0 31.8828 0 38.5972C0 45.3116 5.43837 50.75 12.1528 50.75C12.2135 50.75 12.3047 50.75 12.3655 50.75L34.5 156.519C36.171 165.755 44.2222 172.5 53.6406 172.5H122.865C132.253 172.5 140.304 165.786 142.005 156.519L162.635 50.75C162.695 50.75 162.786 50.75 162.847 50.75C169.562 50.75 175 45.3116 175 38.5972C175 31.8828 169.562 26.4444 162.847 26.4444C156.133 26.4444 150.694 31.8828 150.694 38.5972C150.694 41.3316 151.606 43.8533 153.125 45.8889L126.055 60.72C121.224 64.5785 114.054 62.7295 111.289 57.2L93.8802 29.4826Z"
    fill="#FAC710" />
</svg>