<svg width="150" height="150" viewBox="0 0 150 150" fill="none" xmlns="http://www.w3.org/2000/svg">
<path d="M62.495 70.8327C61.6283 70.8327 60.7492 70.5618 59.9992 69.9993C41.095 55.8202 28.995 31.6035 29.1658 8.30352C29.1825 5.99935 30.8825 4.24102 33.3617 4.16602C35.6658 4.18268 37.5158 6.06185 37.4992 8.36185C37.345 29.1118 48.1409 50.691 64.9992 63.3327C66.8409 64.7118 67.2117 67.3243 65.8325 69.166C65.0159 70.2577 63.7617 70.8327 62.495 70.8327Z" fill="#424242"/>
<path d="M66.6677 79.1657C65.0969 79.1657 28.0302 78.7574 12.8385 43.3074C11.9302 41.1907 12.9135 38.7407 15.026 37.8366C17.1427 36.9282 19.5927 37.9116 20.4969 40.0241C33.551 70.4824 65.3219 70.8324 66.6677 70.8324C68.9677 70.8324 70.8344 72.6991 70.8344 74.9991C70.8344 77.3032 68.9677 79.1657 66.6677 79.1657Z" fill="#424242"/>
<path d="M16.6657 120.834C16.2324 120.834 15.7866 120.763 15.3491 120.617C13.1657 119.892 11.9866 117.534 12.7157 115.346C18.4991 97.9965 32.3782 77.6215 65.6741 79.1298C66.0991 79.1506 66.4366 79.1673 66.6657 79.1673C68.9657 79.1673 70.8324 81.0298 70.8324 83.334C70.8324 85.6381 68.9657 87.5006 66.6657 87.5006C66.3491 87.5006 65.8866 87.4798 65.2991 87.4548C42.7532 86.4673 27.7116 96.7131 20.6199 117.984C20.0366 119.73 18.4116 120.834 16.6657 120.834Z" fill="#424242"/>
<path d="M33.3346 149.999C31.0346 149.999 29.168 148.137 29.168 145.833C29.168 127.104 42.618 92.9035 64.5221 79.7618C66.4971 78.5785 69.0555 79.216 70.2388 81.191C71.4221 83.166 70.7846 85.7243 68.8096 86.9077C49.9888 98.1993 37.5013 129.854 37.5013 145.833C37.5013 148.137 35.6346 149.999 33.3346 149.999ZM87.5055 70.8327C86.2346 70.8327 84.9888 70.2577 84.168 69.166C82.7846 67.3243 83.1596 64.7118 85.0013 63.3327C101.86 50.6868 112.655 29.1118 112.501 8.36185C112.485 6.06185 114.335 4.18268 116.635 4.16602H116.668C118.955 4.16602 120.818 6.01185 120.835 8.30352C121.01 31.6035 108.905 55.8202 90.0013 69.9993C89.2513 70.5618 88.3763 70.8327 87.5055 70.8327Z" fill="#424242"/>
<path d="M83.3346 79.1659C81.0305 79.1659 79.168 77.3034 79.168 74.9993C79.168 72.6993 81.0305 70.8326 83.3346 70.8326C84.6805 70.8326 116.451 70.4826 129.505 40.0243C130.414 37.9118 132.872 36.9326 134.972 37.8368C137.089 38.7409 138.068 41.1909 137.16 43.3076C121.968 78.7576 84.9055 79.1659 83.3346 79.1659Z" fill="#424242"/>
<path d="M133.335 120.833C131.589 120.833 129.964 119.729 129.385 117.983C122.293 96.7123 107.33 86.4873 84.7013 87.454C84.1138 87.479 83.6513 87.4998 83.3346 87.4998C81.0305 87.4998 79.168 85.6373 79.168 83.3332C79.168 81.029 81.0305 79.1665 83.3346 79.1665C83.5638 79.1665 83.9013 79.1498 84.3263 79.129C117.572 77.629 131.505 97.9957 137.285 115.346C138.014 117.529 136.835 119.891 134.651 120.616C134.214 120.762 133.768 120.833 133.335 120.833Z" fill="#424242"/>
<path d="M116.667 149.999C114.363 149.999 112.5 148.137 112.5 145.833C112.5 129.853 100.013 98.1993 81.1878 86.9035C79.2128 85.7201 78.5753 83.1618 79.7586 81.1868C80.9419 79.216 83.4961 78.5743 85.4753 79.7576C107.379 92.9035 120.834 127.103 120.834 145.833C120.834 148.137 118.971 149.999 116.667 149.999Z" fill="#424242"/>
<path d="M75 133.332C88.8071 133.332 100 120.662 100 105.032C100 89.4028 88.8071 76.7324 75 76.7324C61.1929 76.7324 50 89.4028 50 105.032C50 120.662 61.1929 133.332 75 133.332Z" fill="#424242"/>
<path d="M74.9987 95.834C84.2034 95.834 91.6654 84.6411 91.6654 70.834C91.6654 57.0269 84.2034 45.834 74.9987 45.834C65.794 45.834 58.332 57.0269 58.332 70.834C58.332 84.6411 65.794 95.834 74.9987 95.834Z" fill="#424242"/>
<path d="M66.6654 58.3333C65.5987 58.3333 64.532 57.925 63.7195 57.1125C58.332 51.725 58.332 46.15 58.332 41.6667C58.332 39.3667 60.1987 37.5 62.4987 37.5C64.7987 37.5 66.6654 39.3667 66.6654 41.6667C66.6654 45.5 66.6654 48.275 69.6112 51.2208C71.2404 52.85 71.2404 55.4833 69.6112 57.1125C68.7987 57.925 67.732 58.3333 66.6654 58.3333ZM83.332 58.3333C82.2654 58.3333 81.1987 57.925 80.3862 57.1125C78.757 55.4833 78.757 52.85 80.3862 51.2208C83.332 48.275 83.332 45.5 83.332 41.6667C83.332 39.3667 85.1945 37.5 87.4987 37.5C89.8029 37.5 91.6654 39.3667 91.6654 41.6667C91.6654 46.15 91.6654 51.725 86.2779 57.1125C85.4654 57.925 84.3987 58.3333 83.332 58.3333Z" fill="#424242"/>
</svg>
