<svg width="152" height="151" viewBox="0 0 152 151" fill="none" xmlns="http://www.w3.org/2000/svg">
<path d="M70.7943 9.1405C70.7412 9.20587 70.69 9.27219 70.6407 9.3394C68.7622 11.7758 68.2857 14.9766 69.2588 17.8053C69.7923 19.3728 70.0806 21.0376 70.0806 22.8211C70.0806 31.284 63.2424 38.1408 54.813 38.1628H50.7056C38.9744 38.1628 29.4556 47.7059 29.4556 59.4363C29.4556 62.2112 29.9892 64.8665 30.9584 67.3011C20.7603 69.7832 13.2056 78.98 13.2056 89.9493C13.2056 94.4875 14.5055 98.7164 16.7406 102.292C9.76291 106.318 5.08057 113.857 5.08057 122.496C5.08057 135.371 15.4882 145.803 28.3618 145.803H121.799C134.673 145.803 145.081 135.371 145.081 122.496C145.081 113.858 140.398 106.318 133.421 102.292C135.656 98.7165 136.956 94.4876 136.956 89.9493C136.956 78.9798 129.401 69.783 119.203 67.3011C120.172 64.8664 120.705 62.2112 120.705 59.4363C120.705 49.347 113.664 40.8754 104.229 38.7029C104.38 37.494 104.456 36.2663 104.456 35.0261C104.456 20.1425 93.3938 7.83422 79.0455 5.89251C75.8805 5.44276 72.7636 6.71766 70.7943 9.1405Z" fill="#3B3429"/>
<path d="M70.7943 9.14042C70.7412 9.2058 70.69 9.27213 70.6407 9.33934C68.7621 11.7759 68.2856 14.977 69.259 17.8058C69.7924 19.3731 70.0806 21.0377 70.0806 22.821C70.0806 31.2839 63.2424 38.1407 54.813 38.1627H50.7056C38.9744 38.1627 29.4556 47.7058 29.4556 59.4362C29.4556 62.2111 29.9892 64.8664 30.9584 67.301C20.7603 69.7831 13.2056 78.9799 13.2056 89.9492C13.2056 94.4874 14.5055 98.7163 16.7406 102.292C9.76291 106.318 5.08057 113.857 5.08057 122.496C5.08057 135.371 15.4882 145.803 28.3618 145.803H121.799C134.673 145.803 145.081 135.371 145.081 122.496C145.081 113.858 140.398 106.318 133.421 102.292C135.656 98.7164 136.956 94.4875 136.956 89.9492C136.956 78.9797 129.401 69.7829 119.203 67.301C120.172 64.8663 120.705 62.2111 120.705 59.4362C120.705 49.3469 113.664 40.8753 104.229 38.7028C104.38 37.4939 104.456 36.2662 104.456 35.026C104.456 20.1424 93.3938 7.83411 79.0454 5.89243C75.8804 5.44271 72.7636 6.71761 70.7943 9.14042Z" fill="#CDAE81" stroke="#3B3429" stroke-width="10" stroke-linejoin="round"/>
</svg>
