<svg width="150" height="150" viewBox="0 0 150 150" fill="none" xmlns="http://www.w3.org/2000/svg">
  <path
    d="M71.9635 17.0857C71.9635 17.0857 74.0729 6.85526 76.3229 6.2576C78.5846 5.65995 88.4401 7.79276 93.2799 10.3592C100.042 13.9334 104.214 19.8982 105.21 27.1639C106.264 34.9451 103.253 41.4607 103.253 41.4607C103.253 41.4607 110.319 37.2537 118.745 38.0037C127.171 38.7537 133.487 42.8201 135.901 45.8318C138.303 48.8435 141.62 52.1482 141.163 53.6599C140.706 55.1599 131.987 60.5857 132.432 61.9334C132.889 63.2928 143.12 62.531 144.163 64.3357C145.217 66.1404 147.327 77.7303 139.651 86.0037C131.975 94.2771 124.452 95.4842 124.452 95.4842C124.452 95.4842 132.046 102.621 132.444 112.371C132.772 120.351 130.628 125.121 126.268 126.785C121.909 128.437 113.776 123.176 113.776 123.176C113.776 123.176 120.842 135.808 117.69 137.765C114.526 139.722 112.967 136.23 111.667 136.558C110.6 136.828 112.417 139.418 110.014 141.679C107.612 143.941 97.2291 145.441 88.0534 140.472C78.8776 135.504 76.0182 127.687 76.0182 127.687C76.0182 127.687 73.5455 137.179 62.2604 141.996C50.9752 146.812 42.7604 140.918 41.2604 140.015C39.7604 139.113 40.358 131.894 40.6627 130.687C40.9674 129.48 42.3151 126.621 41.4127 126.023C40.5104 125.426 37.4987 129.633 35.3893 130.992C33.2799 132.351 30.5729 133.851 27.8659 131.59C25.1588 129.328 18.6901 121.804 20.3424 111.726C21.9948 101.648 27.7135 95.9295 27.7135 95.9295C27.7135 95.9295 15.6784 94.8748 9.80727 84.6443C3.93617 74.4139 4.70961 64.1834 5.7643 62.824C6.81898 61.4646 15.8424 61.324 15.8424 61.324C15.8424 61.324 7.2643 56.3553 8.16664 52.4529C9.06898 48.5388 13.4284 51.5506 14.6354 50.3435C15.8424 49.1365 11.5651 44.5662 14.9401 42.1756C17.4713 40.3826 21.9245 37.0428 30.4323 36.3514C39.3971 35.6131 45.6315 40.1131 45.6315 40.1131C45.6315 40.1131 41.7995 33.6326 43.3815 26.2732C44.6354 20.449 48.9479 15.4451 53.0026 12.5857C57.0573 9.72635 62.483 7.46463 64.8854 7.46463C67.2877 7.46463 71.9635 17.0857 71.9635 17.0857Z"
    fill="#FF94CD" />
  <path
    d="M93.3744 54.3398C94.9915 56.2031 98.4017 53.6601 100.64 49.8632C102.351 46.9687 104.308 42.0234 103.617 41.414C102.925 40.8046 97.5931 44.9531 95.7884 47.0038C93.9954 49.0663 92.097 52.8632 93.3744 54.3398Z"
    fill="#FF79C5" />
  <path
    d="M102.445 90.6207C102.012 93.3863 108.902 95.3434 112.57 95.777C116.051 96.1871 124.441 96.6559 124.465 95.4723C124.5 94.2887 117.844 89.6832 112.57 88.5699C107.941 87.5973 102.82 88.2653 102.445 90.6207Z"
    fill="#FF79C5" />
  <path
    d="M76.4778 108.269C74.1223 108.129 73.2434 113.613 73.677 117.832C74.1106 122.051 75.013 127.558 76.0208 127.664C77.0286 127.769 78.7747 121.676 79.2083 115.968C79.4778 112.383 78.5872 108.398 76.4778 108.269Z"
    fill="#FF79C5" />
  <path
    d="M27.7253 95.9298C27.8894 96.715 36.0222 96.715 40.3699 95.4728C44.7175 94.2306 47.448 91.6876 46.9558 89.8244C46.4636 87.9611 41.0027 88.4884 37.9441 89.6369C33.9714 91.1251 27.573 95.1564 27.7253 95.9298Z"
    fill="#FF79C5" />
  <path
    d="M46.088 40.5473C45.1622 41.2269 48.1388 46.8871 50.131 49.3129C52.1232 51.7387 55.2286 54.4105 56.7755 53.7191C58.3341 53.0394 56.9044 48.1293 53.4825 44.8363C51.8302 43.2426 47.0255 39.8676 46.088 40.5473Z"
    fill="#FF79C5" />
  <path
    d="M91.8745 53.8941C89.7417 52.7925 83.0503 61.8159 75.2456 61.4995C67.4409 61.1831 59.4018 52.9097 57.9839 54.1753C56.5659 55.4409 62.2612 64.5816 59.2846 73.5113C56.5659 81.6792 47.0268 87.1167 48.0581 89.1324C49.019 91.0191 58.2651 87.105 65.9526 90.9839C74.9175 95.5191 73.2065 107.097 76.3589 107.179C79.5112 107.261 78.1167 97.0777 85.8979 92.1675C93.3862 87.4331 101.378 91.1128 102.058 88.6988C102.843 85.8628 92.6831 82.3589 90.562 72.6675C88.0893 61.4761 94.0893 55.0308 91.8745 53.8941Z"
    fill="#BF044B" />
  <path
    d="M69.9954 68.9418C68.3899 69.4809 64.2298 79.0082 64.886 80.1801C65.5423 81.3519 74.0852 88.723 76.3469 88.723C78.6087 88.723 86.0501 81.5746 86.1204 80.473C86.1907 79.3832 82.4758 69.6684 81.2337 68.9418C79.9915 68.2152 71.5305 68.4262 69.9954 68.9418Z"
    fill="#F2C559" />
  <path
    d="M80.6265 63.3751C78.7866 65.0861 78.6109 68.3673 80.8374 70.2072C83.2163 72.1642 86.4507 71.4259 87.8218 69.5158C89.0288 67.8517 89.146 65.2853 87.1304 63.4806C85.8882 62.3673 82.9585 61.2072 80.6265 63.3751Z"
    fill="#FDE1B1" />
  <path
    d="M83.5302 81.6911C83.2138 84.7614 85.8037 87.0934 88.3935 87.0348C91.7802 86.9645 93.0341 84.1403 92.999 82.2184C92.9404 79.6286 91.1474 77.402 88.288 77.5075C85.4287 77.613 83.7998 79.1013 83.5302 81.6911Z"
    fill="#FDE1B1" />
  <path
    d="M76.2312 87.1878C73.9577 87.2464 71.5788 88.7699 71.6257 92.1097C71.6726 95.18 74.0632 96.5511 76.4421 96.5511C78.821 96.5511 80.778 94.8519 80.778 91.9456C80.778 89.0394 78.6687 87.1292 76.2312 87.1878Z"
    fill="#FDE1B1" />
  <path
    d="M61.7344 77.2969C58.3477 77.2969 56.918 79.6289 56.918 82.2773C56.918 84.9258 58.875 86.8477 62.0039 86.7188C64.6992 86.6133 66.375 84.3281 66.1289 81.7969C65.8594 79.043 64.5938 77.2969 61.7344 77.2969Z"
    fill="#FDE1B1" />
  <path
    d="M64.0562 62.7424C62.1108 64.6292 62.0405 67.8753 64.1147 69.5745C65.7319 70.9104 68.6147 71.3792 70.5132 69.4104C72.4233 67.4534 72.0952 64.6526 70.4077 63.012C68.7202 61.3596 65.9663 60.8909 64.0562 62.7424Z"
    fill="#FDE1B1" />
</svg>