<svg width="151" height="150" viewBox="0 0 151 150" fill="none" xmlns="http://www.w3.org/2000/svg">
<path d="M65.8643 125.522C67.2832 125.77 68.7212 125.962 70.176 126.095C70.1756 126.133 70.1755 126.171 70.1755 126.209C70.1755 133.328 75.9466 139.099 83.0657 139.099C89.8773 139.099 95.455 133.816 95.9239 127.123C97.2766 136.447 105.302 143.608 115.001 143.608C125.647 143.608 134.278 134.978 134.278 124.331C134.278 114.666 127.165 106.662 117.888 105.268C118.868 103.993 119.792 102.674 120.657 101.312C123.155 102.876 126.11 103.782 129.278 103.782C138.264 103.782 145.549 96.497 145.549 87.5104C145.549 78.5238 138.264 71.2387 129.278 71.2387C129.187 71.2387 129.096 71.2395 129.005 71.241C128.906 66.8512 128.281 62.5916 127.192 58.5223C127.871 58.6361 128.567 58.6953 129.278 58.6953C136.19 58.6953 141.793 53.0924 141.793 46.1809C141.793 39.2693 136.19 33.6664 129.278 33.6664C124.53 33.6664 120.399 36.311 118.279 40.2075C117.666 39.3902 117.03 38.5909 116.372 37.8105C123.233 35.8987 128.266 29.6044 128.266 22.1345C128.266 13.1479 120.981 5.86278 111.995 5.86278C103.37 5.86278 96.3121 12.5734 95.7581 21.0584C92.887 16.4474 87.7745 13.3769 81.9377 13.3769C77.0616 13.3769 72.6899 15.524 69.7126 18.9106C68.8158 19.001 67.9255 19.1134 67.0424 19.2473C67.2747 18.4976 67.3998 17.7007 67.3998 16.8745C67.3998 12.4531 63.8155 8.86875 59.394 8.86875C54.9726 8.86875 51.3883 12.4531 51.3883 16.8745C51.3883 19.2804 52.4495 21.4384 54.1294 22.9059C51.9193 23.8454 49.785 24.9282 47.7384 26.1426C47.82 25.444 47.862 24.7333 47.862 24.0128C47.862 13.9887 39.7358 5.86255 29.7117 5.86255C19.6876 5.86255 11.5614 13.9887 11.5614 24.0128C11.5614 31.6826 16.3186 38.2412 23.0433 40.899C20.1679 43.1919 18.3252 46.7252 18.3252 50.6888C18.3252 54.5119 20.0379 57.929 22.7339 60.2224C22.5386 61.0609 22.3629 61.9068 22.2073 62.7596C20.6316 61.9355 18.839 61.4695 16.9376 61.4695C10.6486 61.4695 5.55029 66.5678 5.55029 72.8568C5.55029 79.1458 10.6486 84.2441 16.9376 84.2441C18.8909 84.2441 20.7293 83.7523 22.3358 82.8857C23.471 88.6836 25.5366 94.1482 28.3709 99.1176C18.5283 99.986 10.8098 108.251 10.8098 118.32C10.8098 128.966 19.4406 137.597 30.0872 137.597C37.1744 137.597 43.3683 133.773 46.7177 128.075C48.0953 131.875 51.7372 134.591 56.0132 134.591C61.1973 134.591 65.4493 130.6 65.8643 125.522ZM95.8379 122.216C95.781 122.737 95.7449 123.265 95.7304 123.798C95.6404 123.323 95.5243 122.857 95.3838 122.402C95.5355 122.341 95.6869 122.279 95.8379 122.216Z" fill="#072D2E" stroke="#072D2E" stroke-width="10"/>
<path d="M42.8619 24.0128C42.8619 31.2755 36.9743 37.1632 29.7116 37.1632C22.4489 37.1632 16.5613 31.2755 16.5613 24.0128C16.5613 16.7501 22.4489 10.8625 29.7116 10.8625C36.9743 10.8625 42.8619 16.7501 42.8619 24.0128Z" fill="#12CDD4"/>
<path d="M123.266 22.1345C123.266 28.3596 118.22 33.4061 111.995 33.4061C105.77 33.4061 100.723 28.3596 100.723 22.1345C100.723 15.9093 105.77 10.8628 111.995 10.8628C118.22 10.8628 123.266 15.9093 123.266 22.1345Z" fill="#12CDD4"/>
<path d="M62.3997 16.8746C62.3997 18.5347 61.054 19.8804 59.3939 19.8804C57.7339 19.8804 56.3882 18.5347 56.3882 16.8746C56.3882 15.2146 57.7339 13.8689 59.3939 13.8689C61.054 13.8689 62.3997 15.2146 62.3997 16.8746Z" fill="#12CDD4"/>
<path d="M75.1751 121.324C75.7499 121.324 76.3223 121.315 76.8922 121.295C75.8177 122.643 75.1755 124.351 75.1755 126.209C75.1755 130.567 78.708 134.099 83.0657 134.099C87.4233 134.099 90.9558 130.567 90.9558 126.209C90.9558 123.529 89.6201 121.162 87.5783 119.736C101.746 116.027 113.403 106.117 119.476 93.0798C121.415 96.4855 125.078 98.7822 129.278 98.7822C135.503 98.7822 140.549 93.7356 140.549 87.5105C140.549 81.2853 135.503 76.2388 129.278 76.2388C127.267 76.2388 125.379 76.7653 123.745 77.688C123.926 75.977 124.019 74.2397 124.019 72.4806C124.019 51.7507 111.105 34.037 92.8832 26.9456C91.6723 22.0259 87.2311 18.377 81.9377 18.377C77.8889 18.377 74.3387 20.5117 72.3512 23.717C56.9448 24.5952 43.4499 32.6138 35.1244 44.5149C33.909 43.6698 32.4322 43.1744 30.8397 43.1744C26.6896 43.1744 23.3252 46.5388 23.3252 50.6889C23.3252 54.0442 25.5243 56.8859 28.5598 57.8513C27.1118 62.4701 26.3312 67.3842 26.3312 72.4806C26.3312 99.4564 48.1994 121.324 75.1751 121.324Z" fill="#12CDD4"/>
<path d="M136.793 46.181C136.793 50.3311 133.428 53.6954 129.278 53.6954C125.128 53.6954 121.764 50.3311 121.764 46.181C121.764 42.0309 125.128 38.6665 129.278 38.6665C133.428 38.6665 136.793 42.0309 136.793 46.181Z" fill="#12CDD4"/>
<path d="M129.278 124.331C129.278 132.216 122.886 138.608 115.001 138.608C107.115 138.608 100.723 132.216 100.723 124.331C100.723 116.446 107.115 110.053 115.001 110.053C122.886 110.053 129.278 116.446 129.278 124.331Z" fill="#12CDD4"/>
<path d="M56.0133 129.591C58.7109 129.591 60.8977 127.404 60.8977 124.706C60.8977 122.009 58.7109 119.822 56.0133 119.822C53.3157 119.822 51.1289 122.009 51.1289 124.706C51.1289 127.404 53.3157 129.591 56.0133 129.591Z" fill="#12CDD4"/>
<path d="M44.3647 118.32C44.3647 126.205 37.9725 132.597 30.0872 132.597C22.202 132.597 15.8098 126.205 15.8098 118.32C15.8098 110.434 22.202 104.042 30.0872 104.042C37.9725 104.042 44.3647 110.434 44.3647 118.32Z" fill="#12CDD4"/>
<path d="M23.3249 72.8568C23.3249 76.3844 20.4652 79.2441 16.9376 79.2441C13.41 79.2441 10.5503 76.3844 10.5503 72.8568C10.5503 69.3292 13.41 66.4695 16.9376 66.4695C20.4652 66.4695 23.3249 69.3292 23.3249 72.8568Z" fill="#12CDD4"/>
</svg>
