<svg width="150" height="150" viewBox="0 0 150 150" fill="none" xmlns="http://www.w3.org/2000/svg">
  <path d="M4.69922 56.1797L25.1836 25.1133L41.0508 43.2422L4.69922 56.1797Z" fill="#D4EDEF" />
  <path d="M51.6914 79.9922L4.69922 56.1797L41.0508 43.2422L51.6914 79.9922Z" fill="#7AE4EB" />
  <path d="M74.9297 50.4609L41.0508 43.2422L51.6914 79.9922L74.9297 50.4609Z" fill="#5ECFE7" />
  <path d="M145.16 56.1797L124.676 25.1133L108.809 43.2422L145.16 56.1797Z" fill="#06B0C5" />
  <path d="M98.168 79.9922L145.16 56.1797L108.809 43.2422L98.168 79.9922Z" fill="#7AE4EB" />
  <path d="M74.9297 50.4609L108.809 43.2422L98.168 79.9922L74.9297 50.4609Z" fill="#D4EDEF" />
  <path d="M98.168 79.9922L74.9297 50.4609L51.6914 79.9922H98.168Z" fill="#A9E4DA" />
  <path
    d="M50.3906 11.7891H99.4688L124.676 25.1133L108.809 43.2422L74.9297 50.4609L41.0508 43.2422L25.1836 25.1133L50.3906 11.7891Z"
    fill="#A8E9ED" />
  <path d="M74.9297 137.426L4.69922 56.1797L51.6914 79.9922L74.9297 137.426Z" fill="#1DB2D7" />
  <path d="M74.9297 137.426L145.16 56.1797L98.168 79.9922L74.9297 137.426Z" fill="#A8E9ED" />
  <path d="M98.168 79.9922L74.9297 137.426L51.6914 79.9922H98.168Z" fill="#D4EDEF" />
</svg>