<svg width="150" height="150" viewBox="0 0 150 150" fill="none" xmlns="http://www.w3.org/2000/svg">
<mask id="mask0_1449_16505" style="mask-type:alpha" maskUnits="userSpaceOnUse" x="5" y="11" width="141" height="130">
<path d="M110.422 11C84.7461 11 75.3126 37.2266 75.3126 37.2266C75.3126 37.2266 75.2087 36.9339 74.9925 36.4105C70.7052 23.6541 59.6879 11.4744 41.2237 11.0154C40.8673 11.0052 40.5076 11 40.1446 11C20.7149 11 -1.43354 26.3984 6.74615 61.4023C14.9258 96.4062 75.3712 140.012 75.3712 140.012C75.3712 140.012 135.594 96.4062 143.785 61.4023C151.965 26.3984 131.41 11 110.422 11Z" fill="black"/>
</mask>
<g mask="url(#mask0_1449_16505)">
<rect width="150" height="150" fill="#1D89F3"/>
<path fill-rule="evenodd" clip-rule="evenodd" d="M120.656 37.0007L120.161 37.8014C122.009 38.1814 123.804 38.7107 125.531 39.3621C126.067 38.5478 126.656 37.7607 127.272 37.0007H127.259C132.67 30.3643 140.853 26.1435 150 26.1435V28.8578C142.5 28.8578 135.737 31.9793 130.875 37.0007C129.847 38.0611 128.906 39.2049 128.062 40.4207C129.71 41.1807 131.29 42.0493 132.804 43.04C134.628 40.5601 136.952 38.5015 139.621 37.0007C142.701 35.2771 146.237 34.2864 150 34.2864V37.0007C143.866 37.0007 138.415 39.9864 135 44.6007C136.433 45.6864 137.799 46.8807 139.058 48.17C140.294 46.3946 141.934 44.9463 143.838 43.9473C145.742 42.9482 147.856 42.4276 150 42.4293V45.1436C148.188 45.1439 146.407 45.6096 144.821 46.4973C143.235 47.3849 141.898 48.6655 140.933 50.2193C142.312 51.8478 143.571 53.6121 144.67 55.4578C144.802 54.1188 145.421 52.8775 146.406 51.9747C147.391 51.072 148.672 50.5721 150 50.5721V53.2864C149.64 53.2862 149.284 53.3594 148.953 53.5017C148.622 53.644 148.322 53.8525 148.072 54.1147C147.822 54.3769 147.627 54.6874 147.498 55.0278C147.369 55.3681 147.309 55.7313 147.321 56.0957C148.213 56.0321 149.106 56.0005 150 56.0007V58.715C137.679 58.715 126.83 65.2021 120.656 75.0007L120.161 75.8014C122.009 76.1814 123.804 76.7107 125.531 77.3621C126.067 76.5478 126.656 75.7607 127.272 75.0007L127.259 75.0007C132.67 68.3643 140.853 64.1435 150 64.1435V66.8578C142.5 66.8578 135.737 69.9793 130.875 75.0007C129.847 76.0611 128.906 77.2049 128.062 78.4207C129.71 79.1807 131.29 80.0493 132.804 81.04C134.628 78.5601 136.952 76.5015 139.621 75.0007C142.701 73.2771 146.237 72.2864 150 72.2864V75.0007C143.866 75.0007 138.415 77.9864 135 82.6007C136.433 83.6864 137.799 84.8807 139.058 86.17C140.294 84.3946 141.934 82.9464 143.838 81.9473C145.742 80.9482 147.856 80.4276 150 80.4293V83.1435C148.188 83.1439 146.407 83.6096 144.821 84.4973C143.235 85.3849 141.898 86.6655 140.933 88.2193C142.312 89.8478 143.571 91.6121 144.67 93.4578C144.802 92.1188 145.421 90.8775 146.406 89.9747C147.391 89.072 148.672 88.5721 150 88.5721V91.2864C149.64 91.2862 149.284 91.3594 148.953 91.5017C148.622 91.644 148.322 91.8525 148.072 92.1147C147.822 92.3769 147.627 92.6874 147.498 93.0278C147.369 93.3681 147.309 93.7313 147.321 94.0957C148.213 94.0321 149.106 94.0005 150 94.0007V96.715C137.679 96.715 126.83 103.202 120.656 113.001L120.161 113.801C122.009 114.181 123.804 114.711 125.531 115.362C126.067 114.548 126.656 113.761 127.272 113.001L127.259 113.001C132.67 106.364 140.853 102.144 150 102.144V104.858C142.5 104.858 135.737 107.979 130.875 113.001C129.847 114.061 128.906 115.205 128.062 116.421C129.71 117.181 131.29 118.049 132.804 119.04C134.628 116.56 136.952 114.501 139.621 113.001C142.701 111.277 146.237 110.286 150 110.286V113.001C143.866 113.001 138.415 115.986 135 120.601C136.433 121.686 137.799 122.881 139.058 124.17C140.294 122.395 141.934 120.946 143.838 119.947C145.742 118.948 147.856 118.428 150 118.429V121.144C148.188 121.144 146.407 121.61 144.821 122.497C143.235 123.385 141.898 124.665 140.933 126.219C142.312 127.848 143.571 129.612 144.67 131.458C144.802 130.119 145.421 128.878 146.406 127.975C147.391 127.072 148.672 126.572 150 126.572V129.286C149.64 129.286 149.284 129.359 148.953 129.502C148.622 129.644 148.322 129.852 148.072 130.115C147.822 130.377 147.627 130.687 147.498 131.028C147.369 131.368 147.309 131.731 147.321 132.096C148.213 132.032 149.106 132 150 132.001V134.715C138.103 134.715 127.579 140.763 121.311 150H118.107C119.14 148.318 120.302 146.719 121.58 145.219C120.616 143.663 119.278 142.38 117.691 141.491C116.104 140.602 114.32 140.136 112.507 140.136C110.693 140.136 108.91 140.602 107.323 141.491C105.736 142.38 104.397 143.663 103.433 145.219C104.698 146.713 105.862 148.32 106.893 150H103.689C100.607 145.456 96.5123 141.703 91.7303 139.049C86.6016 136.203 80.8476 134.712 75 134.715C63.103 134.715 52.5795 140.763 46.3108 150H43.1071C44.1403 148.318 45.3016 146.719 46.5804 145.219C45.616 143.663 44.2777 142.38 42.6907 141.491C41.1038 140.602 39.3201 140.136 37.5067 140.136C35.6933 140.136 33.9096 140.602 32.3227 141.491C30.7357 142.38 29.3974 143.663 28.433 145.219C29.698 146.713 30.8616 148.32 31.8929 150H28.6894C25.607 145.456 21.5123 141.703 16.7303 139.049C11.6016 136.203 5.8476 134.712 0 134.715V132.001C0.897321 132.001 1.79464 132.028 2.67857 132.096V132.001C2.67857 131.281 2.39637 130.59 1.89404 130.081C1.39171 129.572 0.710401 129.286 0 129.286V126.572C1.32807 126.572 2.6088 127.072 3.59372 127.975C4.57865 128.878 5.19755 130.119 5.33036 131.458C6.43157 129.607 7.68608 127.855 9.08036 126.219C8.11452 124.664 6.77474 123.382 5.18656 122.494C3.59838 121.606 1.81379 121.142 0 121.144V118.429C2.14435 118.428 4.25769 118.948 6.16194 119.947C8.0662 120.946 9.70558 122.395 10.942 124.17C12.2009 122.881 13.567 121.686 15 120.601C13.2549 118.239 10.9905 116.323 8.38667 115.004C5.7908 113.688 2.92885 113.003 0.02683 113.001H0V110.286C3.76339 110.286 7.3125 111.277 10.3795 113.001C13.058 114.494 15.375 116.57 17.2098 119.04C18.7098 118.063 20.2902 117.181 21.9375 116.421C21.0935 115.205 20.1529 114.061 19.125 113.001C14.2634 107.979 7.5 104.858 0 104.858V102.144C9.14732 102.144 17.3304 106.364 22.7277 113.001L22.7411 113.001C23.3438 113.761 23.9196 114.548 24.4688 115.362C26.2098 114.711 27.9911 114.181 29.8259 113.801C29.6786 113.53 29.5179 113.259 29.3438 113.001C26.1971 108.006 21.859 103.896 16.7303 101.049C11.6016 98.2029 5.8476 96.7122 0 96.715V94.0007C0.897321 94.0007 1.79464 94.0278 2.67857 94.0957V94.0007C2.67857 93.2808 2.39637 92.5904 1.89404 92.0814C1.39171 91.5724 0.710401 91.2864 0 91.2864V88.5721C1.32807 88.5721 2.6088 89.072 3.59372 89.9747C4.57865 90.8775 5.19755 92.1188 5.33036 93.4578C6.43157 91.6071 7.68608 89.8546 9.08036 88.2193C8.11452 86.6635 6.77474 85.3818 5.18656 84.494C3.59838 83.6062 1.81379 83.1416 0 83.1435V80.4293C2.14435 80.4276 4.25769 80.9482 6.16194 81.9473C8.0662 82.9464 9.70558 84.3946 10.942 86.17C12.2009 84.8807 13.567 83.6864 15 82.6007C13.2549 80.2394 10.9905 78.323 8.38667 77.0037C5.7908 75.6885 2.92885 75.0028 0.02683 75.0007H0V72.2864C3.76339 72.2864 7.3125 73.2771 10.3795 75.0007C13.058 76.4935 15.375 78.57 17.2098 81.04C18.7098 80.0628 20.2902 79.1807 21.9375 78.4207C21.0935 77.2049 20.1529 76.0611 19.125 75.0007C14.2634 69.9793 7.5 66.8578 0 66.8578V64.1435C9.14732 64.1435 17.3304 68.3643 22.7277 75.0007L22.7411 75.0007C23.3438 75.7607 23.9196 76.5478 24.4688 77.3621C26.2098 76.7107 27.9911 76.1814 29.8259 75.8014C29.6786 75.53 29.5179 75.2585 29.3438 75.0007C26.1971 70.0062 21.859 65.8958 16.7303 63.0494C11.6016 60.2029 5.8476 58.7122 0 58.715V56.0007C0.897321 56.0007 1.79464 56.0278 2.67857 56.0957V56.0007C2.67857 55.2808 2.39637 54.5904 1.89404 54.0814C1.39171 53.5724 0.710401 53.2864 0 53.2864V50.5721C1.32807 50.5721 2.6088 51.072 3.59372 51.9747C4.57865 52.8775 5.19755 54.1188 5.33036 55.4578C6.43157 53.6071 7.68608 51.8546 9.08036 50.2193C8.11452 48.6635 6.77474 47.3818 5.18656 46.494C3.59838 45.6062 1.81379 45.1416 0 45.1436V42.4293C2.14435 42.4276 4.25769 42.9482 6.16194 43.9473C8.0662 44.9463 9.70558 46.3946 10.942 48.17C12.2009 46.8807 13.567 45.6864 15 44.6007C13.2549 42.2394 10.9905 40.323 8.38667 39.0037C5.79079 37.6885 2.92882 37.0028 0.0267823 37.0007H0V34.2864C3.76339 34.2864 7.3125 35.2771 10.3795 37.0007C13.058 38.4935 15.375 40.57 17.2098 43.04C18.7098 42.0628 20.2902 41.1807 21.9375 40.4207C21.0935 39.2049 20.1529 38.0611 19.125 37.0007C14.2634 31.9793 7.5 28.8578 0 28.8578V26.1435C9.14732 26.1435 17.3304 30.3643 22.7277 37.0007H22.7411C23.3438 37.7607 23.9196 38.5478 24.4688 39.3621C26.2098 38.7107 27.9911 38.1814 29.8259 37.8014C29.6786 37.53 29.5179 37.2585 29.3438 37.0007C26.1971 32.0062 21.859 27.8958 16.7303 25.0494C11.6016 22.2029 5.8476 20.7122 0 20.715V18.0007C0.897321 18.0007 1.79464 18.0278 2.67857 18.0957V18.0007C2.67857 17.2808 2.39637 16.5904 1.89404 16.0814C1.39171 15.5724 0.710401 15.2864 0 15.2864V12.5721C1.32807 12.5721 2.6088 13.072 3.59372 13.9747C4.57865 14.8775 5.19755 16.1188 5.33036 17.4578C6.43157 15.6071 7.68608 13.8546 9.08036 12.2193C8.11452 10.6635 6.77474 9.38176 5.18656 8.494C3.59838 7.60625 1.81379 7.14158 0 7.14355V4.42926C2.14435 4.42758 4.25769 4.94821 6.16194 5.94728C8.0662 6.94635 9.70558 8.39459 10.942 10.17C12.2009 8.88069 13.567 7.68641 15 6.60069C13.2549 4.2394 10.9905 2.323 8.38667 1.00371C7.61584 0.613152 6.82155 0.278113 6.00972 0H11.9937C13.9957 1.36915 15.7544 3.08075 17.2098 5.03998C18.7098 4.06283 20.2902 3.18069 21.9375 2.42069C21.3525 1.57796 20.721 0.769795 20.0462 0H23.5065C23.8359 0.445272 24.1567 0.899312 24.4688 1.36212C25.9247 0.817378 27.4087 0.358047 28.9287 0H46.0644C47.595 0.358047 49.0865 0.817378 50.5312 1.36212C50.8357 0.899312 51.1575 0.445272 51.4917 0H54.9538C54.279 0.769795 53.6475 1.57796 53.0625 2.42069C54.7098 3.18069 56.2902 4.04926 57.8036 5.03998C59.2514 3.0719 61.0137 1.36916 63.0135 0H68.983C65.3658 1.24084 62.2436 3.56933 60 6.60069C61.433 7.68641 62.7991 8.88069 64.058 10.17C65.2944 8.39459 66.9338 6.94635 68.8381 5.94728C70.7423 4.94821 72.8557 4.42758 75 4.42926C77.1443 4.42758 79.2577 4.94821 81.1619 5.94728C83.0662 6.94635 84.7056 8.39459 85.942 10.17C87.2009 8.88069 88.567 7.68641 90 6.60069C88.2549 4.2394 85.9905 2.323 83.3867 1.00371C82.6158 0.613152 81.8216 0.278113 81.0097 0H86.9937C88.9957 1.36915 90.7544 3.08075 92.2098 5.03998C93.7098 4.06283 95.2902 3.18069 96.9375 2.42069C96.3525 1.57796 95.721 0.769795 95.0462 0H98.5065C98.8359 0.445272 99.1567 0.899312 99.4688 1.36212C100.925 0.817378 102.409 0.358047 103.929 0H121.064C122.595 0.358047 124.087 0.817378 125.531 1.36212C125.836 0.899312 126.158 0.445272 126.492 0H129.954C129.279 0.769795 128.648 1.57796 128.062 2.42069C129.71 3.18069 131.29 4.04926 132.804 5.03998C134.251 3.0719 136.014 1.36916 138.013 0H143.983C140.366 1.24084 137.244 3.56933 135 6.60069C136.433 7.68641 137.799 8.88069 139.058 10.17C140.294 8.39459 141.934 6.94635 143.838 5.94728C145.742 4.94821 147.856 4.42758 150 4.42926V7.14355C148.188 7.14388 146.407 7.60964 144.821 8.49729C143.235 9.38494 141.898 10.6655 140.933 12.2193C142.312 13.8478 143.571 15.6121 144.67 17.4578C144.802 16.1188 145.421 14.8775 146.406 13.9747C147.391 13.072 148.672 12.5721 150 12.5721V15.2864C149.64 15.2862 149.284 15.3594 148.953 15.5017C148.622 15.644 148.322 15.8525 148.072 16.1147C147.822 16.3769 147.627 16.6874 147.498 17.0278C147.369 17.3681 147.309 17.7313 147.321 18.0957C148.213 18.0321 149.106 18.0005 150 18.0007V20.715C137.679 20.715 126.83 27.2021 120.656 37.0007ZM75 34.2864C71.2366 34.2864 67.7009 35.2771 64.6205 37.0007C61.9515 38.5015 59.6279 40.5601 57.8036 43.04C56.2902 42.0493 54.7098 41.1807 53.0625 40.4207C53.9065 39.2049 54.8471 38.0611 55.875 37.0007C60.7366 31.9793 67.5 28.8578 75 28.8578C82.5 28.8578 89.2634 31.9793 94.125 37.0007C95.1529 38.0611 96.0935 39.2049 96.9375 40.4207C95.2902 41.1807 93.7098 42.0628 92.2098 43.04C90.375 40.57 88.058 38.4935 85.3795 37.0007C82.3125 35.2771 78.7634 34.2864 75 34.2864ZM75.0268 37.0007H75C68.8661 37.0007 63.4152 39.9864 60 44.6007C61.433 45.6864 62.7991 46.8807 64.058 48.17C65.2944 46.3946 66.9338 44.9463 68.8381 43.9473C70.7423 42.9482 72.8557 42.4276 75 42.4293C77.1443 42.4276 79.2577 42.9482 81.1619 43.9473C83.0662 44.9463 84.7056 46.3946 85.942 48.17C87.2009 46.8807 88.567 45.6864 90 44.6007C88.2549 42.2394 85.9905 40.323 83.3867 39.0037C80.7908 37.6885 77.9288 37.0028 75.0268 37.0007ZM97.7277 37.0007C92.3304 30.3643 84.1473 26.1435 75 26.1435C65.8527 26.1435 57.6696 30.3643 52.2589 37.0007H52.2723C51.6562 37.7607 51.067 38.5478 50.5312 39.3621C48.8036 38.7107 47.0089 38.1814 45.1607 37.8014L45.6562 37.0007C51.8304 27.2021 62.6786 20.715 75 20.715C80.8476 20.7122 86.6016 22.2029 91.7303 25.0494C96.859 27.8958 101.197 32.0062 104.344 37.0007C104.518 37.2585 104.679 37.53 104.826 37.8014C102.991 38.1814 101.21 38.7107 99.4688 39.3621C98.9196 38.5478 98.3438 37.7607 97.7411 37.0007H97.7277ZM109.821 37.0007V37.0957C111.605 36.9681 113.395 36.9681 115.179 37.0957V37.0007C115.179 36.2808 114.896 35.5904 114.394 35.0814C113.892 34.5724 113.21 34.2864 112.5 34.2864C111.79 34.2864 111.108 34.5724 110.606 35.0814C110.104 35.5904 109.821 36.2808 109.821 37.0007ZM75 132.001C75.8973 132.001 76.7946 132.028 77.6786 132.096V132.001C77.6786 131.281 77.3964 130.59 76.894 130.081C76.3917 129.572 75.7104 129.286 75 129.286C74.6402 129.286 74.2841 129.359 73.9528 129.502C73.6216 129.644 73.322 129.852 73.072 130.115C72.822 130.377 72.6267 130.687 72.4978 131.028C72.3688 131.368 72.3088 131.731 72.3214 132.096C73.2129 132.032 74.1063 132 75 132.001ZM75 126.572C76.3281 126.572 77.6088 127.072 78.5937 127.975C79.5786 128.878 80.1976 130.119 80.3304 131.458C81.4316 129.607 82.6861 127.855 84.0804 126.219C83.1145 124.664 81.7747 123.382 80.1866 122.494C78.5984 121.606 76.8138 121.142 75 121.144C73.1885 121.144 71.4066 121.61 69.821 122.497C68.2353 123.385 66.8977 124.665 65.933 126.219C67.3125 127.848 68.5714 129.612 69.6696 131.458C69.8025 130.119 70.4214 128.878 71.4063 127.975C72.3912 127.072 73.6719 126.572 75 126.572ZM75 118.429C77.1443 118.428 79.2577 118.948 81.1619 119.947C83.0662 120.946 84.7056 122.395 85.942 124.17C87.2009 122.881 88.567 121.686 90 120.601C88.2549 118.239 85.9905 116.323 83.3867 115.004C80.7908 113.688 77.9289 113.003 75.0268 113.001H75C68.8661 113.001 63.4152 115.986 60 120.601C61.433 121.686 62.7991 122.881 64.058 124.17C65.2944 122.395 66.9338 120.946 68.8381 119.947C70.7423 118.948 72.8557 118.428 75 118.429ZM85.3795 113.001C88.058 114.494 90.375 116.57 92.2098 119.04C93.7098 118.063 95.2902 117.181 96.9375 116.421C96.0935 115.205 95.1529 114.061 94.125 113.001C89.2634 107.979 82.5 104.858 75 104.858C67.5 104.858 60.7366 107.979 55.875 113.001C54.8471 114.061 53.9065 115.205 53.0625 116.421C54.7098 117.181 56.2902 118.049 57.8036 119.04C59.6279 116.56 61.9515 114.501 64.6205 113.001C67.7009 111.277 71.2366 110.286 75 110.286C78.7634 110.286 82.3125 111.277 85.3795 113.001ZM97.7277 113.001L97.7411 113.001C98.3438 113.761 98.9196 114.548 99.4688 115.362C101.21 114.711 102.991 114.181 104.826 113.801C104.679 113.53 104.518 113.259 104.344 113.001C101.197 108.006 96.859 103.896 91.7303 101.049C86.6016 98.2029 80.8476 96.7122 75 96.715C62.6786 96.715 51.8304 103.202 45.6562 113.001L45.1607 113.801C47.0089 114.181 48.8036 114.711 50.5312 115.362C51.067 114.548 51.6562 113.761 52.2723 113.001L52.2589 113.001C57.6696 106.364 65.8527 102.144 75 102.144C84.1473 102.144 92.3304 106.364 97.7277 113.001ZM109.821 113.001V113.096C111.605 112.968 113.395 112.968 115.179 113.096V113.001C115.179 112.281 114.896 111.59 114.394 111.081C113.892 110.572 113.21 110.286 112.5 110.286C111.79 110.286 111.108 110.572 110.606 111.081C110.104 111.59 109.821 112.281 109.821 113.001ZM77.6786 94.0957C76.7946 94.0278 75.8973 94.0007 75 94.0007C74.1063 94.0005 73.2129 94.0321 72.3214 94.0957C72.3088 93.7313 72.3688 93.3681 72.4978 93.0278C72.6267 92.6874 72.822 92.3769 73.072 92.1147C73.322 91.8525 73.6216 91.644 73.9528 91.5017C74.2841 91.3594 74.6402 91.2862 75 91.2864C75.7104 91.2864 76.3917 91.5724 76.894 92.0814C77.3964 92.5904 77.6786 93.2808 77.6786 94.0007V94.0957ZM78.5937 89.9747C77.6088 89.072 76.3281 88.5721 75 88.5721C73.6719 88.5721 72.3912 89.072 71.4063 89.9747C70.4214 90.8775 69.8025 92.1188 69.6696 93.4578C68.5714 91.6121 67.3125 89.8478 65.933 88.2193C66.8977 86.6655 68.2353 85.3849 69.821 84.4973C71.4066 83.6096 73.1885 83.1439 75 83.1435C76.8138 83.1416 78.5984 83.6062 80.1866 84.494C81.7747 85.3818 83.1145 86.6635 84.0804 88.2193C82.6861 89.8546 81.4316 91.6071 80.3304 93.4578C80.1976 92.1188 79.5786 90.8775 78.5937 89.9747ZM81.1619 81.9473C79.2577 80.9482 77.1443 80.4276 75 80.4293C72.8557 80.4276 70.7423 80.9482 68.8381 81.9473C66.9338 82.9464 65.2944 84.3946 64.058 86.17C62.7991 84.8807 61.433 83.6864 60 82.6007C63.4152 77.9864 68.8661 75.0007 75 75.0007H75.0268C77.9289 75.0028 80.7908 75.6885 83.3867 77.0037C85.9905 78.323 88.2549 80.2394 90 82.6007C88.567 83.6864 87.2009 84.8807 85.942 86.17C84.7056 84.3946 83.0662 82.9464 81.1619 81.9473ZM92.2098 81.04C90.375 78.57 88.058 76.4935 85.3795 75.0007C82.3125 73.2771 78.7634 72.2864 75 72.2864C71.2366 72.2864 67.7009 73.2771 64.6205 75.0007C61.9515 76.5015 59.6279 78.5601 57.8036 81.04C56.2902 80.0493 54.7098 79.1807 53.0625 78.4207C53.9065 77.2049 54.8471 76.0611 55.875 75.0007C60.7366 69.9793 67.5 66.8578 75 66.8578C82.5 66.8578 89.2634 69.9793 94.125 75.0007C95.1529 76.0611 96.0935 77.2049 96.9375 78.4207C95.2902 79.1807 93.7098 80.0628 92.2098 81.04ZM97.7411 75.0007L97.7277 75.0007C92.3304 68.3643 84.1473 64.1435 75 64.1435C65.8527 64.1435 57.6696 68.3643 52.2589 75.0007L52.2723 75.0007C51.6562 75.7607 51.067 76.5478 50.5312 77.3621C48.8036 76.7107 47.0089 76.1814 45.1607 75.8014L45.6562 75.0007C51.8304 65.2021 62.6786 58.715 75 58.715C80.8476 58.7122 86.6016 60.2029 91.7303 63.0494C96.859 65.8958 101.197 70.0062 104.344 75.0007C104.518 75.2585 104.679 75.53 104.826 75.8014C102.991 76.1814 101.21 76.7107 99.4688 77.3621C98.9196 76.5478 98.3438 75.7607 97.7411 75.0007ZM109.821 75.0957V75.0007C109.821 74.2808 110.104 73.5904 110.606 73.0814C111.108 72.5724 111.79 72.2864 112.5 72.2864C113.21 72.2864 113.892 72.5724 114.394 73.0814C114.896 73.5904 115.179 74.2808 115.179 75.0007V75.0957C113.395 74.9681 111.605 74.9681 109.821 75.0957ZM75 56.0007C75.8973 56.0007 76.7946 56.0278 77.6786 56.0957V56.0007C77.6786 55.2808 77.3964 54.5904 76.894 54.0814C76.3917 53.5724 75.7104 53.2864 75 53.2864C74.6402 53.2862 74.2841 53.3594 73.9528 53.5017C73.6216 53.644 73.322 53.8525 73.072 54.1147C72.822 54.3769 72.6267 54.6874 72.4978 55.0278C72.3688 55.3681 72.3088 55.7313 72.3214 56.0957C73.2129 56.0321 74.1063 56.0005 75 56.0007ZM75 50.5721C76.3281 50.5721 77.6088 51.072 78.5937 51.9747C79.5786 52.8775 80.1976 54.1188 80.3304 55.4578C81.4316 53.6071 82.6861 51.8546 84.0804 50.2193C83.1145 48.6635 81.7747 47.3818 80.1866 46.494C78.5984 45.6062 76.8138 45.1416 75 45.1436C73.1885 45.1439 71.4066 45.6096 69.821 46.4973C68.2353 47.3849 66.8977 48.6655 65.933 50.2193C67.3125 51.8478 68.5714 53.6121 69.6696 55.4578C69.8025 54.1188 70.4214 52.8775 71.4063 51.9747C72.3912 51.072 73.6719 50.5721 75 50.5721ZM77.6786 18.0957C76.7946 18.0278 75.8973 18.0007 75 18.0007C74.1063 18.0005 73.2129 18.0321 72.3214 18.0957C72.3088 17.7313 72.3688 17.3681 72.4978 17.0278C72.6267 16.6874 72.822 16.3769 73.072 16.1147C73.322 15.8525 73.6216 15.644 73.9528 15.5017C74.2841 15.3594 74.6402 15.2862 75 15.2864C75.7104 15.2864 76.3917 15.5724 76.894 16.0814C77.3964 16.5904 77.6786 17.2808 77.6786 18.0007V18.0957ZM78.5937 13.9747C77.6088 13.072 76.3281 12.5721 75 12.5721C73.6719 12.5721 72.3912 13.072 71.4063 13.9747C70.4214 14.8775 69.8025 16.1188 69.6696 17.4578C68.5714 15.6121 67.3125 13.8478 65.933 12.2193C66.8977 10.6655 68.2353 9.38494 69.821 8.49729C71.4066 7.60964 73.1885 7.14388 75 7.14355C76.8138 7.14158 78.5984 7.60625 80.1866 8.494C81.7747 9.38176 83.1145 10.6635 84.0804 12.2193C82.6861 13.8546 81.4316 15.6071 80.3304 17.4578C80.1976 16.1188 79.5786 14.8775 78.5937 13.9747ZM34.8214 113.001V113.096C36.6049 112.968 38.3951 112.968 40.1786 113.096V113.001C40.1786 112.281 39.8964 111.59 39.394 111.081C38.8917 110.572 38.2104 110.286 37.5 110.286C36.7896 110.286 36.1083 110.572 35.606 111.081C35.1036 111.59 34.8214 112.281 34.8214 113.001ZM34.8214 75.0957V75.0007C34.8214 74.2808 35.1036 73.5904 35.606 73.0814C36.1083 72.5724 36.7896 72.2864 37.5 72.2864C38.2104 72.2864 38.8917 72.5724 39.394 73.0814C39.8964 73.5904 40.1786 74.2808 40.1786 75.0007V75.0957C38.3951 74.9681 36.6049 74.9681 34.8214 75.0957ZM34.8214 37.0007V37.0957C36.6049 36.9681 38.3951 36.9681 40.1786 37.0957V37.0007C40.1786 36.2808 39.8964 35.5904 39.394 35.0814C38.8917 34.5724 38.2104 34.2864 37.5 34.2864C36.7896 34.2864 36.1083 34.5724 35.606 35.0814C35.1036 35.5904 34.8214 36.2808 34.8214 37.0007ZM46.5804 31.2193C45.1861 32.8546 43.9316 34.6071 42.8304 36.4578C42.6977 35.1187 42.0789 33.8772 41.0939 32.9743C40.109 32.0714 38.8282 31.5714 37.5 31.5714C36.1718 31.5714 34.891 32.0714 33.9061 32.9743C32.9211 33.8772 32.3023 35.1187 32.1696 36.4578C31.0714 34.6121 29.8125 32.8478 28.433 31.2193C29.3974 29.6631 30.7357 28.3804 32.3227 27.4913C33.9096 26.6022 35.6933 26.1359 37.5067 26.1359C39.3201 26.1359 41.1038 26.6022 42.6907 27.4913C44.2777 28.3804 45.616 29.6631 46.5804 31.2193ZM67.3259 18.8014C65.4911 19.1814 63.7098 19.7107 61.9688 20.3621C59.2786 16.2865 55.6386 12.9457 51.3707 10.6354C47.1028 8.32501 42.3387 7.11636 37.5 7.11636C32.6613 7.11636 27.8972 8.32501 23.6293 10.6354C19.3614 12.9457 15.7214 16.2865 13.0312 20.3621C11.3036 19.7107 9.50893 19.1814 7.66071 18.8014C10.755 13.5854 15.1286 9.26939 20.3561 6.27306C25.5837 3.27674 31.4874 1.70203 37.4933 1.70203C43.4992 1.70203 49.4029 3.27674 54.6305 6.27306C59.858 9.26939 64.2316 13.5854 67.3259 18.8014ZM59.4375 21.4207C57.7768 22.1807 56.2098 23.0628 54.6964 24.04C52.7059 21.3175 50.1136 19.1054 47.1273 17.5813C44.1409 16.0571 40.8437 15.2632 37.5 15.2632C34.1563 15.2632 30.8591 16.0571 27.8727 17.5813C24.8864 19.1054 22.2941 21.3175 20.3036 24.04C18.7902 23.0493 17.2098 22.1807 15.5625 21.4207C18.0288 17.8426 21.311 14.9207 25.1303 12.9031C28.9495 10.8856 33.1929 9.83202 37.5 9.83202C41.8071 9.83202 46.0505 10.8856 49.8697 12.9031C53.689 14.9207 56.9712 17.8426 59.4375 21.4207ZM52.5 25.6007C51.067 26.6864 49.7009 27.8807 48.442 29.17C47.2072 27.3918 45.5685 25.9407 43.6642 24.939C41.7598 23.9373 39.6456 23.4144 37.5 23.4144C35.3544 23.4144 33.2402 23.9373 31.3358 24.939C29.4315 25.9407 27.7928 27.3918 26.558 29.17C25.2991 27.8807 23.933 26.6864 22.5 25.6007C24.2432 23.2361 26.5068 21.3162 29.1107 19.9937C31.7147 18.6712 34.5873 17.9825 37.5 17.9825C40.4127 17.9825 43.2853 18.6712 45.8893 19.9937C48.4932 21.3162 50.7568 23.2361 52.5 25.6007ZM46.5804 69.2193C45.1861 70.8546 43.9316 72.6071 42.8304 74.4578C42.6977 73.1187 42.0789 71.8772 41.0939 70.9743C40.109 70.0714 38.8282 69.5714 37.5 69.5714C36.1718 69.5714 34.891 70.0714 33.9061 70.9743C32.9211 71.8772 32.3023 73.1187 32.1696 74.4578C31.0714 72.6121 29.8125 70.8478 28.433 69.2193C29.3974 67.6631 30.7357 66.3804 32.3227 65.4913C33.9096 64.6022 35.6933 64.1359 37.5067 64.1359C39.3201 64.1359 41.1038 64.6022 42.6907 65.4913C44.2777 66.3804 45.616 67.6631 46.5804 69.2193ZM67.3259 56.8014C65.4911 57.1814 63.7098 57.7107 61.9688 58.3621C59.2786 54.2865 55.6386 50.9457 51.3707 48.6354C47.1028 46.325 42.3387 45.1164 37.5 45.1164C32.6613 45.1164 27.8972 46.325 23.6293 48.6354C19.3614 50.9457 15.7214 54.2865 13.0312 58.3621C11.3036 57.7107 9.50893 57.1814 7.66071 56.8014C10.755 51.5854 15.1286 47.2694 20.3561 44.2731C25.5837 41.2767 31.4874 39.702 37.4933 39.702C43.4992 39.702 49.4029 41.2767 54.6305 44.2731C59.858 47.2694 64.2316 51.5854 67.3259 56.8014ZM59.4375 59.4207C57.7768 60.1807 56.2098 61.0628 54.6964 62.04C52.7059 59.3175 50.1136 57.1054 47.1273 55.5813C44.1409 54.0571 40.8437 53.2632 37.5 53.2632C34.1563 53.2632 30.8591 54.0571 27.8727 55.5813C24.8864 57.1054 22.2941 59.3175 20.3036 62.04C18.7902 61.0493 17.2098 60.1807 15.5625 59.4207C18.0288 55.8426 21.311 52.9207 25.1303 50.9031C28.9495 48.8855 33.1929 47.832 37.5 47.832C41.8071 47.832 46.0505 48.8855 49.8697 50.9031C53.689 52.9207 56.9712 55.8426 59.4375 59.4207ZM52.5 63.6007C51.067 64.6864 49.7009 65.8807 48.442 67.17C47.2072 65.3918 45.5685 63.9407 43.6642 62.939C41.7598 61.9373 39.6456 61.4144 37.5 61.4144C35.3544 61.4144 33.2402 61.9373 31.3358 62.939C29.4315 63.9407 27.7928 65.3918 26.558 67.17C25.2991 65.8807 23.933 64.6864 22.5 63.6007C24.2432 61.2361 26.5068 59.3162 29.1107 57.9937C31.7147 56.6712 34.5873 55.9825 37.5 55.9825C40.4127 55.9825 43.2853 56.6712 45.8893 57.9937C48.4932 59.3162 50.7568 61.2361 52.5 63.6007ZM42.8304 112.458C43.9316 110.607 45.1861 108.855 46.5804 107.219C45.616 105.663 44.2777 104.38 42.6907 103.491C41.1038 102.602 39.3201 102.136 37.5067 102.136C35.6933 102.136 33.9096 102.602 32.3227 103.491C30.7357 104.38 29.3974 105.663 28.433 107.219C29.8125 108.848 31.0714 110.612 32.1696 112.458C32.3023 111.119 32.9211 109.877 33.9061 108.974C34.891 108.071 36.1718 107.571 37.5 107.571C38.8282 107.571 40.109 108.071 41.0939 108.974C42.0789 109.877 42.6977 111.119 42.8304 112.458ZM61.9688 96.3621C63.7098 95.7107 65.4911 95.1814 67.3259 94.8014C64.2316 89.5854 59.858 85.2694 54.6305 82.2731C49.4029 79.2767 43.4992 77.702 37.4933 77.702C31.4874 77.702 25.5837 79.2767 20.3561 82.2731C15.1286 85.2694 10.755 89.5854 7.66071 94.8014C9.50893 95.1814 11.3036 95.7107 13.0312 96.3621C15.7214 92.2865 19.3614 88.9457 23.6293 86.6354C27.8972 84.325 32.6613 83.1164 37.5 83.1164C42.3387 83.1164 47.1028 84.325 51.3707 86.6354C55.6386 88.9457 59.2786 92.2865 61.9688 96.3621ZM54.6964 100.04C56.2098 99.0628 57.7768 98.1807 59.4375 97.4207C56.9712 93.8426 53.689 90.9206 49.8697 88.9031C46.0505 86.8856 41.8071 85.832 37.5 85.832C33.1929 85.832 28.9495 86.8856 25.1303 88.9031C21.311 90.9206 18.0288 93.8426 15.5625 97.4207C17.2098 98.1807 18.7902 99.0493 20.3036 100.04C22.2941 97.3175 24.8864 95.1054 27.8727 93.5813C30.8591 92.0571 34.1563 91.2632 37.5 91.2632C40.8437 91.2632 44.1409 92.0571 47.1273 93.5813C50.1136 95.1054 52.7059 97.3175 54.6964 100.04ZM48.442 105.17C49.7009 103.881 51.067 102.686 52.5 101.601C50.7568 99.2361 48.4932 97.3162 45.8893 95.9937C43.2853 94.6712 40.4127 93.9825 37.5 93.9825C34.5873 93.9825 31.7147 94.6712 29.1107 95.9937C26.5068 97.3162 24.2432 99.2361 22.5 101.601C23.933 102.686 25.2991 103.881 26.558 105.17C27.7928 103.392 29.4315 101.941 31.3358 100.939C33.2402 99.9373 35.3544 99.4144 37.5 99.4144C39.6456 99.4144 41.7598 99.9373 43.6642 100.939C45.5685 101.941 47.2072 103.392 48.442 105.17ZM67.3259 132.801C65.4911 133.181 63.7098 133.711 61.9688 134.362C59.2786 130.287 55.6386 126.946 51.3707 124.635C47.1028 122.325 42.3387 121.116 37.5 121.116C32.6613 121.116 27.8972 122.325 23.6293 124.635C19.3614 126.946 15.7214 130.287 13.0312 134.362C11.3036 133.711 9.50893 133.181 7.66071 132.801C10.755 127.585 15.1286 123.269 20.3561 120.273C25.5837 117.277 31.4874 115.702 37.4933 115.702C43.4992 115.702 49.4029 117.277 54.6305 120.273C59.858 123.269 64.2316 127.585 67.3259 132.801ZM59.4375 135.421C57.7768 136.181 56.2098 137.063 54.6964 138.04C52.7059 135.317 50.1136 133.105 47.1273 131.581C44.1409 130.057 40.8437 129.263 37.5 129.263C34.1563 129.263 30.8591 130.057 27.8727 131.581C24.8864 133.105 22.2941 135.317 20.3036 138.04C18.7902 137.049 17.2098 136.181 15.5625 135.421C18.0288 131.843 21.311 128.921 25.1303 126.903C28.9495 124.886 33.1929 123.832 37.5 123.832C41.8071 123.832 46.0505 124.886 49.8697 126.903C53.689 128.921 56.9712 131.843 59.4375 135.421ZM52.5 139.601C51.067 140.686 49.7009 141.881 48.442 143.17C47.2072 141.392 45.5685 139.941 43.6642 138.939C41.7598 137.937 39.6456 137.414 37.5 137.414C35.3544 137.414 33.2402 137.937 31.3358 138.939C29.4315 139.941 27.7928 141.392 26.558 143.17C25.2991 141.881 23.933 140.686 22.5 139.601C24.2432 137.236 26.5068 135.316 29.1107 133.994C31.7147 132.671 34.5873 131.983 37.5 131.983C40.4127 131.983 43.2853 132.671 45.8893 133.994C48.4932 135.316 50.7568 137.236 52.5 139.601ZM117.83 36.4578C118.932 34.6071 120.186 32.8546 121.58 31.2193C120.616 29.6631 119.278 28.3804 117.691 27.4913C116.104 26.6022 114.32 26.1359 112.507 26.1359C110.693 26.1359 108.91 26.6022 107.323 27.4913C105.736 28.3804 104.397 29.6631 103.433 31.2193C104.812 32.8478 106.071 34.6121 107.17 36.4578C107.302 35.1187 107.921 33.8772 108.906 32.9743C109.891 32.0714 111.172 31.5714 112.5 31.5714C113.828 31.5714 115.109 32.0714 116.094 32.9743C117.079 33.8772 117.698 35.1187 117.83 36.4578ZM136.969 20.3621C138.71 19.7107 140.491 19.1814 142.326 18.8014C139.232 13.5854 134.858 9.26939 129.63 6.27306C124.403 3.27674 118.499 1.70203 112.493 1.70203C106.487 1.70203 100.584 3.27674 95.3561 6.27306C90.1286 9.26939 85.755 13.5854 82.6607 18.8014C84.5089 19.1814 86.3036 19.7107 88.0312 20.3621C90.7214 16.2865 94.3614 12.9457 98.6293 10.6354C102.897 8.32501 107.661 7.11636 112.5 7.11636C117.339 7.11636 122.103 8.32501 126.371 10.6354C130.639 12.9457 134.279 16.2865 136.969 20.3621ZM129.696 24.04C131.21 23.0628 132.777 22.1807 134.438 21.4207C131.971 17.8426 128.689 14.9207 124.87 12.9031C121.05 10.8856 116.807 9.83202 112.5 9.83202C108.193 9.83202 103.95 10.8856 100.13 12.9031C96.311 14.9207 93.0288 17.8426 90.5625 21.4207C92.2098 22.1807 93.7902 23.0493 95.3036 24.04C97.2941 21.3175 99.8864 19.1054 102.873 17.5813C105.859 16.0571 109.156 15.2632 112.5 15.2632C115.844 15.2632 119.141 16.0571 122.127 17.5813C125.114 19.1054 127.706 21.3175 129.696 24.04ZM123.442 29.17C124.701 27.8807 126.067 26.6864 127.5 25.6007C125.757 23.2361 123.493 21.3162 120.889 19.9937C118.285 18.6712 115.413 17.9825 112.5 17.9825C109.587 17.9825 106.715 18.6712 104.111 19.9937C101.507 21.3162 99.2432 23.2361 97.5 25.6007C98.933 26.6864 100.299 27.8807 101.558 29.17C102.793 27.3918 104.431 25.9407 106.336 24.939C108.24 23.9373 110.354 23.4144 112.5 23.4144C114.646 23.4144 116.76 23.9373 118.664 24.939C120.569 25.9407 122.207 27.3918 123.442 29.17ZM121.58 69.2193C120.186 70.8546 118.932 72.6071 117.83 74.4578C117.698 73.1187 117.079 71.8772 116.094 70.9743C115.109 70.0714 113.828 69.5714 112.5 69.5714C111.172 69.5714 109.891 70.0714 108.906 70.9743C107.921 71.8772 107.302 73.1187 107.17 74.4578C106.071 72.6121 104.812 70.8478 103.433 69.2193C104.397 67.6631 105.736 66.3804 107.323 65.4913C108.91 64.6022 110.693 64.1359 112.507 64.1359C114.32 64.1359 116.104 64.6022 117.691 65.4913C119.278 66.3804 120.616 67.6631 121.58 69.2193ZM142.326 56.8014C140.491 57.1814 138.71 57.7107 136.969 58.3621C134.279 54.2865 130.639 50.9457 126.371 48.6354C122.103 46.325 117.339 45.1164 112.5 45.1164C107.661 45.1164 102.897 46.325 98.6293 48.6354C94.3614 50.9457 90.7214 54.2865 88.0312 58.3621C86.3036 57.7107 84.5089 57.1814 82.6607 56.8014C85.755 51.5854 90.1286 47.2694 95.3561 44.2731C100.584 41.2767 106.487 39.702 112.493 39.702C118.499 39.702 124.403 41.2767 129.63 44.2731C134.858 47.2694 139.232 51.5854 142.326 56.8014ZM134.438 59.4207C132.777 60.1807 131.21 61.0628 129.696 62.04C127.706 59.3175 125.114 57.1054 122.127 55.5813C119.141 54.0571 115.844 53.2632 112.5 53.2632C109.156 53.2632 105.859 54.0571 102.873 55.5813C99.8864 57.1054 97.2941 59.3175 95.3036 62.04C93.7902 61.0493 92.2098 60.1807 90.5625 59.4207C93.0288 55.8426 96.311 52.9207 100.13 50.9031C103.95 48.8855 108.193 47.832 112.5 47.832C116.807 47.832 121.05 48.8855 124.87 50.9031C128.689 52.9207 131.971 55.8426 134.438 59.4207ZM127.5 63.6007C126.067 64.6864 124.701 65.8807 123.442 67.17C122.207 65.3918 120.569 63.9407 118.664 62.939C116.76 61.9373 114.646 61.4144 112.5 61.4144C110.354 61.4144 108.24 61.9373 106.336 62.939C104.431 63.9407 102.793 65.3918 101.558 67.17C100.299 65.8807 98.933 64.6864 97.5 63.6007C99.2432 61.2361 101.507 59.3162 104.111 57.9937C106.715 56.6712 109.587 55.9825 112.5 55.9825C115.413 55.9825 118.285 56.6712 120.889 57.9937C123.493 59.3162 125.757 61.2361 127.5 63.6007ZM117.83 112.458C118.932 110.607 120.186 108.855 121.58 107.219C120.616 105.663 119.278 104.38 117.691 103.491C116.104 102.602 114.32 102.136 112.507 102.136C110.693 102.136 108.91 102.602 107.323 103.491C105.736 104.38 104.397 105.663 103.433 107.219C104.812 108.848 106.071 110.612 107.17 112.458C107.302 111.119 107.921 109.877 108.906 108.974C109.891 108.071 111.172 107.571 112.5 107.571C113.828 107.571 115.109 108.071 116.094 108.974C117.079 109.877 117.698 111.119 117.83 112.458ZM136.969 96.3621C138.71 95.7107 140.491 95.1814 142.326 94.8014C139.232 89.5854 134.858 85.2694 129.63 82.2731C124.403 79.2767 118.499 77.702 112.493 77.702C106.487 77.702 100.584 79.2767 95.3561 82.2731C90.1286 85.2694 85.755 89.5854 82.6607 94.8014C84.5089 95.1814 86.3036 95.7107 88.0312 96.3621C90.7214 92.2865 94.3614 88.9457 98.6293 86.6354C102.897 84.325 107.661 83.1164 112.5 83.1164C117.339 83.1164 122.103 84.325 126.371 86.6354C130.639 88.9457 134.279 92.2865 136.969 96.3621ZM129.696 100.04C131.21 99.0628 132.777 98.1807 134.438 97.4207C131.971 93.8426 128.689 90.9206 124.87 88.9031C121.05 86.8856 116.807 85.832 112.5 85.832C108.193 85.832 103.95 86.8856 100.13 88.9031C96.311 90.9206 93.0288 93.8426 90.5625 97.4207C92.2098 98.1807 93.7902 99.0493 95.3036 100.04C97.2941 97.3175 99.8864 95.1054 102.873 93.5813C105.859 92.0571 109.156 91.2632 112.5 91.2632C115.844 91.2632 119.141 92.0571 122.127 93.5813C125.114 95.1054 127.706 97.3175 129.696 100.04ZM123.442 105.17C124.701 103.881 126.067 102.686 127.5 101.601C125.757 99.2361 123.493 97.3162 120.889 95.9937C118.285 94.6712 115.413 93.9825 112.5 93.9825C109.587 93.9825 106.715 94.6712 104.111 95.9937C101.507 97.3162 99.2432 99.2361 97.5 101.601C98.933 102.686 100.299 103.881 101.558 105.17C102.793 103.392 104.431 101.941 106.336 100.939C108.24 99.9373 110.354 99.4144 112.5 99.4144C114.646 99.4144 116.76 99.9373 118.664 100.939C120.569 101.941 122.207 103.392 123.442 105.17ZM142.326 132.801C140.491 133.181 138.71 133.711 136.969 134.362C134.279 130.287 130.639 126.946 126.371 124.635C122.103 122.325 117.339 121.116 112.5 121.116C107.661 121.116 102.897 122.325 98.6293 124.635C94.3614 126.946 90.7214 130.287 88.0312 134.362C86.3036 133.711 84.5089 133.181 82.6607 132.801C85.755 127.585 90.1286 123.269 95.3561 120.273C100.584 117.277 106.487 115.702 112.493 115.702C118.499 115.702 124.403 117.277 129.63 120.273C134.858 123.269 139.232 127.585 142.326 132.801ZM134.438 135.421C132.777 136.181 131.21 137.063 129.696 138.04C127.706 135.317 125.114 133.105 122.127 131.581C119.141 130.057 115.844 129.263 112.5 129.263C109.156 129.263 105.859 130.057 102.873 131.581C99.8864 133.105 97.2941 135.317 95.3036 138.04C93.7902 137.049 92.2098 136.181 90.5625 135.421C93.0288 131.843 96.311 128.921 100.13 126.903C103.95 124.886 108.193 123.832 112.5 123.832C116.807 123.832 121.05 124.886 124.87 126.903C128.689 128.921 131.971 131.843 134.438 135.421ZM127.5 139.601C126.067 140.686 124.701 141.881 123.442 143.17C122.207 141.392 120.569 139.941 118.664 138.939C116.76 137.937 114.646 137.414 112.5 137.414C110.354 137.414 108.24 137.937 106.336 138.939C104.431 139.941 102.793 141.392 101.558 143.17C100.299 141.881 98.933 140.686 97.5 139.601C99.2432 137.236 101.507 135.316 104.111 133.994C106.715 132.671 109.587 131.983 112.5 131.983C115.413 131.983 118.285 132.671 120.889 133.994C123.493 135.316 125.757 137.236 127.5 139.601Z" fill="#3FC0F7"/>
<path d="M0 140.144V142.858C6.98839 142.858 13.3372 145.568 18.1039 150H21.8765C16.4894 143.943 8.67871 140.144 0 140.144Z" fill="#3FC0F7"/>
<path d="M8.353 150C5.78818 148.899 2.96039 148.286 0 148.286V150H8.353Z" fill="#3FC0F7"/>
<path d="M39.9899 150C39.8564 149.659 39.6549 149.346 39.394 149.081C38.8917 148.572 38.2104 148.286 37.5 148.286C36.7896 148.286 36.1083 148.572 35.606 149.081C35.3451 149.346 35.1436 149.659 35.0101 150H32.2345C32.4495 148.838 33.0344 147.773 33.9061 146.974C34.891 146.071 36.1718 145.571 37.5 145.571C38.8282 145.571 40.109 146.071 41.0939 146.974C41.9656 147.773 42.5505 148.838 42.7655 150H39.9899Z" fill="#3FC0F7"/>
<path d="M56.8961 150H53.1121C58.5106 143.943 66.3213 140.144 75 140.144C83.6787 140.144 91.4894 143.943 96.8765 150H93.1039C88.3372 145.568 81.9884 142.858 75 142.858C68.0116 142.858 61.6628 145.568 56.8961 150Z" fill="#3FC0F7"/>
<path d="M83.353 150H66.6523C69.2201 148.899 72.0396 148.286 75 148.286C77.9604 148.286 80.7882 148.899 83.353 150Z" fill="#3FC0F7"/>
<path d="M114.99 150C114.856 149.659 114.655 149.346 114.394 149.081C113.892 148.572 113.21 148.286 112.5 148.286C111.79 148.286 111.108 148.572 110.606 149.081C110.345 149.346 110.144 149.659 110.01 150H107.235C107.45 148.838 108.034 147.773 108.906 146.974C109.891 146.071 111.172 145.571 112.5 145.571C113.828 145.571 115.109 146.071 116.094 146.974C116.966 147.773 117.551 148.838 117.765 150H114.99Z" fill="#3FC0F7"/>
<path d="M131.896 150H128.112C133.511 143.943 141.321 140.144 150 140.144V142.858C143.012 142.858 136.663 145.568 131.896 150Z" fill="#3FC0F7"/>
<path d="M150 150V148.286C147.04 148.286 144.22 148.899 141.652 150H150Z" fill="#3FC0F7"/>
</g>
<path d="M110.422 11C84.7461 11 75.3126 37.2266 75.3126 37.2266C75.3126 37.2266 75.2087 36.9339 74.9925 36.4105C70.7052 23.6541 59.6879 11.4744 41.2237 11.0154C40.8673 11.0052 40.5076 11 40.1446 11C20.7149 11 -1.43354 26.3984 6.74615 61.4023C14.9258 96.4062 75.3712 140.012 75.3712 140.012C75.3712 140.012 135.594 96.4062 143.785 61.4023C151.965 26.3984 131.41 11 110.422 11Z" stroke="#136CC3" stroke-width="2"/>
</svg>
