<svg xmlns="http://www.w3.org/2000/svg" fill="none" viewBox="0 0 150 150">
  <path fill="#1D89F3"
    d="M110.422 11c-25.676 0-35.11 26.227-35.11 26.227s-.103-.293-.32-.816c-4.287-12.757-15.304-24.937-33.768-25.396-.357-.01-.716-.015-1.08-.015-19.43 0-41.578 15.398-33.398 50.402 8.18 35.004 68.625 78.61 68.625 78.61s60.223-43.606 68.414-78.61C151.965 26.398 131.41 11 110.422 11Z" />
  <path fill="#3FC0F7" fill-rule="evenodd"
    d="m120.161 37.801.495-.8c4.043-6.417 10.091-11.414 17.244-14.098-2.548-3.064-5.606-5.512-8.987-7.372a26.978 26.978 0 0 1 5.525 5.89 37.5 37.5 0 0 0-4.742 2.619 21.464 21.464 0 0 0-7.569-6.459 21.17 21.17 0 0 0-9.627-2.318 21.17 21.17 0 0 0-9.627 2.318 21.474 21.474 0 0 0-7.57 6.459 36.713 36.713 0 0 0-4.74-2.62 26.875 26.875 0 0 1 9.567-8.517 26.827 26.827 0 0 1 1.856-.89c-4.695 1.17-8.682 3.258-12.029 5.75a29.844 29.844 0 0 0-1.925 2.599 36.872 36.872 0 0 0-.86-.312 41.34 41.34 0 0 0-2.2 2.139 34.543 34.543 0 0 1 6.759 2.86A34.987 34.987 0 0 1 104.344 37c.174.258.335.53.482.801-1.835.38-3.616.91-5.357 1.56a37.943 37.943 0 0 0-1.728-2.36h-.013c-4.157-5.112-9.967-8.79-16.598-10.211a49.515 49.515 0 0 0-1.675 2.441c5.706.968 10.793 3.765 14.67 7.77a27.2 27.2 0 0 1 2.813 3.42 37.303 37.303 0 0 0-4.728 2.619c-1.835-2.47-4.152-4.547-6.83-6.04a21.142 21.142 0 0 0-8.806-2.656 36.012 36.012 0 0 0-1.177 2.66c2.775.058 5.504.74 7.99 2A18.786 18.786 0 0 1 90 44.6a36.396 36.396 0 0 0-4.058 3.57 13.434 13.434 0 0 0-4.78-4.223c-1.904-1-4.017-1.52-6.162-1.518a13.237 13.237 0 0 0-6.162 1.518 13.434 13.434 0 0 0-4.78 4.223A36.396 36.396 0 0 0 60 44.6c3.416-4.614 8.866-7.6 15-7.6h.027c.067 0 .135 0 .202.002a24.387 24.387 0 0 0-.236-.592 41.394 41.394 0 0 0-.774-2.11 21.194 21.194 0 0 0-9.598 2.7 21.625 21.625 0 0 0-6.817 6.04 36.721 36.721 0 0 0-4.741-2.62A27.192 27.192 0 0 1 55.875 37c4.136-4.27 9.647-7.168 15.817-7.938a39.277 39.277 0 0 0-1.57-2.512c-7.15 1.207-13.435 5.02-17.863 10.45h.014a29.642 29.642 0 0 0-1.742 2.362 35.48 35.48 0 0 0-5.37-1.56l.495-.802c4.673-7.415 12.022-12.933 20.66-15.18a35.415 35.415 0 0 0-2.257-2.174c-.703.219-1.4.458-2.09.716a29.723 29.723 0 0 0-4.346-5.188c-3.18-1.7-6.763-2.96-10.76-3.628a26.58 26.58 0 0 1 3.007 1.357 26.872 26.872 0 0 1 9.568 8.517 37.469 37.469 0 0 0-4.741 2.62 21.474 21.474 0 0 0-7.57-6.459 21.173 21.173 0 0 0-9.627-2.318c-3.343 0-6.64.794-9.627 2.318a21.474 21.474 0 0 0-7.57 6.459 36.721 36.721 0 0 0-4.74-2.62 27.055 27.055 0 0 1 2.443-3.047 32.169 32.169 0 0 0-5.054 4.869 34.56 34.56 0 0 1 3.779 1.807A34.985 34.985 0 0 1 29.344 37c.174.258.335.53.482.801-1.835.38-3.616.91-5.357 1.56a37.942 37.942 0 0 0-1.728-2.36h-.013a29.453 29.453 0 0 0-12.956-9.178c-.449.782-.87 1.593-1.263 2.433A26.768 26.768 0 0 1 19.125 37a27.192 27.192 0 0 1 2.813 3.42 37.303 37.303 0 0 0-4.728 2.62c-1.835-2.47-4.152-4.547-6.83-6.04a21.182 21.182 0 0 0-3.776-1.66c-.248.854-.47 1.733-.663 2.636.836.283 1.653.626 2.446 1.027A18.785 18.785 0 0 1 15 44.6a36.396 36.396 0 0 0-4.058 3.57 13.433 13.433 0 0 0-5.794-4.702c-.076.954-.123 1.93-.14 2.928l.179.098a10.775 10.775 0 0 1 3.894 3.725 38.1 38.1 0 0 0-3.52 4.856c.19 1.371.431 2.777.724 4.217a34.494 34.494 0 0 1 10.446 3.757A34.985 34.985 0 0 1 29.344 75c.174.258.335.53.482.801-1.835.38-3.616.91-5.357 1.56a37.942 37.942 0 0 0-1.728-2.36h-.013c-3.799-4.672-8.978-8.146-14.902-9.794.355 1.07.753 2.147 1.193 3.228A26.79 26.79 0 0 1 19.125 75a27.192 27.192 0 0 1 2.813 3.42 37.303 37.303 0 0 0-4.728 2.62 22.147 22.147 0 0 0-4.034-4.17 100.565 100.565 0 0 0 4.502 7.105 34.766 34.766 0 0 1 2.678-1.702 34.452 34.452 0 0 1 17.138-4.571c6.005 0 11.91 1.574 17.137 4.57a35.026 35.026 0 0 1 12.695 12.53c-1.835.38-3.616.908-5.357 1.56a29.58 29.58 0 0 0-10.598-9.727 29.129 29.129 0 0 0-13.87-3.519 29.129 29.129 0 0 0-13.871 3.52 29.372 29.372 0 0 0-2.787 1.715c.542.717 1.093 1.432 1.652 2.145a26.706 26.706 0 0 1 2.636-1.593 26.477 26.477 0 0 1 12.37-3.071c4.306 0 8.55 1.053 12.369 3.07a26.87 26.87 0 0 1 9.568 8.518 37.433 37.433 0 0 0-4.741 2.62 21.472 21.472 0 0 0-7.57-6.459 21.173 21.173 0 0 0-9.627-2.318 21.173 21.173 0 0 0-11.578 3.448c.585.696 1.177 1.39 1.775 2.08a18.523 18.523 0 0 1 9.804-2.809c2.912 0 5.785.689 8.389 2.011a18.782 18.782 0 0 1 6.61 5.608 36.353 36.353 0 0 0-4.058 3.569 13.439 13.439 0 0 0-4.778-4.231 13.235 13.235 0 0 0-6.164-1.525c-2.13 0-4.23.516-6.125 1.504.64.7 1.285 1.395 1.934 2.085a10.597 10.597 0 0 1 9.382.488 10.777 10.777 0 0 1 3.89 3.728 38.135 38.135 0 0 0-3.75 5.239 5.456 5.456 0 0 0-1.737-3.484 5.323 5.323 0 0 0-3.372-1.399c3.381 3.415 6.8 6.676 10.125 9.723a34.566 34.566 0 0 1 6.784 2.975 35.023 35.023 0 0 1 12.695 12.528c-.35.072-.7.151-1.046.234.992.791 1.921 1.523 2.778 2.191a34.654 34.654 0 0 1 12.464.11c.844-.66 1.76-1.383 2.74-2.166a33.978 33.978 0 0 0-1.601-.369 35.023 35.023 0 0 1 12.695-12.528 34.517 34.517 0 0 1 7.76-3.267 287.446 287.446 0 0 0 9.765-9.422 5.318 5.318 0 0 0-3.975 1.39 5.452 5.452 0 0 0-1.736 3.484 39.065 39.065 0 0 0-3.737-5.239 10.774 10.774 0 0 1 3.89-3.728 10.602 10.602 0 0 1 9.791-.301 233.08 233.08 0 0 0 1.907-2.057 13.232 13.232 0 0 0-6.521-1.719c-2.146 0-4.26.523-6.164 1.525a13.436 13.436 0 0 0-4.778 4.231 36.367 36.367 0 0 0-4.058-3.569 18.78 18.78 0 0 1 6.611-5.608 18.52 18.52 0 0 1 8.389-2.01 18.52 18.52 0 0 1 10.177 3.047c.596-.688 1.187-1.38 1.77-2.074a21.237 21.237 0 0 0-11.947-3.693 21.17 21.17 0 0 0-9.627 2.318 21.472 21.472 0 0 0-7.57 6.459 36.68 36.68 0 0 0-4.74-2.62 26.874 26.874 0 0 1 9.567-8.517 26.48 26.48 0 0 1 12.37-3.071 26.48 26.48 0 0 1 12.37 3.07 26.663 26.663 0 0 1 3 1.848 153.37 153.37 0 0 0 1.652-2.142 29.267 29.267 0 0 0-3.151-1.973 29.13 29.13 0 0 0-13.871-3.519 29.125 29.125 0 0 0-13.87 3.52 29.58 29.58 0 0 0-10.599 9.726 35.484 35.484 0 0 0-5.37-1.56 35.026 35.026 0 0 1 12.695-12.53 34.45 34.45 0 0 1 17.137-4.57 34.45 34.45 0 0 1 17.137 4.57 34.763 34.763 0 0 1 3.057 1.972c1.859-2.681 3.563-5.376 5.067-8.064a21.67 21.67 0 0 0-4.95 4.86 36.725 36.725 0 0 0-4.742-2.62 27.187 27.187 0 0 1 2.813-3.42 26.773 26.773 0 0 1 10.726-6.78 52.303 52.303 0 0 0 1.156-3.169c-6.167 1.578-11.565 5.126-15.498 9.95h.013a29.715 29.715 0 0 0-1.741 2.36 35.464 35.464 0 0 0-5.37-1.56l.495-.8c5.196-8.247 13.704-14.148 23.614-15.81.39-1.915.692-3.769.911-5.562a5.466 5.466 0 0 0-.511 1.829 39.047 39.047 0 0 0-3.737-5.239 10.775 10.775 0 0 1 4.688-4.126 48.88 48.88 0 0 0-.113-2.88c-.571.205-1.129.45-1.67.734a13.432 13.432 0 0 0-4.78 4.223A36.405 36.405 0 0 0 135 44.6c2.408-3.253 5.828-5.697 9.785-6.855a37.945 37.945 0 0 0-.624-2.64 21.381 21.381 0 0 0-4.54 1.895 21.622 21.622 0 0 0-6.817 6.04 36.725 36.725 0 0 0-4.742-2.62 27.187 27.187 0 0 1 2.813-3.42 26.741 26.741 0 0 1 11.446-7.01 32.123 32.123 0 0 0-1.24-2.455c-5.469 1.756-10.249 5.084-13.822 9.465h.013a29.715 29.715 0 0 0-1.741 2.362 35.464 35.464 0 0 0-5.37-1.56Zm-10.34-.706V37c0-.72.283-1.41.785-1.919a2.661 2.661 0 0 1 1.894-.795c.71 0 1.392.286 1.894.795.502.51.785 1.2.785 1.92v.094a37.545 37.545 0 0 0-5.358 0Zm-32.142 95.001a35.005 35.005 0 0 0-2.679-.095 36.832 36.832 0 0 0-2.678.095 2.743 2.743 0 0 1 .75-1.981 2.662 2.662 0 0 1 1.928-.829c.71 0 1.392.286 1.894.795.503.509.785 1.2.785 1.92v.095Zm.915-4.121A5.317 5.317 0 0 0 75 126.572c-1.328 0-2.608.5-3.593 1.403a5.455 5.455 0 0 0-1.737 3.483 38.947 38.947 0 0 0-3.737-5.239 10.776 10.776 0 0 1 3.888-3.722 10.606 10.606 0 0 1 10.366-.003 10.783 10.783 0 0 1 3.894 3.725 38.135 38.135 0 0 0-3.75 5.239 5.454 5.454 0 0 0-1.737-3.483Zm2.568-8.028A13.247 13.247 0 0 0 75 118.429a13.247 13.247 0 0 0-6.162 1.518 13.438 13.438 0 0 0-4.78 4.223A36.353 36.353 0 0 0 60 120.601c3.416-4.615 8.866-7.6 15-7.6h.027c2.902.002 5.764.687 8.36 2.003A18.776 18.776 0 0 1 90 120.601a36.353 36.353 0 0 0-4.058 3.569 13.438 13.438 0 0 0-4.78-4.223Zm11.048-.907c-1.835-2.47-4.152-4.546-6.83-6.039A21.146 21.146 0 0 0 75 110.286c-3.763 0-7.299.991-10.38 2.715a21.613 21.613 0 0 0-6.816 6.039 36.683 36.683 0 0 0-4.741-2.619 27.15 27.15 0 0 1 2.812-3.42c4.862-5.022 11.625-8.143 19.125-8.143s14.264 3.121 19.125 8.143a27.158 27.158 0 0 1 2.813 3.42 37.326 37.326 0 0 0-4.728 2.619Zm5.531-6.039h-.013c-5.397-6.637-13.58-10.857-22.728-10.857-9.147 0-17.33 4.22-22.74 10.857h.013a29.69 29.69 0 0 0-1.742 2.361 35.528 35.528 0 0 0-5.37-1.561l.495-.8C51.831 103.202 62.68 96.715 75 96.715a34.434 34.434 0 0 1 16.73 4.334 34.99 34.99 0 0 1 12.614 11.952c.174.258.335.529.482.8a36.27 36.27 0 0 0-5.357 1.561 38.024 38.024 0 0 0-1.728-2.361Zm-22.74-19c.897 0 1.794.026 2.678.094V94c0-.72-.282-1.41-.785-1.919a2.66 2.66 0 0 0-2.94-.58c-.332.143-.632.351-.882.613a2.746 2.746 0 0 0-.75 1.981A37.523 37.523 0 0 1 75 94Zm0-5.43c1.328 0 2.608.5 3.593 1.403a5.454 5.454 0 0 1 1.737 3.483 38.106 38.106 0 0 1 3.75-5.238 10.775 10.775 0 0 0-3.894-3.725 10.605 10.605 0 0 0-10.366.003 10.774 10.774 0 0 0-3.888 3.722 38.929 38.929 0 0 1 3.737 5.239 5.455 5.455 0 0 1 1.737-3.484A5.318 5.318 0 0 1 75 88.572Zm0-8.142a13.237 13.237 0 0 1 6.161 1.518c1.905 1 3.544 2.447 4.78 4.223A36.396 36.396 0 0 1 90 82.6a18.786 18.786 0 0 0-6.613-5.597A18.523 18.523 0 0 0 75.027 75H75c-6.134 0-11.584 2.986-15 7.6a36.396 36.396 0 0 1 4.058 3.57 13.434 13.434 0 0 1 4.78-4.223c1.905-1 4.018-1.52 6.162-1.518ZM85.38 75c2.678 1.493 4.995 3.57 6.83 6.04 1.5-.978 3.08-1.86 4.728-2.62A27.2 27.2 0 0 0 94.125 75C89.264 69.98 82.5 66.858 75 66.858S60.737 69.978 55.875 75a27.192 27.192 0 0 0-2.812 3.42 36.721 36.721 0 0 1 4.74 2.62A21.625 21.625 0 0 1 64.622 75 21.189 21.189 0 0 1 75 72.286c3.763 0 7.312.99 10.379 2.714Zm12.348 0h.013c.603.76 1.179 1.547 1.728 2.362a36.221 36.221 0 0 1 5.357-1.56 9.663 9.663 0 0 0-.482-.802 34.987 34.987 0 0 0-12.613-11.95A34.433 34.433 0 0 0 75 58.714c-12.322 0-23.17 6.487-29.345 16.285l-.495.801c1.848.38 3.643.91 5.37 1.56a29.642 29.642 0 0 1 1.742-2.36h-.014C57.67 68.363 65.853 64.142 75 64.142c9.148 0 17.33 4.221 22.728 10.857Zm12.093 0v.095a37.545 37.545 0 0 1 5.358 0V75c0-.72-.283-1.41-.785-1.919a2.661 2.661 0 0 0-1.894-.795c-.71 0-1.392.286-1.894.795a2.735 2.735 0 0 0-.785 1.92ZM77.679 56.095A35.056 35.056 0 0 0 75 56c-.893 0-1.787.032-2.678.095a2.746 2.746 0 0 1 .75-1.98 2.65 2.65 0 0 1 3.822-.033c.503.508.785 1.199.785 1.918v.095Zm.915-4.12A5.318 5.318 0 0 0 75 50.571c-1.328 0-2.608.5-3.593 1.402a5.455 5.455 0 0 0-1.737 3.484 38.929 38.929 0 0 0-3.737-5.239 10.774 10.774 0 0 1 3.888-3.722 10.603 10.603 0 0 1 10.366-.003 10.775 10.775 0 0 1 3.894 3.725 38.106 38.106 0 0 0-3.75 5.239 5.454 5.454 0 0 0-1.737-3.484ZM34.822 75v.095a37.534 37.534 0 0 1 5.357 0V75c0-.72-.282-1.41-.785-1.919a2.66 2.66 0 0 0-1.894-.795 2.66 2.66 0 0 0-1.894.795 2.732 2.732 0 0 0-.784 1.92Zm0-37.905V37c0-.72.282-1.41.784-1.919a2.66 2.66 0 0 1 1.894-.795c.71 0 1.392.286 1.894.795.503.51.785 1.2.785 1.92v.094a37.534 37.534 0 0 0-5.357 0Zm8.009-.637a38.106 38.106 0 0 1 3.75-5.239 10.776 10.776 0 0 0-3.89-3.728 10.603 10.603 0 0 0-5.184-1.355c-1.813 0-3.597.466-5.184 1.355a10.776 10.776 0 0 0-3.89 3.728 38.928 38.928 0 0 1 3.737 5.239 5.455 5.455 0 0 1 1.736-3.484 5.318 5.318 0 0 1 3.594-1.403c1.328 0 2.61.5 3.594 1.403a5.454 5.454 0 0 1 1.737 3.484Zm5.611-7.288A36.396 36.396 0 0 1 52.5 25.6a18.786 18.786 0 0 0-6.61-5.607 18.523 18.523 0 0 0-8.39-2.01c-2.912 0-5.785.688-8.389 2.01a18.787 18.787 0 0 0-6.61 5.607 36.396 36.396 0 0 1 4.057 3.57 13.435 13.435 0 0 1 4.778-4.231 13.238 13.238 0 0 1 6.164-1.525c2.146 0 4.26.523 6.164 1.525a13.434 13.434 0 0 1 4.778 4.23Zm-5.611 45.287a38.106 38.106 0 0 1 3.75-5.238 10.776 10.776 0 0 0-3.89-3.728 10.603 10.603 0 0 0-5.184-1.355c-1.813 0-3.597.466-5.184 1.355a10.776 10.776 0 0 0-3.89 3.728 38.928 38.928 0 0 1 3.737 5.239 5.455 5.455 0 0 1 1.736-3.484 5.318 5.318 0 0 1 3.594-1.403c1.328 0 2.61.5 3.594 1.403a5.454 5.454 0 0 1 1.737 3.483Zm19.138-16.095a36.239 36.239 0 0 1 5.357-1.56 35.026 35.026 0 0 0-12.695-12.53 34.452 34.452 0 0 0-17.137-4.57 34.452 34.452 0 0 0-17.138 4.57 35.025 35.025 0 0 0-12.695 12.53c1.848.38 3.643.908 5.37 1.56a29.58 29.58 0 0 1 10.599-9.727 29.129 29.129 0 0 1 13.87-3.519c4.839 0 9.603 1.209 13.871 3.52a29.58 29.58 0 0 1 10.598 9.726Zm-7.272 3.678a37.469 37.469 0 0 1 4.74-2.62 26.872 26.872 0 0 0-9.567-8.517 26.475 26.475 0 0 0-12.37-3.071c-4.307 0-8.55 1.053-12.37 3.07a26.872 26.872 0 0 0-9.567 8.518 36.721 36.721 0 0 1 4.74 2.62 21.474 21.474 0 0 1 7.57-6.459 21.173 21.173 0 0 1 9.627-2.318c3.344 0 6.641.794 9.628 2.318a21.474 21.474 0 0 1 7.569 6.459Zm-6.255 5.13A36.396 36.396 0 0 1 52.5 63.6a18.786 18.786 0 0 0-6.61-5.607 18.523 18.523 0 0 0-8.39-2.01c-2.912 0-5.785.688-8.389 2.01a18.787 18.787 0 0 0-6.61 5.607 36.396 36.396 0 0 1 4.057 3.57 13.435 13.435 0 0 1 4.778-4.231 13.238 13.238 0 0 1 6.164-1.525c2.146 0 4.26.523 6.164 1.525a13.434 13.434 0 0 1 4.778 4.23Zm73.138-35.951a38.2 38.2 0 0 0-3.75 5.239 5.45 5.45 0 0 0-1.736-3.484 5.318 5.318 0 0 0-3.594-1.403c-1.328 0-2.609.5-3.594 1.403a5.45 5.45 0 0 0-1.736 3.484 39.047 39.047 0 0 0-3.737-5.239 10.773 10.773 0 0 1 3.89-3.728 10.602 10.602 0 0 1 5.184-1.355c1.813 0 3.597.466 5.184 1.355a10.77 10.77 0 0 1 3.889 3.728Zm5.92-5.619a36.405 36.405 0 0 0-4.058 3.57 13.431 13.431 0 0 0-4.778-4.231 13.235 13.235 0 0 0-6.164-1.525c-2.146 0-4.26.523-6.164 1.525a13.431 13.431 0 0 0-4.778 4.23A36.41 36.41 0 0 0 97.5 25.6a18.785 18.785 0 0 1 6.611-5.607 18.52 18.52 0 0 1 8.389-2.01c2.913 0 5.785.688 8.389 2.01A18.785 18.785 0 0 1 127.5 25.6Zm-9.67 48.857a38.2 38.2 0 0 1 3.75-5.238 10.77 10.77 0 0 0-3.889-3.728 10.605 10.605 0 0 0-5.184-1.355c-1.814 0-3.597.466-5.184 1.355a10.773 10.773 0 0 0-3.89 3.728 39.047 39.047 0 0 1 3.737 5.239 5.45 5.45 0 0 1 1.736-3.484 5.318 5.318 0 0 1 3.594-1.403c1.328 0 2.609.5 3.594 1.403a5.45 5.45 0 0 1 1.736 3.483Zm19.139-16.095a36.23 36.23 0 0 1 5.357-1.56 35.021 35.021 0 0 0-12.696-12.53 34.45 34.45 0 0 0-17.137-4.57 34.45 34.45 0 0 0-17.136 4.57 35.026 35.026 0 0 0-12.696 12.53c1.848.38 3.643.908 5.37 1.56a29.58 29.58 0 0 1 10.599-9.727 29.125 29.125 0 0 1 13.87-3.519 29.13 29.13 0 0 1 13.871 3.52 29.577 29.577 0 0 1 10.598 9.726Zm-7.273 3.678a37.5 37.5 0 0 1 4.742-2.62 26.882 26.882 0 0 0-9.568-8.517 26.479 26.479 0 0 0-12.37-3.071c-4.307 0-8.55 1.053-12.37 3.07a26.875 26.875 0 0 0-9.567 8.518 36.713 36.713 0 0 1 4.74 2.62 21.474 21.474 0 0 1 7.57-6.459 21.17 21.17 0 0 1 9.627-2.318c3.344 0 6.641.794 9.627 2.318a21.464 21.464 0 0 1 7.569 6.459Zm-6.254 5.13a36.405 36.405 0 0 1 4.058-3.57 18.785 18.785 0 0 0-6.611-5.607 18.52 18.52 0 0 0-8.389-2.01 18.52 18.52 0 0 0-8.389 2.01 18.785 18.785 0 0 0-6.61 5.607 36.41 36.41 0 0 1 4.057 3.57 13.431 13.431 0 0 1 4.778-4.231 13.235 13.235 0 0 1 6.164-1.525c2.146 0 4.26.523 6.164 1.525a13.431 13.431 0 0 1 4.778 4.23Z"
    clip-rule="evenodd" />
  <path fill="#136CC3" fill-rule="evenodd"
    d="M12.327 22.43C19.491 13.944 30.185 10 40.144 10c.372 0 .74.005 1.106.016 18.22.453 29.383 12.035 34.129 24.51.256-.547.563-1.173.922-1.86 1.31-2.507 3.332-5.852 6.175-9.2C88.166 16.766 97.2 10 110.422 10c10.723 0 21.422 3.935 28.393 12.44 6.987 8.528 10.084 21.472 5.943 39.19-2.094 8.948-7.488 18.368-14.32 27.425-6.843 9.07-15.18 17.843-23.243 25.504-8.066 7.662-15.872 14.225-21.66 18.872a323.1 323.1 0 0 1-6.956 5.436c-.835.633-1.489 1.12-1.935 1.451l-.51.375-.131.096-.045.032-.587-.809c-.585.811-.586.811-.586.81l-.045-.032-.132-.096-.512-.375c-.447-.331-1.104-.818-1.941-1.451a326.676 326.676 0 0 1-6.981-5.435c-5.81-4.647-13.644-11.211-21.736-18.873-8.09-7.661-16.455-16.435-23.316-25.504C13.27 79.999 7.863 70.579 5.772 61.63c-4.146-17.742-.633-30.685 6.555-39.2Zm63.044 117.582-.585.811.586.423.585-.424-.586-.81Zm-.001-1.24.084-.062c.44-.326 1.088-.809 1.916-1.437a320.277 320.277 0 0 0 6.912-5.401c5.76-4.623 13.521-11.149 21.535-18.763 8.017-7.617 16.271-16.308 23.024-25.259 6.763-8.964 11.968-18.122 13.97-26.675 4.039-17.286.949-29.543-5.543-37.466C130.758 15.765 120.686 12 110.422 12c-12.453 0-20.975 6.347-26.421 12.76-2.725 3.209-4.667 6.421-5.928 8.832a42.722 42.722 0 0 0-1.387 2.902 27.48 27.48 0 0 0-.41 1.009l-.018.05-.004.01v.002l-.948 2.633-.936-2.636v-.002l-.003-.007-.013-.035-.055-.146c-.05-.13-.127-.327-.231-.58l-.013-.03-.01-.033c-4.188-12.458-14.9-24.268-32.847-24.714h-.003c-.347-.01-.697-.015-1.05-.015-9.471 0-19.566 3.755-26.29 11.72-6.698 7.934-10.17 20.192-6.136 37.455 1.999 8.552 7.215 17.71 13.998 26.674 6.772 8.951 15.052 17.642 23.096 25.258 8.041 7.615 15.83 14.141 21.61 18.764a320.976 320.976 0 0 0 6.937 5.401 210.88 210.88 0 0 0 2.01 1.5Z"
    clip-rule="evenodd" />
</svg>