<svg xmlns="http://www.w3.org/2000/svg" fill="none" viewBox="0 0 150 150">
  <path fill="#FFCC32"
    d="M110.422 11c-25.676 0-35.11 26.227-35.11 26.227s-.103-.293-.32-.816c-4.287-12.757-15.304-24.937-33.768-25.396-.357-.01-.716-.015-1.08-.015-19.43 0-41.578 15.398-33.398 50.402 8.18 35.004 68.625 78.61 68.625 78.61s60.223-43.606 68.414-78.61C151.965 26.398 131.41 11 110.422 11Z" />
  <path fill="#FFF132"
    d="M18.317 18.135a32.286 32.286 0 0 0-4.664 4.293l4.664-2.706v-1.587ZM5.354 53.43l14.29 8.282 17.128-9.919V31.957l-17.127-9.92-9.82 5.692a33.413 33.413 0 0 0-2.06 4.244l11.88-6.88 14.492 8.385v16.782l-14.492 8.398-14.479-8.384V43.24c-.266 3.15-.22 6.543.188 10.189ZM6.478 60.213a70.857 70.857 0 0 1-.658-3.435l12.497 7.249v20.5l-.182.105c-.85-1.214-1.67-2.43-2.453-3.647V65.548l-9.204-5.335ZM36.772 106.611v-9.852l-16.998-9.844c1.362 1.855 2.793 3.7 4.276 5.529l10.087 5.836v5.6c.873.92 1.752 1.83 2.635 2.731ZM57.604 125.898l16.058-9.301V96.759L56.535 86.84l-17.113 9.92v12.517c.878.87 1.757 1.73 2.635 2.578V98.28l14.478-8.385 14.492 8.385v16.783l-14.492 8.398-5.197-3.009a358.367 358.367 0 0 0 6.266 5.446ZM61.939 129.52a367.702 367.702 0 0 1-2.165-1.795l15.207-8.813h.013l15.622 9.061c-.739.619-1.46 1.217-2.162 1.796l-13.46-7.802h-.013l-13.042 7.553ZM110.553 109.913V96.759L93.426 86.84l-17.114 9.92v19.837l16.473 9.548a351.04 351.04 0 0 0 7.805-6.835l-7.164 4.151-14.479-8.385V98.28l14.479-8.385 14.492 8.385v14.203c.877-.844 1.756-1.701 2.635-2.57ZM130.68 87.055l-.372-.215-17.113 9.92v10.505c.882-.896 1.761-1.803 2.635-2.719V98.28l11.222-6.499a146.967 146.967 0 0 0 3.628-4.726ZM134.276 81.89a114.21 114.21 0 0 1-2.031 2.987l-.604-.35v-20.5l13.141-7.616c-.185 1.12-.4 2.263-.648 3.428l-9.858 5.709V81.89ZM141.655 28.608l-11.347-6.571-17.113 9.919v19.838l17.113 9.919 14.939-8.652c.643-5.69.44-10.761-.447-15.24V50.26l-14.492 8.398-14.478-8.384V33.477l14.478-8.385 13.087 7.571a33.174 33.174 0 0 0-1.74-4.055ZM131.641 17.21a30.661 30.661 0 0 1 6.93 6.529l-6.93-4.017V17.21ZM126.35 14.26c.897.399 1.777.836 2.635 1.311v4.151l-17.101 9.92h-.013l-17.113-9.92V14.75c.847-.44 1.725-.85 2.635-1.225v4.678l14.478 8.384h.013l14.466-8.384v-3.943ZM89.46 18.14a36.304 36.304 0 0 1 2.634-1.853v3.435l-10.01 5.807c1.904-2.43 4.244-4.926 7.065-7.148l.31-.18v-.061ZM60.502 16.904V18.2l5.253 3.042a37.207 37.207 0 0 1 4.666 5.755l-12.554-7.276v-4.416a33.65 33.65 0 0 1 2.635 1.598ZM52.569 12.98c.904.308 1.782.65 2.635 1.022v5.72l-17.1 9.92h-.014l-17.113-9.92v-3.4a34.56 34.56 0 0 1 2.634-1.461v3.34l14.48 8.385h.012l14.466-8.384v-5.223Z" />
  <path fill="#FFF132" fill-rule="evenodd"
    d="m73.025 31.587-16.49-9.55-17.113 9.919v19.838l17.114 9.919 17.126-9.92V32.969a40.92 40.92 0 0 0-.637-1.381Zm-30.968 1.89v16.796l14.478 8.384 14.492-8.398V33.477l-14.492-8.385-14.478 8.385ZM76.313 34.89v16.904l17.113 9.919 17.127-9.92V31.957l-17.127-9.92-14.846 8.605a48.844 48.844 0 0 0-2.267 4.25Zm2.634 15.383V33.477l14.479-8.385 14.492 8.385v16.782l-14.492 8.398-14.479-8.384ZM20.977 64.027v20.5l17.113 9.918h.013l17.1-9.919v-20.5l-17.1-9.918h-.013l-17.113 9.919Zm31.592 1.52v17.458L38.103 91.39h-.013l-14.479-8.385V65.548l14.48-8.385h.012l14.466 8.385ZM57.867 64.027l17.114-9.919h.013l17.1 9.919v20.5l-17.1 9.918h-.013l-17.114-9.919v-20.5Zm31.592 1.52-14.465-8.384h-.013l-14.479 8.385v17.457l14.479 8.385h.013l14.465-8.385V65.548ZM94.758 64.027v20.5l17.113 9.918h.013l17.101-9.919v-20.5l-17.101-9.918h-.013l-17.113 9.919Zm31.592 1.52v17.458l-14.466 8.385h-.013l-14.478-8.385V65.548l14.478-8.385h.013l14.466 8.385Z"
    clip-rule="evenodd" />
  <path fill="#D2A008" fill-rule="evenodd"
    d="M12.327 22.43C19.491 13.944 30.185 10 40.144 10c.372 0 .74.005 1.106.016 18.22.453 29.383 12.035 34.129 24.51.256-.547.563-1.173.922-1.86 1.31-2.507 3.332-5.852 6.175-9.2C88.166 16.766 97.2 10 110.422 10c10.723 0 21.422 3.935 28.393 12.44 6.987 8.528 10.084 21.472 5.943 39.19-2.094 8.948-7.488 18.368-14.32 27.425-6.843 9.07-15.18 17.843-23.243 25.504-8.066 7.662-15.872 14.225-21.66 18.872a323.1 323.1 0 0 1-6.956 5.436c-.835.633-1.489 1.12-1.935 1.451l-.51.375-.131.096-.045.032-.587-.809c-.585.811-.586.811-.586.81l-.045-.032-.132-.096-.512-.375c-.447-.331-1.104-.818-1.941-1.451a326.676 326.676 0 0 1-6.981-5.435c-5.81-4.647-13.644-11.211-21.736-18.873-8.09-7.661-16.455-16.435-23.316-25.504C13.27 79.999 7.863 70.579 5.772 61.63c-4.146-17.742-.633-30.685 6.555-39.2Zm63.044 117.582-.585.811.586.423.585-.424-.586-.81Zm-.001-1.24.084-.062c.44-.326 1.088-.809 1.916-1.437a320.277 320.277 0 0 0 6.912-5.401c5.76-4.623 13.521-11.149 21.535-18.763 8.017-7.617 16.271-16.308 23.024-25.259 6.763-8.964 11.968-18.122 13.97-26.675 4.039-17.286.949-29.543-5.543-37.466C130.758 15.765 120.686 12 110.422 12c-12.453 0-20.975 6.347-26.421 12.76-2.725 3.209-4.667 6.421-5.928 8.832a42.722 42.722 0 0 0-1.387 2.902 27.48 27.48 0 0 0-.41 1.009l-.018.05-.004.01v.002l-.948 2.633-.936-2.636v-.002l-.003-.007-.013-.035-.055-.146c-.05-.13-.127-.327-.231-.58l-.013-.03-.01-.033c-4.188-12.458-14.9-24.268-32.847-24.714h-.003c-.347-.01-.697-.015-1.05-.015-9.471 0-19.566 3.755-26.29 11.72-6.698 7.934-10.17 20.192-6.136 37.455 1.999 8.552 7.215 17.71 13.998 26.674 6.772 8.951 15.052 17.642 23.096 25.258 8.041 7.615 15.83 14.141 21.61 18.764a320.976 320.976 0 0 0 6.937 5.401 210.88 210.88 0 0 0 2.01 1.5Z"
    clip-rule="evenodd" />
</svg>