<svg xmlns="http://www.w3.org/2000/svg" fill="none" viewBox="0 0 150 150">
  <path fill="#22C55E"
    d="M110.422 11c-25.676 0-35.11 26.227-35.11 26.227s-.103-.293-.32-.816c-4.287-12.757-15.304-24.937-33.768-25.396-.357-.01-.716-.015-1.08-.015-19.43 0-41.578 15.398-33.398 50.402 8.18 35.004 68.625 78.61 68.625 78.61s60.223-43.606 68.414-78.61C151.965 26.398 131.41 11 110.422 11Z" />
  <path fill="#0B8F40"
    d="M27.59 13.168a35.588 35.588 0 0 0-5.405 2.447l91.214 91.442a240.337 240.337 0 0 0 3.847-4.009L27.59 13.168ZM126.892 91.98a171.768 171.768 0 0 1-3.563 4.293L38.314 11.045a37.134 37.134 0 0 1 2.909-.03c1.876.047 3.675.215 5.397.492l80.272 80.472ZM135.539 79.916a109.218 109.218 0 0 1-3.131 4.728L78.565 30.666a49.66 49.66 0 0 1 3.17-4.688l53.804 53.938ZM142.411 66.066a58.305 58.305 0 0 1-2.301 5.559L87.966 19.352a36.83 36.83 0 0 1 4.535-3.32l49.91 50.034ZM145.588 48.512a61.58 61.58 0 0 1-.692 7.172l-43.429-43.537a34.057 34.057 0 0 1 6.767-1.082l37.354 37.447ZM143.783 33.829c-3.458-10.984-11.431-17.789-20.822-20.874l20.822 20.874ZM106.921 113.438 14.859 21.146a31.863 31.863 0 0 0-3.575 4.283l91.58 91.809a310.87 310.87 0 0 0 4.057-3.8ZM96.08 123.309 7.013 34.019a38.517 38.517 0 0 0-1.51 6.352l86.348 86.564c1.362-1.15 2.776-2.36 4.229-3.626ZM84.8 132.738 5.313 53.052a68.15 68.15 0 0 0 1.432 8.35c.1.423.206.847.32 1.273l73.344 73.528a335.523 335.523 0 0 0 4.391-3.465ZM55.467 124.07l-30.84-30.917c9.544 11.637 21.142 22.554 30.84 30.917Z" />
  <path fill="#15853E" fill-rule="evenodd"
    d="M12.327 22.43C19.491 13.944 30.185 10 40.144 10c.372 0 .74.005 1.106.016 18.22.453 29.383 12.035 34.129 24.51.256-.547.563-1.173.922-1.86 1.31-2.507 3.332-5.852 6.175-9.2C88.166 16.766 97.2 10 110.422 10c10.723 0 21.422 3.935 28.393 12.44 6.987 8.528 10.084 21.472 5.943 39.19-2.094 8.948-7.488 18.368-14.32 27.425-6.843 9.07-15.18 17.843-23.243 25.504-8.066 7.662-15.872 14.225-21.66 18.872a323.1 323.1 0 0 1-6.956 5.436c-.835.633-1.489 1.12-1.935 1.451l-.51.375-.131.096-.045.032-.587-.809c-.585.811-.586.811-.586.81l-.045-.032-.132-.096-.512-.375c-.447-.331-1.104-.818-1.941-1.451a326.676 326.676 0 0 1-6.981-5.435c-5.81-4.647-13.644-11.211-21.736-18.873-8.09-7.661-16.455-16.435-23.316-25.504C13.27 79.999 7.863 70.579 5.772 61.63c-4.146-17.742-.633-30.685 6.555-39.2Zm63.044 117.582-.585.811.586.423.585-.424-.586-.81Zm-.001-1.24.084-.062c.44-.326 1.088-.809 1.916-1.437a320.277 320.277 0 0 0 6.912-5.401c5.76-4.623 13.521-11.149 21.535-18.763 8.017-7.617 16.271-16.308 23.024-25.259 6.763-8.964 11.968-18.122 13.97-26.675 4.039-17.286.949-29.543-5.543-37.466C130.758 15.765 120.686 12 110.422 12c-12.453 0-20.975 6.347-26.421 12.76-2.725 3.209-4.667 6.421-5.928 8.832a42.722 42.722 0 0 0-1.387 2.902 27.48 27.48 0 0 0-.41 1.009l-.018.05-.004.01v.002l-.948 2.633-.936-2.636v-.002l-.003-.007-.013-.035-.055-.146c-.05-.13-.127-.327-.231-.58l-.013-.03-.01-.033c-4.188-12.458-14.9-24.268-32.847-24.714h-.003c-.347-.01-.697-.015-1.05-.015-9.471 0-19.566 3.755-26.29 11.72-6.698 7.934-10.17 20.192-6.136 37.455 1.999 8.552 7.215 17.71 13.998 26.674 6.772 8.951 15.052 17.642 23.096 25.258 8.041 7.615 15.83 14.141 21.61 18.764a320.976 320.976 0 0 0 6.937 5.401 210.88 210.88 0 0 0 2.01 1.5Z"
    clip-rule="evenodd" />
</svg>