<svg width="150" height="150" viewBox="0 0 150 150" fill="none" xmlns="http://www.w3.org/2000/svg">
<mask id="mask0_1449_16501" style="mask-type:alpha" maskUnits="userSpaceOnUse" x="5" y="11" width="141" height="130">
<path d="M110.422 11C84.7461 11 75.3126 37.2266 75.3126 37.2266C75.3126 37.2266 75.2087 36.9339 74.9925 36.4105C70.7052 23.6541 59.6879 11.4744 41.2237 11.0154C40.8673 11.0052 40.5076 11 40.1446 11C20.7149 11 -1.43354 26.3984 6.74615 61.4023C14.9258 96.4062 75.3712 140.012 75.3712 140.012C75.3712 140.012 135.594 96.4062 143.785 61.4023C151.965 26.3984 131.41 11 110.422 11Z" fill="black"/>
</mask>
<g mask="url(#mask0_1449_16501)">
<rect width="150" height="150" fill="#22C55E"/>
<path d="M68.667 0H76.5137L150 73.67V81.5363L68.667 0Z" fill="#0B8F40"/>
<path d="M47.9803 0H55.827L150 94.4084V102.275L47.9803 0Z" fill="#0B8F40"/>
<path d="M27.2937 0H35.1403L150 115.147V123.013L27.2937 0Z" fill="#0B8F40"/>
<path d="M6.607 0H14.4537L150 135.885V143.751L6.607 0Z" fill="#0B8F40"/>
<path d="M0 14.1149V6.24858L143.393 150H135.546L0 14.1149Z" fill="#0B8F40"/>
<path d="M0 34.8532V26.987L122.706 150H114.86L0 34.8532Z" fill="#0B8F40"/>
<path d="M0 55.5916V47.7253L102.02 150H94.173L0 55.5916Z" fill="#0B8F40"/>
<path d="M0 76.33V68.4637L81.333 150H73.4863L0 76.33Z" fill="#0B8F40"/>
<path d="M0 97.0683V89.2021L60.6464 150H52.7997L0 97.0683Z" fill="#0B8F40"/>
<path d="M0 117.807V109.94L39.9597 150H32.113L0 117.807Z" fill="#0B8F40"/>
<path d="M0 138.545V130.679L19.273 150H11.4264L0 138.545Z" fill="#0B8F40"/>
<path d="M150 60.7979L89.3537 0H97.2003L150 52.9316V60.7979Z" fill="#0B8F40"/>
<path d="M150 40.0595L110.04 0H117.887L150 32.1933V40.0595Z" fill="#0B8F40"/>
<path d="M150 19.3212L130.727 0H138.574L150 11.4549V19.3212Z" fill="#0B8F40"/>
</g>
<path d="M110.422 11C84.7461 11 75.3126 37.2266 75.3126 37.2266C75.3126 37.2266 75.2087 36.9339 74.9925 36.4105C70.7052 23.6541 59.6879 11.4744 41.2237 11.0154C40.8673 11.0052 40.5076 11 40.1446 11C20.7149 11 -1.43354 26.3984 6.74615 61.4023C14.9258 96.4062 75.3712 140.012 75.3712 140.012C75.3712 140.012 135.594 96.4062 143.785 61.4023C151.965 26.3984 131.41 11 110.422 11Z" stroke="#15853E" stroke-width="2"/>
</svg>
