<svg xmlns="http://www.w3.org/2000/svg" fill="none" viewBox="0 0 150 150">
  <path fill="#000"
    d="M110.422 11c-25.676 0-35.11 26.227-35.11 26.227s-.103-.293-.32-.816c-4.287-12.757-15.304-24.937-33.768-25.396-.357-.01-.716-.015-1.08-.015-19.43 0-41.578 15.398-33.398 50.402 8.18 35.004 68.625 78.61 68.625 78.61s60.223-43.606 68.414-78.61C151.965 26.398 131.41 11 110.422 11Z" />
  <path fill="#484848"
    d="M46 20H34v6h12v-6ZM60 16.574c-3.163-2.042-6.78-3.625-10.861-4.574H48v6h12v-1.426ZM62.04 18l-.04-.03V18h.04ZM20 28h12v6H20v-6ZM9.67 28H18v6H7.02a33.993 33.993 0 0 1 2.65-6ZM10.897 26H18v-6h-1.938a31.903 31.903 0 0 0-5.165 6ZM31.554 12c-4.04.95-7.988 2.586-11.554 4.945V18h12v-6h-.446ZM6.419 36H18v6H6v-4.294A38.24 38.24 0 0 1 6.419 36ZM32 36H20v6h12v-6ZM46 36H34v6h12v-6ZM48 28h12v6H48v-6ZM60 20H48v6h12v-6ZM74 33.76A40.501 40.501 0 0 0 71.06 28H62v6h12v-.24ZM80.273 28a50.197 50.197 0 0 0-3.53 6H88v-6h-7.727ZM81.72 26H88v-6h-.773a43.738 43.738 0 0 0-5.507 6ZM102 12.01c-4.68 1.164-8.659 3.241-12 5.721V18h12v-5.99ZM74 36H62v6h12v-6ZM32 52H20v6h12v-6ZM34 44h12v6H34v-6ZM60 44H48v6h12v-6ZM48 52h12v6H48v-6ZM46 52H34v6h12v-6ZM34 68h12v6H34v-6ZM60 60H48v6h12v-6ZM62 60h12v6H62v-6ZM74 44H62v6h12v-6ZM20 76h12v6H20v-6ZM8.096 66a44.561 44.561 0 0 1-1.35-4.598c-.11-.47-.214-.938-.314-1.402H18v6H8.096ZM8.844 68H18v6h-6.395a64.673 64.673 0 0 1-2.761-6ZM6.034 58H18v-6H6v5.813l.034.187ZM12.683 76H18v6h-1.657a94.471 94.471 0 0 1-3.66-6ZM20 87.223V84h12v6h-9.893c-.718-.923-1.42-1.849-2.107-2.777ZM18 84.44V84h-.305l.305.44ZM46 84H34v6h12v-6ZM48 76h12v6H48v-6ZM60 68H48v6h12v-6ZM62 76h12v6H62v-6ZM74 84H62v6h12v-6ZM32 60H20v6h12v-6ZM30.538 100H32v1.599c-.49-.53-.977-1.064-1.462-1.599ZM34 103.736V100h12v6h-9.825A239.892 239.892 0 0 1 34 103.736ZM46 92H34v6h12v-6ZM48 92h12v6H48v-6ZM60 100H48v6h12v-6ZM48 108h12v6H48v-6ZM74 108H62v6h12v-6ZM62 92h12v6H62v-6ZM60 127.914A359.084 359.084 0 0 1 55.386 124H60v3.914ZM62 129.571V124h12v6H62.523l-.523-.429ZM97.574 122H90v-6h12v2.03a332.66 332.66 0 0 1-4.426 3.97ZM106.331 114H104v-6h8.47a278.973 278.973 0 0 1-6.139 6ZM114.432 106H104v-6h12v4.368a270.14 270.14 0 0 1-1.568 1.632ZM126.877 92a178.035 178.035 0 0 1-5.046 6H118v-6h8.877ZM128.456 90H118v-6h12v3.973c-.506.677-1.022 1.353-1.544 2.027ZM120.05 100c-.678.752-1.362 1.499-2.05 2.24V100h2.05ZM95.285 124A359.163 359.163 0 0 1 90 128.488V124h5.285ZM72.665 138a324.55 324.55 0 0 1-7.678-6H74v6h-1.335ZM48 116h12v6h-6.911A337.698 337.698 0 0 1 48 117.439V116ZM118 20h12v6h-12v-6ZM132 17.461V18h.74a31.299 31.299 0 0 0-.74-.539ZM140.162 26a30.406 30.406 0 0 0-5.021-6H132v6h8.162ZM141.336 28H132v6h11.837a33.514 33.514 0 0 0-2.501-6ZM104 28h12v6h-12v-6ZM90 28h12v6H90v-6ZM116 36h-12v6h12v-6ZM90 36h12v6H90v-6ZM130 36h-12v6h12v-6ZM90 20h12v6H90v-6ZM116 12h-12v6h12v-6ZM88 44H76v6h12v-6ZM104 52h12v6h-12v-6ZM130 44h-12v6h12v-6ZM132 44h12v6h-12v-6ZM144 52h-12v6h12v-6ZM118 52h12v6h-12v-6ZM130 68h-12v6h12v-6ZM132 60h12v.457c-.069.313-.141.629-.215.945a44.651 44.651 0 0 1-1.35 4.598H132v-6ZM141.688 68H132v6h6.931a64.79 64.79 0 0 0 2.757-6ZM116 76h-12v6h12v-6ZM90 60h12v6H90v-6ZM88 68H76v6h12v-6ZM76 76h12v6H76v-6ZM102 76H90v6h12v-6ZM104 84h12v6h-12v-6ZM102 84H90v6h12v-6ZM137.855 76H132v6h2.204a94.982 94.982 0 0 0 3.651-6ZM102 68H90v6h12v-6ZM104 60h12v6h-12v-6ZM102 52H90v6h12v-6ZM76 52h12v6H76v-6ZM76 92h12v6H76v-6ZM102 108H90v6h12v-6ZM76 116h12v6H76v-6ZM88 124H76v6h12v-6ZM90 100h12v6H90v-6ZM88 100H76v6h12v-6Z" />
  <path fill="#E2E2E2" fill-rule="evenodd"
    d="M12.327 22.43C19.491 13.944 30.185 10 40.144 10c.372 0 .74.005 1.106.016 18.22.453 29.383 12.035 34.129 24.51.256-.547.563-1.173.922-1.86 1.31-2.507 3.332-5.852 6.175-9.2C88.166 16.766 97.2 10 110.422 10c10.723 0 21.422 3.935 28.393 12.44 6.987 8.528 10.084 21.472 5.943 39.19-2.094 8.948-7.488 18.368-14.32 27.425-6.843 9.07-15.18 17.843-23.243 25.504-8.066 7.662-15.872 14.225-21.66 18.872a323.1 323.1 0 0 1-6.956 5.436c-.835.633-1.489 1.12-1.935 1.451l-.51.375-.131.096-.045.032-.587-.809c-.585.811-.586.811-.586.81l-.045-.032-.132-.096-.512-.375c-.447-.331-1.104-.818-1.941-1.451a326.676 326.676 0 0 1-6.981-5.435c-5.81-4.647-13.644-11.211-21.736-18.873-8.09-7.661-16.455-16.435-23.316-25.504C13.27 79.999 7.863 70.579 5.772 61.63c-4.146-17.742-.633-30.685 6.555-39.2Zm63.044 117.582-.585.811.586.423.585-.424-.586-.81Zm-.001-1.24.084-.062c.44-.326 1.088-.809 1.916-1.437a320.277 320.277 0 0 0 6.912-5.401c5.76-4.623 13.521-11.149 21.535-18.763 8.017-7.617 16.271-16.308 23.024-25.259 6.763-8.964 11.968-18.122 13.97-26.675 4.039-17.286.949-29.543-5.543-37.466C130.758 15.765 120.686 12 110.422 12c-12.453 0-20.975 6.347-26.421 12.76-2.725 3.209-4.667 6.421-5.928 8.832a42.722 42.722 0 0 0-1.387 2.902 27.48 27.48 0 0 0-.41 1.009l-.018.05-.004.01v.002l-.948 2.633-.936-2.636v-.002l-.003-.007-.013-.035-.055-.146c-.05-.13-.127-.327-.231-.58l-.013-.03-.01-.033c-4.188-12.458-14.9-24.268-32.847-24.714h-.003c-.347-.01-.697-.015-1.05-.015-9.471 0-19.566 3.755-26.29 11.72-6.698 7.934-10.17 20.192-6.136 37.455 1.999 8.552 7.215 17.71 13.998 26.674 6.772 8.951 15.052 17.642 23.096 25.258 8.041 7.615 15.83 14.141 21.61 18.764a320.976 320.976 0 0 0 6.937 5.401 210.88 210.88 0 0 0 2.01 1.5Z"
    clip-rule="evenodd" />
</svg>