<svg width="150" height="150" viewBox="0 0 150 150" fill="none" xmlns="http://www.w3.org/2000/svg">
<mask id="mask0_1449_16502" style="mask-type:alpha" maskUnits="userSpaceOnUse" x="5" y="11" width="141" height="130">
<path d="M110.422 11C84.7461 11 75.3126 37.2266 75.3126 37.2266C75.3126 37.2266 75.2087 36.9339 74.9925 36.4105C70.7052 23.6541 59.6879 11.4744 41.2237 11.0154C40.8673 11.0052 40.5076 11 40.1446 11C20.7149 11 -1.43354 26.3984 6.74615 61.4023C14.9258 96.4062 75.3712 140.012 75.3712 140.012C75.3712 140.012 135.594 96.4062 143.785 61.4023C151.965 26.3984 131.41 11 110.422 11Z" fill="black"/>
</mask>
<g mask="url(#mask0_1449_16502)">
<rect width="150" height="150" fill="black"/>
<path d="M0 10V4H4V10H0Z" fill="#484848"/>
<path d="M0 26V20H4V26H0Z" fill="#484848"/>
<path d="M0 34V28H4V34H0Z" fill="#484848"/>
<path d="M0 50V44H4V50H0Z" fill="#484848"/>
<path d="M0 58V52H4V58H0Z" fill="#484848"/>
<path d="M0 74V68H4V74H0Z" fill="#484848"/>
<path d="M0 82V76H4V82H0Z" fill="#484848"/>
<path d="M0 98V92H4V98H0Z" fill="#484848"/>
<path d="M0 106V100H4V106H0Z" fill="#484848"/>
<path d="M0 122V116H4V122H0Z" fill="#484848"/>
<path d="M0 130V124H4V130H0Z" fill="#484848"/>
<path d="M0 146V140H4V146H0Z" fill="#484848"/>
<path d="M4 150H0V148H4V150Z" fill="#484848"/>
<path d="M18 150H6V148H18V150Z" fill="#484848"/>
<path d="M32 150H20V148H32V150Z" fill="#484848"/>
<path d="M46 150H34V148H46V150Z" fill="#484848"/>
<path d="M60 150H48V148H60V150Z" fill="#484848"/>
<path d="M88 150H76V148H88V150Z" fill="#484848"/>
<path d="M102 150H90V148H102V150Z" fill="#484848"/>
<path d="M116 150H104V148H116V150Z" fill="#484848"/>
<path d="M130 150H118V148H130V150Z" fill="#484848"/>
<path d="M144 150H132V148H144V150Z" fill="#484848"/>
<path d="M150 140V146H146V140H150Z" fill="#484848"/>
<path d="M150 132V138H146V132H150Z" fill="#484848"/>
<path d="M150 124V130H146V124H150Z" fill="#484848"/>
<path d="M150 108V114H146V108H150Z" fill="#484848"/>
<path d="M150 92V98H146V92H150Z" fill="#484848"/>
<path d="M150 84V90H146V84H150Z" fill="#484848"/>
<path d="M150 76V82H146V76H150Z" fill="#484848"/>
<path d="M150 60V66H146V60H150Z" fill="#484848"/>
<path d="M150 44V50H146V44H150Z" fill="#484848"/>
<path d="M150 36V42H146V36H150Z" fill="#484848"/>
<path d="M150 28V34H146V28H150Z" fill="#484848"/>
<path d="M150 12V18H146V12H150Z" fill="#484848"/>
<path d="M146 0H150V2H146V0Z" fill="#484848"/>
<path d="M132 0H144V2H132V0Z" fill="#484848"/>
<path d="M118 0H130V2H118V0Z" fill="#484848"/>
<path d="M76 0H88V2H76V0Z" fill="#484848"/>
<path d="M62 0H74V2H62V0Z" fill="#484848"/>
<path d="M48 0H60V2H48V0Z" fill="#484848"/>
<path d="M34 0H46V2H34V0Z" fill="#484848"/>
<path d="M4 0V2H0V0H4Z" fill="#484848"/>
<path d="M32 4H20V10H32V4Z" fill="#484848"/>
<path d="M60 4H48V10H60V4Z" fill="#484848"/>
<path d="M46 4H34V10H46V4Z" fill="#484848"/>
<path d="M46 20H34V26H46V20Z" fill="#484848"/>
<path d="M60 12H48V18H60V12Z" fill="#484848"/>
<path d="M74 12H62V18H74V12Z" fill="#484848"/>
<path d="M32 28H20V34H32V28Z" fill="#484848"/>
<path d="M18 12H6V18H18V12Z" fill="#484848"/>
<path d="M18 28H6V34H18V28Z" fill="#484848"/>
<path d="M32 36H20V42H32V36Z" fill="#484848"/>
<path d="M18 36H6V42H18V36Z" fill="#484848"/>
<path d="M46 36H34V42H46V36Z" fill="#484848"/>
<path d="M60 28H48V34H60V28Z" fill="#484848"/>
<path d="M60 20H48V26H60V20Z" fill="#484848"/>
<path d="M74 28H62V34H74V28Z" fill="#484848"/>
<path d="M74 36H62V42H74V36Z" fill="#484848"/>
<path d="M18 20H6V26H18V20Z" fill="#484848"/>
<path d="M32 12H20V18H32V12Z" fill="#484848"/>
<path d="M18 4H6V10H18V4Z" fill="#484848"/>
<path d="M32 52H20V58H32V52Z" fill="#484848"/>
<path d="M46 44H34V50H46V44Z" fill="#484848"/>
<path d="M60 44H48V50H60V44Z" fill="#484848"/>
<path d="M60 52H48V58H60V52Z" fill="#484848"/>
<path d="M46 52H34V58H46V52Z" fill="#484848"/>
<path d="M46 68H34V74H46V68Z" fill="#484848"/>
<path d="M60 60H48V66H60V60Z" fill="#484848"/>
<path d="M74 60H62V66H74V60Z" fill="#484848"/>
<path d="M74 44H62V50H74V44Z" fill="#484848"/>
<path d="M32 76H20V82H32V76Z" fill="#484848"/>
<path d="M18 60H6V66H18V60Z" fill="#484848"/>
<path d="M18 76H6V82H18V76Z" fill="#484848"/>
<path d="M32 84H20V90H32V84Z" fill="#484848"/>
<path d="M18 84H6V90H18V84Z" fill="#484848"/>
<path d="M46 84H34V90H46V84Z" fill="#484848"/>
<path d="M60 76H48V82H60V76Z" fill="#484848"/>
<path d="M60 68H48V74H60V68Z" fill="#484848"/>
<path d="M74 76H62V82H74V76Z" fill="#484848"/>
<path d="M74 84H62V90H74V84Z" fill="#484848"/>
<path d="M18 68H6V74H18V68Z" fill="#484848"/>
<path d="M32 60H20V66H32V60Z" fill="#484848"/>
<path d="M18 52H6V58H18V52Z" fill="#484848"/>
<path d="M20 100H32V106H20V100Z" fill="#484848"/>
<path d="M34 92H46V98H34V92Z" fill="#484848"/>
<path d="M48 92H60V98H48V92Z" fill="#484848"/>
<path d="M48 100H60V106H48V100Z" fill="#484848"/>
<path d="M34 100H46V106H34V100Z" fill="#484848"/>
<path d="M34 116H46V122H34V116Z" fill="#484848"/>
<path d="M48 108H60V114H48V108Z" fill="#484848"/>
<path d="M62 108H74V114H62V108Z" fill="#484848"/>
<path d="M62 92H74V98H62V92Z" fill="#484848"/>
<path d="M20 124H32V130H20V124Z" fill="#484848"/>
<path d="M6 108H18V114H6V108Z" fill="#484848"/>
<path d="M6 124H18V130H6V124Z" fill="#484848"/>
<path d="M20 132H32V138H20V132Z" fill="#484848"/>
<path d="M6 132H18V138H6V132Z" fill="#484848"/>
<path d="M34 132H46V138H34V132Z" fill="#484848"/>
<path d="M48 124H60V130H48V124Z" fill="#484848"/>
<path d="M48 116H60V122H48V116Z" fill="#484848"/>
<path d="M62 124H74V130H62V124Z" fill="#484848"/>
<path d="M62 132H74V138H62V132Z" fill="#484848"/>
<path d="M6 116H18V122H6V116Z" fill="#484848"/>
<path d="M20 108H32V114H20V108Z" fill="#484848"/>
<path d="M6 100H18V106H6V100Z" fill="#484848"/>
<path d="M116 4H104V10H116V4Z" fill="#484848"/>
<path d="M144 4H132V10H144V4Z" fill="#484848"/>
<path d="M130 4H118V10H130V4Z" fill="#484848"/>
<path d="M130 20H118V26H130V20Z" fill="#484848"/>
<path d="M144 12H132V18H144V12Z" fill="#484848"/>
<path d="M116 28H104V34H116V28Z" fill="#484848"/>
<path d="M102 12H90V18H102V12Z" fill="#484848"/>
<path d="M88 20H76V26H88V20Z" fill="#484848"/>
<path d="M88 28H76V34H88V28Z" fill="#484848"/>
<path d="M102 28H90V34H102V28Z" fill="#484848"/>
<path d="M116 36H104V42H116V36Z" fill="#484848"/>
<path d="M102 36H90V42H102V36Z" fill="#484848"/>
<path d="M130 36H118V42H130V36Z" fill="#484848"/>
<path d="M144 28H132V34H144V28Z" fill="#484848"/>
<path d="M144 20H132V26H144V20Z" fill="#484848"/>
<path d="M102 20H90V26H102V20Z" fill="#484848"/>
<path d="M116 12H104V18H116V12Z" fill="#484848"/>
<path d="M102 4H90V10H102V4Z" fill="#484848"/>
<path d="M88 4H76V10H88V4Z" fill="#484848"/>
<path d="M76 44H88V50H76V44Z" fill="#484848"/>
<path d="M104 52H116V58H104V52Z" fill="#484848"/>
<path d="M118 44H130V50H118V44Z" fill="#484848"/>
<path d="M132 44H144V50H132V44Z" fill="#484848"/>
<path d="M132 52H144V58H132V52Z" fill="#484848"/>
<path d="M118 52H130V58H118V52Z" fill="#484848"/>
<path d="M118 68H130V74H118V68Z" fill="#484848"/>
<path d="M132 60H144V66H132V60Z" fill="#484848"/>
<path d="M104 76H116V82H104V76Z" fill="#484848"/>
<path d="M90 60H102V66H90V60Z" fill="#484848"/>
<path d="M76 68H88V74H76V68Z" fill="#484848"/>
<path d="M76 76H88V82H76V76Z" fill="#484848"/>
<path d="M90 76H102V82H90V76Z" fill="#484848"/>
<path d="M104 84H116V90H104V84Z" fill="#484848"/>
<path d="M90 84H102V90H90V84Z" fill="#484848"/>
<path d="M118 84H130V90H118V84Z" fill="#484848"/>
<path d="M132 76H144V82H132V76Z" fill="#484848"/>
<path d="M132 68H144V74H132V68Z" fill="#484848"/>
<path d="M90 68H102V74H90V68Z" fill="#484848"/>
<path d="M104 60H116V66H104V60Z" fill="#484848"/>
<path d="M90 52H102V58H90V52Z" fill="#484848"/>
<path d="M76 52H88V58H76V52Z" fill="#484848"/>
<path d="M88 92H76V98H88V92Z" fill="#484848"/>
<path d="M116 100H104V106H116V100Z" fill="#484848"/>
<path d="M130 92H118V98H130V92Z" fill="#484848"/>
<path d="M144 92H132V98H144V92Z" fill="#484848"/>
<path d="M144 100H132V106H144V100Z" fill="#484848"/>
<path d="M130 100H118V106H130V100Z" fill="#484848"/>
<path d="M130 116H118V122H130V116Z" fill="#484848"/>
<path d="M144 108H132V114H144V108Z" fill="#484848"/>
<path d="M116 124H104V130H116V124Z" fill="#484848"/>
<path d="M102 108H90V114H102V108Z" fill="#484848"/>
<path d="M88 116H76V122H88V116Z" fill="#484848"/>
<path d="M88 124H76V130H88V124Z" fill="#484848"/>
<path d="M102 124H90V130H102V124Z" fill="#484848"/>
<path d="M116 132H104V138H116V132Z" fill="#484848"/>
<path d="M102 132H90V138H102V132Z" fill="#484848"/>
<path d="M130 132H118V138H130V132Z" fill="#484848"/>
<path d="M144 124H132V130H144V124Z" fill="#484848"/>
<path d="M144 116H132V122H144V116Z" fill="#484848"/>
<path d="M102 116H90V122H102V116Z" fill="#484848"/>
<path d="M116 108H104V114H116V108Z" fill="#484848"/>
<path d="M102 100H90V106H102V100Z" fill="#484848"/>
<path d="M88 100H76V106H88V100Z" fill="#484848"/>
<path d="M46 140H34V146H46V140Z" fill="#484848"/>
<path d="M48 140H60V146H48V140Z" fill="#484848"/>
<path d="M74 140H62V146H74V140Z" fill="#484848"/>
<path d="M76 140H88V146H76V140Z" fill="#484848"/>
<path d="M118 140H130V146H118V140Z" fill="#484848"/>
<path d="M144 140H132V146H144V140Z" fill="#484848"/>
</g>
<path d="M110.422 11C84.7461 11 75.3126 37.2266 75.3126 37.2266C75.3126 37.2266 75.2087 36.9339 74.9925 36.4105C70.7052 23.6541 59.6879 11.4744 41.2237 11.0154C40.8673 11.0052 40.5076 11 40.1446 11C20.7149 11 -1.43354 26.3984 6.74615 61.4023C14.9258 96.4062 75.3712 140.012 75.3712 140.012C75.3712 140.012 135.594 96.4062 143.785 61.4023C151.965 26.3984 131.41 11 110.422 11Z" stroke="#E2E2E2" stroke-width="2"/>
</svg>
