<svg xmlns="http://www.w3.org/2000/svg" fill="none" viewBox="0 0 150 150">
  <path fill="#fff"
    d="M110.422 11c-25.676 0-35.11 26.227-35.11 26.227s-.103-.293-.32-.816c-4.287-12.757-15.304-24.937-33.768-25.396-.357-.01-.716-.015-1.08-.015-19.43 0-41.578 15.398-33.398 50.402 8.18 35.004 68.625 78.61 68.625 78.61s60.223-43.606 68.414-78.61C151.965 26.398 131.41 11 110.422 11Z" />
  <path fill="#D9D9D9"
    d="M5.846 38.45a7.466 7.466 0 0 1 3.658-.95 2.5 2.5 0 1 0 0-5.002c-.64 0-1.26-.08-1.853-.23.155-.396.316-.786.482-1.17.441.099.9.15 1.37.15a3.75 3.75 0 1 1 0 7.501 6.224 6.224 0 0 0-3.964 1.418c.091-.581.194-1.154.307-1.717ZM6.097 58.317a7.468 7.468 0 0 1 3.407-.817 2.5 2.5 0 0 0 0-5 7.465 7.465 0 0 1-4.36-1.398 55.32 55.32 0 0 1-.097-1.72 6.231 6.231 0 0 0 4.457 1.867 3.75 3.75 0 1 1 0 7.501 6.22 6.22 0 0 0-3.152.852c-.09-.431-.175-.86-.255-1.285ZM11.988 74.72a2.494 2.494 0 0 0-.826-1.59c-.302-.6-.593-1.2-.873-1.797a3.749 3.749 0 0 1 2.664 5.14 81.399 81.399 0 0 1-.965-1.752ZM23.634 91.925c-.275-.34-.547-.683-.818-1.025a6.252 6.252 0 0 0-2.063-12.151 3.748 3.748 0 1 1 0-7.499 6.25 6.25 0 1 0 0-12.5 3.75 3.75 0 0 1 0-7.5 6.25 6.25 0 1 0 0-12.5 3.75 3.75 0 0 1 0-7.502 6.25 6.25 0 1 0 0-12.5 3.734 3.734 0 0 1-2.25-.75c.361-.268.727-.528 1.097-.78.345.179.737.28 1.153.28a7.5 7.5 0 0 1 0 15 2.5 2.5 0 1 0 0 5.001 7.5 7.5 0 0 1 0 15 2.5 2.5 0 0 0 0 5.001 7.5 7.5 0 0 1 0 15 2.5 2.5 0 1 0 0 4.999 7.5 7.5 0 0 1 2.88 14.427ZM33.511 103.216l-.963-1.029a7.503 7.503 0 0 1 6.956-4.688 2.5 2.5 0 1 0 0-5 7.5 7.5 0 0 1 0-15 2.5 2.5 0 1 0 0-4.998 7.5 7.5 0 0 1 0-15 2.5 2.5 0 0 0 0-5.002 7.5 7.5 0 0 1 0-15 2.5 2.5 0 1 0 0-5 7.5 7.5 0 0 1 0-15 2.5 2.5 0 1 0 0-4.999c-1.501 0-2.899-.44-4.071-1.2.85-.108 1.701-.187 2.549-.236a6.26 6.26 0 0 0 1.522.186 3.748 3.748 0 1 1 0 7.498 6.25 6.25 0 1 0 0 12.5 3.75 3.75 0 1 1 0 7.501 6.25 6.25 0 1 0 0 12.5 3.75 3.75 0 1 1 0 7.501 6.25 6.25 0 1 0 0 12.5 3.748 3.748 0 1 1 0 7.499 6.25 6.25 0 1 0 0 12.5 3.75 3.75 0 1 1 0 7.5 6.253 6.253 0 0 0-5.992 4.467ZM48.912 118.268c-.413-.375-.827-.753-1.243-1.135a3.75 3.75 0 0 1 3.085-5.884 6.25 6.25 0 1 0 0-12.5 3.75 3.75 0 0 1 0-7.5 6.25 6.25 0 1 0 0-12.5 3.748 3.748 0 1 1 0-7.499 6.25 6.25 0 1 0 0-12.5 3.75 3.75 0 0 1 0-7.5 6.25 6.25 0 1 0 0-12.5 3.75 3.75 0 0 1 0-7.502 6.25 6.25 0 1 0 0-12.5 3.75 3.75 0 0 1-2.098-6.857 36.04 36.04 0 0 1 2.38.604 7.57 7.57 0 0 1-.282.005 2.5 2.5 0 1 0 0 4.998 7.5 7.5 0 0 1 0 15 2.5 2.5 0 1 0 0 5.001 7.5 7.5 0 0 1 0 15 2.5 2.5 0 0 0 0 5.001 7.5 7.5 0 0 1 0 15 2.5 2.5 0 1 0 0 4.999 7.5 7.5 0 0 1 0 15 2.5 2.5 0 1 0 0 5 7.5 7.5 0 1 1 0 15 2.5 2.5 0 1 0 0 5.001 7.5 7.5 0 0 1 7.38 8.844c-.377-.318-.758-.641-1.142-.969a6.25 6.25 0 0 0-6.239-6.625c-.669 0-1.297-.175-1.84-.482ZM72.105 137.573l-1.001-.765a2.5 2.5 0 0 0-1.725-4.308 7.5 7.5 0 0 1 0-15 2.5 2.5 0 0 0 0-5.001 7.5 7.5 0 0 1 0-15 2.5 2.5 0 1 0 0-5 7.5 7.5 0 0 1 0-15 2.5 2.5 0 1 0 0-4.998 7.5 7.5 0 0 1 0-15 2.5 2.5 0 0 0 0-5.002 7.5 7.5 0 0 1 0-15 2.5 2.5 0 1 0 0-5 7.5 7.5 0 0 1-5.284-12.823c.313.277.621.559.923.845a6.25 6.25 0 0 0 4.36 10.727 3.75 3.75 0 1 1 0 7.501 6.25 6.25 0 1 0 0 12.5 3.75 3.75 0 1 1 0 7.501 6.25 6.25 0 1 0 0 12.5 3.748 3.748 0 1 1 0 7.499 6.25 6.25 0 1 0 0 12.5 3.75 3.75 0 1 1 0 7.5 6.25 6.25 0 1 0 0 12.5 3.75 3.75 0 1 1 0 7.501 6.25 6.25 0 1 0 0 12.5 3.75 3.75 0 0 1 3.75 3.748V135c0 .997-.389 1.902-1.023 2.573ZM79.26 137.092c-.367.282-.711.545-1.031.788a3.741 3.741 0 0 1-1.35-2.88v-.002a3.75 3.75 0 0 1 3.75-3.748 6.25 6.25 0 1 0 0-12.5 3.75 3.75 0 0 1 0-7.501 6.25 6.25 0 1 0 0-12.5 3.75 3.75 0 0 1 0-7.5 6.25 6.25 0 1 0 0-12.5 3.748 3.748 0 1 1 0-7.499 6.25 6.25 0 1 0 0-12.5 3.75 3.75 0 0 1 0-7.5 6.25 6.25 0 1 0 0-12.5 3.75 3.75 0 0 1 0-7.502 6.25 6.25 0 0 0 5.115-9.842c.296-.294.599-.586.909-.876a7.5 7.5 0 0 1-6.024 11.968 2.5 2.5 0 1 0 0 5.001 7.5 7.5 0 0 1 0 15 2.5 2.5 0 0 0 0 5.001 7.5 7.5 0 0 1 0 15 2.5 2.5 0 1 0 0 4.999 7.5 7.5 0 0 1 0 15 2.5 2.5 0 1 0 0 5 7.5 7.5 0 1 1 0 15 2.5 2.5 0 1 0 0 5.001 7.5 7.5 0 0 1 0 15 2.5 2.5 0 0 0-1.368 4.592ZM93.294 125.715l-1.107.941a7.5 7.5 0 0 1 7.317-9.156 2.5 2.5 0 0 0 0-5.001 7.5 7.5 0 0 1 0-15 2.5 2.5 0 1 0 0-5 7.5 7.5 0 0 1 0-15 2.498 2.498 0 1 0 0-4.999 7.5 7.5 0 0 1 0-15 2.5 2.5 0 1 0 0-5 7.5 7.5 0 0 1 0-15 2.5 2.5 0 1 0 0-5.002 7.5 7.5 0 0 1 0-15 2.5 2.5 0 0 0 .546-4.938 33.12 33.12 0 0 1 1.775-.505 3.75 3.75 0 0 1-2.322 6.694 6.25 6.25 0 1 0 0 12.5 3.75 3.75 0 1 1 0 7.5 6.25 6.25 0 1 0 0 12.5 3.75 3.75 0 1 1 0 7.501 6.25 6.25 0 1 0 0 12.5 3.748 3.748 0 1 1 0 7.499 6.25 6.25 0 1 0 0 12.5 3.75 3.75 0 1 1 0 7.5 6.25 6.25 0 1 0 0 12.5 3.75 3.75 0 1 1 0 7.501 6.25 6.25 0 0 0-6.21 6.965ZM117.809 102.45c-.328.352-.656.703-.986 1.053a6.251 6.251 0 0 0-6.069-4.754 3.75 3.75 0 1 1 0-7.5 6.25 6.25 0 0 0 0-12.5 3.75 3.75 0 1 1 0-7.498 6.25 6.25 0 0 0 0-12.5 3.75 3.75 0 0 1 0-7.502 6.25 6.25 0 0 0 0-12.5 3.75 3.75 0 1 1 0-7.5 6.25 6.25 0 0 0 0-12.5 3.75 3.75 0 1 1 0-7.499c.552 0 1.088-.071 1.599-.206a41.94 41.94 0 0 1 2.565.195 7.467 7.467 0 0 1-4.164 1.261 2.499 2.499 0 1 0 0 4.998 7.5 7.5 0 0 1 0 15 2.5 2.5 0 1 0 0 5 7.5 7.5 0 0 1 0 15.001 2.5 2.5 0 1 0 0 5.001 7.5 7.5 0 0 1 0 15 2.499 2.499 0 1 0 0 4.999 7.5 7.5 0 0 1 0 15 2.5 2.5 0 1 0 0 5 7.503 7.503 0 0 1 7.055 4.951ZM127.691 90.982c-.274.347-.549.693-.827 1.039a7.502 7.502 0 0 1 2.64-14.522 2.498 2.498 0 1 0 0-4.999 7.5 7.5 0 0 1 0-15 2.5 2.5 0 0 0 0-5 7.5 7.5 0 0 1 0-15 2.5 2.5 0 0 0 0-5.002 7.5 7.5 0 0 1 0-15 2.49 2.49 0 0 0 1.647-.619c.355.234.705.476 1.051.724a3.74 3.74 0 0 1-2.698 1.145 6.25 6.25 0 1 0 0 12.5 3.75 3.75 0 0 1 0 7.5 6.25 6.25 0 1 0 0 12.501 3.75 3.75 0 0 1 0 7.501 6.25 6.25 0 1 0 0 12.5 3.749 3.749 0 0 1 0 7.498 6.25 6.25 0 0 0-1.813 12.234ZM138.267 75.258c-.27.497-.547.995-.831 1.492a3.75 3.75 0 0 1 2.84-5.47 69.848 69.848 0 0 1-.739 1.535 2.499 2.499 0 0 0-1.27 2.443ZM145.462 50.837a7.468 7.468 0 0 1-4.709 1.662 2.5 2.5 0 1 0 0 5.001c1.332 0 2.582.347 3.666.956-.083.43-.171.863-.264 1.3a6.22 6.22 0 0 0-3.402-1.006 3.75 3.75 0 0 1 0-7.5 6.237 6.237 0 0 0 4.821-2.272 57.828 57.828 0 0 1-.112 1.86ZM143.191 32.093a7.489 7.489 0 0 1-2.438.405 2.5 2.5 0 1 0 0 5.001c1.571 0 3.028.483 4.233 1.308.105.611.198 1.233.278 1.866a6.232 6.232 0 0 0-4.511-1.924 3.75 3.75 0 0 1 0-7.5c.692 0 1.357-.113 1.978-.32.16.382.313.77.46 1.165Z" />
  <path fill="#000" fill-rule="evenodd"
    d="M75.593 27.853a52.545 52.545 0 0 1 4.595-6.329C86.242 14.394 96.042 7 110.42 7c11.412 0 23.053 4.19 30.714 13.54 7.728 9.431 10.836 23.407 6.544 41.772v.002c-2.232 9.54-7.91 19.353-14.847 28.547-6.976 9.247-15.439 18.146-23.571 25.872-8.142 7.736-16.015 14.355-21.849 19.038a324.723 324.723 0 0 1-7.021 5.486 225.86 225.86 0 0 1-2.485 1.856l-2.531 1.834-2.345-1.691-.19-.138-.524-.385c-.457-.337-1.123-.832-1.97-1.472a325.234 325.234 0 0 1-7.047-5.486c-5.854-4.683-13.755-11.302-21.924-19.037-8.16-7.726-16.65-16.625-23.646-25.872C10.772 81.67 5.08 71.856 2.849 62.313c-4.313-18.46-.74-32.432 7.184-41.819C17.858 11.228 29.45 7 40.144 7c.398 0 .794.006 1.186.017 16.907.423 28.19 9.763 34.264 20.836Zm-.28 9.374S84.746 11 110.422 11c20.988 0 41.543 15.398 33.363 50.402-8.191 35.004-68.414 78.61-68.414 78.61S14.926 96.406 6.746 61.402 20.715 11 40.145 11c.363 0 .722.005 1.079.015 18.464.46 29.481 12.64 33.769 25.395.216.524.32.817.32.817Z"
    clip-rule="evenodd" />
</svg>