<svg xmlns="http://www.w3.org/2000/svg" fill="none" viewBox="0 0 150 150">
  <path fill="#F44336"
    d="M74.922 145.312c38.832 0 70.312-31.479 70.312-70.312S113.754 4.687 74.922 4.687C36.089 4.688 4.609 36.168 4.609 75s31.48 70.312 70.313 70.312Z" />
  <path fill="#FF8ECB"
    d="M45.5 20a4.5 4.5 0 0 0 .248-8.993 70.006 70.006 0 0 0-3.974 1.969A4.5 4.5 0 0 0 45.5 20ZM80 15.5a4.5 4.5 0 1 1-9 0 4.5 4.5 0 0 1 9 0ZM105.5 20a4.5 4.5 0 0 0 4.198-6.124 70.048 70.048 0 0 0-5.314-2.737A4.5 4.5 0 0 0 105.5 20ZM20 45.5a4.5 4.5 0 0 1-8.997.164c.6-1.306 1.239-2.59 1.915-3.85A4.5 4.5 0 0 1 20 45.5ZM35 30.5a4.5 4.5 0 1 1-9 0 4.5 4.5 0 0 1 9 0ZM50 45.5a4.5 4.5 0 1 1-9 0 4.5 4.5 0 0 1 9 0ZM65 30.5a4.5 4.5 0 1 1-9 0 4.5 4.5 0 0 1 9 0ZM80 45.5a4.5 4.5 0 1 1-9 0 4.5 4.5 0 0 1 9 0ZM95 30.5a4.5 4.5 0 1 1-9 0 4.5 4.5 0 0 1 9 0ZM110 45.5a4.5 4.5 0 1 1-9 0 4.5 4.5 0 0 1 9 0ZM125 30.5a4.5 4.5 0 1 1-9 0 4.5 4.5 0 0 1 9 0ZM139.596 47.367A4.501 4.501 0 0 1 131 45.5a4.5 4.5 0 0 1 5.55-4.377 70.177 70.177 0 0 1 3.046 6.244ZM20 75.5a4.5 4.5 0 1 1-9 0 4.5 4.5 0 0 1 9 0ZM35 60.5a4.5 4.5 0 1 1-9 0 4.5 4.5 0 0 1 9 0ZM50 75.5a4.5 4.5 0 1 1-9 0 4.5 4.5 0 0 1 9 0ZM65 60.5a4.5 4.5 0 1 1-9 0 4.5 4.5 0 0 1 9 0ZM80 75.5a4.5 4.5 0 1 1-9 0 4.5 4.5 0 0 1 9 0ZM95 60.5a4.5 4.5 0 1 1-9 0 4.5 4.5 0 0 1 9 0ZM110 75.5a4.5 4.5 0 1 1-9 0 4.5 4.5 0 0 1 9 0ZM125 60.5a4.5 4.5 0 1 1-9 0 4.5 4.5 0 0 1 9 0ZM140 75.5a4.5 4.5 0 1 1-9 0 4.5 4.5 0 0 1 9 0ZM20 105.5a4.5 4.5 0 0 1-6.284 4.132 70.101 70.101 0 0 1-2.615-5.084A4.502 4.502 0 0 1 20 105.5ZM35 90.5a4.5 4.5 0 1 1-9 0 4.5 4.5 0 0 1 9 0ZM50 105.5a4.5 4.5 0 1 1-9 0 4.5 4.5 0 0 1 9 0ZM65 90.5a4.5 4.5 0 1 1-9 0 4.5 4.5 0 0 1 9 0ZM80 105.5a4.5 4.5 0 1 1-9 0 4.5 4.5 0 0 1 9 0ZM95 90.5a4.5 4.5 0 1 1-9 0 4.5 4.5 0 0 1 9 0ZM110 105.5a4.5 4.5 0 1 1-9 0 4.5 4.5 0 0 1 9 0ZM125 90.5a4.5 4.5 0 1 1-9 0 4.5 4.5 0 0 1 9 0ZM135.929 109.98a4.5 4.5 0 1 1 3.429-6.797 69.936 69.936 0 0 1-3.429 6.797ZM35 120.5a4.5 4.5 0 1 1-9 0 4.5 4.5 0 0 1 9 0ZM41.16 136.691a69.734 69.734 0 0 0 6.078 2.961A4.502 4.502 0 0 0 45.5 131a4.5 4.5 0 0 0-4.34 5.691ZM65 120.5a4.5 4.5 0 1 1-9 0 4.5 4.5 0 0 1 9 0ZM80 135.5a4.5 4.5 0 1 1-9 0 4.5 4.5 0 0 1 9 0ZM95 120.5a4.5 4.5 0 1 1-9 0 4.5 4.5 0 0 1 9 0ZM103.225 139.383a69.77 69.77 0 0 0 6.751-3.419 4.5 4.5 0 1 0-6.751 3.419ZM125 120.5a4.5 4.5 0 1 1-9 0 4.5 4.5 0 0 1 9 0Z" />
  <path fill="#C62C21" fill-rule="evenodd"
    d="M3.61 75c0-39.385 31.927-71.313 71.312-71.313 39.384 0 71.312 31.928 71.312 71.313 0 39.385-31.928 71.312-71.312 71.312-39.385 0-71.313-31.927-71.313-71.312ZM74.921 5.687C36.642 5.688 5.609 36.72 5.609 75c0 38.281 31.033 69.312 69.313 69.312S144.234 113.281 144.234 75c0-38.28-31.032-69.313-69.312-69.313Z"
    clip-rule="evenodd" />
</svg>