<svg xmlns="http://www.w3.org/2000/svg" fill="none" viewBox="0 0 150 150">
  <path fill="#1D89F3"
    d="M74.922 145.312c38.832 0 70.312-31.479 70.312-70.312S113.754 4.687 74.922 4.687C36.089 4.688 4.609 36.168 4.609 75s31.48 70.312 70.313 70.312Z" />
  <path fill="#3FC0F7" fill-rule="evenodd"
    d="m120.161 37.801.495-.8a35.154 35.154 0 0 1 7.223-8.256 71.063 71.063 0 0 0-1.817-2 35.84 35.84 0 0 0-2.62 2.425 13.431 13.431 0 0 0-4.778-4.231 13.235 13.235 0 0 0-6.164-1.525c-2.146 0-4.26.523-6.164 1.525a13.431 13.431 0 0 0-4.778 4.231A36.405 36.405 0 0 0 97.5 25.6a18.786 18.786 0 0 1 6.611-5.606 18.52 18.52 0 0 1 12.641-1.516 70.827 70.827 0 0 0-4.718-3.21c-3.184.07-6.314.86-9.161 2.313a21.473 21.473 0 0 0-7.57 6.459 36.721 36.721 0 0 0-4.74-2.62 26.874 26.874 0 0 1 9.567-8.517 26.568 26.568 0 0 1 4.216-1.781 69.52 69.52 0 0 0-3.581-1.533c-.724.319-1.436.668-2.136 1.046a29.58 29.58 0 0 0-10.598 9.727 35.484 35.484 0 0 0-5.37-1.56 35.063 35.063 0 0 1 11.106-11.56 69.814 69.814 0 0 0-4.032-.991c.09.115.178.232.265.35a36.398 36.398 0 0 0-4.058 3.569 13.434 13.434 0 0 0-4.78-4.223A13.265 13.265 0 0 0 77.9 4.75a71.528 71.528 0 0 0-5.767-.007c-1.142.253-2.25.657-3.296 1.205a13.434 13.434 0 0 0-4.78 4.223A36.398 36.398 0 0 0 60 6.6c.097-.13.196-.26.297-.39a69.835 69.835 0 0 0-4.12 1.004A35.061 35.061 0 0 1 67.326 18.8c-1.835.38-3.616.91-5.357 1.561a29.58 29.58 0 0 0-10.598-9.727 29.276 29.276 0 0 0-2.21-1.079c-1.217.48-2.417.992-3.599 1.536a26.554 26.554 0 0 1 4.308 1.811 26.872 26.872 0 0 1 9.568 8.518 37.469 37.469 0 0 0-4.742 2.619 21.474 21.474 0 0 0-7.569-6.459 21.177 21.177 0 0 0-9.313-2.316 70.507 70.507 0 0 0-4.798 3.27 18.489 18.489 0 0 1 12.873 1.459A18.786 18.786 0 0 1 52.5 25.6a36.396 36.396 0 0 0-4.058 3.569 13.435 13.435 0 0 0-4.778-4.231 13.238 13.238 0 0 0-6.164-1.525c-2.146 0-4.26.523-6.164 1.525a13.435 13.435 0 0 0-4.778 4.231 35.724 35.724 0 0 0-2.708-2.497 70.585 70.585 0 0 0-1.82 1.997A35.113 35.113 0 0 1 29.345 37c.174.258.335.53.482.801-1.835.38-3.616.91-5.357 1.561a37.942 37.942 0 0 0-1.728-2.361h-.013a29.717 29.717 0 0 0-4.1-4.137 70.472 70.472 0 0 0-1.584 2.2 27.187 27.187 0 0 1 4.893 5.357 37.303 37.303 0 0 0-4.727 2.619 22.313 22.313 0 0 0-3.089-3.377 70.196 70.196 0 0 0-1.349 2.425A18.887 18.887 0 0 1 15 44.6a36.396 36.396 0 0 0-4.058 3.569c-.21-.301-.431-.593-.664-.875a69.775 69.775 0 0 0-3.91 12.012c3.614.68 7.114 1.94 10.362 3.742a34.985 34.985 0 0 1 12.614 11.952c.174.257.335.529.482.8-1.835.38-3.616.91-5.357 1.561a37.942 37.942 0 0 0-1.728-2.361h-.013c-4.316-5.307-10.413-9.07-17.36-10.364a70.368 70.368 0 0 0-.346 2.697c5.476 1.053 10.355 3.795 14.103 7.667a27.192 27.192 0 0 1 2.813 3.42 37.303 37.303 0 0 0-4.728 2.619c-1.835-2.47-4.152-4.547-6.83-6.04a21.156 21.156 0 0 0-5.737-2.2 71.606 71.606 0 0 0-.031 2.782c1.3.334 2.566.81 3.775 1.422A18.785 18.785 0 0 1 15 82.6a36.396 36.396 0 0 0-4.058 3.569 13.435 13.435 0 0 0-6.048-4.805c.095 1.062.214 2.117.356 3.165a10.776 10.776 0 0 1 3.83 3.69 38.066 38.066 0 0 0-2.518 3.303 69.766 69.766 0 0 0 1.808 6.223 34.526 34.526 0 0 1 8.36 3.303 34.988 34.988 0 0 1 12.614 11.952c.174.258.335.529.482.8-1.835.38-3.616.91-5.357 1.561a38.022 38.022 0 0 0-1.728-2.361h-.013a29.495 29.495 0 0 0-11.75-8.718 70.072 70.072 0 0 0 1.966 3.951 26.966 26.966 0 0 1 6.181 4.767 27.15 27.15 0 0 1 2.813 3.42c-.947.437-1.87.913-2.77 1.425a70.296 70.296 0 0 0 1.709 2.134 34.46 34.46 0 0 1 16.616-4.278c6.006 0 11.91 1.575 17.137 4.571a35.023 35.023 0 0 1 12.696 12.528c-1.835.38-3.616.91-5.357 1.561a29.592 29.592 0 0 0-10.598-9.727 29.134 29.134 0 0 0-13.871-3.519 29.113 29.113 0 0 0-12.883 3.009 71.89 71.89 0 0 0 2.06 2.024 26.464 26.464 0 0 1 10.823-2.317c4.307 0 8.55 1.054 12.37 3.071a26.878 26.878 0 0 1 9.568 8.518 37.492 37.492 0 0 0-4.742 2.619 21.47 21.47 0 0 0-7.569-6.459 21.175 21.175 0 0 0-9.627-2.318c-2.093 0-4.168.311-6.16.918a71.18 71.18 0 0 0 2.808 2.108 18.512 18.512 0 0 1 11.741 1.705 18.777 18.777 0 0 1 6.611 5.607c-.606.459-1.2.938-1.78 1.435.992.364 1.994.705 3.005 1.025 5.884-4.607 13.269-7.346 21.275-7.346a34.436 34.436 0 0 1 16.73 4.334 34.69 34.69 0 0 1 4.5 2.977 71.061 71.061 0 0 0 3.003-1.03 37.472 37.472 0 0 0-1.733-1.395 18.777 18.777 0 0 1 6.611-5.607 18.514 18.514 0 0 1 11.616-1.727 70.32 70.32 0 0 0 2.819-2.121 21.141 21.141 0 0 0-15.673 1.435 21.467 21.467 0 0 0-7.57 6.459 36.683 36.683 0 0 0-4.74-2.619 26.88 26.88 0 0 1 9.567-8.518 26.486 26.486 0 0 1 12.37-3.071c3.695 0 7.343.776 10.717 2.27a71.712 71.712 0 0 0 2.061-2.029 29.114 29.114 0 0 0-12.778-2.957 29.132 29.132 0 0 0-13.87 3.519 29.592 29.592 0 0 0-10.599 9.727 35.53 35.53 0 0 0-5.37-1.561 35.023 35.023 0 0 1 12.695-12.528 34.456 34.456 0 0 1 17.137-4.571c5.77 0 11.446 1.454 16.518 4.225a70.724 70.724 0 0 0 1.716-2.147 37.259 37.259 0 0 0-2.665-1.359 27.145 27.145 0 0 1 2.813-3.42 26.994 26.994 0 0 1 5.956-4.639 70.295 70.295 0 0 0 1.997-4 29.587 29.587 0 0 0-11.569 8.639h.013a29.763 29.763 0 0 0-1.741 2.361 35.511 35.511 0 0 0-5.37-1.561l.495-.8c4.698-7.457 12.103-12.995 20.805-15.217a69.985 69.985 0 0 0 1.862-6.432 38.954 38.954 0 0 0-2.39-3.133 10.787 10.787 0 0 1 3.646-3.582c.145-1.062.267-2.13.365-3.207a13.433 13.433 0 0 0-5.886 4.74A36.405 36.405 0 0 0 135 82.6c2.498-3.374 6.085-5.878 10.231-6.98a70.728 70.728 0 0 0-.03-2.785 21.316 21.316 0 0 0-5.58 2.166 21.622 21.622 0 0 0-6.817 6.039 36.725 36.725 0 0 0-4.742-2.62 27.187 27.187 0 0 1 2.813-3.42c3.714-3.835 8.536-6.562 13.949-7.636a70.298 70.298 0 0 0-.344-2.698c-6.884 1.321-12.926 5.067-17.221 10.335h.013a29.715 29.715 0 0 0-1.741 2.361 35.464 35.464 0 0 0-5.37-1.56l.495-.801c5.058-8.028 13.254-13.833 22.826-15.669a69.813 69.813 0 0 0-3.863-11.911c-.195.242-.382.492-.561.749A36.405 36.405 0 0 0 135 44.6a19.037 19.037 0 0 1 2.124-2.412c-.433-.82-.882-1.63-1.346-2.43a21.744 21.744 0 0 0-2.974 3.282 36.725 36.725 0 0 0-4.742-2.62 27.187 27.187 0 0 1 4.795-5.272 70.065 70.065 0 0 0-1.584-2.207 29.824 29.824 0 0 0-4.014 4.06h.013a29.715 29.715 0 0 0-1.741 2.361 35.464 35.464 0 0 0-5.37-1.56Zm-55.54-.8A21.188 21.188 0 0 1 75 34.286c3.763 0 7.313.991 10.38 2.715 2.678 1.492 4.995 3.569 6.83 6.039 1.5-.977 3.08-1.86 4.728-2.62A27.192 27.192 0 0 0 94.124 37C89.263 31.98 82.5 28.859 75 28.859S60.737 31.979 55.875 37a27.192 27.192 0 0 0-2.813 3.42 36.721 36.721 0 0 1 4.742 2.619A21.625 21.625 0 0 1 64.62 37ZM75 37h.027c2.902.002 5.764.688 8.36 2.003A18.785 18.785 0 0 1 90 44.6a36.396 36.396 0 0 0-4.058 3.569 13.434 13.434 0 0 0-4.78-4.223c-1.904-.999-4.018-1.52-6.162-1.518a13.237 13.237 0 0 0-6.162 1.518 13.434 13.434 0 0 0-4.78 4.223A36.396 36.396 0 0 0 60 44.6c3.415-4.614 8.866-7.6 15-7.6Zm0-10.857c9.147 0 17.33 4.22 22.728 10.857h.013c.603.76 1.179 1.547 1.728 2.361a36.24 36.24 0 0 1 5.357-1.56 9.663 9.663 0 0 0-.482-.801A34.988 34.988 0 0 0 91.73 25.049 34.433 34.433 0 0 0 75 20.715c-12.321 0-23.17 6.487-29.344 16.286l-.495.8c1.848.38 3.643.91 5.37 1.561a29.642 29.642 0 0 1 1.741-2.361h-.013C57.669 30.364 65.853 26.144 75 26.144Zm34.821 10.952V37c0-.72.283-1.41.785-1.92a2.661 2.661 0 0 1 1.894-.795c.71 0 1.392.286 1.894.795.502.51.785 1.2.785 1.92v.095a37.545 37.545 0 0 0-5.358 0Zm-32.142 95a35.007 35.007 0 0 0-2.679-.095 36.832 36.832 0 0 0-2.679.095 2.743 2.743 0 0 1 .751-1.981 2.662 2.662 0 0 1 1.928-.829c.71 0 1.392.286 1.894.795.502.509.785 1.2.785 1.92v.095Zm.915-4.121A5.317 5.317 0 0 0 75 126.572c-1.328 0-2.609.5-3.594 1.403a5.455 5.455 0 0 0-1.736 3.483 38.946 38.946 0 0 0-3.737-5.239 10.776 10.776 0 0 1 3.888-3.722 10.606 10.606 0 0 1 10.366-.003 10.783 10.783 0 0 1 3.893 3.725 38.135 38.135 0 0 0-3.75 5.239 5.455 5.455 0 0 0-1.736-3.483Zm2.568-8.028A13.247 13.247 0 0 0 75 118.429a13.247 13.247 0 0 0-6.162 1.518 13.438 13.438 0 0 0-4.78 4.223A36.353 36.353 0 0 0 60 120.601c3.415-4.615 8.866-7.6 15-7.6h.027c2.902.002 5.764.687 8.36 2.003A18.775 18.775 0 0 1 90 120.601a36.353 36.353 0 0 0-4.058 3.569 13.438 13.438 0 0 0-4.78-4.223Zm11.048-.907c-1.835-2.47-4.152-4.546-6.83-6.039A21.146 21.146 0 0 0 75 110.286c-3.763 0-7.3.991-10.38 2.715a21.613 21.613 0 0 0-6.816 6.039 36.683 36.683 0 0 0-4.742-2.619 27.15 27.15 0 0 1 2.813-3.42c4.862-5.022 11.625-8.143 19.125-8.143s14.263 3.121 19.125 8.143a27.15 27.15 0 0 1 2.813 3.42 37.326 37.326 0 0 0-4.728 2.619Zm5.531-6.039h-.013c-5.398-6.637-13.58-10.857-22.728-10.857-9.147 0-17.33 4.22-22.741 10.857h.013a29.69 29.69 0 0 0-1.74 2.361 35.53 35.53 0 0 0-5.371-1.561l.495-.8C51.83 103.202 62.68 96.715 75 96.715a34.437 34.437 0 0 1 16.73 4.334 34.991 34.991 0 0 1 12.614 11.952c.174.258.335.529.482.8a36.29 36.29 0 0 0-5.357 1.561 38.022 38.022 0 0 0-1.728-2.361Zm12.08.095v-.095c0-.72.283-1.411.785-1.92a2.661 2.661 0 0 1 1.894-.795c.71 0 1.392.286 1.894.795.502.509.785 1.2.785 1.92v.095a37.428 37.428 0 0 0-5.358 0ZM75 94.001c.897 0 1.795.027 2.679.095V94c0-.72-.283-1.41-.785-1.92a2.66 2.66 0 0 0-2.941-.58 2.718 2.718 0 0 0-1.455 1.526c-.13.341-.19.704-.177 1.069A37.523 37.523 0 0 1 75 94Zm0-5.429c1.328 0 2.609.5 3.594 1.403a5.455 5.455 0 0 1 1.736 3.483 38.106 38.106 0 0 1 3.75-5.239 10.776 10.776 0 0 0-3.893-3.725 10.604 10.604 0 0 0-10.366.003 10.775 10.775 0 0 0-3.888 3.722 38.928 38.928 0 0 1 3.737 5.239 5.455 5.455 0 0 1 1.736-3.483A5.318 5.318 0 0 1 75 88.572Zm0-8.143a13.237 13.237 0 0 1 6.162 1.518c1.904 1 3.544 2.448 4.78 4.223A36.396 36.396 0 0 1 90 82.6a18.785 18.785 0 0 0-6.613-5.596A18.523 18.523 0 0 0 75.027 75H75c-6.134 0-11.585 2.985-15 7.6a36.396 36.396 0 0 1 4.058 3.569 13.434 13.434 0 0 1 4.78-4.223c1.904-.999 4.018-1.52 6.162-1.518Zm10.38-5.428c2.678 1.492 4.995 3.569 6.83 6.039 1.5-.977 3.08-1.86 4.728-2.62A27.192 27.192 0 0 0 94.124 75C89.263 69.98 82.5 66.859 75 66.859S60.737 69.979 55.875 75a27.192 27.192 0 0 0-2.813 3.42 36.721 36.721 0 0 1 4.742 2.619A21.625 21.625 0 0 1 64.62 75 21.188 21.188 0 0 1 75 72.287c3.763 0 7.313.991 10.38 2.715Zm12.348 0h.013c.603.76 1.179 1.547 1.728 2.361a36.24 36.24 0 0 1 5.357-1.56 9.663 9.663 0 0 0-.482-.801A34.988 34.988 0 0 0 91.73 63.049 34.433 34.433 0 0 0 75 58.715c-12.321 0-23.17 6.487-29.344 16.286l-.495.8c1.848.38 3.643.91 5.37 1.561a29.642 29.642 0 0 1 1.741-2.361h-.013C57.669 68.364 65.853 64.143 75 64.143s17.33 4.221 22.728 10.858Zm12.093 0v.095a37.545 37.545 0 0 1 5.358 0V75c0-.72-.283-1.41-.785-1.92a2.661 2.661 0 0 0-1.894-.795c-.71 0-1.392.286-1.894.795a2.735 2.735 0 0 0-.785 1.92ZM77.679 56.096A35.058 35.058 0 0 0 75 56c-.894 0-1.787.031-2.679.095a2.746 2.746 0 0 1 .751-1.981 2.649 2.649 0 0 1 3.822-.033c.502.508.785 1.199.785 1.919v.095Zm.915-4.121A5.318 5.318 0 0 0 75 50.572c-1.328 0-2.609.5-3.594 1.403a5.455 5.455 0 0 0-1.736 3.483 38.928 38.928 0 0 0-3.737-5.239 10.775 10.775 0 0 1 3.888-3.722 10.603 10.603 0 0 1 10.366-.003 10.776 10.776 0 0 1 3.893 3.725 38.106 38.106 0 0 0-3.75 5.239 5.455 5.455 0 0 0-1.736-3.483ZM75 18c.897 0 1.795.027 2.679.095V18c0-.72-.283-1.41-.785-1.92a2.66 2.66 0 0 0-2.941-.58 2.718 2.718 0 0 0-1.455 1.526c-.13.341-.19.704-.177 1.069A37.523 37.523 0 0 1 75 18Zm0-5.429c1.328 0 2.609.5 3.594 1.403a5.455 5.455 0 0 1 1.736 3.483 38.106 38.106 0 0 1 3.75-5.239 10.775 10.775 0 0 0-3.893-3.725 10.604 10.604 0 0 0-10.366.003 10.775 10.775 0 0 0-3.888 3.722 38.928 38.928 0 0 1 3.737 5.239 5.455 5.455 0 0 1 1.736-3.483A5.318 5.318 0 0 1 75 12.572ZM34.821 113.096v-.095c0-.72.283-1.411.785-1.92a2.66 2.66 0 0 1 1.894-.795c.71 0 1.392.286 1.894.795.502.509.785 1.2.785 1.92v.095a37.417 37.417 0 0 0-5.358 0Zm0-38.095v.095a37.534 37.534 0 0 1 5.358 0V75c0-.72-.283-1.41-.785-1.92a2.66 2.66 0 0 0-1.894-.795 2.66 2.66 0 0 0-1.894.795 2.732 2.732 0 0 0-.785 1.92Zm0-37.905V37c0-.72.283-1.41.785-1.92a2.66 2.66 0 0 1 1.894-.795c.71 0 1.392.286 1.894.795.502.51.785 1.2.785 1.92v.095a37.534 37.534 0 0 0-5.358 0Zm8.01-.638a38.106 38.106 0 0 1 3.75-5.239 10.776 10.776 0 0 0-3.89-3.728 10.603 10.603 0 0 0-5.184-1.355c-1.814 0-3.597.466-5.184 1.355a10.776 10.776 0 0 0-3.89 3.728 38.928 38.928 0 0 1 3.737 5.239 5.454 5.454 0 0 1 1.736-3.484 5.318 5.318 0 0 1 3.594-1.403c1.328 0 2.609.5 3.594 1.403a5.454 5.454 0 0 1 1.736 3.484Zm0 38a38.106 38.106 0 0 1 3.75-5.239 10.776 10.776 0 0 0-3.89-3.728 10.603 10.603 0 0 0-5.184-1.355c-1.814 0-3.597.466-5.184 1.355a10.776 10.776 0 0 0-3.89 3.728 38.928 38.928 0 0 1 3.737 5.239 5.454 5.454 0 0 1 1.736-3.484 5.318 5.318 0 0 1 3.594-1.403c1.328 0 2.609.5 3.594 1.403a5.454 5.454 0 0 1 1.736 3.484Zm19.138-16.096a36.239 36.239 0 0 1 5.357-1.56A35.026 35.026 0 0 0 54.63 44.272a34.452 34.452 0 0 0-17.138-4.571 34.452 34.452 0 0 0-17.137 4.571A35.026 35.026 0 0 0 7.661 56.801c1.848.38 3.643.91 5.37 1.561a29.58 29.58 0 0 1 10.598-9.727A29.129 29.129 0 0 1 37.5 45.116c4.839 0 9.603 1.209 13.87 3.52a29.58 29.58 0 0 1 10.599 9.726Zm-7.273 3.678a37.469 37.469 0 0 1 4.742-2.62 26.872 26.872 0 0 0-9.568-8.517 26.475 26.475 0 0 0-12.37-3.071c-4.307 0-8.55 1.053-12.37 3.071a26.872 26.872 0 0 0-9.567 8.518 36.721 36.721 0 0 1 4.74 2.619 21.474 21.474 0 0 1 7.57-6.459 21.173 21.173 0 0 1 9.627-2.318c3.344 0 6.64.794 9.627 2.318a21.474 21.474 0 0 1 7.57 6.459Zm-6.254 5.13A36.396 36.396 0 0 1 52.5 63.6a18.786 18.786 0 0 0-6.61-5.606 18.523 18.523 0 0 0-8.39-2.011c-2.913 0-5.785.688-8.39 2.01a18.786 18.786 0 0 0-6.61 5.608 36.396 36.396 0 0 1 4.058 3.569 13.435 13.435 0 0 1 4.778-4.231 13.238 13.238 0 0 1 6.164-1.525c2.146 0 4.26.523 6.164 1.525a13.435 13.435 0 0 1 4.778 4.231Zm-1.862 40.049a38.135 38.135 0 0 0-3.75 5.239 5.456 5.456 0 0 0-1.736-3.484 5.317 5.317 0 0 0-3.594-1.403c-1.328 0-2.609.5-3.594 1.403a5.456 5.456 0 0 0-1.736 3.484 38.946 38.946 0 0 0-3.737-5.239 10.777 10.777 0 0 1 3.89-3.728 10.604 10.604 0 0 1 10.368 0 10.777 10.777 0 0 1 3.89 3.728Zm20.746-12.418c-1.835.38-3.616.91-5.357 1.561a29.58 29.58 0 0 0-10.598-9.727A29.129 29.129 0 0 0 37.5 83.116a29.129 29.129 0 0 0-13.87 3.52 29.58 29.58 0 0 0-10.599 9.726 35.483 35.483 0 0 0-5.37-1.56 35.026 35.026 0 0 1 12.695-12.529 34.452 34.452 0 0 1 17.137-4.571c6.006 0 11.91 1.575 17.137 4.571a35.026 35.026 0 0 1 12.696 12.528Zm-7.888 2.62a37.469 37.469 0 0 0-4.742 2.619 21.474 21.474 0 0 0-7.569-6.459 21.173 21.173 0 0 0-9.627-2.318c-3.344 0-6.64.794-9.627 2.318a21.474 21.474 0 0 0-7.57 6.459 36.721 36.721 0 0 0-4.74-2.62 26.872 26.872 0 0 1 9.567-8.517 26.476 26.476 0 0 1 12.37-3.071c4.307 0 8.55 1.054 12.37 3.071a26.872 26.872 0 0 1 9.568 8.518ZM52.5 101.6a36.353 36.353 0 0 0-4.058 3.569 13.44 13.44 0 0 0-4.778-4.231 13.238 13.238 0 0 0-6.164-1.525c-2.146 0-4.26.523-6.164 1.525a13.44 13.44 0 0 0-4.778 4.231 36.353 36.353 0 0 0-4.058-3.569 18.784 18.784 0 0 1 6.61-5.607 18.523 18.523 0 0 1 8.39-2.011c2.913 0 5.785.688 8.39 2.01a18.784 18.784 0 0 1 6.61 5.608Zm69.08-70.382a38.2 38.2 0 0 0-3.75 5.239 5.45 5.45 0 0 0-1.736-3.484 5.318 5.318 0 0 0-3.594-1.403c-1.328 0-2.609.5-3.594 1.403a5.45 5.45 0 0 0-1.736 3.484 39.047 39.047 0 0 0-3.737-5.239 10.773 10.773 0 0 1 3.89-3.728 10.602 10.602 0 0 1 5.184-1.355c1.813 0 3.597.466 5.184 1.355a10.77 10.77 0 0 1 3.889 3.728Zm-3.75 43.239a38.2 38.2 0 0 1 3.75-5.239 10.77 10.77 0 0 0-3.889-3.728 10.605 10.605 0 0 0-5.184-1.355c-1.814 0-3.597.466-5.184 1.355a10.773 10.773 0 0 0-3.89 3.728 39.047 39.047 0 0 1 3.737 5.239 5.45 5.45 0 0 1 1.736-3.484 5.318 5.318 0 0 1 3.594-1.403c1.328 0 2.609.5 3.594 1.403a5.45 5.45 0 0 1 1.736 3.484Zm19.139-16.096a36.23 36.23 0 0 1 5.357-1.56 35.021 35.021 0 0 0-12.696-12.529 34.45 34.45 0 0 0-17.137-4.571 34.452 34.452 0 0 0-17.137 4.571 35.026 35.026 0 0 0-12.695 12.528c1.848.38 3.643.91 5.37 1.561a29.58 29.58 0 0 1 10.598-9.727 29.128 29.128 0 0 1 13.871-3.519 29.13 29.13 0 0 1 13.871 3.52 29.577 29.577 0 0 1 10.598 9.726Zm-7.273 3.678a37.5 37.5 0 0 1 4.742-2.62 26.882 26.882 0 0 0-9.568-8.517 26.479 26.479 0 0 0-12.37-3.071c-4.307 0-8.55 1.053-12.37 3.071a26.874 26.874 0 0 0-9.567 8.518 36.721 36.721 0 0 1 4.74 2.619 21.473 21.473 0 0 1 7.57-6.459 21.17 21.17 0 0 1 9.627-2.318c3.344 0 6.641.794 9.627 2.318a21.464 21.464 0 0 1 7.569 6.459Zm-6.254 5.13a36.405 36.405 0 0 1 4.058-3.57 18.785 18.785 0 0 0-6.611-5.606 18.52 18.52 0 0 0-8.389-2.011 18.52 18.52 0 0 0-8.389 2.01 18.786 18.786 0 0 0-6.611 5.608 36.405 36.405 0 0 1 4.058 3.569 13.431 13.431 0 0 1 4.778-4.231 13.235 13.235 0 0 1 6.164-1.525c2.146 0 4.26.523 6.164 1.525a13.431 13.431 0 0 1 4.778 4.231Zm-1.862 40.049a38.23 38.23 0 0 0-3.75 5.239 5.452 5.452 0 0 0-1.736-3.484 5.318 5.318 0 0 0-3.594-1.403c-1.328 0-2.609.5-3.594 1.403a5.452 5.452 0 0 0-1.736 3.484 39.065 39.065 0 0 0-3.737-5.239 10.774 10.774 0 0 1 3.89-3.728 10.602 10.602 0 0 1 10.368 0 10.771 10.771 0 0 1 3.889 3.728Zm20.746-12.418a36.23 36.23 0 0 0-5.357 1.561 29.577 29.577 0 0 0-10.598-9.727 29.13 29.13 0 0 0-13.871-3.519 29.128 29.128 0 0 0-13.87 3.52 29.58 29.58 0 0 0-10.599 9.726 35.484 35.484 0 0 0-5.37-1.56 35.026 35.026 0 0 1 12.695-12.529 34.452 34.452 0 0 1 17.137-4.571 34.45 34.45 0 0 1 17.137 4.571 35.021 35.021 0 0 1 12.696 12.528Zm-7.888 2.62a37.5 37.5 0 0 0-4.742 2.619 21.464 21.464 0 0 0-7.569-6.459 21.17 21.17 0 0 0-9.627-2.318 21.17 21.17 0 0 0-9.627 2.318 21.473 21.473 0 0 0-7.57 6.459 36.721 36.721 0 0 0-4.74-2.62 26.873 26.873 0 0 1 9.567-8.517 26.48 26.48 0 0 1 12.37-3.071 26.48 26.48 0 0 1 12.37 3.071 26.88 26.88 0 0 1 9.568 8.518Zm-6.938 4.18a36.362 36.362 0 0 0-4.058 3.569 13.436 13.436 0 0 0-4.778-4.231 13.235 13.235 0 0 0-6.164-1.525c-2.146 0-4.26.523-6.164 1.525a13.436 13.436 0 0 0-4.778 4.231 36.362 36.362 0 0 0-4.058-3.569 18.784 18.784 0 0 1 6.611-5.607 18.52 18.52 0 0 1 8.389-2.011c2.913 0 5.785.688 8.389 2.01a18.782 18.782 0 0 1 6.611 5.608Z"
    clip-rule="evenodd" />
  <path fill="#3FC0F7"
    d="M89.244 143.852a29.047 29.047 0 0 0-14.239-3.708 29.057 29.057 0 0 0-14.286 3.733c1.532.314 3.082.579 4.648.791a26.394 26.394 0 0 1 9.638-1.81 26.4 26.4 0 0 1 9.595 1.793 69.615 69.615 0 0 0 4.644-.799Z" />
  <path fill="#136CC3" fill-rule="evenodd"
    d="M3.61 75c0-39.385 31.927-71.313 71.312-71.313 39.384 0 71.312 31.928 71.312 71.313 0 39.385-31.928 71.312-71.312 71.312-39.385 0-71.313-31.927-71.313-71.312ZM74.921 5.687C36.642 5.688 5.609 36.72 5.609 75c0 38.281 31.033 69.312 69.313 69.312S144.234 113.281 144.234 75c0-38.28-31.032-69.313-69.312-69.313Z"
    clip-rule="evenodd" />
</svg>