<svg xmlns="http://www.w3.org/2000/svg" fill="none" viewBox="0 0 150 150">
  <path fill="#FFCC32"
    d="M74.922 145.312c38.832 0 70.312-31.479 70.312-70.312S113.754 4.687 74.922 4.687C36.089 4.688 4.609 36.168 4.609 75s31.48 70.312 70.313 70.312Z" />
  <path fill="#FFF132"
    d="M5.938 88.656c.179.91.375 1.814.59 2.711l11.792-6.84v-20.5L6.84 57.37a69.79 69.79 0 0 0-.637 2.683l9.481 5.496v17.457l-9.748 5.65ZM7.583 54.716l12.072 6.997 17.127-9.919V31.957l-11.557-6.694a70.792 70.792 0 0 0-1.887 1.96l10.81 6.255V50.26l-14.493 8.398L8.41 52.146a69.78 69.78 0 0 0-.827 2.57ZM27.227 23.34l10.874 6.302h.013l17.1-9.919V7.488a69.72 69.72 0 0 0-2.634.825v9.89l-14.466 8.384h-.013l-8.795-5.093a70.818 70.818 0 0 0-2.079 1.846ZM57.87 6.77v12.953l17.114 9.92h.013l17.1-9.92V6.8a69.887 69.887 0 0 0-2.635-.607v12.01l-14.465 8.384h-.013l-14.479-8.385V6.168c-.884.184-1.763.385-2.635.603ZM94.76 7.525v12.198l17.114 9.92h.013l10.786-6.257a70.013 70.013 0 0 0-2.077-1.847l-8.709 5.048h-.013l-14.478-8.385V8.355c-.871-.293-1.75-.57-2.635-.83ZM124.672 25.31l-11.466 6.646v19.838l17.113 9.92 11.968-6.932a70.161 70.161 0 0 0-.828-2.579l-11.14 6.455-14.478-8.385V33.477l10.715-6.205a70.844 70.844 0 0 0-1.884-1.961ZM143.025 57.436l-11.374 6.592v20.499l11.687 6.773c.213-.897.409-1.802.587-2.712l-9.639-5.582V65.55l9.373-5.428a68.355 68.355 0 0 0-.634-2.685ZM142.645 93.98l-12.326-7.139-17.113 9.92v19.837l12.37 7.17c.626-.65 1.24-1.313 1.841-1.986l-11.576-6.705V98.281l14.478-8.385 11.546 6.68c.276-.858.536-1.723.78-2.596ZM123.622 125.719l-11.735-6.806h-.013l-17.113 9.919v13.644c.886-.26 1.764-.537 2.635-.831v-11.292l14.478-8.385h.013l9.706 5.625a70.412 70.412 0 0 0 2.029-1.874ZM92.097 143.2v-14.368l-17.1-9.919h-.013l-17.114 9.919v14.398c.872.217 1.75.418 2.635.602v-13.479l14.479-8.385h.013l14.465 8.385v13.455a69.717 69.717 0 0 0 2.635-.608ZM55.215 142.512v-13.68l-17.1-9.919H38.1l-11.825 6.853a71.128 71.128 0 0 0 2.032 1.873l9.793-5.671h.013l14.466 8.385v11.335c.87.291 1.749.566 2.635.824ZM24.32 123.816l12.462-7.218V96.76l-17.126-9.919-12.433 7.206c.244.873.506 1.738.783 2.596l11.65-6.747 14.491 8.385v16.783l-11.673 6.765a70.442 70.442 0 0 0 1.846 1.987Z" />
  <path fill="#FFF132" fill-rule="evenodd"
    d="M20.987 64.028v20.499l17.114 9.919h.013l17.1-9.919v-20.5l-17.1-9.918h-.013l-17.114 9.919Zm31.593 1.52v17.458l-14.466 8.385h-.013l-14.479-8.385V65.55l14.479-8.385h.013l14.466 8.385ZM56.546 22.038l17.127 9.918v19.838l-17.127 9.92-17.113-9.92V31.957l17.113-9.92Zm-14.478 11.44v16.795l14.478 8.385 14.492-8.398V33.478l-14.492-8.385-14.478 8.384ZM57.87 64.028l17.114-9.92h.013l17.1 9.92v20.499l-17.1 9.919h-.013L57.87 84.527v-20.5Zm31.592 1.52-14.465-8.384h-.013l-14.479 8.385v17.457l14.479 8.385h.013l14.465-8.385V65.55ZM110.556 31.956l-17.127-9.918-17.114 9.918v19.838l17.114 9.92 17.127-9.92V31.957ZM78.95 50.273V33.477l14.479-8.384 14.492 8.384V50.26l-14.492 8.398-14.479-8.385ZM94.76 64.028v20.499l17.114 9.919h.013l17.101-9.919v-20.5l-17.101-9.918h-.013l-17.113 9.919Zm31.593 1.52v17.458l-14.466 8.385h-.013l-14.478-8.385V65.55l14.478-8.385h.013l14.466 8.385ZM73.673 96.76l-17.127-9.919-17.113 9.92v19.837l17.113 9.919 17.127-9.919V96.76Zm-31.605 18.317V98.281l14.478-8.385 14.492 8.385v16.783l-14.492 8.398-14.478-8.385ZM110.556 96.76l-17.127-9.919-17.114 9.92v19.837l17.114 9.919 17.127-9.919V96.76ZM78.95 115.077V98.281l14.479-8.385 14.492 8.385v16.783l-14.492 8.398-14.479-8.385Z"
    clip-rule="evenodd" />
  <path fill="#D2A008" fill-rule="evenodd"
    d="M3.61 75c0-39.385 31.927-71.313 71.312-71.313 39.384 0 71.312 31.928 71.312 71.313 0 39.385-31.928 71.312-71.312 71.312-39.385 0-71.313-31.927-71.313-71.312ZM74.921 5.687C36.642 5.688 5.609 36.72 5.609 75c0 38.281 31.033 69.312 69.313 69.312S144.234 113.281 144.234 75c0-38.28-31.032-69.313-69.312-69.313Z"
    clip-rule="evenodd" />
</svg>