<svg width="150" height="150" viewBox="0 0 150 150" fill="none" xmlns="http://www.w3.org/2000/svg">
<mask id="mask0_1449_16497" style="mask-type:alpha" maskUnits="userSpaceOnUse" x="4" y="4" width="142" height="142">
<path d="M74.918 145.312C113.75 145.312 145.23 113.833 145.23 75C145.23 36.1675 113.75 4.6875 74.918 4.6875C36.0854 4.6875 4.60547 36.1675 4.60547 75C4.60547 113.833 36.0854 145.312 74.918 145.312Z" fill="#689F38"/>
</mask>
<g mask="url(#mask0_1449_16497)">
<rect width="150" height="150" fill="#FFCC32"/>
<path d="M18.3168 0H14.3975L15.682 0.744512V18.2019L1.21646 26.5867H1.20328L0 25.8898V28.9443L1.20328 29.6417H1.21646L18.3168 19.7228V0Z" fill="#FFF132"/>
<path d="M0 93.7481L1.20328 94.4455H1.21646L18.3168 84.5266V64.0274L1.21646 54.1085H1.20328L0 54.8059V57.8603L1.20328 57.1635H1.21646L15.682 65.5483V83.0057L1.21646 91.3905H1.20328L0 90.6937V93.7481Z" fill="#FFF132"/>
<path d="M17.1625 150L18.3168 149.33V128.831L1.21646 118.912H1.20328L0 119.61V122.664L1.20328 121.967H1.21646L15.682 130.352V147.81L11.9029 150H17.1625Z" fill="#FFF132"/>
<path d="M54.0508 150L55.2052 149.33V128.831L38.1048 118.912H38.0916L20.9781 128.831V149.33L22.1333 150H27.3954L23.6129 147.81V130.352L38.0916 121.967H38.1048L52.5703 130.352V147.81L48.7913 150H54.0508Z" fill="#FFF132"/>
<path d="M90.9391 150L92.0935 149.33V128.831L74.9931 118.912H74.9799L57.8664 128.831V149.33L59.0217 150H64.2838L60.5013 147.81V130.352L74.9799 121.967H74.9931L89.4586 130.352V147.81L85.6796 150H90.9391Z" fill="#FFF132"/>
<path d="M127.827 150L128.982 149.33V128.831L111.881 118.912H111.868L94.7547 128.831V149.33L95.91 150H101.172L97.3896 147.81V130.352L111.868 121.967H111.881L126.347 130.352V147.81L122.568 150H127.827Z" fill="#FFF132"/>
<path d="M150 119.626L148.77 118.912H148.757L131.643 128.831V149.33L132.798 150H138.06L134.278 147.81V130.352L148.757 121.967H148.77L150 122.68V119.626Z" fill="#FFF132"/>
<path d="M150 54.822L148.77 54.1085H148.757L131.643 64.0274V84.5266L148.757 94.4455H148.77L150 93.732V90.6774L148.77 91.3905H148.757L134.278 83.0057V65.5483L148.757 57.1635H148.77L150 57.8766V54.822Z" fill="#FFF132"/>
<path d="M131.643 0V19.7228L148.757 29.6417H148.77L150 28.9281V25.8736L148.77 26.5867H148.757L134.278 18.2019V0.744512L135.564 0H131.643Z" fill="#FFF132"/>
<path d="M94.7547 0V19.7228L111.868 29.6417H111.881L128.982 19.7228V0H125.063L126.347 0.744512V18.2019L111.881 26.5867H111.868L97.3896 18.2019V0.744512L98.6752 0H94.7547Z" fill="#FFF132"/>
<path d="M57.8664 0V19.7228L74.9799 29.6417H74.9931L92.0935 19.7228V0H88.1742L89.4586 0.744512V18.2019L74.9931 26.5867H74.9799L60.5013 18.2019V0.744512L61.7869 0H57.8664Z" fill="#FFF132"/>
<path d="M20.9781 0V19.7228L38.0916 29.6417H38.1048L55.2052 19.7228V0H51.2859L52.5703 0.744512V18.2019L38.1048 26.5867H38.0916L23.6129 18.2019V0.744512L24.8986 0H20.9781Z" fill="#FFF132"/>
<path fill-rule="evenodd" clip-rule="evenodd" d="M36.7742 31.9561L19.6474 22.0372L2.5339 31.9561V51.794L19.6474 61.713L36.7742 51.794V31.9561ZM5.16878 50.2731V33.4771L19.6474 25.0922L34.1393 33.4771V50.2599L19.6474 58.658L5.16878 50.2731Z" fill="#FFF132"/>
<path fill-rule="evenodd" clip-rule="evenodd" d="M20.9781 84.5266V64.0274L38.0916 54.1085H38.1048L55.2052 64.0274V84.5266L38.1048 94.4455H38.0916L20.9781 84.5266ZM52.5703 83.0057V65.5483L38.1048 57.1635H38.0916L23.6129 65.5483V83.0057L38.0916 91.3905H38.1048L52.5703 83.0057Z" fill="#FFF132"/>
<path fill-rule="evenodd" clip-rule="evenodd" d="M56.5358 22.0372L73.6625 31.9561V51.794L56.5358 61.713L39.4222 51.794V31.9561L56.5358 22.0372ZM42.0571 33.4771V50.2731L56.5358 58.658L71.0276 50.2599V33.4771L56.5358 25.0922L42.0571 33.4771Z" fill="#FFF132"/>
<path fill-rule="evenodd" clip-rule="evenodd" d="M74.9799 54.1085L57.8664 64.0274V84.5266L74.9799 94.4455H74.9931L92.0935 84.5266V64.0274L74.9931 54.1085H74.9799ZM74.9931 57.1635L89.4586 65.5483V83.0057L74.9931 91.3905H74.9799L60.5013 83.0057V65.5483L74.9799 57.1635H74.9931Z" fill="#FFF132"/>
<path fill-rule="evenodd" clip-rule="evenodd" d="M110.551 31.9561L93.4241 22.0372L76.3106 31.9561V51.794L93.4241 61.713L110.551 51.794V31.9561ZM78.9454 50.2731V33.4771L93.4241 25.0922L107.916 33.4771V50.2599L93.4241 58.658L78.9454 50.2731Z" fill="#FFF132"/>
<path fill-rule="evenodd" clip-rule="evenodd" d="M94.7547 84.5266V64.0274L111.868 54.1085H111.881L128.982 64.0274V84.5266L111.881 94.4455H111.868L94.7547 84.5266ZM126.347 83.0057V65.5483L111.881 57.1635H111.868L97.3896 65.5483V83.0057L111.868 91.3905H111.881L126.347 83.0057Z" fill="#FFF132"/>
<path fill-rule="evenodd" clip-rule="evenodd" d="M130.312 22.0372L147.439 31.9561V51.794L130.312 61.713L113.199 51.794V31.9561L130.312 22.0372ZM115.834 33.4771V50.2731L130.312 58.658L144.804 50.2599V33.4771L130.312 25.0922L115.834 33.4771Z" fill="#FFF132"/>
<path fill-rule="evenodd" clip-rule="evenodd" d="M19.6474 86.841L36.7742 96.76V116.598L19.6474 126.517L2.5339 116.598V96.76L19.6474 86.841ZM5.16878 98.2809V115.077L19.6474 123.462L34.1393 115.064V98.2809L19.6474 89.896L5.16878 98.2809Z" fill="#FFF132"/>
<path fill-rule="evenodd" clip-rule="evenodd" d="M73.6625 96.76L56.5358 86.841L39.4222 96.76V116.598L56.5358 126.517L73.6625 116.598V96.76ZM42.0571 115.077V98.2809L56.5358 89.896L71.0276 98.2809V115.064L56.5358 123.462L42.0571 115.077Z" fill="#FFF132"/>
<path fill-rule="evenodd" clip-rule="evenodd" d="M93.4241 86.841L110.551 96.76V116.598L93.4241 126.517L76.3106 116.598V96.76L93.4241 86.841ZM78.9454 98.2809V115.077L93.4241 123.462L107.916 115.064V98.2809L93.4241 89.896L78.9454 98.2809Z" fill="#FFF132"/>
<path fill-rule="evenodd" clip-rule="evenodd" d="M147.439 96.76L130.312 86.841L113.199 96.76V116.598L130.312 126.517L147.439 116.598V96.76ZM115.834 115.077V98.2809L130.312 89.896L144.804 98.2809V115.064L130.312 123.462L115.834 115.077Z" fill="#FFF132"/>
</g>
<path d="M74.918 145.312C113.75 145.312 145.23 113.833 145.23 75C145.23 36.1675 113.75 4.6875 74.918 4.6875C36.0854 4.6875 4.60547 36.1675 4.60547 75C4.60547 113.833 36.0854 145.312 74.918 145.312Z" stroke="#D2A008" stroke-width="2"/>
</svg>
