<svg width="150" height="150" viewBox="0 0 150 150" fill="none" xmlns="http://www.w3.org/2000/svg">
<mask id="mask0_1449_16500" style="mask-type:alpha" maskUnits="userSpaceOnUse" x="4" y="4" width="142" height="142">
<path d="M74.918 145.312C113.75 145.312 145.23 113.833 145.23 75C145.23 36.1675 113.75 4.6875 74.918 4.6875C36.0854 4.6875 4.60547 36.1675 4.60547 75C4.60547 113.833 36.0854 145.312 74.918 145.312Z" fill="#689F38"/>
</mask>
<g mask="url(#mask0_1449_16500)">
<rect width="150" height="150" fill="#22C55E"/>
<path d="M68.667 0H76.5137L150 73.67V81.5363L68.667 0Z" fill="#0B8F40"/>
<path d="M47.9803 0H55.827L150 94.4084V102.275L47.9803 0Z" fill="#0B8F40"/>
<path d="M27.2937 0H35.1403L150 115.147V123.013L27.2937 0Z" fill="#0B8F40"/>
<path d="M6.607 0H14.4537L150 135.885V143.751L6.607 0Z" fill="#0B8F40"/>
<path d="M0 14.1149V6.24858L143.393 150H135.546L0 14.1149Z" fill="#0B8F40"/>
<path d="M0 34.8532V26.987L122.706 150H114.86L0 34.8532Z" fill="#0B8F40"/>
<path d="M0 55.5916V47.7253L102.02 150H94.173L0 55.5916Z" fill="#0B8F40"/>
<path d="M0 76.33V68.4637L81.333 150H73.4863L0 76.33Z" fill="#0B8F40"/>
<path d="M0 97.0683V89.2021L60.6464 150H52.7997L0 97.0683Z" fill="#0B8F40"/>
<path d="M0 117.807V109.94L39.9597 150H32.113L0 117.807Z" fill="#0B8F40"/>
<path d="M0 138.545V130.679L19.273 150H11.4264L0 138.545Z" fill="#0B8F40"/>
<path d="M150 60.7979L89.3537 0H97.2003L150 52.9316V60.7979Z" fill="#0B8F40"/>
<path d="M150 40.0595L110.04 0H117.887L150 32.1933V40.0595Z" fill="#0B8F40"/>
<path d="M150 19.3212L130.727 0H138.574L150 11.4549V19.3212Z" fill="#0B8F40"/>
</g>
<path d="M74.918 145.312C113.75 145.312 145.23 113.833 145.23 75C145.23 36.1675 113.75 4.6875 74.918 4.6875C36.0854 4.6875 4.60547 36.1675 4.60547 75C4.60547 113.833 36.0854 145.312 74.918 145.312Z" stroke="#15853E" stroke-width="2"/>
</svg>
