<svg xmlns="http://www.w3.org/2000/svg" fill="none" viewBox="0 0 150 150">
  <path fill="#22C55E"
    d="M74.922 145.312c38.832 0 70.312-31.479 70.312-70.312S113.754 4.687 74.922 4.687C36.089 4.688 4.609 36.168 4.609 75s31.48 70.312 70.313 70.312Z" />
  <path fill="#0B8F40"
    d="M32.975 18.565a70.665 70.665 0 0 0-4.345 3.51l99.101 99.349a70.874 70.874 0 0 0 3.521-4.337L32.975 18.565ZM138.96 104.076a70.245 70.245 0 0 1-2.642 5.218L40.781 13.518a70.024 70.024 0 0 1 5.225-2.628l92.954 93.186ZM143.967 88.356a69.74 69.74 0 0 1-1.528 6.335L55.399 7.433a69.844 69.844 0 0 1 6.339-1.511l82.229 82.434ZM144.946 68.599a70.933 70.933 0 0 1 .267 8.133L73.365 4.704a71.622 71.622 0 0 1 8.132.287l63.449 63.608ZM134.05 36.936a70.01 70.01 0 0 1 7.418 15.303L97.848 8.51a70.014 70.014 0 0 1 15.285 7.457l20.917 20.969ZM121.298 127.85l-99.11-99.358a70.628 70.628 0 0 0-3.528 4.33l98.299 98.545a70.478 70.478 0 0 0 4.339-3.517ZM109.164 136.425 13.582 40.604a70.08 70.08 0 0 0-2.648 5.21l93.013 93.246a69.578 69.578 0 0 0 5.217-2.635ZM94.569 142.53 7.44 55.184a69.832 69.832 0 0 0-1.538 6.325l82.338 82.543a69.598 69.598 0 0 0 6.329-1.522ZM76.636 145.292 4.634 73.11a71.632 71.632 0 0 0 .247 8.113l63.642 63.802a71.247 71.247 0 0 0 8.113.267ZM52.241 141.574l-43.95-44.06a70.002 70.002 0 0 0 7.212 15.096l21.66 21.713a70.013 70.013 0 0 0 15.078 7.251Z" />
  <path fill="#15853E" fill-rule="evenodd"
    d="M3.61 75c0-39.385 31.927-71.313 71.312-71.313 39.384 0 71.312 31.928 71.312 71.313 0 39.385-31.928 71.312-71.312 71.312-39.385 0-71.313-31.927-71.313-71.312ZM74.921 5.687C36.642 5.688 5.609 36.72 5.609 75c0 38.281 31.033 69.312 69.313 69.312S144.234 113.281 144.234 75c0-38.28-31.032-69.313-69.312-69.313Z"
    clip-rule="evenodd" />
</svg>