<svg xmlns="http://www.w3.org/2000/svg" fill="none" viewBox="0 0 150 150">
  <path fill="#000"
    d="M74.922 145.312c38.832 0 70.312-31.479 70.312-70.312S113.754 4.687 74.922 4.687C36.089 4.688 4.609 36.168 4.609 75s31.48 70.312 70.313 70.312Z" />
  <path fill="#484848"
    d="M20 31.093A70.671 70.671 0 0 1 22.625 28H32v6H20v-2.907ZM8.457 52H18v6H6.678a69.767 69.767 0 0 1 1.78-6ZM6.213 60H18v6H6v-4.984c.069-.34.14-.678.213-1.016ZM12.819 42a70.284 70.284 0 0 1 3.589-6H18v6h-5.181ZM17.794 34c.068-.096.137-.19.206-.285V34h-.206ZM48.062 10A69.774 69.774 0 0 1 60 6.274V10H48.062ZM88 5.901a70.617 70.617 0 0 0-12-1.206V10h12V5.9ZM90 6.308V10h11.781A69.763 69.763 0 0 0 90 6.308ZM116 17.928A70.292 70.292 0 0 0 106.179 12H104v6h12v-.072ZM118.73 20H118v6h7.348a70.65 70.65 0 0 0-6.618-6ZM46 20H34v6h12v-6ZM48 12h12v6H48v-6ZM74 12H62v6h12v-6ZM32 36H20v6h12v-6ZM46 36H34v6h12v-6ZM48 28h12v6H48v-6ZM60 20H48v6h12v-6ZM62 28h12v6H62v-6ZM74 36H62v6h12v-6ZM32 52H20v6h12v-6ZM34 44h12v6H34v-6ZM60 44H48v6h12v-6ZM48 52h12v6H48v-6ZM46 52H34v6h12v-6ZM34 68h12v6H34v-6ZM60 60H48v6h12v-6ZM62 60h12v6H62v-6ZM74 44H62v6h12v-6ZM20 76h12v6H20v-6ZM6 76h12v6H6v-6ZM32 84H20v6h12v-6ZM6 84h12v6H6.213A69.915 69.915 0 0 1 6 88.984V84ZM46 84H34v6h12v-6ZM48 76h12v6H48v-6ZM60 68H48v6h12v-6ZM62 76h12v6H62v-6ZM74 84H62v6h12v-6ZM6 68h12v6H6v-6ZM32 60H20v6h12v-6ZM20 100h12v6H20v-6ZM46 92H34v6h12v-6ZM48 92h12v6H48v-6ZM60 100H48v6h12v-6ZM34 100h12v6H34v-6ZM46 116H34v6h12v-6ZM48 108h12v6H48v-6ZM74 108H62v6h12v-6ZM62 92h12v6H62v-6ZM31.113 130a70.809 70.809 0 0 1-6.618-6H32v6h-.887ZM43.665 138A70.259 70.259 0 0 1 34 132.183V132h12v6h-2.335ZM60 143.725A69.786 69.786 0 0 1 48.063 140H60v3.725ZM62 144.127V140h12v5.306a70.66 70.66 0 0 1-12-1.179ZM106.178 138H104v-6h12v.071a70.352 70.352 0 0 1-9.822 5.929ZM88 144.098a70.651 70.651 0 0 1-12 1.206V140h12v4.098ZM17.794 116l.206.285V116h-.206ZM12.819 108H18v6h-1.592a70.4 70.4 0 0 1-3.59-6ZM60 124H48v6h12v-6ZM48 116h12v6H48v-6ZM74 124H62v6h12v-6ZM62 132h12v6H62v-6ZM20 108h12v6H20v-6ZM11.794 106H18v-6H9.184a69.997 69.997 0 0 0 2.61 6ZM104 28h12v6h-12v-6ZM102 12H90v6h12v-6ZM76 20h12v6H76v-6ZM88 28H76v6h12v-6ZM90 28h12v6H90v-6ZM116 36h-12v6h12v-6ZM90 36h12v6H90v-6ZM130 36h-12v6h12v-6ZM138.049 44H132v6h8.66a69.812 69.812 0 0 0-2.611-6ZM141.386 52H132v6h11.165a69.842 69.842 0 0 0-1.779-6ZM143.63 60H132v6h12v-4.184a68.14 68.14 0 0 0-.37-1.816ZM132.049 34 132 33.93V34h.049ZM90 20h12v6H90v-6ZM88 44H76v6h12v-6ZM104 52h12v6h-12v-6ZM130 44h-12v6h12v-6ZM118 52h12v6h-12v-6ZM130 68h-12v6h12v-6ZM116 76h-12v6h12v-6ZM90 60h12v6H90v-6ZM88 68H76v6h12v-6ZM76 76h12v6H76v-6ZM102 76H90v6h12v-6ZM104 84h12v6h-12v-6ZM102 84H90v6h12v-6ZM118 84h12v6h-12v-6ZM144 76h-12v6h12v-6ZM132 68h12v6h-12v-6ZM102 68H90v6h12v-6ZM104 60h12v6h-12v-6ZM102 52H90v6h12v-6ZM76 52h12v6H76v-6ZM76 92h12v6H76v-6ZM116 100h-12v6h12v-6ZM118 92h12v6h-12v-6ZM143.165 92H132v6h9.386a69.832 69.832 0 0 0 1.779-6ZM140.66 100H132v6h6.049a69.873 69.873 0 0 0 2.611-6ZM130 100h-12v6h12v-6ZM118 116h12v2.71a70.977 70.977 0 0 1-2.782 3.29H118v-6ZM133.436 114H132v-6h5.025a70.738 70.738 0 0 1-3.589 6ZM132.049 116l-.049.068V116h.049ZM104 124h12v6h-12v-6ZM102 108H90v6h12v-6ZM76 116h12v6H76v-6ZM88 124H76v6h12v-6ZM90 124h12v6H90v-6ZM90 132h12v6H90v-6ZM90 116h12v6H90v-6ZM116 108h-12v6h12v-6ZM90 100h12v6H90v-6ZM88 100H76v6h12v-6Z" />
  <path fill="#E2E2E2" fill-rule="evenodd"
    d="M3.61 75c0-39.385 31.927-71.313 71.312-71.313 39.384 0 71.312 31.928 71.312 71.313 0 39.385-31.928 71.312-71.312 71.312-39.385 0-71.313-31.927-71.313-71.312ZM74.921 5.687C36.642 5.688 5.609 36.72 5.609 75c0 38.281 31.033 69.312 69.313 69.312S144.234 113.281 144.234 75c0-38.28-31.032-69.313-69.312-69.313Z"
    clip-rule="evenodd" />
</svg>