<svg xmlns="http://www.w3.org/2000/svg" fill="none" viewBox="0 0 150 150">
  <path fill="#fff"
    d="M74.922 145.312c38.832 0 70.312-31.479 70.312-70.312S113.754 4.687 74.922 4.687C36.089 4.688 4.609 36.168 4.609 75s31.48 70.312 70.313 70.312Z" />
  <path fill="#D9D9D9"
    d="M6.667 58.05a7.478 7.478 0 0 1 2.827-.55 2.5 2.5 0 0 0 0-5.001c-.4 0-.792-.032-1.175-.092.137-.403.277-.804.42-1.203.248.03.5.045.755.045a3.75 3.75 0 1 1 0 7.5 6.22 6.22 0 0 0-3.198.88c.118-.529.242-1.055.371-1.578ZM4.734 79.201a7.469 7.469 0 0 1 4.76-1.703 2.5 2.5 0 1 0 0-4.998 7.469 7.469 0 0 1-4.76-1.704c.032-.54.07-1.078.114-1.615a6.234 6.234 0 0 0 4.646 2.069 3.748 3.748 0 1 1 0 7.498 6.234 6.234 0 0 0-4.646 2.069 70.888 70.888 0 0 1-.114-1.616ZM8.318 97.59a7.55 7.55 0 0 1 1.176-.091 2.5 2.5 0 0 0 0-5.001c-1 0-1.955-.196-2.827-.551-.13-.524-.254-1.05-.371-1.578a6.22 6.22 0 0 0 3.198.879 3.75 3.75 0 1 1 0 7.5c-.256 0-.508.016-.755.046-.144-.4-.284-.801-.42-1.204ZM19.776 118.624a70.5 70.5 0 0 1-2.78-3.76 3.75 3.75 0 0 1 3.748-3.616 6.25 6.25 0 1 0 0-12.5 3.75 3.75 0 0 1 0-7.5 6.25 6.25 0 1 0 0-12.5 3.748 3.748 0 1 1 0-7.498 6.25 6.25 0 1 0 0-12.5 3.75 3.75 0 0 1 0-7.501 6.25 6.25 0 1 0 0-12.5 3.75 3.75 0 0 1-3.748-3.614 70.606 70.606 0 0 1 2.783-3.762c.307-.082.631-.125.965-.125a6.25 6.25 0 0 0 6.111-7.564c.343-.322.69-.64 1.04-.955a7.5 7.5 0 0 1-7.15 9.769 2.5 2.5 0 1 0-.001 5 7.5 7.5 0 0 1 0 15 2.5 2.5 0 0 0 0 5.001 7.5 7.5 0 0 1 0 15 2.5 2.5 0 1 0 0 4.999 7.5 7.5 0 0 1 0 15 2.5 2.5 0 1 0 0 5 7.5 7.5 0 1 1 0 15 2.501 2.501 0 0 0 0 5.002 7.5 7.5 0 0 1 7.15 9.77c-.35-.315-.696-.633-1.039-.955a6.25 6.25 0 0 0-6.111-7.565c-.335 0-.659-.044-.968-.126ZM42.408 137.358c-.38-.198-.758-.4-1.133-.605a2.5 2.5 0 0 0-1.781-4.253 7.5 7.5 0 0 1 0-15 2.501 2.501 0 0 0 0-5.002 7.5 7.5 0 0 1 0-15 2.5 2.5 0 1 0 0-5 7.5 7.5 0 0 1 0-15 2.5 2.5 0 1 0 0-4.998 7.5 7.5 0 0 1 0-15 2.5 2.5 0 0 0 0-5.001 7.5 7.5 0 0 1 0-15 2.5 2.5 0 1 0 0-5.001 7.5 7.5 0 0 1 0-15 2.5 2.5 0 0 0 1.782-4.253c.376-.205.754-.406 1.134-.605a3.75 3.75 0 0 1-2.916 6.108 6.25 6.25 0 1 0 0 12.5 3.75 3.75 0 1 1 0 7.5 6.25 6.25 0 1 0 0 12.5 3.75 3.75 0 1 1 0 7.502 6.25 6.25 0 1 0 0 12.5 3.748 3.748 0 1 1 0 7.498 6.25 6.25 0 1 0 0 12.5 3.75 3.75 0 1 1 0 7.5 6.25 6.25 0 1 0 0 12.5 3.752 3.752 0 0 1 0 7.502 6.25 6.25 0 1 0 0 12.5 3.75 3.75 0 0 1 3.75 3.748V135c0 .894-.314 1.714-.836 2.358ZM58.044 143.273a66.27 66.27 0 0 1-1.407-.363 6.253 6.253 0 0 0-5.893-4.162 3.75 3.75 0 0 1-3.75-3.748v-.002a3.75 3.75 0 0 1 3.75-3.748 6.25 6.25 0 1 0 0-12.5 3.752 3.752 0 0 1 0-7.502 6.25 6.25 0 1 0 0-12.5 3.75 3.75 0 0 1 0-7.5 6.25 6.25 0 1 0 0-12.5 3.748 3.748 0 1 1 0-7.498 6.25 6.25 0 1 0 0-12.5 3.75 3.75 0 0 1 0-7.501 6.25 6.25 0 1 0 0-12.5 3.75 3.75 0 0 1 0-7.501 6.25 6.25 0 1 0 0-12.5 3.75 3.75 0 1 1 0-7.498 6.253 6.253 0 0 0 5.892-4.161c.467-.126.937-.246 1.408-.363a7.503 7.503 0 0 1-7.3 5.774 2.5 2.5 0 1 0 0 4.998 7.5 7.5 0 0 1 0 15 2.5 2.5 0 1 0 0 5 7.5 7.5 0 0 1 0 15 2.5 2.5 0 0 0 0 5.001 7.5 7.5 0 0 1 0 15 2.5 2.5 0 1 0 0 4.999 7.5 7.5 0 0 1 0 15 2.5 2.5 0 1 0 0 5 7.5 7.5 0 1 1 0 15 2.501 2.501 0 0 0 0 5.002 7.5 7.5 0 0 1 0 15 2.5 2.5 0 1 0 0 4.998 7.504 7.504 0 0 1 7.3 5.775ZM63.154 144.331a62.918 62.918 0 0 1-1.234-.219 7.502 7.502 0 0 1 7.449-6.614 2.5 2.5 0 1 0 0-4.998 7.5 7.5 0 0 1 0-15 2.501 2.501 0 0 0 0-5.002 7.5 7.5 0 0 1 0-15 2.5 2.5 0 1 0 0-5 7.5 7.5 0 0 1 0-15 2.5 2.5 0 1 0 0-4.998 7.5 7.5 0 0 1 0-15 2.5 2.5 0 0 0 0-5.001 7.5 7.5 0 0 1 0-15 2.5 2.5 0 1 0 0-5.001 7.5 7.5 0 0 1 0-15 2.5 2.5 0 1 0 0-4.998 7.502 7.502 0 0 1-7.448-6.613c.41-.076.82-.15 1.233-.219a6.25 6.25 0 0 0 6.215 5.582 3.748 3.748 0 1 1 0 7.498 6.25 6.25 0 1 0 0 12.5 3.75 3.75 0 1 1 0 7.5 6.25 6.25 0 1 0 0 12.5 3.75 3.75 0 1 1 0 7.502 6.25 6.25 0 1 0 0 12.5 3.748 3.748 0 1 1 0 7.498 6.25 6.25 0 1 0 0 12.5 3.75 3.75 0 1 1 0 7.5 6.25 6.25 0 1 0 0 12.5 3.752 3.752 0 0 1 0 7.502 6.25 6.25 0 1 0 0 12.5 3.75 3.75 0 0 1 3.75 3.748V135a3.75 3.75 0 0 1-3.75 3.748 6.25 6.25 0 0 0-6.215 5.583ZM88.064 144.086c-.41.077-.82.151-1.233.222a6.251 6.251 0 0 0-6.212-5.56 3.75 3.75 0 0 1-3.75-3.748v-.002a3.75 3.75 0 0 1 3.75-3.748 6.25 6.25 0 1 0 0-12.5 3.752 3.752 0 0 1 0-7.502 6.25 6.25 0 1 0 0-12.5 3.75 3.75 0 0 1 0-7.5 6.25 6.25 0 1 0 0-12.5 3.748 3.748 0 1 1 0-7.498 6.25 6.25 0 1 0 0-12.5 3.75 3.75 0 0 1 0-7.501 6.25 6.25 0 1 0 0-12.5 3.75 3.75 0 0 1 0-7.501 6.25 6.25 0 1 0 0-12.5 3.75 3.75 0 1 1 0-7.498A6.25 6.25 0 0 0 86.83 5.69c.412.07.823.145 1.233.222a7.502 7.502 0 0 1-7.445 6.587 2.5 2.5 0 1 0 0 4.998 7.5 7.5 0 0 1 0 15 2.5 2.5 0 1 0 0 5 7.5 7.5 0 0 1 0 15 2.5 2.5 0 0 0 0 5.001 7.5 7.5 0 0 1 0 15 2.5 2.5 0 1 0 0 4.999 7.5 7.5 0 0 1 0 15 2.5 2.5 0 1 0 0 5 7.5 7.5 0 1 1 0 15 2.501 2.501 0 0 0 0 5.002 7.5 7.5 0 0 1 0 15 2.5 2.5 0 1 0 0 4.998 7.502 7.502 0 0 1 7.445 6.588ZM93.644 142.792c-.473.131-.948.256-1.426.377a7.504 7.504 0 0 1 7.276-5.671 2.5 2.5 0 1 0 0-4.998 7.5 7.5 0 0 1 0-15 2.501 2.501 0 0 0 0-5.002 7.5 7.5 0 0 1 0-15 2.5 2.5 0 1 0 0-5 7.5 7.5 0 0 1 0-15 2.498 2.498 0 1 0 0-4.998 7.5 7.5 0 0 1 0-15 2.5 2.5 0 0 0 0-5.001 7.5 7.5 0 0 1 0-15 2.5 2.5 0 1 0 0-5.001 7.5 7.5 0 0 1 0-15 2.5 2.5 0 1 0 0-4.998 7.503 7.503 0 0 1-7.275-5.67c.477.121.952.247 1.426.377a6.252 6.252 0 0 0 5.849 4.043 3.748 3.748 0 1 1 0 7.498 6.25 6.25 0 1 0 0 12.5 3.75 3.75 0 1 1 0 7.5 6.25 6.25 0 1 0 0 12.5 3.75 3.75 0 1 1 0 7.502 6.25 6.25 0 1 0 0 12.5 3.748 3.748 0 1 1 0 7.498 6.25 6.25 0 1 0 0 12.5 3.75 3.75 0 1 1 0 7.5 6.25 6.25 0 1 0 0 12.5 3.75 3.75 0 1 1 0 7.502 6.25 6.25 0 1 0 0 12.5 3.75 3.75 0 0 1 3.75 3.748V135a3.75 3.75 0 0 1-3.75 3.748 6.253 6.253 0 0 0-5.85 4.044ZM108.832 136.61c-.37.204-.741.405-1.115.602a3.724 3.724 0 0 1-.723-2.212v-.002a3.75 3.75 0 0 1 3.75-3.748 6.25 6.25 0 1 0 0-12.5 3.751 3.751 0 0 1 0-7.502 6.25 6.25 0 1 0 0-12.5 3.75 3.75 0 1 1 0-7.5 6.25 6.25 0 1 0 0-12.5 3.75 3.75 0 1 1 0-7.498 6.25 6.25 0 1 0 0-12.5 3.75 3.75 0 0 1 0-7.501 6.25 6.25 0 1 0 0-12.5 3.75 3.75 0 1 1 0-7.501 6.25 6.25 0 1 0 0-12.5 3.75 3.75 0 0 1-3.029-5.962c.374.198.746.399 1.116.603a2.5 2.5 0 0 0 1.913 4.11 7.5 7.5 0 0 1 0 14.999 2.5 2.5 0 1 0 0 5 7.5 7.5 0 0 1 0 15 2.5 2.5 0 1 0 0 5.002 7.5 7.5 0 0 1 0 15 2.5 2.5 0 1 0 0 4.998 7.5 7.5 0 0 1 0 15 2.5 2.5 0 1 0 0 5 7.5 7.5 0 1 1 0 15 2.501 2.501 0 0 0 0 5.002 7.5 7.5 0 0 1 0 15 2.499 2.499 0 0 0-1.912 4.11ZM123.324 126.002c-.351.333-.706.663-1.063.989a7.5 7.5 0 0 1 7.233-9.491 2.501 2.501 0 0 0 0-5.002 7.5 7.5 0 0 1 0-15 2.5 2.5 0 0 0 0-5 7.5 7.5 0 0 1 0-15 2.498 2.498 0 1 0 0-4.998 7.5 7.5 0 0 1 0-15 2.5 2.5 0 0 0 0-5.001 7.5 7.5 0 0 1 0-15 2.5 2.5 0 0 0 0-5.001 7.5 7.5 0 0 1-7.234-9.49c.358.326.712.656 1.063.99a6.25 6.25 0 0 0 6.171 7.25c.17 0 .337.011.501.033a70.43 70.43 0 0 1 3.195 4.352 3.75 3.75 0 0 1-3.696 3.116 6.25 6.25 0 1 0 0 12.5 3.75 3.75 0 1 1 0 7.5 6.25 6.25 0 1 0 0 12.5 3.748 3.748 0 1 1 0 7.499 6.25 6.25 0 1 0 0 12.5 3.75 3.75 0 1 1 0 7.5 6.25 6.25 0 1 0 0 12.5 3.751 3.751 0 0 1 3.697 3.118 70.701 70.701 0 0 1-3.194 4.35 3.805 3.805 0 0 1-.503.034 6.25 6.25 0 0 0-6.17 7.252ZM141.545 97.54c-.138.409-.28.815-.425 1.22a6.353 6.353 0 0 0-.376-.011 3.75 3.75 0 1 1 0-7.501 6.22 6.22 0 0 0 2.752-.637c-.113.5-.232 1-.356 1.496a7.493 7.493 0 0 1-2.396.39 2.5 2.5 0 1 0 0 5.002c.27 0 .537.014.801.042ZM145.128 71.085a7.463 7.463 0 0 1-4.384 1.415 2.5 2.5 0 1 0 0 4.998c1.637 0 3.151.524 4.384 1.414a70.539 70.539 0 0 1-.1 1.535 6.229 6.229 0 0 0-4.284-1.7 3.75 3.75 0 1 1 0-7.498 6.225 6.225 0 0 0 4.283-1.698c.04.51.073 1.021.101 1.534ZM141.544 52.456a7.61 7.61 0 0 1-.8.043 2.5 2.5 0 1 0 0 5c.837 0 1.643.138 2.395.391.124.497.243.996.357 1.496a6.23 6.23 0 0 0-2.752-.636 3.75 3.75 0 0 1 0-7.501c.126 0 .251-.004.375-.011.145.404.287.81.425 1.218Z" />
  <path fill="#000" fill-rule="evenodd"
    d="M149.234 75c0 41.042-33.27 74.312-74.312 74.312C33.88 149.312.609 116.042.609 75 .61 33.958 33.88.687 74.922.687S149.234 33.959 149.234 75Zm-4 0c0 38.833-31.48 70.312-70.312 70.312-38.833 0-70.313-31.479-70.313-70.312S36.09 4.687 74.922 4.687c38.832 0 70.312 31.48 70.312 70.313Z"
    clip-rule="evenodd" />
</svg>