<svg width="150" height="150" viewBox="0 0 150 150" fill="none" xmlns="http://www.w3.org/2000/svg">
<mask id="mask0_1449_16516" style="mask-type:alpha" maskUnits="userSpaceOnUse" x="5" y="5" width="140" height="140">
<path d="M135.667 5H14.3333C9.17667 5 5 9.17667 5 14.3333V135.667C5 140.823 9.17667 145 14.3333 145H135.667C140.823 145 145 140.823 145 135.667V14.3333C145 9.17667 140.823 5 135.667 5Z" fill="#689F38"/>
</mask>
<g mask="url(#mask0_1449_16516)">
<rect width="150" height="150" fill="#F44336"/>
<path d="M0.499997 5C2.98528 5 5 2.98528 5 0.499997C5 0.330994 4.99068 0.164166 4.97253 0H0V4.97253C0.164166 4.99068 0.330994 5 0.499997 5Z" fill="#FF8ECB"/>
<path d="M0 34.9725V26.0275C0.164166 26.0093 0.330994 26 0.499997 26C2.98528 26 5 28.0147 5 30.5C5 32.9853 2.98528 35 0.499997 35C0.330994 35 0.164166 34.9907 0 34.9725Z" fill="#FF8ECB"/>
<path d="M0 64.9725V56.0275C0.164166 56.0093 0.330994 56 0.499997 56C2.98528 56 5 58.0147 5 60.5C5 62.9853 2.98528 65 0.499997 65C0.330994 65 0.164166 64.9907 0 64.9725Z" fill="#FF8ECB"/>
<path d="M0 94.9725V86.0275C0.164166 86.0093 0.330994 86 0.499997 86C2.98528 86 5 88.0147 5 90.5C5 92.9853 2.98528 95 0.499997 95C0.330994 95 0.164166 94.9907 0 94.9725Z" fill="#FF8ECB"/>
<path d="M0 124.973V116.027C0.164166 116.009 0.330994 116 0.499997 116C2.98528 116 5 118.015 5 120.5C5 122.985 2.98528 125 0.499997 125C0.330994 125 0.164166 124.991 0 124.973Z" fill="#FF8ECB"/>
<path d="M4.97253 150H0V146.027C0.164166 146.009 0.330994 146 0.499997 146C2.81628 146 4.72382 147.75 4.97253 150Z" fill="#FF8ECB"/>
<path d="M34.9725 150H26.0275C26.2762 147.75 28.1837 146 30.5 146C32.8163 146 34.7238 147.75 34.9725 150Z" fill="#FF8ECB"/>
<path d="M64.9725 150H56.0275C56.2762 147.75 58.1837 146 60.5 146C62.8163 146 64.7238 147.75 64.9725 150Z" fill="#FF8ECB"/>
<path d="M94.9725 150H86.0275C86.2762 147.75 88.1837 146 90.5 146C92.8163 146 94.7238 147.75 94.9725 150Z" fill="#FF8ECB"/>
<path d="M124.973 150H116.027C116.276 147.75 118.184 146 120.5 146C122.816 146 124.724 147.75 124.973 150Z" fill="#FF8ECB"/>
<path d="M150 146.027V150H146.027C146.258 147.914 147.914 146.258 150 146.027Z" fill="#FF8ECB"/>
<path d="M150 116.027V124.973C147.75 124.724 146 122.816 146 120.5C146 118.184 147.75 116.276 150 116.027Z" fill="#FF8ECB"/>
<path d="M150 86.0275V94.9725C147.75 94.7238 146 92.8163 146 90.5C146 88.1837 147.75 86.2762 150 86.0275Z" fill="#FF8ECB"/>
<path d="M150 56.0275V64.9725C147.75 64.7238 146 62.8163 146 60.5C146 58.1837 147.75 56.2762 150 56.0275Z" fill="#FF8ECB"/>
<path d="M150 26.0275V34.9725C147.75 34.7238 146 32.8163 146 30.5C146 28.1837 147.75 26.2762 150 26.0275Z" fill="#FF8ECB"/>
<path d="M146.027 0H150V4.97253C147.75 4.72382 146 2.81628 146 0.499997C146 0.330994 146.009 0.164166 146.027 0Z" fill="#FF8ECB"/>
<path d="M116.027 0H124.973C124.991 0.164166 125 0.330994 125 0.499997C125 2.98528 122.985 5 120.5 5C118.015 5 116 2.98528 116 0.499997C116 0.330994 116.009 0.164166 116.027 0Z" fill="#FF8ECB"/>
<path d="M86.0275 0H94.9725C94.9907 0.164166 95 0.330994 95 0.499997C95 2.98528 92.9853 5 90.5 5C88.0147 5 86 2.98528 86 0.499997C86 0.330994 86.0093 0.164166 86.0275 0Z" fill="#FF8ECB"/>
<path d="M56.0275 0H64.9725C64.9907 0.164166 65 0.330994 65 0.499997C65 2.98528 62.9853 5 60.5 5C58.0147 5 56 2.98528 56 0.499997C56 0.330994 56.0093 0.164166 56.0275 0Z" fill="#FF8ECB"/>
<path d="M26.0275 0H34.9725C34.9907 0.164166 35 0.330994 35 0.499997C35 2.98528 32.9853 5 30.5 5C28.0147 5 26 2.98528 26 0.499997C26 0.330994 26.0093 0.164166 26.0275 0Z" fill="#FF8ECB"/>
<path d="M20 15.5C20 17.9853 17.9853 20 15.5 20C13.0147 20 11 17.9853 11 15.5C11 13.0147 13.0147 11 15.5 11C17.9853 11 20 13.0147 20 15.5Z" fill="#FF8ECB"/>
<path d="M50 15.5C50 17.9853 47.9853 20 45.5 20C43.0147 20 41 17.9853 41 15.5C41 13.0147 43.0147 11 45.5 11C47.9853 11 50 13.0147 50 15.5Z" fill="#FF8ECB"/>
<path d="M80 15.5C80 17.9853 77.9853 20 75.5 20C73.0147 20 71 17.9853 71 15.5C71 13.0147 73.0147 11 75.5 11C77.9853 11 80 13.0147 80 15.5Z" fill="#FF8ECB"/>
<path d="M110 15.5C110 17.9853 107.985 20 105.5 20C103.015 20 101 17.9853 101 15.5C101 13.0147 103.015 11 105.5 11C107.985 11 110 13.0147 110 15.5Z" fill="#FF8ECB"/>
<path d="M140 15.5C140 17.9853 137.985 20 135.5 20C133.015 20 131 17.9853 131 15.5C131 13.0147 133.015 11 135.5 11C137.985 11 140 13.0147 140 15.5Z" fill="#FF8ECB"/>
<path d="M15.5 50C17.9853 50 20 47.9853 20 45.5C20 43.0147 17.9853 41 15.5 41C13.0147 41 11 43.0147 11 45.5C11 47.9853 13.0147 50 15.5 50Z" fill="#FF8ECB"/>
<path d="M35 30.5C35 32.9853 32.9853 35 30.5 35C28.0147 35 26 32.9853 26 30.5C26 28.0147 28.0147 26 30.5 26C32.9853 26 35 28.0147 35 30.5Z" fill="#FF8ECB"/>
<path d="M45.5 50C47.9853 50 50 47.9853 50 45.5C50 43.0147 47.9853 41 45.5 41C43.0147 41 41 43.0147 41 45.5C41 47.9853 43.0147 50 45.5 50Z" fill="#FF8ECB"/>
<path d="M65 30.5C65 32.9853 62.9853 35 60.5 35C58.0147 35 56 32.9853 56 30.5C56 28.0147 58.0147 26 60.5 26C62.9853 26 65 28.0147 65 30.5Z" fill="#FF8ECB"/>
<path d="M75.5 50C77.9853 50 80 47.9853 80 45.5C80 43.0147 77.9853 41 75.5 41C73.0147 41 71 43.0147 71 45.5C71 47.9853 73.0147 50 75.5 50Z" fill="#FF8ECB"/>
<path d="M95 30.5C95 32.9853 92.9853 35 90.5 35C88.0147 35 86 32.9853 86 30.5C86 28.0147 88.0147 26 90.5 26C92.9853 26 95 28.0147 95 30.5Z" fill="#FF8ECB"/>
<path d="M105.5 50C107.985 50 110 47.9853 110 45.5C110 43.0147 107.985 41 105.5 41C103.015 41 101 43.0147 101 45.5C101 47.9853 103.015 50 105.5 50Z" fill="#FF8ECB"/>
<path d="M125 30.5C125 32.9853 122.985 35 120.5 35C118.015 35 116 32.9853 116 30.5C116 28.0147 118.015 26 120.5 26C122.985 26 125 28.0147 125 30.5Z" fill="#FF8ECB"/>
<path d="M135.5 50C137.985 50 140 47.9853 140 45.5C140 43.0147 137.985 41 135.5 41C133.015 41 131 43.0147 131 45.5C131 47.9853 133.015 50 135.5 50Z" fill="#FF8ECB"/>
<path d="M20 75.5C20 77.9853 17.9853 80 15.5 80C13.0147 80 11 77.9853 11 75.5C11 73.0147 13.0147 71 15.5 71C17.9853 71 20 73.0147 20 75.5Z" fill="#FF8ECB"/>
<path d="M30.5 65C32.9853 65 35 62.9853 35 60.5C35 58.0147 32.9853 56 30.5 56C28.0147 56 26 58.0147 26 60.5C26 62.9853 28.0147 65 30.5 65Z" fill="#FF8ECB"/>
<path d="M50 75.5C50 77.9853 47.9853 80 45.5 80C43.0147 80 41 77.9853 41 75.5C41 73.0147 43.0147 71 45.5 71C47.9853 71 50 73.0147 50 75.5Z" fill="#FF8ECB"/>
<path d="M60.5 65C62.9853 65 65 62.9853 65 60.5C65 58.0147 62.9853 56 60.5 56C58.0147 56 56 58.0147 56 60.5C56 62.9853 58.0147 65 60.5 65Z" fill="#FF8ECB"/>
<path d="M80 75.5C80 77.9853 77.9853 80 75.5 80C73.0147 80 71 77.9853 71 75.5C71 73.0147 73.0147 71 75.5 71C77.9853 71 80 73.0147 80 75.5Z" fill="#FF8ECB"/>
<path d="M90.5 65C92.9853 65 95 62.9853 95 60.5C95 58.0147 92.9853 56 90.5 56C88.0147 56 86 58.0147 86 60.5C86 62.9853 88.0147 65 90.5 65Z" fill="#FF8ECB"/>
<path d="M110 75.5C110 77.9853 107.985 80 105.5 80C103.015 80 101 77.9853 101 75.5C101 73.0147 103.015 71 105.5 71C107.985 71 110 73.0147 110 75.5Z" fill="#FF8ECB"/>
<path d="M120.5 65C122.985 65 125 62.9853 125 60.5C125 58.0147 122.985 56 120.5 56C118.015 56 116 58.0147 116 60.5C116 62.9853 118.015 65 120.5 65Z" fill="#FF8ECB"/>
<path d="M140 75.5C140 77.9853 137.985 80 135.5 80C133.015 80 131 77.9853 131 75.5C131 73.0147 133.015 71 135.5 71C137.985 71 140 73.0147 140 75.5Z" fill="#FF8ECB"/>
<path d="M15.5 110C17.9853 110 20 107.985 20 105.5C20 103.015 17.9853 101 15.5 101C13.0147 101 11 103.015 11 105.5C11 107.985 13.0147 110 15.5 110Z" fill="#FF8ECB"/>
<path d="M35 90.5C35 92.9853 32.9853 95 30.5 95C28.0147 95 26 92.9853 26 90.5C26 88.0147 28.0147 86 30.5 86C32.9853 86 35 88.0147 35 90.5Z" fill="#FF8ECB"/>
<path d="M45.5 110C47.9853 110 50 107.985 50 105.5C50 103.015 47.9853 101 45.5 101C43.0147 101 41 103.015 41 105.5C41 107.985 43.0147 110 45.5 110Z" fill="#FF8ECB"/>
<path d="M65 90.5C65 92.9853 62.9853 95 60.5 95C58.0147 95 56 92.9853 56 90.5C56 88.0147 58.0147 86 60.5 86C62.9853 86 65 88.0147 65 90.5Z" fill="#FF8ECB"/>
<path d="M75.5 110C77.9853 110 80 107.985 80 105.5C80 103.015 77.9853 101 75.5 101C73.0147 101 71 103.015 71 105.5C71 107.985 73.0147 110 75.5 110Z" fill="#FF8ECB"/>
<path d="M95 90.5C95 92.9853 92.9853 95 90.5 95C88.0147 95 86 92.9853 86 90.5C86 88.0147 88.0147 86 90.5 86C92.9853 86 95 88.0147 95 90.5Z" fill="#FF8ECB"/>
<path d="M105.5 110C107.985 110 110 107.985 110 105.5C110 103.015 107.985 101 105.5 101C103.015 101 101 103.015 101 105.5C101 107.985 103.015 110 105.5 110Z" fill="#FF8ECB"/>
<path d="M125 90.5C125 92.9853 122.985 95 120.5 95C118.015 95 116 92.9853 116 90.5C116 88.0147 118.015 86 120.5 86C122.985 86 125 88.0147 125 90.5Z" fill="#FF8ECB"/>
<path d="M135.5 110C137.985 110 140 107.985 140 105.5C140 103.015 137.985 101 135.5 101C133.015 101 131 103.015 131 105.5C131 107.985 133.015 110 135.5 110Z" fill="#FF8ECB"/>
<path d="M20 135.5C20 137.985 17.9853 140 15.5 140C13.0147 140 11 137.985 11 135.5C11 133.015 13.0147 131 15.5 131C17.9853 131 20 133.015 20 135.5Z" fill="#FF8ECB"/>
<path d="M30.5 125C32.9853 125 35 122.985 35 120.5C35 118.015 32.9853 116 30.5 116C28.0147 116 26 118.015 26 120.5C26 122.985 28.0147 125 30.5 125Z" fill="#FF8ECB"/>
<path d="M50 135.5C50 137.985 47.9853 140 45.5 140C43.0147 140 41 137.985 41 135.5C41 133.015 43.0147 131 45.5 131C47.9853 131 50 133.015 50 135.5Z" fill="#FF8ECB"/>
<path d="M60.5 125C62.9853 125 65 122.985 65 120.5C65 118.015 62.9853 116 60.5 116C58.0147 116 56 118.015 56 120.5C56 122.985 58.0147 125 60.5 125Z" fill="#FF8ECB"/>
<path d="M80 135.5C80 137.985 77.9853 140 75.5 140C73.0147 140 71 137.985 71 135.5C71 133.015 73.0147 131 75.5 131C77.9853 131 80 133.015 80 135.5Z" fill="#FF8ECB"/>
<path d="M90.5 125C92.9853 125 95 122.985 95 120.5C95 118.015 92.9853 116 90.5 116C88.0147 116 86 118.015 86 120.5C86 122.985 88.0147 125 90.5 125Z" fill="#FF8ECB"/>
<path d="M110 135.5C110 137.985 107.985 140 105.5 140C103.015 140 101 137.985 101 135.5C101 133.015 103.015 131 105.5 131C107.985 131 110 133.015 110 135.5Z" fill="#FF8ECB"/>
<path d="M120.5 125C122.985 125 125 122.985 125 120.5C125 118.015 122.985 116 120.5 116C118.015 116 116 118.015 116 120.5C116 122.985 118.015 125 120.5 125Z" fill="#FF8ECB"/>
<path d="M140 135.5C140 137.985 137.985 140 135.5 140C133.015 140 131 137.985 131 135.5C131 133.015 133.015 131 135.5 131C137.985 131 140 133.015 140 135.5Z" fill="#FF8ECB"/>
</g>
<path d="M135.667 5H14.3333C9.17667 5 5 9.17667 5 14.3333V135.667C5 140.823 9.17667 145 14.3333 145H135.667C140.823 145 145 140.823 145 135.667V14.3333C145 9.17667 140.823 5 135.667 5Z" stroke="#C62C21" stroke-width="2"/>
</svg>
