<svg xmlns="http://www.w3.org/2000/svg" fill="none" viewBox="0 0 150 150">
  <path fill="#F44336"
    d="M135.667 5H14.333A9.33 9.33 0 0 0 5 14.333v121.334A9.33 9.33 0 0 0 14.333 145h121.334a9.331 9.331 0 0 0 9.333-9.333V14.333A9.33 9.33 0 0 0 135.667 5Z" />
  <path fill="#FF8ECB"
    d="M20 15.5a4.5 4.5 0 1 1-9 0 4.5 4.5 0 0 1 9 0ZM45.5 20a4.5 4.5 0 1 0 0-9 4.5 4.5 0 0 0 0 9ZM80 15.5a4.5 4.5 0 1 1-9 0 4.5 4.5 0 0 1 9 0ZM105.5 20a4.5 4.5 0 1 0 0-9 4.5 4.5 0 0 0 0 9ZM140 15.5a4.5 4.5 0 1 1-9 0 4.5 4.5 0 0 1 9 0ZM20 45.5a4.5 4.5 0 1 1-9 0 4.5 4.5 0 0 1 9 0ZM35 30.5a4.5 4.5 0 1 1-9 0 4.5 4.5 0 0 1 9 0ZM50 45.5a4.5 4.5 0 1 1-9 0 4.5 4.5 0 0 1 9 0ZM65 30.5a4.5 4.5 0 1 1-9 0 4.5 4.5 0 0 1 9 0ZM80 45.5a4.5 4.5 0 1 1-9 0 4.5 4.5 0 0 1 9 0ZM95 30.5a4.5 4.5 0 1 1-9 0 4.5 4.5 0 0 1 9 0ZM110 45.5a4.5 4.5 0 1 1-9 0 4.5 4.5 0 0 1 9 0ZM125 30.5a4.5 4.5 0 1 1-9 0 4.5 4.5 0 0 1 9 0ZM140 45.5a4.5 4.5 0 1 1-9 0 4.5 4.5 0 0 1 9 0ZM20 75.5a4.5 4.5 0 1 1-9 0 4.5 4.5 0 0 1 9 0ZM35 60.5a4.5 4.5 0 1 1-9 0 4.5 4.5 0 0 1 9 0ZM50 75.5a4.5 4.5 0 1 1-9 0 4.5 4.5 0 0 1 9 0ZM65 60.5a4.5 4.5 0 1 1-9 0 4.5 4.5 0 0 1 9 0ZM80 75.5a4.5 4.5 0 1 1-9 0 4.5 4.5 0 0 1 9 0ZM95 60.5a4.5 4.5 0 1 1-9 0 4.5 4.5 0 0 1 9 0ZM110 75.5a4.5 4.5 0 1 1-9 0 4.5 4.5 0 0 1 9 0ZM125 60.5a4.5 4.5 0 1 1-9 0 4.5 4.5 0 0 1 9 0ZM140 75.5a4.5 4.5 0 1 1-9 0 4.5 4.5 0 0 1 9 0ZM20 105.5a4.5 4.5 0 1 1-9 0 4.5 4.5 0 0 1 9 0ZM35 90.5a4.5 4.5 0 1 1-9 0 4.5 4.5 0 0 1 9 0ZM50 105.5a4.5 4.5 0 1 1-9 0 4.5 4.5 0 0 1 9 0ZM65 90.5a4.5 4.5 0 1 1-9 0 4.5 4.5 0 0 1 9 0ZM80 105.5a4.5 4.5 0 1 1-9 0 4.5 4.5 0 0 1 9 0ZM95 90.5a4.5 4.5 0 1 1-9 0 4.5 4.5 0 0 1 9 0ZM110 105.5a4.5 4.5 0 1 1-9 0 4.5 4.5 0 0 1 9 0ZM125 90.5a4.5 4.5 0 1 1-9 0 4.5 4.5 0 0 1 9 0ZM140 105.5a4.5 4.5 0 1 1-9 0 4.5 4.5 0 0 1 9 0ZM20 135.5a4.5 4.5 0 1 1-9 0 4.5 4.5 0 0 1 9 0ZM35 120.5a4.5 4.5 0 1 1-9 0 4.5 4.5 0 0 1 9 0ZM50 135.5a4.5 4.5 0 1 1-9 0 4.5 4.5 0 0 1 9 0ZM65 120.5a4.5 4.5 0 1 1-9 0 4.5 4.5 0 0 1 9 0ZM80 135.5a4.5 4.5 0 1 1-9 0 4.5 4.5 0 0 1 9 0ZM95 120.5a4.5 4.5 0 1 1-9 0 4.5 4.5 0 0 1 9 0ZM110 135.5a4.5 4.5 0 1 1-9 0 4.5 4.5 0 0 1 9 0ZM125 120.5a4.5 4.5 0 1 1-9 0 4.5 4.5 0 0 1 9 0ZM140 135.5a4.5 4.5 0 1 1-9 0 4.5 4.5 0 0 1 9 0Z" />
  <path fill="#C62C21" fill-rule="evenodd"
    d="M4 14.333A10.33 10.33 0 0 1 14.333 4h121.334C141.375 4 146 8.624 146 14.333v121.334c0 5.708-4.625 10.333-10.333 10.333H14.333C8.624 146 4 141.375 4 135.667V14.333ZM14.333 6A8.33 8.33 0 0 0 6 14.333v121.334A8.33 8.33 0 0 0 14.333 144h121.334a8.33 8.33 0 0 0 8.333-8.333V14.333A8.33 8.33 0 0 0 135.667 6H14.333Z"
    clip-rule="evenodd" />
</svg>