<svg xmlns="http://www.w3.org/2000/svg" fill="none" viewBox="0 0 150 150">
  <path fill="#1D89F3"
    d="M135.667 5H14.333A9.33 9.33 0 0 0 5 14.333v121.334A9.33 9.33 0 0 0 14.333 145h121.334a9.331 9.331 0 0 0 9.333-9.333V14.333A9.33 9.33 0 0 0 135.667 5Z" />
  <path fill="#3FC0F7" fill-rule="evenodd"
    d="m120.161 37.801.495-.8c5.323-8.449 14.123-14.436 24.344-15.925v-5.025c-.17.448-.282.921-.33 1.407a39.047 39.047 0 0 0-3.737-5.239 10.805 10.805 0 0 1 2.617-2.886 9.386 9.386 0 0 0-1.769-2.053 13.47 13.47 0 0 0-2.723 2.89A36.407 36.407 0 0 0 135 6.6c.407-.55.844-1.077 1.307-1.578a9.5 9.5 0 0 0-.64-.022h-2.834l-.029.04-.061-.04h-5.554c.828.39 1.643.815 2.441 1.273a35.022 35.022 0 0 1 12.696 12.528 36.23 36.23 0 0 0-5.357 1.561 29.577 29.577 0 0 0-10.598-9.727A29.13 29.13 0 0 0 112.5 7.116a29.128 29.128 0 0 0-13.87 3.52 29.58 29.58 0 0 0-10.599 9.726 35.484 35.484 0 0 0-5.37-1.56A35.026 35.026 0 0 1 95.356 6.272 34.645 34.645 0 0 1 97.797 5h-5.526l-.061.04a8.996 8.996 0 0 0-.03-.04h-3.505c.47.507.912 1.042 1.325 1.6a36.398 36.398 0 0 0-4.058 3.57 13.434 13.434 0 0 0-4.78-4.223A13.279 13.279 0 0 0 78.852 5h-7.704c-.794.241-1.568.558-2.31.947a13.434 13.434 0 0 0-4.78 4.223A36.398 36.398 0 0 0 60 6.6 18.97 18.97 0 0 1 61.326 5h-3.493l-.03.04-.06-.04H52.19c.828.39 1.642.815 2.44 1.273a35.026 35.026 0 0 1 12.696 12.528c-1.835.38-3.616.91-5.357 1.561a29.58 29.58 0 0 0-10.598-9.727A29.13 29.13 0 0 0 37.5 7.116a29.13 29.13 0 0 0-13.87 3.52 29.58 29.58 0 0 0-10.599 9.726 35.483 35.483 0 0 0-5.37-1.56A35.026 35.026 0 0 1 20.356 6.272 34.665 34.665 0 0 1 22.797 5h-5.526l-.061.04a8.996 8.996 0 0 0-.03-.04h-2.847c-.214 0-.427.007-.638.021.462.501.898 1.028 1.305 1.58a36.398 36.398 0 0 0-4.058 3.569 13.483 13.483 0 0 0-2.723-2.89 9.375 9.375 0 0 0-1.765 2.046 10.803 10.803 0 0 1 2.626 2.893 38.109 38.109 0 0 0-3.75 5.239A5.487 5.487 0 0 0 5 16.052v5.026a34.48 34.48 0 0 1 11.73 3.971 34.985 34.985 0 0 1 12.614 11.952c.174.258.335.529.482.8-1.835.38-3.616.91-5.357 1.561a37.942 37.942 0 0 0-1.728-2.361h-.013C18.336 31.6 12.099 27.8 5 26.57v2.759c5.485 1.05 10.371 3.794 14.125 7.67a27.192 27.192 0 0 1 2.813 3.42 37.303 37.303 0 0 0-4.728 2.62c-1.835-2.47-4.152-4.547-6.83-6.04A21.16 21.16 0 0 0 5 34.884v2.803c1.165.326 2.299.767 3.387 1.318A18.785 18.785 0 0 1 15 44.6a36.396 36.396 0 0 0-4.058 3.569A13.434 13.434 0 0 0 5 43.407v2.985a10.775 10.775 0 0 1 4.08 3.827 38.109 38.109 0 0 0-3.75 5.239A5.487 5.487 0 0 0 5 54.052v5.026a34.48 34.48 0 0 1 11.73 3.971 34.985 34.985 0 0 1 12.614 11.952c.174.257.335.529.482.8-1.835.38-3.616.91-5.357 1.561a37.942 37.942 0 0 0-1.728-2.361h-.013C18.336 69.6 12.099 65.8 5 64.57v2.759c5.485 1.05 10.371 3.794 14.125 7.67a27.192 27.192 0 0 1 2.813 3.42 37.303 37.303 0 0 0-4.728 2.62c-1.835-2.47-4.152-4.547-6.83-6.04A21.16 21.16 0 0 0 5 72.884v2.803c1.165.326 2.299.767 3.387 1.318A18.785 18.785 0 0 1 15 82.6a36.396 36.396 0 0 0-4.058 3.569A13.435 13.435 0 0 0 5 81.407v2.985c.062.034.125.067.187.102a10.775 10.775 0 0 1 3.893 3.725 38.109 38.109 0 0 0-3.75 5.239A5.487 5.487 0 0 0 5 92.052v5.026c4.1.602 8.074 1.942 11.73 3.971a34.988 34.988 0 0 1 12.614 11.952c.174.258.335.529.482.8-1.835.38-3.616.91-5.357 1.561a38.022 38.022 0 0 0-1.728-2.361h-.013C18.336 107.6 12.099 103.8 5 102.572v2.758c5.485 1.05 10.371 3.794 14.125 7.671a27.15 27.15 0 0 1 2.813 3.42 37.326 37.326 0 0 0-4.728 2.619c-1.835-2.47-4.152-4.546-6.83-6.039A21.18 21.18 0 0 0 5 110.882v2.804c1.165.326 2.299.767 3.387 1.318A18.775 18.775 0 0 1 15 120.601a36.353 36.353 0 0 0-4.058 3.569A13.439 13.439 0 0 0 5 119.407v2.985a10.782 10.782 0 0 1 4.08 3.827 38.138 38.138 0 0 0-3.75 5.239 5.487 5.487 0 0 0-.33-1.406v5.026c4.1.602 8.074 1.942 11.73 3.971A34.845 34.845 0 0 1 24.578 145h3.994a10.767 10.767 0 0 1 3.75-3.509 10.604 10.604 0 0 1 10.369 0A10.767 10.767 0 0 1 46.44 145h3.982c6.296-6.358 14.99-10.285 24.577-10.285a34.436 34.436 0 0 1 16.73 4.334A34.842 34.842 0 0 1 99.578 145h3.994a10.767 10.767 0 0 1 3.751-3.509 10.602 10.602 0 0 1 10.368 0 10.764 10.764 0 0 1 3.75 3.509h3.982c5.181-5.232 11.987-8.818 19.577-9.924v-5.025c-.17.449-.282.921-.33 1.407a39.065 39.065 0 0 0-3.737-5.239 10.776 10.776 0 0 1 4.067-3.82v-2.992a13.437 13.437 0 0 0-5.942 4.763 36.362 36.362 0 0 0-4.058-3.569c2.451-3.313 5.951-5.785 10-6.917v-2.8a21.31 21.31 0 0 0-5.379 2.117 21.61 21.61 0 0 0-6.817 6.039 36.687 36.687 0 0 0-4.742-2.619 27.145 27.145 0 0 1 2.813-3.42c3.754-3.877 8.641-6.621 14.125-7.671v-2.758c-7.1 1.228-13.338 5.028-17.741 10.429h.013a29.763 29.763 0 0 0-1.741 2.361 35.511 35.511 0 0 0-5.37-1.561l.495-.8c5.323-8.449 14.123-14.436 24.344-15.925v-5.025c-.17.448-.282.921-.33 1.407a39.047 39.047 0 0 0-3.737-5.239A10.775 10.775 0 0 1 145 84.4v-2.992a13.433 13.433 0 0 0-5.942 4.763A36.405 36.405 0 0 0 135 82.6c2.451-3.311 5.951-5.784 10-6.916v-2.8A21.325 21.325 0 0 0 139.621 75a21.622 21.622 0 0 0-6.817 6.039 36.725 36.725 0 0 0-4.742-2.62 27.187 27.187 0 0 1 2.813-3.42c3.754-3.876 8.641-6.62 14.125-7.67V64.57c-7.1 1.229-13.338 5.03-17.741 10.43h.013a29.715 29.715 0 0 0-1.741 2.361 35.464 35.464 0 0 0-5.37-1.56l.495-.801c5.323-8.449 14.123-14.436 24.344-15.925v-5.025c-.17.448-.282.921-.33 1.407a39.047 39.047 0 0 0-3.737-5.239A10.775 10.775 0 0 1 145 46.4v-2.992a13.432 13.432 0 0 0-5.942 4.763A36.405 36.405 0 0 0 135 44.6c2.451-3.311 5.951-5.784 10-6.916v-2.8A21.325 21.325 0 0 0 139.621 37a21.622 21.622 0 0 0-6.817 6.039 36.725 36.725 0 0 0-4.742-2.62 27.187 27.187 0 0 1 2.813-3.42c3.754-3.876 8.641-6.62 14.125-7.67V26.57c-7.1 1.229-13.338 5.03-17.741 10.43h.013a29.715 29.715 0 0 0-1.741 2.361 35.464 35.464 0 0 0-5.37-1.56Zm-55.54-.8A21.188 21.188 0 0 1 75 34.286c3.763 0 7.313.991 10.38 2.715 2.678 1.492 4.995 3.569 6.83 6.039 1.5-.977 3.08-1.86 4.728-2.62A27.192 27.192 0 0 0 94.124 37C89.263 31.98 82.5 28.859 75 28.859S60.737 31.979 55.875 37a27.192 27.192 0 0 0-2.813 3.42 36.721 36.721 0 0 1 4.742 2.619A21.625 21.625 0 0 1 64.62 37ZM75 37h.027c2.902.002 5.764.688 8.36 2.003A18.785 18.785 0 0 1 90 44.6a36.396 36.396 0 0 0-4.058 3.569 13.434 13.434 0 0 0-4.78-4.223c-1.904-.999-4.018-1.52-6.162-1.518a13.237 13.237 0 0 0-6.162 1.518 13.434 13.434 0 0 0-4.78 4.223A36.396 36.396 0 0 0 60 44.6c3.415-4.614 8.866-7.6 15-7.6Zm0-10.857c9.147 0 17.33 4.22 22.728 10.857h.013c.603.76 1.179 1.547 1.728 2.361a36.24 36.24 0 0 1 5.357-1.56 9.663 9.663 0 0 0-.482-.801A34.988 34.988 0 0 0 91.73 25.049 34.433 34.433 0 0 0 75 20.715c-12.321 0-23.17 6.487-29.344 16.286l-.495.8c1.848.38 3.643.91 5.37 1.561a29.642 29.642 0 0 1 1.741-2.361h-.013C57.669 30.364 65.853 26.144 75 26.144Zm34.821 10.952V37c0-.72.283-1.41.785-1.92a2.661 2.661 0 0 1 1.894-.795c.71 0 1.392.286 1.894.795.502.51.785 1.2.785 1.92v.095a37.545 37.545 0 0 0-5.358 0Zm-32.142 95a35.007 35.007 0 0 0-2.679-.095 36.832 36.832 0 0 0-2.679.095 2.743 2.743 0 0 1 .751-1.981 2.662 2.662 0 0 1 1.928-.829c.71 0 1.392.286 1.894.795.502.509.785 1.2.785 1.92v.095Zm.915-4.121A5.317 5.317 0 0 0 75 126.572c-1.328 0-2.609.5-3.594 1.403a5.455 5.455 0 0 0-1.736 3.483 38.946 38.946 0 0 0-3.737-5.239 10.776 10.776 0 0 1 3.888-3.722 10.606 10.606 0 0 1 10.366-.003 10.783 10.783 0 0 1 3.893 3.725 38.135 38.135 0 0 0-3.75 5.239 5.455 5.455 0 0 0-1.736-3.483Zm2.568-8.028A13.247 13.247 0 0 0 75 118.429a13.247 13.247 0 0 0-6.162 1.518 13.438 13.438 0 0 0-4.78 4.223A36.353 36.353 0 0 0 60 120.601c3.415-4.615 8.866-7.6 15-7.6h.027c2.902.002 5.764.687 8.36 2.003A18.775 18.775 0 0 1 90 120.601a36.353 36.353 0 0 0-4.058 3.569 13.438 13.438 0 0 0-4.78-4.223Zm11.048-.907c-1.835-2.47-4.152-4.546-6.83-6.039A21.146 21.146 0 0 0 75 110.286c-3.763 0-7.3.991-10.38 2.715a21.613 21.613 0 0 0-6.816 6.039 36.683 36.683 0 0 0-4.742-2.619 27.15 27.15 0 0 1 2.813-3.42c4.862-5.022 11.625-8.143 19.125-8.143s14.263 3.121 19.125 8.143a27.15 27.15 0 0 1 2.813 3.42 37.326 37.326 0 0 0-4.728 2.619Zm5.531-6.039h-.013c-5.398-6.637-13.58-10.857-22.728-10.857-9.147 0-17.33 4.22-22.741 10.857h.013a29.69 29.69 0 0 0-1.74 2.361 35.53 35.53 0 0 0-5.371-1.561l.495-.8C51.83 103.202 62.68 96.715 75 96.715a34.437 34.437 0 0 1 16.73 4.334 34.991 34.991 0 0 1 12.614 11.952c.174.258.335.529.482.8a36.29 36.29 0 0 0-5.357 1.561 38.022 38.022 0 0 0-1.728-2.361Zm12.08.095v-.095c0-.72.283-1.411.785-1.92a2.661 2.661 0 0 1 1.894-.795c.71 0 1.392.286 1.894.795.502.509.785 1.2.785 1.92v.095a37.428 37.428 0 0 0-5.358 0ZM75 94.001c.897 0 1.795.027 2.679.095V94c0-.72-.283-1.41-.785-1.92a2.66 2.66 0 0 0-2.941-.58 2.718 2.718 0 0 0-1.455 1.526c-.13.341-.19.704-.177 1.069A37.523 37.523 0 0 1 75 94Zm0-5.429c1.328 0 2.609.5 3.594 1.403a5.455 5.455 0 0 1 1.736 3.483 38.106 38.106 0 0 1 3.75-5.239 10.776 10.776 0 0 0-3.893-3.725 10.604 10.604 0 0 0-10.366.003 10.775 10.775 0 0 0-3.888 3.722 38.928 38.928 0 0 1 3.737 5.239 5.455 5.455 0 0 1 1.736-3.483A5.318 5.318 0 0 1 75 88.572Zm0-8.143a13.237 13.237 0 0 1 6.162 1.518c1.904 1 3.544 2.448 4.78 4.223A36.396 36.396 0 0 1 90 82.6a18.785 18.785 0 0 0-6.613-5.596A18.523 18.523 0 0 0 75.027 75H75c-6.134 0-11.585 2.985-15 7.6a36.396 36.396 0 0 1 4.058 3.569 13.434 13.434 0 0 1 4.78-4.223c1.904-.999 4.018-1.52 6.162-1.518Zm10.38-5.428c2.678 1.492 4.995 3.569 6.83 6.039 1.5-.977 3.08-1.86 4.728-2.62A27.192 27.192 0 0 0 94.124 75C89.263 69.98 82.5 66.859 75 66.859S60.737 69.979 55.875 75a27.192 27.192 0 0 0-2.813 3.42 36.721 36.721 0 0 1 4.742 2.619A21.625 21.625 0 0 1 64.62 75 21.188 21.188 0 0 1 75 72.287c3.763 0 7.313.991 10.38 2.715Zm12.348 0h.013c.603.76 1.179 1.547 1.728 2.361a36.24 36.24 0 0 1 5.357-1.56 9.663 9.663 0 0 0-.482-.801A34.988 34.988 0 0 0 91.73 63.049 34.433 34.433 0 0 0 75 58.715c-12.321 0-23.17 6.487-29.344 16.286l-.495.8c1.848.38 3.643.91 5.37 1.561a29.642 29.642 0 0 1 1.741-2.361h-.013C57.669 68.364 65.853 64.143 75 64.143s17.33 4.221 22.728 10.858Zm12.093 0v.095a37.545 37.545 0 0 1 5.358 0V75c0-.72-.283-1.41-.785-1.92a2.661 2.661 0 0 0-1.894-.795c-.71 0-1.392.286-1.894.795a2.735 2.735 0 0 0-.785 1.92ZM77.679 56.096A35.058 35.058 0 0 0 75 56c-.894 0-1.787.031-2.679.095a2.746 2.746 0 0 1 .751-1.981 2.649 2.649 0 0 1 3.822-.033c.502.508.785 1.199.785 1.919v.095Zm.915-4.121A5.318 5.318 0 0 0 75 50.572c-1.328 0-2.609.5-3.594 1.403a5.455 5.455 0 0 0-1.736 3.483 38.928 38.928 0 0 0-3.737-5.239 10.775 10.775 0 0 1 3.888-3.722 10.603 10.603 0 0 1 10.366-.003 10.776 10.776 0 0 1 3.893 3.725 38.106 38.106 0 0 0-3.75 5.239 5.455 5.455 0 0 0-1.736-3.483ZM75 18c.897 0 1.795.027 2.679.095V18c0-.72-.283-1.41-.785-1.92a2.66 2.66 0 0 0-2.941-.58 2.718 2.718 0 0 0-1.455 1.526c-.13.341-.19.704-.177 1.069A37.523 37.523 0 0 1 75 18Zm0-5.429c1.328 0 2.609.5 3.594 1.403a5.455 5.455 0 0 1 1.736 3.483 38.106 38.106 0 0 1 3.75-5.239 10.775 10.775 0 0 0-3.893-3.725 10.604 10.604 0 0 0-10.366.003 10.775 10.775 0 0 0-3.888 3.722 38.928 38.928 0 0 1 3.737 5.239 5.455 5.455 0 0 1 1.736-3.483A5.318 5.318 0 0 1 75 12.572ZM34.821 113.096v-.095c0-.72.283-1.411.785-1.92a2.66 2.66 0 0 1 1.894-.795c.71 0 1.392.286 1.894.795.502.509.785 1.2.785 1.92v.095a37.417 37.417 0 0 0-5.358 0Zm0-38.095v.095a37.534 37.534 0 0 1 5.358 0V75c0-.72-.283-1.41-.785-1.92a2.66 2.66 0 0 0-1.894-.795 2.66 2.66 0 0 0-1.894.795 2.732 2.732 0 0 0-.785 1.92Zm0-37.905V37c0-.72.283-1.41.785-1.92a2.66 2.66 0 0 1 1.894-.795c.71 0 1.392.286 1.894.795.502.51.785 1.2.785 1.92v.095a37.534 37.534 0 0 0-5.358 0Zm8.01-.638a38.106 38.106 0 0 1 3.75-5.239 10.776 10.776 0 0 0-3.89-3.728 10.603 10.603 0 0 0-5.184-1.355c-1.814 0-3.597.466-5.184 1.355a10.776 10.776 0 0 0-3.89 3.728 38.928 38.928 0 0 1 3.737 5.239 5.454 5.454 0 0 1 1.736-3.484 5.318 5.318 0 0 1 3.594-1.403c1.328 0 2.609.5 3.594 1.403a5.454 5.454 0 0 1 1.736 3.484ZM54.695 24.04a37.469 37.469 0 0 1 4.742-2.62 26.872 26.872 0 0 0-9.568-8.517A26.476 26.476 0 0 0 37.5 9.832c-4.307 0-8.55 1.054-12.37 3.071a26.872 26.872 0 0 0-9.567 8.518 36.721 36.721 0 0 1 4.74 2.619 21.474 21.474 0 0 1 7.57-6.459 21.173 21.173 0 0 1 9.627-2.318c3.344 0 6.64.794 9.627 2.318a21.474 21.474 0 0 1 7.57 6.459Zm-6.254 5.13A36.396 36.396 0 0 1 52.5 25.6a18.786 18.786 0 0 0-6.61-5.606 18.523 18.523 0 0 0-8.39-2.011c-2.913 0-5.785.688-8.39 2.01a18.786 18.786 0 0 0-6.61 5.608 36.396 36.396 0 0 1 4.058 3.569 13.435 13.435 0 0 1 4.778-4.231 13.238 13.238 0 0 1 6.164-1.525c2.146 0 4.26.523 6.164 1.525a13.435 13.435 0 0 1 4.778 4.231ZM42.83 74.458a38.106 38.106 0 0 1 3.75-5.239 10.776 10.776 0 0 0-3.89-3.728 10.603 10.603 0 0 0-5.183-1.355c-1.814 0-3.597.466-5.184 1.355a10.776 10.776 0 0 0-3.89 3.728 38.928 38.928 0 0 1 3.737 5.239 5.454 5.454 0 0 1 1.736-3.484 5.318 5.318 0 0 1 3.594-1.403c1.328 0 2.609.5 3.594 1.403a5.454 5.454 0 0 1 1.736 3.484ZM61.97 58.362a36.239 36.239 0 0 1 5.357-1.56A35.026 35.026 0 0 0 54.63 44.272a34.452 34.452 0 0 0-17.138-4.571 34.452 34.452 0 0 0-17.137 4.571A35.026 35.026 0 0 0 7.661 56.801c1.848.38 3.643.91 5.37 1.561a29.58 29.58 0 0 1 10.598-9.727A29.129 29.129 0 0 1 37.5 45.116c4.839 0 9.603 1.209 13.87 3.52a29.58 29.58 0 0 1 10.599 9.726Zm-7.273 3.678a37.469 37.469 0 0 1 4.742-2.62 26.872 26.872 0 0 0-9.568-8.517 26.475 26.475 0 0 0-12.37-3.071c-4.307 0-8.55 1.053-12.37 3.071a26.872 26.872 0 0 0-9.567 8.518 36.721 36.721 0 0 1 4.74 2.619 21.474 21.474 0 0 1 7.57-6.459 21.173 21.173 0 0 1 9.627-2.318c3.344 0 6.64.794 9.627 2.318a21.474 21.474 0 0 1 7.57 6.459Zm-6.254 5.13A36.396 36.396 0 0 1 52.5 63.6a18.786 18.786 0 0 0-6.61-5.606 18.523 18.523 0 0 0-8.39-2.011c-2.913 0-5.785.688-8.39 2.01a18.786 18.786 0 0 0-6.61 5.608 36.396 36.396 0 0 1 4.058 3.569 13.435 13.435 0 0 1 4.778-4.231 13.238 13.238 0 0 1 6.164-1.525c2.146 0 4.26.523 6.164 1.525a13.435 13.435 0 0 1 4.778 4.231Zm-1.862 40.049a38.135 38.135 0 0 0-3.75 5.239 5.456 5.456 0 0 0-1.736-3.484 5.317 5.317 0 0 0-3.594-1.403c-1.328 0-2.609.5-3.594 1.403a5.456 5.456 0 0 0-1.736 3.484 38.946 38.946 0 0 0-3.737-5.239 10.777 10.777 0 0 1 3.89-3.728 10.604 10.604 0 0 1 10.368 0 10.777 10.777 0 0 1 3.89 3.728Zm20.746-12.418c-1.835.38-3.616.91-5.357 1.561a29.58 29.58 0 0 0-10.598-9.727A29.129 29.129 0 0 0 37.5 83.116a29.129 29.129 0 0 0-13.87 3.52 29.58 29.58 0 0 0-10.599 9.726 35.483 35.483 0 0 0-5.37-1.56 35.026 35.026 0 0 1 12.695-12.529 34.452 34.452 0 0 1 17.137-4.571c6.006 0 11.91 1.575 17.137 4.571a35.026 35.026 0 0 1 12.696 12.528Zm-7.888 2.62a37.469 37.469 0 0 0-4.742 2.619 21.474 21.474 0 0 0-7.569-6.459 21.173 21.173 0 0 0-9.627-2.318c-3.344 0-6.64.794-9.627 2.318a21.474 21.474 0 0 0-7.57 6.459 36.721 36.721 0 0 0-4.74-2.62 26.872 26.872 0 0 1 9.567-8.517 26.476 26.476 0 0 1 12.37-3.071c4.307 0 8.55 1.054 12.37 3.071a26.872 26.872 0 0 1 9.568 8.518ZM52.5 101.6a36.353 36.353 0 0 0-4.058 3.569 13.44 13.44 0 0 0-4.778-4.231 13.238 13.238 0 0 0-6.164-1.525c-2.146 0-4.26.523-6.164 1.525a13.44 13.44 0 0 0-4.778 4.231 36.353 36.353 0 0 0-4.058-3.569 18.784 18.784 0 0 1 6.61-5.607 18.523 18.523 0 0 1 8.39-2.011c2.913 0 5.785.688 8.39 2.01a18.784 18.784 0 0 1 6.61 5.608Zm9.469 32.761a36.288 36.288 0 0 1 5.357-1.561 35.023 35.023 0 0 0-12.695-12.528 34.456 34.456 0 0 0-17.138-4.571 34.456 34.456 0 0 0-17.137 4.571 35.023 35.023 0 0 0-12.695 12.528c1.848.38 3.643.91 5.37 1.561a29.592 29.592 0 0 1 10.598-9.727 29.134 29.134 0 0 1 13.871-3.519c4.839 0 9.603 1.209 13.87 3.519a29.592 29.592 0 0 1 10.599 9.727Zm-7.273 3.678a37.492 37.492 0 0 1 4.742-2.619 26.878 26.878 0 0 0-9.568-8.518 26.482 26.482 0 0 0-12.37-3.071c-4.307 0-8.55 1.054-12.37 3.071a26.878 26.878 0 0 0-9.567 8.518 36.683 36.683 0 0 1 4.74 2.619 21.47 21.47 0 0 1 7.57-6.459 21.175 21.175 0 0 1 9.627-2.318c3.344 0 6.64.794 9.627 2.318a21.47 21.47 0 0 1 7.57 6.459Zm-6.254 5.13a36.353 36.353 0 0 1 4.058-3.569 18.777 18.777 0 0 0-6.61-5.607 18.516 18.516 0 0 0-8.39-2.011c-2.913 0-5.785.688-8.39 2.011a18.777 18.777 0 0 0-6.61 5.607 36.353 36.353 0 0 1 4.058 3.569 13.44 13.44 0 0 1 4.778-4.231 13.235 13.235 0 0 1 6.164-1.525c2.146 0 4.26.523 6.164 1.525a13.44 13.44 0 0 1 4.778 4.231ZM121.58 31.22a38.2 38.2 0 0 0-3.75 5.238 5.45 5.45 0 0 0-1.736-3.484 5.318 5.318 0 0 0-3.594-1.403c-1.328 0-2.609.5-3.594 1.403a5.45 5.45 0 0 0-1.736 3.484 39.047 39.047 0 0 0-3.737-5.239 10.773 10.773 0 0 1 3.89-3.728 10.602 10.602 0 0 1 5.184-1.355c1.813 0 3.597.466 5.184 1.355a10.77 10.77 0 0 1 3.889 3.728Zm12.858-9.8a37.5 37.5 0 0 0-4.742 2.62 21.464 21.464 0 0 0-7.569-6.459 21.17 21.17 0 0 0-9.627-2.318 21.17 21.17 0 0 0-9.627 2.318 21.473 21.473 0 0 0-7.57 6.459 36.721 36.721 0 0 0-4.74-2.62 26.874 26.874 0 0 1 9.567-8.517 26.48 26.48 0 0 1 12.37-3.071 26.48 26.48 0 0 1 12.37 3.071 26.882 26.882 0 0 1 9.568 8.518ZM127.5 25.6a36.405 36.405 0 0 0-4.058 3.57 13.431 13.431 0 0 0-4.778-4.231 13.235 13.235 0 0 0-6.164-1.525c-2.146 0-4.26.523-6.164 1.525a13.431 13.431 0 0 0-4.778 4.231A36.405 36.405 0 0 0 97.5 25.6a18.786 18.786 0 0 1 6.611-5.606 18.52 18.52 0 0 1 8.389-2.011c2.913 0 5.785.688 8.389 2.01a18.785 18.785 0 0 1 6.611 5.608Zm-9.67 48.858a38.2 38.2 0 0 1 3.75-5.239 10.77 10.77 0 0 0-3.889-3.728 10.605 10.605 0 0 0-5.184-1.355c-1.814 0-3.597.466-5.184 1.355a10.773 10.773 0 0 0-3.89 3.728 39.047 39.047 0 0 1 3.737 5.239 5.45 5.45 0 0 1 1.736-3.484 5.318 5.318 0 0 1 3.594-1.403c1.328 0 2.609.5 3.594 1.403a5.45 5.45 0 0 1 1.736 3.484Zm19.139-16.096a36.23 36.23 0 0 1 5.357-1.56 35.021 35.021 0 0 0-12.696-12.529 34.45 34.45 0 0 0-17.137-4.571 34.452 34.452 0 0 0-17.137 4.571 35.026 35.026 0 0 0-12.695 12.528c1.848.38 3.643.91 5.37 1.561a29.58 29.58 0 0 1 10.598-9.727 29.128 29.128 0 0 1 13.871-3.519 29.13 29.13 0 0 1 13.871 3.52 29.577 29.577 0 0 1 10.598 9.726Zm-7.273 3.678a37.5 37.5 0 0 1 4.742-2.62 26.882 26.882 0 0 0-9.568-8.517 26.479 26.479 0 0 0-12.37-3.071c-4.307 0-8.55 1.053-12.37 3.071a26.874 26.874 0 0 0-9.567 8.518 36.721 36.721 0 0 1 4.74 2.619 21.473 21.473 0 0 1 7.57-6.459 21.17 21.17 0 0 1 9.627-2.318c3.344 0 6.641.794 9.627 2.318a21.464 21.464 0 0 1 7.569 6.459Zm-6.254 5.13a36.405 36.405 0 0 1 4.058-3.57 18.785 18.785 0 0 0-6.611-5.606 18.52 18.52 0 0 0-8.389-2.011 18.52 18.52 0 0 0-8.389 2.01 18.786 18.786 0 0 0-6.611 5.608 36.405 36.405 0 0 1 4.058 3.569 13.431 13.431 0 0 1 4.778-4.231 13.235 13.235 0 0 1 6.164-1.525c2.146 0 4.26.523 6.164 1.525a13.431 13.431 0 0 1 4.778 4.231Zm-1.862 40.049a38.23 38.23 0 0 0-3.75 5.239 5.452 5.452 0 0 0-1.736-3.484 5.318 5.318 0 0 0-3.594-1.403c-1.328 0-2.609.5-3.594 1.403a5.452 5.452 0 0 0-1.736 3.484 39.065 39.065 0 0 0-3.737-5.239 10.774 10.774 0 0 1 3.89-3.728 10.602 10.602 0 0 1 10.368 0 10.771 10.771 0 0 1 3.889 3.728Zm20.746-12.418a36.23 36.23 0 0 0-5.357 1.561 29.577 29.577 0 0 0-10.598-9.727 29.13 29.13 0 0 0-13.871-3.519 29.128 29.128 0 0 0-13.87 3.52 29.58 29.58 0 0 0-10.599 9.726 35.484 35.484 0 0 0-5.37-1.56 35.026 35.026 0 0 1 12.695-12.529 34.452 34.452 0 0 1 17.137-4.571 34.45 34.45 0 0 1 17.137 4.571 35.021 35.021 0 0 1 12.696 12.528Zm-7.888 2.62a37.5 37.5 0 0 0-4.742 2.619 21.464 21.464 0 0 0-7.569-6.459 21.17 21.17 0 0 0-9.627-2.318 21.17 21.17 0 0 0-9.627 2.318 21.473 21.473 0 0 0-7.57 6.459 36.721 36.721 0 0 0-4.74-2.62 26.873 26.873 0 0 1 9.567-8.517 26.48 26.48 0 0 1 12.37-3.071 26.48 26.48 0 0 1 12.37 3.071 26.88 26.88 0 0 1 9.568 8.518Zm-6.938 4.18a36.362 36.362 0 0 0-4.058 3.569 13.436 13.436 0 0 0-4.778-4.231 13.235 13.235 0 0 0-6.164-1.525c-2.146 0-4.26.523-6.164 1.525a13.436 13.436 0 0 0-4.778 4.231 36.362 36.362 0 0 0-4.058-3.569 18.784 18.784 0 0 1 6.611-5.607 18.52 18.52 0 0 1 8.389-2.011c2.913 0 5.785.688 8.389 2.01a18.782 18.782 0 0 1 6.611 5.608Zm9.469 32.761a36.28 36.28 0 0 1 5.357-1.561 35.018 35.018 0 0 0-12.696-12.528 34.454 34.454 0 0 0-17.137-4.571 34.456 34.456 0 0 0-17.137 4.571 35.023 35.023 0 0 0-12.695 12.528c1.848.38 3.643.91 5.37 1.561a29.592 29.592 0 0 1 10.598-9.727 29.132 29.132 0 0 1 13.871-3.519c4.839 0 9.603 1.209 13.871 3.519a29.59 29.59 0 0 1 10.598 9.727Zm-7.273 3.678a37.524 37.524 0 0 1 4.742-2.619 26.887 26.887 0 0 0-9.568-8.518 26.486 26.486 0 0 0-12.37-3.071c-4.307 0-8.55 1.054-12.37 3.071a26.88 26.88 0 0 0-9.567 8.518 36.683 36.683 0 0 1 4.74 2.619 21.467 21.467 0 0 1 7.57-6.459 21.172 21.172 0 0 1 9.627-2.318c3.344 0 6.641.794 9.627 2.318a21.458 21.458 0 0 1 7.569 6.459Zm-6.254 5.13a36.362 36.362 0 0 1 4.058-3.569 18.775 18.775 0 0 0-6.611-5.607 18.514 18.514 0 0 0-16.778 0 18.777 18.777 0 0 0-6.611 5.607 36.362 36.362 0 0 1 4.058 3.569 13.436 13.436 0 0 1 4.778-4.231 13.232 13.232 0 0 1 6.164-1.525c2.146 0 4.26.523 6.164 1.525a13.436 13.436 0 0 1 4.778 4.231Z"
    clip-rule="evenodd" />
  <path fill="#3FC0F7"
    d="M143.401 140.894a29.124 29.124 0 0 0-9.526 4.106h1.792a9.323 9.323 0 0 0 7.734-4.106ZM91.116 145a29.06 29.06 0 0 0-16.119-4.856A29.081 29.081 0 0 0 58.875 145h5.677a26.376 26.376 0 0 1 10.445-2.142c3.71 0 7.238.763 10.446 2.142h5.673ZM16.119 145a29.074 29.074 0 0 0-9.52-4.105A9.323 9.323 0 0 0 14.333 145h1.786Z" />
  <path fill="#136CC3" fill-rule="evenodd"
    d="M4 14.333A10.33 10.33 0 0 1 14.333 4h121.334C141.375 4 146 8.624 146 14.333v121.334c0 5.708-4.625 10.333-10.333 10.333H14.333C8.624 146 4 141.375 4 135.667V14.333ZM14.333 6A8.33 8.33 0 0 0 6 14.333v121.334A8.33 8.33 0 0 0 14.333 144h121.334a8.33 8.33 0 0 0 8.333-8.333V14.333A8.33 8.33 0 0 0 135.667 6H14.333Z"
    clip-rule="evenodd" />
</svg>