<svg xmlns="http://www.w3.org/2000/svg" fill="none" viewBox="0 0 150 150">
  <path fill="#FFCC32"
    d="M135.667 5H14.333A9.33 9.33 0 0 0 5 14.333v121.334A9.33 9.33 0 0 0 14.333 145h121.334a9.331 9.331 0 0 0 9.333-9.333V14.333A9.33 9.33 0 0 0 135.667 5Z" />
  <path fill="#FFF132" d="M18.317 5h-2.635v13.202L5 24.394v3.053l13.317-7.724V5Z" />
  <path fill="#FFF132" fill-rule="evenodd"
    d="M5 53.225v-22.7l14.645-8.488 17.127 9.919v19.838l-17.127 9.919L5 53.225Zm.166-2.952V33.477l14.479-8.385 14.492 8.385V50.26l-14.492 8.398-14.479-8.385Z"
    clip-rule="evenodd" />
  <path fill="#FFF132" d="M5 59.356v-3.053l13.317 7.724v20.5L5 92.25v-3.054l10.682-6.191V65.548L5 59.356Z" />
  <path fill="#FFF132" fill-rule="evenodd"
    d="M5 118.029v-22.7l14.645-8.488 17.127 9.919v19.838l-17.127 9.919L5 118.029Zm.166-2.952V98.281l14.479-8.385 14.492 8.385v16.783l-14.492 8.398-14.479-8.385Z"
    clip-rule="evenodd" />
  <path fill="#FFF132"
    d="M5 124.16v-3.053l13.317 7.724V145h-2.635v-14.648L5 124.16ZM23.611 145h-2.634v-16.169l17.113-9.919h.013l17.1 9.919V145H52.57v-14.648l-14.466-8.385h-.013l-14.479 8.385V145ZM60.502 145h-2.635v-16.169l17.114-9.919h.013l17.1 9.919V145H89.46v-14.648l-14.465-8.385h-.013l-14.479 8.385V145ZM97.393 145h-2.635v-16.169l17.113-9.919h.013l17.101 9.919V145h-2.635v-14.648l-14.466-8.385h-.013l-14.478 8.385V145ZM134.276 145h-2.635v-16.169L145 121.088v3.053l-10.724 6.211V145Z" />
  <path fill="#FFF132" fill-rule="evenodd"
    d="M145 95.35v22.658l-14.692 8.509-17.113-9.919V96.76l17.113-9.92L145 95.35Zm-29.17 19.727V98.281l14.478-8.385L144.8 98.28v16.783l-14.492 8.398-14.478-8.385Z"
    clip-rule="evenodd" />
  <path fill="#FFF132" d="M145 89.216v3.053l-13.359-7.743V64.028L145 56.285v3.053l-10.724 6.21v17.458L145 89.216Z" />
  <path fill="#FFF132" fill-rule="evenodd"
    d="M145 30.546v22.658l-14.692 8.509-17.113-9.92V31.957l17.113-9.919L145 30.546Zm-29.17 2.931v16.796l14.478 8.385L144.8 50.26V33.477l-14.492-8.385-14.478 8.385Z"
    clip-rule="evenodd" />
  <path fill="#FFF132"
    d="M145 24.412v3.054l-13.359-7.743V5h2.635v13.202L145 24.412ZM126.35 5h2.635v14.723l-17.101 9.919h-.013l-17.113-9.92V5h2.635v13.202l14.478 8.385h.013l14.466-8.385V5ZM89.46 5h2.634v14.723l-17.1 9.919h-.013l-17.114-9.92V5h2.635v13.202l14.479 8.385h.013l14.465-8.385V5ZM52.569 5h2.635v14.723l-17.1 9.919h-.014l-17.113-9.92V5h2.634v13.202l14.48 8.385h.012l14.466-8.385V5Z" />
  <path fill="#FFF132" fill-rule="evenodd"
    d="M20.977 64.027v20.5l17.113 9.918h.013l17.1-9.918v-20.5l-17.1-9.919h-.013l-17.113 9.92Zm31.592 1.521v17.458L38.103 91.39h-.013l-14.479-8.384V65.548l14.48-8.385h.012l14.466 8.385ZM56.535 22.037l17.127 9.919v19.838l-17.127 9.919-17.113-9.92V31.957l17.114-9.919Zm-14.478 11.44v16.796l14.478 8.385 14.492-8.398V33.477l-14.492-8.385-14.478 8.385ZM57.867 64.027l17.114-9.919h.013l17.1 9.92v20.498l-17.1 9.92h-.013l-17.114-9.92V64.028Zm31.592 1.521-14.465-8.385h-.013l-14.479 8.385v17.458l14.479 8.384h.013l14.465-8.384V65.548ZM110.553 31.956l-17.127-9.919-17.114 9.919v19.838l17.114 9.919 17.127-9.92V31.957ZM78.947 50.273V33.477l14.479-8.385 14.492 8.385V50.26l-14.492 8.398-14.479-8.385ZM94.758 64.027v20.5l17.113 9.918h.013l17.101-9.918v-20.5l-17.101-9.919h-.013l-17.113 9.92Zm31.592 1.521v17.458l-14.466 8.384h-.013l-14.478-8.384V65.548l14.478-8.385h.013l14.466 8.385ZM73.662 96.76l-17.127-9.92-17.113 9.92v19.838l17.114 9.919 17.126-9.919V96.76Zm-31.605 18.317V98.281l14.478-8.385 14.492 8.385v16.783l-14.492 8.398-14.478-8.385ZM110.553 96.76l-17.127-9.92-17.114 9.92v19.838l17.114 9.919 17.127-9.919V96.76Zm-31.606 18.317V98.281l14.479-8.385 14.492 8.385v16.783l-14.492 8.398-14.479-8.385Z"
    clip-rule="evenodd" />
  <path fill="#D2A008" fill-rule="evenodd"
    d="M4 14.333A10.33 10.33 0 0 1 14.333 4h121.334C141.375 4 146 8.624 146 14.333v121.334c0 5.708-4.625 10.333-10.333 10.333H14.333C8.624 146 4 141.375 4 135.667V14.333ZM14.333 6A8.33 8.33 0 0 0 6 14.333v121.334A8.33 8.33 0 0 0 14.333 144h121.334a8.33 8.33 0 0 0 8.333-8.333V14.333A8.33 8.33 0 0 0 135.667 6H14.333Z"
    clip-rule="evenodd" />
</svg>