<svg width="150" height="150" viewBox="0 0 150 150" fill="none" xmlns="http://www.w3.org/2000/svg">
<mask id="mask0_1449_16495" style="mask-type:alpha" maskUnits="userSpaceOnUse" x="5" y="5" width="140" height="140">
<path d="M135.667 5H14.3333C9.17667 5 5 9.17667 5 14.3333V135.667C5 140.823 9.17667 145 14.3333 145H135.667C140.823 145 145 140.823 145 135.667V14.3333C145 9.17667 140.823 5 135.667 5Z" fill="#689F38"/>
</mask>
<g mask="url(#mask0_1449_16495)">
<rect x="-5" y="-5" width="150" height="150" fill="#22C55E"/>
<path d="M63.667 -5H71.5137L145 68.67V76.5363L63.667 -5Z" fill="#0B8F40"/>
<path d="M42.9803 -5H50.827L145 89.4084V97.2747L42.9803 -5Z" fill="#0B8F40"/>
<path d="M22.2937 -5H30.1403L145 110.147V118.013L22.2937 -5Z" fill="#0B8F40"/>
<path d="M1.607 -5H9.45366L145 130.885V138.751L1.607 -5Z" fill="#0B8F40"/>
<path d="M-5 9.11486V1.24858L138.393 145H130.546L-5 9.11486Z" fill="#0B8F40"/>
<path d="M-5 29.8532V21.987L117.706 145H109.86L-5 29.8532Z" fill="#0B8F40"/>
<path d="M-5 50.5916V42.7253L97.0197 145H89.173L-5 50.5916Z" fill="#0B8F40"/>
<path d="M-5 71.33V63.4637L76.333 145H68.4863L-5 71.33Z" fill="#0B8F40"/>
<path d="M-5 92.0683V84.2021L55.6464 145H47.7997L-5 92.0683Z" fill="#0B8F40"/>
<path d="M-5 112.807V104.94L34.9597 145H27.113L-5 112.807Z" fill="#0B8F40"/>
<path d="M-5 133.545V125.679L14.273 145H6.42635L-5 133.545Z" fill="#0B8F40"/>
<path d="M145 55.7979L84.3537 -5H92.2003L145 47.9316V55.7979Z" fill="#0B8F40"/>
<path d="M145 35.0595L105.04 -5H112.887L145 27.1933V35.0595Z" fill="#0B8F40"/>
<path d="M145 14.3212L125.727 -5H133.574L145 6.4549V14.3212Z" fill="#0B8F40"/>
</g>
<path d="M135.667 5H14.3333C9.17667 5 5 9.17667 5 14.3333V135.667C5 140.823 9.17667 145 14.3333 145H135.667C140.823 145 145 140.823 145 135.667V14.3333C145 9.17667 140.823 5 135.667 5Z" stroke="#15853E" stroke-width="2"/>
</svg>
