<svg xmlns="http://www.w3.org/2000/svg" fill="none" viewBox="0 0 150 150">
  <path fill="#22C55E"
    d="M135.667 5H14.333A9.33 9.33 0 0 0 5 14.333v121.334A9.33 9.33 0 0 0 14.333 145h121.334a9.331 9.331 0 0 0 9.333-9.333V14.333A9.33 9.33 0 0 0 135.667 5Z" />
  <path fill="#0B8F40"
    d="M19.431 5h-5.098c-.84 0-1.655.111-2.43.32l132.704 133.035a9.315 9.315 0 0 0 .393-2.688v-4.784L19.431 5ZM145 110.144v7.866L32.272 5h7.846L145 110.144ZM135.702 5A9.331 9.331 0 0 1 145 14.243v.078l-9.298-9.32ZM115.014 5h7.847l22.138 22.193v7.866L115.014 5ZM94.327 5h7.846l42.825 42.932v7.866L94.327 5ZM73.64 5h7.846l63.511 63.67v7.866L73.639 5ZM52.952 5h7.846l84.198 84.408v7.867L52.952 5ZM138.079 144.686 5.387 11.662A9.341 9.341 0 0 0 5 14.333v4.807L130.546 145h5.121c.834 0 1.643-.109 2.412-.314ZM117.706 145 5 32.012v7.867L109.86 145h7.846ZM97.02 145 5 52.75v7.867L89.173 145h7.846ZM76.333 145 5 73.489v7.866L68.486 145h7.847ZM55.646 145 5 94.227v7.866L47.8 145h7.846ZM34.96 145 5 114.966v7.866L27.113 145h7.846ZM14.259 145h.014L5 135.704A9.331 9.331 0 0 0 14.26 145Z" />
  <path fill="#15853E" fill-rule="evenodd"
    d="M4 14.333A10.33 10.33 0 0 1 14.333 4h121.334C141.375 4 146 8.624 146 14.333v121.334c0 5.708-4.625 10.333-10.333 10.333H14.333C8.624 146 4 141.375 4 135.667V14.333ZM14.333 6A8.33 8.33 0 0 0 6 14.333v121.334A8.33 8.33 0 0 0 14.333 144h121.334a8.33 8.33 0 0 0 8.333-8.333V14.333A8.33 8.33 0 0 0 135.667 6H14.333Z"
    clip-rule="evenodd" />
</svg>