<svg xmlns="http://www.w3.org/2000/svg" fill="none" viewBox="0 0 150 150">
  <path fill="#000"
    d="M135.667 5H14.333A9.33 9.33 0 0 0 5 14.333v121.334A9.33 9.33 0 0 0 14.333 145h121.334a9.331 9.331 0 0 0 9.333-9.333V14.333A9.33 9.33 0 0 0 135.667 5Z" />
  <path fill="#484848"
    d="M32 5H20v5h12V5ZM34 5v5h12V5H34ZM60 5H48v5h12V5ZM88 5H76v5h12V5ZM90 5v5h12V5H90ZM116 5h-12v5h12V5ZM130 5h-12v5h12V5ZM132 5v5h11.936a9.329 9.329 0 0 0-8.269-5H132ZM46 145H34v-5h12v5ZM60 145H48v-5h12v5ZM62 145v-5h12v5H62ZM118 145v-5h12v5h-12ZM132 145v-5h11.936a9.33 9.33 0 0 1-8.269 5H132ZM88 145H76v-5h12v5ZM6.064 10a9.33 9.33 0 0 1 8.27-5H18v5H6.064ZM46 20H34v6h12v-6ZM48 12h12v6H48v-6ZM74 12H62v6h12v-6ZM20 28h12v6H20v-6ZM18 12H6v6h12v-6ZM6 28h12v6H6v-6ZM32 36H20v6h12v-6ZM6 36h12v6H6v-6ZM46 36H34v6h12v-6ZM48 28h12v6H48v-6ZM60 20H48v6h12v-6ZM62 28h12v6H62v-6ZM74 36H62v6h12v-6ZM6 20h12v6H6v-6ZM32 12H20v6h12v-6ZM32 52H20v6h12v-6ZM34 44h12v6H34v-6ZM60 44H48v6h12v-6ZM48 52h12v6H48v-6ZM46 52H34v6h12v-6ZM34 68h12v6H34v-6ZM60 60H48v6h12v-6ZM62 60h12v6H62v-6ZM74 44H62v6h12v-6ZM20 76h12v6H20v-6ZM18 60H6v6h12v-6ZM6 76h12v6H6v-6ZM32 84H20v6h12v-6ZM6 84h12v6H6v-6ZM46 84H34v6h12v-6ZM48 76h12v6H48v-6ZM60 68H48v6h12v-6ZM62 76h12v6H62v-6ZM74 84H62v6h12v-6ZM6 68h12v6H6v-6ZM32 60H20v6h12v-6ZM6 52h12v6H6v-6ZM20 100h12v6H20v-6ZM46 92H34v6h12v-6ZM48 92h12v6H48v-6ZM60 100H48v6h12v-6ZM34 100h12v6H34v-6ZM46 116H34v6h12v-6ZM48 108h12v6H48v-6ZM74 108H62v6h12v-6ZM62 92h12v6H62v-6ZM32 124H20v6h12v-6ZM6 108h12v6H6v-6ZM18 124H6v6h12v-6ZM20 132h12v6H20v-6ZM18 132H6v6h12v-6ZM34 132h12v6H34v-6ZM60 124H48v6h12v-6ZM48 116h12v6H48v-6ZM74 124H62v6h12v-6ZM62 132h12v6H62v-6ZM18 116H6v6h12v-6ZM20 108h12v6H20v-6ZM18 100H6v6h12v-6ZM118 20h12v6h-12v-6ZM144 12h-12v6h12v-6ZM104 28h12v6h-12v-6ZM102 12H90v6h12v-6ZM76 20h12v6H76v-6ZM88 28H76v6h12v-6ZM90 28h12v6H90v-6ZM116 36h-12v6h12v-6ZM90 36h12v6H90v-6ZM130 36h-12v6h12v-6ZM132 28h12v6h-12v-6ZM144 20h-12v6h12v-6ZM90 20h12v6H90v-6ZM116 12h-12v6h12v-6ZM88 44H76v6h12v-6ZM104 52h12v6h-12v-6ZM130 44h-12v6h12v-6ZM132 44h12v6h-12v-6ZM144 52h-12v6h12v-6ZM118 52h12v6h-12v-6ZM130 68h-12v6h12v-6ZM132 60h12v6h-12v-6ZM116 76h-12v6h12v-6ZM90 60h12v6H90v-6ZM88 68H76v6h12v-6ZM76 76h12v6H76v-6ZM102 76H90v6h12v-6ZM104 84h12v6h-12v-6ZM102 84H90v6h12v-6ZM118 84h12v6h-12v-6ZM144 76h-12v6h12v-6ZM132 68h12v6h-12v-6ZM102 68H90v6h12v-6ZM104 60h12v6h-12v-6ZM102 52H90v6h12v-6ZM76 52h12v6H76v-6ZM76 92h12v6H76v-6ZM116 100h-12v6h12v-6ZM118 92h12v6h-12v-6ZM144 92h-12v6h12v-6ZM132 100h12v6h-12v-6ZM130 100h-12v6h12v-6ZM118 116h12v6h-12v-6ZM144 108h-12v6h12v-6ZM104 124h12v6h-12v-6ZM102 108H90v6h12v-6ZM76 116h12v6H76v-6ZM88 124H76v6h12v-6ZM90 124h12v6H90v-6ZM116 132h-12v6h12v-6ZM90 132h12v6H90v-6ZM130 132h-12v6h12v-6ZM132 124h12v6h-12v-6ZM144 116h-12v6h12v-6ZM90 116h12v6H90v-6ZM116 108h-12v6h12v-6ZM90 100h12v6H90v-6ZM88 100H76v6h12v-6Z" />
  <path fill="#E2E2E2" fill-rule="evenodd"
    d="M4 14.333A10.33 10.33 0 0 1 14.333 4h121.334C141.375 4 146 8.624 146 14.333v121.334c0 5.708-4.625 10.333-10.333 10.333H14.333C8.624 146 4 141.375 4 135.667V14.333ZM14.333 6A8.33 8.33 0 0 0 6 14.333v121.334A8.33 8.33 0 0 0 14.333 144h121.334a8.33 8.33 0 0 0 8.333-8.333V14.333A8.33 8.33 0 0 0 135.667 6H14.333Z"
    clip-rule="evenodd" />
</svg>