<svg xmlns="http://www.w3.org/2000/svg" fill="none" viewBox="0 0 150 150">
  <path fill="#000"
    d="M138.667 1.999H11.333A9.33 9.33 0 0 0 2 11.332v127.334a9.33 9.33 0 0 0 9.333 9.333h127.334a9.331 9.331 0 0 0 9.333-9.333V11.332A9.33 9.33 0 0 0 138.667 2Z" />
  <path fill="#484848"
    d="M138.667 1.999H132l6.803.001-.136-.001ZM4 5.557A9.289 9.289 0 0 0 2.094 10H4V5.557ZM2 20v6h2v-6H2ZM2 28v6h2v-6H2ZM2 44v6h2v-6H2ZM2 52v6h2v-6H2ZM2 68v6h2v-6H2ZM2 76v6h2v-6H2ZM2 92v6h2v-6H2ZM2 100v6h2v-6H2ZM2 116v6h2v-6H2ZM2 124v6h2v-6H2ZM2.095 140A9.285 9.285 0 0 0 4 144.441V140H2.095ZM146 144.441a9.273 9.273 0 0 0 1.905-4.441H146v4.441ZM146 138h2v-6h-2v6ZM148 130v-6h-2v6h2ZM148 114v-6h-2v6h2ZM148 98v-6h-2v6h2ZM148 90v-6h-2v6h2ZM148 82v-6h-2v6h2ZM148 66v-6h-2v6h2ZM148 50v-6h-2v6h2ZM148 42v-6h-2v6h2ZM148 34v-6h-2v6h2ZM148 18v-6h-2v6h2ZM32 4H20v6h12V4ZM60 4H48v6h12V4ZM46 4H34v6h12V4ZM46 20H34v6h6.365A60.036 60.036 0 0 1 46 22.461V20ZM50.983 20c-1.01.441-2.004.91-2.983 1.404V20h2.983ZM60 16.89c-1.28.33-2.542.7-3.787 1.11H48v-6h12v4.89ZM74 15.008a60.15 60.15 0 0 0-12 1.404V12h12v3.008ZM93.787 18A59.514 59.514 0 0 0 90 16.89V12h12v6h-8.213ZM102 21.404A59.708 59.708 0 0 0 99.017 20H102v1.404ZM116 31.193A60.214 60.214 0 0 0 112.3 28h3.7v3.193ZM125.118 42a60.195 60.195 0 0 0-4.521-6H130v6h-4.882ZM129.56 50a60.19 60.19 0 0 0-3.178-6H130v6h-.44ZM132.558 58c-.177-.6-.363-1.195-.558-1.787V52h12v6h-11.442ZM134.329 66a59.702 59.702 0 0 0-1.219-6H144v6h-9.671ZM134.992 74a60.568 60.568 0 0 0-.396-6H144v6h-9.008ZM134.596 82c.229-1.972.363-3.974.396-6H144v6h-9.404ZM132 93.787c.195-.592.381-1.187.558-1.787H144v6h-12v-4.213ZM126.382 106a60.222 60.222 0 0 0 3.178-6h.44v6h-3.618ZM118 116.845c.272-.279.54-.561.807-.845H130v6h-12v-5.155ZM104 127.539a59.954 59.954 0 0 0 5.635-3.539H116v6h-12v-2.461ZM99.017 130a59.672 59.672 0 0 0 2.983-1.404V130h-2.983ZM90 133.11c1.28-.33 2.542-.7 3.787-1.11H102v6H90v-4.89ZM74 134.992V138H62v-4.412a60.165 60.165 0 0 0 12 1.404ZM48 128.596c.98.494 1.974.963 2.983 1.404H48v-1.404ZM34 118.807A60.607 60.607 0 0 0 37.7 122H34v-3.193ZM24.882 108a60.185 60.185 0 0 0 4.52 6H20v-6h4.882ZM20.44 100a59.891 59.891 0 0 0 3.178 6H20v-6h.44ZM15.67 84a59.676 59.676 0 0 0 1.22 6H6v-6h9.67ZM15.008 76c.033 2.026.167 4.028.396 6H6v-6h9.008ZM15.404 68a60.538 60.538 0 0 0-.396 6H6v-6h9.404ZM16.89 60a59.676 59.676 0 0 0-1.22 6H6v-6h10.89ZM18 56.213c-.195.592-.38 1.187-.558 1.787H6v-6h12v4.213ZM29.402 36a60.236 60.236 0 0 0-4.52 6H20v-6h9.402ZM32 33.155c-.272.279-.54.56-.807.845H20v-6h12v5.155ZM18 12H6v6h12v-6ZM18 28H6v6h12v-6ZM18 36H6v6h12v-6ZM6 20h12v6H6v-6ZM20 12h12v6H20v-6ZM6 4h12v6H6V4ZM32 124H20v6h12v-6ZM18 108H6v6h12v-6ZM18 124H6v6h12v-6ZM32 132H20v6h12v-6ZM18 132H6v6h12v-6ZM46 132H34v6h12v-6ZM6 116h12v6H6v-6ZM18 100H6v6h12v-6ZM104 4h12v6h-12V4ZM132 4h12v6h-12V4ZM118 4h12v6h-12V4ZM118 20h12v6h-12v-6ZM132 12h12v6h-12v-6ZM132 28h12v6h-12v-6ZM132 20h12v6h-12v-6ZM116 12h-12v6h12v-6ZM102 4H90v6h12V4ZM88 4H76v6h12V4ZM144 44h-12v6h12v-6ZM132 100h12v6h-12v-6ZM144 108h-12v6h12v-6ZM104 132h12v6h-12v-6ZM130 132h-12v6h12v-6ZM144 124h-12v6h12v-6ZM144 116h-12v6h12v-6ZM46 140H34v6h12v-6ZM48 140h12v6H48v-6ZM74 140H62v6h12v-6ZM76 140h12v6H76v-6ZM118 140h12v6h-12v-6ZM144 140h-12v6h12v-6Z" />
  <path fill="#fff" d="M75 133c32.032 0 58-25.968 58-58s-25.968-58-58-58-58 25.968-58 58 25.968 58 58 58Z" />
  <path fill="#D9D9D9"
    d="M77.358 132.953c.625-.025 1.248-.06 1.869-.105a2.49 2.49 0 0 1 1.273-.348 7.5 7.5 0 0 0 0-15 2.5 2.5 0 0 1 0-5.001 7.5 7.5 0 0 0 0-15 2.5 2.5 0 1 1 0-5 7.5 7.5 0 0 0 0-15 2.5 2.5 0 1 1 0-4.998 7.5 7.5 0 0 0 0-15 2.5 2.5 0 0 1 0-5.002 7.5 7.5 0 0 0 0-15 2.5 2.5 0 1 1 0-5 7.5 7.5 0 0 0 0-15 2.49 2.49 0 0 1-1.271-.347c-.621-.045-1.245-.08-1.87-.105a3.746 3.746 0 0 0 3.141 1.701 6.25 6.25 0 1 1 0 12.5 3.75 3.75 0 1 0 0 7.501 6.25 6.25 0 1 1 0 12.5 3.75 3.75 0 1 0 0 7.501 6.25 6.25 0 1 1 0 12.5 3.75 3.75 0 1 0 0 7.498 6.25 6.25 0 1 1 0 12.5 3.75 3.75 0 1 0 0 7.501 6.25 6.25 0 1 1 0 12.5 3.75 3.75 0 1 0 0 7.501 6.25 6.25 0 1 1 0 12.5 3.747 3.747 0 0 0-3.142 1.703ZM72.385 132.942a3.747 3.747 0 0 0-3.135-1.692 6.25 6.25 0 1 1 0-12.5 3.75 3.75 0 0 0 0-7.501 6.25 6.25 0 1 1 0-12.5 3.75 3.75 0 0 0 0-7.5 6.25 6.25 0 1 1 0-12.5 3.75 3.75 0 1 0 0-7.499 6.25 6.25 0 1 1 0-12.5 3.75 3.75 0 0 0 0-7.5 6.25 6.25 0 1 1 0-12.5 3.75 3.75 0 0 0 0-7.502 6.25 6.25 0 1 1 0-12.5c1.31 0 2.464-.672 3.135-1.69a58.38 58.38 0 0 0-1.9.115 2.489 2.489 0 0 1-1.235.325 7.5 7.5 0 0 0 0 15 2.5 2.5 0 1 1 0 5.001 7.5 7.5 0 0 0 0 15 2.5 2.5 0 0 1 0 5.001 7.5 7.5 0 0 0 0 15 2.5 2.5 0 1 1 0 4.998 7.5 7.5 0 0 0 0 15 2.5 2.5 0 1 1 0 5.001 7.5 7.5 0 0 0 0 15 2.5 2.5 0 1 1 0 5.001 7.5 7.5 0 0 0 0 15c.45 0 .872.119 1.237.327.63.048 1.263.087 1.898.115ZM56.29 129.916a7.5 7.5 0 0 0-5.665-12.416 2.5 2.5 0 0 1 0-5.001 7.5 7.5 0 0 0 0-15 2.5 2.5 0 1 1 0-5 7.5 7.5 0 0 0 0-15 2.5 2.5 0 1 1 0-4.998 7.5 7.5 0 0 0 0-15 2.5 2.5 0 0 1 0-5.002 7.5 7.5 0 0 0 0-15 2.5 2.5 0 1 1 0-5 7.5 7.5 0 0 0 5.665-12.415c-.43.146-.86.298-1.286.455a6.25 6.25 0 0 1-4.38 10.71 3.75 3.75 0 1 0 .001 7.5 6.25 6.25 0 1 1 0 12.5 3.75 3.75 0 1 0 0 7.501 6.25 6.25 0 1 1 0 12.5 3.75 3.75 0 1 0 0 7.498 6.25 6.25 0 1 1 0 12.5 3.75 3.75 0 1 0 0 7.501 6.25 6.25 0 1 1 0 12.5 3.75 3.75 0 1 0 0 7.501 6.25 6.25 0 0 1 4.378 10.71c.427.157.856.309 1.287.456ZM37.321 119.096a6.234 6.234 0 0 1 2.054-.346 3.75 3.75 0 0 0 0-7.501 6.25 6.25 0 1 1 0-12.5 3.75 3.75 0 0 0 0-7.5 6.25 6.25 0 1 1 0-12.5 3.75 3.75 0 1 0 0-7.499 6.25 6.25 0 1 1 0-12.5 3.75 3.75 0 0 0 0-7.5 6.25 6.25 0 1 1 0-12.5 3.75 3.75 0 0 0 0-7.502c-.72 0-1.41-.121-2.053-.345-.355.304-.706.612-1.054.924a7.472 7.472 0 0 0 3.107.671 2.5 2.5 0 1 1 0 5.001 7.5 7.5 0 0 0 0 15 2.5 2.5 0 0 1 0 5.001 7.5 7.5 0 0 0 0 15 2.5 2.5 0 1 1 0 4.998 7.5 7.5 0 0 0 0 15 2.5 2.5 0 1 1 0 5.001 7.5 7.5 0 0 0 0 15 2.5 2.5 0 1 1 0 5.001c-1.108 0-2.16.241-3.107.672.347.312.698.62 1.053.924ZM27.42 108.177a7.502 7.502 0 0 0-5.87-10.622c.195.464.397.925.605 1.383a6.252 6.252 0 0 1 4.417 7.99c.277.42.56.837.848 1.249ZM19.738 92.66c.275-.104.575-.162.887-.162a7.5 7.5 0 0 0 0-15 2.5 2.5 0 1 1 0-4.998 7.5 7.5 0 0 0 0-15c-.312 0-.611-.057-.887-.162-.127.397-.25.796-.368 1.197.392.14.815.215 1.255.215a6.25 6.25 0 1 1 0 12.5 3.751 3.751 0 0 0-3.617 2.755 58.775 58.775 0 0 0 0 1.99 3.75 3.75 0 0 0 3.617 2.753 6.25 6.25 0 1 1 0 12.5c-.44 0-.863.076-1.255.215.118.401.24.8.368 1.197ZM21.55 52.443a7.502 7.502 0 0 0 5.87-10.621c-.288.412-.57.829-.848 1.249a6.252 6.252 0 0 1-4.416 7.99c-.208.457-.41.918-.606 1.382ZM93.71 20.084a7.5 7.5 0 0 0 5.665 12.415 2.5 2.5 0 1 1 0 5 7.5 7.5 0 0 0 0 15 2.5 2.5 0 1 1 0 5.001 7.5 7.5 0 0 0 0 15 2.5 2.5 0 1 1 0 4.998 7.5 7.5 0 0 0 0 15 2.5 2.5 0 1 1 0 5.001 7.5 7.5 0 0 0 0 15 2.5 2.5 0 1 1 0 5.001 7.5 7.5 0 0 0-5.665 12.416c.431-.147.86-.299 1.287-.456a6.25 6.25 0 0 1 4.378-10.71 3.75 3.75 0 0 0 0-7.501 6.25 6.25 0 1 1 0-12.5 3.75 3.75 0 0 0 0-7.5 6.25 6.25 0 1 1 0-12.5 3.75 3.75 0 1 0 0-7.499 6.25 6.25 0 1 1 0-12.5 3.75 3.75 0 0 0 0-7.5 6.25 6.25 0 1 1 0-12.5 3.75 3.75 0 0 0 0-7.502 6.25 6.25 0 0 1-4.38-10.71 57.43 57.43 0 0 0-1.285-.454ZM112.678 30.903a6.242 6.242 0 0 1-2.053.345 3.75 3.75 0 1 0 0 7.501 6.25 6.25 0 1 1 0 12.5 3.75 3.75 0 1 0 0 7.501 6.25 6.25 0 1 1 0 12.5 3.75 3.75 0 1 0 0 7.498 6.25 6.25 0 1 1 0 12.5 3.75 3.75 0 1 0 0 7.501 6.25 6.25 0 1 1 0 12.5 3.75 3.75 0 0 0 0 7.501c.719 0 1.411.122 2.054.346.355-.304.706-.612 1.053-.924a7.478 7.478 0 0 0-3.107-.672 2.5 2.5 0 0 1 0-5.001 7.5 7.5 0 0 0 0-15 2.5 2.5 0 0 1 0-5 7.5 7.5 0 0 0 0-15 2.498 2.498 0 1 1 0-4.999 7.5 7.5 0 0 0 0-15 2.5 2.5 0 0 1 0-5 7.5 7.5 0 0 0 0-15 2.5 2.5 0 0 1 0-5.002c1.108 0 2.16-.24 3.107-.671-.348-.312-.699-.62-1.054-.924ZM122.579 41.822a7.502 7.502 0 0 0 5.871 10.62 60.404 60.404 0 0 0-.605-1.382 6.253 6.253 0 0 1-4.417-7.99c-.278-.42-.56-.836-.849-1.248ZM130.262 57.338a2.498 2.498 0 0 1-.887.162 7.5 7.5 0 0 0 0 15 2.5 2.5 0 1 1 0 4.998 7.5 7.5 0 0 0 0 15c.312 0 .612.058.887.162.127-.397.25-.796.368-1.197a3.743 3.743 0 0 0-1.255-.215 6.25 6.25 0 1 1 0-12.5 3.752 3.752 0 0 0 3.617-2.755 65.636 65.636 0 0 0 0-1.99 3.75 3.75 0 0 0-3.617-2.753 6.25 6.25 0 1 1 0-12.5c.44 0 .862-.076 1.255-.215-.119-.4-.241-.8-.368-1.197ZM128.451 97.555a7.502 7.502 0 0 0-5.871 10.622c.288-.412.571-.829.848-1.249a6.253 6.253 0 0 1 4.417-7.99c.208-.458.41-.919.606-1.382Z" />
  <path fill="#000" fill-rule="evenodd"
    d="M75 133c32.033 0 58-25.967 58-58 0-32.032-25.967-58-58-58-32.032 0-58 25.968-58 58 0 32.033 25.968 58 58 58Zm60-58c0 33.137-26.863 60-60 60s-60-26.863-60-60 26.863-60 60-60 60 26.863 60 60Z"
    clip-rule="evenodd" />
  <path fill="#E2E2E2" fill-rule="evenodd"
    d="M11.333 0h127.334C144.928 0 150 5.072 150 11.333v127.334c0 6.261-5.072 11.333-11.333 11.333H11.333C5.073 150 0 144.928 0 138.667V11.333C0 5.073 5.072 0 11.333 0Zm0 2h127.334A9.33 9.33 0 0 1 148 11.333v127.334a9.331 9.331 0 0 1-9.333 9.333H11.333A9.33 9.33 0 0 1 2 138.667V11.333A9.33 9.33 0 0 1 11.333 2Z"
    clip-rule="evenodd" />
</svg>