<svg width="150" height="150" viewBox="0 0 150 150" fill="none" xmlns="http://www.w3.org/2000/svg">
<mask id="mask0_1449_16513" style="mask-type:alpha" maskUnits="userSpaceOnUse" x="2" y="1" width="146" height="147">
<path d="M138.667 1.99902H11.3333C6.17667 1.99902 2 6.17569 2 11.3324V138.666C2 143.822 6.17667 147.999 11.3333 147.999H138.667C143.823 147.999 148 143.822 148 138.666V11.3324C148 6.17569 143.823 1.99902 138.667 1.99902Z" fill="#689F38"/>
</mask>
<g mask="url(#mask0_1449_16513)">
<rect width="150" height="150" fill="black"/>
<path d="M0 10V4H4V10H0Z" fill="#484848"/>
<path d="M0 26V20H4V26H0Z" fill="#484848"/>
<path d="M0 34V28H4V34H0Z" fill="#484848"/>
<path d="M0 50V44H4V50H0Z" fill="#484848"/>
<path d="M0 58V52H4V58H0Z" fill="#484848"/>
<path d="M0 74V68H4V74H0Z" fill="#484848"/>
<path d="M0 82V76H4V82H0Z" fill="#484848"/>
<path d="M0 98V92H4V98H0Z" fill="#484848"/>
<path d="M0 106V100H4V106H0Z" fill="#484848"/>
<path d="M0 122V116H4V122H0Z" fill="#484848"/>
<path d="M0 130V124H4V130H0Z" fill="#484848"/>
<path d="M0 146V140H4V146H0Z" fill="#484848"/>
<path d="M4 150H0V148H4V150Z" fill="#484848"/>
<path d="M18 150H6V148H18V150Z" fill="#484848"/>
<path d="M32 150H20V148H32V150Z" fill="#484848"/>
<path d="M46 150H34V148H46V150Z" fill="#484848"/>
<path d="M60 150H48V148H60V150Z" fill="#484848"/>
<path d="M88 150H76V148H88V150Z" fill="#484848"/>
<path d="M102 150H90V148H102V150Z" fill="#484848"/>
<path d="M116 150H104V148H116V150Z" fill="#484848"/>
<path d="M130 150H118V148H130V150Z" fill="#484848"/>
<path d="M144 150H132V148H144V150Z" fill="#484848"/>
<path d="M150 140V146H146V140H150Z" fill="#484848"/>
<path d="M150 132V138H146V132H150Z" fill="#484848"/>
<path d="M150 124V130H146V124H150Z" fill="#484848"/>
<path d="M150 108V114H146V108H150Z" fill="#484848"/>
<path d="M150 92V98H146V92H150Z" fill="#484848"/>
<path d="M150 84V90H146V84H150Z" fill="#484848"/>
<path d="M150 76V82H146V76H150Z" fill="#484848"/>
<path d="M150 60V66H146V60H150Z" fill="#484848"/>
<path d="M150 44V50H146V44H150Z" fill="#484848"/>
<path d="M150 36V42H146V36H150Z" fill="#484848"/>
<path d="M150 28V34H146V28H150Z" fill="#484848"/>
<path d="M150 12V18H146V12H150Z" fill="#484848"/>
<path d="M146 0H150V2H146V0Z" fill="#484848"/>
<path d="M132 0H144V2H132V0Z" fill="#484848"/>
<path d="M118 0H130V2H118V0Z" fill="#484848"/>
<path d="M76 0H88V2H76V0Z" fill="#484848"/>
<path d="M62 0H74V2H62V0Z" fill="#484848"/>
<path d="M48 0H60V2H48V0Z" fill="#484848"/>
<path d="M34 0H46V2H34V0Z" fill="#484848"/>
<path d="M4 0V2H0V0H4Z" fill="#484848"/>
<path d="M32 4H20V10H32V4Z" fill="#484848"/>
<path d="M60 4H48V10H60V4Z" fill="#484848"/>
<path d="M46 4H34V10H46V4Z" fill="#484848"/>
<path d="M46 20H34V26H46V20Z" fill="#484848"/>
<path d="M60 12H48V18H60V12Z" fill="#484848"/>
<path d="M74 12H62V18H74V12Z" fill="#484848"/>
<path d="M32 28H20V34H32V28Z" fill="#484848"/>
<path d="M18 12H6V18H18V12Z" fill="#484848"/>
<path d="M18 28H6V34H18V28Z" fill="#484848"/>
<path d="M32 36H20V42H32V36Z" fill="#484848"/>
<path d="M18 36H6V42H18V36Z" fill="#484848"/>
<path d="M46 36H34V42H46V36Z" fill="#484848"/>
<path d="M60 28H48V34H60V28Z" fill="#484848"/>
<path d="M60 20H48V26H60V20Z" fill="#484848"/>
<path d="M74 28H62V34H74V28Z" fill="#484848"/>
<path d="M74 36H62V42H74V36Z" fill="#484848"/>
<path d="M18 20H6V26H18V20Z" fill="#484848"/>
<path d="M32 12H20V18H32V12Z" fill="#484848"/>
<path d="M18 4H6V10H18V4Z" fill="#484848"/>
<path d="M32 52H20V58H32V52Z" fill="#484848"/>
<path d="M46 44H34V50H46V44Z" fill="#484848"/>
<path d="M60 44H48V50H60V44Z" fill="#484848"/>
<path d="M60 52H48V58H60V52Z" fill="#484848"/>
<path d="M46 52H34V58H46V52Z" fill="#484848"/>
<path d="M46 68H34V74H46V68Z" fill="#484848"/>
<path d="M60 60H48V66H60V60Z" fill="#484848"/>
<path d="M74 60H62V66H74V60Z" fill="#484848"/>
<path d="M74 44H62V50H74V44Z" fill="#484848"/>
<path d="M32 76H20V82H32V76Z" fill="#484848"/>
<path d="M18 60H6V66H18V60Z" fill="#484848"/>
<path d="M18 76H6V82H18V76Z" fill="#484848"/>
<path d="M32 84H20V90H32V84Z" fill="#484848"/>
<path d="M18 84H6V90H18V84Z" fill="#484848"/>
<path d="M46 84H34V90H46V84Z" fill="#484848"/>
<path d="M60 76H48V82H60V76Z" fill="#484848"/>
<path d="M60 68H48V74H60V68Z" fill="#484848"/>
<path d="M74 76H62V82H74V76Z" fill="#484848"/>
<path d="M74 84H62V90H74V84Z" fill="#484848"/>
<path d="M18 68H6V74H18V68Z" fill="#484848"/>
<path d="M32 60H20V66H32V60Z" fill="#484848"/>
<path d="M18 52H6V58H18V52Z" fill="#484848"/>
<path d="M20 100H32V106H20V100Z" fill="#484848"/>
<path d="M34 92H46V98H34V92Z" fill="#484848"/>
<path d="M48 92H60V98H48V92Z" fill="#484848"/>
<path d="M48 100H60V106H48V100Z" fill="#484848"/>
<path d="M34 100H46V106H34V100Z" fill="#484848"/>
<path d="M34 116H46V122H34V116Z" fill="#484848"/>
<path d="M48 108H60V114H48V108Z" fill="#484848"/>
<path d="M62 108H74V114H62V108Z" fill="#484848"/>
<path d="M62 92H74V98H62V92Z" fill="#484848"/>
<path d="M20 124H32V130H20V124Z" fill="#484848"/>
<path d="M6 108H18V114H6V108Z" fill="#484848"/>
<path d="M6 124H18V130H6V124Z" fill="#484848"/>
<path d="M20 132H32V138H20V132Z" fill="#484848"/>
<path d="M6 132H18V138H6V132Z" fill="#484848"/>
<path d="M34 132H46V138H34V132Z" fill="#484848"/>
<path d="M48 124H60V130H48V124Z" fill="#484848"/>
<path d="M48 116H60V122H48V116Z" fill="#484848"/>
<path d="M62 124H74V130H62V124Z" fill="#484848"/>
<path d="M62 132H74V138H62V132Z" fill="#484848"/>
<path d="M6 116H18V122H6V116Z" fill="#484848"/>
<path d="M20 108H32V114H20V108Z" fill="#484848"/>
<path d="M6 100H18V106H6V100Z" fill="#484848"/>
<path d="M116 4H104V10H116V4Z" fill="#484848"/>
<path d="M144 4H132V10H144V4Z" fill="#484848"/>
<path d="M130 4H118V10H130V4Z" fill="#484848"/>
<path d="M130 20H118V26H130V20Z" fill="#484848"/>
<path d="M144 12H132V18H144V12Z" fill="#484848"/>
<path d="M116 28H104V34H116V28Z" fill="#484848"/>
<path d="M102 12H90V18H102V12Z" fill="#484848"/>
<path d="M88 20H76V26H88V20Z" fill="#484848"/>
<path d="M88 28H76V34H88V28Z" fill="#484848"/>
<path d="M102 28H90V34H102V28Z" fill="#484848"/>
<path d="M116 36H104V42H116V36Z" fill="#484848"/>
<path d="M102 36H90V42H102V36Z" fill="#484848"/>
<path d="M130 36H118V42H130V36Z" fill="#484848"/>
<path d="M144 28H132V34H144V28Z" fill="#484848"/>
<path d="M144 20H132V26H144V20Z" fill="#484848"/>
<path d="M102 20H90V26H102V20Z" fill="#484848"/>
<path d="M116 12H104V18H116V12Z" fill="#484848"/>
<path d="M102 4H90V10H102V4Z" fill="#484848"/>
<path d="M88 4H76V10H88V4Z" fill="#484848"/>
<path d="M76 44H88V50H76V44Z" fill="#484848"/>
<path d="M104 52H116V58H104V52Z" fill="#484848"/>
<path d="M118 44H130V50H118V44Z" fill="#484848"/>
<path d="M132 44H144V50H132V44Z" fill="#484848"/>
<path d="M132 52H144V58H132V52Z" fill="#484848"/>
<path d="M118 52H130V58H118V52Z" fill="#484848"/>
<path d="M118 68H130V74H118V68Z" fill="#484848"/>
<path d="M132 60H144V66H132V60Z" fill="#484848"/>
<path d="M104 76H116V82H104V76Z" fill="#484848"/>
<path d="M90 60H102V66H90V60Z" fill="#484848"/>
<path d="M76 68H88V74H76V68Z" fill="#484848"/>
<path d="M76 76H88V82H76V76Z" fill="#484848"/>
<path d="M90 76H102V82H90V76Z" fill="#484848"/>
<path d="M104 84H116V90H104V84Z" fill="#484848"/>
<path d="M90 84H102V90H90V84Z" fill="#484848"/>
<path d="M118 84H130V90H118V84Z" fill="#484848"/>
<path d="M132 76H144V82H132V76Z" fill="#484848"/>
<path d="M132 68H144V74H132V68Z" fill="#484848"/>
<path d="M90 68H102V74H90V68Z" fill="#484848"/>
<path d="M104 60H116V66H104V60Z" fill="#484848"/>
<path d="M90 52H102V58H90V52Z" fill="#484848"/>
<path d="M76 52H88V58H76V52Z" fill="#484848"/>
<path d="M88 92H76V98H88V92Z" fill="#484848"/>
<path d="M116 100H104V106H116V100Z" fill="#484848"/>
<path d="M130 92H118V98H130V92Z" fill="#484848"/>
<path d="M144 92H132V98H144V92Z" fill="#484848"/>
<path d="M144 100H132V106H144V100Z" fill="#484848"/>
<path d="M130 100H118V106H130V100Z" fill="#484848"/>
<path d="M130 116H118V122H130V116Z" fill="#484848"/>
<path d="M144 108H132V114H144V108Z" fill="#484848"/>
<path d="M116 124H104V130H116V124Z" fill="#484848"/>
<path d="M102 108H90V114H102V108Z" fill="#484848"/>
<path d="M88 116H76V122H88V116Z" fill="#484848"/>
<path d="M88 124H76V130H88V124Z" fill="#484848"/>
<path d="M102 124H90V130H102V124Z" fill="#484848"/>
<path d="M116 132H104V138H116V132Z" fill="#484848"/>
<path d="M102 132H90V138H102V132Z" fill="#484848"/>
<path d="M130 132H118V138H130V132Z" fill="#484848"/>
<path d="M144 124H132V130H144V124Z" fill="#484848"/>
<path d="M144 116H132V122H144V116Z" fill="#484848"/>
<path d="M102 116H90V122H102V116Z" fill="#484848"/>
<path d="M116 108H104V114H116V108Z" fill="#484848"/>
<path d="M102 100H90V106H102V100Z" fill="#484848"/>
<path d="M88 100H76V106H88V100Z" fill="#484848"/>
<path d="M46 140H34V146H46V140Z" fill="#484848"/>
<path d="M48 140H60V146H48V140Z" fill="#484848"/>
<path d="M74 140H62V146H74V140Z" fill="#484848"/>
<path d="M76 140H88V146H76V140Z" fill="#484848"/>
<path d="M118 140H130V146H118V140Z" fill="#484848"/>
<path d="M144 140H132V146H144V140Z" fill="#484848"/>
</g>
<mask id="mask1_1449_16513" style="mask-type:alpha" maskUnits="userSpaceOnUse" x="15" y="15" width="120" height="120">
<path d="M75 135C108.137 135 135 108.137 135 75C135 41.8629 108.137 15 75 15C41.8629 15 15 41.8629 15 75C15 108.137 41.8629 135 75 135Z" fill="#BDBDBD"/>
</mask>
<g mask="url(#mask1_1449_16513)">
<rect width="150" height="150" fill="white"/>
<path fill-rule="evenodd" clip-rule="evenodd" d="M16.875 15C16.875 12.9287 18.5537 11.25 20.625 11.25C24.0769 11.25 26.875 8.45187 26.875 5C26.875 1.54813 24.0769 -1.25 20.625 -1.25C18.5537 -1.25 16.875 -2.92875 16.875 -5H18.125C18.125 -3.61875 19.2437 -2.5 20.625 -2.5C24.7669 -2.5 28.125 0.858125 28.125 5C28.125 9.14187 24.7669 12.5 20.625 12.5C19.2437 12.5 18.125 13.6187 18.125 15H16.875ZM13.125 15C13.125 12.9287 11.4462 11.25 9.375 11.25C5.92313 11.25 3.125 8.45187 3.125 5C3.125 1.54813 5.92313 -1.25 9.375 -1.25C11.4462 -1.25 13.125 -2.92875 13.125 -5H11.875C11.875 -3.61875 10.7563 -2.5 9.375 -2.5C5.23313 -2.5 1.875 0.858125 1.875 5C1.875 9.14187 5.23313 12.5 9.375 12.5C10.7563 12.5 11.875 13.6187 11.875 15H13.125Z" fill="#DCDCDC"/>
<path fill-rule="evenodd" clip-rule="evenodd" d="M106.875 15C106.875 12.9287 108.554 11.25 110.625 11.25C114.077 11.25 116.875 8.45187 116.875 5C116.875 1.54813 114.077 -1.25 110.625 -1.25C108.554 -1.25 106.875 -2.92875 106.875 -5H108.125C108.125 -3.61875 109.244 -2.5 110.625 -2.5C114.767 -2.5 118.125 0.858125 118.125 5C118.125 9.14187 114.767 12.5 110.625 12.5C109.244 12.5 108.125 13.6187 108.125 15H106.875ZM103.125 15C103.125 12.9287 101.446 11.25 99.375 11.25C95.9231 11.25 93.125 8.45187 93.125 5C93.125 1.54813 95.9231 -1.25 99.375 -1.25C101.446 -1.25 103.125 -2.92875 103.125 -5H101.875C101.875 -3.61875 100.756 -2.5 99.375 -2.5C95.2331 -2.5 91.875 0.858125 91.875 5C91.875 9.14187 95.2331 12.5 99.375 12.5C100.756 12.5 101.875 13.6187 101.875 15H103.125Z" fill="#DCDCDC"/>
<path fill-rule="evenodd" clip-rule="evenodd" d="M16.875 34.9984C16.875 32.9272 18.5537 31.2484 20.625 31.2484C24.0769 31.2484 26.875 28.4503 26.875 24.9984C26.875 21.5465 24.0769 18.7484 20.625 18.7484C18.5537 18.7484 16.875 17.0697 16.875 14.9984H18.125C18.125 16.3797 19.2437 17.4984 20.625 17.4984C24.7669 17.4984 28.125 20.8565 28.125 24.9984C28.125 29.1403 24.7669 32.4984 20.625 32.4984C19.2437 32.4984 18.125 33.6172 18.125 34.9984H16.875ZM13.125 34.9984C13.125 32.9272 11.4462 31.2484 9.375 31.2484C5.92313 31.2484 3.125 28.4503 3.125 24.9984C3.125 21.5465 5.92313 18.7484 9.375 18.7484C11.4462 18.7484 13.125 17.0697 13.125 14.9984H11.875C11.875 16.3797 10.7563 17.4984 9.375 17.4984C5.23313 17.4984 1.875 20.8565 1.875 24.9984C1.875 29.1403 5.23313 32.4984 9.375 32.4984C10.7563 32.4984 11.875 33.6172 11.875 34.9984H13.125Z" fill="#DCDCDC"/>
<path fill-rule="evenodd" clip-rule="evenodd" d="M106.875 34.9984C106.875 32.9272 108.554 31.2484 110.625 31.2484C114.077 31.2484 116.875 28.4503 116.875 24.9984C116.875 21.5465 114.077 18.7484 110.625 18.7484C108.554 18.7484 106.875 17.0697 106.875 14.9984H108.125C108.125 16.3797 109.244 17.4984 110.625 17.4984C114.767 17.4984 118.125 20.8565 118.125 24.9984C118.125 29.1403 114.767 32.4984 110.625 32.4984C109.244 32.4984 108.125 33.6172 108.125 34.9984H106.875ZM103.125 34.9984C103.125 32.9272 101.446 31.2484 99.375 31.2484C95.9231 31.2484 93.125 28.4503 93.125 24.9984C93.125 21.5465 95.9231 18.7484 99.375 18.7484C101.446 18.7484 103.125 17.0697 103.125 14.9984H101.875C101.875 16.3797 100.756 17.4984 99.375 17.4984C95.2331 17.4984 91.875 20.8565 91.875 24.9984C91.875 29.1403 95.2331 32.4984 99.375 32.4984C100.756 32.4984 101.875 33.6172 101.875 34.9984H103.125Z" fill="#DCDCDC"/>
<path fill-rule="evenodd" clip-rule="evenodd" d="M16.875 54.9992C16.875 52.928 18.5537 51.2492 20.625 51.2492C24.0769 51.2492 26.875 48.4511 26.875 44.9992C26.875 41.5473 24.0769 38.7492 20.625 38.7492C18.5537 38.7492 16.875 37.0697 16.875 34.9984H18.125C18.125 36.3797 19.2437 37.4992 20.625 37.4992C24.7669 37.4992 28.125 40.8573 28.125 44.9992C28.125 49.1411 24.7669 52.4992 20.625 52.4992C19.2437 52.4992 18.125 53.618 18.125 54.9992H16.875ZM13.125 54.9992C13.125 52.928 11.4462 51.2492 9.375 51.2492C5.92313 51.2492 3.125 48.4511 3.125 44.9992C3.125 41.5473 5.92313 38.7492 9.375 38.7492C11.4462 38.7492 13.125 37.0697 13.125 34.9984H11.875C11.875 36.3797 10.7563 37.4992 9.375 37.4992C5.23313 37.4992 1.875 40.8573 1.875 44.9992C1.875 49.1411 5.23313 52.4992 9.375 52.4992C10.7563 52.4992 11.875 53.618 11.875 54.9992H13.125Z" fill="#DCDCDC"/>
<path fill-rule="evenodd" clip-rule="evenodd" d="M106.875 54.9992C106.875 52.928 108.554 51.2492 110.625 51.2492C114.077 51.2492 116.875 48.4511 116.875 44.9992C116.875 41.5473 114.077 38.7492 110.625 38.7492C108.554 38.7492 106.875 37.0697 106.875 34.9984H108.125C108.125 36.3797 109.244 37.4992 110.625 37.4992C114.767 37.4992 118.125 40.8573 118.125 44.9992C118.125 49.1411 114.767 52.4992 110.625 52.4992C109.244 52.4992 108.125 53.618 108.125 54.9992H106.875ZM103.125 54.9992C103.125 52.928 101.446 51.2492 99.375 51.2492C95.9231 51.2492 93.125 48.4511 93.125 44.9992C93.125 41.5473 95.9231 38.7492 99.375 38.7492C101.446 38.7492 103.125 37.0697 103.125 34.9984H101.875C101.875 36.3797 100.756 37.4992 99.375 37.4992C95.2331 37.4992 91.875 40.8573 91.875 44.9992C91.875 49.1411 95.2331 52.4992 99.375 52.4992C100.756 52.4992 101.875 53.618 101.875 54.9992H103.125Z" fill="#DCDCDC"/>
<path fill-rule="evenodd" clip-rule="evenodd" d="M16.875 75C16.875 72.9287 18.5537 71.25 20.625 71.25C24.0769 71.25 26.875 68.4519 26.875 65C26.875 61.5481 24.0769 58.75 20.625 58.75C18.5537 58.75 16.875 57.0705 16.875 54.9992H18.125C18.125 56.3805 19.2437 57.5 20.625 57.5C24.7669 57.5 28.125 60.8581 28.125 65C28.125 69.1419 24.7669 72.5 20.625 72.5C19.2437 72.5 18.125 73.6188 18.125 75H16.875ZM13.125 75C13.125 72.9287 11.4462 71.25 9.375 71.25C5.92313 71.25 3.125 68.4519 3.125 65C3.125 61.5481 5.92313 58.75 9.375 58.75C11.4462 58.75 13.125 57.0705 13.125 54.9992H11.875C11.875 56.3805 10.7563 57.5 9.375 57.5C5.23313 57.5 1.875 60.8581 1.875 65C1.875 69.1419 5.23313 72.5 9.375 72.5C10.7563 72.5 11.875 73.6188 11.875 75H13.125Z" fill="#DCDCDC"/>
<path fill-rule="evenodd" clip-rule="evenodd" d="M106.875 75C106.875 72.9287 108.554 71.25 110.625 71.25C114.077 71.25 116.875 68.4519 116.875 65C116.875 61.5481 114.077 58.75 110.625 58.75C108.554 58.75 106.875 57.0705 106.875 54.9992H108.125C108.125 56.3805 109.244 57.5 110.625 57.5C114.767 57.5 118.125 60.8581 118.125 65C118.125 69.1419 114.767 72.5 110.625 72.5C109.244 72.5 108.125 73.6188 108.125 75H106.875ZM103.125 75C103.125 72.9287 101.446 71.25 99.375 71.25C95.9231 71.25 93.125 68.4519 93.125 65C93.125 61.5481 95.9231 58.75 99.375 58.75C101.446 58.75 103.125 57.0705 103.125 54.9992H101.875C101.875 56.3805 100.756 57.5 99.375 57.5C95.2331 57.5 91.875 60.8581 91.875 65C91.875 69.1419 95.2331 72.5 99.375 72.5C100.756 72.5 101.875 73.6188 101.875 75H103.125Z" fill="#DCDCDC"/>
<path fill-rule="evenodd" clip-rule="evenodd" d="M46.875 15C46.875 12.9287 48.5537 11.25 50.625 11.25C54.0769 11.25 56.875 8.45187 56.875 5C56.875 1.54813 54.0769 -1.25 50.625 -1.25C48.5537 -1.25 46.875 -2.92875 46.875 -5H48.125C48.125 -3.61875 49.2438 -2.5 50.625 -2.5C54.7669 -2.5 58.125 0.858125 58.125 5C58.125 9.14187 54.7669 12.5 50.625 12.5C49.2438 12.5 48.125 13.6187 48.125 15H46.875ZM43.125 15C43.125 12.9287 41.4463 11.25 39.375 11.25C35.9231 11.25 33.125 8.45187 33.125 5C33.125 1.54813 35.9231 -1.25 39.375 -1.25C41.4463 -1.25 43.125 -2.92875 43.125 -5H41.875C41.875 -3.61875 40.7562 -2.5 39.375 -2.5C35.2331 -2.5 31.875 0.858125 31.875 5C31.875 9.14187 35.2331 12.5 39.375 12.5C40.7562 12.5 41.875 13.6187 41.875 15H43.125Z" fill="#DCDCDC"/>
<path fill-rule="evenodd" clip-rule="evenodd" d="M136.875 15C136.875 12.9287 138.554 11.25 140.625 11.25C144.077 11.25 146.875 8.45187 146.875 5C146.875 1.54813 144.077 -1.25 140.625 -1.25C138.554 -1.25 136.875 -2.92875 136.875 -5H138.125C138.125 -3.61875 139.244 -2.5 140.625 -2.5C144.767 -2.5 148.125 0.858125 148.125 5C148.125 9.14187 144.767 12.5 140.625 12.5C139.244 12.5 138.125 13.6187 138.125 15H136.875ZM133.125 15C133.125 12.9287 131.446 11.25 129.375 11.25C125.923 11.25 123.125 8.45187 123.125 5C123.125 1.54813 125.923 -1.25 129.375 -1.25C131.446 -1.25 133.125 -2.92875 133.125 -5H131.875C131.875 -3.61875 130.756 -2.5 129.375 -2.5C125.233 -2.5 121.875 0.858125 121.875 5C121.875 9.14187 125.233 12.5 129.375 12.5C130.756 12.5 131.875 13.6187 131.875 15H133.125Z" fill="#DCDCDC"/>
<path fill-rule="evenodd" clip-rule="evenodd" d="M46.875 34.9984C46.875 32.9272 48.5537 31.2484 50.625 31.2484C54.0769 31.2484 56.875 28.4503 56.875 24.9984C56.875 21.5465 54.0769 18.7484 50.625 18.7484C48.5537 18.7484 46.875 17.0697 46.875 14.9984H48.125C48.125 16.3797 49.2438 17.4984 50.625 17.4984C54.7669 17.4984 58.125 20.8565 58.125 24.9984C58.125 29.1403 54.7669 32.4984 50.625 32.4984C49.2438 32.4984 48.125 33.6172 48.125 34.9984H46.875ZM43.125 34.9984C43.125 32.9272 41.4463 31.2484 39.375 31.2484C35.9231 31.2484 33.125 28.4503 33.125 24.9984C33.125 21.5465 35.9231 18.7484 39.375 18.7484C41.4463 18.7484 43.125 17.0697 43.125 14.9984H41.875C41.875 16.3797 40.7562 17.4984 39.375 17.4984C35.2331 17.4984 31.875 20.8565 31.875 24.9984C31.875 29.1403 35.2331 32.4984 39.375 32.4984C40.7562 32.4984 41.875 33.6172 41.875 34.9984H43.125Z" fill="#DCDCDC"/>
<path fill-rule="evenodd" clip-rule="evenodd" d="M136.875 34.9984C136.875 32.9272 138.554 31.2484 140.625 31.2484C144.077 31.2484 146.875 28.4503 146.875 24.9984C146.875 21.5465 144.077 18.7484 140.625 18.7484C138.554 18.7484 136.875 17.0697 136.875 14.9984H138.125C138.125 16.3797 139.244 17.4984 140.625 17.4984C144.767 17.4984 148.125 20.8565 148.125 24.9984C148.125 29.1403 144.767 32.4984 140.625 32.4984C139.244 32.4984 138.125 33.6172 138.125 34.9984H136.875ZM133.125 34.9984C133.125 32.9272 131.446 31.2484 129.375 31.2484C125.923 31.2484 123.125 28.4503 123.125 24.9984C123.125 21.5465 125.923 18.7484 129.375 18.7484C131.446 18.7484 133.125 17.0697 133.125 14.9984H131.875C131.875 16.3797 130.756 17.4984 129.375 17.4984C125.233 17.4984 121.875 20.8565 121.875 24.9984C121.875 29.1403 125.233 32.4984 129.375 32.4984C130.756 32.4984 131.875 33.6172 131.875 34.9984H133.125Z" fill="#DCDCDC"/>
<path fill-rule="evenodd" clip-rule="evenodd" d="M46.875 54.9992C46.875 52.928 48.5537 51.2492 50.625 51.2492C54.0769 51.2492 56.875 48.4511 56.875 44.9992C56.875 41.5473 54.0769 38.7492 50.625 38.7492C48.5537 38.7492 46.875 37.0697 46.875 34.9984H48.125C48.125 36.3797 49.2438 37.4992 50.625 37.4992C54.7669 37.4992 58.125 40.8573 58.125 44.9992C58.125 49.1411 54.7669 52.4992 50.625 52.4992C49.2438 52.4992 48.125 53.618 48.125 54.9992H46.875ZM43.125 54.9992C43.125 52.928 41.4463 51.2492 39.375 51.2492C35.9231 51.2492 33.125 48.4511 33.125 44.9992C33.125 41.5473 35.9231 38.7492 39.375 38.7492C41.4463 38.7492 43.125 37.0697 43.125 34.9984H41.875C41.875 36.3797 40.7562 37.4992 39.375 37.4992C35.2331 37.4992 31.875 40.8573 31.875 44.9992C31.875 49.1411 35.2331 52.4992 39.375 52.4992C40.7562 52.4992 41.875 53.618 41.875 54.9992H43.125Z" fill="#DCDCDC"/>
<path fill-rule="evenodd" clip-rule="evenodd" d="M136.875 54.9992C136.875 52.928 138.554 51.2492 140.625 51.2492C144.077 51.2492 146.875 48.4511 146.875 44.9992C146.875 41.5473 144.077 38.7492 140.625 38.7492C138.554 38.7492 136.875 37.0697 136.875 34.9984H138.125C138.125 36.3797 139.244 37.4992 140.625 37.4992C144.767 37.4992 148.125 40.8573 148.125 44.9992C148.125 49.1411 144.767 52.4992 140.625 52.4992C139.244 52.4992 138.125 53.618 138.125 54.9992H136.875ZM133.125 54.9992C133.125 52.928 131.446 51.2492 129.375 51.2492C125.923 51.2492 123.125 48.4511 123.125 44.9992C123.125 41.5473 125.923 38.7492 129.375 38.7492C131.446 38.7492 133.125 37.0697 133.125 34.9984H131.875C131.875 36.3797 130.756 37.4992 129.375 37.4992C125.233 37.4992 121.875 40.8573 121.875 44.9992C121.875 49.1411 125.233 52.4992 129.375 52.4992C130.756 52.4992 131.875 53.618 131.875 54.9992H133.125Z" fill="#DCDCDC"/>
<path fill-rule="evenodd" clip-rule="evenodd" d="M46.875 75C46.875 72.9287 48.5537 71.25 50.625 71.25C54.0769 71.25 56.875 68.4519 56.875 65C56.875 61.5481 54.0769 58.75 50.625 58.75C48.5537 58.75 46.875 57.0705 46.875 54.9992H48.125C48.125 56.3805 49.2438 57.5 50.625 57.5C54.7669 57.5 58.125 60.8581 58.125 65C58.125 69.1419 54.7669 72.5 50.625 72.5C49.2438 72.5 48.125 73.6188 48.125 75H46.875ZM43.125 75C43.125 72.9287 41.4463 71.25 39.375 71.25C35.9231 71.25 33.125 68.4519 33.125 65C33.125 61.5481 35.9231 58.75 39.375 58.75C41.4463 58.75 43.125 57.0705 43.125 54.9992H41.875C41.875 56.3805 40.7562 57.5 39.375 57.5C35.2331 57.5 31.875 60.8581 31.875 65C31.875 69.1419 35.2331 72.5 39.375 72.5C40.7562 72.5 41.875 73.6188 41.875 75H43.125Z" fill="#DCDCDC"/>
<path fill-rule="evenodd" clip-rule="evenodd" d="M136.875 75C136.875 72.9287 138.554 71.25 140.625 71.25C144.077 71.25 146.875 68.4519 146.875 65C146.875 61.5481 144.077 58.75 140.625 58.75C138.554 58.75 136.875 57.0705 136.875 54.9992H138.125C138.125 56.3805 139.244 57.5 140.625 57.5C144.767 57.5 148.125 60.8581 148.125 65C148.125 69.1419 144.767 72.5 140.625 72.5C139.244 72.5 138.125 73.6188 138.125 75H136.875ZM133.125 75C133.125 72.9287 131.446 71.25 129.375 71.25C125.923 71.25 123.125 68.4519 123.125 65C123.125 61.5481 125.923 58.75 129.375 58.75C131.446 58.75 133.125 57.0705 133.125 54.9992H131.875C131.875 56.3805 130.756 57.5 129.375 57.5C125.233 57.5 121.875 60.8581 121.875 65C121.875 69.1419 125.233 72.5 129.375 72.5C130.756 72.5 131.875 73.6188 131.875 75H133.125Z" fill="#DCDCDC"/>
<path fill-rule="evenodd" clip-rule="evenodd" d="M76.875 15C76.875 12.9287 78.5537 11.25 80.625 11.25C84.0769 11.25 86.875 8.45187 86.875 5C86.875 1.54813 84.0769 -1.25 80.625 -1.25C78.5537 -1.25 76.875 -2.92875 76.875 -5H78.125C78.125 -3.61875 79.2438 -2.5 80.625 -2.5C84.7669 -2.5 88.125 0.858125 88.125 5C88.125 9.14187 84.7669 12.5 80.625 12.5C79.2438 12.5 78.125 13.6187 78.125 15H76.875ZM73.125 15C73.125 12.9287 71.4463 11.25 69.375 11.25C65.9231 11.25 63.125 8.45187 63.125 5C63.125 1.54813 65.9231 -1.25 69.375 -1.25C71.4463 -1.25 73.125 -2.92875 73.125 -5H71.875C71.875 -3.61875 70.7562 -2.5 69.375 -2.5C65.2331 -2.5 61.875 0.858125 61.875 5C61.875 9.14187 65.2331 12.5 69.375 12.5C70.7562 12.5 71.875 13.6187 71.875 15H73.125Z" fill="#DCDCDC"/>
<path fill-rule="evenodd" clip-rule="evenodd" d="M76.875 34.9984C76.875 32.9272 78.5537 31.2484 80.625 31.2484C84.0769 31.2484 86.875 28.4503 86.875 24.9984C86.875 21.5465 84.0769 18.7484 80.625 18.7484C78.5537 18.7484 76.875 17.0697 76.875 14.9984H78.125C78.125 16.3797 79.2438 17.4984 80.625 17.4984C84.7669 17.4984 88.125 20.8565 88.125 24.9984C88.125 29.1403 84.7669 32.4984 80.625 32.4984C79.2438 32.4984 78.125 33.6172 78.125 34.9984H76.875ZM73.125 34.9984C73.125 32.9272 71.4463 31.2484 69.375 31.2484C65.9231 31.2484 63.125 28.4503 63.125 24.9984C63.125 21.5465 65.9231 18.7484 69.375 18.7484C71.4463 18.7484 73.125 17.0697 73.125 14.9984H71.875C71.875 16.3797 70.7562 17.4984 69.375 17.4984C65.2331 17.4984 61.875 20.8565 61.875 24.9984C61.875 29.1403 65.2331 32.4984 69.375 32.4984C70.7562 32.4984 71.875 33.6172 71.875 34.9984H73.125Z" fill="#DCDCDC"/>
<path fill-rule="evenodd" clip-rule="evenodd" d="M76.875 54.9992C76.875 52.928 78.5537 51.2492 80.625 51.2492C84.0769 51.2492 86.875 48.4511 86.875 44.9992C86.875 41.5473 84.0769 38.7492 80.625 38.7492C78.5537 38.7492 76.875 37.0697 76.875 34.9984H78.125C78.125 36.3797 79.2438 37.4992 80.625 37.4992C84.7669 37.4992 88.125 40.8573 88.125 44.9992C88.125 49.1411 84.7669 52.4992 80.625 52.4992C79.2438 52.4992 78.125 53.618 78.125 54.9992H76.875ZM73.125 54.9992C73.125 52.928 71.4463 51.2492 69.375 51.2492C65.9231 51.2492 63.125 48.4511 63.125 44.9992C63.125 41.5473 65.9231 38.7492 69.375 38.7492C71.4463 38.7492 73.125 37.0697 73.125 34.9984H71.875C71.875 36.3797 70.7562 37.4992 69.375 37.4992C65.2331 37.4992 61.875 40.8573 61.875 44.9992C61.875 49.1411 65.2331 52.4992 69.375 52.4992C70.7562 52.4992 71.875 53.618 71.875 54.9992H73.125Z" fill="#DCDCDC"/>
<path fill-rule="evenodd" clip-rule="evenodd" d="M16.875 94.9984C16.875 92.9272 18.5537 91.2484 20.625 91.2484C24.0769 91.2484 26.875 88.4503 26.875 84.9984C26.875 81.5465 24.0769 78.7484 20.625 78.7484C18.5537 78.7484 16.875 77.0697 16.875 74.9984H18.125C18.125 76.3797 19.2437 77.4984 20.625 77.4984C24.7669 77.4984 28.125 80.8565 28.125 84.9984C28.125 89.1403 24.7669 92.4984 20.625 92.4984C19.2437 92.4984 18.125 93.6172 18.125 94.9984H16.875ZM13.125 94.9984C13.125 92.9272 11.4462 91.2484 9.375 91.2484C5.92313 91.2484 3.125 88.4503 3.125 84.9984C3.125 81.5465 5.92313 78.7484 9.375 78.7484C11.4462 78.7484 13.125 77.0697 13.125 74.9984H11.875C11.875 76.3797 10.7563 77.4984 9.375 77.4984C5.23313 77.4984 1.875 80.8565 1.875 84.9984C1.875 89.1403 5.23313 92.4984 9.375 92.4984C10.7563 92.4984 11.875 93.6172 11.875 94.9984H13.125Z" fill="#DCDCDC"/>
<path fill-rule="evenodd" clip-rule="evenodd" d="M106.875 94.9984C106.875 92.9272 108.554 91.2484 110.625 91.2484C114.077 91.2484 116.875 88.4503 116.875 84.9984C116.875 81.5465 114.077 78.7484 110.625 78.7484C108.554 78.7484 106.875 77.0697 106.875 74.9984H108.125C108.125 76.3797 109.244 77.4984 110.625 77.4984C114.767 77.4984 118.125 80.8565 118.125 84.9984C118.125 89.1403 114.767 92.4984 110.625 92.4984C109.244 92.4984 108.125 93.6172 108.125 94.9984H106.875ZM103.125 94.9984C103.125 92.9272 101.446 91.2484 99.375 91.2484C95.9231 91.2484 93.125 88.4503 93.125 84.9984C93.125 81.5465 95.9231 78.7484 99.375 78.7484C101.446 78.7484 103.125 77.0697 103.125 74.9984H101.875C101.875 76.3797 100.756 77.4984 99.375 77.4984C95.2331 77.4984 91.875 80.8565 91.875 84.9984C91.875 89.1403 95.2331 92.4984 99.375 92.4984C100.756 92.4984 101.875 93.6172 101.875 94.9984H103.125Z" fill="#DCDCDC"/>
<path fill-rule="evenodd" clip-rule="evenodd" d="M16.875 114.999C16.875 112.928 18.5537 111.249 20.625 111.249C24.0769 111.249 26.875 108.451 26.875 104.999C26.875 101.547 24.0769 98.7492 20.625 98.7492C18.5537 98.7492 16.875 97.0697 16.875 94.9984H18.125C18.125 96.3797 19.2437 97.4992 20.625 97.4992C24.7669 97.4992 28.125 100.857 28.125 104.999C28.125 109.141 24.7669 112.499 20.625 112.499C19.2437 112.499 18.125 113.618 18.125 114.999H16.875ZM13.125 114.999C13.125 112.928 11.4462 111.249 9.375 111.249C5.92313 111.249 3.125 108.451 3.125 104.999C3.125 101.547 5.92313 98.7492 9.375 98.7492C11.4462 98.7492 13.125 97.0697 13.125 94.9984H11.875C11.875 96.3797 10.7563 97.4992 9.375 97.4992C5.23313 97.4992 1.875 100.857 1.875 104.999C1.875 109.141 5.23313 112.499 9.375 112.499C10.7563 112.499 11.875 113.618 11.875 114.999H13.125Z" fill="#DCDCDC"/>
<path fill-rule="evenodd" clip-rule="evenodd" d="M106.875 114.999C106.875 112.928 108.554 111.249 110.625 111.249C114.077 111.249 116.875 108.451 116.875 104.999C116.875 101.547 114.077 98.7492 110.625 98.7492C108.554 98.7492 106.875 97.0697 106.875 94.9984H108.125C108.125 96.3797 109.244 97.4992 110.625 97.4992C114.767 97.4992 118.125 100.857 118.125 104.999C118.125 109.141 114.767 112.499 110.625 112.499C109.244 112.499 108.125 113.618 108.125 114.999H106.875ZM103.125 114.999C103.125 112.928 101.446 111.249 99.375 111.249C95.9231 111.249 93.125 108.451 93.125 104.999C93.125 101.547 95.9231 98.7492 99.375 98.7492C101.446 98.7492 103.125 97.0697 103.125 94.9984H101.875C101.875 96.3797 100.756 97.4992 99.375 97.4992C95.2331 97.4992 91.875 100.857 91.875 104.999C91.875 109.141 95.2331 112.499 99.375 112.499C100.756 112.499 101.875 113.618 101.875 114.999H103.125Z" fill="#DCDCDC"/>
<path fill-rule="evenodd" clip-rule="evenodd" d="M16.875 135C16.875 132.929 18.5537 131.25 20.625 131.25C24.0769 131.25 26.875 128.452 26.875 125C26.875 121.548 24.0769 118.75 20.625 118.75C18.5537 118.75 16.875 117.07 16.875 114.999H18.125C18.125 116.38 19.2437 117.5 20.625 117.5C24.7669 117.5 28.125 120.858 28.125 125C28.125 129.142 24.7669 132.5 20.625 132.5C19.2437 132.5 18.125 133.619 18.125 135H16.875ZM13.125 135C13.125 132.929 11.4462 131.25 9.375 131.25C5.92313 131.25 3.125 128.452 3.125 125C3.125 121.548 5.92313 118.75 9.375 118.75C11.4462 118.75 13.125 117.07 13.125 114.999H11.875C11.875 116.38 10.7563 117.5 9.375 117.5C5.23313 117.5 1.875 120.858 1.875 125C1.875 129.142 5.23313 132.5 9.375 132.5C10.7563 132.5 11.875 133.619 11.875 135H13.125Z" fill="#DCDCDC"/>
<path fill-rule="evenodd" clip-rule="evenodd" d="M106.875 135C106.875 132.929 108.554 131.25 110.625 131.25C114.077 131.25 116.875 128.452 116.875 125C116.875 121.548 114.077 118.75 110.625 118.75C108.554 118.75 106.875 117.07 106.875 114.999H108.125C108.125 116.38 109.244 117.5 110.625 117.5C114.767 117.5 118.125 120.858 118.125 125C118.125 129.142 114.767 132.5 110.625 132.5C109.244 132.5 108.125 133.619 108.125 135H106.875ZM103.125 135C103.125 132.929 101.446 131.25 99.375 131.25C95.9231 131.25 93.125 128.452 93.125 125C93.125 121.548 95.9231 118.75 99.375 118.75C101.446 118.75 103.125 117.07 103.125 114.999H101.875C101.875 116.38 100.756 117.5 99.375 117.5C95.2331 117.5 91.875 120.858 91.875 125C91.875 129.142 95.2331 132.5 99.375 132.5C100.756 132.5 101.875 133.619 101.875 135H103.125Z" fill="#DCDCDC"/>
<path fill-rule="evenodd" clip-rule="evenodd" d="M16.875 154.998C16.875 152.927 18.5537 151.248 20.625 151.248C24.0769 151.248 26.875 148.45 26.875 144.998C26.875 141.547 24.0769 138.748 20.625 138.748C18.5537 138.748 16.875 137.07 16.875 134.998H18.125C18.125 136.38 19.2437 137.498 20.625 137.498C24.7669 137.498 28.125 140.857 28.125 144.998C28.125 149.14 24.7669 152.498 20.625 152.498C19.2437 152.498 18.125 153.617 18.125 154.998H16.875ZM13.125 154.998C13.125 152.927 11.4462 151.248 9.375 151.248C5.92313 151.248 3.125 148.45 3.125 144.998C3.125 141.547 5.92313 138.748 9.375 138.748C11.4462 138.748 13.125 137.07 13.125 134.998H11.875C11.875 136.38 10.7563 137.498 9.375 137.498C5.23313 137.498 1.875 140.857 1.875 144.998C1.875 149.14 5.23313 152.498 9.375 152.498C10.7563 152.498 11.875 153.617 11.875 154.998H13.125Z" fill="#DCDCDC"/>
<path fill-rule="evenodd" clip-rule="evenodd" d="M106.875 154.998C106.875 152.927 108.554 151.248 110.625 151.248C114.077 151.248 116.875 148.45 116.875 144.998C116.875 141.547 114.077 138.748 110.625 138.748C108.554 138.748 106.875 137.07 106.875 134.998H108.125C108.125 136.38 109.244 137.498 110.625 137.498C114.767 137.498 118.125 140.857 118.125 144.998C118.125 149.14 114.767 152.498 110.625 152.498C109.244 152.498 108.125 153.617 108.125 154.998H106.875ZM103.125 154.998C103.125 152.927 101.446 151.248 99.375 151.248C95.9231 151.248 93.125 148.45 93.125 144.998C93.125 141.547 95.9231 138.748 99.375 138.748C101.446 138.748 103.125 137.07 103.125 134.998H101.875C101.875 136.38 100.756 137.498 99.375 137.498C95.2331 137.498 91.875 140.857 91.875 144.998C91.875 149.14 95.2331 152.498 99.375 152.498C100.756 152.498 101.875 153.617 101.875 154.998H103.125Z" fill="#DCDCDC"/>
<path fill-rule="evenodd" clip-rule="evenodd" d="M46.875 94.9984C46.875 92.9272 48.5537 91.2484 50.625 91.2484C54.0769 91.2484 56.875 88.4503 56.875 84.9984C56.875 81.5465 54.0769 78.7484 50.625 78.7484C48.5537 78.7484 46.875 77.0697 46.875 74.9984H48.125C48.125 76.3797 49.2438 77.4984 50.625 77.4984C54.7669 77.4984 58.125 80.8565 58.125 84.9984C58.125 89.1403 54.7669 92.4984 50.625 92.4984C49.2438 92.4984 48.125 93.6172 48.125 94.9984H46.875ZM43.125 94.9984C43.125 92.9272 41.4463 91.2484 39.375 91.2484C35.9231 91.2484 33.125 88.4503 33.125 84.9984C33.125 81.5465 35.9231 78.7484 39.375 78.7484C41.4463 78.7484 43.125 77.0697 43.125 74.9984H41.875C41.875 76.3797 40.7562 77.4984 39.375 77.4984C35.2331 77.4984 31.875 80.8565 31.875 84.9984C31.875 89.1403 35.2331 92.4984 39.375 92.4984C40.7562 92.4984 41.875 93.6172 41.875 94.9984H43.125Z" fill="#DCDCDC"/>
<path fill-rule="evenodd" clip-rule="evenodd" d="M136.875 94.9984C136.875 92.9272 138.554 91.2484 140.625 91.2484C144.077 91.2484 146.875 88.4503 146.875 84.9984C146.875 81.5465 144.077 78.7484 140.625 78.7484C138.554 78.7484 136.875 77.0697 136.875 74.9984H138.125C138.125 76.3797 139.244 77.4984 140.625 77.4984C144.767 77.4984 148.125 80.8565 148.125 84.9984C148.125 89.1403 144.767 92.4984 140.625 92.4984C139.244 92.4984 138.125 93.6172 138.125 94.9984H136.875ZM133.125 94.9984C133.125 92.9272 131.446 91.2484 129.375 91.2484C125.923 91.2484 123.125 88.4503 123.125 84.9984C123.125 81.5465 125.923 78.7484 129.375 78.7484C131.446 78.7484 133.125 77.0697 133.125 74.9984H131.875C131.875 76.3797 130.756 77.4984 129.375 77.4984C125.233 77.4984 121.875 80.8565 121.875 84.9984C121.875 89.1403 125.233 92.4984 129.375 92.4984C130.756 92.4984 131.875 93.6172 131.875 94.9984H133.125Z" fill="#DCDCDC"/>
<path fill-rule="evenodd" clip-rule="evenodd" d="M46.875 114.999C46.875 112.928 48.5537 111.249 50.625 111.249C54.0769 111.249 56.875 108.451 56.875 104.999C56.875 101.547 54.0769 98.7492 50.625 98.7492C48.5537 98.7492 46.875 97.0697 46.875 94.9984H48.125C48.125 96.3797 49.2438 97.4992 50.625 97.4992C54.7669 97.4992 58.125 100.857 58.125 104.999C58.125 109.141 54.7669 112.499 50.625 112.499C49.2438 112.499 48.125 113.618 48.125 114.999H46.875ZM43.125 114.999C43.125 112.928 41.4463 111.249 39.375 111.249C35.9231 111.249 33.125 108.451 33.125 104.999C33.125 101.547 35.9231 98.7492 39.375 98.7492C41.4463 98.7492 43.125 97.0697 43.125 94.9984H41.875C41.875 96.3797 40.7562 97.4992 39.375 97.4992C35.2331 97.4992 31.875 100.857 31.875 104.999C31.875 109.141 35.2331 112.499 39.375 112.499C40.7562 112.499 41.875 113.618 41.875 114.999H43.125Z" fill="#DCDCDC"/>
<path fill-rule="evenodd" clip-rule="evenodd" d="M136.875 114.999C136.875 112.928 138.554 111.249 140.625 111.249C144.077 111.249 146.875 108.451 146.875 104.999C146.875 101.547 144.077 98.7492 140.625 98.7492C138.554 98.7492 136.875 97.0697 136.875 94.9984H138.125C138.125 96.3797 139.244 97.4992 140.625 97.4992C144.767 97.4992 148.125 100.857 148.125 104.999C148.125 109.141 144.767 112.499 140.625 112.499C139.244 112.499 138.125 113.618 138.125 114.999H136.875ZM133.125 114.999C133.125 112.928 131.446 111.249 129.375 111.249C125.923 111.249 123.125 108.451 123.125 104.999C123.125 101.547 125.923 98.7492 129.375 98.7492C131.446 98.7492 133.125 97.0697 133.125 94.9984H131.875C131.875 96.3797 130.756 97.4992 129.375 97.4992C125.233 97.4992 121.875 100.857 121.875 104.999C121.875 109.141 125.233 112.499 129.375 112.499C130.756 112.499 131.875 113.618 131.875 114.999H133.125Z" fill="#DCDCDC"/>
<path fill-rule="evenodd" clip-rule="evenodd" d="M46.875 135C46.875 132.929 48.5537 131.25 50.625 131.25C54.0769 131.25 56.875 128.452 56.875 125C56.875 121.548 54.0769 118.75 50.625 118.75C48.5537 118.75 46.875 117.07 46.875 114.999H48.125C48.125 116.38 49.2438 117.5 50.625 117.5C54.7669 117.5 58.125 120.858 58.125 125C58.125 129.142 54.7669 132.5 50.625 132.5C49.2438 132.5 48.125 133.619 48.125 135H46.875ZM43.125 135C43.125 132.929 41.4463 131.25 39.375 131.25C35.9231 131.25 33.125 128.452 33.125 125C33.125 121.548 35.9231 118.75 39.375 118.75C41.4463 118.75 43.125 117.07 43.125 114.999H41.875C41.875 116.38 40.7562 117.5 39.375 117.5C35.2331 117.5 31.875 120.858 31.875 125C31.875 129.142 35.2331 132.5 39.375 132.5C40.7562 132.5 41.875 133.619 41.875 135H43.125Z" fill="#DCDCDC"/>
<path fill-rule="evenodd" clip-rule="evenodd" d="M136.875 135C136.875 132.929 138.554 131.25 140.625 131.25C144.077 131.25 146.875 128.452 146.875 125C146.875 121.548 144.077 118.75 140.625 118.75C138.554 118.75 136.875 117.07 136.875 114.999H138.125C138.125 116.38 139.244 117.5 140.625 117.5C144.767 117.5 148.125 120.858 148.125 125C148.125 129.142 144.767 132.5 140.625 132.5C139.244 132.5 138.125 133.619 138.125 135H136.875ZM133.125 135C133.125 132.929 131.446 131.25 129.375 131.25C125.923 131.25 123.125 128.452 123.125 125C123.125 121.548 125.923 118.75 129.375 118.75C131.446 118.75 133.125 117.07 133.125 114.999H131.875C131.875 116.38 130.756 117.5 129.375 117.5C125.233 117.5 121.875 120.858 121.875 125C121.875 129.142 125.233 132.5 129.375 132.5C130.756 132.5 131.875 133.619 131.875 135H133.125Z" fill="#DCDCDC"/>
<path fill-rule="evenodd" clip-rule="evenodd" d="M46.875 154.998C46.875 152.927 48.5537 151.248 50.625 151.248C54.0769 151.248 56.875 148.45 56.875 144.998C56.875 141.547 54.0769 138.748 50.625 138.748C48.5537 138.748 46.875 137.07 46.875 134.998H48.125C48.125 136.38 49.2438 137.498 50.625 137.498C54.7669 137.498 58.125 140.857 58.125 144.998C58.125 149.14 54.7669 152.498 50.625 152.498C49.2438 152.498 48.125 153.617 48.125 154.998H46.875ZM43.125 154.998C43.125 152.927 41.4463 151.248 39.375 151.248C35.9231 151.248 33.125 148.45 33.125 144.998C33.125 141.547 35.9231 138.748 39.375 138.748C41.4463 138.748 43.125 137.07 43.125 134.998H41.875C41.875 136.38 40.7562 137.498 39.375 137.498C35.2331 137.498 31.875 140.857 31.875 144.998C31.875 149.14 35.2331 152.498 39.375 152.498C40.7562 152.498 41.875 153.617 41.875 154.998H43.125Z" fill="#DCDCDC"/>
<path fill-rule="evenodd" clip-rule="evenodd" d="M136.875 154.998C136.875 152.927 138.554 151.248 140.625 151.248C144.077 151.248 146.875 148.45 146.875 144.998C146.875 141.547 144.077 138.748 140.625 138.748C138.554 138.748 136.875 137.07 136.875 134.998H138.125C138.125 136.38 139.244 137.498 140.625 137.498C144.767 137.498 148.125 140.857 148.125 144.998C148.125 149.14 144.767 152.498 140.625 152.498C139.244 152.498 138.125 153.617 138.125 154.998H136.875ZM133.125 154.998C133.125 152.927 131.446 151.248 129.375 151.248C125.923 151.248 123.125 148.45 123.125 144.998C123.125 141.547 125.923 138.748 129.375 138.748C131.446 138.748 133.125 137.07 133.125 134.998H131.875C131.875 136.38 130.756 137.498 129.375 137.498C125.233 137.498 121.875 140.857 121.875 144.998C121.875 149.14 125.233 152.498 129.375 152.498C130.756 152.498 131.875 153.617 131.875 154.998H133.125Z" fill="#DCDCDC"/>
<path fill-rule="evenodd" clip-rule="evenodd" d="M76.875 94.9984C76.875 92.9272 78.5537 91.2484 80.625 91.2484C84.0769 91.2484 86.875 88.4503 86.875 84.9984C86.875 81.5465 84.0769 78.7484 80.625 78.7484C78.5537 78.7484 76.875 77.0697 76.875 74.9984H78.125C78.125 76.3797 79.2438 77.4984 80.625 77.4984C84.7669 77.4984 88.125 80.8565 88.125 84.9984C88.125 89.1403 84.7669 92.4984 80.625 92.4984C79.2438 92.4984 78.125 93.6172 78.125 94.9984H76.875ZM73.125 94.9984C73.125 92.9272 71.4463 91.2484 69.375 91.2484C65.9231 91.2484 63.125 88.4503 63.125 84.9984C63.125 81.5465 65.9231 78.7484 69.375 78.7484C71.4463 78.7484 73.125 77.0697 73.125 74.9984H71.875C71.875 76.3797 70.7562 77.4984 69.375 77.4984C65.2331 77.4984 61.875 80.8565 61.875 84.9984C61.875 89.1403 65.2331 92.4984 69.375 92.4984C70.7562 92.4984 71.875 93.6172 71.875 94.9984H73.125Z" fill="#DCDCDC"/>
<path fill-rule="evenodd" clip-rule="evenodd" d="M76.875 114.999C76.875 112.928 78.5537 111.249 80.625 111.249C84.0769 111.249 86.875 108.451 86.875 104.999C86.875 101.547 84.0769 98.7492 80.625 98.7492C78.5537 98.7492 76.875 97.0697 76.875 94.9984H78.125C78.125 96.3797 79.2438 97.4992 80.625 97.4992C84.7669 97.4992 88.125 100.857 88.125 104.999C88.125 109.141 84.7669 112.499 80.625 112.499C79.2438 112.499 78.125 113.618 78.125 114.999H76.875ZM73.125 114.999C73.125 112.928 71.4463 111.249 69.375 111.249C65.9231 111.249 63.125 108.451 63.125 104.999C63.125 101.547 65.9231 98.7492 69.375 98.7492C71.4463 98.7492 73.125 97.0697 73.125 94.9984H71.875C71.875 96.3797 70.7562 97.4992 69.375 97.4992C65.2331 97.4992 61.875 100.857 61.875 104.999C61.875 109.141 65.2331 112.499 69.375 112.499C70.7562 112.499 71.875 113.618 71.875 114.999H73.125Z" fill="#DCDCDC"/>
<path fill-rule="evenodd" clip-rule="evenodd" d="M76.875 135C76.875 132.929 78.5537 131.25 80.625 131.25C84.0769 131.25 86.875 128.452 86.875 125C86.875 121.548 84.0769 118.75 80.625 118.75C78.5537 118.75 76.875 117.07 76.875 114.999H78.125C78.125 116.38 79.2438 117.5 80.625 117.5C84.7669 117.5 88.125 120.858 88.125 125C88.125 129.142 84.7669 132.5 80.625 132.5C79.2438 132.5 78.125 133.619 78.125 135H76.875ZM73.125 135C73.125 132.929 71.4463 131.25 69.375 131.25C65.9231 131.25 63.125 128.452 63.125 125C63.125 121.548 65.9231 118.75 69.375 118.75C71.4463 118.75 73.125 117.07 73.125 114.999H71.875C71.875 116.38 70.7562 117.5 69.375 117.5C65.2331 117.5 61.875 120.858 61.875 125C61.875 129.142 65.2331 132.5 69.375 132.5C70.7562 132.5 71.875 133.619 71.875 135H73.125Z" fill="#DCDCDC"/>
<path fill-rule="evenodd" clip-rule="evenodd" d="M76.875 154.998C76.875 152.927 78.5537 151.248 80.625 151.248C84.0769 151.248 86.875 148.45 86.875 144.998C86.875 141.547 84.0769 138.748 80.625 138.748C78.5537 138.748 76.875 137.07 76.875 134.998H78.125C78.125 136.38 79.2438 137.498 80.625 137.498C84.7669 137.498 88.125 140.857 88.125 144.998C88.125 149.14 84.7669 152.498 80.625 152.498C79.2438 152.498 78.125 153.617 78.125 154.998H76.875ZM73.125 154.998C73.125 152.927 71.4463 151.248 69.375 151.248C65.9231 151.248 63.125 148.45 63.125 144.998C63.125 141.547 65.9231 138.748 69.375 138.748C71.4463 138.748 73.125 137.07 73.125 134.998H71.875C71.875 136.38 70.7562 137.498 69.375 137.498C65.2331 137.498 61.875 140.857 61.875 144.998C61.875 149.14 65.2331 152.498 69.375 152.498C70.7562 152.498 71.875 153.617 71.875 154.998H73.125Z" fill="#DCDCDC"/>
<path fill-rule="evenodd" clip-rule="evenodd" d="M76.875 75C76.875 72.9287 78.5537 71.25 80.625 71.25C84.0769 71.25 86.875 68.4519 86.875 65C86.875 61.5481 84.0769 58.75 80.625 58.75C78.5537 58.75 76.875 57.0705 76.875 54.9992H78.125C78.125 56.3805 79.2438 57.5 80.625 57.5C84.7669 57.5 88.125 60.8581 88.125 65C88.125 69.1419 84.7669 72.5 80.625 72.5C79.2438 72.5 78.125 73.6188 78.125 75H76.875ZM73.125 75C73.125 72.9287 71.4463 71.25 69.375 71.25C65.9231 71.25 63.125 68.4519 63.125 65C63.125 61.5481 65.9231 58.75 69.375 58.75C71.4463 58.75 73.125 57.0705 73.125 54.9992H71.875C71.875 56.3805 70.7562 57.5 69.375 57.5C65.2331 57.5 61.875 60.8581 61.875 65C61.875 69.1419 65.2331 72.5 69.375 72.5C70.7562 72.5 71.875 73.6188 71.875 75H73.125Z" fill="#DCDCDC"/>
</g>
<path fill-rule="evenodd" clip-rule="evenodd" d="M75 133C107.033 133 133 107.033 133 75C133 42.9675 107.033 17 75 17C42.9675 17 17 42.9675 17 75C17 107.033 42.9675 133 75 133ZM135 75C135 108.137 108.137 135 75 135C41.8629 135 15 108.137 15 75C15 41.8629 41.8629 15 75 15C108.137 15 135 41.8629 135 75Z" fill="black"/>
<path fill-rule="evenodd" clip-rule="evenodd" d="M11.3333 0H138.667C144.928 0 150 5.07209 150 11.3333V138.667C150 144.928 144.928 150 138.667 150H11.3333C5.07209 150 0 144.928 0 138.667V11.3333C0 5.0721 5.0721 0 11.3333 0ZM11.3333 2H138.667C143.823 2 148 6.17667 148 11.3333V138.667C148 143.823 143.823 148 138.667 148H11.3333C6.17667 148 2 143.823 2 138.667V11.3333C2 6.17667 6.17667 2 11.3333 2Z" fill="#E2E2E2"/>
</svg>
