<svg width="201" height="100" viewBox="0 0 201 100" fill="none" xmlns="http://www.w3.org/2000/svg">
<path d="M86.176 98C79.3493 98 73.376 96.5707 68.256 93.712C63.136 90.8533 59.1467 86.864 56.288 81.744C53.4293 76.624 52 70.6507 52 63.824V36.176C52 29.3493 53.4293 23.376 56.288 18.256C59.1467 13.136 63.136 9.14666 68.256 6.28799C73.376 3.42933 79.3493 2 86.176 2C93.0027 2 98.976 3.42933 104.096 6.28799C109.216 9.14666 113.205 13.136 116.064 18.256C118.923 23.376 120.352 29.3493 120.352 36.176V63.824C120.352 70.6507 118.923 76.624 116.064 81.744C113.205 86.864 109.216 90.8533 104.096 93.712C98.976 96.5707 93.0027 98 86.176 98ZM86.176 81.488C89.248 81.488 92.0213 80.7627 94.496 79.312C96.9707 77.8613 98.9333 75.8987 100.384 73.424C101.835 70.9493 102.56 68.176 102.56 65.104V34.768C102.56 31.696 101.835 28.9227 100.384 26.448C98.9333 23.9733 96.9707 22.0107 94.496 20.56C92.0213 19.1093 89.248 18.384 86.176 18.384C83.104 18.384 80.3307 19.1093 77.856 20.56C75.3813 22.0107 73.4187 23.9733 71.968 26.448C70.5173 28.9227 69.792 31.696 69.792 34.768V65.104C69.792 68.176 70.5173 70.9493 71.968 73.424C73.4187 75.8987 75.3813 77.8613 77.856 79.312C80.3307 80.7627 83.104 81.488 86.176 81.488Z" fill="black"/>
<path d="M166.028 98C159.201 98 153.228 96.5707 148.108 93.712C142.988 90.8533 138.998 86.864 136.14 81.744C133.281 76.624 131.852 70.6507 131.852 63.824V36.176C131.852 29.3493 133.281 23.376 136.14 18.256C138.998 13.136 142.988 9.14666 148.108 6.28799C153.228 3.42933 159.201 2 166.028 2C172.854 2 178.828 3.42933 183.948 6.28799C189.068 9.14666 193.057 13.136 195.916 18.256C198.774 23.376 200.204 29.3493 200.204 36.176V63.824C200.204 70.6507 198.774 76.624 195.916 81.744C193.057 86.864 189.068 90.8533 183.948 93.712C178.828 96.5707 172.854 98 166.028 98ZM166.028 81.488C169.1 81.488 171.873 80.7627 174.348 79.312C176.822 77.8613 178.785 75.8987 180.236 73.424C181.686 70.9493 182.412 68.176 182.412 65.104V34.768C182.412 31.696 181.686 28.9227 180.236 26.448C178.785 23.9733 176.822 22.0107 174.348 20.56C171.873 19.1093 169.1 18.384 166.028 18.384C162.956 18.384 160.182 19.1093 157.708 20.56C155.233 22.0107 153.27 23.9733 151.82 26.448C150.369 28.9227 149.644 31.696 149.644 34.768V65.104C149.644 68.176 150.369 70.9493 151.82 73.424C153.27 75.8987 155.233 77.8613 157.708 79.312C160.182 80.7627 162.956 81.488 166.028 81.488Z" fill="#F44336"/>
</svg>
