<svg width="235" height="150" viewBox="0 0 235 150" fill="none" xmlns="http://www.w3.org/2000/svg">
<path d="M112.035 122.922C105.209 122.922 99.2354 121.493 94.1154 118.634C88.9954 115.775 85.006 111.786 82.1474 106.666C79.2887 101.546 77.8594 95.5725 77.8594 88.7459V61.0979C77.8594 54.2712 79.2887 48.2979 82.1474 43.1779C85.006 38.0579 88.9954 34.0685 94.1154 31.2099C99.2354 28.3512 105.209 26.9219 112.035 26.9219C118.862 26.9219 124.835 28.3512 129.955 31.2099C135.075 34.0685 139.065 38.0579 141.923 43.1779C144.782 48.2979 146.211 54.2712 146.211 61.0979V88.7459C146.211 95.5725 144.782 101.546 141.923 106.666C139.065 111.786 135.075 115.775 129.955 118.634C124.835 121.493 118.862 122.922 112.035 122.922ZM112.035 106.41C115.107 106.41 117.881 105.685 120.355 104.234C122.83 102.783 124.793 100.821 126.243 98.3459C127.694 95.8712 128.419 93.0979 128.419 90.0259V59.6899C128.419 56.6179 127.694 53.8445 126.243 51.3699C124.793 48.8952 122.83 46.9325 120.355 45.4819C117.881 44.0312 115.107 43.3059 112.035 43.3059C108.963 43.3059 106.19 44.0312 103.715 45.4819C101.241 46.9325 99.278 48.8952 97.8274 51.3699C96.3767 53.8445 95.6514 56.6179 95.6514 59.6899V90.0259C95.6514 93.0979 96.3767 95.8712 97.8274 98.3459C99.278 100.821 101.241 102.783 103.715 104.234C106.19 105.685 108.963 106.41 112.035 106.41Z" fill="black"/>
<path d="M191.887 122.922C185.06 122.922 179.087 121.493 173.967 118.634C168.847 115.775 164.858 111.786 161.999 106.666C159.14 101.546 157.711 95.5725 157.711 88.7459V61.0979C157.711 54.2712 159.14 48.2979 161.999 43.1779C164.858 38.0579 168.847 34.0685 173.967 31.2099C179.087 28.3512 185.06 26.9219 191.887 26.9219C198.714 26.9219 204.687 28.3512 209.807 31.2099C214.927 34.0685 218.916 38.0579 221.775 43.1779C224.634 48.2979 226.063 54.2712 226.063 61.0979V88.7459C226.063 95.5725 224.634 101.546 221.775 106.666C218.916 111.786 214.927 115.775 209.807 118.634C204.687 121.493 198.714 122.922 191.887 122.922ZM191.887 106.41C194.959 106.41 197.732 105.685 200.207 104.234C202.682 102.783 204.644 100.821 206.095 98.3459C207.546 95.8712 208.271 93.0979 208.271 90.0259V59.6899C208.271 56.6179 207.546 53.8445 206.095 51.3699C204.644 48.8952 202.682 46.9325 200.207 45.4819C197.732 44.0312 194.959 43.3059 191.887 43.3059C188.815 43.3059 186.042 44.0312 183.567 45.4819C181.092 46.9325 179.13 48.8952 177.679 51.3699C176.228 53.8445 175.503 56.6179 175.503 59.6899V90.0259C175.503 93.0979 176.228 95.8712 177.679 98.3459C179.13 100.821 181.092 102.783 183.567 104.234C186.042 105.685 188.815 106.41 191.887 106.41Z" fill="#F44336"/>
</svg>
