<svg width="235" height="150" viewBox="0 0 235 150" fill="none" xmlns="http://www.w3.org/2000/svg">
<path d="M109.186 121V47.7838L91.9062 58.4078V39.2078L109.186 28.8398H126.978V121H109.186Z" fill="black"/>
<path d="M191.887 122.922C185.06 122.922 179.087 121.493 173.967 118.634C168.847 115.775 164.858 111.786 161.999 106.666C159.14 101.546 157.711 95.5725 157.711 88.7459V61.0979C157.711 54.2712 159.14 48.2979 161.999 43.1779C164.858 38.0579 168.847 34.0685 173.967 31.2099C179.087 28.3512 185.06 26.9219 191.887 26.9219C198.714 26.9219 204.687 28.3512 209.807 31.2099C214.927 34.0685 218.916 38.0579 221.775 43.1779C224.634 48.2979 226.063 54.2712 226.063 61.0979V88.7459C226.063 95.5725 224.634 101.546 221.775 106.666C218.916 111.786 214.927 115.775 209.807 118.634C204.687 121.493 198.714 122.922 191.887 122.922ZM191.887 106.41C194.959 106.41 197.732 105.685 200.207 104.234C202.682 102.783 204.644 100.821 206.095 98.3459C207.546 95.8712 208.271 93.0979 208.271 90.0259V59.6899C208.271 56.6179 207.546 53.8445 206.095 51.3699C204.644 48.8952 202.682 46.9325 200.207 45.4819C197.732 44.0312 194.959 43.3059 191.887 43.3059C188.815 43.3059 186.042 44.0312 183.567 45.4819C181.092 46.9325 179.13 48.8952 177.679 51.3699C176.228 53.8445 175.503 56.6179 175.503 59.6899V90.0259C175.503 93.0979 176.228 95.8712 177.679 98.3459C179.13 100.821 181.092 102.783 183.567 104.234C186.042 105.685 188.815 106.41 191.887 106.41Z" fill="#0080FD"/>
</svg>
