<svg width="201" height="100" viewBox="0 0 201 100" fill="none" xmlns="http://www.w3.org/2000/svg">
<path d="M83.28 96.078V22.862L66 33.486V14.286L83.28 3.91797H101.072V96.078H83.28Z" fill="black"/>
<path d="M165.981 98C159.154 98 153.181 96.5707 148.061 93.712C142.941 90.8533 138.951 86.864 136.093 81.744C133.234 76.624 131.805 70.6507 131.805 63.824V36.176C131.805 29.3493 133.234 23.376 136.093 18.256C138.951 13.136 142.941 9.14666 148.061 6.28799C153.181 3.42933 159.154 2 165.981 2C172.807 2 178.781 3.42933 183.901 6.28799C189.021 9.14666 193.01 13.136 195.869 18.256C198.727 23.376 200.157 29.3493 200.157 36.176V63.824C200.157 70.6507 198.727 76.624 195.869 81.744C193.01 86.864 189.021 90.8533 183.901 93.712C178.781 96.5707 172.807 98 165.981 98ZM165.981 81.488C169.053 81.488 171.826 80.7627 174.301 79.312C176.775 77.8613 178.738 75.8987 180.189 73.424C181.639 70.9493 182.365 68.176 182.365 65.104V34.768C182.365 31.696 181.639 28.9227 180.189 26.448C178.738 23.9733 176.775 22.0107 174.301 20.56C171.826 19.1093 169.053 18.384 165.981 18.384C162.909 18.384 160.135 19.1093 157.661 20.56C155.186 22.0107 153.223 23.9733 151.773 26.448C150.322 28.9227 149.597 31.696 149.597 34.768V65.104C149.597 68.176 150.322 70.9493 151.773 73.424C153.223 75.8987 155.186 77.8613 157.661 79.312C160.135 80.7627 162.909 81.488 165.981 81.488Z" fill="#0080FD"/>
</svg>
