<svg width="202" height="100" viewBox="0 0 202 100" fill="none" xmlns="http://www.w3.org/2000/svg">
<path d="M17.28 96.08V22.864L0 33.488V14.288L17.28 3.92H35.072V96.08H17.28Z" fill="black"/>
<path d="M87.181 98C80.3543 98 74.381 96.5707 69.261 93.712C64.141 90.8533 60.1517 86.864 57.293 81.744C54.4343 76.624 53.005 70.6507 53.005 63.824V36.176C53.005 29.3493 54.4343 23.376 57.293 18.256C60.1517 13.136 64.141 9.14666 69.261 6.28799C74.381 3.42933 80.3543 2 87.181 2C94.0077 2 99.981 3.42933 105.101 6.28799C110.221 9.14666 114.21 13.136 117.069 18.256C119.928 23.376 121.357 29.3493 121.357 36.176V63.824C121.357 70.6507 119.928 76.624 117.069 81.744C114.21 86.864 110.221 90.8533 105.101 93.712C99.981 96.5707 94.0077 98 87.181 98ZM87.181 81.488C90.253 81.488 93.0263 80.7627 95.501 79.312C97.9757 77.8613 99.9383 75.8987 101.389 73.424C102.84 70.9493 103.565 68.176 103.565 65.104V34.768C103.565 31.696 102.84 28.9227 101.389 26.448C99.9383 23.9733 97.9757 22.0107 95.501 20.56C93.0263 19.1093 90.253 18.384 87.181 18.384C84.109 18.384 81.3357 19.1093 78.861 20.56C76.3863 22.0107 74.4237 23.9733 72.973 26.448C71.5223 28.9227 70.797 31.696 70.797 34.768V65.104C70.797 68.176 71.5223 70.9493 72.973 73.424C74.4237 75.8987 76.3863 77.8613 78.861 79.312C81.3357 80.7627 84.109 81.488 87.181 81.488Z" fill="black"/>
<path d="M167.028 98C160.201 98 154.228 96.5707 149.108 93.712C143.988 90.8533 139.998 86.864 137.14 81.744C134.281 76.624 132.852 70.6507 132.852 63.824V36.176C132.852 29.3493 134.281 23.376 137.14 18.256C139.998 13.136 143.988 9.14666 149.108 6.28799C154.228 3.42933 160.201 2 167.028 2C173.854 2 179.828 3.42933 184.948 6.28799C190.068 9.14666 194.057 13.136 196.916 18.256C199.774 23.376 201.204 29.3493 201.204 36.176V63.824C201.204 70.6507 199.774 76.624 196.916 81.744C194.057 86.864 190.068 90.8533 184.948 93.712C179.828 96.5707 173.854 98 167.028 98ZM167.028 81.488C170.1 81.488 172.873 80.7627 175.348 79.312C177.822 77.8613 179.785 75.8987 181.236 73.424C182.686 70.9493 183.412 68.176 183.412 65.104V34.768C183.412 31.696 182.686 28.9227 181.236 26.448C179.785 23.9733 177.822 22.0107 175.348 20.56C172.873 19.1093 170.1 18.384 167.028 18.384C163.956 18.384 161.182 19.1093 158.708 20.56C156.233 22.0107 154.27 23.9733 152.82 26.448C151.369 28.9227 150.644 31.696 150.644 34.768V65.104C150.644 68.176 151.369 70.9493 152.82 73.424C154.27 75.8987 156.233 77.8613 158.708 79.312C161.182 80.7627 163.956 81.488 167.028 81.488Z" fill="#B79664"/>
</svg>
