<svg width="235" height="150" viewBox="0 0 235 150" fill="none" xmlns="http://www.w3.org/2000/svg">
<path d="M42.1316 121.002V47.7859L24.8516 58.4099V39.2099L42.1316 28.8419H59.9236V121.002H42.1316Z" fill="black"/>
<path d="M112.033 122.922C105.206 122.922 99.2326 121.493 94.1126 118.634C88.9926 115.775 85.0032 111.786 82.1446 106.666C79.2859 101.546 77.8566 95.5725 77.8566 88.7459V61.0979C77.8566 54.2712 79.2859 48.2979 82.1446 43.1779C85.0032 38.0579 88.9926 34.0685 94.1126 31.2099C99.2326 28.3512 105.206 26.9219 112.033 26.9219C118.859 26.9219 124.833 28.3512 129.953 31.2099C135.073 34.0685 139.062 38.0579 141.921 43.1779C144.779 48.2979 146.209 54.2712 146.209 61.0979V88.7459C146.209 95.5725 144.779 101.546 141.921 106.666C139.062 111.786 135.073 115.775 129.953 118.634C124.833 121.493 118.859 122.922 112.033 122.922ZM112.033 106.41C115.105 106.41 117.878 105.685 120.353 104.234C122.827 102.783 124.79 100.821 126.241 98.3459C127.691 95.8712 128.417 93.0979 128.417 90.0259V59.6899C128.417 56.6179 127.691 53.8445 126.241 51.3699C124.79 48.8952 122.827 46.9325 120.353 45.4819C117.878 44.0312 115.105 43.3059 112.033 43.3059C108.961 43.3059 106.187 44.0312 103.713 45.4819C101.238 46.9325 99.2752 48.8952 97.8246 51.3699C96.3739 53.8445 95.6486 56.6179 95.6486 59.6899V90.0259C95.6486 93.0979 96.3739 95.8712 97.8246 98.3459C99.2752 100.821 101.238 102.783 103.713 104.234C106.187 105.685 108.961 106.41 112.033 106.41Z" fill="black"/>
<path d="M191.879 122.922C185.052 122.922 179.079 121.493 173.959 118.634C168.839 115.775 164.85 111.786 161.991 106.666C159.132 101.546 157.703 95.5725 157.703 88.7459V61.0979C157.703 54.2712 159.132 48.2979 161.991 43.1779C164.85 38.0579 168.839 34.0685 173.959 31.2099C179.079 28.3512 185.052 26.9219 191.879 26.9219C198.706 26.9219 204.679 28.3512 209.799 31.2099C214.919 34.0685 218.908 38.0579 221.767 43.1779C224.626 48.2979 226.055 54.2712 226.055 61.0979V88.7459C226.055 95.5725 224.626 101.546 221.767 106.666C218.908 111.786 214.919 115.775 209.799 118.634C204.679 121.493 198.706 122.922 191.879 122.922ZM191.879 106.41C194.951 106.41 197.724 105.685 200.199 104.234C202.674 102.783 204.636 100.821 206.087 98.3459C207.538 95.8712 208.263 93.0979 208.263 90.0259V59.6899C208.263 56.6179 207.538 53.8445 206.087 51.3699C204.636 48.8952 202.674 46.9325 200.199 45.4819C197.724 44.0312 194.951 43.3059 191.879 43.3059C188.807 43.3059 186.034 44.0312 183.559 45.4819C181.084 46.9325 179.122 48.8952 177.671 51.3699C176.22 53.8445 175.495 56.6179 175.495 59.6899V90.0259C175.495 93.0979 176.22 95.8712 177.671 98.3459C179.122 100.821 181.084 102.783 183.559 104.234C186.034 105.685 188.807 106.41 191.879 106.41Z" fill="#B79664"/>
</svg>
