<svg width="200" height="100" viewBox="0 0 200 100" fill="none" xmlns="http://www.w3.org/2000/svg">
  <path d="M17.28 96.078V22.862L0 33.486V14.286L17.28 3.91797H35.072V96.078H17.28Z" fill="black" />
  <path d="M81.805 96.078V22.862L64.525 33.486V14.286L81.805 3.91797H99.597V96.078H81.805Z" fill="black" />
  <path
    d="M164.504 98C157.677 98 151.704 96.5707 146.584 93.712C141.464 90.8533 137.475 86.864 134.616 81.744C131.757 76.624 130.328 70.6507 130.328 63.824V36.176C130.328 29.3493 131.757 23.376 134.616 18.256C137.475 13.136 141.464 9.14666 146.584 6.28799C151.704 3.42933 157.677 2 164.504 2C171.331 2 177.304 3.42933 182.424 6.28799C187.544 9.14666 191.533 13.136 194.392 18.256C197.251 23.376 198.68 29.3493 198.68 36.176V63.824C198.68 70.6507 197.251 76.624 194.392 81.744C191.533 86.864 187.544 90.8533 182.424 93.712C177.304 96.5707 171.331 98 164.504 98ZM164.504 81.488C167.576 81.488 170.349 80.7627 172.824 79.312C175.299 77.8613 177.261 75.8987 178.712 73.424C180.163 70.9493 180.888 68.176 180.888 65.104V34.768C180.888 31.696 180.163 28.9227 178.712 26.448C177.261 23.9733 175.299 22.0107 172.824 20.56C170.349 19.1093 167.576 18.384 164.504 18.384C161.432 18.384 158.659 19.1093 156.184 20.56C153.709 22.0107 151.747 23.9733 150.296 26.448C148.845 28.9227 148.12 31.696 148.12 34.768V65.104C148.12 68.176 148.845 70.9493 150.296 73.424C151.747 75.8987 153.709 77.8613 156.184 79.312C158.659 80.7627 161.432 81.488 164.504 81.488Z"
    fill="url(#paint0_linear_1579_59319)" />
  <path fill-rule="evenodd" clip-rule="evenodd"
    d="M164.504 3C157.82 3 152.02 4.39841 147.072 7.16112C142.113 9.92946 138.258 13.7853 135.489 18.7435C132.727 23.6916 131.328 29.4918 131.328 36.176V63.824C131.328 70.5082 132.727 76.3084 135.489 81.2565C138.258 86.2147 142.113 90.0705 147.072 92.8389C152.02 95.6016 157.82 97 164.504 97C171.188 97 176.988 95.6016 181.937 92.8389C186.895 90.0705 190.751 86.2147 193.519 81.2565C196.282 76.3084 197.68 70.5082 197.68 63.824V36.176C197.68 29.4918 196.282 23.6916 193.519 18.7435C190.751 13.7853 186.895 9.92946 181.937 7.16112C176.988 4.39841 171.188 3 164.504 3ZM146.097 5.41487C151.388 2.46025 157.535 1 164.504 1C171.473 1 177.62 2.46025 182.912 5.41487C188.193 8.36387 192.316 12.4867 195.265 17.7685C198.22 23.0604 199.68 29.2069 199.68 36.176V63.824C199.68 70.7931 198.22 76.9396 195.265 82.2315C192.316 87.5133 188.193 91.6361 182.912 94.5851C177.62 97.5397 171.473 99 164.504 99C157.535 99 151.388 97.5397 146.097 94.5851C140.815 91.6361 136.692 87.5133 133.743 82.2315C130.788 76.9396 129.328 70.7931 129.328 63.824V36.176C129.328 29.2069 130.788 23.0604 133.743 17.7685C136.692 12.4867 140.815 8.36387 146.097 5.41487L146.584 6.28799L146.097 5.41487ZM155.678 19.6973C158.317 18.1503 161.267 17.384 164.504 17.384C167.741 17.384 170.691 18.1503 173.33 19.6973C175.952 21.2345 178.038 23.32 179.575 25.9423C181.122 28.5812 181.888 31.5313 181.888 34.768V65.104C181.888 68.3407 181.122 71.2908 179.575 73.9297C178.038 76.552 175.952 78.6375 173.33 80.1747C170.691 81.7217 167.741 82.488 164.504 82.488C161.267 82.488 158.317 81.7217 155.678 80.1747C153.056 78.6375 150.971 76.552 149.433 73.9297C147.886 71.2908 147.12 68.3407 147.12 65.104V34.768C147.12 31.5313 147.886 28.5812 149.433 25.9423C150.971 23.32 153.056 21.2345 155.678 19.6973ZM164.504 19.384C161.597 19.384 159 20.0683 156.69 21.4227C154.363 22.7869 152.523 24.6266 151.159 26.9537C149.804 29.2641 149.12 31.8607 149.12 34.768V65.104C149.12 68.0113 149.804 70.6079 151.159 72.9183C152.523 75.2454 154.363 77.0851 156.69 78.4493C159 79.8037 161.597 80.488 164.504 80.488C167.411 80.488 170.008 79.8037 172.318 78.4493C174.646 77.0851 176.485 75.2454 177.849 72.9183C179.204 70.6079 179.888 68.0113 179.888 65.104V34.768C179.888 31.8607 179.204 29.2641 177.849 26.9537C176.485 24.6266 174.646 22.7869 172.318 21.4227C170.008 20.0683 167.411 19.384 164.504 19.384Z"
    fill="black" />
  <defs>
    <linearGradient id="paint0_linear_1579_59319" x1="121.617" y1="21.0781" x2="192.617" y2="92.0781"
      gradientUnits="userSpaceOnUse">
      <stop stop-color="#8B83FF" />
      <stop offset="0.16" stop-color="#8B83FF" />
      <stop offset="0.17" stop-color="#00C0E9" />
      <stop offset="0.33" stop-color="#00C0E9" />
      <stop offset="0.34" stop-color="#5FDF6C" />
      <stop offset="0.49" stop-color="#5FDF6C" />
      <stop offset="0.5" stop-color="#F8D71E" />
      <stop offset="0.66" stop-color="#F8D71E" />
      <stop offset="0.67" stop-color="#FF8E00" />
      <stop offset="0.83" stop-color="#FF8E00" />
      <stop offset="0.84" stop-color="#FF532E" />
      <stop offset="1" stop-color="#FF532E" />
    </linearGradient>
  </defs>
</svg>