<svg width="201" height="100" viewBox="0 0 201 100" fill="none" xmlns="http://www.w3.org/2000/svg">
<path d="M25.28 96.08V22.864L8 33.488V14.288L25.28 3.92H43.072V96.08H25.28Z" fill="black"/>
<path d="M58.445 95.952V80.848L97.101 46.544C100.002 43.984 102.05 41.5733 103.245 39.312C104.44 37.0507 105.037 34.9387 105.037 32.976C105.037 30.16 104.461 27.664 103.309 25.488C102.157 23.2693 100.536 21.5413 98.445 20.304C96.3543 19.024 93.901 18.384 91.085 18.384C88.141 18.384 85.5383 19.0667 83.277 20.432C81.0583 21.7547 79.3303 23.5253 78.093 25.744C76.8557 27.92 76.2797 30.288 76.365 32.848H58.445C58.445 26.5333 59.8317 21.072 62.605 16.464C65.3783 11.856 69.2397 8.29333 74.189 5.776C79.1383 3.25867 84.8983 2 91.469 2C97.485 2 102.861 3.32266 107.597 5.96799C112.376 8.57066 116.13 12.2187 118.861 16.912C121.592 21.6053 122.957 27.0453 122.957 33.232C122.957 37.7973 122.317 41.5947 121.037 44.624C119.757 47.6107 117.858 50.384 115.341 52.944C112.824 55.4613 109.73 58.32 106.061 61.52L81.101 83.408L79.693 79.568H122.957V95.952H58.445Z" fill="black"/>
<path d="M166.028 98C159.201 98 153.228 96.5707 148.108 93.712C142.988 90.8533 138.998 86.864 136.14 81.744C133.281 76.624 131.852 70.6507 131.852 63.824V36.176C131.852 29.3493 133.281 23.376 136.14 18.256C138.998 13.136 142.988 9.14666 148.108 6.28799C153.228 3.42933 159.201 2 166.028 2C172.854 2 178.828 3.42933 183.948 6.28799C189.068 9.14666 193.057 13.136 195.916 18.256C198.774 23.376 200.204 29.3493 200.204 36.176V63.824C200.204 70.6507 198.774 76.624 195.916 81.744C193.057 86.864 189.068 90.8533 183.948 93.712C178.828 96.5707 172.854 98 166.028 98ZM166.028 81.488C169.1 81.488 171.873 80.7627 174.348 79.312C176.822 77.8613 178.785 75.8987 180.236 73.424C181.686 70.9493 182.412 68.176 182.412 65.104V34.768C182.412 31.696 181.686 28.9227 180.236 26.448C178.785 23.9733 176.822 22.0107 174.348 20.56C171.873 19.1093 169.1 18.384 166.028 18.384C162.956 18.384 160.182 19.1093 157.708 20.56C155.233 22.0107 153.27 23.9733 151.82 26.448C150.369 28.9227 149.644 31.696 149.644 34.768V65.104C149.644 68.176 150.369 70.9493 151.82 73.424C153.27 75.8987 155.233 77.8613 157.708 79.312C160.182 80.7627 162.956 81.488 166.028 81.488Z" fill="url(#paint0_linear_1579_59320)"/>
<defs>
<linearGradient id="paint0_linear_1579_59320" x1="132.148" y1="50" x2="200.148" y2="50" gradientUnits="userSpaceOnUse">
<stop stop-color="#F44336"/>
<stop offset="0.49" stop-color="#F44336"/>
<stop offset="0.5" stop-color="#FF8E00"/>
<stop offset="1" stop-color="#FF8E00"/>
</linearGradient>
</defs>
</svg>
