<svg width="200" height="100" viewBox="0 0 200 100" fill="none" xmlns="http://www.w3.org/2000/svg">
  <path d="M26.28 96.078V22.862L9 33.486V14.286L26.28 3.91797H44.072V96.078H26.28Z" fill="black" />
  <path
    d="M88.885 97.742C84.277 97.742 79.8823 96.8246 75.701 94.99C71.5197 93.1126 67.8717 90.4886 64.757 87.118C61.685 83.7473 59.4877 79.7793 58.165 75.214L75.061 70.734C75.957 74.1046 77.7063 76.7286 80.309 78.606C82.9543 80.4406 85.813 81.358 88.885 81.358C91.5303 81.358 93.941 80.718 96.117 79.438C98.3357 78.158 100.085 76.43 101.365 74.254C102.688 72.078 103.349 69.6673 103.349 67.022C103.349 63.054 101.984 59.662 99.253 56.846C96.565 53.9873 93.109 52.558 88.885 52.558C87.605 52.558 86.3677 52.75 85.173 53.134C83.9783 53.4753 82.8263 53.966 81.717 54.606L73.909 40.91L103.221 16.59L104.501 20.302H61.749V3.91797H119.349V20.302L96.565 42.318L96.437 37.454C101.728 38.2646 106.186 40.1206 109.813 43.022C113.482 45.8806 116.256 49.422 118.133 53.646C120.053 57.8273 121.013 62.286 121.013 67.022C121.013 72.8246 119.541 78.0513 116.597 82.702C113.653 87.31 109.749 90.9793 104.885 93.71C100.021 96.398 94.6877 97.742 88.885 97.742Z"
    fill="black" />
  <path
    d="M165.403 98C158.576 98 152.603 96.5707 147.483 93.712C142.363 90.8533 138.373 86.864 135.515 81.744C132.656 76.624 131.227 70.6507 131.227 63.824V36.176C131.227 29.3493 132.656 23.376 135.515 18.256C138.373 13.136 142.363 9.14666 147.483 6.28799C152.603 3.42933 158.576 2 165.403 2C172.229 2 178.203 3.42933 183.323 6.28799C188.443 9.14666 192.432 13.136 195.291 18.256C198.149 23.376 199.579 29.3493 199.579 36.176V63.824C199.579 70.6507 198.149 76.624 195.291 81.744C192.432 86.864 188.443 90.8533 183.323 93.712C178.203 96.5707 172.229 98 165.403 98ZM165.403 81.488C168.475 81.488 171.248 80.7627 173.723 79.312C176.197 77.8613 178.16 75.8987 179.611 73.424C181.061 70.9493 181.787 68.176 181.787 65.104V34.768C181.787 31.696 181.061 28.9227 179.611 26.448C178.16 23.9733 176.197 22.0107 173.723 20.56C171.248 19.1093 168.475 18.384 165.403 18.384C162.331 18.384 159.557 19.1093 157.083 20.56C154.608 22.0107 152.645 23.9733 151.195 26.448C149.744 28.9227 149.019 31.696 149.019 34.768V65.104C149.019 68.176 149.744 70.9493 151.195 73.424C152.645 75.8987 154.608 77.8613 157.083 79.312C159.557 80.7627 162.331 81.488 165.403 81.488Z"
    fill="url(#paint0_linear_1579_59321)" />
  <defs>
    <linearGradient id="paint0_linear_1579_59321" x1="131.523" y1="50" x2="199.523" y2="50"
      gradientUnits="userSpaceOnUse">
      <stop stop-color="#0080FD" />
      <stop offset="0.49" stop-color="#0080FD" />
      <stop offset="0.5" stop-color="#8F4EFF" />
      <stop offset="1" stop-color="#8F4EFF" />
    </linearGradient>
  </defs>
</svg>