<svg width="235" height="150" viewBox="0 0 235 150" fill="none" xmlns="http://www.w3.org/2000/svg">
<path d="M52.7566 121V47.7838L35.4766 58.4078V39.2078L52.7566 28.8398H70.5486V121H52.7566Z" fill="black"/>
<path d="M115.362 122.664C110.754 122.664 106.359 121.747 102.178 119.912C97.9962 118.035 94.3482 115.411 91.2336 112.04C88.1616 108.669 85.9642 104.701 84.6416 100.136L101.538 95.6558C102.434 99.0265 104.183 101.651 106.786 103.528C109.431 105.363 112.29 106.28 115.362 106.28C118.007 106.28 120.418 105.64 122.594 104.36C124.812 103.08 126.562 101.352 127.842 99.1758C129.164 96.9998 129.826 94.5892 129.826 91.9438C129.826 87.9758 128.46 84.5838 125.73 81.7678C123.042 78.9092 119.586 77.4798 115.362 77.4798C114.082 77.4798 112.844 77.6718 111.65 78.0558C110.455 78.3972 109.303 78.8878 108.194 79.5278L100.386 65.8318L129.698 41.5118L130.978 45.2238H88.2256V28.8398H145.826V45.2238L123.042 67.2398L122.914 62.3758C128.204 63.1865 132.663 65.0425 136.29 67.9438C139.959 70.8025 142.732 74.3438 144.61 78.5678C146.53 82.7492 147.49 87.2078 147.49 91.9438C147.49 97.7465 146.018 102.973 143.074 107.624C140.13 112.232 136.226 115.901 131.362 118.632C126.498 121.32 121.164 122.664 115.362 122.664Z" fill="black"/>
<path d="M191.879 122.922C185.052 122.922 179.079 121.493 173.959 118.634C168.839 115.775 164.85 111.786 161.991 106.666C159.132 101.546 157.703 95.5725 157.703 88.7459V61.0979C157.703 54.2712 159.132 48.2979 161.991 43.1779C164.85 38.0579 168.839 34.0685 173.959 31.2099C179.079 28.3512 185.052 26.9219 191.879 26.9219C198.706 26.9219 204.679 28.3512 209.799 31.2099C214.919 34.0685 218.908 38.0579 221.767 43.1779C224.626 48.2979 226.055 54.2712 226.055 61.0979V88.7459C226.055 95.5725 224.626 101.546 221.767 106.666C218.908 111.786 214.919 115.775 209.799 118.634C204.679 121.493 198.706 122.922 191.879 122.922ZM191.879 106.41C194.951 106.41 197.724 105.685 200.199 104.234C202.674 102.783 204.636 100.821 206.087 98.3459C207.538 95.8712 208.263 93.0979 208.263 90.0259V59.6899C208.263 56.6179 207.538 53.8445 206.087 51.3699C204.636 48.8952 202.674 46.9325 200.199 45.4819C197.724 44.0312 194.951 43.3059 191.879 43.3059C188.807 43.3059 186.034 44.0312 183.559 45.4819C181.084 46.9325 179.122 48.8952 177.671 51.3699C176.22 53.8445 175.495 56.6179 175.495 59.6899V90.0259C175.495 93.0979 176.22 95.8712 177.671 98.3459C179.122 100.821 181.084 102.783 183.559 104.234C186.034 105.685 188.807 106.41 191.879 106.41Z" fill="url(#paint0_linear_1578_59186)"/>
<defs>
<linearGradient id="paint0_linear_1578_59186" x1="158" y1="74.9219" x2="226" y2="74.9219" gradientUnits="userSpaceOnUse">
<stop stop-color="#0080FD"/>
<stop offset="0.49" stop-color="#0080FD"/>
<stop offset="0.5" stop-color="#8F4EFF"/>
<stop offset="1" stop-color="#8F4EFF"/>
</linearGradient>
</defs>
</svg>
