<svg width="235" height="150" viewBox="0 0 235 150" fill="none" xmlns="http://www.w3.org/2000/svg">
<path d="M49.6316 121V47.7838L32.3516 58.4078V39.2078L49.6316 28.8398H67.4236V121H49.6316Z" fill="black"/>
<path d="M122.861 121V106.664H82.7966V90.4078L111.853 28.8398H131.821L102.765 90.4078H122.861V67.3678H140.525V90.4078H148.717V106.664H140.525V121H122.861Z" fill="black"/>
<path d="M191.879 122.922C185.052 122.922 179.079 121.493 173.959 118.634C168.839 115.775 164.85 111.786 161.991 106.666C159.132 101.546 157.703 95.5725 157.703 88.7459V61.0979C157.703 54.2712 159.132 48.2979 161.991 43.1779C164.85 38.0579 168.839 34.0685 173.959 31.2099C179.079 28.3512 185.052 26.9219 191.879 26.9219C198.706 26.9219 204.679 28.3512 209.799 31.2099C214.919 34.0685 218.908 38.0579 221.767 43.1779C224.626 48.2979 226.055 54.2712 226.055 61.0979V88.7459C226.055 95.5725 224.626 101.546 221.767 106.666C218.908 111.786 214.919 115.775 209.799 118.634C204.679 121.493 198.706 122.922 191.879 122.922ZM191.879 106.41C194.951 106.41 197.724 105.685 200.199 104.234C202.674 102.783 204.636 100.821 206.087 98.3459C207.538 95.8712 208.263 93.0979 208.263 90.0259V59.6899C208.263 56.6179 207.538 53.8445 206.087 51.3699C204.636 48.8952 202.674 46.9325 200.199 45.4819C197.724 44.0312 194.951 43.3059 191.879 43.3059C188.807 43.3059 186.034 44.0312 183.559 45.4819C181.084 46.9325 179.122 48.8952 177.671 51.3699C176.22 53.8445 175.495 56.6179 175.495 59.6899V90.0259C175.495 93.0979 176.22 95.8712 177.671 98.3459C179.122 100.821 181.084 102.783 183.559 104.234C186.034 105.685 188.807 106.41 191.879 106.41Z" fill="url(#paint0_linear_1578_59188)"/>
<path fill-rule="evenodd" clip-rule="evenodd" d="M191.879 27.9219C185.195 27.9219 179.395 29.3203 174.447 32.083C169.488 34.8513 165.633 38.7072 162.864 43.6654C160.102 48.6135 158.703 54.4136 158.703 61.0979V88.7459C158.703 95.4301 160.102 101.23 162.864 106.178C165.633 111.137 169.488 114.992 174.447 117.761C179.395 120.523 185.195 121.922 191.879 121.922C198.563 121.922 204.363 120.523 209.312 117.761C214.27 114.992 218.126 111.137 220.894 106.178C223.657 101.23 225.055 95.4301 225.055 88.7459V61.0979C225.055 54.4136 223.657 48.6135 220.894 43.6654C218.126 38.7072 214.27 34.8513 209.312 32.083C204.363 29.3203 198.563 27.9219 191.879 27.9219ZM173.472 30.3367C178.763 27.3821 184.91 25.9219 191.879 25.9219C198.848 25.9219 204.995 27.3821 210.287 30.3367C215.568 33.2857 219.691 37.4086 222.64 42.6904C225.595 47.9822 227.055 54.1288 227.055 61.0979V88.7459C227.055 95.715 225.595 101.862 222.64 107.153C219.691 112.435 215.568 116.558 210.287 119.507C204.995 122.462 198.848 123.922 191.879 123.922C184.91 123.922 178.763 122.462 173.472 119.507C168.19 116.558 164.067 112.435 161.118 107.153C158.163 101.862 156.703 95.715 156.703 88.7459V61.0979C156.703 54.1288 158.163 47.9822 161.118 42.6904C164.067 37.4086 168.19 33.2857 173.472 30.3367L173.959 31.2099L173.472 30.3367ZM183.053 44.6192C185.692 43.0722 188.642 42.3059 191.879 42.3059C195.116 42.3059 198.066 43.0722 200.705 44.6192C203.327 46.1563 205.413 48.2419 206.95 50.8642C208.497 53.5031 209.263 56.4532 209.263 59.6899V90.0259C209.263 93.2626 208.497 96.2127 206.95 98.8516C205.413 101.474 203.327 103.559 200.705 105.097C198.066 106.644 195.116 107.41 191.879 107.41C188.642 107.41 185.692 106.644 183.053 105.097C180.431 103.559 178.346 101.474 176.808 98.8516C175.261 96.2127 174.495 93.2626 174.495 90.0259V59.6899C174.495 56.4532 175.261 53.5031 176.808 50.8642C178.346 48.2419 180.431 46.1563 183.053 44.6192ZM191.879 44.3059C188.972 44.3059 186.375 44.9902 184.065 46.3446C181.738 47.7087 179.898 49.5485 178.534 51.8756C177.179 54.186 176.495 56.7826 176.495 59.6899V90.0259C176.495 92.9332 177.179 95.5298 178.534 97.8402C179.898 100.167 181.738 102.007 184.065 103.371C186.375 104.726 188.972 105.41 191.879 105.41C194.786 105.41 197.383 104.726 199.693 103.371C202.021 102.007 203.86 100.167 205.224 97.8402C206.579 95.5298 207.263 92.9332 207.263 90.0259V59.6899C207.263 56.7826 206.579 54.186 205.224 51.8756C203.86 49.5485 202.021 47.7087 199.693 46.3446C197.383 44.9902 194.786 44.3059 191.879 44.3059Z" fill="url(#paint1_linear_1578_59188)"/>
<defs>
<linearGradient id="paint0_linear_1578_59188" x1="158" y1="74.9219" x2="226" y2="74.9219" gradientUnits="userSpaceOnUse">
<stop stop-color="#E8BD00"/>
<stop offset="0.49" stop-color="#E8BD00"/>
<stop offset="0.5" stop-color="#FEFEFE"/>
<stop offset="1" stop-color="#FEFEFE"/>
</linearGradient>
<linearGradient id="paint1_linear_1578_59188" x1="157.5" y1="74.9219" x2="226" y2="74.9219" gradientUnits="userSpaceOnUse">
<stop stop-opacity="0"/>
<stop offset="0.5" stop-opacity="0"/>
<stop offset="0.51"/>
<stop offset="1"/>
</linearGradient>
</defs>
</svg>
