<svg width="200" height="100" viewBox="0 0 200 100" fill="none" xmlns="http://www.w3.org/2000/svg">
<path d="M22.28 96.078V22.862L5 33.486V14.286L22.28 3.91797H40.072V96.078H22.28Z" fill="black"/>
<path d="M95.509 96.078V81.742H55.445V65.486L84.501 3.91797H104.469L75.413 65.486H95.509V42.446H113.173V65.486H121.365V81.742H113.173V96.078H95.509Z" fill="black"/>
<path d="M164.528 98C157.701 98 151.728 96.5707 146.608 93.712C141.488 90.8533 137.498 86.864 134.64 81.744C131.781 76.624 130.352 70.6507 130.352 63.824V36.176C130.352 29.3493 131.781 23.376 134.64 18.256C137.498 13.136 141.488 9.14666 146.608 6.28799C151.728 3.42933 157.701 2 164.528 2C171.354 2 177.328 3.42933 182.448 6.28799C187.568 9.14666 191.557 13.136 194.416 18.256C197.274 23.376 198.704 29.3493 198.704 36.176V63.824C198.704 70.6507 197.274 76.624 194.416 81.744C191.557 86.864 187.568 90.8533 182.448 93.712C177.328 96.5707 171.354 98 164.528 98ZM164.528 81.488C167.6 81.488 170.373 80.7627 172.848 79.312C175.322 77.8613 177.285 75.8987 178.736 73.424C180.186 70.9493 180.912 68.176 180.912 65.104V34.768C180.912 31.696 180.186 28.9227 178.736 26.448C177.285 23.9733 175.322 22.0107 172.848 20.56C170.373 19.1093 167.6 18.384 164.528 18.384C161.456 18.384 158.682 19.1093 156.208 20.56C153.733 22.0107 151.77 23.9733 150.32 26.448C148.869 28.9227 148.144 31.696 148.144 34.768V65.104C148.144 68.176 148.869 70.9493 150.32 73.424C151.77 75.8987 153.733 77.8613 156.208 79.312C158.682 80.7627 161.456 81.488 164.528 81.488Z" fill="url(#paint0_linear_1579_59322)"/>
<path fill-rule="evenodd" clip-rule="evenodd" d="M164.528 3C157.843 3 152.043 4.39841 147.095 7.16112C142.137 9.92946 138.281 13.7853 135.513 18.7435C132.75 23.6916 131.352 29.4918 131.352 36.176V63.824C131.352 70.5082 132.75 76.3084 135.513 81.2565C138.281 86.2147 142.137 90.0705 147.095 92.8389C152.043 95.6016 157.843 97 164.528 97C171.212 97 177.012 95.6016 181.96 92.8389C186.918 90.0705 190.774 86.2147 193.542 81.2565C196.305 76.3084 197.704 70.5082 197.704 63.824V36.176C197.704 29.4918 196.305 23.6916 193.542 18.7435C190.774 13.7853 186.918 9.92946 181.96 7.16112C177.012 4.39841 171.212 3 164.528 3ZM146.12 5.41487C151.412 2.46025 157.558 1 164.528 1C171.497 1 177.643 2.46025 182.935 5.41487C188.217 8.36387 192.34 12.4867 195.289 17.7685C198.243 23.0604 199.704 29.2069 199.704 36.176V63.824C199.704 70.7931 198.243 76.9396 195.289 82.2315C192.34 87.5133 188.217 91.6361 182.935 94.5851C177.643 97.5397 171.497 99 164.528 99C157.558 99 151.412 97.5397 146.12 94.5851C140.838 91.6361 136.715 87.5133 133.766 82.2315C130.812 76.9396 129.352 70.7931 129.352 63.824V36.176C129.352 29.2069 130.812 23.0604 133.766 17.7685C136.715 12.4867 140.838 8.36387 146.12 5.41487L146.608 6.28799L146.12 5.41487ZM155.702 19.6973C158.341 18.1503 161.291 17.384 164.528 17.384C167.764 17.384 170.714 18.1503 173.353 19.6973C175.976 21.2345 178.061 23.32 179.598 25.9423C181.145 28.5812 181.912 31.5313 181.912 34.768V65.104C181.912 68.3407 181.145 71.2908 179.598 73.9297C178.061 76.552 175.976 78.6375 173.353 80.1747C170.714 81.7217 167.764 82.488 164.528 82.488C161.291 82.488 158.341 81.7217 155.702 80.1747C153.08 78.6375 150.994 76.552 149.457 73.9297C147.91 71.2908 147.144 68.3407 147.144 65.104V34.768C147.144 31.5313 147.91 28.5812 149.457 25.9423C150.994 23.32 153.08 21.2345 155.702 19.6973ZM164.528 19.384C161.62 19.384 159.024 20.0683 156.713 21.4227C154.386 22.7869 152.546 24.6266 151.182 26.9537C149.828 29.2641 149.144 31.8607 149.144 34.768V65.104C149.144 68.0113 149.828 70.6079 151.182 72.9183C152.546 75.2454 154.386 77.0851 156.713 78.4493C159.024 79.8037 161.62 80.488 164.528 80.488C167.435 80.488 170.031 79.8037 172.342 78.4493C174.669 77.0851 176.509 75.2454 177.873 72.9183C179.227 70.6079 179.912 68.0113 179.912 65.104V34.768C179.912 31.8607 179.227 29.2641 177.873 26.9537C176.509 24.6266 174.669 22.7869 172.342 21.4227C170.031 20.0683 167.435 19.384 164.528 19.384Z" fill="url(#paint1_linear_1579_59322)"/>
<defs>
<linearGradient id="paint0_linear_1579_59322" x1="130.648" y1="50" x2="198.648" y2="50" gradientUnits="userSpaceOnUse">
<stop stop-color="#E8BD00"/>
<stop offset="0.49" stop-color="#E8BD00"/>
<stop offset="0.5" stop-color="#FEFEFE"/>
<stop offset="1" stop-color="#FEFEFE"/>
</linearGradient>
<linearGradient id="paint1_linear_1579_59322" x1="130.148" y1="50" x2="198.648" y2="50" gradientUnits="userSpaceOnUse">
<stop stop-opacity="0"/>
<stop offset="0.5" stop-opacity="0"/>
<stop offset="0.51"/>
<stop offset="1"/>
</linearGradient>
</defs>
</svg>
