<svg width="201" height="100" viewBox="0 0 201 100" fill="none" xmlns="http://www.w3.org/2000/svg">
<path d="M27.28 96.078V22.862L10 33.486V14.286L27.28 3.91797H45.072V96.078H27.28Z" fill="black"/>
<path d="M90.397 97.998C85.7463 97.998 81.373 97.038 77.277 95.118C73.2237 93.198 69.725 90.5313 66.781 87.118C63.837 83.7046 61.725 79.7366 60.445 75.214L77.213 70.734C77.7677 72.91 78.749 74.7873 80.157 76.366C81.6077 77.9446 83.2717 79.182 85.149 80.078C87.069 80.9313 89.0317 81.358 91.037 81.358C93.6823 81.358 96.093 80.718 98.269 79.438C100.488 78.158 102.237 76.43 103.517 74.254C104.84 72.078 105.501 69.6673 105.501 67.022C105.501 64.3766 104.84 61.966 103.517 59.79C102.237 57.614 100.488 55.886 98.269 54.606C96.093 53.326 93.6823 52.686 91.037 52.686C87.7943 52.686 85.149 53.2406 83.101 54.35C81.053 55.4166 79.517 56.4406 78.493 57.422L63.773 52.942L66.589 3.91797H116.893V20.174H76.189L82.333 14.414L80.413 46.03L77.469 42.446C79.773 40.5686 82.397 39.2033 85.341 38.35C88.285 37.4966 91.037 37.07 93.597 37.07C99.3997 37.07 104.498 38.3713 108.893 40.974C113.33 43.534 116.786 47.0753 119.261 51.598C121.778 56.078 123.037 61.2193 123.037 67.022C123.037 72.8246 121.522 78.0726 118.493 82.766C115.464 87.4166 111.474 91.1286 106.525 93.902C101.576 96.6326 96.1997 97.998 90.397 97.998Z" fill="black"/>
<path d="M166.153 98C159.326 98 153.353 96.5707 148.233 93.712C143.113 90.8533 139.123 86.864 136.265 81.744C133.406 76.624 131.977 70.6507 131.977 63.824V36.176C131.977 29.3493 133.406 23.376 136.265 18.256C139.123 13.136 143.113 9.14666 148.233 6.28799C153.353 3.42933 159.326 2 166.153 2C172.979 2 178.953 3.42933 184.073 6.28799C189.193 9.14666 193.182 13.136 196.041 18.256C198.899 23.376 200.329 29.3493 200.329 36.176V63.824C200.329 70.6507 198.899 76.624 196.041 81.744C193.182 86.864 189.193 90.8533 184.073 93.712C178.953 96.5707 172.979 98 166.153 98ZM166.153 81.488C169.225 81.488 171.998 80.7627 174.473 79.312C176.947 77.8613 178.91 75.8987 180.361 73.424C181.811 70.9493 182.537 68.176 182.537 65.104V34.768C182.537 31.696 181.811 28.9227 180.361 26.448C178.91 23.9733 176.947 22.0107 174.473 20.56C171.998 19.1093 169.225 18.384 166.153 18.384C163.081 18.384 160.307 19.1093 157.833 20.56C155.358 22.0107 153.395 23.9733 151.945 26.448C150.494 28.9227 149.769 31.696 149.769 34.768V65.104C149.769 68.176 150.494 70.9493 151.945 73.424C153.395 75.8987 155.358 77.8613 157.833 79.312C160.307 80.7627 163.081 81.488 166.153 81.488Z" fill="url(#paint0_linear_1579_59323)"/>
<defs>
<linearGradient id="paint0_linear_1579_59323" x1="132.273" y1="50" x2="200.273" y2="50" gradientUnits="userSpaceOnUse">
<stop stop-color="#15B550"/>
<stop offset="0.49" stop-color="#15B550"/>
<stop offset="0.5" stop-color="#424242"/>
<stop offset="1" stop-color="#424242"/>
</linearGradient>
</defs>
</svg>
