<svg width="235" height="150" viewBox="0 0 235 150" fill="none" xmlns="http://www.w3.org/2000/svg">
<path d="M53.0066 121V47.7838L35.7266 58.4078V39.2078L53.0066 28.8398H70.7986V121H53.0066Z" fill="black"/>
<path d="M116.124 122.92C111.473 122.92 107.1 121.96 103.004 120.04C98.9502 118.12 95.4516 115.453 92.5076 112.04C89.5636 108.627 87.4516 104.659 86.1716 100.136L102.94 95.6558C103.494 97.8318 104.476 99.7092 105.884 101.288C107.334 102.867 108.998 104.104 110.876 105C112.796 105.853 114.758 106.28 116.764 106.28C119.409 106.28 121.82 105.64 123.996 104.36C126.214 103.08 127.964 101.352 129.244 99.1758C130.566 96.9998 131.228 94.5892 131.228 91.9438C131.228 89.2985 130.566 86.8878 129.244 84.7118C127.964 82.5358 126.214 80.8078 123.996 79.5278C121.82 78.2478 119.409 77.6078 116.764 77.6078C113.521 77.6078 110.876 78.1625 108.828 79.2718C106.78 80.3385 105.244 81.3625 104.22 82.3438L89.4996 77.8638L92.3156 28.8398H142.62V45.0958H101.916L108.06 39.3358L106.14 70.9518L103.196 67.3678C105.5 65.4905 108.124 64.1252 111.068 63.2718C114.012 62.4185 116.764 61.9918 119.324 61.9918C125.126 61.9918 130.225 63.2932 134.62 65.8958C139.057 68.4558 142.513 71.9972 144.988 76.5198C147.505 80.9998 148.764 86.1412 148.764 91.9438C148.764 97.7465 147.249 102.995 144.22 107.688C141.19 112.339 137.201 116.051 132.252 118.824C127.302 121.555 121.926 122.92 116.124 122.92Z" fill="black"/>
<path d="M191.879 122.922C185.052 122.922 179.079 121.493 173.959 118.634C168.839 115.775 164.85 111.786 161.991 106.666C159.132 101.546 157.703 95.5725 157.703 88.7459V61.0979C157.703 54.2712 159.132 48.2979 161.991 43.1779C164.85 38.0579 168.839 34.0685 173.959 31.2099C179.079 28.3512 185.052 26.9219 191.879 26.9219C198.706 26.9219 204.679 28.3512 209.799 31.2099C214.919 34.0685 218.908 38.0579 221.767 43.1779C224.626 48.2979 226.055 54.2712 226.055 61.0979V88.7459C226.055 95.5725 224.626 101.546 221.767 106.666C218.908 111.786 214.919 115.775 209.799 118.634C204.679 121.493 198.706 122.922 191.879 122.922ZM191.879 106.41C194.951 106.41 197.724 105.685 200.199 104.234C202.674 102.783 204.636 100.821 206.087 98.3459C207.538 95.8712 208.263 93.0979 208.263 90.0259V59.6899C208.263 56.6179 207.538 53.8445 206.087 51.3699C204.636 48.8952 202.674 46.9325 200.199 45.4819C197.724 44.0312 194.951 43.3059 191.879 43.3059C188.807 43.3059 186.034 44.0312 183.559 45.4819C181.084 46.9325 179.122 48.8952 177.671 51.3699C176.22 53.8445 175.495 56.6179 175.495 59.6899V90.0259C175.495 93.0979 176.22 95.8712 177.671 98.3459C179.122 100.821 181.084 102.783 183.559 104.234C186.034 105.685 188.807 106.41 191.879 106.41Z" fill="url(#paint0_linear_1578_59190)"/>
<defs>
<linearGradient id="paint0_linear_1578_59190" x1="158" y1="74.9219" x2="226" y2="74.9219" gradientUnits="userSpaceOnUse">
<stop stop-color="#15B550"/>
<stop offset="0.49" stop-color="#15B550"/>
<stop offset="0.5" stop-color="#424242"/>
<stop offset="1" stop-color="#424242"/>
</linearGradient>
</defs>
</svg>
