<svg width="235" height="150" viewBox="0 0 235 150" fill="none" xmlns="http://www.w3.org/2000/svg">
<path d="M84.2969 120.874V105.77L122.953 71.4659C125.854 68.9059 127.902 66.4952 129.097 64.2339C130.292 61.9725 130.889 59.8605 130.889 57.8979C130.889 55.0819 130.313 52.5859 129.161 50.4099C128.009 48.1912 126.388 46.4632 124.297 45.2259C122.206 43.9459 119.753 43.3059 116.937 43.3059C113.993 43.3059 111.39 43.9885 109.129 45.3539C106.91 46.6765 105.182 48.4472 103.945 50.6659C102.708 52.8419 102.132 55.2099 102.217 57.7699H84.2969C84.2969 51.4552 85.6835 45.9939 88.4569 41.3859C91.2302 36.7779 95.0915 33.2152 100.041 30.6979C104.99 28.1805 110.75 26.9219 117.321 26.9219C123.337 26.9219 128.713 28.2445 133.449 30.8899C138.228 33.4925 141.982 37.1405 144.713 41.8339C147.444 46.5272 148.809 51.9672 148.809 58.1539C148.809 62.7192 148.169 66.5165 146.889 69.5459C145.609 72.5325 143.71 75.3059 141.193 77.8659C138.676 80.3832 135.582 83.2419 131.913 86.4419L106.953 108.33L105.545 104.49H148.809V120.874H84.2969Z" fill="black"/>
<path d="M191.879 122.922C185.052 122.922 179.079 121.493 173.959 118.634C168.839 115.775 164.85 111.786 161.991 106.666C159.132 101.546 157.703 95.5725 157.703 88.7459V61.0979C157.703 54.2712 159.132 48.2979 161.991 43.1779C164.85 38.0579 168.839 34.0685 173.959 31.2099C179.079 28.3512 185.052 26.9219 191.879 26.9219C198.706 26.9219 204.679 28.3512 209.799 31.2099C214.919 34.0685 218.908 38.0579 221.767 43.1779C224.626 48.2979 226.055 54.2712 226.055 61.0979V88.7459C226.055 95.5725 224.626 101.546 221.767 106.666C218.908 111.786 214.919 115.775 209.799 118.634C204.679 121.493 198.706 122.922 191.879 122.922ZM191.879 106.41C194.951 106.41 197.724 105.685 200.199 104.234C202.674 102.783 204.636 100.821 206.087 98.3459C207.538 95.8712 208.263 93.0979 208.263 90.0259V59.6899C208.263 56.6179 207.538 53.8445 206.087 51.3699C204.636 48.8952 202.674 46.9325 200.199 45.4819C197.724 44.0312 194.951 43.3059 191.879 43.3059C188.807 43.3059 186.034 44.0312 183.559 45.4819C181.084 46.9325 179.122 48.8952 177.671 51.3699C176.22 53.8445 175.495 56.6179 175.495 59.6899V90.0259C175.495 93.0979 176.22 95.8712 177.671 98.3459C179.122 100.821 181.084 102.783 183.559 104.234C186.034 105.685 188.807 106.41 191.879 106.41Z" fill="#E8BD00"/>
</svg>
