<svg width="200" height="100" viewBox="0 0 200 100" fill="none" xmlns="http://www.w3.org/2000/svg">
  <path
    d="M58 95.952V80.848L96.656 46.544C99.5573 43.984 101.605 41.5733 102.8 39.312C103.995 37.0507 104.592 34.9387 104.592 32.976C104.592 30.16 104.016 27.664 102.864 25.488C101.712 23.2693 100.091 21.5413 98 20.304C95.9093 19.024 93.456 18.384 90.64 18.384C87.696 18.384 85.0933 19.0667 82.832 20.432C80.6133 21.7547 78.8853 23.5253 77.648 25.744C76.4107 27.92 75.8347 30.288 75.92 32.848H58C58 26.5333 59.3867 21.072 62.16 16.464C64.9333 11.856 68.7947 8.29333 73.744 5.776C78.6933 3.25867 84.4533 2 91.024 2C97.04 2 102.416 3.32266 107.152 5.96799C111.931 8.57066 115.685 12.2187 118.416 16.912C121.147 21.6053 122.512 27.0453 122.512 33.232C122.512 37.7973 121.872 41.5947 120.592 44.624C119.312 47.6107 117.413 50.384 114.896 52.944C112.379 55.4613 109.285 58.32 105.616 61.52L80.656 83.408L79.248 79.568H122.512V95.952H58Z"
    fill="black" />
  <path
    d="M165.582 98C158.756 98 152.782 96.5707 147.662 93.712C142.542 90.8533 138.553 86.864 135.694 81.744C132.836 76.624 131.406 70.6507 131.406 63.824V36.176C131.406 29.3493 132.836 23.376 135.694 18.256C138.553 13.136 142.542 9.14666 147.662 6.28799C152.782 3.42933 158.756 2 165.582 2C172.409 2 178.382 3.42933 183.502 6.28799C188.622 9.14666 192.612 13.136 195.47 18.256C198.329 23.376 199.758 29.3493 199.758 36.176V63.824C199.758 70.6507 198.329 76.624 195.47 81.744C192.612 86.864 188.622 90.8533 183.502 93.712C178.382 96.5707 172.409 98 165.582 98ZM165.582 81.488C168.654 81.488 171.428 80.7627 173.902 79.312C176.377 77.8613 178.34 75.8987 179.79 73.424C181.241 70.9493 181.966 68.176 181.966 65.104V34.768C181.966 31.696 181.241 28.9227 179.79 26.448C178.34 23.9733 176.377 22.0107 173.902 20.56C171.428 19.1093 168.654 18.384 165.582 18.384C162.51 18.384 159.737 19.1093 157.262 20.56C154.788 22.0107 152.825 23.9733 151.374 26.448C149.924 28.9227 149.198 31.696 149.198 34.768V65.104C149.198 68.176 149.924 70.9493 151.374 73.424C152.825 75.8987 154.788 77.8613 157.262 79.312C159.737 80.7627 162.51 81.488 165.582 81.488Z"
    fill="#E8BD00" />
</svg>