<svg width="235" height="150" viewBox="0 0 235 150" fill="none" xmlns="http://www.w3.org/2000/svg">
<path d="M115.368 122.664C110.76 122.664 106.366 121.747 102.184 119.912C98.0031 118.035 94.3551 115.411 91.2404 112.04C88.1684 108.669 85.9711 104.701 84.6484 100.136L101.544 95.6558C102.44 99.0265 104.19 101.651 106.792 103.528C109.438 105.363 112.296 106.28 115.368 106.28C118.014 106.28 120.424 105.64 122.6 104.36C124.819 103.08 126.568 101.352 127.848 99.1758C129.171 96.9998 129.832 94.5892 129.832 91.9438C129.832 87.9758 128.467 84.5838 125.736 81.7678C123.048 78.9092 119.592 77.4798 115.368 77.4798C114.088 77.4798 112.851 77.6718 111.656 78.0558C110.462 78.3972 109.31 78.8878 108.2 79.5278L100.392 65.8318L129.704 41.5118L130.984 45.2238H88.2324V28.8398H145.832V45.2238L123.048 67.2398L122.92 62.3758C128.211 63.1865 132.67 65.0425 136.296 67.9438C139.966 70.8025 142.739 74.3438 144.616 78.5678C146.536 82.7492 147.496 87.2078 147.496 91.9438C147.496 97.7465 146.024 102.973 143.08 107.624C140.136 112.232 136.232 115.901 131.368 118.632C126.504 121.32 121.171 122.664 115.368 122.664Z" fill="black"/>
<path d="M191.887 122.922C185.06 122.922 179.087 121.493 173.967 118.634C168.847 115.775 164.858 111.786 161.999 106.666C159.14 101.546 157.711 95.5725 157.711 88.7459V61.0979C157.711 54.2712 159.14 48.2979 161.999 43.1779C164.858 38.0579 168.847 34.0685 173.967 31.2099C179.087 28.3512 185.06 26.9219 191.887 26.9219C198.714 26.9219 204.687 28.3512 209.807 31.2099C214.927 34.0685 218.916 38.0579 221.775 43.1779C224.634 48.2979 226.063 54.2712 226.063 61.0979V88.7459C226.063 95.5725 224.634 101.546 221.775 106.666C218.916 111.786 214.927 115.775 209.807 118.634C204.687 121.493 198.714 122.922 191.887 122.922ZM191.887 106.41C194.959 106.41 197.732 105.685 200.207 104.234C202.682 102.783 204.644 100.821 206.095 98.3459C207.546 95.8712 208.271 93.0979 208.271 90.0259V59.6899C208.271 56.6179 207.546 53.8445 206.095 51.3699C204.644 48.8952 202.682 46.9325 200.207 45.4819C197.732 44.0312 194.959 43.3059 191.887 43.3059C188.815 43.3059 186.042 44.0312 183.567 45.4819C181.092 46.9325 179.13 48.8952 177.679 51.3699C176.228 53.8445 175.503 56.6179 175.503 59.6899V90.0259C175.503 93.0979 176.228 95.8712 177.679 98.3459C179.13 100.821 181.092 102.783 183.567 104.234C186.042 105.685 188.815 106.41 191.887 106.41Z" fill="#15B550"/>
</svg>
