<svg width="201" height="100" viewBox="0 0 201 100" fill="none" xmlns="http://www.w3.org/2000/svg">
<path d="M89.72 97.742C85.112 97.742 80.7173 96.8246 76.536 94.99C72.3547 93.1126 68.7067 90.4886 65.592 87.118C62.52 83.7473 60.3227 79.7793 59 75.214L75.896 70.734C76.792 74.1046 78.5413 76.7286 81.144 78.606C83.7893 80.4406 86.648 81.358 89.72 81.358C92.3653 81.358 94.776 80.718 96.952 79.438C99.1707 78.158 100.92 76.43 102.2 74.254C103.523 72.078 104.184 69.6673 104.184 67.022C104.184 63.054 102.819 59.662 100.088 56.846C97.4 53.9873 93.944 52.558 89.72 52.558C88.44 52.558 87.2027 52.75 86.008 53.134C84.8133 53.4753 83.6613 53.966 82.552 54.606L74.744 40.91L104.056 16.59L105.336 20.302H62.584V3.91797H120.184V20.302L97.4 42.318L97.272 37.454C102.563 38.2646 107.021 40.1206 110.648 43.022C114.317 45.8806 117.091 49.422 118.968 53.646C120.888 57.8273 121.848 62.286 121.848 67.022C121.848 72.8246 120.376 78.0513 117.432 82.702C114.488 87.31 110.584 90.9793 105.72 93.71C100.856 96.398 95.5227 97.742 89.72 97.742Z" fill="black"/>
<path d="M166.239 98C159.412 98 153.439 96.5707 148.319 93.712C143.199 90.8533 139.209 86.864 136.351 81.744C133.492 76.624 132.062 70.6507 132.062 63.824V36.176C132.062 29.3493 133.492 23.376 136.351 18.256C139.209 13.136 143.199 9.14666 148.319 6.28799C153.439 3.42933 159.412 2 166.239 2C173.065 2 179.039 3.42933 184.159 6.28799C189.279 9.14666 193.268 13.136 196.127 18.256C198.985 23.376 200.415 29.3493 200.415 36.176V63.824C200.415 70.6507 198.985 76.624 196.127 81.744C193.268 86.864 189.279 90.8533 184.159 93.712C179.039 96.5707 173.065 98 166.239 98ZM166.239 81.488C169.311 81.488 172.084 80.7627 174.559 79.312C177.033 77.8613 178.996 75.8987 180.447 73.424C181.897 70.9493 182.623 68.176 182.623 65.104V34.768C182.623 31.696 181.897 28.9227 180.447 26.448C178.996 23.9733 177.033 22.0107 174.559 20.56C172.084 19.1093 169.311 18.384 166.239 18.384C163.167 18.384 160.393 19.1093 157.919 20.56C155.444 22.0107 153.481 23.9733 152.031 26.448C150.58 28.9227 149.855 31.696 149.855 34.768V65.104C149.855 68.176 150.58 70.9493 152.031 73.424C153.481 75.8987 155.444 77.8613 157.919 79.312C160.393 80.7627 163.167 81.488 166.239 81.488Z" fill="#15B550"/>
</svg>
