<svg width="235" height="150" viewBox="0 0 235 150" fill="none" xmlns="http://www.w3.org/2000/svg">
<path d="M122.861 121V106.664H82.7969V90.4078L111.853 28.8398H131.821L102.765 90.4078H122.861V67.3678H140.525V90.4078H148.717V106.664H140.525V121H122.861Z" fill="black"/>
<path d="M191.879 122.922C185.052 122.922 179.079 121.493 173.959 118.634C168.839 115.775 164.85 111.786 161.991 106.666C159.132 101.546 157.703 95.5725 157.703 88.7459V61.0979C157.703 54.2712 159.132 48.2979 161.991 43.1779C164.85 38.0579 168.839 34.0685 173.959 31.2099C179.079 28.3512 185.052 26.9219 191.879 26.9219C198.706 26.9219 204.679 28.3512 209.799 31.2099C214.919 34.0685 218.908 38.0579 221.767 43.1779C224.626 48.2979 226.055 54.2712 226.055 61.0979V88.7459C226.055 95.5725 224.626 101.546 221.767 106.666C218.908 111.786 214.919 115.775 209.799 118.634C204.679 121.493 198.706 122.922 191.879 122.922ZM191.879 106.41C194.951 106.41 197.724 105.685 200.199 104.234C202.674 102.783 204.636 100.821 206.087 98.3459C207.538 95.8712 208.263 93.0979 208.263 90.0259V59.6899C208.263 56.6179 207.538 53.8445 206.087 51.3699C204.636 48.8952 202.674 46.9325 200.199 45.4819C197.724 44.0312 194.951 43.3059 191.879 43.3059C188.807 43.3059 186.034 44.0312 183.559 45.4819C181.084 46.9325 179.122 48.8952 177.671 51.3699C176.22 53.8445 175.495 56.6179 175.495 59.6899V90.0259C175.495 93.0979 176.22 95.8712 177.671 98.3459C179.122 100.821 181.084 102.783 183.559 104.234C186.034 105.685 188.807 106.41 191.879 106.41Z" fill="#FF8E00"/>
</svg>
