<svg width="201" height="100" viewBox="0 0 201 100" fill="none" xmlns="http://www.w3.org/2000/svg">
  <path
    d="M97.064 96.078V81.742H57V65.486L86.056 3.91797H106.024L76.968 65.486H97.064V42.446H114.728V65.486H122.92V81.742H114.728V96.078H97.064Z"
    fill="black" />
  <path
    d="M166.082 98C159.256 98 153.282 96.5707 148.162 93.712C143.042 90.8533 139.053 86.864 136.194 81.744C133.336 76.624 131.906 70.6507 131.906 63.824V36.176C131.906 29.3493 133.336 23.376 136.194 18.256C139.053 13.136 143.042 9.14666 148.162 6.28799C153.282 3.42933 159.256 2 166.082 2C172.909 2 178.882 3.42933 184.002 6.28799C189.122 9.14666 193.112 13.136 195.97 18.256C198.829 23.376 200.258 29.3493 200.258 36.176V63.824C200.258 70.6507 198.829 76.624 195.97 81.744C193.112 86.864 189.122 90.8533 184.002 93.712C178.882 96.5707 172.909 98 166.082 98ZM166.082 81.488C169.154 81.488 171.928 80.7627 174.402 79.312C176.877 77.8613 178.84 75.8987 180.29 73.424C181.741 70.9493 182.466 68.176 182.466 65.104V34.768C182.466 31.696 181.741 28.9227 180.29 26.448C178.84 23.9733 176.877 22.0107 174.402 20.56C171.928 19.1093 169.154 18.384 166.082 18.384C163.01 18.384 160.237 19.1093 157.762 20.56C155.288 22.0107 153.325 23.9733 151.874 26.448C150.424 28.9227 149.698 31.696 149.698 34.768V65.104C149.698 68.176 150.424 70.9493 151.874 73.424C153.325 75.8987 155.288 77.8613 157.762 79.312C160.237 80.7627 163.01 81.488 166.082 81.488Z"
    fill="#FF8E00" />
</svg>