<svg width="200" height="100" viewBox="0 0 200 100" fill="none" xmlns="http://www.w3.org/2000/svg">
  <path
    d="M89.128 97.997C83.0267 97.997 77.544 96.5677 72.68 93.709C67.8587 90.8503 64.04 86.8823 61.224 81.805C58.408 76.685 57 70.7757 57 64.077V37.325C57 30.0717 58.408 23.821 61.224 18.573C64.04 13.2823 68.008 9.229 73.128 6.413C78.248 3.55433 84.264 2.125 91.176 2.125C95.656 2.125 99.9227 2.78633 103.976 4.109C108.029 5.43167 111.741 7.67167 115.112 10.829L102.696 23.245C101.16 21.709 99.3893 20.5143 97.384 19.661C95.3787 18.8077 93.3093 18.381 91.176 18.381C87.848 18.381 84.9467 19.1703 82.472 20.749C80.04 22.285 78.1413 24.3117 76.776 26.829C75.4533 29.3037 74.792 31.949 74.792 34.765V48.461L71.848 45.261C74.4933 42.573 77.544 40.525 81 39.117C84.4987 37.6663 88.104 36.941 91.816 36.941C97.6187 36.941 102.717 38.2423 107.112 40.845C111.549 43.4477 115.005 47.0103 117.48 51.533C119.997 56.0557 121.256 61.2183 121.256 67.021C121.256 72.8237 119.784 78.0717 116.84 82.765C113.896 87.4157 109.992 91.1277 105.128 93.901C100.264 96.6317 94.9307 97.997 89.128 97.997ZM89.128 81.357C91.7733 81.357 94.184 80.717 96.36 79.437C98.5787 78.157 100.328 76.429 101.608 74.253C102.931 72.077 103.592 69.6663 103.592 67.021C103.592 64.3757 102.952 61.965 101.672 59.789C100.392 57.5703 98.664 55.821 96.488 54.541C94.312 53.2183 91.9013 52.557 89.256 52.557C86.6107 52.557 84.1787 53.2183 81.96 54.541C79.784 55.821 78.0347 57.5703 76.712 59.789C75.432 61.965 74.792 64.3757 74.792 67.021C74.792 69.581 75.432 71.949 76.712 74.125C77.992 76.301 79.72 78.0503 81.896 79.373C84.072 80.6957 86.4827 81.357 89.128 81.357Z"
    fill="black" />
  <path
    d="M164.403 98C157.576 98 151.603 96.5707 146.483 93.712C141.363 90.8533 137.373 86.864 134.515 81.744C131.656 76.624 130.227 70.6507 130.227 63.824V36.176C130.227 29.3493 131.656 23.376 134.515 18.256C137.373 13.136 141.363 9.14666 146.483 6.28799C151.603 3.42933 157.576 2 164.403 2C171.229 2 177.203 3.42933 182.323 6.28799C187.443 9.14666 191.432 13.136 194.291 18.256C197.149 23.376 198.579 29.3493 198.579 36.176V63.824C198.579 70.6507 197.149 76.624 194.291 81.744C191.432 86.864 187.443 90.8533 182.323 93.712C177.203 96.5707 171.229 98 164.403 98ZM164.403 81.488C167.475 81.488 170.248 80.7627 172.723 79.312C175.197 77.8613 177.16 75.8987 178.611 73.424C180.061 70.9493 180.787 68.176 180.787 65.104V34.768C180.787 31.696 180.061 28.9227 178.611 26.448C177.16 23.9733 175.197 22.0107 172.723 20.56C170.248 19.1093 167.475 18.384 164.403 18.384C161.331 18.384 158.557 19.1093 156.083 20.56C153.608 22.0107 151.645 23.9733 150.195 26.448C148.744 28.9227 148.019 31.696 148.019 34.768V65.104C148.019 68.176 148.744 70.9493 150.195 73.424C151.645 75.8987 153.608 77.8613 156.083 79.312C158.557 80.7627 161.331 81.488 164.403 81.488Z"
    fill="#FEFEFE" />
  <path fill-rule="evenodd" clip-rule="evenodd"
    d="M164.403 3C157.718 3 151.918 4.39841 146.97 7.16112C142.012 9.92946 138.156 13.7853 135.388 18.7435C132.625 23.6916 131.227 29.4918 131.227 36.176V63.824C131.227 70.5082 132.625 76.3084 135.388 81.2565C138.156 86.2147 142.012 90.0705 146.97 92.8389C151.918 95.6016 157.718 97 164.403 97C171.087 97 176.887 95.6016 181.835 92.8389C186.793 90.0705 190.649 86.2147 193.417 81.2565C196.18 76.3084 197.579 70.5082 197.579 63.824V36.176C197.579 29.4918 196.18 23.6916 193.417 18.7435C190.649 13.7853 186.793 9.92946 181.835 7.16112C176.887 4.39841 171.087 3 164.403 3ZM145.995 5.41487C151.287 2.46025 157.433 1 164.403 1C171.372 1 177.518 2.46025 182.81 5.41487C188.092 8.36387 192.215 12.4867 195.164 17.7685C198.118 23.0604 199.579 29.2069 199.579 36.176V63.824C199.579 70.7931 198.118 76.9396 195.164 82.2315C192.215 87.5133 188.092 91.6361 182.81 94.5851C177.518 97.5397 171.372 99 164.403 99C157.433 99 151.287 97.5397 145.995 94.5851C140.713 91.6361 136.59 87.5133 133.641 82.2315C130.687 76.9396 129.227 70.7931 129.227 63.824V36.176C129.227 29.2069 130.687 23.0604 133.641 17.7685C136.59 12.4867 140.713 8.36387 145.995 5.41487L146.483 6.28799L145.995 5.41487ZM155.577 19.6973C158.216 18.1503 161.166 17.384 164.403 17.384C167.639 17.384 170.589 18.1503 173.228 19.6973C175.851 21.2345 177.936 23.32 179.473 25.9423C181.02 28.5812 181.787 31.5313 181.787 34.768V65.104C181.787 68.3407 181.02 71.2908 179.473 73.9297C177.936 76.552 175.851 78.6375 173.228 80.1747C170.589 81.7217 167.639 82.488 164.403 82.488C161.166 82.488 158.216 81.7217 155.577 80.1747C152.955 78.6375 150.869 76.552 149.332 73.9297C147.785 71.2908 147.019 68.3407 147.019 65.104V34.768C147.019 31.5313 147.785 28.5812 149.332 25.9423C150.869 23.32 152.955 21.2345 155.577 19.6973ZM164.403 19.384C161.495 19.384 158.899 20.0683 156.588 21.4227C154.261 22.7869 152.421 24.6266 151.057 26.9537C149.703 29.2641 149.019 31.8607 149.019 34.768V65.104C149.019 68.0113 149.703 70.6079 151.057 72.9183C152.421 75.2454 154.261 77.0851 156.588 78.4493C158.899 79.8037 161.495 80.488 164.403 80.488C167.31 80.488 169.906 79.8037 172.217 78.4493C174.544 77.0851 176.384 75.2454 177.748 72.9183C179.102 70.6079 179.787 68.0113 179.787 65.104V34.768C179.787 31.8607 179.102 29.2641 177.748 26.9537C176.384 24.6266 174.544 22.7869 172.217 21.4227C169.906 20.0683 167.31 19.384 164.403 19.384Z"
    fill="black" />
</svg>