<svg width="200" height="100" viewBox="0 0 200 100" fill="none" xmlns="http://www.w3.org/2000/svg">
<path d="M89.952 97.998C85.3013 97.998 80.928 97.038 76.832 95.118C72.7787 93.198 69.28 90.5313 66.336 87.118C63.392 83.7046 61.28 79.7366 60 75.214L76.768 70.734C77.3227 72.91 78.304 74.7873 79.712 76.366C81.1627 77.9446 82.8267 79.182 84.704 80.078C86.624 80.9313 88.5867 81.358 90.592 81.358C93.2373 81.358 95.648 80.718 97.824 79.438C100.043 78.158 101.792 76.43 103.072 74.254C104.395 72.078 105.056 69.6673 105.056 67.022C105.056 64.3766 104.395 61.966 103.072 59.79C101.792 57.614 100.043 55.886 97.824 54.606C95.648 53.326 93.2373 52.686 90.592 52.686C87.3493 52.686 84.704 53.2406 82.656 54.35C80.608 55.4166 79.072 56.4406 78.048 57.422L63.328 52.942L66.144 3.91797H116.448V20.174H75.744L81.888 14.414L79.968 46.03L77.024 42.446C79.328 40.5686 81.952 39.2033 84.896 38.35C87.84 37.4966 90.592 37.07 93.152 37.07C98.9547 37.07 104.053 38.3713 108.448 40.974C112.885 43.534 116.341 47.0753 118.816 51.598C121.333 56.078 122.592 61.2193 122.592 67.022C122.592 72.8246 121.077 78.0726 118.048 82.766C115.019 87.4166 111.029 91.1286 106.08 93.902C101.131 96.6326 95.7547 97.998 89.952 97.998Z" fill="black"/>
<path d="M165.707 98C158.881 98 152.907 96.5707 147.787 93.712C142.667 90.8533 138.678 86.864 135.819 81.744C132.961 76.624 131.531 70.6507 131.531 63.824V36.176C131.531 29.3493 132.961 23.376 135.819 18.256C138.678 13.136 142.667 9.14666 147.787 6.28799C152.907 3.42933 158.881 2 165.707 2C172.534 2 178.507 3.42933 183.627 6.28799C188.747 9.14666 192.737 13.136 195.595 18.256C198.454 23.376 199.883 29.3493 199.883 36.176V63.824C199.883 70.6507 198.454 76.624 195.595 81.744C192.737 86.864 188.747 90.8533 183.627 93.712C178.507 96.5707 172.534 98 165.707 98ZM165.707 81.488C168.779 81.488 171.553 80.7627 174.027 79.312C176.502 77.8613 178.465 75.8987 179.915 73.424C181.366 70.9493 182.091 68.176 182.091 65.104V34.768C182.091 31.696 181.366 28.9227 179.915 26.448C178.465 23.9733 176.502 22.0107 174.027 20.56C171.553 19.1093 168.779 18.384 165.707 18.384C162.635 18.384 159.862 19.1093 157.387 20.56C154.913 22.0107 152.95 23.9733 151.499 26.448C150.049 28.9227 149.323 31.696 149.323 34.768V65.104C149.323 68.176 150.049 70.9493 151.499 73.424C152.95 75.8987 154.913 77.8613 157.387 79.312C159.862 80.7627 162.635 81.488 165.707 81.488Z" fill="#8F4EFF"/>
</svg>
