<svg width="235" height="150" viewBox="0 0 235 150" fill="none" xmlns="http://www.w3.org/2000/svg">
<path d="M116.612 122.919C110.511 122.919 105.028 121.49 100.164 118.631C95.343 115.772 91.5244 111.804 88.7084 106.727C85.8924 101.607 84.4844 95.6975 84.4844 88.9989V62.2469C84.4844 54.9935 85.8924 48.7429 88.7084 43.4949C91.5244 38.2042 95.4924 34.1509 100.612 31.3349C105.732 28.4762 111.748 27.0469 118.66 27.0469C123.14 27.0469 127.407 27.7082 131.46 29.0309C135.514 30.3535 139.226 32.5935 142.596 35.7509L130.18 48.1669C128.644 46.6309 126.874 45.4362 124.868 44.5829C122.863 43.7295 120.794 43.3029 118.66 43.3029C115.332 43.3029 112.431 44.0922 109.956 45.6709C107.524 47.2069 105.626 49.2335 104.26 51.7509C102.938 54.2255 102.276 56.8709 102.276 59.6869V73.3829L99.3324 70.1829C101.978 67.4949 105.028 65.4469 108.484 64.0389C111.983 62.5882 115.588 61.8629 119.3 61.8629C125.103 61.8629 130.202 63.1642 134.596 65.7669C139.034 68.3695 142.49 71.9322 144.964 76.4549C147.482 80.9775 148.74 86.1402 148.74 91.9429C148.74 97.7455 147.268 102.994 144.324 107.687C141.38 112.338 137.476 116.05 132.612 118.823C127.748 121.554 122.415 122.919 116.612 122.919ZM116.612 106.279C119.258 106.279 121.668 105.639 123.844 104.359C126.063 103.079 127.812 101.351 129.092 99.1749C130.415 96.9989 131.076 94.5882 131.076 91.9429C131.076 89.2975 130.436 86.8869 129.156 84.7109C127.876 82.4922 126.148 80.7429 123.972 79.4629C121.796 78.1402 119.386 77.4789 116.74 77.4789C114.095 77.4789 111.663 78.1402 109.444 79.4629C107.268 80.7429 105.519 82.4922 104.196 84.7109C102.916 86.8869 102.276 89.2975 102.276 91.9429C102.276 94.5029 102.916 96.8709 104.196 99.0469C105.476 101.223 107.204 102.972 109.38 104.295C111.556 105.618 113.967 106.279 116.612 106.279Z" fill="black"/>
<path d="M191.887 122.922C185.06 122.922 179.087 121.493 173.967 118.634C168.847 115.775 164.858 111.786 161.999 106.666C159.14 101.546 157.711 95.5725 157.711 88.7459V61.0979C157.711 54.2712 159.14 48.2979 161.999 43.1779C164.858 38.0579 168.847 34.0685 173.967 31.2099C179.087 28.3512 185.06 26.9219 191.887 26.9219C198.714 26.9219 204.687 28.3512 209.807 31.2099C214.927 34.0685 218.916 38.0579 221.775 43.1779C224.634 48.2979 226.063 54.2712 226.063 61.0979V88.7459C226.063 95.5725 224.634 101.546 221.775 106.666C218.916 111.786 214.927 115.775 209.807 118.634C204.687 121.493 198.714 122.922 191.887 122.922ZM191.887 106.41C194.959 106.41 197.732 105.685 200.207 104.234C202.682 102.783 204.644 100.821 206.095 98.3459C207.546 95.8712 208.271 93.0979 208.271 90.0259V59.6899C208.271 56.6179 207.546 53.8445 206.095 51.3699C204.644 48.8952 202.682 46.9325 200.207 45.4819C197.732 44.0312 194.959 43.3059 191.887 43.3059C188.815 43.3059 186.042 44.0312 183.567 45.4819C181.092 46.9325 179.13 48.8952 177.679 51.3699C176.228 53.8445 175.503 56.6179 175.503 59.6899V90.0259C175.503 93.0979 176.228 95.8712 177.679 98.3459C179.13 100.821 181.092 102.783 183.567 104.234C186.042 105.685 188.815 106.41 191.887 106.41Z" fill="#FEFEFE"/>
<path fill-rule="evenodd" clip-rule="evenodd" d="M191.887 27.9219C185.203 27.9219 179.403 29.3203 174.454 32.083C169.496 34.8513 165.64 38.7072 162.872 43.6654C160.109 48.6135 158.711 54.4136 158.711 61.0979V88.7459C158.711 95.4301 160.109 101.23 162.872 106.178C165.64 111.137 169.496 114.992 174.454 117.761C179.403 120.523 185.203 121.922 191.887 121.922C198.571 121.922 204.371 120.523 209.319 117.761C214.278 114.992 218.133 111.137 220.902 106.178C223.665 101.23 225.063 95.4301 225.063 88.7459V61.0979C225.063 54.4136 223.665 48.6135 220.902 43.6654C218.133 38.7072 214.278 34.8513 209.319 32.083C204.371 29.3203 198.571 27.9219 191.887 27.9219ZM173.479 30.3367C178.771 27.3821 184.918 25.9219 191.887 25.9219C198.856 25.9219 205.003 27.3821 210.294 30.3367C215.576 33.2857 219.699 37.4086 222.648 42.6904C225.603 47.9822 227.063 54.1288 227.063 61.0979V88.7459C227.063 95.715 225.603 101.862 222.648 107.153C219.699 112.435 215.576 116.558 210.294 119.507C205.003 122.462 198.856 123.922 191.887 123.922C184.918 123.922 178.771 122.462 173.479 119.507C168.198 116.558 164.075 112.435 161.126 107.153C158.171 101.862 156.711 95.715 156.711 88.7459V61.0979C156.711 54.1288 158.171 47.9822 161.126 42.6904C164.075 37.4086 168.198 33.2857 173.479 30.3367L173.967 31.2099L173.479 30.3367ZM183.061 44.6192C185.7 43.0722 188.65 42.3059 191.887 42.3059C195.124 42.3059 198.074 43.0722 200.713 44.6192C203.335 46.1563 205.42 48.2419 206.958 50.8642C208.505 53.5031 209.271 56.4532 209.271 59.6899V90.0259C209.271 93.2626 208.505 96.2127 206.958 98.8516C205.42 101.474 203.335 103.559 200.713 105.097C198.074 106.644 195.124 107.41 191.887 107.41C188.65 107.41 185.7 106.644 183.061 105.097C180.439 103.559 178.353 101.474 176.816 98.8516C175.269 96.2127 174.503 93.2626 174.503 90.0259V59.6899C174.503 56.4532 175.269 53.5031 176.816 50.8642C178.353 48.2419 180.439 46.1563 183.061 44.6192ZM191.887 44.3059C188.98 44.3059 186.383 44.9902 184.073 46.3446C181.746 47.7087 179.906 49.5485 178.542 51.8756C177.187 54.186 176.503 56.7826 176.503 59.6899V90.0259C176.503 92.9332 177.187 95.5298 178.542 97.8402C179.906 100.167 181.746 102.007 184.073 103.371C186.383 104.726 188.98 105.41 191.887 105.41C194.794 105.41 197.391 104.726 199.701 103.371C202.028 102.007 203.868 100.167 205.232 97.8402C206.587 95.5298 207.271 92.9332 207.271 90.0259V59.6899C207.271 56.7826 206.587 54.186 205.232 51.8756C203.868 49.5485 202.028 47.7087 199.701 46.3446C197.391 44.9902 194.794 44.3059 191.887 44.3059Z" fill="black"/>
</svg>
