<svg width="201" height="100" viewBox="0 0 201 100" fill="none" xmlns="http://www.w3.org/2000/svg">
<path d="M73.448 96.078L104.424 20.302H65V3.91797H123.112V20.302L92.264 96.078H73.448Z" fill="black"/>
<path d="M166.239 98C159.412 98 153.439 96.5707 148.319 93.712C143.199 90.8533 139.209 86.864 136.351 81.744C133.492 76.624 132.062 70.6507 132.062 63.824V36.176C132.062 29.3493 133.492 23.376 136.351 18.256C139.209 13.136 143.199 9.14666 148.319 6.28799C153.439 3.42933 159.412 2 166.239 2C173.065 2 179.039 3.42933 184.159 6.28799C189.279 9.14666 193.268 13.136 196.127 18.256C198.985 23.376 200.415 29.3493 200.415 36.176V63.824C200.415 70.6507 198.985 76.624 196.127 81.744C193.268 86.864 189.279 90.8533 184.159 93.712C179.039 96.5707 173.065 98 166.239 98ZM166.239 81.488C169.311 81.488 172.084 80.7627 174.559 79.312C177.033 77.8613 178.996 75.8987 180.447 73.424C181.897 70.9493 182.623 68.176 182.623 65.104V34.768C182.623 31.696 181.897 28.9227 180.447 26.448C178.996 23.9733 177.033 22.0107 174.559 20.56C172.084 19.1093 169.311 18.384 166.239 18.384C163.167 18.384 160.393 19.1093 157.919 20.56C155.444 22.0107 153.481 23.9733 152.031 26.448C150.58 28.9227 149.855 31.696 149.855 34.768V65.104C149.855 68.176 150.58 70.9493 152.031 73.424C153.481 75.8987 155.444 77.8613 157.919 79.312C160.393 80.7627 163.167 81.488 166.239 81.488Z" fill="#424242"/>
</svg>
