<svg width="235" height="150" viewBox="0 0 235 150" fill="none" xmlns="http://www.w3.org/2000/svg">
<path d="M115.206 122.922C108.977 122.922 103.43 121.663 98.5661 119.146C93.7448 116.586 89.9475 113.087 87.1741 108.65C84.4435 104.17 83.0781 99.0712 83.0781 93.3539C83.0781 88.4899 84.1661 83.9032 86.3421 79.5939C88.5608 75.2845 91.7395 71.7645 95.8781 69.0339L95.4941 74.4099C92.3795 71.3805 89.9261 68.1805 88.1341 64.8099C86.3848 61.4392 85.5101 57.6419 85.5101 53.4179C85.5101 48.0845 86.7688 43.4339 89.2861 39.4659C91.8461 35.4979 95.3448 32.4259 99.7821 30.2499C104.262 28.0312 109.403 26.9219 115.206 26.9219C121.009 26.9219 126.129 28.0312 130.566 30.2499C135.046 32.4259 138.545 35.4979 141.062 39.4659C143.622 43.4339 144.902 48.0845 144.902 53.4179C144.902 57.6419 144.07 61.4392 142.406 64.8099C140.742 68.1379 138.203 71.3805 134.79 74.5379V69.1619C138.843 71.7219 141.958 75.1779 144.134 79.5299C146.353 83.8819 147.462 88.4899 147.462 93.3539C147.462 99.0712 146.075 104.17 143.302 108.65C140.529 113.087 136.71 116.586 131.846 119.146C126.982 121.663 121.435 122.922 115.206 122.922ZM115.206 106.538C119.302 106.538 122.63 105.429 125.19 103.21C127.75 100.991 129.03 97.7059 129.03 93.3539C129.03 89.0445 127.75 85.7592 125.19 83.4979C122.63 81.1939 119.302 80.0419 115.206 80.0419C111.11 80.0419 107.803 81.1939 105.286 83.4979C102.769 85.7592 101.51 89.0445 101.51 93.3539C101.51 97.7059 102.769 100.991 105.286 103.21C107.803 105.429 111.11 106.538 115.206 106.538ZM115.206 63.5299C118.534 63.5299 121.243 62.7192 123.334 61.0979C125.425 59.4339 126.47 56.8739 126.47 53.4179C126.47 49.9619 125.425 47.4019 123.334 45.7379C121.243 44.0312 118.534 43.1779 115.206 43.1779C111.878 43.1779 109.169 44.0312 107.078 45.7379C104.987 47.4019 103.942 49.9619 103.942 53.4179C103.942 56.8739 104.987 59.4339 107.078 61.0979C109.169 62.7192 111.878 63.5299 115.206 63.5299Z" fill="black"/>
<path d="M191.887 122.922C185.06 122.922 179.087 121.493 173.967 118.634C168.847 115.775 164.858 111.786 161.999 106.666C159.14 101.546 157.711 95.5725 157.711 88.7459V61.0979C157.711 54.2712 159.14 48.2979 161.999 43.1779C164.858 38.0579 168.847 34.0685 173.967 31.2099C179.087 28.3512 185.06 26.9219 191.887 26.9219C198.714 26.9219 204.687 28.3512 209.807 31.2099C214.927 34.0685 218.916 38.0579 221.775 43.1779C224.634 48.2979 226.063 54.2712 226.063 61.0979V88.7459C226.063 95.5725 224.634 101.546 221.775 106.666C218.916 111.786 214.927 115.775 209.807 118.634C204.687 121.493 198.714 122.922 191.887 122.922ZM191.887 106.41C194.959 106.41 197.732 105.685 200.207 104.234C202.682 102.783 204.644 100.821 206.095 98.3459C207.546 95.8712 208.271 93.0979 208.271 90.0259V59.6899C208.271 56.6179 207.546 53.8445 206.095 51.3699C204.644 48.8952 202.682 46.9325 200.207 45.4819C197.732 44.0312 194.959 43.3059 191.887 43.3059C188.815 43.3059 186.042 44.0312 183.567 45.4819C181.092 46.9325 179.13 48.8952 177.679 51.3699C176.228 53.8445 175.503 56.6179 175.503 59.6899V90.0259C175.503 93.0979 176.228 95.8712 177.679 98.3459C179.13 100.821 181.092 102.783 183.567 104.234C186.042 105.685 188.815 106.41 191.887 106.41Z" fill="#FF77C4"/>
</svg>
