<svg width="200" height="100" viewBox="0 0 200 100" fill="none" xmlns="http://www.w3.org/2000/svg">
<path d="M89.128 98C82.8987 98 77.352 96.7413 72.488 94.224C67.6667 91.664 63.8693 88.1653 61.096 83.728C58.3653 79.248 57 74.1493 57 68.432C57 63.568 58.088 58.9813 60.264 54.672C62.4827 50.3627 65.6613 46.8427 69.8 44.112L69.416 49.488C66.3013 46.4587 63.848 43.2587 62.056 39.888C60.3067 36.5173 59.432 32.72 59.432 28.496C59.432 23.1627 60.6907 18.512 63.208 14.544C65.768 10.576 69.2667 7.504 73.704 5.328C78.184 3.10933 83.3253 2 89.128 2C94.9307 2 100.051 3.10933 104.488 5.328C108.968 7.504 112.467 10.576 114.984 14.544C117.544 18.512 118.824 23.1627 118.824 28.496C118.824 32.72 117.992 36.5173 116.328 39.888C114.664 43.216 112.125 46.4587 108.712 49.616V44.24C112.765 46.8 115.88 50.256 118.056 54.608C120.275 58.96 121.384 63.568 121.384 68.432C121.384 74.1493 119.997 79.248 117.224 83.728C114.451 88.1653 110.632 91.664 105.768 94.224C100.904 96.7413 95.3573 98 89.128 98ZM89.128 81.616C93.224 81.616 96.552 80.5067 99.112 78.288C101.672 76.0693 102.952 72.784 102.952 68.432C102.952 64.1227 101.672 60.8373 99.112 58.576C96.552 56.272 93.224 55.12 89.128 55.12C85.032 55.12 81.7253 56.272 79.208 58.576C76.6907 60.8373 75.432 64.1227 75.432 68.432C75.432 72.784 76.6907 76.0693 79.208 78.288C81.7253 80.5067 85.032 81.616 89.128 81.616ZM89.128 38.608C92.456 38.608 95.1653 37.7973 97.256 36.176C99.3467 34.512 100.392 31.952 100.392 28.496C100.392 25.04 99.3467 22.48 97.256 20.816C95.1653 19.1093 92.456 18.256 89.128 18.256C85.8 18.256 83.0907 19.1093 81 20.816C78.9093 22.48 77.864 25.04 77.864 28.496C77.864 31.952 78.9093 34.512 81 36.176C83.0907 37.7973 85.8 38.608 89.128 38.608Z" fill="black"/>
<path d="M165.809 98C158.982 98 153.009 96.5707 147.889 93.712C142.769 90.8533 138.779 86.864 135.921 81.744C133.062 76.624 131.633 70.6507 131.633 63.824V36.176C131.633 29.3493 133.062 23.376 135.921 18.256C138.779 13.136 142.769 9.14666 147.889 6.28799C153.009 3.42933 158.982 2 165.809 2C172.635 2 178.609 3.42933 183.729 6.28799C188.849 9.14666 192.838 13.136 195.697 18.256C198.555 23.376 199.985 29.3493 199.985 36.176V63.824C199.985 70.6507 198.555 76.624 195.697 81.744C192.838 86.864 188.849 90.8533 183.729 93.712C178.609 96.5707 172.635 98 165.809 98ZM165.809 81.488C168.881 81.488 171.654 80.7627 174.129 79.312C176.603 77.8613 178.566 75.8987 180.017 73.424C181.467 70.9493 182.193 68.176 182.193 65.104V34.768C182.193 31.696 181.467 28.9227 180.017 26.448C178.566 23.9733 176.603 22.0107 174.129 20.56C171.654 19.1093 168.881 18.384 165.809 18.384C162.737 18.384 159.963 19.1093 157.489 20.56C155.014 22.0107 153.051 23.9733 151.601 26.448C150.15 28.9227 149.425 31.696 149.425 34.768V65.104C149.425 68.176 150.15 70.9493 151.601 73.424C153.051 75.8987 155.014 77.8613 157.489 79.312C159.963 80.7627 162.737 81.488 165.809 81.488Z" fill="#FF77C4"/>
</svg>
