<svg width="201" height="100" viewBox="0 0 201 100" fill="none" xmlns="http://www.w3.org/2000/svg">
<path d="M88.128 2.125C94.2293 2.125 99.6907 3.55433 104.512 6.413C109.376 9.27166 113.216 13.261 116.032 18.381C118.848 23.4583 120.256 29.3463 120.256 36.045V62.797C120.256 70.0503 118.848 76.3223 116.032 81.613C113.216 86.861 109.248 90.9143 104.128 93.773C99.008 96.589 92.992 97.997 86.08 97.997C81.6 97.997 77.3333 97.3357 73.28 96.013C69.2693 94.6477 65.5573 92.4077 62.144 89.293L74.56 76.877C76.096 78.413 77.8667 79.6077 79.872 80.461C81.92 81.3143 83.9893 81.741 86.08 81.741C89.408 81.741 92.288 80.973 94.72 79.437C97.1947 77.8583 99.0933 75.8317 100.416 73.357C101.781 70.8397 102.464 68.173 102.464 65.357V51.661L105.408 54.861C102.805 57.549 99.7547 59.6183 96.256 61.069C92.7573 62.477 89.152 63.181 85.44 63.181C79.6373 63.181 74.5173 61.8797 70.08 59.277C65.6853 56.6743 62.2293 53.1117 59.712 48.589C57.2373 44.0663 56 38.9037 56 33.101C56 27.2983 57.472 22.0717 60.416 17.421C63.36 12.7277 67.264 9.01566 72.128 6.285C76.992 3.51167 82.3253 2.125 88.128 2.125ZM88.128 18.765C85.4827 18.765 83.0507 19.405 80.832 20.685C78.656 21.965 76.9067 23.693 75.584 25.869C74.304 28.045 73.664 30.4557 73.664 33.101C73.664 35.7463 74.304 38.1783 75.584 40.397C76.864 42.573 78.592 44.3223 80.768 45.645C82.944 46.925 85.3547 47.565 88 47.565C90.6453 47.565 93.056 46.925 95.232 45.645C97.4507 44.3223 99.2 42.573 100.48 40.397C101.803 38.1783 102.464 35.7463 102.464 33.101C102.464 30.541 101.824 28.173 100.544 25.997C99.264 23.821 97.536 22.0717 95.36 20.749C93.184 19.4263 90.7733 18.765 88.128 18.765Z" fill="black"/>
<path d="M165.957 98C159.131 98 153.157 96.5707 148.037 93.712C142.917 90.8533 138.928 86.864 136.069 81.744C133.211 76.624 131.781 70.6507 131.781 63.824V36.176C131.781 29.3493 133.211 23.376 136.069 18.256C138.928 13.136 142.917 9.14666 148.037 6.28799C153.157 3.42933 159.131 2 165.957 2C172.784 2 178.757 3.42933 183.877 6.28799C188.997 9.14666 192.987 13.136 195.845 18.256C198.704 23.376 200.133 29.3493 200.133 36.176V63.824C200.133 70.6507 198.704 76.624 195.845 81.744C192.987 86.864 188.997 90.8533 183.877 93.712C178.757 96.5707 172.784 98 165.957 98ZM165.957 81.488C169.029 81.488 171.803 80.7627 174.277 79.312C176.752 77.8613 178.715 75.8987 180.165 73.424C181.616 70.9493 182.341 68.176 182.341 65.104V34.768C182.341 31.696 181.616 28.9227 180.165 26.448C178.715 23.9733 176.752 22.0107 174.277 20.56C171.803 19.1093 169.029 18.384 165.957 18.384C162.885 18.384 160.112 19.1093 157.637 20.56C155.163 22.0107 153.2 23.9733 151.749 26.448C150.299 28.9227 149.573 31.696 149.573 34.768V65.104C149.573 68.176 150.299 70.9493 151.749 73.424C153.2 75.8987 155.163 77.8613 157.637 79.312C160.112 80.7627 162.885 81.488 165.957 81.488Z" fill="#12CDD4"/>
</svg>
