<svg width="235" height="150" viewBox="0 0 235 150" fill="none" xmlns="http://www.w3.org/2000/svg">
<path d="M114.05 27.0469C120.151 27.0469 125.613 28.4762 130.434 31.3349C135.298 34.1935 139.138 38.1829 141.954 43.3029C144.77 48.3802 146.178 54.2682 146.178 60.9669V87.7189C146.178 94.9722 144.77 101.244 141.954 106.535C139.138 111.783 135.17 115.836 130.05 118.695C124.93 121.511 118.914 122.919 112.002 122.919C107.522 122.919 103.255 122.258 99.2019 120.935C95.1912 119.57 91.4792 117.33 88.0659 114.215L100.482 101.799C102.018 103.335 103.789 104.53 105.794 105.383C107.842 106.236 109.911 106.663 112.002 106.663C115.33 106.663 118.21 105.895 120.642 104.359C123.117 102.78 125.015 100.754 126.338 98.2789C127.703 95.7615 128.386 93.0949 128.386 90.2789V76.5829L131.33 79.7829C128.727 82.4709 125.677 84.5402 122.178 85.9909C118.679 87.3989 115.074 88.1029 111.362 88.1029C105.559 88.1029 100.439 86.8015 96.0019 84.1989C91.6072 81.5962 88.1512 78.0335 85.6339 73.5109C83.1592 68.9882 81.9219 63.8255 81.9219 58.0229C81.9219 52.2202 83.3939 46.9935 86.3379 42.3429C89.2819 37.6495 93.1859 33.9375 98.0499 31.2069C102.914 28.4335 108.247 27.0469 114.05 27.0469ZM114.05 43.6869C111.405 43.6869 108.973 44.3269 106.754 45.6069C104.578 46.8869 102.829 48.6149 101.506 50.7909C100.226 52.9669 99.5859 55.3775 99.5859 58.0229C99.5859 60.6682 100.226 63.1002 101.506 65.3189C102.786 67.4949 104.514 69.2442 106.69 70.5669C108.866 71.8469 111.277 72.4869 113.922 72.4869C116.567 72.4869 118.978 71.8469 121.154 70.5669C123.373 69.2442 125.122 67.4949 126.402 65.3189C127.725 63.1002 128.386 60.6682 128.386 58.0229C128.386 55.4629 127.746 53.0949 126.466 50.9189C125.186 48.7429 123.458 46.9935 121.282 45.6709C119.106 44.3482 116.695 43.6869 114.05 43.6869Z" fill="black"/>
<path d="M191.879 122.922C185.052 122.922 179.079 121.493 173.959 118.634C168.839 115.775 164.85 111.786 161.991 106.666C159.132 101.546 157.703 95.5725 157.703 88.7459V61.0979C157.703 54.2712 159.132 48.2979 161.991 43.1779C164.85 38.0579 168.839 34.0685 173.959 31.2099C179.079 28.3512 185.052 26.9219 191.879 26.9219C198.706 26.9219 204.679 28.3512 209.799 31.2099C214.919 34.0685 218.908 38.0579 221.767 43.1779C224.626 48.2979 226.055 54.2712 226.055 61.0979V88.7459C226.055 95.5725 224.626 101.546 221.767 106.666C218.908 111.786 214.919 115.775 209.799 118.634C204.679 121.493 198.706 122.922 191.879 122.922ZM191.879 106.41C194.951 106.41 197.724 105.685 200.199 104.234C202.674 102.783 204.636 100.821 206.087 98.3459C207.538 95.8712 208.263 93.0979 208.263 90.0259V59.6899C208.263 56.6179 207.538 53.8445 206.087 51.3699C204.636 48.8952 202.674 46.9325 200.199 45.4819C197.724 44.0312 194.951 43.3059 191.879 43.3059C188.807 43.3059 186.034 44.0312 183.559 45.4819C181.084 46.9325 179.122 48.8952 177.671 51.3699C176.22 53.8445 175.495 56.6179 175.495 59.6899V90.0259C175.495 93.0979 176.22 95.8712 177.671 98.3459C179.122 100.821 181.084 102.783 183.559 104.234C186.034 105.685 188.807 106.41 191.879 106.41Z" fill="#12CDD4"/>
</svg>
