<svg width="100" height="100" viewBox="0 0 100 100" fill="none" xmlns="http://www.w3.org/2000/svg">
<rect x="17" y="2" width="67" height="96" rx="8" stroke="black" stroke-width="4"/>
<path d="M44.7 19.7182L44.699 19.7172C40.6357 15.3956 37.4803 12.1688 35.237 10.0429C34.0554 8.92308 32.7805 8.25528 31.4144 8.1083C29.9378 7.91337 28.6087 8.49197 27.456 9.7083C26.7814 10.4201 26.3218 11.1719 26.1279 11.9664C25.9317 12.7702 26.0184 13.5746 26.3666 14.3596L26.3719 14.3712C27.0119 15.7334 28.13 17.1512 29.687 18.6269L29.6883 18.6282L39.2936 27.8487L39.2963 27.8513C44.0194 32.3273 48.3249 35.9361 52.2122 38.6717L52.2317 38.6855L52.2523 38.6976C53.0613 39.1735 53.9734 39.2581 54.9403 39.0004C55.8894 38.7472 56.7156 38.2459 57.4128 37.5103C58.0758 36.8107 58.4816 36.0056 58.5994 35.1028L58.6015 35.0863L58.6027 35.0697C58.6758 34.068 58.2904 33.157 57.5395 32.3567L57.5187 32.3345L57.4956 32.3145C55.5976 30.6727 54.3708 29.5875 53.8038 29.0501C51.6273 26.9874 48.5939 23.8787 44.7 19.7182Z" fill="black" stroke="black" stroke-width="5"/>
<path d="M70.031 54.8741C70.9445 55.3826 72.0847 55.2231 72.8236 54.4834C73.5624 53.7436 73.7205 52.6034 73.211 51.6904C71.0159 47.7579 70.26 45.7258 69.8423 42.0193C69.7351 41.0686 69.0597 40.279 68.1371 40.0257C67.2144 39.7725 66.2305 40.1068 65.6531 40.8696C63.3746 43.8797 62.1205 45.0831 59.4615 46.6217C58.6295 47.103 58.1767 48.0444 58.3201 48.9949C58.4634 49.9454 59.1737 50.7115 60.1107 50.9262C64.141 51.8492 66.2063 52.745 70.031 54.8741Z" fill="black" stroke="black" stroke-width="5" stroke-linecap="round" stroke-linejoin="round"/>
<path d="M24.8865 86.1705C41.6608 84.5215 61.9208 70.258 46.5596 63.215C37.3068 58.9727 29.0794 75.8294 42.179 83.541C46.5596 87.0862 53.2228 91.6459 58.5 90.0859C63.7773 88.5259 66.2536 85.9945 67 80.0859C67.7464 74.1773 64.1 69.2148 74.5 63.2148" stroke="black" stroke-width="8" stroke-linecap="round" stroke-linejoin="round"/>
</svg>
