<?xml version="1.0" standalone="no"?>
<!DOCTYPE svg PUBLIC "-//W3C//DTD SVG 20010904//EN"
 "http://www.w3.org/TR/2001/REC-SVG-20010904/DTD/svg10.dtd">
<svg version="1.0" xmlns="http://www.w3.org/2000/svg"
 width="1024.000000pt" height="1024.000000pt" viewBox="0 0 1024.000000 1024.000000"
 preserveAspectRatio="xMidYMid meet">
<metadata>
Created by potrace 1.14, written by Peter Selinger 2001-2017
</metadata>
<g transform="translate(0.000000,1024.000000) scale(0.100000,-0.100000)"
fill="#000000" stroke="none">
<path d="M2366 10231 c-3 -4 -16 -8 -28 -7 -13 1 -26 -2 -29 -6 -3 -5 -20 -10
-37 -11 -18 -1 -32 -6 -32 -11 0 -4 -6 -6 -14 -3 -8 3 -16 3 -18 -1 -4 -9 -75
-42 -89 -42 -6 0 -23 -9 -39 -20 -15 -11 -30 -17 -34 -13 -3 3 -6 1 -6 -5 0
-7 -7 -12 -15 -12 -8 0 -15 -4 -15 -10 0 -5 -5 -10 -10 -10 -12 0 -14 -2 -72
-51 -21 -17 -38 -29 -38 -25 0 7 -110 -106 -110 -113 0 -3 -16 -24 -35 -46
-56 -65 -60 -71 -63 -86 -2 -7 -7 -16 -10 -19 -11 -8 -67 -124 -64 -132 1 -5
-3 -8 -10 -8 -6 0 -9 -3 -6 -6 3 -3 -3 -29 -13 -57 -11 -29 -22 -72 -25 -97
-3 -25 -9 -47 -12 -50 -4 -3 -7 -18 -6 -35 0 -16 -1 -34 -4 -39 -5 -9 -4
-8326 1 -8416 1 -25 5 -47 9 -50 4 -3 9 -21 11 -41 2 -19 7 -40 11 -47 4 -7 4
-16 1 -22 -3 -5 -1 -10 5 -10 7 0 10 -7 6 -15 -3 -8 -1 -15 4 -15 6 0 10 -7
10 -16 0 -19 64 -152 98 -204 12 -19 37 -53 55 -74 17 -21 32 -42 32 -45 -1
-7 100 -106 108 -106 3 0 21 -15 41 -32 19 -18 39 -33 44 -33 5 0 20 -10 33
-22 14 -13 29 -25 34 -27 6 -2 20 -7 33 -12 12 -5 22 -13 22 -18 0 -6 6 -8 14
-5 7 3 21 -2 30 -11 9 -9 16 -14 16 -10 0 3 10 0 23 -7 12 -7 24 -13 27 -13 3
-1 32 -9 65 -19 33 -11 69 -20 80 -21 11 -1 38 -6 60 -10 43 -8 5495 -12 5511
-3 5 2 20 4 34 4 14 -1 27 2 30 6 3 3 19 8 35 11 17 3 42 10 58 16 15 6 27 8
27 5 0 -4 7 -1 15 6 8 6 19 9 25 5 5 -3 10 -2 10 4 0 9 59 33 71 28 3 -1 13 6
23 15 10 10 24 18 32 18 8 0 14 4 14 8 0 8 18 18 55 33 5 2 19 13 30 24 12 11
34 29 50 40 36 26 113 103 145 145 14 19 33 42 43 52 9 10 17 21 17 26 0 4 7
15 15 25 8 9 15 22 15 27 0 6 5 10 10 10 6 0 9 3 8 8 -4 13 13 52 23 52 5 0 9
3 8 8 -2 15 14 52 23 52 5 0 6 4 3 10 -3 5 0 20 7 32 7 13 13 26 14 31 1 4 2
8 4 10 1 1 3 11 5 22 11 65 18 91 23 95 4 3 8 21 10 40 4 56 2 8441 -2 8480
-2 19 -11 59 -20 89 -8 29 -13 58 -10 63 4 6 2 13 -4 17 -7 4 -13 16 -15 26
-1 11 -6 26 -10 33 -5 6 -5 12 -2 12 4 0 -1 7 -9 16 -14 14 -21 35 -17 57 0 4
-4 7 -10 7 -5 0 -8 4 -5 9 3 5 -1 11 -9 15 -8 3 -15 10 -15 16 0 6 -15 32 -32
58 -18 26 -32 49 -31 52 0 3 -48 54 -108 114 -60 59 -109 105 -109 102 0 -8
-71 43 -82 59 -5 7 -8 7 -8 0 0 -5 -7 -1 -15 9 -8 11 -15 16 -15 12 0 -4 -20
4 -45 18 -25 15 -45 24 -45 21 0 -3 -10 0 -22 7 -13 6 -32 13 -43 15 -10 2
-22 7 -25 11 -3 4 -18 9 -35 11 -16 1 -34 6 -40 9 -5 4 -17 9 -25 11 -27 9
-5619 11 -5624 2z m919 -574 c17 -3 30 -6 30 -7 0 -1 16 -3 35 -6 19 -2 36 -9
38 -14 2 -5 10 -6 18 -3 8 3 14 0 14 -6 0 -6 6 -8 14 -5 7 3 20 -1 27 -8 8 -7
23 -15 34 -16 27 -5 95 -44 95 -54 0 -5 4 -7 9 -3 6 3 14 -3 20 -12 5 -10 11
-16 13 -13 11 16 140 -101 403 -365 361 -362 530 -535 522 -535 -4 0 34 -39
83 -87 50 -48 90 -91 90 -94 0 -3 37 -44 83 -91 45 -46 124 -129 176 -184 52
-54 168 -173 258 -264 90 -91 162 -168 160 -170 -1 -3 21 -28 50 -56 29 -28
53 -49 53 -46 0 3 48 -42 108 -100 176 -173 211 -206 214 -202 2 1 38 -30 81
-70 43 -39 79 -71 81 -69 2 2 115 -116 142 -149 23 -29 46 -68 39 -68 -3 0 1
-7 9 -16 9 -8 14 -19 11 -24 -3 -5 0 -10 6 -12 6 -2 12 -16 12 -31 1 -15 6
-27 11 -27 4 0 6 -7 2 -15 -3 -8 -1 -15 4 -15 10 0 9 4 14 -132 2 -54 0 -98
-4 -98 -4 0 -5 -11 -2 -25 2 -14 0 -25 -5 -25 -5 0 -10 -12 -11 -27 -1 -16 -7
-30 -12 -31 -6 -2 -8 -7 -5 -12 6 -10 -15 -60 -25 -60 -4 0 -7 -6 -7 -14 0
-18 -62 -116 -74 -116 -5 0 -9 -6 -9 -13 0 -7 -22 -34 -50 -61 -27 -27 -50
-46 -50 -43 0 3 -11 -4 -24 -16 -49 -45 -146 -105 -146 -90 0 4 -4 3 -8 -4 -4
-6 -16 -13 -27 -15 -11 -1 -22 -6 -25 -9 -3 -4 -16 -9 -30 -10 -14 -2 -27 -7
-30 -11 -22 -29 -330 -27 -365 2 -7 6 -15 7 -18 3 -4 -3 -7 -1 -7 5 0 7 -4 11
-8 9 -12 -3 -82 26 -82 35 0 4 -7 8 -15 8 -8 0 -15 5 -15 10 0 6 -6 10 -13 10
-7 0 -27 13 -44 29 -18 16 -34 27 -36 25 -2 -2 -20 11 -40 30 -20 19 -37 32
-37 29 0 -5 -74 51 -98 74 -7 7 -17 13 -21 13 -4 0 -25 17 -47 38 -22 20 -44
38 -48 39 -9 2 -80 60 -116 95 -16 15 -30 25 -33 22 -2 -3 -16 9 -31 26 -14
17 -26 28 -26 23 0 -4 -10 2 -22 14 -13 12 -38 35 -57 50 -19 15 -50 43 -69
61 -18 17 -37 32 -40 32 -6 0 -34 25 -113 103 -22 20 -42 37 -45 37 -6 0 -43
33 -157 143 -33 31 -62 57 -65 57 -3 0 -35 28 -71 63 -36 35 -122 117 -191
183 -68 65 -178 172 -243 237 -66 64 -123 117 -126 117 -4 0 -60 54 -125 120
-65 66 -121 120 -124 120 -4 0 -59 51 -122 114 -63 63 -157 154 -207 203 -51
48 -93 91 -93 94 0 4 -17 25 -37 46 -41 43 -58 64 -62 75 -1 4 -14 20 -29 36
-29 31 -105 156 -102 168 1 4 -3 10 -8 13 -16 10 -43 71 -37 81 3 6 1 10 -6
10 -7 0 -9 3 -6 7 4 3 2 12 -4 19 -6 7 -11 29 -12 48 -1 20 -5 36 -9 36 -11 0
-7 212 5 240 6 14 9 29 8 34 -1 5 1 16 5 25 4 9 8 22 10 30 1 8 6 17 11 20 4
3 9 15 11 26 2 11 12 32 23 47 10 15 19 32 19 38 0 5 5 10 10 10 6 0 10 6 10
13 0 8 17 32 38 55 22 23 37 42 34 42 -6 0 70 73 107 103 12 9 26 17 31 17 6
0 10 4 10 10 0 12 101 70 112 64 4 -3 8 -1 8 4 0 5 10 13 23 17 12 4 24 8 27
9 43 19 65 26 100 30 23 2 44 7 47 9 6 6 174 1 218 -6z m3735 -3261 c19 -3 36
-10 38 -15 2 -6 9 -8 16 -5 8 3 20 -1 27 -8 8 -7 21 -14 29 -16 8 -2 17 -7 20
-10 3 -4 12 -8 20 -10 26 -6 120 -91 120 -108 0 -7 7 -15 16 -18 8 -3 12 -10
9 -16 -3 -5 -2 -10 4 -10 13 0 42 -55 34 -64 -4 -3 -2 -6 4 -6 9 0 35 -69 32
-87 -1 -4 0 -10 1 -13 2 -3 4 -21 5 -40 2 -19 4 -37 6 -40 1 -3 3 -18 5 -35 1
-16 3 -32 4 -35 4 -9 12 -64 13 -92 1 -16 6 -28 11 -28 4 0 6 -9 3 -20 -3 -11
-1 -20 5 -20 6 0 8 -7 5 -15 -4 -8 -1 -17 4 -21 6 -3 9 -15 6 -25 -3 -11 -2
-19 2 -19 5 0 33 -76 36 -100 0 -3 6 -15 13 -27 7 -13 10 -23 7 -23 -3 0 1
-10 10 -23 8 -13 12 -27 8 -30 -3 -4 -1 -7 6 -7 7 0 11 -6 8 -14 -3 -8 -3 -16
1 -18 4 -2 28 -43 53 -93 88 -171 114 -220 122 -226 4 -3 9 -16 10 -27 1 -12
6 -22 11 -22 5 0 6 -3 3 -7 -4 -3 -2 -12 3 -18 11 -13 24 -102 23 -155 -2 -86
-25 -180 -49 -205 -8 -8 -13 -15 -9 -15 3 0 -1 -13 -10 -30 -9 -16 -20 -30
-25 -30 -6 0 -9 -4 -8 -8 4 -12 -84 -102 -93 -96 -5 3 -9 1 -9 -5 0 -10 -56
-47 -80 -53 -8 -2 -18 -7 -21 -11 -3 -4 -17 -9 -30 -11 -13 -2 -31 -6 -40 -10
-9 -4 -20 -6 -25 -5 -5 1 -11 0 -14 -1 -32 -15 -186 -2 -245 20 -11 4 -23 8
-28 9 -19 2 -67 33 -67 43 0 6 -3 8 -6 5 -6 -6 -61 19 -74 34 -3 3 -20 11 -37
18 -18 8 -33 18 -33 23 0 5 -4 7 -9 3 -5 -3 -16 2 -25 10 -8 9 -17 15 -18 13
-6 -4 -68 27 -68 35 0 5 -4 6 -9 2 -5 -3 -16 2 -25 10 -8 9 -18 15 -21 15 -10
-2 -75 24 -75 30 0 3 -9 6 -20 7 -11 1 -43 14 -72 28 -29 15 -55 26 -58 26
-12 -1 -86 22 -96 30 -6 5 -14 6 -17 3 -3 -3 -12 -2 -19 2 -7 5 -17 9 -23 11
-41 9 -58 13 -106 28 -30 9 -70 18 -89 20 -19 2 -53 12 -75 21 -22 10 -46 19
-53 20 -55 10 -237 186 -215 208 3 3 1 6 -6 6 -7 0 -9 5 -6 10 3 6 2 10 -3 10
-11 0 -44 99 -36 111 3 5 1 9 -5 9 -19 0 -3 245 17 260 4 3 9 14 10 25 2 11 9
23 15 27 7 4 9 8 4 8 -11 0 44 80 56 80 6 0 7 3 4 7 -8 7 41 63 54 63 5 0 19
10 33 23 13 12 41 31 63 42 21 11 43 24 48 28 9 7 37 26 90 59 11 7 22 15 25
18 3 3 27 24 54 45 67 54 125 116 214 228 25 31 49 57 53 57 5 0 9 6 9 14 0 8
9 21 20 29 11 8 18 16 15 18 -9 10 118 122 170 150 30 16 55 26 55 23 0 -4 6
-1 13 5 8 6 31 13 53 17 21 3 41 7 43 9 4 5 138 -2 181 -9z m-2435 -2156 c0
-2 70 -11 98 -13 9 -1 17 -4 17 -8 0 -4 8 -6 18 -4 9 1 22 -2 29 -7 7 -5 17
-7 22 -4 5 4 12 2 16 -4 4 -6 11 -8 16 -5 5 4 9 1 9 -5 0 -6 4 -9 9 -5 5 3 12
1 16 -5 4 -6 11 -8 16 -5 5 4 9 1 9 -6 0 -7 3 -9 7 -6 3 4 12 2 20 -4 7 -6 13
-8 13 -3 0 5 4 3 8 -3 4 -7 17 -14 29 -16 12 -1 27 -8 35 -14 7 -6 15 -11 18
-11 9 2 160 -83 166 -93 3 -5 9 -7 14 -4 4 3 11 -2 14 -11 3 -8 10 -13 15 -10
5 3 12 -1 15 -10 3 -8 10 -13 15 -9 6 3 14 -3 20 -12 6 -10 11 -14 11 -9 0 5
9 -1 20 -14 11 -13 20 -20 20 -16 0 4 13 -7 29 -23 16 -16 31 -28 33 -27 1 2
33 -28 70 -65 37 -38 64 -69 61 -69 -3 0 7 -11 23 -25 16 -14 25 -25 21 -25
-5 0 -2 -6 5 -14 31 -33 46 -55 41 -60 -4 -3 -1 -6 6 -6 7 0 10 -4 7 -8 -3 -5
3 -18 14 -29 10 -12 16 -24 13 -27 -4 -3 -1 -6 6 -6 7 0 10 -4 6 -9 -3 -5 -1
-12 5 -16 6 -4 8 -11 5 -16 -4 -5 -1 -9 4 -9 6 0 10 -3 9 -7 -1 -5 3 -18 10
-29 6 -12 8 -24 5 -28 -3 -3 -1 -6 5 -6 6 0 9 -9 7 -20 -2 -11 1 -20 6 -20 6
0 7 -4 4 -10 -3 -5 -3 -16 2 -22 4 -7 8 -21 9 -30 1 -10 3 -19 4 -20 11 -11
18 -278 8 -284 -5 -3 -6 -18 -3 -35 3 -16 1 -29 -4 -29 -6 0 -8 -9 -6 -20 2
-11 0 -22 -5 -25 -5 -3 -7 -12 -3 -20 3 -8 0 -15 -7 -15 -7 0 -10 -6 -7 -14 3
-8 3 -17 -1 -20 -3 -4 -7 -12 -8 -19 -5 -28 -9 -42 -16 -47 -4 -3 -9 -15 -11
-27 -1 -12 -9 -28 -16 -37 -7 -9 -10 -16 -6 -16 5 0 0 -9 -10 -20 -10 -11 -14
-20 -10 -20 4 0 1 -8 -8 -18 -10 -10 -14 -22 -10 -25 3 -4 1 -7 -6 -7 -7 0 -9
-4 -6 -10 3 -5 1 -10 -5 -10 -6 0 -8 -5 -5 -10 3 -6 -1 -13 -9 -16 -9 -3 -16
-12 -16 -19 0 -7 -7 -18 -15 -25 -8 -7 -12 -16 -9 -21 3 -5 -2 -12 -10 -15 -9
-3 -16 -13 -16 -20 0 -8 -7 -17 -15 -20 -8 -4 -15 -12 -15 -19 0 -7 -7 -15
-15 -19 -8 -3 -15 -10 -15 -16 0 -12 -27 -45 -92 -111 -27 -27 -48 -52 -48
-57 0 -5 -15 -20 -32 -33 -18 -13 -54 -45 -80 -71 -27 -26 -48 -45 -48 -42 0
3 -11 -5 -24 -18 -13 -13 -38 -34 -55 -48 -18 -14 -43 -35 -56 -48 -14 -12
-27 -22 -31 -21 -3 0 -19 -11 -35 -25 -16 -14 -29 -23 -29 -20 0 4 -8 -3 -19
-14 -10 -12 -21 -19 -25 -15 -3 3 -6 1 -6 -5 0 -6 -9 -14 -21 -17 -20 -7 -20
-7 3 -26 13 -10 29 -23 36 -29 6 -6 12 -7 12 -3 0 4 5 1 10 -7 5 -8 14 -15 20
-15 6 0 15 -7 20 -15 5 -8 10 -11 10 -7 0 7 10 0 45 -30 7 -7 18 -13 24 -13 6
0 11 -5 11 -11 0 -5 5 -7 10 -4 6 3 13 -1 16 -9 3 -9 10 -13 15 -10 5 3 9 1 9
-4 0 -5 18 -17 40 -27 22 -10 40 -22 40 -27 0 -5 5 -6 10 -3 6 3 10 1 10 -5 0
-6 5 -8 10 -5 6 3 10 1 10 -4 0 -6 9 -11 20 -11 11 0 20 -3 20 -8 0 -8 81 -47
93 -44 4 1 7 -3 7 -9 0 -5 5 -7 10 -4 6 3 10 1 10 -5 0 -6 5 -8 10 -5 6 3 10
1 10 -6 0 -7 3 -10 6 -6 4 3 19 0 35 -8 15 -8 38 -17 51 -19 13 -3 23 -5 23
-6 0 -1 7 -3 15 -5 45 -12 107 -27 120 -30 8 -2 17 -4 20 -5 3 -1 17 -1 33 0
15 1 27 -2 27 -7 0 -5 24 -7 53 -5 28 2 64 5 80 5 15 1 27 5 27 8 0 4 109 41
130 44 3 0 14 6 25 12 11 6 23 11 28 12 4 0 21 8 37 16 17 9 30 13 30 10 0 -4
7 1 16 9 8 9 22 16 30 16 8 0 14 3 14 8 1 4 25 25 54 46 29 22 66 58 81 80 37
51 84 146 85 169 0 9 4 17 10 17 5 0 7 7 4 15 -4 8 -1 15 6 15 6 0 8 5 5 10
-4 6 -1 26 5 46 7 20 14 48 15 62 2 15 6 43 10 62 3 19 6 61 7 93 0 31 4 57
10 57 5 0 6 5 2 11 -24 39 -21 733 3 773 8 11 13 40 14 69 0 9 3 17 7 17 4 0
8 11 8 25 1 14 5 33 9 43 5 9 10 25 12 35 2 10 9 28 15 40 7 12 13 24 13 27 4
23 18 50 26 50 6 0 7 5 4 10 -3 6 -1 10 5 10 6 0 9 4 5 9 -3 5 0 15 7 23 7 7
14 20 16 28 2 8 8 18 14 21 5 3 9 10 9 15 -1 5 5 16 12 24 7 9 16 24 20 33 3
9 11 17 17 17 6 0 9 4 6 8 -3 5 5 20 17 35 12 14 33 41 47 59 13 18 70 77 125
132 136 134 145 142 145 132 0 -5 10 3 21 18 12 15 23 25 25 23 3 -2 21 11 41
29 20 18 40 31 45 28 4 -3 8 -1 8 4 0 5 18 21 40 36 22 14 40 24 40 22 0 -3
12 6 26 19 15 14 30 22 35 19 5 -3 9 -1 9 3 0 12 56 44 64 36 3 -3 6 -1 6 5 0
14 55 44 64 35 3 -4 6 -1 6 5 0 6 17 16 37 23 48 16 213 22 213 8 0 -5 5 -7
10 -4 6 4 19 3 28 -1 9 -4 19 -8 22 -8 22 -5 70 -30 70 -38 0 -5 4 -7 9 -3 6
3 14 -2 19 -11 5 -9 13 -16 18 -17 28 -3 99 -93 106 -134 1 -5 8 -14 15 -21 7
-7 13 -19 14 -25 0 -7 3 -21 6 -32 8 -33 12 -175 5 -175 -4 0 -8 -14 -8 -31
-1 -17 -8 -35 -15 -40 -8 -5 -11 -9 -7 -9 4 0 -2 -19 -14 -42 -24 -49 -134
-161 -149 -153 -5 4 -9 2 -9 -3 0 -5 -17 -17 -37 -28 -21 -10 -46 -27 -57 -36
-10 -10 -23 -15 -28 -12 -4 3 -8 1 -8 -5 0 -5 -17 -20 -37 -32 -64 -38 -166
-122 -224 -184 -45 -47 -113 -136 -116 -150 -5 -26 -39 -110 -44 -113 -3 -1
-4 -14 -1 -27 2 -14 1 -33 -3 -42 -4 -10 -6 -76 -5 -148 1 -71 3 -187 4 -258
0 -70 4 -127 9 -127 4 0 7 -7 7 -15 0 -8 -3 -15 -7 -15 -5 0 -7 -45 -6 -100 1
-55 -2 -100 -5 -100 -4 0 -8 -19 -8 -43 -1 -23 -5 -58 -8 -77 -4 -19 -7 -42
-7 -50 -1 -8 -3 -22 -6 -30 -3 -8 -7 -30 -9 -49 -2 -19 -7 -37 -11 -40 -4 -3
-9 -13 -9 -21 -5 -45 -42 -170 -56 -187 -6 -7 -7 -13 -2 -13 4 0 3 -5 -4 -12
-7 -7 -12 -18 -12 -25 0 -13 -50 -124 -60 -133 -3 -3 -13 -22 -22 -43 -10 -20
-23 -37 -28 -37 -6 0 -9 -4 -5 -10 3 -5 -3 -18 -15 -30 -11 -11 -20 -24 -20
-29 0 -5 -14 -23 -30 -41 -17 -18 -30 -35 -30 -39 0 -3 -37 -42 -83 -86 -83
-80 -127 -118 -127 -111 0 2 -14 -9 -31 -25 -17 -16 -37 -29 -45 -29 -8 0 -14
-4 -14 -10 0 -5 -11 -12 -25 -16 -14 -3 -25 -10 -25 -16 0 -5 -4 -7 -9 -4 -5
4 -11 3 -13 -2 -4 -9 -188 -104 -188 -96 0 3 -12 -2 -27 -10 -28 -15 -62 -29
-75 -30 -3 -1 -10 -4 -14 -8 -4 -5 -17 -8 -29 -8 -11 0 -25 -4 -31 -9 -5 -6
-22 -13 -39 -16 -39 -8 -59 -13 -62 -15 -2 -2 -6 -3 -10 -4 -5 -1 -17 -5 -28
-9 -33 -11 -97 -20 -153 -21 -28 -1 -52 -4 -52 -8 0 -4 -44 -5 -97 -3 -54 3
-117 5 -141 6 -23 1 -45 5 -47 10 -3 4 -12 6 -20 2 -8 -3 -23 -2 -32 2 -10 4
-29 9 -43 11 -28 3 -37 5 -132 29 -38 10 -68 21 -68 26 0 5 -7 6 -15 3 -8 -4
-15 -1 -15 6 0 6 -4 9 -9 5 -11 -6 -143 44 -152 58 -3 5 -9 8 -13 6 -12 -4
-76 24 -76 33 0 4 -3 7 -7 6 -9 -3 -201 92 -258 127 -22 14 -55 32 -72 41 -18
9 -33 20 -33 25 0 5 -4 8 -8 6 -11 -3 -82 46 -82 56 0 5 -4 6 -9 3 -5 -3 -20
5 -34 18 -14 13 -28 21 -31 19 -3 -3 -8 2 -12 11 -3 9 -10 14 -14 11 -5 -3
-16 5 -24 17 -9 12 -16 19 -16 15 0 -5 -20 6 -45 24 -25 18 -45 37 -45 42 0 6
-3 8 -6 4 -6 -6 -19 2 -60 41 -14 12 -28 22 -32 22 -6 0 -38 26 -102 82 -27
23 -88 48 -92 37 -2 -6 -12 -12 -23 -14 -11 -2 -22 -4 -25 -5 -3 -1 -8 -2 -12
-1 -5 0 -8 -4 -8 -10 0 -6 -7 -9 -15 -5 -8 3 -15 1 -15 -4 0 -4 -24 -16 -52
-26 -29 -10 -55 -19 -58 -20 -31 -11 -56 -17 -59 -15 -2 2 -7 -2 -10 -8 -4 -6
-18 -12 -31 -13 -14 -2 -27 -6 -30 -10 -3 -4 -16 -9 -28 -11 -12 -2 -25 -6
-28 -10 -4 -4 -17 -7 -29 -7 -11 0 -25 -4 -30 -9 -6 -6 -21 -12 -35 -14 -14
-2 -38 -9 -53 -16 -16 -6 -32 -9 -37 -6 -5 3 -12 0 -15 -6 -4 -5 -13 -8 -21
-5 -8 3 -14 0 -14 -5 0 -6 -9 -9 -20 -6 -11 3 -23 1 -26 -5 -3 -5 -12 -7 -19
-4 -8 3 -15 1 -17 -4 -2 -5 -17 -11 -33 -13 -17 -2 -37 -7 -43 -11 -7 -4 -19
-5 -27 -2 -8 3 -15 1 -15 -5 0 -6 -7 -9 -15 -6 -8 4 -17 1 -21 -4 -3 -6 -15
-9 -25 -6 -10 3 -22 1 -25 -5 -3 -5 -15 -8 -25 -5 -10 3 -21 1 -24 -3 -3 -5
-13 -9 -23 -9 -28 -2 -66 -8 -82 -14 -8 -4 -24 -5 -35 -3 -11 2 -22 0 -25 -5
-3 -4 -32 -11 -65 -14 -33 -3 -78 -8 -100 -11 -139 -17 -165 -19 -228 -10 -54
7 -147 43 -147 57 0 5 -6 9 -12 9 -23 0 -134 127 -129 145 2 4 -3 11 -9 15
-32 20 -51 259 -24 301 5 8 9 16 9 19 3 21 18 50 26 50 6 0 8 4 4 9 -6 11 133
156 142 147 3 -3 12 2 20 10 8 8 19 12 24 9 5 -4 9 -2 9 3 0 9 96 36 115 32 6
-1 12 -1 15 0 7 3 77 11 122 13 21 1 38 5 38 9 0 4 10 7 23 7 12 -1 32 1 43 4
45 11 100 20 127 21 15 1 27 5 27 10 0 4 9 6 20 3 11 -3 23 -1 26 5 3 5 15 8
25 5 11 -3 19 -1 19 5 0 6 6 8 14 5 7 -3 19 0 25 6 6 6 11 8 11 4 0 -3 19 0
41 9 23 8 51 16 63 19 44 9 62 14 104 29 23 8 45 15 48 15 4 -1 39 11 91 31
l22 9 -25 46 c-14 25 -23 45 -19 45 3 0 -1 7 -9 16 -9 8 -14 20 -11 25 4 5 1
9 -5 9 -7 0 -10 7 -6 15 3 8 1 15 -3 15 -11 0 -33 59 -26 70 3 5 1 10 -5 12
-5 1 -11 12 -13 23 -1 11 -6 25 -9 31 -4 6 -10 24 -13 40 -13 60 -17 80 -19
100 -1 11 -5 25 -9 31 -3 5 -5 20 -2 31 2 12 -1 24 -6 28 -10 6 -10 2 -11 229
-1 172 1 215 10 229 3 5 6 25 8 45 2 20 5 43 7 51 2 8 8 34 12 58 4 23 12 45
16 48 5 3 7 10 4 15 -4 5 -3 15 2 22 4 6 9 21 10 31 2 11 8 25 13 31 5 7 7 15
3 18 -3 4 0 7 7 7 7 0 11 3 7 6 -7 8 13 64 24 64 4 0 6 6 3 14 -3 7 3 22 13
31 10 10 16 19 14 19 -8 2 11 46 20 46 5 0 8 3 7 8 -4 12 44 102 68 127 12 13
19 26 17 29 -3 3 2 8 11 12 9 3 14 10 11 14 -2 4 13 27 35 50 22 24 40 46 40
50 0 7 122 124 170 163 19 15 62 44 95 64 33 20 62 40 65 43 3 4 22 13 43 21
20 7 37 17 37 22 0 4 5 5 10 2 6 -3 10 -1 10 5 0 6 4 9 9 5 5 -3 12 -1 16 5 4
6 11 8 16 5 5 -4 9 -1 9 5 0 6 4 9 9 5 5 -3 12 -1 16 5 4 6 11 8 16 5 5 -4 9
-1 9 4 0 6 3 10 8 10 4 -1 9 0 12 1 7 2 51 10 73 12 9 1 17 6 17 9 0 4 11 6
25 3 14 -2 25 0 25 4 0 5 16 8 36 7 19 -1 37 1 39 5 3 5 240 6 240 0z"/>
<path d="M4388 3423 c-17 -7 -33 -11 -36 -9 -2 3 -13 -4 -25 -14 -11 -11 -23
-17 -27 -15 -5 3 -10 -2 -14 -10 -3 -8 -10 -15 -16 -15 -6 0 -25 -16 -43 -36
-18 -20 -40 -45 -49 -55 -10 -11 -18 -22 -18 -27 0 -4 -10 -19 -22 -32 -13
-14 -24 -32 -26 -40 -2 -8 -7 -17 -10 -20 -4 -3 -9 -14 -10 -25 -2 -11 -7 -22
-10 -25 -4 -3 -9 -12 -10 -20 -2 -8 -11 -42 -19 -75 -9 -33 -16 -68 -15 -77 0
-10 -2 -18 -6 -18 -4 0 -7 -47 -7 -105 0 -58 4 -105 9 -105 4 0 6 -11 4 -25
-3 -13 -1 -26 3 -27 5 -2 11 -19 13 -38 3 -19 6 -36 7 -37 1 -2 2 -6 3 -10 4
-13 27 -66 42 -94 7 -14 11 -29 7 -33 -3 -3 -1 -6 6 -6 6 0 16 -11 21 -25 11
-30 23 -31 60 -5 15 11 30 17 34 13 3 -3 6 -1 6 5 0 7 6 12 14 12 8 0 16 4 18
8 4 9 93 72 103 72 4 0 12 6 20 13 24 23 68 52 71 47 1 -3 12 8 24 23 12 15
25 26 27 23 3 -3 14 6 25 19 11 14 24 23 29 20 5 -4 9 -2 9 4 0 6 33 38 73 73
39 34 71 65 70 69 -1 3 12 20 30 37 18 17 37 37 43 44 12 16 87 131 90 138 1
3 5 20 9 38 4 17 11 32 15 32 4 0 5 16 3 37 -4 36 -49 104 -87 132 -11 8 -28
23 -38 33 -10 10 -22 18 -28 18 -5 0 -13 7 -18 16 -5 9 -11 15 -13 14 -8 -3
-44 13 -71 32 -14 10 -33 18 -42 18 -9 0 -16 5 -16 12 0 6 -3 8 -6 5 -4 -3
-15 -2 -26 4 -45 24 -136 30 -180 12z"/>
</g>
</svg>
