<svg width="288" height="200" viewBox="0 0 288 200" fill="none" xmlns="http://www.w3.org/2000/svg">
<rect width="288" height="200" fill="white"/>
<path d="M57.1494 36.1818L47.5357 36.1818C47.4675 35.3864 47.2857 34.6648 46.9903 34.017C46.7062 33.3693 46.3084 32.8125 45.7971 32.3466C45.2971 31.8693 44.6891 31.5057 43.9732 31.2557C43.2573 30.9943 42.4448 30.8636 41.5357 30.8636C39.9448 30.8636 38.5982 31.25 37.4959 32.0227C36.405 32.7955 35.5755 33.9034 35.0073 35.3466C34.4505 36.7898 34.1721 38.5227 34.1721 40.5455C34.1721 42.6818 34.4562 44.4716 35.0244 45.9148C35.6039 47.3466 36.4391 48.4261 37.53 49.1534C38.6209 49.8693 39.9334 50.2273 41.4675 50.2273C42.3425 50.2273 43.1266 50.1193 43.8198 49.9034C44.513 49.6761 45.1153 49.3523 45.6266 48.9318C46.138 48.5114 46.5528 48.0057 46.8709 47.4148C47.2005 46.8125 47.4221 46.1364 47.5357 45.3864L57.1494 45.4545C57.0357 46.9318 56.6209 48.4375 55.905 49.9716C55.1891 51.4943 54.1721 52.9034 52.8539 54.1989C51.5471 55.483 49.9278 56.517 47.9959 57.3011C46.0641 58.0852 43.8198 58.4773 41.263 58.4773C38.0584 58.4773 35.1834 57.7898 32.638 56.4148C30.1039 55.0398 28.0982 53.017 26.6209 50.3466C25.155 47.6761 24.4221 44.4091 24.4221 40.5455C24.4221 36.6591 25.1721 33.3864 26.6721 30.7273C28.1721 28.0568 30.1948 26.0398 32.7403 24.6761C35.2857 23.3011 38.1266 22.6136 41.263 22.6136C43.4675 22.6136 45.4959 22.9148 47.3482 23.517C49.2005 24.1193 50.8255 25 52.2232 26.1591C53.6209 27.3068 54.7459 28.7216 55.5982 30.4034C56.4505 32.0852 56.9675 34.0114 57.1494 36.1818ZM96.2273 40.5454C96.2273 44.4318 95.4716 47.7102 93.9602 50.3807C92.4488 53.0398 90.4091 55.0568 87.8409 56.4318C85.2727 57.7955 82.4091 58.4773 79.25 58.4773C76.0682 58.4773 73.1932 57.7898 70.625 56.4148C68.0682 55.0284 66.0341 53.0057 64.5227 50.3466C63.0227 47.6761 62.2727 44.4091 62.2727 40.5455C62.2727 36.6591 63.0227 33.3864 64.5227 30.7273C66.0341 28.0568 68.0682 26.0398 70.625 24.6761C73.1932 23.3011 76.0682 22.6136 79.25 22.6136C82.4091 22.6136 85.2727 23.3011 87.8409 24.6761C90.4091 26.0398 92.4488 28.0568 93.9602 30.7273C95.4716 33.3864 96.2273 36.6591 96.2273 40.5454ZM86.4773 40.5455C86.4773 38.4545 86.1988 36.6932 85.642 35.2614C85.0966 33.8182 84.2841 32.7273 83.2045 31.9886C82.1363 31.2386 80.8182 30.8636 79.25 30.8636C77.6818 30.8636 76.3579 31.2386 75.2784 31.9886C74.2102 32.7273 73.3977 33.8182 72.8409 35.2614C72.2954 36.6932 72.0227 38.4545 72.0227 40.5455C72.0227 42.6364 72.2954 44.4034 72.8409 45.8466C73.3977 47.2784 74.2102 48.3693 75.2784 49.1193C76.3579 49.858 77.6818 50.2273 79.25 50.2273C80.8182 50.2273 82.1363 49.858 83.2045 49.1193C84.2841 48.3693 85.0966 47.2784 85.642 45.8466C86.1988 44.4034 86.4773 42.6364 86.4773 40.5455ZM111.049 23.0909L111.049 58L101.572 58L101.572 23.0909L111.049 23.0909ZM146.705 23.0909L146.705 58L138.796 58L126.183 39.6591L125.978 39.6591L125.978 58L116.501 58L116.501 23.0909L124.546 23.0909L136.955 41.3636L137.228 41.3636L137.228 23.0909L146.705 23.0909ZM165.002 58L165.002 23.0909L188.116 23.0909L188.116 29.1761L172.383 29.1761L172.383 37.4943L186.581 37.4943L186.581 43.5795L172.383 43.5795L172.383 58L165.002 58ZM194.04 58L194.04 23.0909L201.421 23.0909L201.421 51.9148L216.387 51.9148L216.387 58L194.04 58ZM229.615 23.0909L229.615 58L222.234 58L222.234 23.0909L229.615 23.0909ZM236.648 58L236.648 23.0909L250.42 23.0909C253.068 23.0909 255.324 23.5966 257.187 24.6079C259.051 25.6079 260.471 27 261.449 28.7841C262.437 30.5568 262.932 32.6023 262.932 34.9204C262.932 37.2386 262.432 39.2841 261.432 41.0568C260.432 42.8295 258.983 44.2102 257.085 45.1989C255.199 46.1875 252.915 46.6818 250.233 46.6818L241.454 46.6818L241.454 40.767L249.04 40.767C250.46 40.767 251.63 40.5227 252.551 40.0341C253.483 39.5341 254.176 38.8466 254.63 37.9716C255.096 37.0852 255.329 36.0682 255.329 34.9204C255.329 33.7613 255.096 32.75 254.63 31.8863C254.176 31.0113 253.483 30.3352 252.551 29.8579C251.619 29.3693 250.437 29.125 249.005 29.125L244.028 29.125L244.028 58L236.648 58Z" fill="black"/>
<path d="M31.4514 173L31.4514 146.818L49.0935 146.818L49.0935 151.382L36.9869 151.382L36.9869 157.621L48.1858 157.621L48.1858 162.185L36.9869 162.185L36.9869 168.436L49.1446 168.436L49.1446 173L31.4514 173ZM58.9445 146.818L65.2726 166.71L65.5155 166.71L71.8564 146.818L77.9928 146.818L68.9672 173L61.8337 173L52.7954 146.818L58.9445 146.818ZM81.8641 173L81.8641 146.818L99.5061 146.818L99.5061 151.382L87.3996 151.382L87.3996 157.621L98.5985 157.621L98.5985 162.185L87.3996 162.185L87.3996 168.436L99.5573 168.436L99.5573 173L81.8641 173ZM126.526 146.818L126.526 173L121.745 173L110.354 156.521L110.163 156.521L110.163 173L104.627 173L104.627 146.818L109.485 146.818L120.786 163.284L121.016 163.284L121.016 146.818L126.526 146.818Z" fill="#757575"/>
<path d="M193.344 159.909C193.344 162.764 192.803 165.193 191.72 167.196C190.646 169.199 189.18 170.729 187.322 171.786C185.473 172.834 183.393 173.358 181.084 173.358C178.757 173.358 176.669 172.83 174.82 171.773C172.97 170.716 171.509 169.186 170.435 167.183C169.361 165.18 168.824 162.756 168.824 159.909C168.824 157.054 169.361 154.625 170.435 152.622C171.509 150.619 172.97 149.094 174.82 148.045C176.669 146.989 178.757 146.46 181.084 146.46C183.393 146.46 185.473 146.989 187.322 148.045C189.18 149.094 190.646 150.619 191.72 152.622C192.803 154.625 193.344 157.054 193.344 159.909ZM187.732 159.909C187.732 158.06 187.455 156.5 186.901 155.23C186.355 153.96 185.584 152.997 184.587 152.341C183.589 151.685 182.422 151.357 181.084 151.357C179.746 151.357 178.578 151.685 177.581 152.341C176.584 152.997 175.808 153.96 175.254 155.23C174.709 156.5 174.436 158.06 174.436 159.909C174.436 161.759 174.709 163.318 175.254 164.588C175.808 165.858 176.584 166.821 177.581 167.477C178.578 168.134 179.746 168.462 181.084 168.462C182.422 168.462 183.589 168.134 184.587 167.477C185.584 166.821 186.355 165.858 186.901 164.588C187.455 163.318 187.732 161.759 187.732 159.909ZM207.445 173L198.164 173L198.164 146.818L207.522 146.818C210.156 146.818 212.423 147.342 214.323 148.391C216.224 149.43 217.686 150.926 218.708 152.878C219.74 154.83 220.255 157.165 220.255 159.884C220.255 162.611 219.74 164.955 218.708 166.915C217.686 168.875 216.215 170.379 214.298 171.428C212.389 172.476 210.105 173 207.445 173ZM203.7 168.257L207.215 168.257C208.852 168.257 210.228 167.967 211.345 167.388C212.47 166.8 213.313 165.892 213.876 164.665C214.447 163.429 214.732 161.835 214.732 159.884C214.732 157.949 214.447 156.368 213.876 155.141C213.313 153.913 212.474 153.01 211.357 152.43C210.241 151.851 208.865 151.561 207.228 151.561L203.7 151.561L203.7 168.257ZM234.357 173L225.076 173L225.076 146.818L234.434 146.818C237.067 146.818 239.334 147.342 241.235 148.391C243.135 149.43 244.597 150.926 245.62 152.878C246.651 154.83 247.167 157.165 247.167 159.884C247.167 162.611 246.651 164.955 245.62 166.915C244.597 168.875 243.127 170.379 241.209 171.428C239.3 172.476 237.016 173 234.357 173ZM230.611 168.257L234.127 168.257C235.763 168.257 237.14 167.967 238.256 167.388C239.381 166.8 240.225 165.892 240.787 164.665C241.358 163.429 241.644 161.835 241.644 159.884C241.644 157.949 241.358 156.368 240.787 155.141C240.225 153.913 239.385 153.01 238.269 152.43C237.152 151.851 235.776 151.561 234.14 151.561L230.611 151.561L230.611 168.257Z" fill="#757575"/>
<path d="M51 103.778C51 96.1111 53.7222 89.5741 59.1667 84.1667C64.5741 78.7222 71.1111 76 78.7778 76C86.4444 76 93 78.7222 98.4445 84.1667C103.852 89.5741 106.556 96.1111 106.556 103.778L106.556 104.333L106.556 104.889L106.556 105.444L106.556 106L106.556 106.556L106.556 107.111L106.556 107.667L106.556 108.222C106.556 115.889 103.852 122.444 98.4445 127.889C93 133.296 86.4445 136 78.7778 136C71.1111 136 64.5741 133.296 59.1667 127.889C53.7222 122.444 51 115.889 51 108.222L51 107.667L51 107.111L51 106.556L51 106L51 105.444L51 104.889L51 104.333L51 103.778ZM99.8889 103.778C99.8889 97.963 97.8333 93 93.7222 88.8889C89.5741 84.7407 84.5926 82.6667 78.7778 82.6667C72.963 82.6667 68 84.7407 63.8889 88.8889C59.7407 93 57.6667 97.963 57.6667 103.778C57.6667 109.593 59.7407 114.574 63.8889 118.722C68 122.833 72.963 124.889 78.7778 124.889C84.5926 124.889 89.5741 122.833 93.7222 118.722C97.8333 114.574 99.8889 109.593 99.8889 103.778Z" fill="#A253F3"/>
<path d="M68.7773 103.778C68.7773 104.704 69.1107 105.5 69.7773 106.167L76.444 112.833C76.9255 113.315 77.5366 113.63 78.2773 113.778L80.3329 113.444C80.9626 113.074 81.444 112.574 81.7773 111.944L88.444 98.611C88.8515 97.7962 88.907 96.9443 88.6107 96.0554C88.3143 95.2036 87.7588 94.574 86.944 94.1666L84.3885 93.9443C83.5366 94.2407 82.907 94.7962 82.4996 95.611L77.8885 104.833L74.4996 101.444C73.8329 100.778 73.0366 100.444 72.1107 100.444C71.1848 100.444 70.407 100.778 69.7773 101.444C69.1107 102.074 68.7773 102.852 68.7773 103.778Z" fill="#A253F3"/>
<path d="M180.445 103.778C180.445 96.1111 183.168 89.5741 188.612 84.1667C194.019 78.7222 200.556 76 208.223 76C215.89 76 222.445 78.7222 227.89 84.1667C233.297 89.5741 236.001 96.1111 236.001 103.778L236.001 104.333L236.001 104.889L236.001 105.444L236.001 106L236.001 106.556L236.001 107.111L236.001 107.667L236.001 108.222C236.001 115.889 233.297 122.444 227.89 127.889C222.445 133.296 215.89 136 208.223 136C200.556 136 194.019 133.296 188.612 127.889C183.168 122.444 180.445 115.889 180.445 108.222L180.445 107.667L180.445 107.111L180.445 106.556L180.445 106L180.445 105.444L180.445 104.889L180.445 104.333L180.445 103.778ZM229.334 103.778C229.334 97.963 227.279 93 223.168 88.8889C219.019 84.7407 214.038 82.6667 208.223 82.6667C202.408 82.6667 197.445 84.7407 193.334 88.8889C189.186 93 187.112 97.963 187.112 103.778C187.112 109.593 189.186 114.574 193.334 118.722C197.445 122.833 202.408 124.889 208.223 124.889C214.038 124.889 219.019 122.833 223.168 118.722C227.279 114.574 229.334 109.593 229.334 103.778Z" fill="#A253F3"/>
<path d="M199.889 100.612L203.056 103.778L199.889 107C199.222 107.63 198.889 108.408 198.889 109.334C198.889 110.26 199.222 111.056 199.889 111.723C200.519 112.352 201.296 112.667 202.222 112.667C203.148 112.667 203.944 112.352 204.611 111.723L207.778 108.5L211 111.723C211.63 112.352 212.407 112.667 213.333 112.667C214.259 112.667 215.056 112.352 215.722 111.723C216.352 111.056 216.667 110.26 216.667 109.334C216.667 108.408 216.352 107.63 215.722 107L212.5 103.778L215.722 100.612C216.352 99.9449 216.667 99.1486 216.667 98.2227C216.667 97.2968 216.352 96.519 215.722 95.8894C215.056 95.2227 214.259 94.8894 213.333 94.8894C212.407 94.8894 211.63 95.2227 211 95.8894L207.778 99.056L204.611 95.8894C203.944 95.2227 203.148 94.8894 202.222 94.8894C201.296 94.8894 200.519 95.2227 199.889 95.8894C199.222 96.519 198.889 97.2968 198.889 98.2227C198.889 99.1486 199.222 99.9449 199.889 100.612ZM220.389 91.2783C223.833 94.7227 225.556 98.8894 225.556 103.778C225.556 108.667 223.833 112.871 220.389 116.389C216.87 119.834 212.667 121.556 207.778 121.556C202.889 121.556 198.722 119.834 195.278 116.389C191.759 112.871 190 108.667 190 103.778C190 98.8894 191.741 94.7227 195.222 91.2783L195.278 91.2227C198.722 87.7413 202.889 86.0005 207.778 86.0005C212.667 86.0005 216.87 87.7597 220.389 91.2783Z" fill="#A253F3"/>
</svg>
