<svg width="502" height="71" viewBox="0 0 502 71" fill="none" xmlns="http://www.w3.org/2000/svg">
  <path fill-rule="evenodd" clip-rule="evenodd"
    d="M35.5 70.5C54.83 70.5 70.5 54.83 70.5 35.5C70.5 16.17 54.83 0.5 35.5 0.5C16.17 0.5 0.5 16.17 0.5 35.5C0.5 54.83 16.17 70.5 35.5 70.5ZM52.8282 23.7188C54.0536 21.8807 53.5569 19.3972 51.7188 18.1718C49.8807 16.9464 47.3972 17.4431 46.1718 19.2812L30.8333 42.2889L24.8282 33.2812C23.6028 31.4431 21.1193 30.9464 19.2812 32.1718C17.4431 33.3972 16.9464 35.8807 18.1718 37.7188L27.5051 51.7188C28.247 52.8316 29.4959 53.5 30.8333 53.5C32.1707 53.5 33.4197 52.8316 34.1615 51.7188L52.8282 23.7188Z"
    fill="#7CB342" />
  <path
    d="M90.7131 45.9659L73.7386 29.0199L77.4602 25.2557L94.4489 42.2443L90.7131 45.9659ZM77.4602 45.9659L73.7386 42.2443L90.7131 25.2557L94.4489 29.0199L77.4602 45.9659ZM118.868 50.3977C117.372 50.3883 115.928 50.1373 114.536 49.6449C113.153 49.1525 111.913 48.3523 110.814 47.2443C109.716 46.1364 108.844 44.6686 108.2 42.8409C107.566 41.0133 107.249 38.7689 107.249 36.108C107.258 33.6648 107.538 31.482 108.087 29.5597C108.646 27.6278 109.441 25.9896 110.473 24.6449C111.515 23.3002 112.76 22.2775 114.209 21.5767C115.658 20.8665 117.282 20.5114 119.081 20.5114C121.022 20.5114 122.736 20.8902 124.223 21.6477C125.71 22.3958 126.903 23.4138 127.803 24.7017C128.712 25.9896 129.261 27.4337 129.45 29.0341H123.385C123.148 28.0208 122.651 27.2254 121.894 26.6477C121.136 26.0701 120.199 25.7813 119.081 25.7813C117.187 25.7813 115.748 26.6051 114.763 28.2528C113.788 29.9006 113.29 32.1402 113.271 34.9716H113.47C113.906 34.1098 114.493 33.3759 115.232 32.7699C115.98 32.1544 116.827 31.6856 117.774 31.3636C118.731 31.0322 119.739 30.8665 120.8 30.8665C122.523 30.8665 124.057 31.2737 125.402 32.0881C126.747 32.893 127.807 34.0009 128.584 35.4119C129.36 36.8229 129.749 38.4375 129.749 40.2557C129.749 42.2254 129.289 43.9773 128.371 45.5114C127.462 47.0455 126.188 48.2481 124.55 49.1193C122.921 49.9811 121.027 50.4072 118.868 50.3977ZM118.84 45.5682C119.787 45.5682 120.634 45.3409 121.382 44.8864C122.13 44.4318 122.717 43.8163 123.144 43.0398C123.57 42.2633 123.783 41.392 123.783 40.4261C123.783 39.4602 123.57 38.5937 123.144 37.8267C122.727 37.0597 122.149 36.4489 121.411 35.9943C120.672 35.5398 119.829 35.3125 118.882 35.3125C118.172 35.3125 117.514 35.4451 116.908 35.7102C116.311 35.9754 115.786 36.3447 115.331 36.8182C114.886 37.2917 114.536 37.8409 114.28 38.4659C114.024 39.0814 113.896 39.7396 113.896 40.4403C113.896 41.3778 114.11 42.2348 114.536 43.0114C114.971 43.7879 115.558 44.4081 116.297 44.8722C117.045 45.3362 117.893 45.5682 118.84 45.5682ZM144.716 50.6392C142.273 50.6297 140.17 50.0284 138.409 48.8352C136.657 47.642 135.308 45.9138 134.361 43.6506C133.423 41.3873 132.959 38.6648 132.969 35.483C132.969 32.3106 133.437 29.607 134.375 27.3722C135.322 25.1373 136.671 23.4375 138.423 22.2727C140.185 21.0985 142.282 20.5114 144.716 20.5114C147.149 20.5114 149.242 21.0985 150.994 22.2727C152.756 23.447 154.11 25.1515 155.057 27.3864C156.004 29.6117 156.472 32.3106 156.463 35.483C156.463 38.6742 155.989 41.4015 155.042 43.6648C154.105 45.928 152.76 47.6562 151.008 48.8494C149.256 50.0426 147.159 50.6392 144.716 50.6392ZM144.716 45.5398C146.382 45.5398 147.713 44.7017 148.707 43.0256C149.702 41.3494 150.194 38.8352 150.185 35.483C150.185 33.2765 149.957 31.4394 149.503 29.9716C149.058 28.5038 148.423 27.4006 147.599 26.6619C146.785 25.9233 145.824 25.554 144.716 25.554C143.059 25.554 141.733 26.3826 140.738 28.0398C139.744 29.697 139.242 32.178 139.233 35.483C139.233 37.7178 139.455 39.5833 139.9 41.0795C140.355 42.5663 140.994 43.6837 141.818 44.4318C142.642 45.1705 143.608 45.5398 144.716 45.5398Z"
    fill="black" />
  <path fill-rule="evenodd" clip-rule="evenodd"
    d="M225.5 62.5C240.412 62.5 252.5 50.4117 252.5 35.5C252.5 20.5883 240.412 8.5 225.5 8.5C210.588 8.5 198.5 20.5883 198.5 35.5C198.5 50.4117 210.588 62.5 225.5 62.5ZM225.5 70.5C244.83 70.5 260.5 54.83 260.5 35.5C260.5 16.17 244.83 0.5 225.5 0.5C206.17 0.5 190.5 16.17 190.5 35.5C190.5 54.83 206.17 70.5 225.5 70.5Z"
    fill="#F44336" />
  <path fill-rule="evenodd" clip-rule="evenodd"
    d="M212.672 21.6716C214.234 20.1095 216.766 20.1095 218.328 21.6716L226 29.3431L233.672 21.6716C235.234 20.1095 237.766 20.1095 239.328 21.6716C240.891 23.2337 240.891 25.7663 239.328 27.3284L231.657 35L239.328 42.6716C240.891 44.2337 240.891 46.7663 239.328 48.3284C237.766 49.8905 235.234 49.8905 233.672 48.3284L226 40.6569L218.328 48.3284C216.766 49.8905 214.234 49.8905 212.672 48.3284C211.109 46.7663 211.109 44.2337 212.672 42.6716L220.343 35L212.672 27.3284C211.109 25.7663 211.109 23.2337 212.672 21.6716Z"
    fill="#F44336" />
  <path
    d="M280.713 45.9659L263.739 29.0199L267.46 25.2557L284.449 42.2443L280.713 45.9659ZM267.46 45.9659L263.739 42.2443L280.713 25.2557L284.449 29.0199L267.46 45.9659ZM308.868 50.3977C307.372 50.3883 305.928 50.1373 304.536 49.6449C303.153 49.1525 301.913 48.3523 300.814 47.2443C299.716 46.1364 298.844 44.6686 298.2 42.8409C297.566 41.0133 297.249 38.7689 297.249 36.108C297.258 33.6648 297.538 31.482 298.087 29.5597C298.646 27.6278 299.441 25.9896 300.473 24.6449C301.515 23.3002 302.76 22.2775 304.209 21.5767C305.658 20.8665 307.282 20.5114 309.081 20.5114C311.022 20.5114 312.736 20.8902 314.223 21.6477C315.71 22.3958 316.903 23.4138 317.803 24.7017C318.712 25.9896 319.261 27.4337 319.45 29.0341H313.385C313.148 28.0208 312.651 27.2254 311.894 26.6477C311.136 26.0701 310.199 25.7813 309.081 25.7813C307.187 25.7813 305.748 26.6051 304.763 28.2528C303.788 29.9006 303.29 32.1402 303.271 34.9716H303.47C303.906 34.1098 304.493 33.3759 305.232 32.7699C305.98 32.1544 306.827 31.6856 307.774 31.3636C308.731 31.0322 309.739 30.8665 310.8 30.8665C312.523 30.8665 314.057 31.2737 315.402 32.0881C316.747 32.893 317.807 34.0009 318.584 35.4119C319.36 36.8229 319.749 38.4375 319.749 40.2557C319.749 42.2254 319.289 43.9773 318.371 45.5114C317.462 47.0455 316.188 48.2481 314.55 49.1193C312.921 49.9811 311.027 50.4072 308.868 50.3977ZM308.84 45.5682C309.787 45.5682 310.634 45.3409 311.382 44.8864C312.13 44.4318 312.717 43.8163 313.144 43.0398C313.57 42.2633 313.783 41.392 313.783 40.4261C313.783 39.4602 313.57 38.5937 313.144 37.8267C312.727 37.0597 312.149 36.4489 311.411 35.9943C310.672 35.5398 309.829 35.3125 308.882 35.3125C308.172 35.3125 307.514 35.4451 306.908 35.7102C306.311 35.9754 305.786 36.3447 305.331 36.8182C304.886 37.2917 304.536 37.8409 304.28 38.4659C304.024 39.0814 303.896 39.7396 303.896 40.4403C303.896 41.3778 304.11 42.2348 304.536 43.0114C304.971 43.7879 305.558 44.4081 306.297 44.8722C307.045 45.3362 307.893 45.5682 308.84 45.5682ZM334.716 50.6392C332.273 50.6297 330.17 50.0284 328.409 48.8352C326.657 47.642 325.308 45.9138 324.361 43.6506C323.423 41.3873 322.959 38.6648 322.969 35.483C322.969 32.3106 323.437 29.607 324.375 27.3722C325.322 25.1373 326.671 23.4375 328.423 22.2727C330.185 21.0985 332.282 20.5114 334.716 20.5114C337.149 20.5114 339.242 21.0985 340.994 22.2727C342.756 23.447 344.11 25.1515 345.057 27.3864C346.004 29.6117 346.472 32.3106 346.463 35.483C346.463 38.6742 345.989 41.4015 345.042 43.6648C344.105 45.928 342.76 47.6562 341.008 48.8494C339.256 50.0426 337.159 50.6392 334.716 50.6392ZM334.716 45.5398C336.382 45.5398 337.713 44.7017 338.707 43.0256C339.702 41.3494 340.194 38.8352 340.185 35.483C340.185 33.2765 339.957 31.4394 339.503 29.9716C339.058 28.5038 338.423 27.4006 337.599 26.6619C336.785 25.9233 335.824 25.554 334.716 25.554C333.059 25.554 331.733 26.3826 330.738 28.0398C329.744 29.697 329.242 32.178 329.233 35.483C329.233 37.7178 329.455 39.5833 329.9 41.0795C330.355 42.5663 330.994 43.6837 331.818 44.4318C332.642 45.1705 333.608 45.5398 334.716 45.5398Z"
    fill="black" />
  <path fill-rule="evenodd" clip-rule="evenodd"
    d="M395 18.5C393.094 18.5 391.367 19.1545 390.179 20.1731C389.009 21.1753 388.5 22.3904 388.5 23.5C388.5 25.7091 386.709 27.5 384.5 27.5C382.291 27.5 380.5 25.7091 380.5 23.5C380.5 19.8357 382.203 16.4724 384.972 14.099C387.722 11.742 391.337 10.5 395 10.5L398 10.5C401.663 10.5 405.278 11.742 408.028 14.099C410.768 16.4476 412.464 19.7656 412.499 23.3854C412.633 26.1608 411.873 28.9071 410.331 31.2207C408.815 33.4946 406.623 35.231 404.067 36.1865C403.223 36.6241 402.296 37.5098 401.575 38.9529C400.818 40.4656 400.413 42.359 400.496 44.33C400.59 46.5371 398.877 48.4025 396.67 48.4964C394.463 48.5903 392.597 46.8771 392.504 44.67C392.367 41.4469 393.011 38.1912 394.419 35.3752C395.825 32.565 397.999 30.1925 400.802 28.8783C400.923 28.8215 401.047 28.7709 401.173 28.7265C402.196 28.367 403.073 27.6849 403.675 26.7831C404.276 25.8813 404.568 24.8086 404.506 23.7265C404.502 23.6511 404.5 23.5755 404.5 23.5C404.5 22.3904 403.991 21.1753 402.821 20.1731C401.633 19.1545 399.906 18.5 398 18.5H395ZM396.5 52.5C398.709 52.5 400.5 54.2909 400.5 56.5V56.53C400.5 58.7391 398.709 60.53 396.5 60.53C394.291 60.53 392.5 58.7391 392.5 56.53V56.5C392.5 54.2909 394.291 52.5 396.5 52.5Z"
    fill="#1D89F3" />
  <path
    d="M432.713 45.9659L415.739 29.0199L419.46 25.2557L436.449 42.2443L432.713 45.9659ZM419.46 45.9659L415.739 42.2443L432.713 25.2557L436.449 29.0199L419.46 45.9659ZM449.263 44.8864V40.0426L461.408 20.9091H465.584V27.6136H463.112L455.456 39.7301V39.9574H472.715V44.8864H449.263ZM463.226 50V43.4091L463.34 41.2642V20.9091H469.107V50H463.226ZM487.419 50.6392C484.976 50.6297 482.873 50.0284 481.112 48.8352C479.36 47.642 478.011 45.9138 477.064 43.6506C476.126 41.3873 475.662 38.6648 475.672 35.483C475.672 32.3106 476.14 29.607 477.078 27.3722C478.025 25.1373 479.374 23.4375 481.126 22.2727C482.888 21.0985 484.985 20.5114 487.419 20.5114C489.853 20.5114 491.945 21.0985 493.697 22.2727C495.459 23.447 496.813 25.1515 497.76 27.3864C498.707 29.6117 499.176 32.3106 499.166 35.483C499.166 38.6742 498.693 41.4015 497.746 43.6648C496.808 45.928 495.463 47.6562 493.712 48.8494C491.96 50.0426 489.862 50.6392 487.419 50.6392ZM487.419 45.5398C489.086 45.5398 490.416 44.7017 491.41 43.0256C492.405 41.3494 492.897 38.8352 492.888 35.483C492.888 33.2765 492.66 31.4394 492.206 29.9716C491.761 28.5038 491.126 27.4006 490.302 26.6619C489.488 25.9233 488.527 25.554 487.419 25.554C485.762 25.554 484.436 26.3826 483.442 28.0398C482.447 29.697 481.945 32.178 481.936 35.483C481.936 37.7178 482.158 39.5833 482.604 41.0795C483.058 42.5663 483.697 43.6837 484.521 44.4318C485.345 45.1705 486.311 45.5398 487.419 45.5398Z"
    fill="black" />
</svg>