<svg width="278" height="152" viewBox="0 0 278 152" fill="none" xmlns="http://www.w3.org/2000/svg">
<rect width="278" height="152" fill="white"/>
<path d="M22.4514 143L22.4514 116.818L40.0935 116.818L40.0935 121.382L27.9869 121.382L27.9869 127.621L39.1858 127.621L39.1858 132.185L27.9869 132.185L27.9869 138.436L40.1446 138.436L40.1446 143L22.4514 143ZM49.9445 116.818L56.2726 136.71L56.5155 136.71L62.8564 116.818L68.9928 116.818L59.9672 143L52.8337 143L43.7954 116.818L49.9445 116.818ZM72.8641 143L72.8641 116.818L90.5061 116.818L90.5061 121.382L78.3996 121.382L78.3996 127.621L89.5985 127.621L89.5985 132.185L78.3996 132.185L78.3996 138.436L90.5573 138.436L90.5573 143L72.8641 143ZM117.526 116.818L117.526 143L112.745 143L101.354 126.521L101.163 126.521L101.163 143L95.6271 143L95.6271 116.818L100.485 116.818L111.786 133.284L112.016 133.284L112.016 116.818L117.526 116.818Z" fill="#757575"/>
<path d="M9.46893 36L9.46893 9.81818L15.0044 9.81818L15.0044 20.6207L26.2417 20.6207L26.2417 9.81818L31.7644 9.81818L31.7644 36L26.2417 36L26.2417 25.1847L15.0044 25.1847L15.0044 36L9.46893 36ZM36.3283 36L36.3283 9.81818L53.9703 9.81818L53.9703 14.3821L41.8638 14.3821L41.8638 20.6207L53.0627 20.6207L53.0627 25.1847L41.8638 25.1847L41.8638 31.4361L54.0215 31.4361L54.0215 36L36.3283 36ZM62.8841 36L56.9522 36L65.9906 9.81818L73.1241 9.81818L82.1497 36L76.2179 36L69.6596 15.8011L69.4551 15.8011L62.8841 36ZM62.5133 25.7088L76.5247 25.7088L76.5247 30.0298L62.5133 30.0298L62.5133 25.7088ZM94.5822 36L85.301 36L85.301 9.81818L94.6589 9.81818C97.2924 9.81818 99.5595 10.3423 101.46 11.3906C103.361 12.4304 104.822 13.9261 105.845 15.8778C106.876 17.8295 107.392 20.1648 107.392 22.8835C107.392 25.6108 106.876 27.9545 105.845 29.9148C104.822 31.875 103.352 33.3793 101.434 34.4276C99.5254 35.4758 97.2413 36 94.5822 36ZM90.8365 31.2571L94.3521 31.2571C95.9885 31.2571 97.3649 30.9673 98.4814 30.3878C99.6064 29.7997 100.45 28.892 101.013 27.6648C101.584 26.429 101.869 24.8352 101.869 22.8835C101.869 20.9489 101.584 19.3679 101.013 18.1406C100.45 16.9133 99.6106 16.0099 98.4941 15.4304C97.3777 14.8508 96.0012 14.5611 94.3649 14.5611L90.8365 14.5611L90.8365 31.2571ZM125.695 17.348C125.593 16.3168 125.154 15.5156 124.379 14.9446C123.603 14.3736 122.551 14.0881 121.221 14.0881C120.318 14.0881 119.555 14.2159 118.933 14.4716C118.311 14.7187 117.833 15.0639 117.501 15.5071C117.177 15.9503 117.015 16.4531 117.015 17.0156C116.998 17.4844 117.096 17.8935 117.309 18.2429C117.531 18.5923 117.833 18.8949 118.217 19.1506C118.6 19.3977 119.044 19.615 119.546 19.8025C120.049 19.9815 120.586 20.1349 121.157 20.2628L123.509 20.8253C124.651 21.081 125.7 21.4219 126.654 21.848C127.609 22.2741 128.436 22.7983 129.134 23.4204C129.833 24.0426 130.374 24.7756 130.758 25.6193C131.15 26.4631 131.35 27.4304 131.359 28.5213C131.35 30.1236 130.941 31.5128 130.132 32.6889C129.33 33.8565 128.171 34.7642 126.654 35.4119C125.146 36.0511 123.326 36.3707 121.195 36.3707C119.082 36.3707 117.241 36.0469 115.673 35.3991C114.113 34.7514 112.894 33.7926 112.017 32.5227C111.147 31.2443 110.691 29.6633 110.649 27.7798L116.005 27.7798C116.065 28.6577 116.316 29.3906 116.759 29.9787C117.211 30.5582 117.812 30.9972 118.562 31.2954C119.32 31.5852 120.177 31.7301 121.132 31.7301C122.069 31.7301 122.883 31.5937 123.573 31.321C124.272 31.0483 124.813 30.669 125.197 30.1832C125.58 29.6974 125.772 29.1392 125.772 28.5085C125.772 27.9204 125.597 27.4261 125.248 27.0256C124.907 26.625 124.404 26.2841 123.74 26.0028C123.083 25.7216 122.278 25.4659 121.323 25.2358L118.472 24.5199C116.265 23.9829 114.522 23.1435 113.244 22.0014C111.965 20.8594 111.33 19.321 111.339 17.3864C111.33 15.8011 111.752 14.4162 112.605 13.2315C113.465 12.0469 114.646 11.1222 116.146 10.4574C117.646 9.79261 119.35 9.46022 121.259 9.46022C123.203 9.46022 124.899 9.79261 126.347 10.4574C127.805 11.1222 128.938 12.0469 129.748 13.2315C130.558 14.4162 130.975 15.7883 131.001 17.348L125.695 17.348Z" fill="#3C3C3C"/>
<path d="M193.344 129.909C193.344 132.764 192.803 135.193 191.72 137.196C190.646 139.199 189.18 140.729 187.322 141.786C185.473 142.834 183.393 143.358 181.084 143.358C178.757 143.358 176.669 142.83 174.82 141.773C172.97 140.716 171.509 139.186 170.435 137.183C169.361 135.18 168.824 132.756 168.824 129.909C168.824 127.054 169.361 124.625 170.435 122.622C171.509 120.619 172.97 119.094 174.82 118.045C176.669 116.989 178.757 116.46 181.084 116.46C183.393 116.46 185.473 116.989 187.322 118.045C189.18 119.094 190.646 120.619 191.72 122.622C192.803 124.625 193.344 127.054 193.344 129.909ZM187.732 129.909C187.732 128.06 187.455 126.5 186.901 125.23C186.355 123.96 185.584 122.997 184.587 122.341C183.589 121.685 182.422 121.357 181.084 121.357C179.746 121.357 178.578 121.685 177.581 122.341C176.584 122.997 175.808 123.96 175.254 125.23C174.709 126.5 174.436 128.06 174.436 129.909C174.436 131.759 174.709 133.318 175.254 134.588C175.808 135.858 176.584 136.821 177.581 137.477C178.578 138.134 179.746 138.462 181.084 138.462C182.422 138.462 183.589 138.134 184.587 137.477C185.584 136.821 186.355 135.858 186.901 134.588C187.455 133.318 187.732 131.759 187.732 129.909ZM207.445 143L198.164 143L198.164 116.818L207.522 116.818C210.156 116.818 212.423 117.342 214.323 118.391C216.224 119.43 217.686 120.926 218.708 122.878C219.74 124.83 220.255 127.165 220.255 129.884C220.255 132.611 219.74 134.955 218.708 136.915C217.686 138.875 216.215 140.379 214.298 141.428C212.389 142.476 210.105 143 207.445 143ZM203.7 138.257L207.215 138.257C208.852 138.257 210.228 137.967 211.345 137.388C212.47 136.8 213.313 135.892 213.876 134.665C214.447 133.429 214.732 131.835 214.732 129.884C214.732 127.949 214.447 126.368 213.876 125.141C213.313 123.913 212.474 123.01 211.357 122.43C210.241 121.851 208.865 121.561 207.228 121.561L203.7 121.561L203.7 138.257ZM234.357 143L225.076 143L225.076 116.818L234.434 116.818C237.067 116.818 239.334 117.342 241.235 118.391C243.135 119.43 244.597 120.926 245.62 122.878C246.651 124.83 247.167 127.165 247.167 129.884C247.167 132.611 246.651 134.955 245.62 136.915C244.597 138.875 243.127 140.379 241.209 141.428C239.3 142.476 237.016 143 234.357 143ZM230.611 138.257L234.127 138.257C235.763 138.257 237.14 137.967 238.256 137.388C239.381 136.8 240.225 135.892 240.787 134.665C241.358 133.429 241.644 131.835 241.644 129.884C241.644 127.949 241.358 126.368 240.787 125.141C240.225 123.913 239.385 123.01 238.269 122.43C237.152 121.851 235.776 121.561 234.14 121.561L230.611 121.561L230.611 138.257Z" fill="#757575"/>
<path d="M158.337 14.3821L158.337 9.81818L179.84 9.81818L179.84 14.3821L171.824 14.3821L171.824 36L166.353 36L166.353 14.3821L158.337 14.3821ZM184.695 36L178.763 36L187.801 9.81818L194.935 9.81818L203.96 36L198.028 36L191.47 15.8011L191.266 15.8011L184.695 36ZM184.324 25.7088L198.335 25.7088L198.335 30.0298L184.324 30.0298L184.324 25.7088ZM212.647 9.81818L212.647 36L207.112 36L207.112 9.81818L212.647 9.81818ZM217.201 36L217.201 9.81818L222.737 9.81818L222.737 31.4361L233.961 31.4361L233.961 36L217.201 36ZM251.83 17.348C251.728 16.3168 251.289 15.5156 250.513 14.9446C249.738 14.3736 248.685 14.0881 247.356 14.0881C246.452 14.0881 245.69 14.2159 245.067 14.4716C244.445 14.7187 243.968 15.0639 243.636 15.5071C243.312 15.9503 243.15 16.4531 243.15 17.0156C243.133 17.4844 243.231 17.8935 243.444 18.2429C243.665 18.5923 243.968 18.8949 244.352 19.1506C244.735 19.3977 245.178 19.6151 245.681 19.8026C246.184 19.9815 246.721 20.1349 247.292 20.2628L249.644 20.8253C250.786 21.081 251.835 21.4219 252.789 21.848C253.744 22.2741 254.57 22.7983 255.269 23.4204C255.968 24.0426 256.509 24.7756 256.893 25.6193C257.285 26.4631 257.485 27.4304 257.494 28.5213C257.485 30.1236 257.076 31.5128 256.266 32.6889C255.465 33.8565 254.306 34.7642 252.789 35.4119C251.281 36.0511 249.461 36.3707 247.33 36.3707C245.217 36.3707 243.376 36.0469 241.808 35.3991C240.248 34.7514 239.029 33.7926 238.151 32.5227C237.282 31.2443 236.826 29.6633 236.783 27.7798L242.14 27.7798C242.2 28.6577 242.451 29.3906 242.894 29.9787C243.346 30.5582 243.947 30.9972 244.697 31.2954C245.455 31.5852 246.312 31.7301 247.266 31.7301C248.204 31.7301 249.018 31.5937 249.708 31.321C250.407 31.0483 250.948 30.669 251.332 30.1832C251.715 29.6974 251.907 29.1392 251.907 28.5085C251.907 27.9204 251.732 27.4261 251.383 27.0256C251.042 26.625 250.539 26.2841 249.874 26.0028C249.218 25.7216 248.413 25.4659 247.458 25.2358L244.607 24.5199C242.4 23.9829 240.657 23.1435 239.379 22.0014C238.1 20.8594 237.465 19.321 237.474 17.3864C237.465 15.8011 237.887 14.4162 238.739 13.2315C239.6 12.0469 240.781 11.1222 242.281 10.4574C243.781 9.79261 245.485 9.46022 247.394 9.46022C249.337 9.46022 251.033 9.79261 252.482 10.4574C253.94 11.1222 255.073 12.0469 255.883 13.2315C256.692 14.4162 257.11 15.7883 257.136 17.348L251.83 17.348Z" fill="#3C3C3C"/>
<path d="M42 73.7778C42 66.1111 44.7222 59.5741 50.1667 54.1667C55.5741 48.7222 62.1111 46 69.7778 46C77.4444 46 84 48.7222 89.4445 54.1667C94.8519 59.5741 97.5556 66.1111 97.5556 73.7778L97.5556 74.3333L97.5556 74.8889L97.5556 75.4444L97.5556 76L97.5556 76.5556L97.5556 77.1111L97.5556 77.6667L97.5556 78.2222C97.5556 85.8889 94.8519 92.4444 89.4445 97.8889C84 103.296 77.4445 106 69.7778 106C62.1111 106 55.5741 103.296 50.1667 97.8889C44.7222 92.4444 42 85.8889 42 78.2222L42 77.6667L42 77.1111L42 76.5556L42 76L42 75.4444L42 74.8889L42 74.3333L42 73.7778ZM90.8889 73.7778C90.8889 67.963 88.8333 63 84.7222 58.8889C80.5741 54.7407 75.5926 52.6667 69.7778 52.6667C63.963 52.6667 59 54.7407 54.8889 58.8889C50.7407 63 48.6667 67.963 48.6667 73.7778C48.6667 79.5926 50.7407 84.5741 54.8889 88.7222C59 92.8333 63.963 94.8889 69.7778 94.8889C75.5926 94.8889 80.5741 92.8333 84.7222 88.7222C88.8333 84.5741 90.8889 79.5926 90.8889 73.7778Z" fill="#A253F3"/>
<path d="M59.7773 73.7777C59.7773 74.7036 60.1107 75.4999 60.7773 76.1666L67.444 82.8332C67.9255 83.3147 68.5366 83.6296 69.2773 83.7777L71.3329 83.4443C71.9626 83.074 72.444 82.574 72.7773 81.9443L79.444 68.611C79.8515 67.7962 79.907 66.9443 79.6107 66.0554C79.3143 65.2036 78.7588 64.574 77.944 64.1666L75.3885 63.9443C74.5366 64.2407 73.907 64.7962 73.4996 65.611L68.8885 74.8332L65.4996 71.4443C64.8329 70.7777 64.0366 70.4443 63.1107 70.4443C62.1848 70.4443 61.407 70.7777 60.7773 71.4443C60.1107 72.074 59.7773 72.8518 59.7773 73.7777Z" fill="#A253F3"/>
<path d="M180.445 73.7778C180.445 66.1111 183.168 59.5741 188.612 54.1667C194.019 48.7222 200.556 46 208.223 46C215.89 46 222.445 48.7222 227.89 54.1667C233.297 59.5741 236.001 66.1111 236.001 73.7778L236.001 74.3333L236.001 74.8889L236.001 75.4444L236.001 76L236.001 76.5556L236.001 77.1111L236.001 77.6667L236.001 78.2222C236.001 85.8889 233.297 92.4444 227.89 97.8889C222.445 103.296 215.89 106 208.223 106C200.556 106 194.019 103.296 188.612 97.8889C183.168 92.4444 180.445 85.8889 180.445 78.2222L180.445 77.6667L180.445 77.1111L180.445 76.5556L180.445 76L180.445 75.4444L180.445 74.8889L180.445 74.3333L180.445 73.7778ZM229.334 73.7778C229.334 67.963 227.279 63 223.168 58.8889C219.019 54.7407 214.038 52.6667 208.223 52.6667C202.408 52.6667 197.445 54.7407 193.334 58.8889C189.186 63 187.112 67.963 187.112 73.7778C187.112 79.5926 189.186 84.5741 193.334 88.7222C197.445 92.8333 202.408 94.8889 208.223 94.8889C214.038 94.8889 219.019 92.8333 223.168 88.7222C227.279 84.5741 229.334 79.5926 229.334 73.7778Z" fill="#A253F3"/>
<path d="M199.889 70.6116L203.056 73.7783L199.889 77.0005C199.222 77.6302 198.889 78.4079 198.889 79.3338C198.889 80.2597 199.222 81.056 199.889 81.7227C200.519 82.3524 201.296 82.6671 202.222 82.6671C203.148 82.6671 203.944 82.3524 204.611 81.7227L207.778 78.5005L211 81.7227C211.63 82.3524 212.407 82.6671 213.333 82.6671C214.259 82.6671 215.056 82.3524 215.722 81.7227C216.352 81.056 216.667 80.2597 216.667 79.3338C216.667 78.4079 216.352 77.6302 215.722 77.0005L212.5 73.7783L215.722 70.6116C216.352 69.9449 216.667 69.1486 216.667 68.2227C216.667 67.2968 216.352 66.519 215.722 65.8894C215.056 65.2227 214.259 64.8894 213.333 64.8894C212.407 64.8894 211.63 65.2227 211 65.8894L207.778 69.056L204.611 65.8894C203.944 65.2227 203.148 64.8894 202.222 64.8894C201.296 64.8894 200.519 65.2227 199.889 65.8894C199.222 66.519 198.889 67.2968 198.889 68.2227C198.889 69.1486 199.222 69.9449 199.889 70.6116ZM220.389 61.2783C223.833 64.7227 225.556 68.8894 225.556 73.7783C225.556 78.6672 223.833 82.8708 220.389 86.3894C216.87 89.8338 212.667 91.556 207.778 91.556C202.889 91.556 198.722 89.8338 195.278 86.3894C191.759 82.8708 190 78.6672 190 73.7783C190 68.8894 191.741 64.7227 195.222 61.2783L195.278 61.2227C198.722 57.7413 202.889 56.0005 207.778 56.0005C212.667 56.0005 216.87 57.7597 220.389 61.2783Z" fill="#A253F3"/>
</svg>
