<svg width="545" height="105" viewBox="0 0 545 105" fill="none" xmlns="http://www.w3.org/2000/svg">
<rect width="545" height="105" fill="white"/>
<path d="M36.6667 16.6667C36.6667 12.9848 33.6819 10 30 10C26.3181 10 23.3333 12.9848 23.3333 16.6667L23.3333 23.3333L16.6667 23.3333C12.9848 23.3333 10 26.3181 10 30C10 33.6819 12.9848 36.6667 16.6667 36.6667L23.3333 36.6667L23.3333 43.3333C23.3333 47.0152 26.3181 50 30 50C33.6819 50 36.6667 47.0152 36.6667 43.3333L36.6667 36.6667L43.3333 36.6667C47.0152 36.6667 50 33.6819 50 30C50 26.3181 47.0152 23.3333 43.3333 23.3333L36.6667 23.3333L36.6667 16.6667Z" fill="#EBEBEB"/>
<circle cx="30.0007" cy="30" r="6.66667" fill="#FAC710"/>
<path d="M36.6667 88.3333C36.6667 92.0152 33.6819 95 30 95C26.3181 95 23.3333 92.0152 23.3333 88.3333L23.3333 81.6667L16.6667 81.6667C12.9848 81.6667 10 78.6819 10 75C10 71.3181 12.9848 68.3333 16.6667 68.3333L23.3333 68.3333L23.3333 61.6667C23.3333 57.9848 26.3181 55 30 55C33.6819 55 36.6667 57.9848 36.6667 61.6667L36.6667 68.3333L43.3333 68.3333C47.0152 68.3333 50 71.3181 50 75C50 78.6819 47.0152 81.6667 43.3333 81.6667L36.6667 81.6667L36.6667 88.3333Z" fill="#EBEBEB"/>
<circle cx="6.66667" cy="6.66667" r="6.66667" transform="matrix(1 -5.56363e-08 -5.56363e-08 -1 23.334 81.6667)" fill="#FAC710"/>
<path d="M171.667 16.6667C171.667 12.9848 168.682 10 165 10C161.318 10 158.333 12.9848 158.333 16.6667L158.333 23.3333L151.667 23.3333C147.985 23.3333 145 26.3181 145 30C145 33.6819 147.985 36.6667 151.667 36.6667L158.333 36.6667L158.333 43.3333C158.333 47.0152 161.318 50 165 50C168.682 50 171.667 47.0152 171.667 43.3333L171.667 36.6667L178.333 36.6667C182.015 36.6667 185 33.6819 185 30C185 26.3181 182.015 23.3333 178.333 23.3333L171.667 23.3333L171.667 16.6667Z" fill="#EBEBEB"/>
<path d="M171.667 16.6667C171.667 12.9848 168.683 10 165.001 10C161.319 10 158.334 12.9848 158.334 16.6667L158.334 23.3333C158.334 30.6971 164.304 36.6667 171.667 36.6667L178.334 36.6667C182.016 36.6667 185.001 33.6819 185.001 30C185.001 26.3181 182.016 23.3333 178.334 23.3333L171.667 23.3333L171.667 16.6667Z" fill="#FAC710"/>
<path d="M158.333 88.3333C158.333 92.0152 161.318 95 165 95C168.682 95 171.667 92.0152 171.667 88.3333L171.667 81.6667L178.333 81.6667C182.015 81.6667 185 78.6819 185 75C185 71.3181 182.015 68.3333 178.333 68.3333L171.667 68.3333L171.667 61.6667C171.667 57.9848 168.682 55 165 55C161.318 55 158.333 57.9848 158.333 61.6667L158.333 68.3333L151.667 68.3333C147.985 68.3333 145 71.3181 145 75C145 78.6819 147.985 81.6667 151.667 81.6667L158.333 81.6667L158.333 88.3333Z" fill="#EBEBEB"/>
<path d="M158.333 88.3333C158.333 92.0152 161.317 95 164.999 95C168.681 95 171.666 92.0152 171.666 88.3333L171.666 81.6667C171.666 74.3029 165.696 68.3333 158.333 68.3333L151.666 68.3333C147.984 68.3333 144.999 71.3181 144.999 75C144.999 78.6819 147.984 81.6667 151.666 81.6667L158.333 81.6667L158.333 88.3333Z" fill="#FAC710"/>
<path d="M216.667 16.6667C216.667 12.9848 213.682 10 210 10C206.318 10 203.333 12.9848 203.333 16.6667L203.333 23.3333L196.667 23.3333C192.985 23.3333 190 26.3181 190 30C190 33.6819 192.985 36.6667 196.667 36.6667L203.333 36.6667L203.333 43.3333C203.333 47.0152 206.318 50 210 50C213.682 50 216.667 47.0152 216.667 43.3333L216.667 36.6667L223.333 36.6667C227.015 36.6667 230 33.6819 230 30C230 26.3181 227.015 23.3333 223.333 23.3333L216.667 23.3333L216.667 16.6667Z" fill="#EBEBEB"/>
<path d="M196.667 23.3334C192.985 23.3334 190 26.3182 190 30.0001C190 33.682 192.985 36.6667 196.667 36.6667L203.333 36.6667C210.697 36.6667 216.667 30.6972 216.667 23.3334L216.667 16.6667C216.667 12.9848 213.682 10.0001 210 10.0001C206.318 10.0001 203.333 12.9848 203.333 16.6667L203.333 23.3334L196.667 23.3334Z" fill="#FAC710"/>
<path d="M203.333 88.3333C203.333 92.0152 206.318 95 210 95C213.682 95 216.667 92.0152 216.667 88.3333L216.667 81.6667L223.333 81.6667C227.015 81.6667 230 78.6819 230 75C230 71.3181 227.015 68.3333 223.333 68.3333L216.667 68.3333L216.667 61.6667C216.667 57.9848 213.682 55 210 55C206.318 55 203.333 57.9848 203.333 61.6667L203.333 68.3333L196.667 68.3333C192.985 68.3333 190 71.3181 190 75C190 78.6819 192.985 81.6667 196.667 81.6667L203.333 81.6667L203.333 88.3333Z" fill="#EBEBEB"/>
<path d="M223.333 81.6666C227.015 81.6666 230 78.6818 230 74.9999C230 71.318 227.015 68.3333 223.333 68.3333L216.667 68.3333C209.303 68.3333 203.333 74.3028 203.333 81.6666L203.333 88.3333C203.333 92.0152 206.318 94.9999 210 94.9999C213.682 94.9999 216.667 92.0152 216.667 88.3333L216.667 81.6666L223.333 81.6666Z" fill="#FAC710"/>
<path d="M261.667 16.6667C261.667 12.9848 258.682 10 255 10C251.318 10 248.333 12.9848 248.333 16.6667L248.333 23.3333L241.667 23.3333C237.985 23.3333 235 26.3181 235 30C235 33.6819 237.985 36.6667 241.667 36.6667L248.333 36.6667L248.333 43.3333C248.333 47.0152 251.318 50 255 50C258.682 50 261.667 47.0152 261.667 43.3333L261.667 36.6667L268.333 36.6667C272.015 36.6667 275 33.6819 275 30C275 26.3181 272.015 23.3333 268.333 23.3333L261.667 23.3333L261.667 16.6667Z" fill="#EBEBEB"/>
<path d="M248.334 43.3334C248.334 47.0153 251.319 50.0001 255.001 50.0001C258.683 50.0001 261.667 47.0153 261.667 43.3334L261.667 16.6667C261.667 12.9848 258.683 10.0001 255.001 10.0001C251.319 10.0001 248.334 12.9848 248.334 16.6667L248.334 43.3334Z" fill="#FAC710"/>
<path d="M248.333 88.3333C248.333 92.0152 251.318 95 255 95C258.682 95 261.667 92.0152 261.667 88.3333L261.667 81.6667L268.333 81.6667C272.015 81.6667 275 78.6819 275 75C275 71.3181 272.015 68.3333 268.333 68.3333L261.667 68.3333L261.667 61.6667C261.667 57.9848 258.682 55 255 55C251.318 55 248.333 57.9848 248.333 61.6667L248.333 68.3333L241.667 68.3333C237.985 68.3333 235 71.3181 235 75C235 78.6819 237.985 81.6667 241.667 81.6667L248.333 81.6667L248.333 88.3333Z" fill="#EBEBEB"/>
<path d="M261.666 61.6666C261.666 57.9847 258.681 54.9999 254.999 54.9999C251.317 54.9999 248.333 57.9847 248.333 61.6666L248.333 88.3333C248.333 92.0152 251.317 94.9999 254.999 94.9999C258.681 94.9999 261.666 92.0152 261.666 88.3333L261.666 61.6666Z" fill="#FAC710"/>
<path d="M306.667 16.6667C306.667 12.9848 303.682 10 300 10C296.318 10 293.333 12.9848 293.333 16.6667L293.333 23.3333L286.667 23.3333C282.985 23.3333 280 26.3181 280 30C280 33.6819 282.985 36.6667 286.667 36.6667L293.333 36.6667L293.333 43.3333C293.333 47.0152 296.318 50 300 50C303.682 50 306.667 47.0152 306.667 43.3333L306.667 36.6667L313.333 36.6667C317.015 36.6667 320 33.6819 320 30C320 26.3181 317.015 23.3333 313.333 23.3333L306.667 23.3333L306.667 16.6667Z" fill="#EBEBEB"/>
<path d="M313.333 36.6666C317.015 36.6666 320 33.6818 320 29.9999C320 26.318 317.015 23.3333 313.333 23.3333L286.667 23.3333C282.985 23.3333 280 26.318 280 29.9999C280 33.6818 282.985 36.6666 286.667 36.6666L313.333 36.6666Z" fill="#FAC710"/>
<path d="M293.333 88.3333C293.333 92.0152 296.318 95 300 95C303.682 95 306.667 92.0152 306.667 88.3333L306.667 81.6667L313.333 81.6667C317.015 81.6667 320 78.6819 320 75C320 71.3181 317.015 68.3333 313.333 68.3333L306.667 68.3333L306.667 61.6667C306.667 57.9848 303.682 55 300 55C296.318 55 293.333 57.9848 293.333 61.6667L293.333 68.3333L286.667 68.3333C282.985 68.3333 280 71.3181 280 75C280 78.6819 282.985 81.6667 286.667 81.6667L293.333 81.6667L293.333 88.3333Z" fill="#EBEBEB"/>
<path d="M286.667 68.3334C282.985 68.3334 280 71.3182 280 75.0001C280 78.682 282.985 81.6667 286.667 81.6667L313.333 81.6667C317.015 81.6667 320 78.682 320 75.0001C320 71.3182 317.015 68.3334 313.333 68.3334L286.667 68.3334Z" fill="#FAC710"/>
<path d="M351.667 16.6667C351.667 12.9848 348.682 10 345 10C341.318 10 338.333 12.9848 338.333 16.6667L338.333 23.3333L331.667 23.3333C327.985 23.3333 325 26.3181 325 30C325 33.6819 327.985 36.6667 331.667 36.6667L338.333 36.6667L338.333 43.3333C338.333 47.0152 341.318 50 345 50C348.682 50 351.667 47.0152 351.667 43.3333L351.667 36.6667L358.333 36.6667C362.015 36.6667 365 33.6819 365 30C365 26.3181 362.015 23.3333 358.333 23.3333L351.667 23.3333L351.667 16.6667Z" fill="#EBEBEB"/>
<path d="M338.334 43.3333C338.334 47.0152 341.319 49.9999 345.001 49.9999C348.683 49.9999 351.667 47.0152 351.667 43.3333L351.667 36.6666L358.334 36.6666C362.016 36.6666 365.001 33.6818 365.001 29.9999C365.001 26.318 362.016 23.3333 358.334 23.3333L351.667 23.3333L351.667 16.6666C351.667 12.9847 348.683 9.99994 345.001 9.99994C341.319 9.99994 338.334 12.9847 338.334 16.6666L338.334 43.3333Z" fill="#FAC710"/>
<path d="M338.333 88.3333C338.333 92.0152 341.318 95 345 95C348.682 95 351.667 92.0152 351.667 88.3333L351.667 81.6667L358.333 81.6667C362.015 81.6667 365 78.6819 365 75C365 71.3181 362.015 68.3333 358.333 68.3333L351.667 68.3333L351.667 61.6667C351.667 57.9848 348.682 55 345 55C341.318 55 338.333 57.9848 338.333 61.6667L338.333 68.3333L331.667 68.3333C327.985 68.3333 325 71.3181 325 75C325 78.6819 327.985 81.6667 331.667 81.6667L338.333 81.6667L338.333 88.3333Z" fill="#EBEBEB"/>
<path d="M351.666 61.6667C351.666 57.9848 348.681 55.0001 344.999 55.0001C341.317 55.0001 338.333 57.9848 338.333 61.6667L338.333 68.3334L331.666 68.3334C327.984 68.3334 324.999 71.3182 324.999 75.0001C324.999 78.682 327.984 81.6667 331.666 81.6667L338.333 81.6667L338.333 88.3334C338.333 92.0153 341.317 95.0001 344.999 95.0001C348.681 95.0001 351.666 92.0153 351.666 88.3334L351.666 61.6667Z" fill="#FAC710"/>
<path d="M396.667 16.6667C396.667 12.9848 393.682 10 390 10C386.318 10 383.333 12.9848 383.333 16.6667L383.333 23.3333L376.667 23.3333C372.985 23.3333 370 26.3181 370 30C370 33.6819 372.985 36.6667 376.667 36.6667L383.333 36.6667L383.333 43.3333C383.333 47.0152 386.318 50 390 50C393.682 50 396.667 47.0152 396.667 43.3333L396.667 36.6667L403.333 36.6667C407.015 36.6667 410 33.6819 410 30C410 26.3181 407.015 23.3333 403.333 23.3333L396.667 23.3333L396.667 16.6667Z" fill="#EBEBEB"/>
<path d="M396.667 16.6667C396.667 12.9848 393.682 10 390 10C386.318 10 383.333 12.9848 383.333 16.6667L383.333 23.3333L376.667 23.3333C372.985 23.3333 370 26.3181 370 30C370 33.6819 372.985 36.6667 376.667 36.6667L403.333 36.6667C407.015 36.6667 410 33.6819 410 30C410 26.3181 407.015 23.3333 403.333 23.3333L396.667 23.3333L396.667 16.6667Z" fill="#FAC710"/>
<path d="M396.667 88.3333C396.667 92.0152 393.682 95 390 95C386.318 95 383.333 92.0152 383.333 88.3333L383.333 81.6667L376.667 81.6667C372.985 81.6667 370 78.6819 370 75C370 71.3181 372.985 68.3333 376.667 68.3333L383.333 68.3333L383.333 61.6667C383.333 57.9848 386.318 55 390 55C393.682 55 396.667 57.9848 396.667 61.6667L396.667 68.3333L403.333 68.3333C407.015 68.3333 410 71.3181 410 75C410 78.6819 407.015 81.6667 403.333 81.6667L396.667 81.6667L396.667 88.3333Z" fill="#EBEBEB"/>
<path d="M396.667 88.3333C396.667 92.0152 393.682 95 390 95C386.318 95 383.333 92.0152 383.333 88.3333L383.333 81.6667L376.667 81.6667C372.985 81.6667 370 78.6819 370 75C370 71.3181 372.985 68.3333 376.667 68.3333L403.333 68.3333C407.015 68.3333 410 71.3181 410 75C410 78.6819 407.015 81.6667 403.333 81.6667L396.667 81.6667L396.667 88.3333Z" fill="#FAC710"/>
<path d="M441.667 16.6667C441.667 12.9848 438.682 10 435 10C431.318 10 428.333 12.9848 428.333 16.6667L428.333 23.3333L421.667 23.3333C417.985 23.3333 415 26.3181 415 30C415 33.6819 417.985 36.6667 421.667 36.6667L428.333 36.6667L428.333 43.3333C428.333 47.0152 431.318 50 435 50C438.682 50 441.667 47.0152 441.667 43.3333L441.667 36.6667L448.333 36.6667C452.015 36.6667 455 33.6819 455 30C455 26.3181 452.015 23.3333 448.333 23.3333L441.667 23.3333L441.667 16.6667Z" fill="#EBEBEB"/>
<path d="M441.667 16.6667C441.667 12.9848 438.682 10 435 10C431.318 10 428.333 12.9848 428.333 16.6667L428.333 23.3333L421.667 23.3333C417.985 23.3333 415 26.3181 415 30C415 33.6819 417.985 36.6667 421.667 36.6667L428.333 36.6667L428.333 43.3333C428.333 47.0152 431.318 50 435 50C438.682 50 441.667 47.0152 441.667 43.3333L441.667 36.6667L448.333 36.6667C452.015 36.6667 455 33.6819 455 30C455 26.3181 452.015 23.3333 448.333 23.3333L441.667 23.3333L441.667 16.6667Z" fill="#FAC710"/>
<path d="M428.333 88.3333C428.333 92.0152 431.318 95 435 95C438.682 95 441.667 92.0152 441.667 88.3333L441.667 81.6667L448.333 81.6667C452.015 81.6667 455 78.6819 455 75C455 71.3181 452.015 68.3333 448.333 68.3333L441.667 68.3333L441.667 61.6667C441.667 57.9848 438.682 55 435 55C431.318 55 428.333 57.9848 428.333 61.6667L428.333 68.3333L421.667 68.3333C417.985 68.3333 415 71.3181 415 75C415 78.6819 417.985 81.6667 421.667 81.6667L428.333 81.6667L428.333 88.3333Z" fill="#EBEBEB"/>
<path d="M428.333 88.3333C428.333 92.0152 431.318 95 435 95C438.682 95 441.667 92.0152 441.667 88.3333L441.667 81.6667L448.333 81.6667C452.015 81.6667 455 78.6819 455 75C455 71.3181 452.015 68.3333 448.333 68.3333L441.667 68.3333L441.667 61.6667C441.667 57.9848 438.682 55 435 55C431.318 55 428.333 57.9848 428.333 61.6667L428.333 68.3333L421.667 68.3333C417.985 68.3333 415 71.3181 415 75C415 78.6819 417.985 81.6667 421.667 81.6667L428.333 81.6667L428.333 88.3333Z" fill="#FAC710"/>
<path d="M81.6667 16.6667C81.6667 12.9848 78.6819 10 75 10C71.3181 10 68.3333 12.9848 68.3333 16.6667L68.3333 23.3333L61.6667 23.3333C57.9848 23.3333 55 26.3181 55 30C55 33.6819 57.9848 36.6667 61.6667 36.6667L68.3333 36.6667L68.3333 43.3333C68.3333 47.0152 71.3181 50 75 50C78.6819 50 81.6667 47.0152 81.6667 43.3333L81.6667 36.6667L88.3333 36.6667C92.0152 36.6667 95 33.6819 95 30C95 26.3181 92.0152 23.3333 88.3333 23.3333L81.6667 23.3333L81.6667 16.6667Z" fill="#EBEBEB"/>
<path d="M81.6673 16.6667C81.6673 12.9848 78.6825 10 75.0007 10C71.3188 10 68.334 12.9848 68.334 16.6667L68.334 30C68.334 33.6819 71.3188 36.6667 75.0007 36.6667C78.6826 36.6667 81.6673 33.6819 81.6673 30L81.6673 16.6667Z" fill="#FAC710"/>
<path d="M68.3333 88.3333C68.3333 92.0152 71.3181 95 75 95C78.6819 95 81.6667 92.0152 81.6667 88.3333L81.6667 81.6667L88.3333 81.6667C92.0152 81.6667 95 78.6819 95 75C95 71.3181 92.0152 68.3333 88.3333 68.3333L81.6667 68.3333L81.6667 61.6667C81.6667 57.9848 78.6819 55 75 55C71.3181 55 68.3333 57.9848 68.3333 61.6667L68.3333 68.3333L61.6667 68.3333C57.9848 68.3333 55 71.3181 55 75C55 78.6819 57.9848 81.6667 61.6667 81.6667L68.3333 81.6667L68.3333 88.3333Z" fill="#EBEBEB"/>
<path d="M68.3327 88.3333C68.3327 92.0152 71.3175 95 74.9993 95C78.6812 95 81.666 92.0152 81.666 88.3333L81.666 75C81.666 71.3181 78.6812 68.3333 74.9993 68.3333C71.3174 68.3333 68.3327 71.3181 68.3327 75L68.3327 88.3333Z" fill="#FAC710"/>
<path d="M126.667 16.6667C126.667 12.9848 123.682 10 120 10C116.318 10 113.333 12.9848 113.333 16.6667L113.333 23.3333L106.667 23.3333C102.985 23.3333 100 26.3181 100 30C100 33.6819 102.985 36.6667 106.667 36.6667L113.333 36.6667L113.333 43.3333C113.333 47.0152 116.318 50 120 50C123.682 50 126.667 47.0152 126.667 43.3333L126.667 36.6667L133.333 36.6667C137.015 36.6667 140 33.6819 140 30C140 26.3181 137.015 23.3333 133.333 23.3333L126.667 23.3333L126.667 16.6667Z" fill="#EBEBEB"/>
<path d="M133.334 36.6666C137.016 36.6666 140.001 33.6819 140.001 30C140.001 26.3181 137.016 23.3333 133.334 23.3333L120.001 23.3333C116.319 23.3333 113.334 26.3181 113.334 30C113.334 33.6819 116.319 36.6666 120.001 36.6666L133.334 36.6666Z" fill="#FAC710"/>
<path d="M113.333 88.3333C113.333 92.0152 116.318 95 120 95C123.682 95 126.667 92.0152 126.667 88.3333L126.667 81.6667L133.333 81.6667C137.015 81.6667 140 78.6819 140 75C140 71.3181 137.015 68.3333 133.333 68.3333L126.667 68.3333L126.667 61.6667C126.667 57.9848 123.682 55 120 55C116.318 55 113.333 57.9848 113.333 61.6667L113.333 68.3333L106.667 68.3333C102.985 68.3333 100 71.3181 100 75C100 78.6819 102.985 81.6667 106.667 81.6667L113.333 81.6667L113.333 88.3333Z" fill="#EBEBEB"/>
<path d="M106.666 68.3334C102.984 68.3334 99.9994 71.3181 99.9994 75C99.9994 78.6819 102.984 81.6667 106.666 81.6667L119.999 81.6667C123.681 81.6667 126.666 78.6819 126.666 75C126.666 71.3181 123.681 68.3334 119.999 68.3334L106.666 68.3334Z" fill="#FAC710"/>
<rect x="460" y="27" width="80" height="50" rx="10" fill="#EBEBEB"/>
<path d="M514.227 69.4773C512.432 69.4659 510.699 69.1648 509.028 68.5739C507.369 67.983 505.881 67.0227 504.562 65.6932C503.244 64.3636 502.199 62.6023 501.426 60.4091C500.665 58.2159 500.284 55.5227 500.284 52.3295C500.295 49.3977 500.631 46.7784 501.29 44.4716C501.96 42.1534 502.915 40.1875 504.153 38.5739C505.403 36.9602 506.898 35.733 508.636 34.892C510.375 34.0398 512.324 33.6136 514.483 33.6136C516.813 33.6136 518.869 34.0682 520.653 34.9773C522.438 35.875 523.869 37.0966 524.949 38.642C526.04 40.1875 526.699 41.9205 526.926 43.8409H519.648C519.364 42.625 518.767 41.6705 517.858 40.9773C516.949 40.2841 515.824 39.9375 514.483 39.9375C512.21 39.9375 510.483 40.9261 509.301 42.9034C508.131 44.8807 507.534 47.5682 507.511 50.9659H507.75C508.273 49.9318 508.977 49.0511 509.864 48.3239C510.761 47.5852 511.778 47.0227 512.915 46.6364C514.062 46.2386 515.273 46.0398 516.545 46.0398C518.614 46.0398 520.455 46.5284 522.068 47.5057C523.682 48.4716 524.955 49.8011 525.886 51.4943C526.818 53.1875 527.284 55.125 527.284 57.3068C527.284 59.6705 526.733 61.7727 525.631 63.6136C524.54 65.4545 523.011 66.8977 521.045 67.9432C519.091 68.9773 516.818 69.4886 514.227 69.4773ZM514.193 63.6818C515.33 63.6818 516.347 63.4091 517.244 62.8636C518.142 62.3182 518.847 61.5795 519.358 60.6477C519.869 59.7159 520.125 58.6705 520.125 57.5114C520.125 56.3523 519.869 55.3125 519.358 54.392C518.858 53.4716 518.165 52.7386 517.278 52.1932C516.392 51.6477 515.381 51.375 514.244 51.375C513.392 51.375 512.602 51.5341 511.875 51.8523C511.159 52.1705 510.528 52.6136 509.983 53.1818C509.449 53.75 509.028 54.4091 508.722 55.1591C508.415 55.8977 508.261 56.6875 508.261 57.5284C508.261 58.6534 508.517 59.6818 509.028 60.6136C509.551 61.5455 510.256 62.2898 511.142 62.8466C512.04 63.4034 513.057 63.6818 514.193 63.6818Z" fill="black"/>
<path d="M488.23 62.1435L472.659 46.6108L476.482 42.75L492.053 58.321L488.23 62.1435ZM476.482 62.1435L472.659 58.321L488.23 42.75L492.053 46.6108L476.482 62.1435Z" fill="#616161"/>
</svg>
