<svg width="811" height="253" viewBox="0 0 811 253" fill="none" xmlns="http://www.w3.org/2000/svg">
<g clip-path="url(#clip0_296_7461)">
<g filter="url(#filter0_d_296_7461)">
<rect x="31" y="-399" width="750" height="1050" rx="50" fill="white"/>
</g>
<path d="M407.925 137.56C404.032 137.56 400.512 136.893 397.365 135.56C394.272 134.227 391.818 132.307 390.005 129.8C388.192 127.293 387.258 124.333 387.205 120.92H399.205C399.365 123.213 400.165 125.027 401.605 126.36C403.098 127.693 405.125 128.36 407.685 128.36C410.298 128.36 412.352 127.747 413.845 126.52C415.338 125.24 416.085 123.587 416.085 121.56C416.085 119.907 415.578 118.547 414.565 117.48C413.552 116.413 412.272 115.587 410.725 115C409.232 114.36 407.152 113.667 404.485 112.92C400.858 111.853 397.898 110.813 395.605 109.8C393.365 108.733 391.418 107.16 389.765 105.08C388.165 102.947 387.365 100.12 387.365 96.6C387.365 93.2933 388.192 90.4133 389.845 87.96C391.498 85.5067 393.818 83.64 396.805 82.36C399.792 81.0267 403.205 80.36 407.045 80.36C412.805 80.36 417.472 81.7733 421.045 84.6C424.672 87.3733 426.672 91.2667 427.045 96.28H414.725C414.618 94.36 413.792 92.7867 412.245 91.56C410.752 90.28 408.752 89.64 406.245 89.64C404.058 89.64 402.298 90.2 400.965 91.32C399.685 92.44 399.045 94.0667 399.045 96.2C399.045 97.6933 399.525 98.9467 400.485 99.96C401.498 100.92 402.725 101.72 404.165 102.36C405.658 102.947 407.738 103.64 410.405 104.44C414.032 105.507 416.992 106.573 419.285 107.64C421.578 108.707 423.552 110.307 425.205 112.44C426.858 114.573 427.685 117.373 427.685 120.84C427.685 123.827 426.912 126.6 425.365 129.16C423.818 131.72 421.552 133.773 418.565 135.32C415.578 136.813 412.032 137.56 407.925 137.56Z" fill="black"/>
<path d="M241.956 98.2386C240.684 98.2386 239.55 98.0199 238.556 97.5824C237.567 97.1392 236.786 96.5312 236.212 95.7585C235.644 94.9801 235.351 94.0824 235.334 93.0653H239.05C239.073 93.4915 239.212 93.8665 239.468 94.1903C239.729 94.5085 240.076 94.7557 240.507 94.9318C240.939 95.108 241.425 95.196 241.965 95.196C242.527 95.196 243.025 95.0966 243.456 94.8977C243.888 94.6989 244.226 94.4233 244.471 94.071C244.715 93.7187 244.837 93.3125 244.837 92.8523C244.837 92.3864 244.706 91.9744 244.445 91.6165C244.189 91.2528 243.82 90.9687 243.337 90.7642C242.86 90.5597 242.292 90.4574 241.632 90.4574H240.005V87.7472H241.632C242.189 87.7472 242.681 87.6506 243.107 87.4574C243.539 87.2642 243.874 86.9972 244.113 86.6562C244.351 86.3097 244.471 85.9062 244.471 85.446C244.471 85.0085 244.365 84.625 244.155 84.2955C243.951 83.9602 243.661 83.6989 243.286 83.5114C242.917 83.3239 242.485 83.2301 241.99 83.2301C241.49 83.2301 241.033 83.321 240.618 83.5028C240.203 83.679 239.871 83.9318 239.621 84.2614C239.371 84.5909 239.238 84.9773 239.221 85.4205H235.684C235.701 84.4148 235.988 83.5284 236.544 82.7614C237.101 81.9943 237.851 81.3949 238.794 80.9631C239.743 80.5256 240.814 80.3068 242.007 80.3068C243.212 80.3068 244.266 80.5256 245.169 80.9631C246.073 81.4006 246.775 81.9915 247.275 82.7358C247.78 83.4744 248.03 84.304 248.025 85.2244C248.03 86.2017 247.726 87.017 247.113 87.6705C246.505 88.3239 245.712 88.7386 244.735 88.9148V89.0511C246.019 89.2159 246.996 89.6619 247.667 90.3892C248.343 91.1108 248.678 92.0142 248.672 93.0994C248.678 94.0938 248.391 94.9773 247.811 95.75C247.238 96.5227 246.445 97.1307 245.434 97.5739C244.422 98.017 243.263 98.2386 241.956 98.2386Z" fill="#ABABAB"/>
<rect x="240.027" y="107.813" width="3" height="17" transform="rotate(-110 240.027 107.813)" fill="#D9D9D9"/>
<path d="M252.956 127.24C251.684 127.24 250.55 127.021 249.556 126.583C248.567 126.14 247.786 125.532 247.212 124.759C246.644 123.981 246.351 123.083 246.334 122.066H250.05C250.073 122.492 250.212 122.867 250.468 123.191C250.729 123.509 251.076 123.757 251.507 123.933C251.939 124.109 252.425 124.197 252.965 124.197C253.527 124.197 254.025 124.098 254.456 123.899C254.888 123.7 255.226 123.424 255.471 123.072C255.715 122.72 255.837 122.313 255.837 121.853C255.837 121.387 255.706 120.975 255.445 120.617C255.189 120.254 254.82 119.97 254.337 119.765C253.86 119.561 253.292 119.458 252.632 119.458H251.005V116.748H252.632C253.189 116.748 253.681 116.652 254.107 116.458C254.539 116.265 254.874 115.998 255.113 115.657C255.351 115.311 255.471 114.907 255.471 114.447C255.471 114.009 255.365 113.626 255.155 113.296C254.951 112.961 254.661 112.7 254.286 112.512C253.917 112.325 253.485 112.231 252.99 112.231C252.49 112.231 252.033 112.322 251.618 112.504C251.203 112.68 250.871 112.933 250.621 113.262C250.371 113.592 250.238 113.978 250.221 114.421H246.684C246.701 113.416 246.988 112.529 247.544 111.762C248.101 110.995 248.851 110.396 249.794 109.964C250.743 109.527 251.814 109.308 253.007 109.308C254.212 109.308 255.266 109.527 256.169 109.964C257.073 110.402 257.775 110.992 258.275 111.737C258.78 112.475 259.03 113.305 259.025 114.225C259.03 115.203 258.726 116.018 258.113 116.671C257.505 117.325 256.712 117.74 255.735 117.916V118.052C257.019 118.217 257.996 118.663 258.667 119.39C259.343 120.112 259.678 121.015 259.672 122.1C259.678 123.095 259.391 123.978 258.811 124.751C258.238 125.524 257.445 126.132 256.434 126.575C255.422 127.018 254.263 127.24 252.956 127.24Z" fill="#D9D9D9"/>
<path d="M286.018 94.9318V92.0256L293.305 80.5455H295.81V84.5682H294.327L289.734 91.8381V91.9744H300.089V94.9318H286.018ZM294.396 98V94.0455L294.464 92.7585V80.5455H297.924V98H294.396Z" fill="#ABABAB"/>
<rect x="291.027" y="107.813" width="3" height="17" transform="rotate(-110 291.027 107.813)" fill="#D9D9D9"/>
<path d="M297.018 123.933V121.027L304.305 109.546H306.81V113.569H305.327L300.734 120.839V120.975H311.089V123.933H297.018ZM305.396 127.001V123.046L305.464 121.759V109.546H308.924V127.001H305.396Z" fill="#D9D9D9"/>
<path d="M337.018 153.933V151.027L344.305 139.546H346.81V143.569H345.327L340.734 150.839V150.975H351.089V153.933H337.018ZM345.396 157.001V153.046L345.464 151.759V139.546H348.924V157.001H345.396Z" fill="#ABABAB"/>
<rect x="342.027" y="166.813" width="3" height="17" transform="rotate(-110 342.027 166.813)" fill="#D9D9D9"/>
<path d="M354.993 186.24C353.68 186.24 352.512 186.027 351.49 185.6C350.473 185.169 349.674 184.581 349.095 183.836C348.515 183.092 348.225 182.248 348.225 181.305C348.225 180.578 348.39 179.91 348.72 179.302C349.055 178.688 349.51 178.18 350.083 177.777C350.657 177.367 351.299 177.106 352.01 176.992V176.873C351.078 176.686 350.322 176.234 349.743 175.518C349.163 174.796 348.873 173.958 348.873 173.004C348.873 172.1 349.137 171.296 349.666 170.592C350.194 169.882 350.919 169.325 351.839 168.921C352.765 168.512 353.816 168.308 354.993 168.308C356.169 168.308 357.217 168.512 358.137 168.921C359.064 169.331 359.791 169.89 360.319 170.6C360.848 171.305 361.115 172.106 361.12 173.004C361.115 173.964 360.819 174.802 360.234 175.518C359.649 176.234 358.899 176.686 357.984 176.873V176.992C358.683 177.106 359.316 177.367 359.885 177.777C360.458 178.18 360.913 178.688 361.248 179.302C361.589 179.91 361.762 180.578 361.768 181.305C361.762 182.248 361.47 183.092 360.89 183.836C360.311 184.581 359.51 185.169 358.487 185.6C357.47 186.027 356.305 186.24 354.993 186.24ZM354.993 183.529C355.578 183.529 356.089 183.424 356.527 183.214C356.964 182.998 357.305 182.703 357.549 182.328C357.799 181.947 357.924 181.509 357.924 181.015C357.924 180.509 357.797 180.063 357.541 179.677C357.285 179.285 356.939 178.978 356.501 178.757C356.064 178.529 355.561 178.416 354.993 178.416C354.43 178.416 353.927 178.529 353.484 178.757C353.041 178.978 352.691 179.285 352.436 179.677C352.186 180.063 352.061 180.509 352.061 181.015C352.061 181.509 352.183 181.947 352.427 182.328C352.672 182.703 353.015 182.998 353.458 183.214C353.902 183.424 354.413 183.529 354.993 183.529ZM354.993 175.731C355.481 175.731 355.916 175.632 356.297 175.433C356.677 175.234 356.975 174.958 357.191 174.606C357.407 174.254 357.515 173.848 357.515 173.387C357.515 172.933 357.407 172.535 357.191 172.194C356.975 171.848 356.68 171.578 356.305 171.384C355.93 171.186 355.493 171.086 354.993 171.086C354.498 171.086 354.061 171.186 353.68 171.384C353.299 171.578 353.001 171.848 352.785 172.194C352.575 172.535 352.47 172.933 352.47 173.387C352.47 173.848 352.578 174.254 352.794 174.606C353.01 174.958 353.308 175.234 353.689 175.433C354.069 175.632 354.504 175.731 354.993 175.731Z" fill="#D9D9D9"/>
<path d="M343.956 98.2386C342.684 98.2386 341.55 98.0199 340.556 97.5824C339.567 97.1392 338.786 96.5312 338.212 95.7585C337.644 94.9801 337.351 94.0824 337.334 93.0653H341.05C341.073 93.4915 341.212 93.8665 341.468 94.1903C341.729 94.5085 342.076 94.7557 342.507 94.9318C342.939 95.108 343.425 95.196 343.965 95.196C344.527 95.196 345.025 95.0966 345.456 94.8977C345.888 94.6989 346.226 94.4233 346.471 94.071C346.715 93.7187 346.837 93.3125 346.837 92.8523C346.837 92.3864 346.706 91.9744 346.445 91.6165C346.189 91.2528 345.82 90.9687 345.337 90.7642C344.86 90.5597 344.292 90.4574 343.632 90.4574H342.005V87.7472H343.632C344.189 87.7472 344.681 87.6506 345.107 87.4574C345.539 87.2642 345.874 86.9972 346.113 86.6562C346.351 86.3097 346.471 85.9062 346.471 85.446C346.471 85.0085 346.365 84.625 346.155 84.2955C345.951 83.9602 345.661 83.6989 345.286 83.5114C344.917 83.3239 344.485 83.2301 343.99 83.2301C343.49 83.2301 343.033 83.321 342.618 83.5028C342.203 83.679 341.871 83.9318 341.621 84.2614C341.371 84.5909 341.238 84.9773 341.221 85.4205H337.684C337.701 84.4148 337.988 83.5284 338.544 82.7614C339.101 81.9943 339.851 81.3949 340.794 80.9631C341.743 80.5256 342.814 80.3068 344.007 80.3068C345.212 80.3068 346.266 80.5256 347.169 80.9631C348.073 81.4006 348.775 81.9915 349.275 82.7358C349.78 83.4744 350.03 84.304 350.025 85.2244C350.03 86.2017 349.726 87.017 349.113 87.6705C348.505 88.3239 347.712 88.7386 346.735 88.9148V89.0511C348.019 89.2159 348.996 89.6619 349.667 90.3892C350.343 91.1108 350.678 92.0142 350.672 93.0994C350.678 94.0938 350.391 94.9773 349.811 95.75C349.238 96.5227 348.445 97.1307 347.434 97.5739C346.422 98.017 345.263 98.2386 343.956 98.2386Z" fill="#ABABAB"/>
<rect x="342.027" y="107.813" width="3" height="17" transform="rotate(-110 342.027 107.813)" fill="#D9D9D9"/>
<path d="M355.055 127.24C353.851 127.24 352.777 127.018 351.834 126.575C350.896 126.132 350.152 125.521 349.601 124.742C349.05 123.964 348.763 123.072 348.74 122.066H352.32C352.359 122.742 352.643 123.291 353.172 123.711C353.7 124.132 354.328 124.342 355.055 124.342C355.635 124.342 356.146 124.214 356.589 123.958C357.038 123.697 357.388 123.336 357.638 122.876C357.893 122.41 358.021 121.876 358.021 121.274C358.021 120.66 357.891 120.12 357.629 119.654C357.374 119.188 357.018 118.825 356.564 118.563C356.109 118.302 355.589 118.169 355.004 118.163C354.493 118.163 353.996 118.268 353.513 118.478C353.036 118.688 352.663 118.975 352.396 119.339L349.115 118.751L349.942 109.546H360.612V112.563H352.984L352.533 116.936H352.635C352.942 116.504 353.405 116.146 354.024 115.862C354.643 115.578 355.337 115.436 356.104 115.436C357.155 115.436 358.092 115.683 358.916 116.177C359.74 116.671 360.391 117.35 360.868 118.214C361.345 119.072 361.581 120.061 361.575 121.18C361.581 122.356 361.308 123.402 360.757 124.316C360.212 125.225 359.447 125.941 358.464 126.464C357.487 126.981 356.351 127.24 355.055 127.24Z" fill="#D9D9D9"/>
<path d="M242.192 157.24C241.294 157.234 240.428 157.083 239.592 156.788C238.763 156.492 238.018 156.012 237.359 155.348C236.7 154.683 236.178 153.802 235.791 152.706C235.411 151.609 235.22 150.262 235.22 148.666C235.226 147.2 235.393 145.89 235.723 144.737C236.058 143.578 236.536 142.595 237.155 141.788C237.78 140.981 238.527 140.367 239.396 139.947C240.266 139.521 241.24 139.308 242.32 139.308C243.484 139.308 244.513 139.535 245.405 139.99C246.297 140.438 247.013 141.049 247.553 141.822C248.098 142.595 248.428 143.461 248.541 144.421H244.902C244.76 143.813 244.462 143.336 244.007 142.99C243.553 142.643 242.99 142.47 242.32 142.47C241.183 142.47 240.32 142.964 239.729 143.953C239.143 144.941 238.845 146.285 238.834 147.984H238.953C239.214 147.467 239.567 147.027 240.01 146.663C240.459 146.294 240.967 146.012 241.536 145.819C242.109 145.62 242.714 145.521 243.351 145.521C244.385 145.521 245.305 145.765 246.112 146.254C246.919 146.737 247.555 147.402 248.021 148.248C248.487 149.095 248.72 150.063 248.72 151.154C248.72 152.336 248.445 153.387 247.893 154.308C247.348 155.228 246.584 155.95 245.601 156.473C244.624 156.99 243.487 157.245 242.192 157.24ZM242.175 154.342C242.743 154.342 243.251 154.206 243.7 153.933C244.149 153.66 244.501 153.291 244.757 152.825C245.013 152.359 245.141 151.836 245.141 151.257C245.141 150.677 245.013 150.157 244.757 149.697C244.507 149.237 244.161 148.87 243.717 148.598C243.274 148.325 242.768 148.188 242.2 148.188C241.774 148.188 241.379 148.268 241.016 148.427C240.658 148.586 240.342 148.808 240.07 149.092C239.803 149.376 239.592 149.706 239.439 150.081C239.286 150.45 239.209 150.845 239.209 151.265C239.209 151.828 239.337 152.342 239.592 152.808C239.854 153.274 240.206 153.646 240.649 153.924C241.098 154.203 241.607 154.342 242.175 154.342Z" fill="#ABABAB"/>
<rect x="240.027" y="166.814" width="3" height="17" transform="rotate(-110 240.027 166.814)" fill="#D9D9D9"/>
<path d="M253.192 186.241C252.294 186.235 251.428 186.084 250.592 185.789C249.763 185.493 249.018 185.013 248.359 184.349C247.7 183.684 247.178 182.803 246.791 181.706C246.411 180.61 246.22 179.263 246.22 177.667C246.226 176.201 246.393 174.891 246.723 173.738C247.058 172.579 247.536 171.596 248.155 170.789C248.78 169.982 249.527 169.368 250.396 168.948C251.266 168.522 252.24 168.309 253.32 168.309C254.484 168.309 255.513 168.536 256.405 168.991C257.297 169.439 258.013 170.05 258.553 170.823C259.098 171.596 259.428 172.462 259.541 173.422H255.902C255.76 172.814 255.462 172.337 255.007 171.991C254.553 171.644 253.99 171.471 253.32 171.471C252.183 171.471 251.32 171.965 250.729 172.954C250.143 173.942 249.845 175.286 249.834 176.985H249.953C250.214 176.468 250.567 176.028 251.01 175.664C251.459 175.295 251.967 175.013 252.536 174.82C253.109 174.621 253.714 174.522 254.351 174.522C255.385 174.522 256.305 174.766 257.112 175.255C257.919 175.738 258.555 176.403 259.021 177.249C259.487 178.096 259.72 179.064 259.72 180.155C259.72 181.337 259.445 182.388 258.893 183.309C258.348 184.229 257.584 184.951 256.601 185.474C255.624 185.991 254.487 186.246 253.192 186.241ZM253.175 183.343C253.743 183.343 254.251 183.206 254.7 182.934C255.149 182.661 255.501 182.292 255.757 181.826C256.013 181.36 256.141 180.837 256.141 180.258C256.141 179.678 256.013 179.158 255.757 178.698C255.507 178.238 255.161 177.871 254.717 177.599C254.274 177.326 253.768 177.189 253.2 177.189C252.774 177.189 252.379 177.269 252.016 177.428C251.658 177.587 251.342 177.809 251.07 178.093C250.803 178.377 250.592 178.706 250.439 179.081C250.286 179.451 250.209 179.846 250.209 180.266C250.209 180.829 250.337 181.343 250.592 181.809C250.854 182.275 251.206 182.647 251.649 182.925C252.098 183.204 252.607 183.343 253.175 183.343Z" fill="#D9D9D9"/>
<path d="M510.993 98.2386C509.68 98.2386 508.512 98.0256 507.49 97.5994C506.473 97.1676 505.674 96.5795 505.095 95.8352C504.515 95.0909 504.225 94.2472 504.225 93.304C504.225 92.5767 504.39 91.9091 504.72 91.3011C505.055 90.6875 505.51 90.179 506.083 89.7756C506.657 89.3665 507.299 89.1051 508.01 88.9915V88.8722C507.078 88.6847 506.322 88.233 505.743 87.517C505.163 86.7955 504.873 85.9574 504.873 85.0028C504.873 84.0994 505.137 83.2955 505.666 82.5909C506.194 81.8807 506.919 81.3239 507.839 80.9205C508.765 80.5114 509.816 80.3068 510.993 80.3068C512.169 80.3068 513.217 80.5114 514.137 80.9205C515.064 81.3295 515.791 81.8892 516.319 82.5994C516.848 83.304 517.115 84.1051 517.12 85.0028C517.115 85.9631 516.819 86.8011 516.234 87.517C515.649 88.233 514.899 88.6847 513.984 88.8722V88.9915C514.683 89.1051 515.316 89.3665 515.885 89.7756C516.458 90.179 516.913 90.6875 517.248 91.3011C517.589 91.9091 517.762 92.5767 517.768 93.304C517.762 94.2472 517.47 95.0909 516.89 95.8352C516.311 96.5795 515.51 97.1676 514.487 97.5994C513.47 98.0256 512.305 98.2386 510.993 98.2386ZM510.993 95.5284C511.578 95.5284 512.089 95.4233 512.527 95.2131C512.964 94.9972 513.305 94.7017 513.549 94.3267C513.799 93.946 513.924 93.5085 513.924 93.0142C513.924 92.5085 513.797 92.0625 513.541 91.6761C513.285 91.2841 512.939 90.9773 512.501 90.7557C512.064 90.5284 511.561 90.4148 510.993 90.4148C510.43 90.4148 509.927 90.5284 509.484 90.7557C509.041 90.9773 508.691 91.2841 508.436 91.6761C508.186 92.0625 508.061 92.5085 508.061 93.0142C508.061 93.5085 508.183 93.946 508.427 94.3267C508.672 94.7017 509.015 94.9972 509.458 95.2131C509.902 95.4233 510.413 95.5284 510.993 95.5284ZM510.993 87.7301C511.481 87.7301 511.916 87.6307 512.297 87.4318C512.677 87.233 512.975 86.9574 513.191 86.6051C513.407 86.2528 513.515 85.8466 513.515 85.3864C513.515 84.9318 513.407 84.5341 513.191 84.1932C512.975 83.8466 512.68 83.5767 512.305 83.3835C511.93 83.1847 511.493 83.0852 510.993 83.0852C510.498 83.0852 510.061 83.1847 509.68 83.3835C509.299 83.5767 509.001 83.8466 508.785 84.1932C508.575 84.5341 508.47 84.9318 508.47 85.3864C508.47 85.8466 508.578 86.2528 508.794 86.6051C509.01 86.9574 509.308 87.233 509.689 87.4318C510.069 87.6307 510.504 87.7301 510.993 87.7301Z" fill="#ABABAB"/>
<rect x="509.027" y="107.812" width="3" height="17" transform="rotate(-110 509.027 107.812)" fill="#D9D9D9"/>
<path d="M516.876 109.545V127H513.185V113.048H513.083L509.086 115.554V112.281L513.407 109.545H516.876ZM527.868 127.384C526.402 127.378 525.141 127.017 524.084 126.301C523.033 125.585 522.223 124.548 521.655 123.19C521.092 121.832 520.814 120.199 520.82 118.29C520.82 116.386 521.101 114.764 521.663 113.423C522.232 112.082 523.041 111.062 524.092 110.364C525.149 109.659 526.408 109.307 527.868 109.307C529.328 109.307 530.584 109.659 531.635 110.364C532.692 111.068 533.504 112.091 534.072 113.432C534.641 114.767 534.922 116.386 534.916 118.29C534.916 120.205 534.632 121.841 534.064 123.199C533.501 124.557 532.695 125.594 531.643 126.31C530.592 127.026 529.334 127.384 527.868 127.384ZM527.868 124.324C528.868 124.324 529.666 123.821 530.263 122.815C530.859 121.81 531.155 120.301 531.149 118.29C531.149 116.966 531.013 115.864 530.74 114.983C530.473 114.102 530.092 113.44 529.598 112.997C529.109 112.554 528.533 112.332 527.868 112.332C526.874 112.332 526.078 112.83 525.482 113.824C524.885 114.818 524.584 116.307 524.578 118.29C524.578 119.631 524.712 120.75 524.979 121.648C525.251 122.54 525.635 123.21 526.129 123.659C526.624 124.102 527.203 124.324 527.868 124.324Z" fill="#D9D9D9"/>
<path d="M557.579 80.5455V98H553.888V84.0483H553.786L549.789 86.554V83.2812L554.11 80.5455H557.579ZM561.727 98V95.3409L567.94 89.5881C568.469 89.0767 568.912 88.6165 569.27 88.2074C569.634 87.7983 569.909 87.3977 570.097 87.0057C570.284 86.608 570.378 86.179 570.378 85.7188C570.378 85.2074 570.261 84.767 570.028 84.3977C569.795 84.0227 569.477 83.7358 569.074 83.5369C568.67 83.3324 568.213 83.2301 567.702 83.2301C567.168 83.2301 566.702 83.3381 566.304 83.554C565.906 83.7699 565.599 84.0795 565.384 84.483C565.168 84.8864 565.06 85.3665 565.06 85.9233H561.557C561.557 84.7812 561.815 83.7898 562.332 82.9489C562.849 82.108 563.574 81.4574 564.506 80.9972C565.438 80.5369 566.511 80.3068 567.727 80.3068C568.977 80.3068 570.065 80.5284 570.991 80.9716C571.923 81.4091 572.648 82.017 573.165 82.7955C573.682 83.5739 573.94 84.4659 573.94 85.4716C573.94 86.1307 573.81 86.7812 573.548 87.4233C573.293 88.0653 572.835 88.7784 572.176 89.5625C571.517 90.3409 570.588 91.2756 569.389 92.3665L566.841 94.8636V94.983H574.17V98H561.727Z" fill="#ABABAB"/>
<rect x="560.027" y="107.812" width="3" height="17" transform="rotate(-110 560.027 107.812)" fill="#D9D9D9"/>
<path d="M568.579 109.545V127H564.888V113.048H564.786L560.789 115.554V112.281L565.11 109.545H568.579ZM572.727 127V124.341L578.94 118.588C579.469 118.077 579.912 117.616 580.27 117.207C580.634 116.798 580.909 116.398 581.097 116.006C581.284 115.608 581.378 115.179 581.378 114.719C581.378 114.207 581.261 113.767 581.028 113.398C580.795 113.023 580.477 112.736 580.074 112.537C579.67 112.332 579.213 112.23 578.702 112.23C578.168 112.23 577.702 112.338 577.304 112.554C576.906 112.77 576.599 113.08 576.384 113.483C576.168 113.886 576.06 114.366 576.06 114.923H572.557C572.557 113.781 572.815 112.79 573.332 111.949C573.849 111.108 574.574 110.457 575.506 109.997C576.438 109.537 577.511 109.307 578.727 109.307C579.977 109.307 581.065 109.528 581.991 109.972C582.923 110.409 583.648 111.017 584.165 111.795C584.682 112.574 584.94 113.466 584.94 114.472C584.94 115.131 584.81 115.781 584.548 116.423C584.293 117.065 583.835 117.778 583.176 118.562C582.517 119.341 581.588 120.276 580.389 121.366L577.841 123.864V123.983H585.17V127H572.727Z" fill="#D9D9D9"/>
<path d="M510.993 157.239C509.68 157.239 508.512 157.026 507.49 156.599C506.473 156.168 505.674 155.58 505.095 154.835C504.515 154.091 504.225 153.247 504.225 152.304C504.225 151.577 504.39 150.909 504.72 150.301C505.055 149.688 505.51 149.179 506.083 148.776C506.657 148.366 507.299 148.105 508.01 147.991V147.872C507.078 147.685 506.322 147.233 505.743 146.517C505.163 145.795 504.873 144.957 504.873 144.003C504.873 143.099 505.137 142.295 505.666 141.591C506.194 140.881 506.919 140.324 507.839 139.92C508.765 139.511 509.816 139.307 510.993 139.307C512.169 139.307 513.217 139.511 514.137 139.92C515.064 140.33 515.791 140.889 516.319 141.599C516.848 142.304 517.115 143.105 517.12 144.003C517.115 144.963 516.819 145.801 516.234 146.517C515.649 147.233 514.899 147.685 513.984 147.872V147.991C514.683 148.105 515.316 148.366 515.885 148.776C516.458 149.179 516.913 149.688 517.248 150.301C517.589 150.909 517.762 151.577 517.768 152.304C517.762 153.247 517.47 154.091 516.89 154.835C516.311 155.58 515.51 156.168 514.487 156.599C513.47 157.026 512.305 157.239 510.993 157.239ZM510.993 154.528C511.578 154.528 512.089 154.423 512.527 154.213C512.964 153.997 513.305 153.702 513.549 153.327C513.799 152.946 513.924 152.509 513.924 152.014C513.924 151.509 513.797 151.062 513.541 150.676C513.285 150.284 512.939 149.977 512.501 149.756C512.064 149.528 511.561 149.415 510.993 149.415C510.43 149.415 509.927 149.528 509.484 149.756C509.041 149.977 508.691 150.284 508.436 150.676C508.186 151.062 508.061 151.509 508.061 152.014C508.061 152.509 508.183 152.946 508.427 153.327C508.672 153.702 509.015 153.997 509.458 154.213C509.902 154.423 510.413 154.528 510.993 154.528ZM510.993 146.73C511.481 146.73 511.916 146.631 512.297 146.432C512.677 146.233 512.975 145.957 513.191 145.605C513.407 145.253 513.515 144.847 513.515 144.386C513.515 143.932 513.407 143.534 513.191 143.193C512.975 142.847 512.68 142.577 512.305 142.384C511.93 142.185 511.493 142.085 510.993 142.085C510.498 142.085 510.061 142.185 509.68 142.384C509.299 142.577 509.001 142.847 508.785 143.193C508.575 143.534 508.47 143.932 508.47 144.386C508.47 144.847 508.578 145.253 508.794 145.605C509.01 145.957 509.308 146.233 509.689 146.432C510.069 146.631 510.504 146.73 510.993 146.73Z" fill="#ABABAB"/>
<rect x="509.027" y="166.812" width="3" height="17" transform="rotate(-110 509.027 166.812)" fill="#D9D9D9"/>
<path d="M507.594 186V183.341L513.808 177.588C514.336 177.077 514.779 176.616 515.137 176.207C515.501 175.798 515.776 175.398 515.964 175.006C516.151 174.608 516.245 174.179 516.245 173.719C516.245 173.207 516.129 172.767 515.896 172.398C515.663 172.023 515.344 171.736 514.941 171.537C514.538 171.332 514.08 171.23 513.569 171.23C513.035 171.23 512.569 171.338 512.171 171.554C511.773 171.77 511.467 172.08 511.251 172.483C511.035 172.886 510.927 173.366 510.927 173.923H507.424C507.424 172.781 507.683 171.79 508.2 170.949C508.717 170.108 509.441 169.457 510.373 168.997C511.305 168.537 512.379 168.307 513.594 168.307C514.844 168.307 515.933 168.528 516.859 168.972C517.79 169.409 518.515 170.017 519.032 170.795C519.549 171.574 519.808 172.466 519.808 173.472C519.808 174.131 519.677 174.781 519.415 175.423C519.16 176.065 518.702 176.778 518.043 177.562C517.384 178.341 516.455 179.276 515.256 180.366L512.708 182.864V182.983H520.038V186H507.594ZM529.555 186.384C528.089 186.378 526.828 186.017 525.771 185.301C524.72 184.585 523.911 183.548 523.342 182.19C522.78 180.832 522.501 179.199 522.507 177.29C522.507 175.386 522.788 173.764 523.351 172.423C523.919 171.082 524.729 170.062 525.78 169.364C526.837 168.659 528.095 168.307 529.555 168.307C531.016 168.307 532.271 168.659 533.322 169.364C534.379 170.068 535.192 171.091 535.76 172.432C536.328 173.767 536.609 175.386 536.604 177.29C536.604 179.205 536.32 180.841 535.751 182.199C535.189 183.557 534.382 184.594 533.331 185.31C532.28 186.026 531.021 186.384 529.555 186.384ZM529.555 183.324C530.555 183.324 531.354 182.821 531.95 181.815C532.547 180.81 532.842 179.301 532.837 177.29C532.837 175.966 532.7 174.864 532.428 173.983C532.161 173.102 531.78 172.44 531.286 171.997C530.797 171.554 530.22 171.332 529.555 171.332C528.561 171.332 527.766 171.83 527.169 172.824C526.572 173.818 526.271 175.307 526.266 177.29C526.266 178.631 526.399 179.75 526.666 180.648C526.939 181.54 527.322 182.21 527.817 182.659C528.311 183.102 528.891 183.324 529.555 183.324Z" fill="#D9D9D9"/>
<path d="M292.956 157.24C291.684 157.24 290.55 157.021 289.556 156.583C288.567 156.14 287.786 155.532 287.212 154.759C286.644 153.981 286.351 153.083 286.334 152.066H290.05C290.073 152.492 290.212 152.867 290.468 153.191C290.729 153.509 291.076 153.757 291.507 153.933C291.939 154.109 292.425 154.197 292.965 154.197C293.527 154.197 294.025 154.098 294.456 153.899C294.888 153.7 295.226 153.424 295.471 153.072C295.715 152.72 295.837 152.313 295.837 151.853C295.837 151.387 295.706 150.975 295.445 150.617C295.189 150.254 294.82 149.97 294.337 149.765C293.86 149.561 293.292 149.458 292.632 149.458H291.005V146.748H292.632C293.189 146.748 293.681 146.652 294.107 146.458C294.539 146.265 294.874 145.998 295.113 145.657C295.351 145.311 295.471 144.907 295.471 144.447C295.471 144.009 295.365 143.626 295.155 143.296C294.951 142.961 294.661 142.7 294.286 142.512C293.917 142.325 293.485 142.231 292.99 142.231C292.49 142.231 292.033 142.322 291.618 142.504C291.203 142.68 290.871 142.933 290.621 143.262C290.371 143.592 290.238 143.978 290.221 144.421H286.684C286.701 143.416 286.988 142.529 287.544 141.762C288.101 140.995 288.851 140.396 289.794 139.964C290.743 139.527 291.814 139.308 293.007 139.308C294.212 139.308 295.266 139.527 296.169 139.964C297.073 140.402 297.775 140.992 298.275 141.737C298.78 142.475 299.03 143.305 299.025 144.225C299.03 145.203 298.726 146.018 298.113 146.671C297.505 147.325 296.712 147.74 295.735 147.916V148.052C297.019 148.217 297.996 148.663 298.667 149.39C299.343 150.112 299.678 151.015 299.672 152.1C299.678 153.095 299.391 153.978 298.811 154.751C298.238 155.524 297.445 156.132 296.434 156.575C295.422 157.018 294.263 157.24 292.956 157.24Z" fill="#ABABAB"/>
<rect x="291.027" y="166.814" width="3" height="17" transform="rotate(-110 291.027 166.814)" fill="#D9D9D9"/>
<path d="M298.968 186.002L306.204 171.684V171.564H297.775V168.547H310.022V171.607L302.778 186.002H298.968Z" fill="#D9D9D9"/>
<path d="M459.956 157.239C458.684 157.239 457.55 157.02 456.556 156.582C455.567 156.139 454.786 155.531 454.212 154.759C453.644 153.98 453.351 153.082 453.334 152.065H457.05C457.073 152.491 457.212 152.866 457.468 153.19C457.729 153.509 458.076 153.756 458.507 153.932C458.939 154.108 459.425 154.196 459.965 154.196C460.527 154.196 461.025 154.097 461.456 153.898C461.888 153.699 462.226 153.423 462.471 153.071C462.715 152.719 462.837 152.312 462.837 151.852C462.837 151.386 462.706 150.974 462.445 150.616C462.189 150.253 461.82 149.969 461.337 149.764C460.86 149.56 460.292 149.457 459.632 149.457H458.005V146.747H459.632C460.189 146.747 460.681 146.651 461.107 146.457C461.539 146.264 461.874 145.997 462.113 145.656C462.351 145.31 462.471 144.906 462.471 144.446C462.471 144.009 462.365 143.625 462.155 143.295C461.951 142.96 461.661 142.699 461.286 142.511C460.917 142.324 460.485 142.23 459.99 142.23C459.49 142.23 459.033 142.321 458.618 142.503C458.203 142.679 457.871 142.932 457.621 143.261C457.371 143.591 457.238 143.977 457.221 144.42H453.684C453.701 143.415 453.988 142.528 454.544 141.761C455.101 140.994 455.851 140.395 456.794 139.963C457.743 139.526 458.814 139.307 460.007 139.307C461.212 139.307 462.266 139.526 463.169 139.963C464.073 140.401 464.775 140.991 465.275 141.736C465.78 142.474 466.03 143.304 466.025 144.224C466.03 145.202 465.726 146.017 465.113 146.67C464.505 147.324 463.712 147.739 462.735 147.915V148.051C464.019 148.216 464.996 148.662 465.667 149.389C466.343 150.111 466.678 151.014 466.672 152.099C466.678 153.094 466.391 153.977 465.811 154.75C465.238 155.523 464.445 156.131 463.434 156.574C462.422 157.017 461.263 157.239 459.956 157.239Z" fill="#ABABAB"/>
<rect x="458.027" y="166.812" width="3" height="17" transform="rotate(-110 458.027 166.812)" fill="#D9D9D9"/>
<path d="M466.403 168.545V186H462.713V172.048H462.61L458.613 174.554V171.281L462.934 168.545H466.403ZM476.926 186.239C475.722 186.239 474.648 186.017 473.705 185.574C472.767 185.131 472.023 184.52 471.472 183.741C470.921 182.963 470.634 182.071 470.611 181.065H474.191C474.23 181.741 474.515 182.29 475.043 182.71C475.571 183.131 476.199 183.341 476.926 183.341C477.506 183.341 478.017 183.213 478.461 182.957C478.909 182.696 479.259 182.335 479.509 181.875C479.765 181.409 479.892 180.875 479.892 180.273C479.892 179.659 479.762 179.119 479.5 178.653C479.245 178.187 478.89 177.824 478.435 177.562C477.98 177.301 477.461 177.168 476.875 177.162C476.364 177.162 475.867 177.267 475.384 177.477C474.907 177.687 474.534 177.974 474.267 178.338L470.986 177.75L471.813 168.545H482.483V171.562H474.855L474.404 175.935H474.506C474.813 175.503 475.276 175.145 475.895 174.861C476.515 174.577 477.208 174.435 477.975 174.435C479.026 174.435 479.963 174.682 480.787 175.176C481.611 175.67 482.262 176.349 482.739 177.213C483.216 178.071 483.452 179.06 483.446 180.179C483.452 181.355 483.179 182.401 482.628 183.315C482.083 184.224 481.319 184.94 480.336 185.463C479.358 185.98 478.222 186.239 476.926 186.239Z" fill="#D9D9D9"/>
<path d="M459.808 80.3068C460.706 80.3068 461.57 80.4574 462.399 80.7585C463.234 81.0597 463.979 81.5398 464.632 82.1989C465.291 82.858 465.811 83.733 466.192 84.8239C466.578 85.9091 466.774 87.2415 466.78 88.821C466.78 90.304 466.612 91.6278 466.277 92.7926C465.947 93.9517 465.473 94.9375 464.854 95.75C464.234 96.5625 463.487 97.1818 462.612 97.608C461.737 98.0284 460.76 98.2386 459.68 98.2386C458.516 98.2386 457.487 98.0142 456.595 97.5653C455.703 97.1108 454.984 96.4943 454.439 95.7159C453.899 94.9318 453.572 94.0511 453.459 93.0739H457.098C457.24 93.7102 457.538 94.2045 457.993 94.5568C458.447 94.9034 459.01 95.0767 459.68 95.0767C460.817 95.0767 461.68 94.5824 462.271 93.5938C462.862 92.5994 463.161 91.2386 463.166 89.5114H463.047C462.786 90.0227 462.433 90.4631 461.99 90.8324C461.547 91.196 461.038 91.4773 460.464 91.6761C459.896 91.875 459.291 91.9744 458.649 91.9744C457.621 91.9744 456.703 91.733 455.896 91.25C455.089 90.767 454.453 90.1023 453.987 89.2557C453.521 88.4091 453.288 87.4432 453.288 86.358C453.283 85.1875 453.553 84.1449 454.098 83.2301C454.643 82.3153 455.405 81.5994 456.382 81.0824C457.365 80.5597 458.507 80.3011 459.808 80.3068ZM459.834 83.2045C459.26 83.2045 458.749 83.3409 458.3 83.6136C457.857 83.8864 457.504 84.2528 457.243 84.7131C456.987 85.1733 456.862 85.6875 456.868 86.2557C456.868 86.8295 456.993 87.3466 457.243 87.8068C457.499 88.2614 457.845 88.625 458.283 88.8977C458.726 89.1648 459.232 89.2983 459.8 89.2983C460.226 89.2983 460.621 89.2187 460.984 89.0597C461.348 88.9006 461.663 88.6818 461.93 88.4034C462.203 88.1193 462.416 87.7926 462.57 87.4233C462.723 87.054 462.8 86.6619 462.8 86.2472C462.794 85.696 462.663 85.1903 462.408 84.7301C462.152 84.2699 461.8 83.9006 461.351 83.6222C460.902 83.3437 460.396 83.2045 459.834 83.2045Z" fill="#ABABAB"/>
<rect x="458.027" y="107.812" width="3" height="17" transform="rotate(-110 458.027 107.812)" fill="#D9D9D9"/>
<path d="M470.808 109.307C471.706 109.307 472.57 109.457 473.399 109.759C474.234 110.06 474.979 110.54 475.632 111.199C476.291 111.858 476.811 112.733 477.192 113.824C477.578 114.909 477.774 116.241 477.78 117.821C477.78 119.304 477.612 120.628 477.277 121.793C476.947 122.952 476.473 123.938 475.854 124.75C475.234 125.562 474.487 126.182 473.612 126.608C472.737 127.028 471.76 127.239 470.68 127.239C469.516 127.239 468.487 127.014 467.595 126.565C466.703 126.111 465.984 125.494 465.439 124.716C464.899 123.932 464.572 123.051 464.459 122.074H468.098C468.24 122.71 468.538 123.205 468.993 123.557C469.447 123.903 470.01 124.077 470.68 124.077C471.817 124.077 472.68 123.582 473.271 122.594C473.862 121.599 474.161 120.239 474.166 118.511H474.047C473.786 119.023 473.433 119.463 472.99 119.832C472.547 120.196 472.038 120.477 471.464 120.676C470.896 120.875 470.291 120.974 469.649 120.974C468.621 120.974 467.703 120.733 466.896 120.25C466.089 119.767 465.453 119.102 464.987 118.256C464.521 117.409 464.288 116.443 464.288 115.358C464.283 114.188 464.553 113.145 465.098 112.23C465.643 111.315 466.405 110.599 467.382 110.082C468.365 109.56 469.507 109.301 470.808 109.307ZM470.834 112.205C470.26 112.205 469.749 112.341 469.3 112.614C468.857 112.886 468.504 113.253 468.243 113.713C467.987 114.173 467.862 114.687 467.868 115.256C467.868 115.83 467.993 116.347 468.243 116.807C468.499 117.261 468.845 117.625 469.283 117.898C469.726 118.165 470.232 118.298 470.8 118.298C471.226 118.298 471.621 118.219 471.984 118.06C472.348 117.901 472.663 117.682 472.93 117.403C473.203 117.119 473.416 116.793 473.57 116.423C473.723 116.054 473.8 115.662 473.8 115.247C473.794 114.696 473.663 114.19 473.408 113.73C473.152 113.27 472.8 112.901 472.351 112.622C471.902 112.344 471.396 112.205 470.834 112.205Z" fill="#D9D9D9"/>
<path d="M557.204 139.545V157H553.513V143.048H553.411L549.414 145.554V142.281L553.735 139.545H557.204ZM567.864 157.239C566.551 157.239 565.384 157.026 564.361 156.599C563.344 156.168 562.545 155.58 561.966 154.835C561.386 154.091 561.097 153.247 561.097 152.304C561.097 151.577 561.261 150.909 561.591 150.301C561.926 149.688 562.381 149.179 562.955 148.776C563.528 148.366 564.17 148.105 564.881 147.991V147.872C563.949 147.685 563.193 147.233 562.614 146.517C562.034 145.795 561.744 144.957 561.744 144.003C561.744 143.099 562.009 142.295 562.537 141.591C563.065 140.881 563.79 140.324 564.71 139.92C565.636 139.511 566.688 139.307 567.864 139.307C569.04 139.307 570.088 139.511 571.009 139.92C571.935 140.33 572.662 140.889 573.19 141.599C573.719 142.304 573.986 143.105 573.991 144.003C573.986 144.963 573.69 145.801 573.105 146.517C572.52 147.233 571.77 147.685 570.855 147.872V147.991C571.554 148.105 572.188 148.366 572.756 148.776C573.33 149.179 573.784 149.688 574.119 150.301C574.46 150.909 574.634 151.577 574.639 152.304C574.634 153.247 574.341 154.091 573.761 154.835C573.182 155.58 572.381 156.168 571.358 156.599C570.341 157.026 569.176 157.239 567.864 157.239ZM567.864 154.528C568.449 154.528 568.96 154.423 569.398 154.213C569.835 153.997 570.176 153.702 570.42 153.327C570.67 152.946 570.795 152.509 570.795 152.014C570.795 151.509 570.668 151.062 570.412 150.676C570.156 150.284 569.81 149.977 569.372 149.756C568.935 149.528 568.432 149.415 567.864 149.415C567.301 149.415 566.798 149.528 566.355 149.756C565.912 149.977 565.563 150.284 565.307 150.676C565.057 151.062 564.932 151.509 564.932 152.014C564.932 152.509 565.054 152.946 565.298 153.327C565.543 153.702 565.886 153.997 566.33 154.213C566.773 154.423 567.284 154.528 567.864 154.528ZM567.864 146.73C568.352 146.73 568.787 146.631 569.168 146.432C569.548 146.233 569.847 145.957 570.062 145.605C570.278 145.253 570.386 144.847 570.386 144.386C570.386 143.932 570.278 143.534 570.062 143.193C569.847 142.847 569.551 142.577 569.176 142.384C568.801 142.185 568.364 142.085 567.864 142.085C567.369 142.085 566.932 142.185 566.551 142.384C566.17 142.577 565.872 142.847 565.656 143.193C565.446 143.534 565.341 143.932 565.341 144.386C565.341 144.847 565.449 145.253 565.665 145.605C565.881 145.957 566.179 146.233 566.56 146.432C566.94 146.631 567.375 146.73 567.864 146.73Z" fill="#ABABAB"/>
<rect x="560.027" y="166.812" width="3" height="17" transform="rotate(-110 560.027 166.812)" fill="#D9D9D9"/>
<path d="M564.695 186.239C563.422 186.239 562.288 186.02 561.294 185.582C560.305 185.139 559.524 184.531 558.95 183.759C558.382 182.98 558.089 182.082 558.072 181.065H561.788C561.811 181.491 561.95 181.866 562.206 182.19C562.467 182.509 562.814 182.756 563.246 182.932C563.678 183.108 564.163 183.196 564.703 183.196C565.266 183.196 565.763 183.097 566.195 182.898C566.626 182.699 566.964 182.423 567.209 182.071C567.453 181.719 567.575 181.312 567.575 180.852C567.575 180.386 567.445 179.974 567.183 179.616C566.928 179.253 566.558 178.969 566.075 178.764C565.598 178.56 565.03 178.457 564.371 178.457H562.743V175.747H564.371C564.928 175.747 565.419 175.651 565.845 175.457C566.277 175.264 566.612 174.997 566.851 174.656C567.089 174.31 567.209 173.906 567.209 173.446C567.209 173.009 567.104 172.625 566.893 172.295C566.689 171.96 566.399 171.699 566.024 171.511C565.655 171.324 565.223 171.23 564.729 171.23C564.229 171.23 563.771 171.321 563.357 171.503C562.942 171.679 562.609 171.932 562.359 172.261C562.109 172.591 561.976 172.977 561.959 173.42H558.422C558.439 172.415 558.726 171.528 559.283 170.761C559.839 169.994 560.589 169.395 561.533 168.963C562.482 168.526 563.553 168.307 564.746 168.307C565.95 168.307 567.004 168.526 567.908 168.963C568.811 169.401 569.513 169.991 570.013 170.736C570.518 171.474 570.768 172.304 570.763 173.224C570.768 174.202 570.464 175.017 569.851 175.67C569.243 176.324 568.45 176.739 567.473 176.915V177.051C568.757 177.216 569.734 177.662 570.405 178.389C571.081 179.111 571.416 180.014 571.411 181.099C571.416 182.094 571.129 182.977 570.55 183.75C569.976 184.523 569.183 185.131 568.172 185.574C567.161 186.017 566.001 186.239 564.695 186.239ZM580.907 186.384C579.441 186.378 578.18 186.017 577.123 185.301C576.072 184.585 575.262 183.548 574.694 182.19C574.131 180.832 573.853 179.199 573.859 177.29C573.859 175.386 574.14 173.764 574.702 172.423C575.271 171.082 576.08 170.062 577.131 169.364C578.188 168.659 579.447 168.307 580.907 168.307C582.367 168.307 583.623 168.659 584.674 169.364C585.731 170.068 586.543 171.091 587.112 172.432C587.68 173.767 587.961 175.386 587.955 177.29C587.955 179.205 587.671 180.841 587.103 182.199C586.54 183.557 585.734 184.594 584.683 185.31C583.631 186.026 582.373 186.384 580.907 186.384ZM580.907 183.324C581.907 183.324 582.705 182.821 583.302 181.815C583.898 180.81 584.194 179.301 584.188 177.29C584.188 175.966 584.052 174.864 583.779 173.983C583.512 173.102 583.131 172.44 582.637 171.997C582.148 171.554 581.572 171.332 580.907 171.332C579.913 171.332 579.117 171.83 578.521 172.824C577.924 173.818 577.623 175.307 577.617 177.29C577.617 178.631 577.751 179.75 578.018 180.648C578.29 181.54 578.674 182.21 579.168 182.659C579.663 183.102 580.242 183.324 580.907 183.324Z" fill="#D9D9D9"/>
<path d="M389 166.519C389 161.407 390.815 157.049 394.444 153.444C398.049 149.815 402.407 148 407.519 148C412.63 148 417 149.815 420.63 153.444C424.235 157.049 426.037 161.407 426.037 166.519V166.889V167.259V167.63V168V168.37V168.741V169.111V169.481C426.037 174.593 424.235 178.963 420.63 182.593C417 186.198 412.63 188 407.519 188C402.407 188 398.049 186.198 394.444 182.593C390.815 178.963 389 174.593 389 169.481V169.111V168.741V168.37V168V167.63V167.259V166.889V166.519ZM421.593 166.519C421.593 162.642 420.222 159.333 417.481 156.593C414.716 153.827 411.395 152.444 407.519 152.444C403.642 152.444 400.333 153.827 397.593 156.593C394.827 159.333 393.444 162.642 393.444 166.519C393.444 170.395 394.827 173.716 397.593 176.481C400.333 179.222 403.642 180.593 407.519 180.593C411.395 180.593 414.716 179.222 417.481 176.481C420.222 173.716 421.593 170.395 421.593 166.519Z" fill="black" fill-opacity="0.67"/>
<path d="M400.852 166.518C400.852 167.136 401.074 167.667 401.518 168.111L405.963 172.555C406.284 172.876 406.691 173.086 407.185 173.185L408.555 172.963C408.975 172.716 409.296 172.383 409.518 171.963L413.963 163.074C414.234 162.531 414.271 161.963 414.074 161.37C413.876 160.802 413.506 160.383 412.963 160.111L411.259 159.963C410.691 160.16 410.271 160.531 410 161.074L406.926 167.222L404.666 164.963C404.222 164.518 403.691 164.296 403.074 164.296C402.457 164.296 401.938 164.518 401.518 164.963C401.074 165.383 400.852 165.901 400.852 166.518Z" fill="black" fill-opacity="0.67"/>
<rect width="188" height="11" transform="translate(308 198)" fill="white"/>
<path d="M308.893 199.993V198.091H317.852V199.993H314.512V209H312.232V199.993H308.893ZM319.328 209V198.091H326.678V199.993H321.634V202.592H326.3V204.494H321.634V207.098H326.7V209H319.328ZM334.43 201.228C334.387 200.799 334.205 200.465 333.881 200.227C333.558 199.989 333.12 199.87 332.566 199.87C332.189 199.87 331.871 199.923 331.612 200.03C331.353 200.133 331.154 200.277 331.016 200.461C330.881 200.646 330.813 200.855 330.813 201.09C330.806 201.285 330.847 201.456 330.936 201.601C331.028 201.747 331.154 201.873 331.314 201.979C331.474 202.082 331.658 202.173 331.868 202.251C332.077 202.326 332.301 202.39 332.539 202.443L333.519 202.677C333.995 202.784 334.432 202.926 334.83 203.103C335.227 203.281 335.572 203.499 335.863 203.759C336.154 204.018 336.38 204.323 336.539 204.675C336.703 205.026 336.786 205.429 336.79 205.884C336.786 206.551 336.616 207.13 336.278 207.62C335.945 208.107 335.462 208.485 334.83 208.755C334.201 209.021 333.443 209.154 332.555 209.154C331.674 209.154 330.907 209.02 330.254 208.75C329.604 208.48 329.096 208.08 328.731 207.551C328.368 207.018 328.178 206.36 328.161 205.575H330.392C330.417 205.941 330.522 206.246 330.707 206.491C330.895 206.733 331.145 206.915 331.458 207.04C331.774 207.161 332.131 207.221 332.528 207.221C332.919 207.221 333.258 207.164 333.546 207.05C333.837 206.937 334.063 206.779 334.222 206.576C334.382 206.374 334.462 206.141 334.462 205.879C334.462 205.634 334.389 205.428 334.244 205.261C334.102 205.094 333.892 204.952 333.615 204.835C333.342 204.717 333.006 204.611 332.608 204.515L331.42 204.217C330.501 203.993 329.775 203.643 329.242 203.167C328.709 202.691 328.445 202.05 328.448 201.244C328.445 200.584 328.62 200.007 328.976 199.513C329.334 199.02 329.826 198.634 330.451 198.357C331.076 198.08 331.786 197.942 332.582 197.942C333.391 197.942 334.098 198.08 334.702 198.357C335.309 198.634 335.781 199.02 336.119 199.513C336.456 200.007 336.63 200.578 336.641 201.228H334.43ZM337.926 199.993V198.091H346.885V199.993H343.545V209H341.266V199.993H337.926ZM350.667 198.091V209H348.361V198.091H350.667ZM361.689 198.091V209H359.697L354.951 202.134H354.871V209H352.565V198.091H354.589L359.298 204.952H359.394V198.091H361.689ZM370.829 201.617C370.754 201.358 370.649 201.129 370.515 200.93C370.38 200.728 370.214 200.557 370.019 200.419C369.827 200.277 369.607 200.168 369.359 200.094C369.114 200.019 368.842 199.982 368.544 199.982C367.986 199.982 367.496 200.12 367.073 200.397C366.654 200.674 366.328 201.077 366.093 201.607C365.859 202.132 365.742 202.775 365.742 203.535C365.742 204.295 365.857 204.941 366.088 205.474C366.319 206.006 366.646 206.413 367.068 206.694C367.491 206.971 367.99 207.109 368.565 207.109C369.087 207.109 369.533 207.017 369.902 206.832C370.275 206.644 370.559 206.379 370.754 206.038C370.953 205.697 371.053 205.294 371.053 204.829L371.521 204.898H368.709V203.162H373.274V204.536C373.274 205.495 373.071 206.319 372.667 207.008C372.262 207.693 371.704 208.222 370.994 208.595C370.284 208.964 369.47 209.149 368.554 209.149C367.532 209.149 366.633 208.924 365.859 208.473C365.085 208.018 364.481 207.374 364.048 206.539C363.618 205.701 363.403 204.707 363.403 203.556C363.403 202.672 363.531 201.884 363.787 201.191C364.046 200.495 364.408 199.906 364.874 199.423C365.339 198.94 365.88 198.572 366.498 198.32C367.116 198.068 367.785 197.942 368.506 197.942C369.124 197.942 369.7 198.032 370.232 198.213C370.765 198.391 371.237 198.643 371.649 198.97C372.065 199.297 372.404 199.685 372.667 200.136C372.929 200.584 373.098 201.077 373.173 201.617H370.829ZM378.478 209V198.091H385.829V199.993H380.784V202.592H385.451V204.494H380.784V207.098H385.85V209H378.478ZM391.53 209H387.663V198.091H391.562C392.659 198.091 393.604 198.309 394.395 198.746C395.187 199.179 395.796 199.803 396.223 200.616C396.652 201.429 396.867 202.402 396.867 203.535C396.867 204.671 396.652 205.648 396.223 206.464C395.796 207.281 395.184 207.908 394.385 208.345C393.589 208.782 392.638 209 391.53 209ZM389.969 207.024H391.434C392.116 207.024 392.689 206.903 393.154 206.662C393.623 206.417 393.975 206.038 394.209 205.527C394.447 205.012 394.566 204.348 394.566 203.535C394.566 202.729 394.447 202.07 394.209 201.559C393.975 201.047 393.625 200.671 393.16 200.429C392.694 200.188 392.121 200.067 391.439 200.067H389.969V207.024ZM400.882 198.091V209H398.576V198.091H400.882ZM402.364 199.993V198.091H411.324V199.993H407.984V209H405.704V199.993H402.364ZM415.106 198.091V209H412.799V198.091H415.106ZM427.028 203.545C427.028 204.735 426.803 205.747 426.352 206.582C425.904 207.416 425.293 208.054 424.519 208.494C423.749 208.931 422.882 209.149 421.92 209.149C420.95 209.149 420.08 208.929 419.31 208.489C418.539 208.048 417.93 207.411 417.483 206.576C417.035 205.742 416.812 204.732 416.812 203.545C416.812 202.356 417.035 201.344 417.483 200.509C417.93 199.675 418.539 199.039 419.31 198.602C420.08 198.162 420.95 197.942 421.92 197.942C422.882 197.942 423.749 198.162 424.519 198.602C425.293 199.039 425.904 199.675 426.352 200.509C426.803 201.344 427.028 202.356 427.028 203.545ZM424.69 203.545C424.69 202.775 424.574 202.125 424.344 201.596C424.116 201.067 423.795 200.665 423.379 200.392C422.964 200.119 422.477 199.982 421.92 199.982C421.362 199.982 420.876 200.119 420.46 200.392C420.045 200.665 419.722 201.067 419.491 201.596C419.264 202.125 419.15 202.775 419.15 203.545C419.15 204.316 419.264 204.966 419.491 205.495C419.722 206.024 420.045 206.425 420.46 206.699C420.876 206.972 421.362 207.109 421.92 207.109C422.477 207.109 422.964 206.972 423.379 206.699C423.795 206.425 424.116 206.024 424.344 205.495C424.574 204.966 424.69 204.316 424.69 203.545ZM437.861 198.091V209H435.869L431.123 202.134H431.043V209H428.737V198.091H430.761L435.47 204.952H435.566V198.091H437.861ZM448.294 202.645V204.446H443.319V202.645H448.294ZM461.327 200.818L458.466 209H455.91L453.049 200.818H455.446L457.145 206.672H457.231L458.924 200.818H461.327ZM466.744 209.24C465.828 209.236 465.04 209.011 464.379 208.563C463.722 208.116 463.216 207.468 462.861 206.619C462.509 205.77 462.335 204.749 462.339 203.556C462.339 202.366 462.515 201.353 462.866 200.515C463.221 199.676 463.727 199.039 464.384 198.602C465.045 198.162 465.831 197.942 466.744 197.942C467.657 197.942 468.442 198.162 469.099 198.602C469.759 199.043 470.267 199.682 470.622 200.52C470.977 201.354 471.153 202.366 471.149 203.556C471.149 204.753 470.972 205.776 470.617 206.624C470.265 207.473 469.761 208.121 469.104 208.569C468.447 209.016 467.66 209.24 466.744 209.24ZM466.744 207.327C467.369 207.327 467.868 207.013 468.241 206.385C468.614 205.756 468.798 204.813 468.795 203.556C468.795 202.729 468.71 202.04 468.539 201.489C468.372 200.939 468.134 200.525 467.825 200.248C467.52 199.971 467.16 199.833 466.744 199.833C466.123 199.833 465.625 200.143 465.253 200.765C464.88 201.386 464.692 202.317 464.688 203.556C464.688 204.394 464.771 205.094 464.938 205.655C465.109 206.212 465.348 206.631 465.657 206.912C465.966 207.189 466.329 207.327 466.744 207.327ZM473.702 209.138C473.351 209.138 473.049 209.014 472.797 208.766C472.548 208.513 472.424 208.212 472.424 207.86C472.424 207.512 472.548 207.214 472.797 206.965C473.049 206.717 473.351 206.592 473.702 206.592C474.043 206.592 474.341 206.717 474.597 206.965C474.853 207.214 474.981 207.512 474.981 207.86C474.981 208.094 474.92 208.309 474.799 208.505C474.682 208.696 474.528 208.851 474.336 208.968C474.144 209.082 473.933 209.138 473.702 209.138ZM476.657 207.082V205.266L481.211 198.091H482.777V200.605H481.851L478.98 205.149V205.234H485.451V207.082H476.657ZM481.893 209V206.528L481.936 205.724V198.091H484.099V209H481.893ZM487.052 209V198.091H489.321V202.192H489.391C489.49 201.972 489.634 201.749 489.822 201.521C490.014 201.29 490.262 201.099 490.568 200.946C490.877 200.79 491.26 200.712 491.718 200.712C492.315 200.712 492.865 200.868 493.37 201.18C493.874 201.489 494.277 201.956 494.579 202.581C494.881 203.203 495.032 203.982 495.032 204.92C495.032 205.832 494.884 206.603 494.589 207.232C494.298 207.857 493.901 208.331 493.396 208.654C492.896 208.973 492.334 209.133 491.713 209.133C491.273 209.133 490.898 209.06 490.589 208.915C490.284 208.769 490.033 208.586 489.838 208.366C489.643 208.142 489.494 207.917 489.391 207.69H489.289V209H487.052ZM489.273 204.909C489.273 205.396 489.341 205.82 489.476 206.182C489.611 206.544 489.806 206.827 490.062 207.029C490.317 207.228 490.628 207.327 490.994 207.327C491.363 207.327 491.676 207.226 491.931 207.024C492.187 206.818 492.381 206.534 492.512 206.172C492.647 205.806 492.714 205.385 492.714 204.909C492.714 204.437 492.649 204.021 492.517 203.663C492.386 203.304 492.192 203.023 491.937 202.821C491.681 202.619 491.367 202.517 490.994 202.517C490.625 202.517 490.312 202.615 490.056 202.81C489.804 203.006 489.611 203.283 489.476 203.641C489.341 204 489.273 204.423 489.273 204.909Z" fill="#D9D9D9"/>
<path d="M724.669 295.137L676.09 359.909C675.137 361.179 673.902 362.21 672.482 362.92C671.062 363.63 669.496 364 667.908 364C666.32 364 664.754 363.63 663.334 362.92C661.914 362.21 660.679 361.179 659.726 359.909L611.147 295.137C609.819 293.366 609.101 291.213 609.101 289C609.101 286.787 609.819 284.634 611.147 282.863L659.726 218.091C660.679 216.821 661.914 215.79 663.334 215.08C664.754 214.37 666.32 214 667.908 214C669.496 214 671.062 214.37 672.482 215.08C673.902 215.79 675.137 216.821 676.09 218.091L724.669 282.863C725.997 284.634 726.715 286.787 726.715 289C726.715 291.213 725.997 293.366 724.669 295.137Z" fill="#FF8B37"/>
<path d="M673.34 278.284H660.272L653.702 269.832L647.239 262.304L635.059 247.034H649.405L657.786 257.332L662.083 263.44L673.34 278.284ZM633.958 289.364C633.958 281.433 635.461 274.686 638.468 269.122C641.451 263.559 645.523 259.309 650.684 256.374C655.821 253.462 661.598 252.006 668.013 252.006C674.476 252.006 680.277 253.473 685.414 256.409C690.551 259.345 694.611 263.594 697.594 269.158C700.577 274.721 702.069 281.456 702.069 289.364C702.069 297.295 700.577 304.042 697.594 309.605C694.611 315.169 690.551 319.406 685.414 322.318C680.277 325.254 674.476 326.722 668.013 326.722C661.598 326.722 655.821 325.254 650.684 322.318C645.523 319.406 641.451 315.169 638.468 309.605C635.461 304.042 633.958 297.295 633.958 289.364ZM649.547 289.364C649.547 294.501 650.317 298.833 651.856 302.361C653.371 305.888 655.513 308.563 658.283 310.386C661.053 312.209 664.296 313.121 668.013 313.121C671.73 313.121 674.974 312.209 677.743 310.386C680.513 308.563 682.668 305.888 684.206 302.361C685.722 298.833 686.479 294.501 686.479 289.364C686.479 284.226 685.722 279.894 684.206 276.366C682.668 272.839 680.513 270.164 677.743 268.341C674.974 266.518 671.73 265.607 668.013 265.607C664.296 265.607 661.053 266.518 658.283 268.341C655.513 270.164 653.371 272.839 651.856 276.366C650.317 279.894 649.547 284.226 649.547 289.364Z" fill="white"/>
<path d="M673.34 278.284V283.284C675.239 283.284 676.974 282.209 677.818 280.508C678.663 278.808 678.471 276.776 677.324 275.263L673.34 278.284ZM660.272 278.284L656.324 281.353C657.271 282.571 658.728 283.284 660.272 283.284V278.284ZM653.702 269.832L657.65 266.764C657.6 266.7 657.549 266.637 657.496 266.575L653.702 269.832ZM647.239 262.304L643.33 265.422C643.368 265.469 643.406 265.515 643.445 265.561L647.239 262.304ZM635.059 247.034V242.034C633.138 242.034 631.387 243.134 630.554 244.865C629.721 246.596 629.952 248.65 631.15 250.152L635.059 247.034ZM649.405 247.034L653.283 243.878C652.334 242.711 650.91 242.034 649.405 242.034V247.034ZM657.786 257.332L661.875 254.456C661.808 254.36 661.738 254.267 661.664 254.176L657.786 257.332ZM662.083 263.44L657.993 266.317C658.028 266.366 658.063 266.414 658.099 266.462L662.083 263.44ZM638.468 269.122L642.867 271.499C642.869 271.495 642.872 271.49 642.874 271.485L638.468 269.122ZM650.684 256.374L648.218 252.024L648.212 252.027L650.684 256.374ZM685.414 256.409L682.933 260.75L685.414 256.409ZM697.594 269.158L702.001 266.795L697.594 269.158ZM697.594 309.605L693.188 307.242V307.242L697.594 309.605ZM685.414 322.318L682.948 317.968C682.943 317.971 682.938 317.974 682.933 317.977L685.414 322.318ZM650.684 322.318L653.164 317.977C653.157 317.972 653.149 317.968 653.141 317.964L650.684 322.318ZM638.468 309.605L642.874 307.242C642.872 307.238 642.869 307.233 642.867 307.228L638.468 309.605ZM651.856 302.361L656.45 300.387C656.446 300.379 656.442 300.37 656.439 300.362L651.856 302.361ZM658.283 310.386L661.032 306.21L658.283 310.386ZM677.743 310.386L674.995 306.21L677.743 310.386ZM684.206 302.361L688.789 304.36C688.793 304.351 688.797 304.343 688.801 304.334L684.206 302.361ZM684.206 276.366L688.801 274.393C688.797 274.385 688.793 274.376 688.789 274.367L684.206 276.366ZM677.743 268.341L674.995 272.518L677.743 268.341ZM658.283 268.341L661.032 272.518L658.283 268.341ZM651.856 276.366L656.439 278.366C656.442 278.357 656.446 278.348 656.45 278.34L651.856 276.366ZM673.34 273.284H660.272V283.284H673.34V273.284ZM664.219 275.216L657.65 266.764L649.755 272.901L656.324 281.353L664.219 275.216ZM657.496 266.575L651.033 259.047L643.445 265.561L649.908 273.089L657.496 266.575ZM651.148 259.186L638.968 243.916L631.15 250.152L643.33 265.422L651.148 259.186ZM635.059 252.034H649.405V242.034H635.059V252.034ZM645.527 250.19L653.908 260.488L661.664 254.176L653.283 243.878L645.527 250.19ZM653.697 260.209L657.993 266.317L666.172 260.563L661.875 254.456L653.697 260.209ZM658.099 266.462L669.356 281.305L677.324 275.263L666.067 260.419L658.099 266.462ZM638.958 289.364C638.958 282.056 640.343 276.17 642.867 271.499L634.069 266.745C630.58 273.201 628.958 280.81 628.958 289.364H638.958ZM642.874 271.485C645.442 266.697 648.866 263.16 653.156 260.72L648.212 252.027C642.179 255.459 637.46 260.421 634.061 266.759L642.874 271.485ZM653.149 260.723C657.471 258.274 662.385 257.006 668.013 257.006V247.006C660.81 247.006 654.172 248.649 648.218 252.024L653.149 260.723ZM668.013 257.006C673.689 257.006 678.62 258.286 682.933 260.75L687.895 252.068C681.933 248.661 675.264 247.006 668.013 247.006V257.006ZM682.933 260.75C687.2 263.189 690.617 266.726 693.188 271.52L702.001 266.795C698.605 260.462 693.902 255.501 687.895 252.068L682.933 260.75ZM693.188 271.52C695.695 276.196 697.069 282.077 697.069 289.364H707.069C707.069 280.836 705.46 273.246 702.001 266.795L693.188 271.52ZM697.069 289.364C697.069 296.677 695.694 302.569 693.188 307.242L702.001 311.968C705.461 305.515 707.069 297.912 707.069 289.364H697.069ZM693.188 307.242C690.619 312.033 687.207 315.555 682.948 317.968L687.879 326.668C693.896 323.258 698.604 318.304 702.001 311.968L693.188 307.242ZM682.933 317.977C678.62 320.442 673.689 321.722 668.013 321.722V331.722C675.264 331.722 681.933 330.066 687.895 326.659L682.933 317.977ZM668.013 321.722C662.392 321.722 657.483 320.445 653.164 317.977L648.203 326.659C654.159 330.063 660.803 331.722 668.013 331.722V321.722ZM653.141 317.964C648.86 315.548 645.44 312.028 642.874 307.242L634.061 311.968C637.462 318.31 642.186 323.264 648.227 326.673L653.141 317.964ZM642.867 307.228C640.343 302.557 638.958 296.672 638.958 289.364H628.958C628.958 297.917 630.58 305.526 634.069 311.982L642.867 307.228ZM644.547 289.364C644.547 294.971 645.383 300.029 647.273 304.36L656.439 300.362C655.25 297.638 654.547 294.031 654.547 289.364H644.547ZM647.262 304.334C649.1 308.615 651.824 312.121 655.534 314.563L661.032 306.21C659.202 305.006 657.641 303.161 656.45 300.387L647.262 304.334ZM655.534 314.563C659.217 316.987 663.442 318.121 668.013 318.121V308.121C665.151 308.121 662.889 307.432 661.032 306.21L655.534 314.563ZM668.013 318.121C672.585 318.121 676.81 316.987 680.492 314.563L674.995 306.21C673.137 307.432 670.875 308.121 668.013 308.121V318.121ZM680.492 314.563C684.195 312.126 686.927 308.63 688.789 304.36L679.624 300.362C678.409 303.147 676.832 305.001 674.995 306.21L680.492 314.563ZM688.801 304.334C690.658 300.011 691.479 294.962 691.479 289.364H681.479C681.479 294.039 680.786 297.656 679.612 300.387L688.801 304.334ZM691.479 289.364C691.479 283.765 690.658 278.717 688.801 274.393L679.612 278.34C680.786 281.071 681.479 284.688 681.479 289.364H691.479ZM688.789 274.367C686.927 270.097 684.195 266.601 680.492 264.164L674.995 272.518C676.832 273.727 678.409 275.581 679.624 278.366L688.789 274.367ZM680.492 264.164C676.81 261.741 672.585 260.607 668.013 260.607V270.607C670.875 270.607 673.137 271.295 674.995 272.518L680.492 264.164ZM668.013 260.607C663.442 260.607 659.217 261.741 655.534 264.164L661.032 272.518C662.889 271.295 665.151 270.607 668.013 270.607V260.607ZM655.534 264.164C651.824 266.606 649.1 270.112 647.262 274.393L656.45 278.34C657.641 275.566 659.202 273.722 661.032 272.518L655.534 264.164ZM647.273 274.367C645.383 278.699 644.547 283.757 644.547 289.364H654.547C654.547 284.696 655.25 281.089 656.439 278.366L647.273 274.367Z" fill="#A65A24"/>
<path d="M221.124 271.041C214.048 239.049 187.257 221.808 167.747 217.238C158.594 215.095 146.99 215.098 145.478 215.099H145.429C144.143 215.099 142.857 214.857 143.286 215.714C143.714 216.571 144.429 216.429 142.857 217L136.023 216.497L122.391 236.165L101.446 251.199L89.8155 265.698L81.9672 285.744L80.7064 308.47L85.5446 325.112L95.7411 342.29L111.627 353.7C111.627 353.7 144.139 374.329 179.787 357.198C215.435 340.068 228.2 303.033 221.124 271.041Z" fill="#EF76EF"/>
<path d="M76.1826 311.117C73.6834 302.906 73.0149 301.157 72.9991 289.369C72.9991 275.863 78.0264 261.16 81.336 256.92C84.6455 252.681 103.652 231.863 103.652 231.863L130.206 220.326L162.32 221.866L166.182 221.375L172.961 227.196L189.321 235.96L204.182 254.288L212.393 282.734L208.764 299.659L208.885 306.636L206.637 309.582L204.497 319.565L184.75 344.37L154.571 354.015L122.799 345.001L107.938 332.677L99.3964 319.407L94.4952 299.487L101.603 274.366L116.149 257.298L137.96 248.284L161.347 251.767L172.726 261.097L176.918 268.415L180.332 271.326L180.687 274.995L183.947 280.686L182.356 292.223L183.044 299.326L175.088 307.989L166.879 318.446L165.032 318.937L163.394 320.721L160.442 320.16L147.29 323.662L129.434 316.712L126.436 305.927L120.346 302.061L128.919 285.463L128.961 285.256L129.032 285.246L129.806 283.747L142.072 276.838L150.923 279.412C150.923 279.412 150.426 284.435 149.504 285.958C149.019 286.76 148.888 286.69 148.452 286.457C148.059 286.247 147.418 285.904 146.047 285.948C142.814 286.055 136.724 289.757 138.539 297.596C140.581 306.458 149.564 308.264 156.408 306.603C162.806 305.04 174.831 291.742 165.517 276.693C155.058 259.792 132.398 262.659 120.31 273.839C108.222 285.018 103.616 308.553 124.285 325.719C142.43 340.787 163.601 337.793 182.173 322.137C200.813 306.43 205.237 264.992 174.225 244.736C142.676 224.118 114.304 241.359 103.646 251.728C90.311 264.695 83.9516 277.505 81.9991 296.714C80.6836 309.604 86.8448 326.864 91.0442 333.623C94.7089 339.522 99.5522 344.029 101.204 345.566C101.445 345.79 101.618 345.951 101.709 346.044C102.428 346.774 102.215 348.1 101.395 347.751C99.1926 346.824 81.239 327.732 76.1826 311.117Z" fill="#FF8B37"/>
<path d="M82.739 253.879C82.2031 254.903 80.8163 257.157 81.4309 257.409C82.0455 257.677 85.9224 251.72 89.6732 247.843C94.401 242.957 104.913 227.371 134.809 223.526C164.704 219.665 186.437 236.653 197.5 252.602C206.562 265.667 219.816 303.269 189.479 331.211C154.067 363.802 113.502 342.274 103.148 320.542C94.6532 302.702 98.6246 267.479 126.614 255.596C159.252 241.744 178.92 270.127 178.731 286.138C178.494 306.279 164.058 320.368 148.519 318.777C125.589 316.413 127.543 295.846 130.412 290.788C133.422 285.477 138.638 282.797 143.208 285.587C145.667 287.084 142.61 295.184 148.204 296.587C153.799 297.99 159.315 294.917 156.699 285.13C154.508 276.935 146.36 275.107 141.869 275.17C135.786 275.264 118.529 278.984 120.215 302.182C121.949 326.231 153.2 334.316 171.796 318.714C190.393 303.112 192.993 271.183 168.802 253.185C144.611 235.188 105.89 246.267 94.6847 280.465C83.4796 314.663 102.943 352.77 146.534 355.969C190.125 359.168 217.483 319.722 215.718 284.878C214.19 254.509 195.987 229.388 164.799 219.397C133.611 209.405 112.288 222.501 108.222 225.196C100.973 230.003 91.5328 240.972 87.7032 246.393C85.355 249.687 83.259 252.87 82.739 253.879Z" fill="#F45353"/>
<path d="M212.27 245V258.295L181.205 287.06C178.562 289.616 176.347 291.918 174.557 293.963C172.739 296.009 171.361 298.011 170.423 299.972C169.486 301.96 169.017 304.105 169.017 306.406C169.017 308.963 169.599 311.165 170.764 313.011C171.929 314.886 173.52 316.321 175.537 317.315C177.554 318.338 179.841 318.849 182.398 318.849C185.068 318.849 187.398 318.31 189.386 317.23C191.375 316.151 192.909 314.602 193.989 312.585C195.068 310.568 195.608 308.168 195.608 305.384H213.122C213.122 311.094 211.83 316.051 209.244 320.256C206.659 324.46 203.037 327.713 198.378 330.014C193.719 332.315 188.349 333.466 182.27 333.466C176.02 333.466 170.58 332.358 165.949 330.142C161.29 327.955 157.668 324.915 155.082 321.023C152.497 317.131 151.205 312.67 151.205 307.642C151.205 304.347 151.858 301.094 153.165 297.884C154.443 294.673 156.73 291.108 160.026 287.188C163.321 283.295 167.966 278.622 173.96 273.168L186.702 260.682V260.085H150.054V245H212.27ZM116.425 243.807C122.789 243.807 128.457 244.901 133.428 247.088C138.371 249.304 142.278 252.344 145.147 256.207C147.988 260.099 149.451 264.588 149.536 269.673H130.957C130.843 267.543 130.147 265.668 128.869 264.048C127.562 262.457 125.829 261.222 123.67 260.341C121.511 259.46 119.082 259.02 116.383 259.02C113.57 259.02 111.085 259.517 108.925 260.511C106.766 261.506 105.076 262.884 103.854 264.645C102.633 266.406 102.022 268.438 102.022 270.739C102.022 273.068 102.675 275.128 103.982 276.918C105.261 278.736 107.107 280.156 109.522 281.179C111.908 282.202 114.749 282.713 118.045 282.713H126.184V296.264H118.045C115.261 296.264 112.803 296.747 110.673 297.713C108.513 298.679 106.837 300.014 105.644 301.719C104.451 303.452 103.854 305.469 103.854 307.77C103.854 309.957 104.38 311.875 105.431 313.523C106.454 315.199 107.903 316.506 109.778 317.443C111.624 318.381 113.783 318.849 116.255 318.849C118.755 318.849 121.042 318.395 123.116 317.486C125.19 316.605 126.852 315.341 128.102 313.693C129.352 312.045 130.019 310.114 130.104 307.898H147.789C147.704 312.926 146.269 317.358 143.485 321.193C140.701 325.028 136.951 328.026 132.235 330.185C127.491 332.372 122.136 333.466 116.17 333.466C110.147 333.466 104.877 332.372 100.36 330.185C95.843 327.997 92.3345 325.043 89.8345 321.321C87.3061 317.628 86.0561 313.48 86.0845 308.878C86.0561 303.991 87.576 299.915 90.6442 296.648C93.6839 293.381 97.647 291.307 102.533 290.426V289.744C96.1129 288.92 91.2266 286.69 87.8743 283.054C84.4936 279.446 82.8175 274.929 82.8459 269.503C82.8175 264.531 84.2521 260.114 87.1499 256.25C90.0192 252.386 93.9822 249.347 99.0391 247.131C104.096 244.915 109.891 243.807 116.425 243.807Z" fill="white"/>
<path d="M212.27 245H217.27C217.27 242.239 215.031 240 212.27 240V245ZM212.27 258.295L215.667 261.964C216.689 261.018 217.27 259.688 217.27 258.295H212.27ZM181.205 287.06L177.808 283.391C177.781 283.416 177.754 283.441 177.727 283.467L181.205 287.06ZM174.557 293.963L178.294 297.285C178.303 297.275 178.311 297.265 178.32 297.256L174.557 293.963ZM170.423 299.972L165.913 297.814C165.909 297.823 165.905 297.831 165.901 297.839L170.423 299.972ZM170.764 313.011L175.011 310.373C175.005 310.363 174.999 310.354 174.993 310.344L170.764 313.011ZM175.537 317.315L177.798 312.856C177.781 312.847 177.765 312.839 177.748 312.831L175.537 317.315ZM193.989 312.585L189.58 310.226H189.58L193.989 312.585ZM195.608 305.384V300.384C192.847 300.384 190.608 302.622 190.608 305.384H195.608ZM213.122 305.384H218.122C218.122 302.622 215.884 300.384 213.122 300.384V305.384ZM209.244 320.256L204.985 317.637L209.244 320.256ZM198.378 330.014L200.592 334.497L200.592 334.497L198.378 330.014ZM165.949 330.142L168.107 325.632C168.096 325.627 168.085 325.621 168.074 325.616L165.949 330.142ZM155.082 321.023L159.247 318.256V318.256L155.082 321.023ZM153.165 297.884L157.796 299.769C157.801 299.757 157.805 299.745 157.81 299.733L153.165 297.884ZM160.026 287.188L156.21 283.957C156.206 283.961 156.202 283.966 156.198 283.97L160.026 287.188ZM173.96 273.168L177.325 276.866C177.371 276.824 177.416 276.782 177.46 276.739L173.96 273.168ZM186.702 260.682L190.201 264.253C191.161 263.313 191.702 262.025 191.702 260.682H186.702ZM186.702 260.085H191.702C191.702 257.324 189.463 255.085 186.702 255.085V260.085ZM150.054 260.085H145.054C145.054 262.847 147.293 265.085 150.054 265.085V260.085ZM150.054 245V240C147.293 240 145.054 242.239 145.054 245H150.054ZM207.27 245V258.295H217.27V245H207.27ZM208.873 254.627L177.808 283.391L184.602 290.728L215.667 261.964L208.873 254.627ZM177.727 283.467C175.018 286.089 172.7 288.492 170.794 290.671L178.32 297.256C179.993 295.343 182.107 293.144 184.682 290.653L177.727 283.467ZM170.82 290.641C168.767 292.95 167.097 295.339 165.913 297.814L174.934 302.129C175.625 300.684 176.71 299.067 178.294 297.285L170.82 290.641ZM165.901 297.839C164.634 300.526 164.017 303.403 164.017 306.406H174.017C174.017 304.807 174.337 303.394 174.946 302.104L165.901 297.839ZM164.017 306.406C164.017 309.743 164.786 312.905 166.535 315.679L174.993 310.344C174.413 309.424 174.017 308.183 174.017 306.406H164.017ZM166.517 315.65C168.184 318.334 170.488 320.401 173.326 321.8L177.748 312.831C176.552 312.241 175.674 311.439 175.011 310.373L166.517 315.65ZM173.276 321.775C176.08 323.197 179.159 323.849 182.398 323.849V313.849C180.523 313.849 179.028 313.479 177.798 312.856L173.276 321.775ZM182.398 323.849C185.751 323.849 188.929 323.167 191.772 321.624L187.001 312.836C185.866 313.452 184.385 313.849 182.398 313.849V323.849ZM191.772 321.624C194.629 320.073 196.862 317.813 198.397 314.945L189.58 310.226C188.956 311.392 188.121 312.228 187.001 312.836L191.772 321.624ZM198.397 314.945C199.941 312.06 200.608 308.814 200.608 305.384H190.608C190.608 307.521 190.196 309.076 189.58 310.226L198.397 314.945ZM195.608 310.384H213.122V300.384H195.608V310.384ZM208.122 305.384C208.122 310.317 207.014 314.337 204.985 317.637L213.504 322.875C216.645 317.765 218.122 311.871 218.122 305.384H208.122ZM204.985 317.637C202.919 320.997 200.026 323.624 196.164 325.531L200.592 334.497C206.048 331.803 210.399 327.924 213.504 322.875L204.985 317.637ZM196.164 325.531C192.301 327.439 187.712 328.466 182.27 328.466V338.466C188.987 338.466 195.137 337.192 200.592 334.497L196.164 325.531ZM182.27 328.466C176.607 328.466 171.934 327.463 168.107 325.632L163.791 334.652C169.226 337.253 175.432 338.466 182.27 338.466V328.466ZM168.074 325.616C164.156 323.777 161.276 321.31 159.247 318.256L150.917 323.789C154.059 328.519 158.423 332.132 163.824 334.668L168.074 325.616ZM159.247 318.256C157.249 315.247 156.205 311.765 156.205 307.642H146.205C146.205 313.576 147.746 319.014 150.917 323.789L159.247 318.256ZM156.205 307.642C156.205 305.026 156.72 302.412 157.796 299.769L148.534 295.998C146.996 299.776 146.205 303.667 146.205 307.642H156.205ZM157.81 299.733C158.82 297.197 160.752 294.094 163.853 290.405L156.198 283.97C152.708 288.122 150.066 292.149 148.52 296.034L157.81 299.733ZM163.841 290.418C166.94 286.759 171.41 282.249 177.325 276.866L170.595 269.469C164.522 274.996 159.702 279.832 156.21 283.957L163.841 290.418ZM177.46 276.739L190.201 264.253L183.202 257.111L170.461 269.596L177.46 276.739ZM191.702 260.682V260.085H181.702V260.682H191.702ZM186.702 255.085H150.054V265.085H186.702V255.085ZM155.054 260.085V245H145.054V260.085H155.054ZM150.054 250H212.27V240H150.054V250ZM133.428 247.088L135.474 242.526C135.463 242.521 135.453 242.516 135.442 242.511L133.428 247.088ZM145.147 256.207L149.186 253.26C149.177 253.248 149.169 253.237 149.161 253.226L145.147 256.207ZM149.536 269.673V274.673C150.877 274.673 152.161 274.135 153.101 273.179C154.041 272.223 154.558 270.93 154.536 269.59L149.536 269.673ZM130.957 269.673L125.964 269.94C126.105 272.594 128.299 274.673 130.957 274.673V269.673ZM128.869 264.048L132.793 260.95C132.773 260.925 132.753 260.9 132.732 260.875L128.869 264.048ZM123.67 260.341L125.558 255.711H125.558L123.67 260.341ZM108.925 260.511L111.017 265.053L108.925 260.511ZM103.854 264.645L99.7458 261.795V261.795L103.854 264.645ZM103.982 276.918L108.072 274.042C108.055 274.017 108.038 273.993 108.02 273.969L103.982 276.918ZM109.522 281.179L111.492 276.583C111.485 276.58 111.479 276.578 111.472 276.575L109.522 281.179ZM126.184 282.713H131.184C131.184 279.952 128.945 277.713 126.184 277.713V282.713ZM126.184 296.264V301.264C128.945 301.264 131.184 299.026 131.184 296.264H126.184ZM110.673 297.713L112.714 302.277C112.722 302.274 112.729 302.27 112.737 302.267L110.673 297.713ZM105.644 301.719L101.548 298.851C101.541 298.862 101.533 298.873 101.526 298.883L105.644 301.719ZM105.431 313.523L109.699 310.918C109.682 310.89 109.664 310.862 109.646 310.834L105.431 313.523ZM109.778 317.443L112.041 312.985C112.032 312.98 112.023 312.976 112.014 312.971L109.778 317.443ZM123.116 317.486L121.161 312.884C121.144 312.891 121.126 312.899 121.108 312.906L123.116 317.486ZM128.102 313.693L124.118 310.671L124.118 310.671L128.102 313.693ZM130.104 307.898V302.898C127.418 302.898 125.211 305.021 125.108 307.706L130.104 307.898ZM147.789 307.898L152.788 307.982C152.811 306.642 152.294 305.348 151.354 304.392C150.414 303.436 149.13 302.898 147.789 302.898V307.898ZM143.485 321.193L139.439 318.256L143.485 321.193ZM132.235 330.185L130.154 325.638L130.142 325.644L132.235 330.185ZM100.36 330.185L98.1808 334.685L100.36 330.185ZM89.8345 321.321L93.985 318.533C93.9768 318.521 93.9686 318.509 93.9603 318.496L89.8345 321.321ZM86.0845 308.878L91.0844 308.909C91.0845 308.889 91.0845 308.869 91.0844 308.849L86.0845 308.878ZM90.6442 296.648L94.2889 300.071C94.2942 300.065 94.2995 300.059 94.3047 300.054L90.6442 296.648ZM102.533 290.426L103.42 295.347C105.801 294.918 107.533 292.845 107.533 290.426H102.533ZM102.533 289.744H107.533C107.533 287.229 105.665 285.105 103.17 284.785L102.533 289.744ZM87.8743 283.054L91.5505 279.665C91.5413 279.655 91.5321 279.645 91.5229 279.635L87.8743 283.054ZM82.8459 269.503L87.8458 269.529C87.8459 269.511 87.8459 269.493 87.8458 269.474L82.8459 269.503ZM87.1499 256.25L91.1499 259.25C91.1546 259.244 91.1593 259.237 91.164 259.231L87.1499 256.25ZM99.0391 247.131L101.046 251.71L99.0391 247.131ZM116.425 248.807C122.213 248.807 127.177 249.8 131.415 251.665L135.442 242.511C129.736 240.001 123.365 238.807 116.425 238.807V248.807ZM131.383 251.651C135.645 253.561 138.835 256.095 141.133 259.188L149.161 253.226C145.72 248.593 141.098 245.047 135.474 242.526L131.383 251.651ZM141.108 259.155C143.307 262.167 144.468 265.642 144.537 269.757L154.536 269.59C154.434 263.534 152.669 258.032 149.186 253.26L141.108 259.155ZM149.536 264.673H130.957V274.673H149.536V264.673ZM135.95 269.407C135.783 266.282 134.735 263.409 132.793 260.95L124.944 267.147C125.559 267.926 125.903 268.803 125.964 269.94L135.95 269.407ZM132.732 260.875C130.832 258.561 128.383 256.864 125.558 255.711L121.781 264.971C123.275 265.58 124.292 266.354 125.005 267.222L132.732 260.875ZM125.558 255.711C122.713 254.551 119.628 254.02 116.383 254.02V264.02C118.535 264.02 120.309 264.37 121.781 264.971L125.558 255.711ZM116.383 254.02C112.979 254.02 109.758 254.623 106.834 255.97L111.017 265.053C112.411 264.411 114.162 264.02 116.383 264.02V254.02ZM106.834 255.97C103.954 257.296 101.531 259.222 99.7458 261.795L107.963 267.494C108.621 266.545 109.579 265.715 111.017 265.053L106.834 255.97ZM99.7458 261.795C97.9004 264.456 97.022 267.498 97.022 270.739H107.022C107.022 269.377 107.365 268.356 107.963 267.494L99.7458 261.795ZM97.022 270.739C97.022 274.07 97.979 277.175 99.9441 279.866L108.02 273.969C107.372 273.081 107.022 272.066 107.022 270.739H97.022ZM99.8921 279.794C101.799 282.505 104.453 284.462 107.572 285.783L111.472 276.575C109.761 275.85 108.723 274.967 108.072 274.042L99.8921 279.794ZM107.552 285.775C110.704 287.126 114.248 287.713 118.045 287.713V277.713C115.251 277.713 113.112 277.278 111.492 276.583L107.552 285.775ZM118.045 287.713H126.184V277.713H118.045V287.713ZM121.184 282.713V296.264H131.184V282.713H121.184ZM126.184 291.264H118.045V301.264H126.184V291.264ZM118.045 291.264C114.682 291.264 111.499 291.849 108.608 293.159L112.737 302.267C114.108 301.646 115.839 301.264 118.045 301.264V291.264ZM108.631 293.149C105.761 294.433 103.328 296.309 101.548 298.851L109.74 304.586C110.347 303.72 111.266 302.925 112.714 302.277L108.631 293.149ZM101.526 298.883C99.7046 301.528 98.8544 304.555 98.8544 307.77H108.854C108.854 306.382 109.197 305.375 109.762 304.554L101.526 298.883ZM98.8544 307.77C98.8544 310.793 99.5926 313.667 101.216 316.212L109.646 310.834C109.167 310.083 108.854 309.122 108.854 307.77H98.8544ZM101.163 316.127C102.708 318.659 104.887 320.588 107.542 321.915L112.014 312.971C110.919 312.424 110.2 311.739 109.699 310.918L101.163 316.127ZM107.514 321.902C110.186 323.258 113.148 323.849 116.255 323.849V313.849C114.419 313.849 113.063 313.504 112.041 312.985L107.514 321.902ZM116.255 323.849C119.374 323.849 122.353 323.279 125.123 322.065L121.108 312.906C119.73 313.51 118.136 313.849 116.255 313.849V323.849ZM125.07 322.088C127.873 320.898 130.262 319.119 132.085 316.715L124.118 310.671C123.442 311.563 122.507 312.312 121.161 312.884L125.07 322.088ZM132.085 316.715C134 314.19 134.979 311.253 135.101 308.09L125.108 307.706C125.059 308.975 124.703 309.901 124.118 310.671L132.085 316.715ZM130.104 312.898H147.789V302.898H130.104V312.898ZM142.79 307.813C142.721 311.882 141.582 315.303 139.439 318.256L147.531 324.13C150.956 319.413 152.687 313.971 152.788 307.982L142.79 307.813ZM139.439 318.256C137.207 321.33 134.163 323.803 130.154 325.638L134.316 334.731C139.739 332.248 144.195 328.727 147.531 324.13L139.439 318.256ZM130.142 325.644C126.141 327.489 121.515 328.466 116.17 328.466V338.466C122.756 338.466 128.841 337.256 134.329 334.725L130.142 325.644ZM116.17 328.466C110.753 328.466 106.255 327.484 102.539 325.685L98.1808 334.685C103.5 337.261 109.541 338.466 116.17 338.466V328.466ZM102.539 325.685C98.722 323.836 95.9341 321.434 93.985 318.533L85.684 324.109C88.7349 328.651 92.9641 332.158 98.1808 334.685L102.539 325.685ZM93.9603 318.496C92.0244 315.669 91.0621 312.523 91.0844 308.909L81.0846 308.847C81.0501 314.437 82.5878 319.587 85.7088 324.146L93.9603 318.496ZM91.0844 308.849C91.0627 305.118 92.1811 302.315 94.2889 300.071L86.9995 293.225C82.9709 297.515 81.0495 302.865 81.0846 308.907L91.0844 308.849ZM94.3047 300.054C96.5253 297.667 99.4718 296.058 103.42 295.347L101.647 285.505C95.8222 286.555 90.8426 289.094 86.9836 293.242L94.3047 300.054ZM107.533 290.426V289.744H97.5334V290.426H107.533ZM103.17 284.785C97.5505 284.064 93.8874 282.2 91.5505 279.665L84.1981 286.443C88.5657 291.181 94.6753 293.777 101.897 294.704L103.17 284.785ZM91.5229 279.635C89.1053 277.055 87.8234 273.812 87.8458 269.529L77.8459 269.477C77.8116 276.046 79.8819 281.837 84.2257 286.473L91.5229 279.635ZM87.8458 269.474C87.8234 265.56 88.9276 262.213 91.1499 259.25L83.1499 253.25C79.5767 258.014 77.8115 263.503 77.846 269.531L87.8458 269.474ZM91.164 259.231C93.4424 256.163 96.6669 253.629 101.046 251.71L97.0323 242.551C91.2976 245.064 86.596 248.61 83.1357 253.269L91.164 259.231ZM101.046 251.71C105.365 249.818 110.457 248.807 116.425 248.807V238.807C109.325 238.807 102.827 240.012 97.0323 242.551L101.046 251.71Z" fill="#8F3B21"/>
<path d="M203.591 193.281V211.257H197.987V208.999H200.664V195.547H197.987V193.281H203.591ZM190.641 194.68C191.863 194.685 192.914 194.986 193.795 195.582C194.671 196.179 195.345 197.043 195.819 198.175C196.288 199.306 196.52 200.668 196.515 202.259C196.515 203.845 196.281 205.196 195.812 206.314C195.338 207.431 194.664 208.281 193.788 208.864C192.907 209.451 191.858 209.744 190.641 209.744C189.424 209.744 188.378 209.451 187.502 208.864C186.621 208.277 185.944 207.424 185.471 206.307C184.997 205.194 184.763 203.845 184.768 202.259C184.768 200.663 185.004 199.299 185.478 198.168C185.947 197.036 186.619 196.172 187.495 195.575C188.371 194.979 189.42 194.68 190.641 194.68ZM190.641 197.23C189.808 197.23 189.143 197.649 188.646 198.487C188.148 199.325 187.902 200.582 187.907 202.259C187.907 203.362 188.021 204.28 188.248 205.014C188.47 205.748 188.788 206.3 189.2 206.669C189.607 207.038 190.087 207.223 190.641 207.223C191.47 207.223 192.133 206.809 192.63 205.98C193.127 205.152 193.378 203.911 193.383 202.259C193.383 201.141 193.272 200.208 193.049 199.46C192.822 198.717 192.502 198.158 192.09 197.784C191.678 197.415 191.195 197.23 190.641 197.23ZM181.364 194.815C181.833 194.815 182.235 194.981 182.571 195.312C182.903 195.649 183.069 196.051 183.069 196.52C183.069 196.984 182.903 197.382 182.571 197.713C182.235 198.045 181.833 198.21 181.364 198.21C180.909 198.21 180.512 198.045 180.171 197.713C179.83 197.382 179.659 196.984 179.659 196.52C179.659 196.207 179.74 195.921 179.901 195.661C180.057 195.405 180.263 195.199 180.519 195.043C180.775 194.891 181.056 194.815 181.364 194.815ZM175.407 194.815C175.876 194.815 176.278 194.981 176.614 195.312C176.946 195.649 177.112 196.051 177.112 196.52C177.112 196.984 176.946 197.382 176.614 197.713C176.278 198.045 175.876 198.21 175.407 198.21C174.952 198.21 174.555 198.045 174.214 197.713C173.873 197.382 173.702 196.984 173.702 196.52C173.702 196.207 173.783 195.921 173.944 195.661C174.1 195.405 174.306 195.199 174.562 195.043C174.817 194.891 175.099 194.815 175.407 194.815ZM171.247 195V197.216L166.069 202.01C165.629 202.436 165.26 202.82 164.961 203.161C164.658 203.501 164.429 203.835 164.272 204.162C164.116 204.493 164.038 204.851 164.038 205.234C164.038 205.661 164.135 206.027 164.329 206.335C164.523 206.648 164.788 206.887 165.125 207.053C165.461 207.223 165.842 207.308 166.268 207.308C166.713 207.308 167.101 207.218 167.433 207.038C167.764 206.858 168.02 206.6 168.2 206.264C168.38 205.928 168.47 205.528 168.47 205.064H171.389C171.389 206.016 171.173 206.842 170.743 207.543C170.312 208.243 169.708 208.786 168.931 209.169C168.155 209.553 167.26 209.744 166.247 209.744C165.205 209.744 164.298 209.56 163.527 209.19C162.75 208.826 162.146 208.319 161.716 207.67C161.285 207.022 161.069 206.278 161.069 205.44C161.069 204.891 161.178 204.349 161.396 203.814C161.609 203.279 161.99 202.685 162.539 202.031C163.089 201.383 163.863 200.604 164.862 199.695L166.985 197.614V197.514H160.877V195H171.247ZM153.386 209.744C152.638 209.744 151.919 209.619 151.227 209.368C150.531 209.117 149.911 208.717 149.366 208.168C148.817 207.618 148.384 206.889 148.067 205.98C147.745 205.076 147.581 203.965 147.577 202.649C147.577 201.413 147.716 200.31 147.996 199.339C148.27 198.374 148.666 197.552 149.182 196.875C149.698 196.198 150.321 195.682 151.05 195.327C151.779 194.976 152.593 194.801 153.493 194.801C154.464 194.801 155.321 194.988 156.064 195.362C156.807 195.741 157.406 196.255 157.861 196.903C158.311 197.557 158.583 198.291 158.678 199.105H155.645C155.527 198.575 155.278 198.163 154.899 197.869C154.52 197.58 154.052 197.436 153.493 197.436C152.546 197.436 151.826 197.848 151.334 198.672C150.841 199.5 150.593 200.634 150.588 202.074H150.688C150.905 201.648 151.199 201.281 151.568 200.973C151.937 200.67 152.361 200.436 152.839 200.27C153.313 200.104 153.817 200.021 154.352 200.021C155.209 200.021 155.974 200.223 156.646 200.625C157.319 201.027 157.849 201.581 158.237 202.287C158.625 202.992 158.82 203.797 158.82 204.702C158.824 205.677 158.599 206.546 158.145 207.308C157.69 208.071 157.056 208.667 156.241 209.098C155.422 209.534 154.471 209.749 153.386 209.744ZM153.365 207.33C153.843 207.33 154.269 207.216 154.643 206.989C155.013 206.761 155.306 206.456 155.524 206.072C155.737 205.689 155.841 205.26 155.837 204.787C155.837 204.309 155.732 203.878 155.524 203.494C155.311 203.116 155.022 202.813 154.658 202.585C154.288 202.363 153.867 202.251 153.393 202.251C153.038 202.251 152.709 202.318 152.406 202.45C152.103 202.583 151.84 202.765 151.618 202.997C151.391 203.234 151.213 203.506 151.085 203.814C150.957 204.122 150.893 204.448 150.893 204.794C150.898 205.253 151.007 205.675 151.22 206.058C151.433 206.442 151.727 206.75 152.101 206.982C152.475 207.214 152.896 207.33 153.365 207.33ZM140.56 211.257V193.281H146.163V195.547H143.486V208.999H146.163V211.257H140.56ZM128.335 197.017L136.822 205.49L134.961 207.372L126.467 198.878L128.335 197.017ZM134.961 197.017L136.822 198.878L128.335 207.372L126.467 205.49L134.961 197.017ZM123.889 197.557V199.979L117.816 209.545H115.728V206.193H116.964L120.792 200.135V200.021H112.163V197.557H123.889ZM116.907 195V198.295L116.85 199.368V209.545H113.967V195H116.907Z" fill="#ABABAB"/>
<path d="M603 127C603 151.853 623.147 172 648 172H688C712.853 172 733 151.853 733 127V59H603V127Z" fill="white" stroke="#D9D9D9" stroke-width="4" stroke-linecap="round" stroke-linejoin="round" stroke-dasharray="0.01 10"/>
<path d="M83 144C83 168.853 103.147 189 128 189H168C192.853 189 213 168.853 213 144V59H83V144Z" fill="white" stroke="#D9D9D9" stroke-width="4" stroke-linecap="round" stroke-linejoin="round" stroke-dasharray="0.01 10"/>
<rect width="330" height="150" rx="20" transform="matrix(1 0 0 -1 243 354)" fill="white" stroke="#D9D9D9" stroke-width="4" stroke-linecap="round" stroke-linejoin="round" stroke-dasharray="0.01 10"/>
<path d="M83 59L213 59L408 59L603 59L733 59" stroke="#D9D9D9" stroke-width="4" stroke-linecap="round" stroke-linejoin="round" stroke-dasharray="0.01 10"/>
<path d="M408 -26L408 59" stroke="#D9D9D9" stroke-width="4" stroke-linejoin="round" stroke-dasharray="0.01 10"/>
<path d="M83 59L83 -301" stroke="#D9D9D9" stroke-width="4" stroke-linejoin="round" stroke-dasharray="0.01 10"/>
<path d="M733 59L733 -301" stroke="#D9D9D9" stroke-width="4" stroke-linejoin="round" stroke-dasharray="0.01 10"/>
<path d="M612.802 190.017L621.289 198.49L619.428 200.372L610.934 191.878L612.802 190.017ZM619.428 190.017L621.289 191.878L612.802 200.372L610.934 198.49L619.428 190.017ZM602.709 187.801C603.803 187.801 604.776 187.979 605.628 188.334C606.476 188.694 607.141 189.184 607.624 189.804C608.107 190.424 608.349 191.127 608.349 191.913C608.349 192.519 608.211 193.076 607.937 193.582C607.657 194.094 607.278 194.518 606.8 194.854C606.322 195.195 605.787 195.412 605.195 195.507L605.195 195.607C605.972 195.763 606.601 196.139 607.084 196.736C607.567 197.337 607.809 198.036 607.809 198.831C607.809 199.584 607.589 200.254 607.148 200.841C606.708 201.433 606.104 201.897 605.337 202.233C604.565 202.574 603.689 202.744 602.709 202.744C601.729 202.744 600.856 202.574 600.089 202.233C599.317 201.892 598.711 201.426 598.27 200.834C597.83 200.247 597.608 199.579 597.603 198.831C597.608 198.031 597.854 197.332 598.341 196.736C598.829 196.139 599.454 195.763 600.216 195.607L600.216 195.507C599.634 195.412 599.106 195.195 598.633 194.854C598.154 194.518 597.776 194.094 597.496 193.582C597.212 193.076 597.068 192.519 597.063 191.913C597.068 191.127 597.312 190.424 597.795 189.804C598.278 189.184 598.945 188.694 599.797 188.334C600.645 187.979 601.616 187.801 602.709 187.801ZM602.709 190.06C602.222 190.06 601.796 190.147 601.431 190.322C601.066 190.502 600.782 190.749 600.579 191.061C600.37 191.378 600.266 191.743 600.266 192.155C600.266 192.576 600.373 192.948 600.586 193.27C600.799 193.597 601.088 193.852 601.452 194.037C601.817 194.226 602.236 194.321 602.709 194.321C603.178 194.321 603.597 194.226 603.966 194.037C604.336 193.852 604.627 193.597 604.84 193.27C605.048 192.948 605.153 192.576 605.153 192.155C605.153 191.743 605.051 191.378 604.847 191.061C604.644 190.749 604.357 190.502 603.988 190.322C603.618 190.147 603.192 190.06 602.709 190.06ZM602.709 196.558C602.302 196.558 601.94 196.641 601.623 196.807C601.305 196.973 601.057 197.202 600.877 197.496C600.697 197.789 600.607 198.128 600.607 198.511C600.607 198.89 600.697 199.222 600.877 199.506C601.057 199.795 601.303 200.019 601.616 200.18C601.928 200.346 602.293 200.429 602.709 200.429C603.121 200.429 603.486 200.346 603.803 200.18C604.12 200.019 604.369 199.795 604.549 199.506C604.724 199.222 604.812 198.89 604.812 198.511C604.812 198.128 604.722 197.789 604.542 197.496C604.362 197.202 604.113 196.973 603.796 196.807C603.479 196.641 603.117 196.558 602.709 196.558Z" fill="#ABABAB"/>
<path d="M678.028 197.68C679.25 197.685 680.301 197.986 681.181 198.582C682.057 199.179 682.732 200.043 683.206 201.175C683.674 202.306 683.906 203.668 683.902 205.259C683.902 206.845 683.667 208.196 683.199 209.314C682.725 210.431 682.05 211.281 681.174 211.864C680.294 212.451 679.245 212.744 678.028 212.744C676.811 212.744 675.765 212.451 674.889 211.864C674.008 211.277 673.331 210.424 672.858 209.307C672.384 208.194 672.15 206.845 672.154 205.259C672.154 203.663 672.391 202.299 672.865 201.168C673.333 200.036 674.006 199.172 674.882 198.575C675.758 197.979 676.806 197.68 678.028 197.68ZM678.028 200.23C677.195 200.23 676.529 200.649 676.032 201.487C675.535 202.325 675.289 203.582 675.294 205.259C675.294 206.362 675.407 207.28 675.635 208.014C675.857 208.748 676.174 209.3 676.586 209.669C676.993 210.038 677.474 210.223 678.028 210.223C678.857 210.223 679.52 209.809 680.017 208.98C680.514 208.152 680.765 206.911 680.77 205.259C680.77 204.141 680.658 203.208 680.436 202.46C680.208 201.717 679.889 201.158 679.477 200.784C679.065 200.415 678.582 200.23 678.028 200.23ZM668.751 197.815C669.219 197.815 669.622 197.981 669.958 198.312C670.29 198.649 670.455 199.051 670.455 199.52C670.455 199.984 670.29 200.382 669.958 200.713C669.622 201.045 669.219 201.21 668.751 201.21C668.296 201.21 667.898 201.045 667.558 200.713C667.217 200.382 667.046 199.984 667.046 199.52C667.046 199.207 667.127 198.921 667.288 198.661C667.444 198.405 667.65 198.199 667.906 198.043C668.161 197.891 668.443 197.815 668.751 197.815ZM662.794 197.815C663.262 197.815 663.665 197.981 664.001 198.312C664.333 198.649 664.498 199.051 664.498 199.52C664.498 199.984 664.333 200.382 664.001 200.713C663.665 201.045 663.262 201.21 662.794 201.21C662.339 201.21 661.941 201.045 661.6 200.713C661.26 200.382 661.089 199.984 661.089 199.52C661.089 199.207 661.17 198.921 661.331 198.661C661.487 198.405 661.693 198.199 661.949 198.043C662.204 197.891 662.486 197.815 662.794 197.815ZM653.644 212.744C652.896 212.744 652.176 212.619 651.485 212.368C650.789 212.117 650.169 211.717 649.624 211.168C649.075 210.618 648.642 209.889 648.325 208.98C648.003 208.076 647.839 206.965 647.835 205.649C647.835 204.413 647.974 203.31 648.254 202.339C648.528 201.374 648.924 200.552 649.44 199.875C649.956 199.198 650.578 198.682 651.308 198.327C652.037 197.976 652.851 197.801 653.751 197.801C654.721 197.801 655.578 197.988 656.322 198.362C657.065 198.741 657.664 199.255 658.119 199.903C658.568 200.557 658.841 201.291 658.935 202.105L655.903 202.105C655.784 201.575 655.536 201.163 655.157 200.869C654.778 200.58 654.309 200.436 653.751 200.436C652.804 200.436 652.084 200.848 651.592 201.672C651.099 202.5 650.851 203.634 650.846 205.074L650.945 205.074C651.163 204.648 651.457 204.281 651.826 203.973C652.195 203.67 652.619 203.436 653.097 203.27C653.571 203.104 654.075 203.021 654.61 203.021C655.467 203.021 656.232 203.223 656.904 203.625C657.576 204.027 658.107 204.581 658.495 205.287C658.883 205.992 659.077 206.797 659.077 207.702C659.082 208.677 658.857 209.546 658.403 210.308C657.948 211.071 657.314 211.667 656.499 212.098C655.68 212.534 654.728 212.749 653.644 212.744ZM653.623 210.33C654.101 210.33 654.527 210.216 654.901 209.989C655.271 209.761 655.564 209.456 655.782 209.072C655.995 208.689 656.099 208.26 656.094 207.787C656.094 207.309 655.99 206.878 655.782 206.494C655.569 206.116 655.28 205.812 654.915 205.585C654.546 205.363 654.125 205.251 653.651 205.251C653.296 205.251 652.967 205.318 652.664 205.45C652.361 205.583 652.098 205.765 651.876 205.997C651.648 206.234 651.471 206.506 651.343 206.814C651.215 207.122 651.151 207.448 651.151 207.794C651.156 208.253 651.265 208.675 651.478 209.058C651.691 209.442 651.985 209.75 652.359 209.982C652.733 210.214 653.154 210.33 653.623 210.33ZM696.798 192.545L693.864 187.588L693.751 187.588L690.803 192.545L687.33 192.545L691.769 185.273L687.231 178L690.768 178L693.751 182.964L693.864 182.964L696.847 178L700.37 178L695.817 185.273L700.285 192.545L696.798 192.545ZM682.877 178L686.173 178L681.151 192.545L677.188 192.545L672.174 178L675.469 178L679.113 189.222L679.227 189.222L682.877 178ZM683.083 183.717L675.299 183.717L675.299 181.317L683.083 181.317L683.083 183.717ZM664.599 192.545L661.56 192.545L661.56 182.403C661.56 181.466 661.77 180.652 662.192 179.96C662.608 179.269 663.188 178.736 663.932 178.362C664.675 177.988 665.539 177.801 666.524 177.801C667.4 177.801 668.196 177.955 668.911 178.263C669.621 178.575 670.184 179.049 670.601 179.683C671.018 180.322 671.223 181.125 671.219 182.091L668.158 182.091C668.148 181.707 668.07 181.378 667.923 181.104C667.772 180.834 667.566 180.625 667.305 180.479C667.04 180.337 666.728 180.266 666.368 180.266C665.989 180.266 665.67 180.346 665.409 180.507C665.144 180.673 664.943 180.914 664.805 181.232C664.668 181.549 664.599 181.939 664.599 182.403L664.599 192.545ZM653.527 183.057L650.913 183.057L649.599 181.366L648.307 179.861L645.871 176.807L648.74 176.807L650.416 178.866L651.276 180.088L653.527 183.057ZM645.651 185.273C645.651 183.687 645.951 182.337 646.553 181.224C647.149 180.112 647.964 179.262 648.996 178.675C650.023 178.092 651.179 177.801 652.462 177.801C653.754 177.801 654.914 178.095 655.942 178.682C656.969 179.269 657.781 180.119 658.378 181.232C658.974 182.344 659.273 183.691 659.273 185.273C659.273 186.859 658.974 188.208 658.378 189.321C657.781 190.434 656.969 191.281 655.942 191.864C654.914 192.451 653.754 192.744 652.462 192.744C651.179 192.744 650.023 192.451 648.996 191.864C647.964 191.281 647.149 190.434 646.553 189.321C645.951 188.208 645.651 186.859 645.651 185.273ZM648.768 185.273C648.768 186.3 648.922 187.167 649.23 187.872C649.533 188.578 649.962 189.113 650.516 189.477C651.07 189.842 651.718 190.024 652.462 190.024C653.205 190.024 653.854 189.842 654.408 189.477C654.962 189.113 655.393 188.578 655.7 187.872C656.003 187.167 656.155 186.3 656.155 185.273C656.155 184.245 656.003 183.379 655.7 182.673C655.393 181.968 654.962 181.433 654.408 181.068C653.854 180.704 653.205 180.521 652.462 180.521C651.718 180.521 651.07 180.704 650.516 181.068C649.962 181.433 649.533 181.968 649.23 182.673C648.922 183.379 648.768 184.245 648.768 185.273ZM643.373 178L643.373 192.545L640.297 192.545L640.297 186.132L640.105 186.132L634.871 192.545L631.185 192.545L636.583 186.033L631.121 178L634.8 178L638.784 183.98L640.297 182.134L640.297 178L643.373 178Z" fill="#ABABAB"/>
<path d="M707 175.839L707 214L701.396 214L701.396 211.741L704.074 211.741L704.074 178.105L701.396 178.105L701.396 175.839L707 175.839Z" fill="#ABABAB"/>
<path d="M624.793 175.839L624.793 214L630.397 214L630.397 211.741L627.719 211.741L627.719 178.105L630.397 178.105L630.397 175.839L624.793 175.839Z" fill="#ABABAB"/>
<path d="M31 0H781" stroke="#D9D9D9" stroke-width="6"/>
<path d="M31 253H781" stroke="#D9D9D9" stroke-width="6"/>
</g>
<defs>
<filter id="filter0_d_296_7461" x="1" y="-419" width="810" height="1110" filterUnits="userSpaceOnUse" color-interpolation-filters="sRGB">
<feFlood flood-opacity="0" result="BackgroundImageFix"/>
<feColorMatrix in="SourceAlpha" type="matrix" values="0 0 0 0 0 0 0 0 0 0 0 0 0 0 0 0 0 0 127 0" result="hardAlpha"/>
<feOffset dy="10"/>
<feGaussianBlur stdDeviation="15"/>
<feComposite in2="hardAlpha" operator="out"/>
<feColorMatrix type="matrix" values="0 0 0 0 0 0 0 0 0 0 0 0 0 0 0 0 0 0 0.2 0"/>
<feBlend mode="normal" in2="BackgroundImageFix" result="effect1_dropShadow_296_7461"/>
<feBlend mode="normal" in="SourceGraphic" in2="effect1_dropShadow_296_7461" result="shape"/>
</filter>
<clipPath id="clip0_296_7461">
<rect width="811" height="253" fill="white"/>
</clipPath>
</defs>
</svg>
