<svg width="836" height="155" viewBox="0 0 836 155" fill="none" xmlns="http://www.w3.org/2000/svg">
<rect width="836" height="155" fill="white"/>
<path d="M26.7124 66V60.6818L39.1385 49.1761C40.1953 48.1534 41.0817 47.233 41.7976 46.4148C42.5249 45.5966 43.076 44.7955 43.451 44.0114C43.826 43.2159 44.0135 42.358 44.0135 41.4375C44.0135 40.4148 43.7805 39.5341 43.3146 38.7955C42.8487 38.0455 42.2124 37.4716 41.4055 37.0739C40.5987 36.6648 39.6839 36.4602 38.6612 36.4602C37.593 36.4602 36.6612 36.6761 35.8658 37.108C35.0703 37.5398 34.4567 38.1591 34.0249 38.9659C33.593 39.7727 33.3771 40.733 33.3771 41.8466H26.3714C26.3714 39.5625 26.8885 37.5795 27.9226 35.8977C28.9567 34.2159 30.4055 32.9148 32.2692 31.9943C34.1328 31.0739 36.2805 30.6136 38.7124 30.6136C41.2124 30.6136 43.3885 31.0568 45.2408 31.9432C47.1044 32.8182 48.5533 34.0341 49.5874 35.5909C50.6215 37.1477 51.1385 38.9318 51.1385 40.9432C51.1385 42.2614 50.8771 43.5625 50.3544 44.8466C49.843 46.1307 48.9283 47.5568 47.6101 49.125C46.2919 50.6818 44.4339 52.5511 42.0362 54.733L36.9396 59.7273V59.9659L51.5987 59.9659V66H26.7124Z" fill="#424242"/>
<rect x="35.0547" y="86.627" width="6" height="34" transform="rotate(-110 35.0547 86.627)" fill="#9C9C9C"/>
<path d="M61.3835 124.479C59.5881 124.468 57.8551 124.167 56.1847 123.576C54.5256 122.985 53.0369 122.025 51.7188 120.695C50.4006 119.366 49.3551 117.604 48.5824 115.411C47.821 113.218 47.4403 110.525 47.4403 107.331C47.4517 104.4 47.7869 101.78 48.446 99.4735C49.1165 97.1554 50.071 95.1895 51.3097 93.5758C52.5597 91.9622 54.054 90.7349 55.7926 89.894C57.5313 89.0417 59.4801 88.6156 61.6392 88.6156C63.9688 88.6156 66.0256 89.0701 67.8097 89.9792C69.5938 90.877 71.0256 92.0985 72.1051 93.644C73.196 95.1895 73.8551 96.9224 74.0824 98.8429H66.804C66.5199 97.627 65.9233 96.6724 65.0142 95.9792C64.1051 95.286 62.9801 94.9395 61.6392 94.9395C59.3665 94.9395 57.6392 95.9281 56.4574 97.9054C55.2869 99.8826 54.6903 102.57 54.6676 105.968H54.9062C55.429 104.934 56.1335 104.053 57.0199 103.326C57.9176 102.587 58.9347 102.025 60.071 101.638C61.2188 101.241 62.429 101.042 63.7017 101.042C65.7699 101.042 67.6108 101.53 69.2244 102.508C70.8381 103.474 72.1108 104.803 73.0426 106.496C73.9744 108.189 74.4403 110.127 74.4403 112.309C74.4403 114.672 73.8892 116.775 72.7869 118.616C71.696 120.456 70.1676 121.9 68.2017 122.945C66.2472 123.979 63.9744 124.491 61.3835 124.479ZM61.3494 118.684C62.4858 118.684 63.5028 118.411 64.4006 117.866C65.2983 117.32 66.0028 116.581 66.5142 115.65C67.0256 114.718 67.2812 113.672 67.2812 112.513C67.2812 111.354 67.0256 110.314 66.5142 109.394C66.0142 108.474 65.321 107.741 64.4347 107.195C63.5483 106.65 62.5369 106.377 61.4006 106.377C60.5483 106.377 59.7585 106.536 59.0313 106.854C58.3153 107.172 57.6847 107.616 57.1392 108.184C56.6051 108.752 56.1847 109.411 55.8778 110.161C55.571 110.9 55.4176 111.689 55.4176 112.53C55.4176 113.655 55.6733 114.684 56.1847 115.616C56.7074 116.547 57.4119 117.292 58.2983 117.849C59.196 118.405 60.2131 118.684 61.3494 118.684Z" fill="#9C9C9C"/>
<path d="M131.875 43L150 49L131.875 55L131.875 49L131.875 43Z" fill="black"/>
<path d="M75 49L131.875 49M150 49L131.875 43L131.875 49M150 49L131.875 55L131.875 49M150 49L131.875 49" stroke="black" stroke-width="5" stroke-linecap="round" stroke-linejoin="round"/>
<path d="M130.875 101L149 107L130.875 113L130.875 107L130.875 101Z" fill="black"/>
<path d="M91 107L130.875 107M149 107L130.875 101L130.875 107M149 107L130.875 113L130.875 107M149 107L130.875 107" stroke="black" stroke-width="5" stroke-linecap="round" stroke-linejoin="round"/>
<path d="M172.784 33.9091L179.815 56.0114H180.085L187.131 33.9091H193.949L183.92 63H175.994L165.952 33.9091H172.784ZM198.597 63H192.006L202.049 33.9091H209.975L220.004 63H213.413L206.126 40.5568H205.898L198.597 63ZM198.185 51.5653H213.754V56.3665H198.185V51.5653ZM223.505 63V33.9091H229.656V57.929H242.127V63H223.505ZM264.169 33.9091H270.32V52.8011C270.32 54.9223 269.813 56.7784 268.8 58.3693C267.796 59.9602 266.39 61.2008 264.581 62.0909C262.772 62.9716 260.665 63.4119 258.26 63.4119C255.845 63.4119 253.733 62.9716 251.925 62.0909C250.116 61.2008 248.71 59.9602 247.706 58.3693C246.702 56.7784 246.2 54.9223 246.2 52.8011V33.9091H252.351V52.2756C252.351 53.3835 252.592 54.3684 253.075 55.2301C253.568 56.0919 254.259 56.7689 255.149 57.2614C256.039 57.7538 257.076 58 258.26 58C259.453 58 260.49 57.7538 261.371 57.2614C262.261 56.7689 262.947 56.0919 263.43 55.2301C263.923 54.3684 264.169 53.3835 264.169 52.2756V33.9091ZM275.38 63V33.9091H294.982V38.9801H281.531V45.9119H293.974V50.983H281.531V57.929H295.039V63H275.38Z" fill="#FF8B37"/>
<path d="M166.42 96.9801V91.9091H190.312V96.9801H181.406V121H175.327V96.9801H166.42ZM219.652 106.455C219.652 109.627 219.051 112.326 217.848 114.551C216.655 116.777 215.026 118.476 212.962 119.651C210.907 120.815 208.596 121.398 206.03 121.398C203.445 121.398 201.125 120.811 199.07 119.636C197.015 118.462 195.391 116.762 194.197 114.537C193.004 112.312 192.408 109.617 192.408 106.455C192.408 103.282 193.004 100.583 194.197 98.358C195.391 96.1326 197.015 94.4375 199.07 93.2727C201.125 92.0985 203.445 91.5114 206.03 91.5114C208.596 91.5114 210.907 92.0985 212.962 93.2727C215.026 94.4375 216.655 96.1326 217.848 98.358C219.051 100.583 219.652 103.282 219.652 106.455ZM213.416 106.455C213.416 104.4 213.108 102.667 212.493 101.256C211.887 99.8447 211.03 98.7746 209.922 98.0455C208.814 97.3163 207.517 96.9517 206.03 96.9517C204.543 96.9517 203.246 97.3163 202.138 98.0455C201.03 98.7746 200.168 99.8447 199.553 101.256C198.946 102.667 198.643 104.4 198.643 106.455C198.643 108.509 198.946 110.242 199.553 111.653C200.168 113.064 201.03 114.134 202.138 114.864C203.246 115.593 204.543 115.957 206.03 115.957C207.517 115.957 208.814 115.593 209.922 114.864C211.03 114.134 211.887 113.064 212.493 111.653C213.108 110.242 213.416 108.509 213.416 106.455ZM221.772 96.9801V91.9091H245.664V96.9801H236.758V121H230.678V96.9801H221.772ZM251.058 121H244.467L254.51 91.9091H262.436L272.464 121H265.874L258.587 98.5568H258.359L251.058 121ZM250.646 109.565H266.214V114.366H250.646V109.565ZM275.966 121V91.9091H282.116V115.929H294.588V121H275.966Z" fill="#FF8B37"/>
<rect x="330" y="33" width="474" height="90" rx="17" stroke="#D9D9D9" stroke-width="6" stroke-linejoin="round"/>
<path d="M523.769 70.3821V65.8182H545.271V70.3821H537.256V92H531.784V70.3821H523.769ZM571.677 78.9091C571.677 81.7642 571.136 84.1932 570.053 86.196C568.98 88.1989 567.514 89.7287 565.656 90.7855C563.806 91.8338 561.727 92.358 559.417 92.358C557.09 92.358 555.002 91.8295 553.153 90.7727C551.303 89.7159 549.842 88.1861 548.768 86.1832C547.694 84.1804 547.157 81.7557 547.157 78.9091C547.157 76.054 547.694 73.625 548.768 71.6222C549.842 69.6193 551.303 68.0937 553.153 67.0455C555.002 65.9886 557.09 65.4602 559.417 65.4602C561.727 65.4602 563.806 65.9886 565.656 67.0455C567.514 68.0937 568.98 69.6193 570.053 71.6222C571.136 73.625 571.677 76.054 571.677 78.9091ZM566.065 78.9091C566.065 77.0597 565.788 75.5 565.234 74.2301C564.688 72.9602 563.917 71.9972 562.92 71.3409C561.923 70.6847 560.755 70.3565 559.417 70.3565C558.079 70.3565 556.911 70.6847 555.914 71.3409C554.917 71.9972 554.142 72.9602 553.588 74.2301C553.042 75.5 552.769 77.0597 552.769 78.9091C552.769 80.7585 553.042 82.3182 553.588 83.5881C554.142 84.858 554.917 85.821 555.914 86.4773C556.911 87.1335 558.079 87.4616 559.417 87.4616C560.755 87.4616 561.923 87.1335 562.92 86.4773C563.917 85.821 564.688 84.858 565.234 83.5881C565.788 82.3182 566.065 80.7585 566.065 78.9091ZM573.585 70.3821V65.8182H595.088V70.3821H587.072V92H581.601V70.3821H573.585ZM599.943 92H594.011L603.049 65.8182H610.183L619.208 92H613.276L606.718 71.8011H606.514L599.943 92ZM599.572 81.7088H613.583V86.0298H599.572V81.7088ZM622.36 92V65.8182H627.895V87.4361H639.119V92H622.36Z" fill="#ABABAB"/>
<path d="M681.451 65.8182L687.779 85.7102H688.022L694.363 65.8182H700.499L691.474 92H684.34L675.302 65.8182H681.451ZM704.683 92H698.751L707.789 65.8182H714.923L723.949 92H718.017L711.458 71.8011H711.254L704.683 92ZM704.312 81.7088H718.324V86.0298H704.312V81.7088ZM727.1 92V65.8182H732.635V87.4361H743.86V92H727.1ZM763.697 65.8182H769.233V82.821C769.233 84.7301 768.777 86.4006 767.865 87.8324C766.962 89.2642 765.696 90.3807 764.068 91.1818C762.44 91.9744 760.544 92.3707 758.379 92.3707C756.206 92.3707 754.305 91.9744 752.678 91.1818C751.05 90.3807 749.784 89.2642 748.881 87.8324C747.977 86.4006 747.526 84.7301 747.526 82.821V65.8182H753.061V82.348C753.061 83.3452 753.278 84.2315 753.713 85.0071C754.156 85.7827 754.778 86.392 755.58 86.8352C756.381 87.2784 757.314 87.5 758.379 87.5C759.453 87.5 760.386 87.2784 761.179 86.8352C761.98 86.392 762.598 85.7827 763.033 85.0071C763.476 84.2315 763.697 83.3452 763.697 82.348V65.8182ZM773.787 92V65.8182H791.429V70.3821H779.323V76.6207H790.522V81.1847H779.323V87.4361H791.48V92H773.787Z" fill="#ABABAB"/>
<path d="M648.666 79.5483V75.0099H666.321V79.5483H648.666ZM648.666 88.0369V83.4986H666.321V88.0369H648.666Z" fill="#ABABAB"/>
<path d="M502.19 87.0909V85.7102C502.19 84.6023 502.429 83.5795 502.906 82.642C503.392 81.7045 504.095 80.9503 505.016 80.3793C505.936 79.8082 507.057 79.5227 508.378 79.5227C509.733 79.5227 510.871 79.804 511.791 80.3665C512.72 80.929 513.423 81.679 513.901 82.6165C514.378 83.554 514.616 84.5852 514.616 85.7102V87.0909C514.616 88.1989 514.374 89.2216 513.888 90.1591C513.411 91.0966 512.707 91.8509 511.778 92.4219C510.849 92.9929 509.716 93.2784 508.378 93.2784C507.04 93.2784 505.911 92.9929 504.99 92.4219C504.07 91.8509 503.371 91.0966 502.893 90.1591C502.425 89.2216 502.19 88.1989 502.19 87.0909ZM506.639 85.7102V87.0909C506.639 87.5767 506.759 88.0582 506.997 88.5355C507.244 89.0043 507.705 89.2386 508.378 89.2386C509.085 89.2386 509.55 89.0085 509.771 88.5483C510.001 88.0881 510.116 87.6023 510.116 87.0909V85.7102C510.116 85.1989 510.01 84.7045 509.797 84.2273C509.584 83.75 509.111 83.5114 508.378 83.5114C507.705 83.5114 507.244 83.75 506.997 84.2273C506.759 84.7045 506.639 85.1989 506.639 85.7102ZM488.486 72.108V70.7273C488.486 69.6023 488.729 68.571 489.214 67.6335C489.709 66.696 490.416 65.946 491.337 65.3835C492.257 64.821 493.369 64.5398 494.673 64.5398C496.028 64.5398 497.166 64.821 498.087 65.3835C499.016 65.946 499.719 66.696 500.196 67.6335C500.673 68.571 500.912 69.6023 500.912 70.7273V72.108C500.912 73.233 500.669 74.2599 500.183 75.1889C499.706 76.1179 499.003 76.8594 498.074 77.4134C497.145 77.9673 496.011 78.2443 494.673 78.2443C493.335 78.2443 492.206 77.9631 491.286 77.4006C490.365 76.8381 489.666 76.0923 489.189 75.1634C488.72 74.2344 488.486 73.2159 488.486 72.108ZM492.986 70.7273V72.108C492.986 72.6193 493.105 73.1051 493.344 73.5653C493.582 74.0256 494.026 74.2557 494.673 74.2557C495.381 74.2557 495.845 74.0256 496.067 73.5653C496.297 73.1051 496.412 72.6193 496.412 72.108V70.7273C496.412 70.2159 496.305 69.7216 496.092 69.2443C495.879 68.767 495.406 68.5284 494.673 68.5284C494 68.5284 493.548 68.7756 493.318 69.2699C493.097 69.7557 492.986 70.2415 492.986 70.7273ZM490.659 92L508.659 65.8182H512.29L494.29 92H490.659Z" fill="#ABABAB"/>
<path d="M383.714 58.9844H378.115C378.013 58.2599 377.804 57.6165 377.488 57.054C377.173 56.483 376.768 55.9972 376.274 55.5966C375.78 55.196 375.209 54.8892 374.561 54.6761C373.922 54.4631 373.227 54.3565 372.477 54.3565C371.122 54.3565 369.942 54.6932 368.936 55.3665C367.93 56.0312 367.15 57.0028 366.596 58.2812C366.042 59.5511 365.765 61.0937 365.765 62.9091C365.765 64.7756 366.042 66.3437 366.596 67.6136C367.159 68.8835 367.943 69.8423 368.949 70.4901C369.954 71.1378 371.118 71.4616 372.439 71.4616C373.18 71.4616 373.866 71.3636 374.497 71.1676C375.136 70.9716 375.703 70.6861 376.197 70.3111C376.692 69.9276 377.101 69.4631 377.425 68.9176C377.757 68.3722 377.987 67.75 378.115 67.0511L383.714 67.0767C383.569 68.2784 383.207 69.4375 382.628 70.554C382.057 71.6619 381.285 72.6548 380.314 73.5327C379.351 74.402 378.2 75.0923 376.862 75.6037C375.532 76.1065 374.028 76.358 372.349 76.358C370.014 76.358 367.926 75.8295 366.085 74.7727C364.253 73.7159 362.804 72.1861 361.738 70.1832C360.682 68.1804 360.153 65.7557 360.153 62.9091C360.153 60.054 360.69 57.625 361.764 55.6222C362.838 53.6193 364.295 52.0937 366.136 51.0455C367.977 49.9886 370.048 49.4602 372.349 49.4602C373.866 49.4602 375.273 49.6733 376.568 50.0994C377.872 50.5256 379.027 51.1477 380.032 51.9659C381.038 52.7756 381.856 53.7685 382.487 54.9446C383.126 56.1207 383.535 57.4673 383.714 58.9844ZM391.704 76H385.773L394.811 49.8182H401.944L410.97 76H405.038L398.48 55.8011H398.275L391.704 76ZM391.334 65.7088H405.345V70.0298H391.334V65.7088ZM414.121 76V49.8182H424.451C426.428 49.8182 428.116 50.1719 429.513 50.8793C430.92 51.5781 431.989 52.571 432.722 53.858C433.464 55.1364 433.834 56.6406 433.834 58.3707C433.834 60.1094 433.459 61.6051 432.709 62.858C431.959 64.1023 430.873 65.0568 429.449 65.7216C428.035 66.3864 426.322 66.7188 424.31 66.7188H417.394V62.2699H423.415C424.472 62.2699 425.35 62.125 426.049 61.8352C426.748 61.5455 427.268 61.1108 427.608 60.5312C427.958 59.9517 428.133 59.2315 428.133 58.3707C428.133 57.5014 427.958 56.7685 427.608 56.1719C427.268 55.5753 426.743 55.1236 426.036 54.8168C425.337 54.5014 424.455 54.3438 423.39 54.3438H419.657V76H414.121ZM428.26 64.0852L434.768 76H428.657L422.29 64.0852H428.26ZM447.028 76H437.746V49.8182H447.104C449.738 49.8182 452.005 50.3423 453.905 51.3906C455.806 52.4304 457.268 53.9261 458.29 55.8778C459.322 57.8295 459.837 60.1648 459.837 62.8835C459.837 65.6108 459.322 67.9545 458.29 69.9148C457.268 71.875 455.797 73.3793 453.88 74.4276C451.971 75.4759 449.687 76 447.028 76ZM443.282 71.2571H446.797C448.434 71.2571 449.81 70.9673 450.927 70.3878C452.052 69.7997 452.895 68.892 453.458 67.6648C454.029 66.429 454.314 64.8352 454.314 62.8835C454.314 60.9489 454.029 59.3679 453.458 58.1406C452.895 56.9134 452.056 56.0099 450.939 55.4304C449.823 54.8509 448.447 54.5611 446.81 54.5611H443.282V71.2571ZM363.352 78.8182V105H358.571L347.181 88.5213H346.989V105H341.453V78.8182H346.311L357.612 95.2841H357.843V78.8182H363.352ZM381.398 78.8182H386.933V95.821C386.933 97.7301 386.477 99.4006 385.565 100.832C384.662 102.264 383.396 103.381 381.769 104.182C380.141 104.974 378.244 105.371 376.08 105.371C373.906 105.371 372.006 104.974 370.378 104.182C368.75 103.381 367.484 102.264 366.581 100.832C365.678 99.4006 365.226 97.7301 365.226 95.821V78.8182H370.761V95.348C370.761 96.3452 370.979 97.2315 371.413 98.0071C371.857 98.7827 372.479 99.392 373.28 99.8352C374.081 100.278 375.014 100.5 376.08 100.5C377.154 100.5 378.087 100.278 378.879 99.8352C379.681 99.392 380.298 98.7827 380.733 98.0071C381.176 97.2315 381.398 96.3452 381.398 95.348V78.8182ZM388.788 78.8182H395.614L402.825 96.4091H403.131L410.342 78.8182H417.168V105H411.799V87.9588H411.582L404.806 104.872H401.15L394.374 87.8949H394.157V105H388.788V78.8182ZM419.029 105V78.8182H429.512C431.438 78.8182 433.045 79.1037 434.332 79.6747C435.619 80.2457 436.586 81.0384 437.234 82.0526C437.881 83.0582 438.205 84.2173 438.205 85.5298C438.205 86.5526 438.001 87.4517 437.592 88.2273C437.182 88.9943 436.62 89.625 435.904 90.1193C435.197 90.6051 434.387 90.9503 433.475 91.1548V91.4105C434.472 91.4531 435.406 91.7344 436.275 92.2543C437.153 92.7741 437.864 93.5028 438.41 94.4403C438.955 95.3693 439.228 96.4773 439.228 97.7642C439.228 99.1534 438.883 100.393 438.192 101.484C437.511 102.567 436.501 103.423 435.163 104.054C433.825 104.685 432.175 105 430.215 105H419.029ZM424.565 100.474H429.077C430.62 100.474 431.745 100.18 432.452 99.5923C433.16 98.9957 433.513 98.2031 433.513 97.2145C433.513 96.4901 433.339 95.8509 432.989 95.2969C432.64 94.7429 432.141 94.3082 431.494 93.9929C430.854 93.6776 430.092 93.5199 429.205 93.5199H424.565V100.474ZM424.565 89.7741H428.668C429.427 89.7741 430.1 89.642 430.688 89.3778C431.285 89.1051 431.754 88.7216 432.094 88.2273C432.444 87.733 432.619 87.1406 432.619 86.4503C432.619 85.5043 432.282 84.7415 431.609 84.1619C430.944 83.5824 429.998 83.2926 428.771 83.2926H424.565V89.7741ZM440.13 105V78.8182H457.772V83.3821H445.665V89.6207H456.864V94.1847H445.665V100.436H457.823V105H440.13ZM459.473 105V78.8182H469.802C471.78 78.8182 473.467 79.1719 474.865 79.8793C476.271 80.5781 477.341 81.571 478.074 82.858C478.815 84.1364 479.186 85.6406 479.186 87.3707C479.186 89.1094 478.811 90.6051 478.061 91.858C477.311 93.1023 476.224 94.0568 474.801 94.7216C473.386 95.3864 471.673 95.7188 469.662 95.7188H462.746V91.2699H468.767C469.824 91.2699 470.702 91.125 471.4 90.8352C472.099 90.5455 472.619 90.1108 472.96 89.5312C473.309 88.9517 473.484 88.2315 473.484 87.3707C473.484 86.5014 473.309 85.7685 472.96 85.1719C472.619 84.5753 472.095 84.1236 471.388 83.8168C470.689 83.5014 469.807 83.3438 468.741 83.3438H465.008V105H459.473ZM473.612 93.0852L480.119 105H474.008L467.642 93.0852H473.612Z" fill="#ABABAB"/>
</svg>
