<svg width="550" height="270" viewBox="0 0 550 270" fill="none" xmlns="http://www.w3.org/2000/svg">
<g clip-path="url(#clip0_302_7236)">
<path d="M550 0H0V270H550V0Z" fill="white"/>
<path d="M163.712 124V118.682L176.138 107.176C177.195 106.153 178.081 105.233 178.797 104.415C179.525 103.597 180.076 102.795 180.451 102.011C180.826 101.216 181.013 100.358 181.013 99.4374C181.013 98.4148 180.78 97.534 180.314 96.7954C179.849 96.0454 179.212 95.4716 178.405 95.0738C177.598 94.6648 176.684 94.4602 175.661 94.4602C174.593 94.4602 173.661 94.6762 172.865 95.108C172.07 95.5398 171.456 96.159 171.024 96.966C170.593 97.7728 170.377 98.733 170.377 99.8466H163.371C163.371 97.5624 163.888 95.5796 164.922 93.8978C165.956 92.216 167.405 90.9148 169.269 89.9944C171.132 89.0738 173.28 88.6136 175.712 88.6136C178.212 88.6136 180.388 89.0568 182.24 89.9432C184.104 90.8182 185.553 92.034 186.587 93.591C187.621 95.1478 188.138 96.9318 188.138 98.9432C188.138 100.261 187.877 101.562 187.354 102.847C186.843 104.131 185.928 105.557 184.61 107.125C183.292 108.682 181.434 110.551 179.036 112.733L173.939 117.727V117.966H188.598V124H163.712Z" fill="#424242"/>
<path d="M170.003 137.989L172.055 143.627L204.004 131.998L201.952 126.36L170.003 137.989Z" fill="#9C9C9C"/>
<path d="M198.383 182.479C196.587 182.468 194.854 182.167 193.184 181.576C191.525 180.985 190.036 180.025 188.718 178.695C187.4 177.366 186.354 175.604 185.581 173.411C184.82 171.218 184.439 168.525 184.439 165.331C184.451 162.4 184.786 159.78 185.445 157.474C186.115 155.155 187.07 153.189 188.309 151.576C189.559 149.962 191.053 148.735 192.792 147.894C194.53 147.042 196.479 146.616 198.638 146.616C200.967 146.616 203.025 147.07 204.809 147.979C206.593 148.877 208.025 150.099 209.105 151.644C210.195 153.189 210.855 154.922 211.081 156.843H203.803C203.519 155.627 202.923 154.672 202.013 153.979C201.105 153.286 199.979 152.939 198.638 152.939C196.365 152.939 194.638 153.928 193.456 155.905C192.286 157.883 191.689 160.57 191.667 163.968H191.905C192.428 162.934 193.133 162.053 194.019 161.326C194.917 160.587 195.934 160.025 197.07 159.638C198.218 159.241 199.428 159.042 200.701 159.042C202.769 159.042 204.609 159.53 206.223 160.508C207.837 161.474 209.109 162.803 210.041 164.496C210.973 166.189 211.439 168.127 211.439 170.309C211.439 172.672 210.889 174.775 209.785 176.616C208.695 178.456 207.167 179.9 205.201 180.945C203.247 181.979 200.973 182.491 198.383 182.479ZM198.348 176.684C199.485 176.684 200.501 176.411 201.399 175.866C202.297 175.32 203.001 174.581 203.513 173.65C204.025 172.718 204.281 171.672 204.281 170.513C204.281 169.354 204.025 168.314 203.513 167.394C203.013 166.474 202.321 165.741 201.433 165.195C200.547 164.65 199.536 164.377 198.4 164.377C197.547 164.377 196.758 164.536 196.03 164.854C195.314 165.172 194.684 165.616 194.138 166.184C193.604 166.752 193.184 167.411 192.877 168.161C192.57 168.9 192.417 169.689 192.417 170.53C192.417 171.655 192.672 172.684 193.184 173.616C193.706 174.547 194.411 175.292 195.297 175.849C196.195 176.405 197.212 176.684 198.348 176.684Z" fill="#9C9C9C"/>
<path d="M269.875 100L287.999 106L269.873 112V106L269.875 100Z" fill="black"/>
<path d="M230 106H269.874M269.874 106L269.876 100L288 106M269.874 106V112L288 106M269.874 106H288" stroke="black" stroke-width="5" stroke-linecap="round" stroke-linejoin="round"/>
<path d="M269.875 158L287.999 164L269.873 170V164L269.875 158Z" fill="black"/>
<path d="M230 164H269.874M269.874 164L269.876 158L288 164M269.874 164V170L288 164M269.874 164H288" stroke="black" stroke-width="5" stroke-linecap="round" stroke-linejoin="round"/>
<path d="M311.783 90.9089L318.815 113.011H319.085L326.129 90.9089H332.947L322.919 120H314.993L304.951 90.9089H311.783ZM337.597 120H331.005L341.049 90.9089H348.975L359.003 120H352.411L345.125 97.5567H344.897L337.597 120ZM337.185 108.565H352.753V113.366H337.185V108.565ZM362.503 120V90.9089H368.655V114.929H381.127V120H362.503ZM403.169 90.9089H409.319V109.801C409.319 111.922 408.811 113.778 407.799 115.369C406.795 116.96 405.389 118.201 403.579 119.091C401.771 119.972 399.665 120.412 397.259 120.412C394.845 120.412 392.733 119.972 390.923 119.091C389.115 118.201 387.709 116.96 386.705 115.369C385.701 113.778 385.199 111.922 385.199 109.801V90.9089H391.349V109.276C391.349 110.384 391.591 111.368 392.075 112.23C392.567 113.092 393.257 113.769 394.149 114.261C395.039 114.754 396.075 115 397.259 115C398.453 115 399.489 114.754 400.369 114.261C401.259 113.769 401.947 113.092 402.429 112.23C402.921 111.368 403.169 110.384 403.169 109.276V90.9089ZM414.379 120V90.9089H433.981V95.9801H420.529V102.912H432.973V107.983H420.529V114.929H434.039V120H414.379Z" fill="#FF8B37"/>
<path d="M305.42 153.98V148.909H329.312V153.98H320.406V178H314.326V153.98H305.42ZM358.652 163.455C358.652 166.627 358.05 169.326 356.848 171.551C355.654 173.777 354.026 175.476 351.962 176.651C349.906 177.815 347.596 178.398 345.03 178.398C342.444 178.398 340.124 177.811 338.07 176.636C336.014 175.462 334.39 173.762 333.198 171.537C332.004 169.312 331.408 166.617 331.408 163.455C331.408 160.282 332.004 157.583 333.198 155.358C334.39 153.133 336.014 151.437 338.07 150.273C340.124 149.098 342.444 148.511 345.03 148.511C347.596 148.511 349.906 149.098 351.962 150.273C354.026 151.437 355.654 153.133 356.848 155.358C358.05 157.583 358.652 160.282 358.652 163.455ZM352.416 163.455C352.416 161.4 352.108 159.667 351.492 158.256C350.886 156.845 350.03 155.775 348.922 155.045C347.814 154.316 346.516 153.952 345.03 153.952C343.544 153.952 342.246 154.316 341.138 155.045C340.03 155.775 339.168 156.845 338.552 158.256C337.946 159.667 337.644 161.4 337.644 163.455C337.644 165.509 337.946 167.242 338.552 168.653C339.168 170.064 340.03 171.134 341.138 171.864C342.246 172.593 343.544 172.957 345.03 172.957C346.516 172.957 347.814 172.593 348.922 171.864C350.03 171.134 350.886 170.064 351.492 168.653C352.108 167.242 352.416 165.509 352.416 163.455ZM360.772 153.98V148.909H384.664V153.98H375.758V178H369.678V153.98H360.772ZM390.058 178H383.468L393.51 148.909H401.436L411.464 178H404.874L397.586 155.557H397.36L390.058 178ZM389.646 166.565H405.214V171.366H389.646V166.565ZM414.966 178V148.909H421.116V172.929H433.588V178H414.966Z" fill="#FF8B37"/>
<path d="M482 193H66C56.6112 193 49 200.611 49 210V250C49 259.389 56.6112 267 66 267H482C491.389 267 499 259.389 499 250V210C499 200.611 491.389 193 482 193Z" stroke="#D9D9D9" stroke-width="6" stroke-linejoin="round"/>
<path d="M41 64V29.091H56.0682C58.659 29.091 60.9262 29.5624 62.8694 30.5056C64.8126 31.4488 66.3238 32.8068 67.4034 34.5796C68.483 36.3522 69.0228 38.4772 69.0228 40.9546C69.0228 43.4546 68.466 45.5624 67.3522 47.2784C66.25 48.9944 64.6988 50.2898 62.6988 51.1648C60.7102 52.0398 58.3864 52.4772 55.7272 52.4772H46.7272V45.1136H53.8182C54.9318 45.1136 55.8806 44.9772 56.6648 44.7046C57.4602 44.4204 58.0682 43.9716 58.4886 43.358C58.9204 42.7444 59.1364 41.9432 59.1364 40.9546C59.1364 39.9546 58.9204 39.142 58.4886 38.517C58.0682 37.8806 57.4602 37.4148 56.6648 37.1194C55.8806 36.8124 54.9318 36.659 53.8182 36.659H50.4772V64H41ZM61.4546 47.9772L70.1818 64H59.8864L51.3636 47.9772H61.4546ZM82.1306 64H71.9034L83.4262 29.091H96.3806L107.903 64H97.6762L90.0398 38.7046H89.767L82.1306 64ZM80.2216 50.2272H99.4488V57.3182H80.2216V50.2272ZM141.47 29.091V64H133.561L120.947 45.659H120.743V64H111.266V29.091H119.311L131.72 47.3636H131.993V29.091H141.47ZM159.385 64H145.953V29.091H159.249C162.839 29.091 165.942 29.7898 168.555 31.1876C171.18 32.5738 173.203 34.5738 174.624 37.1876C176.055 39.7898 176.771 42.909 176.771 46.5454C176.771 50.1818 176.061 53.3068 174.641 55.9204C173.22 58.5228 171.209 60.5228 168.607 61.9204C166.004 63.3068 162.93 64 159.385 64ZM155.43 55.9546H159.044C160.771 55.9546 162.243 55.6762 163.459 55.1194C164.686 54.5624 165.618 53.6022 166.254 52.2386C166.902 50.875 167.226 48.9772 167.226 46.5454C167.226 44.1136 166.896 42.216 166.237 40.8522C165.589 39.4886 164.635 38.5284 163.374 37.9716C162.124 37.4148 160.589 37.1364 158.771 37.1364H155.43V55.9546ZM214.974 46.5454C214.974 50.4318 214.218 53.7102 212.708 56.3806C211.196 59.0398 209.156 61.0568 206.588 62.4318C204.02 63.7954 201.156 64.4772 197.997 64.4772C194.815 64.4772 191.94 63.7898 189.372 62.4148C186.815 61.0284 184.781 59.0056 183.27 56.3466C181.77 53.6762 181.02 50.409 181.02 46.5454C181.02 42.659 181.77 39.3864 183.27 36.7272C184.781 34.0568 186.815 32.0398 189.372 30.6762C191.94 29.3012 194.815 28.6136 197.997 28.6136C201.156 28.6136 204.02 29.3012 206.588 30.6762C209.156 32.0398 211.196 34.0568 212.708 36.7272C214.218 39.3864 214.974 42.659 214.974 46.5454ZM205.224 46.5454C205.224 44.4546 204.946 42.6932 204.39 41.2614C203.844 39.8182 203.032 38.7272 201.952 37.9886C200.884 37.2386 199.565 36.8636 197.997 36.8636C196.429 36.8636 195.105 37.2386 194.026 37.9886C192.957 38.7272 192.145 39.8182 191.588 41.2614C191.043 42.6932 190.77 44.4546 190.77 46.5454C190.77 48.6364 191.043 50.4034 191.588 51.8466C192.145 53.2784 192.957 54.3694 194.026 55.1194C195.105 55.858 196.429 56.2272 197.997 56.2272C199.565 56.2272 200.884 55.858 201.952 55.1194C203.032 54.3694 203.844 53.2784 204.39 51.8466C204.946 50.4034 205.224 48.6364 205.224 46.5454ZM219.36 29.091H231.154L239.268 48.8636H239.678L247.792 29.091H259.586V64H250.314V43.8182H250.042L242.268 63.7272H236.678L228.904 43.6818H228.632V64H219.36V29.091ZM305.17 29.091V64H298.796L283.608 42.0284H283.352V64H275.972V29.091H282.448L297.518 51.0454H297.824V29.091H305.17ZM332.83 29.091H340.212V51.7614C340.212 54.3068 339.604 56.534 338.388 58.4432C337.184 60.3522 335.496 61.8411 333.326 62.909C331.154 63.9661 328.626 64.4944 325.74 64.4944C322.842 64.4944 320.308 63.9661 318.138 62.909C315.968 61.8411 314.28 60.3522 313.076 58.4432C311.87 56.534 311.268 54.3068 311.268 51.7614V29.091H318.65V51.1306C318.65 52.4602 318.938 53.642 319.518 54.6762C320.11 55.7102 320.938 56.5228 322.008 57.1136C323.076 57.7046 324.32 58 325.74 58C327.172 58 328.416 57.7046 329.474 57.1136C330.542 56.5228 331.366 55.7102 331.944 54.6762C332.536 53.642 332.83 52.4602 332.83 51.1306V29.091ZM346.284 29.091H355.386L365 52.5454H365.41L375.022 29.091H384.124V64H376.966V41.2784H376.676L367.642 63.8297H362.768L353.732 41.1932H353.444V64H346.284V29.091ZM390.206 64V29.091H404.184C406.752 29.091 408.894 29.4716 410.61 30.233C412.326 30.9944 413.616 32.0512 414.478 33.4034C415.342 34.7444 415.774 36.2898 415.774 38.0398C415.774 39.4034 415.502 40.6022 414.956 41.6364C414.41 42.659 413.66 43.5 412.706 44.159C411.762 44.8068 410.684 45.267 409.468 45.5398V45.8806C410.796 45.9374 412.042 46.3124 413.2 47.0056C414.37 47.6988 415.32 48.6704 416.046 49.9204C416.774 51.159 417.138 52.6364 417.138 54.3522C417.138 56.2046 416.678 57.858 415.758 59.3124C414.848 60.7556 413.502 61.8978 411.718 62.7386C409.934 63.5796 407.734 64 405.12 64H390.206ZM397.586 57.966H403.604C405.66 57.966 407.16 57.5738 408.104 56.7898C409.046 55.9944 409.518 54.9374 409.518 53.6194C409.518 52.6534 409.286 51.8012 408.82 51.0624C408.354 50.3238 407.688 49.7444 406.826 49.3238C405.974 48.9034 404.956 48.6932 403.774 48.6932H397.586V57.966ZM397.586 43.6988H403.058C404.07 43.6988 404.968 43.5228 405.752 43.1704C406.546 42.8068 407.172 42.2954 407.626 41.6364C408.092 40.9772 408.326 40.1876 408.326 39.267C408.326 38.0056 407.876 36.9886 406.978 36.216C406.092 35.4432 404.83 35.0568 403.194 35.0568H397.586V43.6988ZM421.94 64V29.091H445.464V35.1762H429.322V43.4944H444.252V49.5796H429.322V57.9148H445.532V64H421.94ZM451.33 64V29.091H465.104C467.74 29.091 469.99 29.5624 471.854 30.5056C473.728 31.4374 475.154 32.7614 476.132 34.4772C477.12 36.1818 477.616 38.1874 477.616 40.4944C477.616 42.8124 477.116 44.8068 476.116 46.4772C475.116 48.1364 473.666 49.409 471.768 50.2954C469.882 51.1818 467.598 51.625 464.916 51.625H455.694V45.6932H463.724C465.132 45.6932 466.302 45.5 467.234 45.1136C468.166 44.7272 468.86 44.1478 469.314 43.375C469.78 42.6022 470.012 41.642 470.012 40.4944C470.012 39.3352 469.78 38.358 469.314 37.5624C468.86 36.767 468.16 36.1648 467.218 35.7556C466.286 35.3352 465.11 35.125 463.688 35.125H458.712V64H451.33ZM470.184 48.1136L478.86 64H470.712L462.224 48.1136H470.184ZM501.768 39.1306C501.632 37.7556 501.046 36.6874 500.012 35.9262C498.978 35.1648 497.576 34.784 495.802 34.784C494.598 34.784 493.58 34.9546 492.752 35.2954C491.922 35.625 491.286 36.0852 490.842 36.6762C490.41 37.267 490.194 37.9376 490.194 38.6876C490.172 39.3124 490.302 39.858 490.586 40.3238C490.882 40.7898 491.286 41.1932 491.796 41.534C492.308 41.8636 492.9 42.1534 493.57 42.4034C494.24 42.642 494.956 42.8466 495.718 43.017L498.854 43.767C500.376 44.108 501.774 44.5624 503.046 45.1306C504.32 45.6988 505.422 46.3978 506.354 47.2272C507.286 48.0568 508.008 49.034 508.518 50.159C509.042 51.284 509.308 52.5738 509.32 54.0284C509.308 56.1648 508.762 58.017 507.684 59.5852C506.616 61.142 505.07 62.3522 503.046 63.216C501.036 64.0682 498.61 64.4944 495.768 64.4944C492.95 64.4944 490.496 64.0624 488.404 63.1988C486.326 62.3352 484.7 61.0568 483.53 59.3636C482.37 57.659 481.762 55.5512 481.706 53.0398H488.848C488.928 54.2102 489.262 55.1874 489.854 55.9716C490.456 56.7444 491.258 57.3296 492.258 57.7272C493.268 58.1136 494.41 58.3068 495.684 58.3068C496.934 58.3068 498.018 58.125 498.938 57.7614C499.87 57.3978 500.592 56.892 501.104 56.2444C501.616 55.5966 501.87 54.8522 501.87 54.0114C501.87 53.2272 501.638 52.5682 501.172 52.034C500.718 51.5 500.046 51.0454 499.16 50.6704C498.286 50.2954 497.212 49.9546 495.938 49.6478L492.138 48.6932C489.194 47.9772 486.87 46.858 485.166 45.3352C483.462 43.8124 482.616 41.7614 482.626 39.1818C482.616 37.0682 483.178 35.2216 484.314 33.642C485.462 32.0624 487.036 30.8296 489.036 29.9432C491.036 29.0568 493.308 28.6136 495.854 28.6136C498.444 28.6136 500.706 29.0568 502.638 29.9432C504.58 30.8296 506.092 32.0624 507.172 33.642C508.252 35.2216 508.808 37.0512 508.842 39.1306H501.768Z" fill="black"/>
<path d="M239.465 220.784V216.728H258.579V220.784H251.455V240H246.591V220.784H239.465ZM282.051 228.364C282.051 230.902 281.569 233.06 280.607 234.84C279.653 236.622 278.349 237.982 276.699 238.92C275.055 239.852 273.207 240.318 271.153 240.318C269.085 240.318 267.229 239.848 265.585 238.91C263.941 237.97 262.641 236.61 261.687 234.83C260.733 233.05 260.255 230.894 260.255 228.364C260.255 225.826 260.733 223.666 261.687 221.886C262.641 220.106 263.941 218.75 265.585 217.818C267.229 216.878 269.085 216.41 271.153 216.41C273.207 216.41 275.055 216.878 276.699 217.818C278.349 218.75 279.653 220.106 280.607 221.886C281.569 223.666 282.051 225.826 282.051 228.364ZM277.063 228.364C277.063 226.72 276.815 225.334 276.323 224.204C275.839 223.076 275.153 222.22 274.267 221.636C273.381 221.054 272.343 220.762 271.153 220.762C269.963 220.762 268.925 221.054 268.039 221.636C267.153 222.22 266.463 223.076 265.971 224.204C265.487 225.334 265.243 226.72 265.243 228.364C265.243 230.008 265.487 231.394 265.971 232.522C266.463 233.652 267.153 234.508 268.039 235.09C268.925 235.674 269.963 235.966 271.153 235.966C272.343 235.966 273.381 235.674 274.267 235.09C275.153 234.508 275.839 233.652 276.323 232.522C276.815 231.394 277.063 230.008 277.063 228.364ZM283.747 220.784V216.728H302.861V220.784H295.735V240H290.871V220.784H283.747ZM307.175 240H301.903L309.937 216.728H316.277L324.301 240H319.027L313.199 222.046H313.017L307.175 240ZM306.847 230.852H319.301V234.694H306.847V230.852ZM327.101 240V216.728H332.023V235.944H341.999V240H327.101ZM353.665 226.614V222.568H369.357V226.614H353.665ZM353.665 234.16V230.114H369.357V234.16H353.665ZM386.025 216.728L391.651 234.41H391.867L397.503 216.728H402.957L394.935 240H388.593L380.559 216.728H386.025ZM406.675 240H401.403L409.437 216.728H415.777L423.801 240H418.527L412.699 222.046H412.517L406.675 240ZM406.347 230.852H418.801V234.694H406.347V230.852ZM426.601 240V216.728H431.523V235.944H441.499V240H426.601ZM459.133 216.728H464.053V231.84C464.053 233.538 463.649 235.022 462.837 236.296C462.035 237.568 460.909 238.56 459.463 239.272C458.015 239.978 456.331 240.33 454.405 240.33C452.475 240.33 450.785 239.978 449.337 239.272C447.891 238.56 446.765 237.568 445.963 236.296C445.159 235.022 444.759 233.538 444.759 231.84V216.728H449.679V231.42C449.679 232.306 449.871 233.094 450.259 233.784C450.653 234.474 451.205 235.016 451.917 235.41C452.629 235.804 453.459 236 454.405 236C455.361 236 456.189 235.804 456.895 235.41C457.607 235.016 458.155 234.474 458.543 233.784C458.937 233.094 459.133 232.306 459.133 231.42V216.728ZM468.101 240V216.728H483.783V220.784H473.023V226.33H482.977V230.386H473.023V235.944H483.829V240H468.101Z" fill="#ABABAB"/>
<path d="M215.614 235.636V234.41C215.614 233.424 215.826 232.516 216.25 231.682C216.682 230.848 217.306 230.178 218.124 229.67C218.944 229.162 219.94 228.91 221.114 228.91C222.318 228.91 223.33 229.16 224.148 229.66C224.974 230.16 225.598 230.826 226.022 231.66C226.446 232.492 226.66 233.41 226.66 234.41V235.636C226.66 236.622 226.444 237.53 226.012 238.364C225.588 239.196 224.962 239.868 224.136 240.376C223.31 240.882 222.304 241.136 221.114 241.136C219.924 241.136 218.92 240.882 218.102 240.376C217.284 239.868 216.662 239.196 216.238 238.364C215.822 237.53 215.614 236.622 215.614 235.636ZM219.568 234.41V235.636C219.568 236.068 219.674 236.496 219.886 236.92C220.106 237.338 220.516 237.546 221.114 237.546C221.742 237.546 222.156 237.34 222.352 236.932C222.556 236.522 222.66 236.09 222.66 235.636V234.41C222.66 233.954 222.564 233.516 222.376 233.09C222.186 232.666 221.766 232.454 221.114 232.454C220.516 232.454 220.106 232.666 219.886 233.09C219.674 233.516 219.568 233.954 219.568 234.41ZM203.432 222.318V221.09C203.432 220.09 203.648 219.174 204.08 218.34C204.518 217.508 205.148 216.84 205.966 216.34C206.784 215.84 207.772 215.59 208.932 215.59C210.136 215.59 211.148 215.84 211.966 216.34C212.792 216.84 213.416 217.508 213.84 218.34C214.266 219.174 214.478 220.09 214.478 221.09V222.318C214.478 223.318 214.262 224.232 213.83 225.056C213.406 225.882 212.78 226.542 211.954 227.034C211.128 227.526 210.122 227.772 208.932 227.772C207.742 227.772 206.738 227.522 205.92 227.022C205.102 226.522 204.482 225.86 204.056 225.034C203.64 224.208 203.432 223.304 203.432 222.318ZM207.432 221.09V222.318C207.432 222.772 207.538 223.204 207.75 223.614C207.962 224.022 208.356 224.228 208.932 224.228C209.56 224.228 209.974 224.022 210.17 223.614C210.376 223.204 210.478 222.772 210.478 222.318V221.09C210.478 220.636 210.382 220.196 210.194 219.772C210.004 219.348 209.584 219.136 208.932 219.136C208.334 219.136 207.932 219.356 207.728 219.796C207.53 220.228 207.432 220.66 207.432 221.09ZM205.364 240L221.364 216.728H224.59L208.59 240H205.364Z" fill="#ABABAB"/>
<path d="M105.636 210.876H100.658C100.568 210.232 100.382 209.66 100.102 209.16C99.8213 208.652 99.4615 208.22 99.0221 207.864C98.5827 207.508 98.0751 207.234 97.4993 207.046C96.9311 206.856 96.3137 206.762 95.6471 206.762C94.4425 206.762 93.3933 207.06 92.4993 207.66C91.6053 208.25 90.9121 209.114 90.4197 210.25C89.9273 211.378 89.6811 212.75 89.6811 214.364C89.6811 216.022 89.9273 217.416 90.4197 218.546C90.9197 219.674 91.6167 220.526 92.5107 221.102C93.4045 221.678 94.4387 221.966 95.6129 221.966C96.2721 221.966 96.8819 221.878 97.4425 221.704C98.0107 221.53 98.5145 221.276 98.9539 220.944C99.3933 220.602 99.7569 220.19 100.045 219.704C100.34 219.22 100.545 218.666 100.658 218.046L105.636 218.068C105.507 219.136 105.185 220.166 104.67 221.16C104.162 222.144 103.477 223.026 102.613 223.806C101.757 224.58 100.734 225.194 99.5447 225.648C98.3629 226.094 97.0257 226.318 95.5333 226.318C93.4577 226.318 91.6015 225.848 89.9651 224.91C88.3365 223.97 87.0485 222.61 86.1015 220.83C85.1621 219.05 84.6925 216.894 84.6925 214.364C84.6925 211.826 85.1697 209.666 86.1243 207.886C87.0789 206.106 88.3743 204.75 90.0107 203.818C91.6471 202.878 93.4879 202.41 95.5333 202.41C96.8819 202.41 98.1319 202.598 99.2833 202.978C100.443 203.356 101.469 203.91 102.363 204.636C103.257 205.356 103.984 206.238 104.545 207.284C105.113 208.33 105.477 209.526 105.636 210.876ZM112.738 226H107.465L115.499 202.728H121.84L129.863 226H124.59L118.761 208.046H118.579L112.738 226ZM112.408 216.852H124.863V220.694H112.408V216.852ZM132.664 226V202.728H141.846C143.604 202.728 145.104 203.042 146.346 203.67C147.596 204.292 148.547 205.174 149.198 206.318C149.857 207.454 150.187 208.792 150.187 210.33C150.187 211.874 149.854 213.204 149.187 214.318C148.52 215.424 147.554 216.272 146.289 216.864C145.032 217.454 143.509 217.75 141.721 217.75H135.573V213.796H140.926C141.865 213.796 142.645 213.666 143.266 213.41C143.888 213.152 144.35 212.766 144.653 212.25C144.963 211.734 145.119 211.094 145.119 210.33C145.119 209.556 144.963 208.906 144.653 208.376C144.35 207.844 143.884 207.444 143.255 207.17C142.634 206.89 141.85 206.75 140.903 206.75H137.585V226H132.664ZM145.232 215.41L151.016 226H145.585L139.926 215.41H145.232ZM161.914 226H153.664V202.728H161.982C164.323 202.728 166.338 203.194 168.028 204.124C169.717 205.05 171.016 206.378 171.926 208.114C172.842 209.848 173.301 211.924 173.301 214.34C173.301 216.766 172.842 218.848 171.926 220.59C171.016 222.334 169.71 223.67 168.005 224.602C166.308 225.534 164.278 226 161.914 226ZM158.585 221.784H161.71C163.164 221.784 164.388 221.526 165.38 221.012C166.38 220.488 167.13 219.682 167.63 218.59C168.138 217.492 168.391 216.076 168.391 214.34C168.391 212.622 168.138 211.216 167.63 210.124C167.13 209.034 166.384 208.232 165.391 207.716C164.399 207.2 163.176 206.944 161.721 206.944H158.585V221.784ZM87.5363 228.728V252H83.2863L73.1613 237.352H72.9907V252H68.0703V228.728H72.3885L82.4339 243.364H82.6385V228.728H87.5363ZM103.577 228.728H108.497V243.84C108.497 245.538 108.092 247.022 107.281 248.296C106.478 249.568 105.353 250.56 103.906 251.272C102.459 251.978 100.774 252.33 98.8493 252.33C96.9175 252.33 95.2281 251.978 93.7811 251.272C92.3341 250.56 91.2091 249.568 90.4061 248.296C89.6031 247.022 89.2015 245.538 89.2015 243.84V228.728H94.1221V243.42C94.1221 244.306 94.3151 245.094 94.7015 245.784C95.0955 246.474 95.6485 247.016 96.3607 247.41C97.0727 247.804 97.9023 248 98.8493 248C99.8039 248 100.633 247.804 101.338 247.41C102.05 247.016 102.599 246.474 102.986 245.784C103.38 245.094 103.577 244.306 103.577 243.42V228.728ZM110.145 228.728H116.214L122.623 244.364H122.895L129.304 228.728H135.373V252H130.6V236.852H130.407L124.384 251.886H121.134L115.111 236.796H114.918V252H110.145V228.728ZM137.027 252V228.728H146.345C148.057 228.728 149.485 228.982 150.629 229.488C151.773 229.996 152.633 230.7 153.208 231.602C153.784 232.496 154.072 233.526 154.072 234.694C154.072 235.602 153.89 236.402 153.527 237.09C153.163 237.772 152.663 238.334 152.027 238.772C151.398 239.204 150.678 239.512 149.868 239.694V239.92C150.754 239.958 151.583 240.208 152.356 240.67C153.137 241.132 153.769 241.78 154.254 242.614C154.739 243.44 154.981 244.424 154.981 245.568C154.981 246.804 154.674 247.906 154.061 248.876C153.455 249.838 152.557 250.598 151.368 251.16C150.178 251.72 148.712 252 146.97 252H137.027ZM141.947 247.978H145.958C147.33 247.978 148.33 247.716 148.958 247.194C149.587 246.662 149.902 245.958 149.902 245.08C149.902 244.436 149.746 243.868 149.436 243.376C149.125 242.882 148.682 242.496 148.106 242.216C147.538 241.936 146.86 241.796 146.072 241.796H141.947V247.978ZM141.947 238.466H145.595C146.269 238.466 146.868 238.348 147.39 238.114C147.921 237.872 148.337 237.53 148.64 237.09C148.951 236.652 149.106 236.124 149.106 235.512C149.106 234.67 148.807 233.992 148.208 233.478C147.618 232.962 146.777 232.704 145.686 232.704H141.947V238.466ZM155.783 252V228.728H171.465V232.784H160.703V238.33H170.658V242.386H160.703V247.944H171.51V252H155.783ZM172.977 252V228.728H182.158C183.916 228.728 185.416 229.042 186.658 229.67C187.908 230.292 188.859 231.174 189.511 232.318C190.17 233.454 190.499 234.792 190.499 236.33C190.499 237.874 190.166 239.204 189.499 240.318C188.833 241.424 187.867 242.272 186.602 242.864C185.344 243.454 183.821 243.75 182.033 243.75H175.886V239.796H181.238C182.177 239.796 182.958 239.666 183.579 239.41C184.2 239.152 184.662 238.766 184.965 238.25C185.276 237.734 185.431 237.094 185.431 236.33C185.431 235.556 185.276 234.906 184.965 234.376C184.662 233.844 184.196 233.444 183.568 233.17C182.946 232.89 182.162 232.75 181.215 232.75H177.897V252H172.977ZM185.545 241.41L191.329 252H185.897L180.238 241.41H185.545Z" fill="#ABABAB"/>
</g>
<defs>
<clipPath id="clip0_302_7236">
<rect width="550" height="270" fill="white"/>
</clipPath>
</defs>
</svg>
