<svg width="266" height="215" viewBox="0 0 266 215" fill="none" xmlns="http://www.w3.org/2000/svg">
<g clip-path="url(#clip0_154_8774)">
<path d="M43 64L7 64L7 100L43 100L43 64Z" fill="#9BB39B"/>
<path d="M79 64L43 64L43 100L79 100L79 64Z" fill="#82A588"/>
<path d="M115 64L79 64L79 100L115 100L115 64Z" fill="#9BB39B"/>
<path d="M151 64L115 64L115 100L151 100L151 64Z" fill="#82A588"/>
<path d="M187 64L151 64L151 100L187 100L187 64Z" fill="#9BB39B"/>
<path d="M223 64L187 64L187 100L223 100L223 64Z" fill="#82A588"/>
<path d="M259 64L223 64L223 100L259 100L259 64Z" fill="#9BB39B"/>
<path d="M43 100L7 100L7 136L43 136L43 100Z" fill="#82A588"/>
<path d="M79 100L43 100L43 136L79 136L79 100Z" fill="#9BB39B"/>
<path d="M115 100L79 100L79 136L115 136L115 100Z" fill="#82A588"/>
<path d="M151 100L115 100L115 136L151 136L151 100Z" fill="#9BB39B"/>
<path d="M187 100L151 100L151 136L187 136L187 100Z" fill="#82A588"/>
<path d="M223 100L187 100L187 136L223 136L223 100Z" fill="#9BB39B"/>
<path d="M259 100L223 100L223 136L259 136L259 100Z" fill="#82A588"/>
<path d="M43 136L7 136L7 172L43 172L43 136Z" fill="#9BB39B"/>
<path d="M79 136L43 136L43 172L79 172L79 136Z" fill="#82A588"/>
<path d="M115 136L79 136L79 172L115 172L115 136Z" fill="#9BB39B"/>
<path d="M151 136L115 136L115 172L151 172L151 136Z" fill="#82A588"/>
<path d="M187 136L151 136L151 172L187 172L187 136Z" fill="#9BB39B"/>
<path d="M223 136L187 136L187 172L223 172L223 136Z" fill="#82A588"/>
<path d="M259 136L223 136L223 172L259 172L259 136Z" fill="#9BB39B"/>
<path d="M43 172L7 172L7 208L43 208L43 172Z" fill="#82A588"/>
<path d="M79 172L43 172L43 208L79 208L79 172Z" fill="#9BB39B"/>
<path d="M115 172L79 172L79 208L115 208L115 172Z" fill="#82A588"/>
<path d="M151 172L115 172L115 208L151 208L151 172Z" fill="#9BB39B"/>
<path d="M187 172L151 172L151 208L187 208L187 172Z" fill="#82A588"/>
<path d="M223 172L187 172L187 208L223 208L223 172Z" fill="#9BB39B"/>
<path d="M259 172L223 172L223 208L259 208L259 172Z" fill="#82A588"/>
</g>
<rect x="3.5" y="60.5" width="259" height="151" rx="13.5" stroke="#966753" stroke-width="7"/>
<path d="M43.1933 9.17614L43.1933 3.09091L71.8638 3.09092L71.8638 9.17614L61.1763 9.17614L61.1763 38L53.8808 38L53.8808 9.17614L43.1933 9.17614ZM84.5768 38L76.6677 38L88.7188 3.09092L98.2302 3.09092L110.264 38L102.355 38L93.6109 11.0682L93.3381 11.0682L84.5768 38ZM84.0824 24.2784L102.764 24.2784L102.764 30.0398L84.0824 30.0398L84.0824 24.2784ZM120.706 38L120.706 3.09092L134.683 3.09092C137.251 3.09093 139.393 3.47161 141.109 4.23297C142.825 4.99434 144.115 6.05115 144.979 7.40343C145.842 8.74434 146.274 10.2898 146.274 12.0398C146.274 13.4034 146.001 14.6023 145.456 15.6364C144.911 16.6591 144.161 17.5 143.206 18.1591C142.263 18.8068 141.183 19.2671 139.967 19.5398L139.967 19.8807C141.297 19.9375 142.541 20.3125 143.7 21.0057C144.871 21.6989 145.82 22.6705 146.547 23.9205C147.274 25.1591 147.638 26.6364 147.638 28.3523C147.638 30.2046 147.178 31.858 146.257 33.3125C145.348 34.7557 144.001 35.8977 142.217 36.7387C140.433 37.5796 138.234 38 135.621 38L120.706 38ZM128.087 31.9659L134.104 31.9659C136.161 31.9659 137.661 31.5739 138.604 30.7898C139.547 29.9943 140.018 28.9375 140.018 27.6193C140.018 26.6534 139.786 25.8012 139.32 25.0625C138.854 24.3239 138.189 23.7443 137.325 23.3239C136.473 22.9034 135.456 22.6932 134.274 22.6932L128.087 22.6932L128.087 31.9659ZM128.087 17.6989L133.558 17.6989C134.57 17.6989 135.467 17.5227 136.251 17.1705C137.047 16.8068 137.672 16.2955 138.126 15.6364C138.592 14.9773 138.825 14.1875 138.825 13.2671C138.825 12.0057 138.376 10.9887 137.479 10.2159C136.592 9.4432 135.331 9.05683 133.695 9.05683L128.087 9.05683L128.087 17.6989ZM158.68 38L158.68 3.09093L166.061 3.09093L166.061 31.9148L181.027 31.9148L181.027 38L158.68 38ZM192.155 38L192.155 3.09093L215.677 3.09094L215.677 9.17616L199.535 9.17616L199.535 17.4943L214.467 17.4943L214.467 23.5796L199.535 23.5796L199.535 31.9148L215.746 31.9148L215.746 38L192.155 38Z" fill="black"/>
<rect x="182.311" y="79.2028" width="56.4254" height="85" rx="10.5" transform="rotate(5 182.311 79.2028)" fill="white" stroke="black" stroke-width="5"/>
<circle cx="207.101" cy="123.746" r="18" transform="rotate(5 207.101 123.746)" fill="#424242"/>
<rect x="23.903" y="84.1206" width="56.4254" height="85" rx="10.5" transform="rotate(-5 23.903 84.1206)" fill="white" stroke="black" stroke-width="5"/>
<circle cx="49.5665" cy="143.108" r="7.5" transform="rotate(-5 49.5665 143.108)" fill="#7CB342"/>
<circle cx="65.506" cy="141.714" r="7.5" transform="rotate(-5 65.506 141.714)" fill="#7CB342"/>
<circle cx="61.8576" cy="104.892" r="7.5" transform="rotate(-5 61.8576 104.892)" fill="#7CB342"/>
<circle cx="45.9181" cy="106.286" r="7.5" transform="rotate(-5 45.9181 106.286)" fill="#7CB342"/>
<rect x="103.5" y="73.5" width="56.4254" height="85" rx="10.5" fill="white" stroke="black" stroke-width="5"/>
<rect x="109.713" y="117.713" width="20" height="20" rx="5" fill="#1D89F3"/>
<rect x="109.713" y="94.7131" width="20" height="20" rx="5" fill="#1D89F3"/>
<rect x="132.713" y="117.713" width="20" height="20" rx="5" fill="#1D89F3"/>
<rect x="132.713" y="94.7131" width="20" height="20" rx="5" fill="#1D89F3"/>
<mask id="path-44-outside-1_154_8774" maskUnits="userSpaceOnUse" x="46" y="172" width="30" height="32" fill="black">
<rect fill="white" x="46" y="172" width="30" height="32"/>
<path d="M70.2099 184.766L65.8548 184.766C65.7752 184.202 65.6128 183.702 65.3675 183.264C65.1223 182.82 64.8074 182.442 64.4229 182.131C64.0385 181.819 63.5943 181.58 63.0906 181.415C62.5934 181.249 62.0531 181.166 61.4698 181.166C60.4158 181.166 59.4978 181.428 58.7156 181.952C57.9334 182.469 57.3268 183.224 56.896 184.219C56.4651 185.206 56.2496 186.406 56.2496 187.818C56.2496 189.27 56.4651 190.49 56.896 191.477C57.3335 192.465 57.9433 193.211 58.7255 193.714C59.5077 194.218 60.4125 194.47 61.44 194.47C62.0167 194.47 62.5503 194.394 63.0408 194.241C63.538 194.089 63.9788 193.867 64.3633 193.575C64.7477 193.277 65.0659 192.916 65.3178 192.491C65.5763 192.067 65.7553 191.583 65.8548 191.04L70.2099 191.06C70.0972 191.994 69.8155 192.896 69.3647 193.764C68.9206 194.626 68.3207 195.398 67.565 196.081C66.8159 196.757 65.921 197.294 64.8803 197.692C63.8462 198.083 62.6763 198.278 61.3704 198.278C59.5541 198.278 57.93 197.867 56.4982 197.045C55.073 196.223 53.9461 195.034 53.1175 193.476C52.2956 191.918 51.8846 190.032 51.8846 187.818C51.8846 185.598 52.3022 183.708 53.1374 182.151C53.9727 180.593 55.1062 179.406 56.538 178.591C57.9698 177.769 59.5806 177.358 61.3704 177.358C62.5503 177.358 63.6441 177.524 64.6516 177.855C65.6658 178.187 66.564 178.67 67.3462 179.307C68.1284 179.937 68.7648 180.709 69.2553 181.624C69.7525 182.538 70.0707 183.586 70.2099 184.766Z"/>
</mask>
<path d="M70.2099 184.766L65.8548 184.766C65.7752 184.202 65.6128 183.702 65.3675 183.264C65.1223 182.82 64.8074 182.442 64.4229 182.131C64.0385 181.819 63.5943 181.58 63.0906 181.415C62.5934 181.249 62.0531 181.166 61.4698 181.166C60.4158 181.166 59.4978 181.428 58.7156 181.952C57.9334 182.469 57.3268 183.224 56.896 184.219C56.4651 185.206 56.2496 186.406 56.2496 187.818C56.2496 189.27 56.4651 190.49 56.896 191.477C57.3335 192.465 57.9433 193.211 58.7255 193.714C59.5077 194.218 60.4125 194.47 61.44 194.47C62.0167 194.47 62.5503 194.394 63.0408 194.241C63.538 194.089 63.9788 193.867 64.3633 193.575C64.7477 193.277 65.0659 192.916 65.3178 192.491C65.5763 192.067 65.7553 191.583 65.8548 191.04L70.2099 191.06C70.0972 191.994 69.8155 192.896 69.3647 193.764C68.9206 194.626 68.3207 195.398 67.565 196.081C66.8159 196.757 65.921 197.294 64.8803 197.692C63.8462 198.083 62.6763 198.278 61.3704 198.278C59.5541 198.278 57.93 197.867 56.4982 197.045C55.073 196.223 53.9461 195.034 53.1175 193.476C52.2956 191.918 51.8846 190.032 51.8846 187.818C51.8846 185.598 52.3022 183.708 53.1374 182.151C53.9727 180.593 55.1062 179.406 56.538 178.591C57.9698 177.769 59.5806 177.358 61.3704 177.358C62.5503 177.358 63.6441 177.524 64.6516 177.855C65.6658 178.187 66.564 178.67 67.3462 179.307C68.1284 179.937 68.7648 180.709 69.2553 181.624C69.7525 182.538 70.0707 183.586 70.2099 184.766Z" fill="white"/>
<path d="M70.2099 184.766L70.2099 189.766C71.638 189.766 72.998 189.155 73.9468 188.088C74.8956 187.02 75.3428 185.598 75.1754 184.18L70.2099 184.766ZM65.8548 184.766L60.9039 185.465C61.2521 187.931 63.3634 189.766 65.8548 189.766L65.8548 184.766ZM65.3675 183.264L60.9906 185.681C60.9958 185.691 61.0009 185.7 61.0061 185.709L65.3675 183.264ZM64.4229 182.131L61.275 186.015L61.275 186.015L64.4229 182.131ZM63.0906 181.415L61.5094 186.158C61.5157 186.16 61.5219 186.162 61.5282 186.164L63.0906 181.415ZM58.7156 181.952L61.4727 186.123C61.4809 186.117 61.489 186.112 61.4972 186.107L58.7156 181.952ZM56.896 184.219L61.4789 186.218L61.4837 186.207L56.896 184.219ZM56.896 191.477L52.313 193.477C52.3168 193.485 52.3206 193.494 52.3244 193.502L56.896 191.477ZM58.7255 193.714L56.0181 197.918L56.0181 197.918L58.7255 193.714ZM63.0408 194.241L61.5749 189.461C61.5689 189.463 61.5628 189.465 61.5568 189.467L63.0408 194.241ZM64.3633 193.575L67.3852 197.559C67.3996 197.548 67.414 197.537 67.4283 197.526L64.3633 193.575ZM65.3178 192.491L61.0481 189.89C61.0382 189.906 61.0283 189.922 61.0186 189.939L65.3178 192.491ZM65.8548 191.04L65.8776 186.04C63.4546 186.029 61.3724 187.757 60.9364 190.14L65.8548 191.04ZM70.2099 191.06L75.1739 191.658C75.3447 190.242 74.9025 188.82 73.9586 187.751C73.0147 186.682 71.6591 186.066 70.2327 186.06L70.2099 191.06ZM69.3647 193.764L64.927 191.461C64.9247 191.465 64.9225 191.469 64.9203 191.474L69.3647 193.764ZM67.565 196.081L70.9152 199.793L70.917 199.791L67.565 196.081ZM64.8803 197.692L66.6491 202.368C66.6545 202.366 66.6599 202.364 66.6652 202.362L64.8803 197.692ZM56.4982 197.045L54.0002 201.377L54.0089 201.382L56.4982 197.045ZM53.1175 193.476L48.6954 195.809C48.698 195.814 48.7006 195.819 48.7032 195.824L53.1175 193.476ZM53.1374 182.151L57.544 184.513L57.544 184.513L53.1374 182.151ZM56.538 178.591L59.0122 182.936C59.0172 182.933 59.0223 182.93 59.0273 182.927L56.538 178.591ZM64.6516 177.855L63.0893 182.605L63.0985 182.608L64.6516 177.855ZM67.3462 179.307L64.1908 183.185C64.1974 183.191 64.2041 183.196 64.2107 183.201L67.3462 179.307ZM69.2553 181.624L64.8489 183.986C64.8533 183.995 64.8577 184.003 64.8622 184.011L69.2553 181.624ZM70.2099 179.766L65.8548 179.766L65.8548 189.766L70.2099 189.766L70.2099 179.766ZM70.8057 184.067C70.6511 182.972 70.3152 181.865 69.7289 180.819L61.0061 185.709C60.9105 185.539 60.8994 185.433 60.9039 185.465L70.8057 184.067ZM69.7445 180.847C69.1959 179.854 68.4684 178.973 67.5709 178.246L61.275 186.015C61.2161 185.968 61.1585 185.911 61.1063 185.849C61.0544 185.786 61.0165 185.728 60.9906 185.681L69.7445 180.847ZM67.5709 178.246C66.6819 177.526 65.6917 177.007 64.6529 176.665L61.5282 186.164C61.5167 186.161 61.4832 186.148 61.4349 186.123C61.386 186.096 61.3309 186.061 61.275 186.015L67.5709 178.246ZM64.6717 176.671C63.6105 176.318 62.5303 176.166 61.4698 176.166L61.4698 186.166C61.5246 186.166 61.5513 186.17 61.5545 186.171C61.5571 186.171 61.5403 186.168 61.5094 186.158L64.6717 176.671ZM61.4698 176.166C59.5483 176.166 57.6357 176.658 55.9339 177.797L61.4972 186.107C61.4761 186.121 61.4513 186.135 61.4247 186.147C61.3981 186.159 61.3762 186.167 61.3621 186.171C61.3482 186.175 61.3474 186.174 61.3629 186.172C61.3788 186.17 61.4134 186.166 61.4698 186.166L61.4698 176.166ZM55.9584 177.781C54.2471 178.912 53.0631 180.489 52.3082 182.231L61.4837 186.207C61.5423 186.072 61.5802 186.027 61.5733 186.036C61.5703 186.04 61.5594 186.053 61.5401 186.07C61.5206 186.088 61.4976 186.106 61.4727 186.123L55.9584 177.781ZM52.313 182.219C51.5359 184.001 51.2496 185.922 51.2496 187.818L61.2496 187.818C61.2496 186.891 61.3942 186.412 61.4789 186.218L52.313 182.219ZM51.2496 187.818C51.2496 189.732 51.5293 191.68 52.313 193.477L61.4789 189.478C61.4009 189.299 61.2496 188.807 61.2496 187.818L51.2496 187.818ZM52.3244 193.502C53.0921 195.235 54.2895 196.805 56.0181 197.918L61.4329 189.511C61.4618 189.53 61.4885 189.55 61.5111 189.57C61.5336 189.591 61.547 189.606 61.552 189.612C61.5628 189.625 61.5264 189.585 61.4675 189.452L52.3244 193.502ZM56.0181 197.918C57.6907 198.995 59.5562 199.47 61.44 199.47L61.44 189.47C61.3876 189.47 61.3547 189.467 61.3387 189.465C61.3231 189.463 61.3217 189.462 61.3317 189.464C61.342 189.467 61.3587 189.473 61.3791 189.482C61.3996 189.491 61.4181 189.501 61.4329 189.511L56.0181 197.918ZM61.44 199.47C62.459 199.47 63.4989 199.335 64.5249 199.016L61.5568 189.467C61.6017 189.453 61.5744 189.47 61.44 189.47L61.44 199.47ZM64.5068 199.022C65.5217 198.711 66.4978 198.232 67.3852 197.559L61.3413 189.592C61.3969 189.55 61.4498 189.518 61.4948 189.495C61.5393 189.473 61.5682 189.463 61.5749 189.461L64.5068 199.022ZM67.4283 197.526C68.3152 196.838 69.0496 196 69.6171 195.044L61.0186 189.939C61.0473 189.89 61.0868 189.834 61.1381 189.776C61.1894 189.718 61.2443 189.667 61.2983 189.625L67.4283 197.526ZM69.5875 195.093C70.1985 194.091 70.5759 193.018 70.7731 191.939L60.9364 190.14C60.9348 190.149 60.9542 190.044 61.0481 189.89L69.5875 195.093ZM65.8319 196.04L70.187 196.06L70.2327 186.06L65.8776 186.04L65.8319 196.04ZM65.2458 190.461C65.2077 190.777 65.1125 191.103 64.927 191.461L73.8024 196.068C74.5185 194.688 74.9867 193.211 75.1739 191.658L65.2458 190.461ZM64.9203 191.474C64.7656 191.774 64.5449 192.071 64.213 192.371L70.917 199.791C72.0965 198.725 73.0755 197.478 73.8092 196.055L64.9203 191.474ZM64.2147 192.369C63.9692 192.591 63.6196 192.821 63.0954 193.021L66.6652 202.362C68.2225 201.767 69.6627 200.923 70.9152 199.793L64.2147 192.369ZM63.1116 193.015C62.7349 193.158 62.1791 193.278 61.3704 193.278L61.3704 203.278C63.1734 203.278 64.9576 203.008 66.6491 202.368L63.1116 193.015ZM61.3704 193.278C60.3378 193.278 59.5876 193.054 58.9876 192.709L54.0089 201.382C56.2725 202.681 58.7704 203.278 61.3704 203.278L61.3704 193.278ZM58.9963 192.714C58.4423 192.395 57.9535 191.92 57.5319 191.128L48.7032 195.824C49.9388 198.147 51.7037 200.052 54.0002 201.377L58.9963 192.714ZM57.5397 191.142C57.1824 190.465 56.8846 189.424 56.8846 187.818L46.8846 187.818C46.8846 190.641 47.4087 193.371 48.6954 195.809L57.5397 191.142ZM56.8846 187.818C56.8846 186.215 57.1857 185.181 57.544 184.513L48.7309 179.788C47.4187 182.235 46.8846 184.98 46.8846 187.818L56.8846 187.818ZM57.544 184.513C57.9682 183.722 58.4581 183.251 59.0122 182.936L54.0638 174.246C51.7543 175.561 49.9771 177.464 48.7309 179.788L57.544 184.513ZM59.0273 182.927C59.6385 182.576 60.3784 182.358 61.3704 182.358L61.3704 172.358C58.7828 172.358 56.3011 172.962 54.0487 174.255L59.0273 182.927ZM61.3704 182.358C62.0786 182.358 62.6391 182.457 63.0893 182.605L66.214 173.105C64.649 172.591 63.022 172.358 61.3704 172.358L61.3704 182.358ZM63.0985 182.608C63.5638 182.76 63.9117 182.958 64.1908 183.185L70.5017 175.428C69.2163 174.383 67.7679 173.613 66.2048 173.102L63.0985 182.608ZM64.2107 183.201C64.4532 183.397 64.6642 183.642 64.8489 183.986L73.6618 179.261C72.8654 177.776 71.8036 176.476 70.4818 175.412L64.2107 183.201ZM64.8622 184.011C65.0159 184.294 65.1692 184.715 65.2443 185.351L75.1754 184.18C74.9722 182.457 74.489 180.783 73.6485 179.236L64.8622 184.011Z" fill="black" mask="url(#path-44-outside-1_154_8774)"/>
<mask id="path-46-outside-2_154_8774" maskUnits="userSpaceOnUse" x="116" y="172" width="28" height="31" fill="black">
<rect fill="white" x="116" y="172" width="28" height="31"/>
<path d="M128.303 198L121.084 198L121.084 177.636L128.363 177.636C130.411 177.636 132.174 178.044 133.653 178.859C135.131 179.668 136.268 180.831 137.063 182.349C137.865 183.867 138.266 185.684 138.266 187.798C138.266 189.92 137.865 191.742 137.063 193.267C136.268 194.792 135.124 195.962 133.633 196.777C132.148 197.592 130.371 198 128.303 198ZM125.39 194.311L128.124 194.311C129.397 194.311 130.467 194.086 131.336 193.635C132.211 193.178 132.867 192.472 133.305 191.517C133.749 190.556 133.971 189.316 133.971 187.798C133.971 186.294 133.749 185.064 133.305 184.109C132.867 183.155 132.214 182.452 131.346 182.001C130.477 181.551 129.407 181.325 128.134 181.325L125.39 181.325L125.39 194.311Z"/>
</mask>
<path d="M128.303 198L121.084 198L121.084 177.636L128.363 177.636C130.411 177.636 132.174 178.044 133.653 178.859C135.131 179.668 136.268 180.831 137.063 182.349C137.865 183.867 138.266 185.684 138.266 187.798C138.266 189.92 137.865 191.742 137.063 193.267C136.268 194.792 135.124 195.962 133.633 196.777C132.148 197.592 130.371 198 128.303 198ZM125.39 194.311L128.124 194.311C129.397 194.311 130.467 194.086 131.336 193.635C132.211 193.178 132.867 192.472 133.305 191.517C133.749 190.556 133.971 189.316 133.971 187.798C133.971 186.294 133.749 185.064 133.305 184.109C132.867 183.155 132.214 182.452 131.346 182.001C130.477 181.551 129.407 181.325 128.134 181.325L125.39 181.325L125.39 194.311Z" fill="white"/>
<path d="M121.084 198L116.084 198C116.084 200.761 118.323 203 121.084 203L121.084 198ZM121.084 177.636L121.084 172.636C118.323 172.636 116.084 174.875 116.084 177.636L121.084 177.636ZM133.653 178.859L131.238 183.238C131.243 183.24 131.248 183.243 131.253 183.246L133.653 178.859ZM137.063 182.349L132.634 184.67C132.637 184.675 132.64 184.68 132.642 184.685L137.063 182.349ZM137.063 193.267L132.638 190.939C132.635 190.944 132.633 190.949 132.63 190.954L137.063 193.267ZM133.633 196.777L131.234 192.39L131.226 192.394L133.633 196.777ZM125.39 194.311L120.39 194.311C120.39 197.073 122.628 199.311 125.39 199.311L125.39 194.311ZM131.336 193.635L133.639 198.073C133.644 198.07 133.648 198.068 133.652 198.066L131.336 193.635ZM133.305 191.517L128.766 189.42C128.763 189.424 128.761 189.429 128.759 189.434L133.305 191.517ZM133.305 184.109L128.759 186.193C128.763 186.201 128.767 186.21 128.771 186.219L133.305 184.109ZM131.346 182.001L133.649 177.564L133.649 177.564L131.346 182.001ZM125.39 181.325L125.39 176.325C122.628 176.325 120.39 178.564 120.39 181.325L125.39 181.325ZM128.303 193L121.084 193L121.084 203L128.303 203L128.303 193ZM126.084 198L126.084 177.636L116.084 177.636L116.084 198L126.084 198ZM121.084 182.636L128.363 182.636L128.363 172.636L121.084 172.636L121.084 182.636ZM128.363 182.636C129.746 182.636 130.641 182.909 131.238 183.238L136.067 174.481C133.707 173.179 131.077 172.636 128.363 172.636L128.363 182.636ZM131.253 183.246C131.85 183.573 132.288 184.01 132.634 184.67L141.492 180.029C140.247 177.653 138.411 175.764 136.052 174.473L131.253 183.246ZM132.642 184.685C132.986 185.335 133.266 186.312 133.266 187.798L143.266 187.798C143.266 185.055 142.745 182.4 141.484 180.014L132.642 184.685ZM133.266 187.798C133.266 189.293 132.985 190.28 132.638 190.939L141.488 195.595C142.745 193.205 143.266 190.546 143.266 187.798L133.266 187.798ZM132.63 190.954C132.287 191.612 131.846 192.055 131.234 192.39L136.031 201.164C138.402 199.868 140.248 197.971 141.496 195.58L132.63 190.954ZM131.226 192.394C130.625 192.724 129.714 193 128.303 193L128.303 203C131.028 203 133.671 202.46 136.039 201.16L131.226 192.394ZM125.39 199.311L128.124 199.311L128.124 189.311L125.39 189.311L125.39 199.311ZM128.124 199.311C129.965 199.311 131.878 198.987 133.639 198.073L129.032 189.197C129.057 189.184 128.828 189.311 128.124 189.311L128.124 199.311ZM133.652 198.066C135.575 197.061 136.982 195.495 137.85 193.6L128.759 189.434C128.743 189.47 128.756 189.429 128.822 189.358C128.89 189.285 128.966 189.232 129.019 189.204L133.652 198.066ZM137.843 193.614C138.693 191.775 138.971 189.75 138.971 187.798L128.971 187.798C128.971 188.883 128.804 189.337 128.766 189.42L137.843 193.614ZM138.971 187.798C138.971 185.855 138.692 183.836 137.838 182L128.771 186.219C128.805 186.292 128.971 186.732 128.971 187.798L138.971 187.798ZM137.85 182.026C136.985 180.138 135.581 178.566 133.649 177.564L129.042 186.439C128.978 186.406 128.896 186.347 128.824 186.27C128.755 186.196 128.741 186.154 128.759 186.193L137.85 182.026ZM133.649 177.564C131.888 176.649 129.975 176.325 128.134 176.325L128.134 186.325C128.838 186.325 129.067 186.452 129.042 186.439L133.649 177.564ZM128.134 176.325L125.39 176.325L125.39 186.325L128.134 186.325L128.134 176.325ZM120.39 181.325L120.39 194.311L130.39 194.311L130.39 181.325L120.39 181.325Z" fill="black" mask="url(#path-46-outside-2_154_8774)"/>
<mask id="path-48-outside-3_154_8774" maskUnits="userSpaceOnUse" x="185" y="172" width="24" height="31" fill="black">
<rect fill="white" x="185" y="172" width="24" height="31"/>
<path d="M190.198 198L190.198 177.636L203.919 177.636L203.919 181.186L194.503 181.186L194.503 186.038L203.213 186.038L203.213 189.588L194.503 189.588L194.503 194.45L203.959 194.45L203.959 198L190.198 198Z"/>
</mask>
<path d="M190.198 198L190.198 177.636L203.919 177.636L203.919 181.186L194.503 181.186L194.503 186.038L203.213 186.038L203.213 189.588L194.503 189.588L194.503 194.45L203.959 194.45L203.959 198L190.198 198Z" fill="white"/>
<path d="M190.198 198L185.198 198C185.198 200.761 187.436 203 190.198 203L190.198 198ZM190.198 177.636L190.198 172.636C187.436 172.636 185.198 174.875 185.198 177.636L190.198 177.636ZM203.919 177.636L208.919 177.636C208.919 174.875 206.681 172.636 203.919 172.636L203.919 177.636ZM203.919 181.186L203.919 186.186C206.681 186.186 208.919 183.948 208.919 181.186L203.919 181.186ZM194.503 181.186L194.503 176.186C191.742 176.186 189.503 178.425 189.503 181.186L194.503 181.186ZM194.503 186.038L189.503 186.038C189.503 188.8 191.742 191.038 194.503 191.038L194.503 186.038ZM203.213 186.038L208.213 186.038C208.213 183.277 205.975 181.038 203.213 181.038L203.213 186.038ZM203.213 189.588L203.213 194.588C205.975 194.588 208.213 192.349 208.213 189.588L203.213 189.588ZM194.503 189.588L194.503 184.588C191.742 184.588 189.503 186.827 189.503 189.588L194.503 189.588ZM194.503 194.45L189.503 194.45C189.503 197.212 191.742 199.45 194.503 199.45L194.503 194.45ZM203.959 194.45L208.959 194.45C208.959 191.689 206.72 189.45 203.959 189.45L203.959 194.45ZM203.959 198L203.959 203C206.72 203 208.959 200.761 208.959 198L203.959 198ZM195.198 198L195.198 177.636L185.198 177.636L185.198 198L195.198 198ZM190.198 182.636L203.919 182.636L203.919 172.636L190.198 172.636L190.198 182.636ZM198.919 177.636L198.919 181.186L208.919 181.186L208.919 177.636L198.919 177.636ZM203.919 176.186L194.503 176.186L194.503 186.186L203.919 186.186L203.919 176.186ZM189.503 181.186L189.503 186.038L199.503 186.038L199.503 181.186L189.503 181.186ZM194.503 191.038L203.213 191.038L203.213 181.038L194.503 181.038L194.503 191.038ZM198.213 186.038L198.213 189.588L208.213 189.588L208.213 186.038L198.213 186.038ZM203.213 184.588L194.503 184.588L194.503 194.588L203.213 194.588L203.213 184.588ZM189.503 189.588L189.503 194.45L199.503 194.45L199.503 189.588L189.503 189.588ZM194.503 199.45L203.959 199.45L203.959 189.45L194.503 189.45L194.503 199.45ZM198.959 194.45L198.959 198L208.959 198L208.959 194.45L198.959 194.45ZM203.959 193L190.198 193L190.198 203L203.959 203L203.959 193Z" fill="black" mask="url(#path-48-outside-3_154_8774)"/>
<defs>
<clipPath id="clip0_154_8774">
<rect x="7" y="64" width="252" height="144" rx="10" fill="white"/>
</clipPath>
</defs>
</svg>
