<svg width="70" height="70" viewBox="0 0 70 70" fill="none" xmlns="http://www.w3.org/2000/svg">
  <path fill-rule="evenodd" clip-rule="evenodd"
    d="M35 62C49.9117 62 62 49.9117 62 35C62 20.0883 49.9117 8 35 8C20.0883 8 8 20.0883 8 35C8 49.9117 20.0883 62 35 62ZM35 70C54.33 70 70 54.33 70 35C70 15.67 54.33 0 35 0C15.67 0 0 15.67 0 35C0 54.33 15.67 70 35 70Z"
    fill="#F44336" />
  <path fill-rule="evenodd" clip-rule="evenodd"
    d="M22.1716 21.1716C23.7337 19.6095 26.2663 19.6095 27.8284 21.1716L35.5 28.8431L43.1716 21.1716C44.7337 19.6095 47.2663 19.6095 48.8284 21.1716C50.3905 22.7337 50.3905 25.2663 48.8284 26.8284L41.1569 34.5L48.8284 42.1716C50.3905 43.7337 50.3905 46.2663 48.8284 47.8284C47.2663 49.3905 44.7337 49.3905 43.1716 47.8284L35.5 40.1569L27.8284 47.8284C26.2663 49.3905 23.7337 49.3905 22.1716 47.8284C20.6095 46.2663 20.6095 43.7337 22.1716 42.1716L29.8431 34.5L22.1716 26.8284C20.6095 25.2663 20.6095 22.7337 22.1716 21.1716Z"
    fill="#F44336" />
</svg>