<svg xmlns="http://www.w3.org/2000/svg" fill="none" viewBox="0 0 750 1050"><path fill="#fff" d="M0 0h750v1050H0z"/><path fill="#000" d="M42 880v18h18v-18H42Z"/><path fill="#000" fill-rule="evenodd" d="M30 880c0-6.627 5.373-12 12-12h30v42H30v-30Zm36 24v-30H42a6 6 0 0 0-6 6v24h30Z" clip-rule="evenodd"/><path fill="#000" d="M30 916v6h24v-6H30ZM30 946h6v12h-6v-12ZM42 958v12H30v-6h6v-6h6ZM42 958v-6h6v-6h6v18h-6v-6h-6ZM42 988h18v18H42v-18Z"/><path fill="#000" fill-rule="evenodd" d="M30 976v30c0 6.63 5.373 12 12 12h30v-42H30Zm36 36H42c-3.314 0-6-2.69-6-6v-24h30v30Z" clip-rule="evenodd"/><path fill="#000" d="M42 922h-6v6h6v6h-6v12h6v-6h6v6h24v-6h6v-6h6v-12h-6v6H66v6h6v6H48v-6h6v-6h6v-6h-6v6H42v-6ZM66 946h-6v6h6v6h-6v12h12v-6h-6v-6h12v6h6v-6h-6v-6h6v-6h-6v6H66v-6ZM72 916h-6v6h6v-6ZM78 868h6v6h-6v-6ZM84 880h-6v18h6v-18ZM78 904h6v6h-6v-6ZM84 916h-6v6h6v-6ZM78 970h6v6h-6v-6ZM84 994h-6v24h6v-24ZM84 868v6h12v6h-6v6h-6v18h6v6h-6v6h6v-6h6v6h6v-6h6v-18h-6v18h-6v-6h-6v-18h6v-6h6v-12H84ZM84 922h6v6h-6v-6ZM90 940h-6v6h6v-6ZM84 946h12v18h-6v6h-6v-12h6v-6h-6v-6Z"/><path fill="#000" fill-rule="evenodd" d="M90 976h-6v6h6v12h-6v12h6v6h-6v6h12v-12h6v6h6v-12h-6v-6h6v-6h-6v6h-6v-12h-6v-6Zm6 30h-6v-6h6v6Z" clip-rule="evenodd"/><path fill="#000" d="M102 922h-6v24h12v-12h-6v-12ZM96 970v6h12v-6H96ZM108 952h-6v12h6v-12ZM102 976h6v6h-6v-6ZM108 880h12v6h6v6h6v6h-18v-6h-6v-12ZM108 922h6v6h6v12h-6v6h-6v-24ZM120 940h12v-12h-6v-6h6v6h6v18h-18v-6ZM108 946h24v12h6v12h-6v6h-6v-6h-6v-12h6v-6h-6v6h-6v-6h-6v-6ZM114 964h-6v6h6v-6ZM108 1006h6v-6h12v12h-6v6h-12v-12ZM120 904h-6v6h6v-6ZM114 916h24v6h-24v-6Z"/><path fill="#000" d="M120 976h-6v6h6v6h-6v6h6v-6h6v6h6v24h6v-30h-6v-12h-6v6h-6v-6ZM126 868h6v6h-6v-6ZM126 904h6v6h-6v-6ZM150 880v18h18v-18h-18Z"/><path fill="#000" fill-rule="evenodd" d="M138 868v42h42v-30c0-6.627-5.373-12-12-12h-30Zm36 36h-30v-30h24a6 6 0 0 1 6 6v24Z" clip-rule="evenodd"/><path fill="#000" d="M138 928h6v-6h6v6h6v6h-6v-6h-6v6h-6v-6ZM156 940v-6h12v6h12v6h-18v-6h-6ZM156 940v6h-6v-6h6ZM144 940h-6v6h6v-6Z"/><path fill="#000" fill-rule="evenodd" d="M138 946h18v18h18v-6h6v18h-6v-6h-6v6h-6v-6h-6v6h-6v-6h-12v-24Zm12 12v-6h-6v6h6Z" clip-rule="evenodd"/><path fill="#000" d="M174 952v6h-12v-6h12ZM174 952v-6h6v6h-6ZM138 976h6v6h-6v-6Z"/><path fill="#000" fill-rule="evenodd" d="M138 988v30h36c3.314 0 6-2.69 6-6h-12v-6h6v-6h6v-24h-18v6h6v12h-6v-6h-6v-12h-6v12h-12Zm24 24h-6v-12h6v12Zm-12 0h-6v-18h6v18Z" clip-rule="evenodd"/><path fill="#000" d="M150 916v6h18v-6h-18ZM168 922h6v6h-6v-6ZM174 916h6v6h-6v-6Z"/><path fill="#FDD835" d="m457.53 457.519 8.413 19.187a4.403 4.403 0 0 0 3.637 2.619l20.494 1.838c2.319.337 3.244 3.181 1.562 4.818l-15.437 12.969a4.396 4.396 0 0 0-1.475 4.294l4.487 21.006c.394 2.306-2.025 4.069-4.1 2.975l-17.887-10.475a4.397 4.397 0 0 0-4.45 0l-17.888 10.469c-2.068 1.087-4.493-.669-4.1-2.975l4.488-21.007a4.41 4.41 0 0 0-1.475-4.293l-15.444-12.956c-1.675-1.632-.75-4.482 1.563-4.819l20.493-1.838a4.405 4.405 0 0 0 3.638-2.618l8.412-19.188c1.044-2.1 4.032-2.1 5.069-.006Z"/><path fill="#D2A008" fill-rule="evenodd" d="M469.673 478.263a3.338 3.338 0 0 1-2.756-1.985l-8.433-19.233c-1.431-2.888-5.546-2.88-6.98.006l-.012.022-8.422 19.212a3.339 3.339 0 0 1-2.756 1.984l-20.523 1.84-.03.005c-3.187.465-4.461 4.39-2.152 6.638l.028.028 15.474 12.981a3.343 3.343 0 0 1 1.117 3.255v.001l-4.492 21.026-.003.021c-.543 3.18 2.798 5.597 5.647 4.099l.022-.011 17.908-10.481.001-.001a3.334 3.334 0 0 1 3.371 0l17.909 10.488.021.011c2.86 1.508 6.19-.924 5.648-4.098l-.003-.022-4.492-21.028-.001-.002a3.33 3.33 0 0 1 1.119-3.252l15.467-12.994.028-.027c2.315-2.255 1.041-6.174-2.153-6.639l-.029-.004-20.523-1.84Zm-29.264 1.069-20.494 1.837c-2.312.338-3.237 3.188-1.562 4.819l15.444 12.956a4.41 4.41 0 0 1 1.475 4.294l-4.488 21.006c-.394 2.306 2.031 4.063 4.1 2.975l17.888-10.469a4.397 4.397 0 0 1 4.45 0l17.887 10.475c2.075 1.094 4.494-.668 4.1-2.975l-4.487-21.006a4.396 4.396 0 0 1 1.475-4.294l15.437-12.968c1.681-1.638.756-4.482-1.562-4.819l-20.494-1.838a4.405 4.405 0 0 1-3.638-2.618l-8.412-19.188c-1.038-2.094-4.025-2.094-5.069.006l-8.412 19.188a4.406 4.406 0 0 1-3.638 2.619Z" clip-rule="evenodd"/><path fill="#FFFF8D" d="m456.917 477.857-1.425-14.137c-.056-.788-.219-2.138 1.044-2.138 1 0 1.543 2.081 1.543 2.081l4.275 11.35c1.613 4.319.95 5.8-.606 6.675-1.787 1-4.425.219-4.831-3.831Z"/><path fill="#F4B400" d="m474.546 497.693 12.263-9.569c.606-.506 1.7-1.312.825-2.231-.694-.725-2.569.319-2.569.319l-10.731 4.193c-3.2 1.107-5.325 2.744-5.513 4.807-.243 2.75 2.225 4.868 5.725 2.481Z"/><path fill="#fff" d="M490.276 620.019a18.664 18.664 0 0 0 1.85-8.138c0-10.375-8.406-18.781-18.781-18.781-2.431 0-4.756.469-6.894 1.313-2.731-2.382-6.312-3.851-10.2-3.851-4.75 0-9 2.126-11.812 5.438a15.332 15.332 0 0 0-7.313-1.875c-8.375.063-15.187 6.812-15.187 15.187 0 3.126.937 6.063 2.625 8.501-3.125 2.5-5.313 6.187-5.75 10.5-.813 8.375 5.375 15.937 13.875 16.75 2 .187 3.875 0 5.687-.5a13.232 13.232 0 0 0 13.188 11.875c4.375 0 8.25-2.125 10.625-5.375 2.25 1.75 5.062 2.875 8.187 2.875 6.875 0 12.563-5.313 13.063-12 5.312-2.438 9.062-7.813 9.062-14.063 0-2.869-.831-5.575-2.225-7.856Z"/><path fill="#000" fill-rule="evenodd" d="M444.071 594.033a17.08 17.08 0 0 1 12.179-5.07c3.951 0 7.609 1.373 10.509 3.632a20.313 20.313 0 0 1 6.585-1.095c11.258 0 20.381 9.123 20.381 20.382 0 2.859-.587 5.58-1.653 8.052a16.647 16.647 0 0 1 2.028 7.941c0 6.576-3.756 12.262-9.167 15.109-.995 7.086-7.172 12.554-14.558 12.554-2.944 0-5.629-.888-7.89-2.314a14.738 14.738 0 0 1-10.923 4.814 14.833 14.833 0 0 1-14.49-11.547 17.23 17.23 0 0 1-4.534.165h-.003c-9.379-.897-16.213-9.241-15.315-18.498l.001-.007c.431-4.249 2.4-7.945 5.26-10.646a16.532 16.532 0 0 1-2.144-8.192c0-9.27 7.538-16.719 16.776-16.788h.012c2.462 0 4.819.547 6.946 1.508Zm12.179-1.87a13.87 13.87 0 0 0-10.593 4.873l-.841.99-1.142-.619a13.72 13.72 0 0 0-6.543-1.682c-7.509.06-13.594 6.109-13.594 13.588 0 2.801.84 5.421 2.341 7.589l.85 1.228-1.166.932c-2.81 2.248-4.765 5.551-5.157 9.409-.725 7.491 4.814 14.269 12.432 14.999 1.801.169 3.481.001 5.112-.449l1.824-.504.194 1.882a11.63 11.63 0 0 0 11.595 10.439c3.847 0 7.249-1.867 9.334-4.719l.972-1.331 1.302 1.012c2.002 1.557 4.476 2.538 7.205 2.538 6.045 0 11.03-4.674 11.467-10.519l.07-.942.858-.393c4.773-2.19 8.13-7.015 8.13-12.609 0-2.558-.741-4.977-1.99-7.022l-.455-.744.379-.785a17.067 17.067 0 0 0 1.691-7.442c0-9.492-7.69-17.182-17.181-17.182-2.224 0-4.35.429-6.307 1.201l-.905.357-.734-.639c-2.456-2.142-5.669-3.456-9.148-3.456Z" clip-rule="evenodd"/><path fill="#fff" d="M430.188 648.813c-2.813-.313-5.313 1.75-5.625 4.562a5.027 5.027 0 0 0 4.562 5.563c2.813.312 5.313-1.75 5.625-4.563a5.026 5.026 0 0 0-4.562-5.562Z"/><path fill="#000" fill-rule="evenodd" d="M430.304 647.619c3.471.316 6.023 3.408 5.636 6.89-.383 3.445-3.451 6.004-6.937 5.624-3.472-.316-6.023-3.408-5.636-6.889.383-3.446 3.45-6.005 6.937-5.625Zm-.252 2.387c-2.133-.237-4.058 1.328-4.3 3.503a3.827 3.827 0 0 0 3.476 4.234l.013.001.014.002c2.133.237 4.058-1.328 4.299-3.502a3.827 3.827 0 0 0-3.476-4.235l-.013-.001-.013-.002Z" clip-rule="evenodd"/><path fill="#fff" d="M420.626 659.437a3.433 3.433 0 0 0-3.75 3.063c-.187 1.875 1.188 3.5 3.063 3.687a3.431 3.431 0 0 0 3.75-3.062c.187-1.813-1.188-3.5-3.063-3.688Z"/><path fill="#000" fill-rule="evenodd" d="M415.68 662.381c.253-2.537 2.531-4.39 5.063-4.137 2.521.252 4.393 2.517 4.137 5.003a4.632 4.632 0 0 1-5.063 4.135c-2.512-.251-4.393-2.444-4.137-5.001Zm4.824-1.749a2.231 2.231 0 0 0-2.436 1.988c-.12 1.193.749 2.25 1.987 2.374a2.232 2.232 0 0 0 2.437-1.988v-.004c.118-1.138-.76-2.247-1.988-2.37Z" clip-rule="evenodd"/><path fill="#424242" d="M608.331 625.778c-.462 0-.931-.144-1.331-.444-10.082-7.562-16.535-20.478-16.444-32.905.009-1.229.915-2.166 2.237-2.206A2.222 2.222 0 0 1 595 592.46c-.082 11.067 5.676 22.576 14.667 29.318a2.222 2.222 0 0 1-1.336 4Z"/><path fill="#424242" d="M610.553 630.221c-.837 0-20.606-.218-28.708-19.125a2.221 2.221 0 1 1 4.084-1.751c6.962 16.245 23.907 16.431 24.624 16.431a2.222 2.222 0 1 1 0 4.445Z"/><path fill="#424242" d="M583.886 652.445c-.231 0-.469-.038-.702-.116a2.22 2.22 0 0 1-1.405-2.811c3.085-9.253 10.487-20.12 28.245-19.316.226.011.406.02.528.02a2.223 2.223 0 1 1 0 4.445c-.168 0-.415-.011-.728-.025-12.025-.526-20.047 4.938-23.829 16.283a2.225 2.225 0 0 1-2.109 1.52Z"/><path fill="#424242" d="M592.777 668a2.22 2.22 0 0 1-2.222-2.222c0-9.989 7.173-28.229 18.855-35.238a2.222 2.222 0 0 1 2.287 3.812c-10.038 6.022-16.698 22.904-16.698 31.426a2.22 2.22 0 0 1-2.222 2.222Zm28.891-42.222a2.216 2.216 0 0 1-1.78-.889 2.22 2.22 0 0 1 .444-3.111c8.992-6.744 14.749-18.251 14.667-29.318a2.221 2.221 0 0 1 2.205-2.237h.017c1.22 0 2.214.984 2.223 2.206.093 12.427-6.363 25.343-16.445 32.905-.4.3-.867.444-1.331.444Z"/><path fill="#424242" d="M619.449 630.222a2.222 2.222 0 1 1 0-4.445c.718 0 17.662-.186 24.624-16.431a2.225 2.225 0 0 1 2.916-1.166 2.218 2.218 0 0 1 1.166 2.917c-8.102 18.907-27.868 19.125-28.706 19.125Z"/><path fill="#424242" d="M646.115 652.444a2.22 2.22 0 0 1-2.106-1.52c-3.782-11.344-11.762-16.798-23.831-16.282-.314.013-.56.024-.729.024a2.22 2.22 0 0 1-2.222-2.222 2.22 2.22 0 0 1 2.222-2.222c.122 0 .302-.009.529-.02 17.731-.8 25.162 10.062 28.244 19.315a2.221 2.221 0 0 1-2.107 2.927Z"/><path fill="#424242" d="M637.22 668a2.22 2.22 0 0 1-2.222-2.223c0-8.522-6.66-25.404-16.7-31.429a2.222 2.222 0 0 1 2.287-3.811c11.682 7.011 18.857 25.251 18.857 35.24A2.22 2.22 0 0 1 637.22 668Z"/><path fill="#424242" d="M614.997 659.11c7.364 0 13.334-6.757 13.334-15.093s-5.97-15.093-13.334-15.093c-7.363 0-13.333 6.757-13.333 15.093s5.97 15.093 13.333 15.093Z"/><path fill="#424242" d="M614.998 639.112c4.909 0 8.889-5.97 8.889-13.333 0-7.364-3.98-13.334-8.889-13.334-4.909 0-8.889 5.97-8.889 13.334 0 7.363 3.98 13.333 8.889 13.333Z"/><path fill="#424242" d="M610.554 619.111a2.216 2.216 0 0 1-1.571-.651c-2.874-2.873-2.874-5.847-2.874-8.238a2.224 2.224 0 0 1 4.445 0c0 2.045 0 3.525 1.571 5.096a2.22 2.22 0 0 1 0 3.142 2.216 2.216 0 0 1-1.571.651Zm8.889 0a2.216 2.216 0 0 1-1.571-.651 2.22 2.22 0 0 1 0-3.142c1.571-1.571 1.571-3.051 1.571-5.096a2.222 2.222 0 1 1 4.444 0c0 2.391 0 5.365-2.873 8.238a2.218 2.218 0 0 1-1.571.651Z"/><path fill="#FF94CD" d="M133.385 732.112s1.125-5.456 2.325-5.775c1.206-.318 6.462.819 9.043 2.188 3.607 1.906 5.832 5.087 6.363 8.962.562 4.15-1.044 7.625-1.044 7.625s3.769-2.243 8.263-1.843c4.493.4 7.862 2.568 9.15 4.175 1.281 1.606 3.05 3.368 2.806 4.175-.244.8-4.894 3.693-4.656 4.412.243.725 5.7.319 6.256 1.281.562.963 1.687 7.144-2.406 11.557-4.094 4.412-8.107 5.056-8.107 5.056s4.05 3.806 4.263 9.006c.175 4.256-.969 6.8-3.294 7.688-2.325.881-6.662-1.925-6.662-1.925s3.768 6.737 2.087 7.781c-1.687 1.044-2.519-.819-3.212-.644-.569.144.4 1.525-.882 2.731-1.281 1.207-6.818 2.007-11.712-.643-4.894-2.65-6.419-6.819-6.419-6.819s-1.319 5.062-7.337 7.631c-6.019 2.569-10.4-.575-11.2-1.056-.8-.481-.482-4.331-.319-4.975.162-.644.881-2.169.4-2.488-.481-.318-2.088 1.925-3.213 2.65-1.125.725-2.568 1.525-4.012.319-1.444-1.206-4.894-5.219-4.013-10.594.882-5.375 3.932-8.425 3.932-8.425s-6.419-.562-9.55-6.018c-3.132-5.457-2.719-10.913-2.156-11.638.562-.725 5.374-.8 5.374-.8s-4.575-2.65-4.093-4.731c.481-2.088 2.806-.481 3.45-1.125.643-.644-1.638-3.081.162-4.356 1.35-.957 3.725-2.738 8.263-3.107 4.781-.393 8.106 2.007 8.106 2.007s-2.044-3.457-1.2-7.382c.669-3.106 2.969-5.775 5.131-7.3 2.163-1.525 5.056-2.731 6.338-2.731 1.281 0 3.775 5.131 3.775 5.131Z"/><path fill="#FF79C5" d="M144.801 751.981c.862.993 2.681-.363 3.875-2.388.912-1.544 1.956-4.181 1.587-4.506-.369-.325-3.212 1.887-4.175 2.981-.956 1.1-1.969 3.125-1.287 3.913ZM149.635 771.332c-.231 1.475 3.444 2.518 5.4 2.75 1.857.218 6.332.468 6.344-.163.019-.631-3.531-3.087-6.344-3.681-2.468-.519-5.2-.163-5.4 1.094ZM135.785 780.744c-1.256-.075-1.725 2.85-1.494 5.1.232 2.25.713 5.187 1.25 5.243.538.057 1.469-3.193 1.7-6.237.144-1.913-.331-4.038-1.456-4.106ZM109.79 774.162c.088.419 4.425.419 6.744-.243 2.319-.663 3.775-2.019 3.513-3.013-.263-.994-3.175-.712-4.807-.1-2.118.794-5.531 2.944-5.45 3.356ZM119.585 744.626c-.494.362 1.094 3.381 2.156 4.675 1.063 1.293 2.719 2.718 3.544 2.35.831-.363.069-2.982-1.756-4.738-.882-.85-3.444-2.65-3.944-2.287Z"/><path fill="#BF044B" d="M144.004 751.743c-1.138-.587-4.706 4.225-8.869 4.056-4.162-.168-8.45-4.581-9.206-3.906-.756.675 2.281 5.55.694 10.313-1.45 4.356-6.538 7.256-5.988 8.331.513 1.006 5.444-1.081 9.544.987 4.781 2.419 3.869 8.594 5.55 8.638 1.681.044.937-5.388 5.087-8.006 3.994-2.525 8.257-.563 8.619-1.85.419-1.513-5-3.382-6.131-8.55-1.319-5.969 1.881-9.407.7-10.013Z"/><path fill="#F2C559" d="M132.332 759.768c-.856.287-3.075 5.369-2.725 5.994.35.625 4.907 4.556 6.113 4.556 1.206 0 5.175-3.813 5.212-4.4.038-.581-1.943-5.763-2.606-6.15-.662-.388-5.175-.275-5.994 0Z"/><path fill="#FDE1B1" d="M137.999 756.8c-.981.912-1.075 2.662.113 3.643 1.268 1.044 2.993.65 3.725-.368.643-.888.706-2.257-.369-3.219-.663-.594-2.225-1.213-3.469-.056ZM139.553 766.569c-.169 1.638 1.213 2.881 2.594 2.85 1.806-.037 2.475-1.544 2.456-2.569-.031-1.381-.987-2.568-2.512-2.512-1.525.056-2.394.85-2.538 2.231ZM135.66 769.501c-1.213.031-2.482.843-2.457 2.625.025 1.637 1.3 2.368 2.569 2.368s2.313-.906 2.313-2.456c0-1.55-1.125-2.569-2.425-2.537ZM127.928 764.225c-1.806 0-2.569 1.243-2.569 2.656 0 1.412 1.044 2.437 2.713 2.369 1.437-.057 2.331-1.275 2.2-2.625-.144-1.469-.819-2.4-2.344-2.4ZM129.163 756.463c-1.037 1.006-1.075 2.737.032 3.644.862.712 2.4.962 3.412-.088 1.019-1.044.844-2.537-.056-3.412-.9-.882-2.369-1.132-3.388-.144Z"/><path fill="#D4EDEF" d="m257.508 752.961 10.925-16.568 8.462 9.668-19.387 6.9Z"/><path fill="#7AE4EB" d="m282.57 765.663-25.062-12.701 19.387-6.9 5.675 19.601Z"/><path fill="#5ECFE7" d="m294.967 749.912-18.069-3.85 5.675 19.601 12.394-15.751Z"/><path fill="#06B0C5" d="m332.419 752.961-10.925-16.568-8.463 9.668 19.388 6.9Z"/><path fill="#7AE4EB" d="m307.359 765.663 25.063-12.701-19.388-6.9-5.675 19.601Z"/><path fill="#D4EDEF" d="m294.961 749.912 18.069-3.85-5.675 19.601-12.394-15.751Z"/><path fill="#A9E4DA" d="m307.358 765.662-12.394-15.75-12.394 15.75h24.788Z"/><path fill="#A8E9ED" d="M281.873 729.287h26.175l13.444 7.106-8.462 9.669-18.069 3.85-18.069-3.85-8.462-9.669 13.443-7.106Z"/><path fill="#1DB2D7" d="m294.964 796.294-37.456-43.331 25.062 12.7 12.394 30.631Z"/><path fill="#A8E9ED" d="m294.961 796.294 37.456-43.331-25.062 12.7-12.394 30.631Z"/><path fill="#D4EDEF" d="m307.358 765.662-12.394 30.631-12.394-30.631h24.788Z"/><path fill="#B79664" d="M447.232 739.593c-1.86-6.993 2.355-11.422 8.933-12.882a1.02 1.02 0 0 1 .726.119c2.267 1.348 1.318 2.881.578 4.733-.465 1.156-.047 1.864 1.251 2.126 7.371 1.482 10.734 3.808 11.756 11.482.156 1.155-.133 2.081-.644 3.059a.398.398 0 0 0 .303.585c10.497 1.252 16.734 8.948 13.852 19.793-.148.568.067.903.645 1.007 3.266.585 7.385 4.926 8.326 8.015.925 3.074 1.096 7.733.288 10.83-1.486 5.728-5.656 8.597-12.511 8.607-15.486.02-30.977.02-46.474 0a57.369 57.369 0 0 1-7.963-.57c-3.763-.541-8.985-3.689-9.652-7.956-.792-5.022-.126-10.985 5.008-13.356a132.742 132.742 0 0 0 3.304-1.57c.237-.113.316-.296.237-.548-2.2-6.645 1.155-12.511 6.911-15.748a1.264 1.264 0 0 0 .652-1.104c.007-1.822-.126-3.859.281-5.526 1.6-6.511 7.852-9.422 13.911-10.644.252-.05.346-.2.282-.452Z"/><path fill="#9C8057" fill-rule="evenodd" d="M452.85 727.791c.696.98.244 2.059-.267 3.281-.073.176-.147.354-.22.535-.464 1.156-.047 1.865 1.252 2.126 7.37 1.482 10.733 3.808 11.755 11.482.156 1.155-.133 2.081-.644 3.059a.406.406 0 0 0 .125.517c.053.037.114.06.179.068 10.496 1.252 16.733 8.948 13.852 19.793-.149.568.066.904.644 1.007 3.267.585 7.385 4.926 8.326 8.015.926 3.074 1.096 7.733.289 10.83-1.388 5.348-5.115 8.204-11.183 8.567a4747.7 4747.7 0 0 0 3.774-.004c6.855-.01 11.025-2.879 12.511-8.607.808-3.097.637-7.756-.289-10.83-.94-3.089-5.059-7.43-8.325-8.015-.578-.104-.793-.439-.645-1.007 2.882-10.845-3.356-18.541-13.852-19.793a.4.4 0 0 1-.304-.585c.512-.978.8-1.904.645-3.059-1.022-7.674-4.385-10-11.756-11.482-1.298-.262-1.716-.97-1.251-2.126.072-.181.147-.359.22-.535.675-1.615 1.246-2.982-.798-4.198a1.02 1.02 0 0 0-.726-.119c-1.189.264-2.3.625-3.312 1.08Z" clip-rule="evenodd"/><path fill="#EBC181" d="M428.387 767.89c.688.337 1.433-.415 2.48-1.921.546-.787 1.671-1.906 2.207-2.359 1.146-.968 2.561-1.939 1.941-2.978-.664-1.109-3.161-.389-5.032 1.741-1.872 2.13-2.602 5.026-1.596 5.517ZM419.993 786.423c.85.267 1.588-.689 2.551-2.532.501-.963 1.618-2.386 2.163-2.976 1.165-1.258 2.641-2.563 1.754-3.623-.948-1.13-3.714.066-5.527 2.733-1.813 2.668-2.182 6.01-.941 6.398ZM436.296 751.994c.476.489 1.059-.662 2.258-2.617.686-1.118 2.004-1.916 2.62-2.365 1.278-.934 3.24-1.037 3.045-2.32-.209-1.368-3.133-1.23-5.395.923-2.263 2.154-3.223 5.666-2.528 6.379Z"/><path fill="#FF542F" d="m592.735 793.388-3.619 7.275s-7 .156-7.4-.107c-.4-.262-4.987-28.906 15.838-51.862 22.025-24.294 49.7-24.119 50.362-23.319.663.794.5 10.506.5 10.506l-55.681 57.507Z"/><path fill="#FF8E00" d="M619.241 740.632c-13.675 7.731-24 19.431-28.782 37.737-2.275 8.706-1.418 22.281-1.418 22.281h8.075l24.018-35.262 27.288-25.575v-7.475s-16.325 1.019-29.181 8.294Z"/><path fill="#F9D81E" d="M602.51 769.825c-6.593 12.7-5.412 30.825-5.412 30.825l7.881-.007 26.919-35.762 16.525-16.994-.013-8.069s-9.418-.087-24.081 7.013c-11.775 5.694-18.231 16.087-21.819 22.994Z"/><path fill="#60DF6D" d="M615.917 763.457c-13.669 17.081-11.081 37.187-11.081 37.187h8.769l14.975-27.169 19.843-16.456-.006-9.212s-20.287.381-32.5 15.65Z"/><path fill="#00C0E9" d="M623.081 767.301c-13.638 13.093-10.606 33.343-10.606 33.343h7.037L630 774.357l18.425-9.644-.007-9.094s-12.056-1.062-25.337 11.682Z"/><path fill="#8C83FF" d="M648.144 769.699c.419-.656.281-7.5.281-7.5s-11.406-.206-21.018 10.625c-9.594 10.813-8.213 27.819-8.213 27.819s6.575.2 6.844-.331c.537-1.063-1.819-13.581 6.025-22.413 8.125-9.143 15.85-7.85 16.081-8.2Z"/><path fill="url(#a)" d="M117.224 478.455c-.356 3.8-.606 10.525 1.638 13.388 0 0-1.057-7.388 8.412-16.656 3.813-3.732 4.694-8.807 3.363-12.613-.757-2.156-2.138-3.937-3.338-5.181-.7-.731-.162-1.938.856-1.894 6.163.275 16.15 1.988 20.394 12.638 1.863 4.675 2 9.506 1.113 14.418-.563 3.138-2.563 10.113 2 10.969 3.256.613 4.831-1.975 5.537-3.837.294-.775 1.313-.969 1.863-.35 5.5 6.256 5.968 13.625 4.831 19.968-2.2 12.263-14.619 21.188-26.956 21.188-15.413 0-27.682-8.819-30.863-24.781-1.281-6.444-.631-19.194 9.306-28.194.738-.675 1.944-.075 1.844.937Z"/><path fill="url(#b)" d="M142.569 501.386c-5.681-7.312-3.137-15.656-1.744-18.981.188-.438-.312-.85-.706-.581-2.444 1.662-7.45 5.575-9.781 11.081-3.156 7.444-2.931 11.087-1.063 15.537 1.125 2.682-.181 3.25-.837 3.35-.638.1-1.225-.325-1.694-.768a10.062 10.062 0 0 1-2.775-4.75c-.1-.388-.606-.494-.837-.175-1.75 2.418-2.657 6.3-2.7 9.043-.138 8.482 6.868 15.357 15.343 15.357 10.682 0 18.463-11.813 12.325-21.688-1.781-2.875-3.456-4.756-5.531-7.425Z"/><path fill="#0080FD" d="M294.337 455.667c-3.302.056-4.257 2.924-5.438 5.269-1.182 2.344-8.215 15.095-12.769 21.529-4.554 6.435-10.719 14.865-9.843 26.917.884 12.052 12.628 21.05 29.082 20.95 14.874-.087 27.886-6.921 28.418-21.767.438-12.289-8.043-22.907-12.229-29.404-2.488-3.866-10.633-16.804-11.494-18.406-1.541-2.868-2.199-5.15-5.727-5.088Z"/><path fill="#67B3FF" d="M277.341 493.001c-1.877.082-6.341 5.849-6.341 13.12 0 7.271 3.456 12.641 7.229 11.873 4.375-.888 3.658-5.32 2.764-8.864-.767-3.047-1.966-6.648-2.232-9.928-.165-2.121.545-6.289-1.42-6.201Z"/><path fill="#FF8E00" d="M97.784 637.213c1.907 17.868 14.838 27.968 37.144 28.312 22.307.344 30.638-10.469 34.088-16.081 3.962-6.456 10.306-36.806-24.688-43.938-13.368-2.725-23.756-.5-30.918 3.513-12.782 7.15-16.425 20.712-15.626 28.194Z"/><path fill="#5C6A23" d="M166.772 594.993c-.088-.875-3.163-3.95-11.063-4.481-7.9-.531-13.8 2.975-16.481 7.906-2.069 3.807-3.275 6.932-3.275 6.932l4.875.468 20.419-7.137 5.525-3.688Z"/><path fill="#767E3A" d="M150.788 599.382c5.481-1.925 15.981-4.388 15.981-4.388s-1.844 4.125-5.531 7.9c-3.688 3.775-9.694 7.688-18.001 5.619-3.393-.844-5.643-3.056-5.643-3.056s4.944-3.175 13.194-6.075Z"/><path fill="#5C6A23" d="M129.945 595.413c-.468 1 1.088 1.787 2.05 3.45 1.769 3.05 1.769 7.35 1.769 7.35s-3.775.4-3.656 3.694c.106 2.931 2.725 4.137 5.744 4.137 3.293 0 4.575-2.45 4.456-4.056-.188-2.488-2.769-3.45-2.769-3.45s.363-5.7 0-8.55c-.362-2.85-.844-3.575-1.687-3.938-.844-.362-5.3.075-5.907 1.363Z"/><path fill="#FFBD6F" d="M106.415 636.55c2.175.688 4.063-1.775 6.525-6.525 1.282-2.481 4.138-6.15 5.532-7.668 2.981-3.244 6.756-6.607 4.487-9.338-2.425-2.912-9.5.169-14.137 7.044-4.638 6.875-5.582 15.487-2.407 16.487Z"/><path fill="#FF6110" d="M147.522 613.682c-.356 1.425.269 2.631 1.319 2.719 1.263.106 1.888-1.106 1.913-2.344.018-1-.644-1.669-1.507-1.75-.868-.075-1.512.513-1.725 1.375ZM156.028 619.819c-.931 1-1.031 2.918.163 3.662 1.344.838 2.744-.269 3.206-1.212.363-.744.563-1.957-.294-2.744-1.031-.944-2.325-.513-3.075.294ZM161.76 623.987c-.238 1.2.269 2.575 1.544 2.768 1.275.194 2.137-1.043 2.212-1.956.1-1.15-.35-2.075-1.362-2.462-1.013-.4-2.182.562-2.394 1.65ZM162.497 629.92c-.843-.413-2.512-.069-3.081 1.931-.462 1.625.069 3.2 1.25 3.487 1.588.382 2.638-.85 2.906-2.237.307-1.556-.1-2.7-1.075-3.181ZM157.105 643.212c1.187.912.662 2.494-.244 3.419-.994 1.025-2.475 1.131-3.206.406-.725-.725-.513-2.206.512-3.231s2.3-1.088 2.938-.594ZM141.352 654.168c.482.988-.212 2.263-1.131 2.932-.731.537-2.612 1.106-3.5-.188-.731-1.062-.187-2.181 1.025-3.094 1.213-.912 3.069-.75 3.606.35Z"/><path fill="#854CE8" d="m267.522 604.131-6.756 4.469s-.969 1.9.344 8.331c1.312 6.431 7.237 19.156 19.169 31.231 10.293 10.413 22.312 15.488 32.881 16.031 10.569.544 15.65-6.287 15.65-6.287l-61.288-53.775Z"/><path fill="#985DFF" d="m273.297 600.863-5.781 9.975s3.637 13.244 9.768 21.488c6.65 8.937 14.257 16.7 26.175 22.756 10.169 5.169 19.682 7.131 19.682 7.131s6.206-2.481 8.681-9.362c2.356-6.55-.763-13.731-5.231-17.219-4.469-3.487-13.413-5.644-21.563-9.975-8.644-4.594-15.05-9.962-20.712-16.062-3.544-3.813-4.363-5.438-4.482-6.125-.056-.325-.262-.6-.575-.7l-5.962-1.907Z"/><path fill="#BDCF46" d="m269.197 611.757-.506 3.587s.918 1.219 2.018 1.125c1.1-.093 2.794-2.925 3.219-4.856.625-2.825.288-4.4.288-4.4s2.2 1.15 5.5.669c3.3-.481 4.975-2.344 5.406-3.3.431-.956.337-2.013-.144-2.25-.481-.238-2.825.812-2.825.812l-7.462-.287-7.082 2.056 1.588 6.844ZM256.875 617.006s-.994.375-.694 1.475c.213.763 2.038 1.969 4.469.75 2.431-1.218 3.981-4.45 4.588-5.981 1-2.537 1.437-4.281 1.437-4.281l-3.375-2-3 7.219s-1.35 2.281-3.425 2.818Z"/><path fill="#6F9823" d="M261.884 600.625s-2.025-3.331-2.25-5.319c-.187-1.687.6-2.731 1.007-3.25.625-.8 1.931-1.318 2.787-.862 1.063.562 1.05 1.637 1.744 3.031.694 1.394 1.887 3.494 1.887 3.494s2.4-.763 5.882.444c3.481 1.206 5.018 2.775 7.156 3.381 2.137.606 4.75-.194 4.887.794.138.987-3.3 3.025-6.275 3.162-2.975.138-4.831-1.531-5.856-.881-1.025.65-.225 4.612-1.144 7.444-.731 2.25-2.537 3.381-3.006 3.318-.081-.012-2.175-3.231-2.587-4.112-.419-.881-1.207-3.113-2.369-1.394-1.163 1.719-.919 4.319-3.206 6.319-1.694 1.481-3.363 1.35-3.738.944-.119-.132 1.488-1.25 1.488-2.6s-.388-6.482.312-8.994c.925-3.344 3.281-4.919 3.281-4.919Z"/><path fill="#16A34A" d="m618.967 493.281-3.856-1.556-4.275 2.825s1.119.981 1.119 2.368c0 1.388-.8 10.913-.019 17.182.694 5.55 2.6 9.543 4.25 11.712 1.65 2.169 4.944 4.513 5.9 4.513.956 0 3.212-1.819 3.987-4.338.782-2.519-4.512-1.737-4.512-1.737s-4.025-2.213-5.031-9.713c-.775-5.75-.494-12.225-.432-14.662.094-3.644 2.869-6.594 2.869-6.594ZM593.071 474.618s.894-2.575-3.531-1.969c-1.837.25-7.087 1.725-7.812 7.756-.607 5.032 2.293 7.544 2.2 8.8-.119 1.675-5.325 4.107-4.769 11.019.531 6.563 6.825 8.95 9.862 7.906 5.55-1.912 4.05-33.512 4.05-33.512ZM609.254 469.432s-5.65-7.869-3.744-10.381c1.594-2.1 3.95-3.757 8.044-3.588 5.675.231 7.637 5.206 8.794 5.381.531.082 4.162-3.037 9.368-1.818 5.207 1.218 5.988 5.725 6.244 6.937.256 1.213-28.706 3.469-28.706 3.469ZM637.793 489.637s8.325-8.068 10.238-6.418c1.906 1.65 3.119 4.768 2.862 7.462-.518 5.463-3.468 6.244-3.381 6.938.088.693 2.081 1.125 1.994 6.331-.075 4.481-4.406 9.631-10.388 10.062-5.987.438-3.056-21.506-1.325-24.375Z"/><path fill="#22C55E" d="M612.578 488.913c1.293-1.038-.632-2.05-2.538-4.475-1.912-2.431-7.025-9.1-7.112-17.094-.044-3.731 1.212-6.594 2.637-8.369 1.306-1.631 3.644-1.662 5.169-1.518 7.375.693 8.962 8.8 10.494 9.106 1.3.262 5.687-5.675 12.587-4.569 4.688.75 6.163 7.875 2.488 13.194-4.25 6.156-11.607 10.65-13.95 11.862-2.344 1.213-2.863 1.794-2.432 2.838.432 1.044 2.007-.094 3.382-1.125 5.462-4.075 11.625-7.981 16.306-8.156 4.681-.175 7.375 1.387 8.412 2.6 1.044 1.212 1.475 5.637 0 8.5-1.456 2.831-5.206 4.856-5.293 5.55-.088.693 3.556 3.731 2.95 9.281-.4 3.637-2.344 5.987-3.644 6.85-1.3.869-6.794 1.537-10.756-.519-4.338-2.256-9.107-8.325-11.188-11.712-2.081-3.382-3.562-6.907-5.637-7.025-3.038-.175-6.594 6.243-14.575 10.668-5.957 3.3-11.019 4.425-13.619 3.382-2.6-1.044-3.975-5.975-3.731-9.194.531-6.831 7.037-7.875 7.037-9.175 0-1.3-4.162-3.906-3.819-9.888.294-5.043 2.688-6.85 3.557-7.2.868-.35 6.331-.606 10.237 2.257 3.906 2.862 6.769 7.981 8.5 9.975 1.738 1.993 3.238 5 4.538 3.956Z"/><path fill="#64D68E" d="M612.096 476.82s-1.544-1.35-2.937-.257c-1.157.907-.513 3.132.45 4.407.956 1.275 2.131 2.312 3.387 1.725 1.238-.582.7-2.938.7-2.938s.956 1.05 2.363 1.025c2.081-.037 2.875-1.725 2.875-1.725s0 1.275 1.406 2.106c1.406.832 2.937.194 2.937.194s-.637 1.213.125 1.919c.769.7 1.788.194 3-1.344 1.213-1.531 1.85-3.131.575-3.962-1.275-.832-2.937.193-2.937.193s1.044-3.337-.956-4.15c-1.538-.625-2.494.769-2.494.769s-.513-1.919-2.363-1.919-2.425 1.788-2.425 1.788-1.406-1.275-2.618-.513c-1.213.763-1.088 2.682-1.088 2.682ZM625.232 491.83c.275 1.319 1.456 1.319 1.456 1.319s-.906.094-1.088 1c-.181.906.182 1.225.182 1.225s-1.5-.362-2.182.819c-.5.862 0 1.725 0 1.725s-.906-.138-1.587.906c-.681 1.044.544 3.4 2.137 4.631 1.819 1.407 4.144 2.607 5.088.907.906-1.638-.681-3.319-.681-3.319s1.818.637 2.543-.725c.575-1.081-.093-2-.093-2s.725.044.956-.956c.4-1.75-1.588-2.225-1.588-2.225s3.438.231 3.544-2.819c.094-2.638-3.137-2.406-3.137-2.406s.968-1.482 0-2.269c-2.232-1.813-5.913 2.425-5.55 4.187ZM606.697 487.924c.457-.956.044-2.181-1.906-3.637-2.075-1.544-3.269-1.5-3.906-.863-.638.638-.225 1.588-.225 1.588s-1.319.181-1.406 1.318c-.094 1.138.906 1.544.906 1.544s-1.544.319-1.544 1.819 1.138 1.906 1.138 1.906-2.319 1-1.588 2.638c.769 1.725 4.319 1.362 4.319 1.362s-4 3.044-2.269 4.906c1.725 1.863 8.175-2.2 6.769-4.768-.819-1.5-2.319-.957-2.319-.957s.956-.956.906-2.087c-.043-1.138-1.681-1.863-1.681-1.863s.775-.406.819-1c.044-.593-.5-1.275-.5-1.275s1.987.413 2.487-.631Z"/><path fill="#1F54A4" fill-rule="evenodd" d="M658.585 373.708c.875-2.318 2.69-3.737 4.765-4.261 1.999-.505 4.154-.174 6.002.723 2.357 1.144 4.356 3.277 5.172 6.123 1.786-.848 3.508-1.893 4.977-3.078a2.498 2.498 0 0 1 3.515.375 2.498 2.498 0 0 1-.375 3.515c-2.31 1.865-5.126 3.447-8 4.587a13.23 13.23 0 0 1-.146.613c-1.214 4.611-2.266 7.307-3.673 9.029-1.173 1.436-2.648 2.145-3.743 2.671-.255.123-.49.236-.696.345-4.025 2.152-8 1.213-10.208-1.225-.746-.824-1.097-1.843-1.303-2.536-.112-.377-.21-.766-.295-1.107l-.011-.044c-.085-.339-.16-.64-.244-.936-.376-1.321-.707-1.666-1.051-1.813-1.373-.589-2.888-1.089-4.433-1.047-1.434.039-3.077.548-4.794 2.362a2.5 2.5 0 0 1-3.631-3.438c2.631-2.779 5.532-3.847 8.289-3.922 2.646-.072 4.97.777 6.54 1.45 2.598 1.114 3.461 3.533 3.889 5.042.107.374.2.746.28 1.068l.016.064c.089.353.161.64.238.897.119.402.204.566.225.608a.05.05 0 0 1 .005.011c.57.614 2.001 1.295 4.131.157.617-.33 1.073-.553 1.427-.727.796-.39 1.076-.528 1.498-1.044.528-.646 1.184-1.904 2.066-4.843-.826.147-1.63.246-2.401.291-2.434.143-5.21-.208-7.05-2.015-2.081-2.044-2.085-4.974-.981-7.895Zm7.739 4.919c1.064-.063 2.246-.266 3.481-.592-.345-1.67-1.439-2.786-2.636-3.367-.961-.466-1.91-.547-2.594-.374-.608.154-1.057.503-1.313 1.18-.761 2.015-.256 2.5-.195 2.559l.002.003c.287.281 1.223.71 3.255.591Z" clip-rule="evenodd"/><path fill="#1F54A4" d="M679.434 357.448a2 2 0 0 0-2.289 2.935c1.798 3.044 2.456 4.853 3.384 8.479a2 2 0 0 0 3.847.101c1.149-3.675 1.966-5.34 4.021-7.779a2 2 0 0 0-1.751-3.276c-3.208.356-4.693.286-7.212-.46ZM687.851 336.12v-.002c.293-5.067.44-8.935.44-11.592 0-1.471-.355-2.768-1.147-3.809-.862-1.186-2.17-1.717-3.722-1.717-.898 0-1.727.168-2.431.57-.717.41-1.236 1.026-1.558 1.797l-.004.01-.004.011c-.5 1.278-.726 2.875-.726 4.744l-.073 11.382v.006c0 5.58.294 10.4.887 14.453l.005.04.01.04c.215.932.793 1.652 1.618 2.16a4.96 4.96 0 0 0 2.641.732c.919 0 1.762-.249 2.486-.775l.023-.017.022-.018c.794-.65 1.18-1.567 1.241-2.613l.003-.052-.002-.052c-.098-2.146-.145-3.534-.145-4.189 0-2.549.145-6.248.436-11.109Z"/><path fill="#1F54A4" fill-rule="evenodd" d="m101.395 330.861-.008-.009c-2.034-2.282-4.985-4.289-8.79-6.05-3.875-1.862-9.058-2.755-15.477-2.755-.362 0-.947-.041-1.78-.134l-.01-.001-.01-.001c-1.038-.094-1.89-.144-2.54-.144-1.264 0-2.462.433-3.578 1.227-1.186.795-1.902 1.893-1.902 3.273 0 1.57.072 3.118.215 4.643l.001.016.002.015c.185 1.48.303 2.398.351 2.741.324 2.499.579 5.021.764 7.567v.002c.184 2.486.277 5.656.277 9.516 0 3.063-.13 5.973-.388 8.73a4.811 4.811 0 0 0-2.575.784c-.89.551-1.377 1.405-1.377 2.456 0 1.145.439 2.143 1.269 2.943.802.773 1.934 1.329 3.302 1.727l.008.002.008.003c2.667.727 5.628 1.085 8.873 1.085 4.244 0 7.783-.329 10.595-1.008l.012-.003c2.813-.715 5.102-1.637 6.818-2.797 1.691-1.112 3.46-2.549 5.308-4.301 1.848-1.7 3.322-3.903 4.44-6.575l.002-.006c1.114-2.712 1.685-5.338 1.685-7.87 0-3.316-.504-6.209-1.549-8.651-1.018-2.422-2.332-4.566-3.946-6.425Zm-10.243 2.205.001.001c2.192 1.359 3.784 3.069 4.813 5.127 1.034 2.069 1.574 4.615 1.574 7.673 0 2.834-.78 5.309-2.328 7.462-1.574 2.14-3.654 3.831-6.264 5.072-2.619 1.197-5.391 1.796-8.328 1.796-1.28 0-2.363-.047-3.258-.137.415-2.83.618-6.399.618-10.693 0-3.338-.14-7.72-.421-13.142v-.015c-.094-1.401-.139-2.35-.139-2.873v-.042l-.003-.041a61.145 61.145 0 0 1-.19-3.11c3.063.045 5.688.296 7.884.743l.008.002.01.001c2.427.45 4.426 1.183 6.023 2.176Z" clip-rule="evenodd"/><path fill="#1F54A4" d="M645.874 345.995c2.446 1.199 5.238 2.223 8.367 3.077l.015.004.015.004c2.028.485 4.027 1.347 5.996 2.601 1.905 1.212 2.617 2.436 2.617 3.636 0 1.258-.656 2.343-2.343 3.249l-.009.005c-1.68.924-3.835 1.416-6.518 1.416-2.29 0-4.128-.461-5.568-1.323-1.417-.893-2.414-2.163-2.997-3.855-.233-.81-.85-1.478-1.607-2.036-.808-.642-1.693-1.046-2.638-1.046-1.386 0-2.622.329-3.452 1.217-.821.833-1.118 2.057-1.118 3.423 0 2.083.755 3.987 2.197 5.687l.006.007.006.006c1.458 1.66 3.394 3.064 5.771 4.228l.018.009.018.008c3.232 1.425 6.039 2.185 8.384 2.185a29.02 29.02 0 0 0 6.451-.725c2.136-.485 4.033-1.219 5.676-2.213 2.362-1.352 4.139-2.872 5.234-4.592 1.146-1.772 1.699-3.857 1.699-6.21 0-2.637-.535-4.833-1.729-6.465-1.137-1.6-2.919-3.082-5.265-4.472a24.26 24.26 0 0 0-4.213-2.035c-1.391-.575-3.169-1.189-5.322-1.845l-.021-.006-.021-.006a35.979 35.979 0 0 1-4.428-1.43l-.022-.008-.022-.008c-1.122-.388-2.071-.875-2.859-1.452-.639-.54-.878-1.085-.878-1.663 0-.855.292-1.592.916-2.252.731-.772 1.629-1.368 2.713-1.785 1.117-.429 2.162-.633 3.141-.633.885 0 1.853.126 2.907.39l.019.005.02.004c1.069.223 1.936.462 2.613.713.486.236 1.08.744 1.765 1.644l.018.023.019.022c.572.667 1.074 1.199 1.5 1.572.495.432 1.093.737 1.779.737 1.62 0 3.044-.332 3.94-1.286.812-.817 1.26-1.807 1.26-2.934 0-1.663-.595-3.095-1.781-4.224-1.065-1.015-2.661-2.111-4.737-3.291-1.133-.668-2.47-1.167-3.992-1.511-1.509-.34-2.96-.514-4.35-.514-1.157 0-2.914.307-5.201.867-2.239.513-3.922 1.023-4.97 1.545-1.913.932-3.532 2.441-4.87 4.471-1.343 1.992-2.059 4.026-2.059 6.087 0 2.181.679 4.242 1.994 6.165 1.335 1.95 3.33 3.545 5.916 4.813Z"/><path fill="#1F54A4" fill-rule="evenodd" d="m595.491 333.709-.001-.011c-.28-3.454-.423-5.94-.423-7.431 0-1.38.716-2.478 1.902-3.273 1.115-.794 2.313-1.227 3.578-1.227.697 0 1.526.05 2.48.145.93.093 1.564.135 1.93.135 10.669 0 18.719 2.872 23.922 8.811l.007.007c3.319 3.864 4.931 8.946 4.931 15.142 0 2.644-.49 5.3-1.458 7.965-.93 2.643-2.291 4.836-4.1 6.547-1.851 1.803-3.625 3.268-5.323 4.384l-.006.004c-1.71 1.106-3.993 2.004-6.803 2.718-2.819.729-6.388 1.082-10.68 1.082-2.765 0-5.049-.308-6.797-.976l-.009-.004c-.863-.339-1.597-.79-2.121-1.394a3.278 3.278 0 0 1-.823-2.196c0-1.577.095-3.312.284-5.202.183-2.106.276-4.78.276-8.028 0-5.945-.255-11.677-.766-17.198Zm15.258 27.488c-.782.096-1.636.14-2.642.14.902 0 1.783-.047 2.642-.14Zm-6.022-31.053c3.057.046 5.678.296 7.87.743l.009.002.009.001c2.428.45 4.427 1.183 6.024 2.176l.006.004c2.127 1.302 3.585 2.966 4.429 4.992l.003.006c.864 2.032 1.32 4.641 1.32 7.869 0 3.195-.752 5.835-2.203 7.972-1.478 2.129-3.431 3.738-5.878 4.832-2.475 1.059-5.207 1.596-8.209 1.596-1.287 0-2.376-.048-3.273-.139.424-3.107.633-6.696.633-10.761 0-2.873-.141-6.741-.421-11.598l-.001-.01-.068-1.505a70.931 70.931 0 0 0-.142-4.025l-.108-2.155ZM563.426 358.367v-.003c-.226-2.177-.358-3.972-.4-5.392 2.944-.186 5.32-.55 7.083-1.121.365.64.941 1.671 1.734 3.105 1.547 2.859 2.915 5.195 4.102 7.001 1.224 1.859 2.636 3.377 4.242 4.532 1.779 1.284 3.544 2.008 5.274 2.008 1.175 0 2.238-.267 3.133-.86.918-.578 1.577-1.412 1.577-2.52 0-.701-.28-1.312-.758-1.802-2.688-3.059-4.862-5.627-6.524-7.703-1.384-1.821-2.773-3.869-4.166-6.146 2.569-.858 5.112-2.268 7.628-4.207l.014-.01.013-.011a10.269 10.269 0 0 0 2.787-3.634 10.548 10.548 0 0 0 1.076-4.627c0-5.021-2.196-8.832-6.525-11.299-4.205-2.396-9.453-3.561-15.685-3.561-3.65 0-7.39.308-11.219.923l-.08.012-.077.026c-.738.246-1.403.693-2.001 1.292a3.29 3.29 0 0 0-.993 2.387c0 .876.049 1.84.144 2.89.093 1.027.164 1.759.212 2.19v.005c.279 2.41.414 4.304.414 5.695 0 1.732-.137 4.45-.416 8.174-.329 3.38-.494 6.419-.494 9.116 0 2.542.094 4.748.285 6.612.196 1.911.641 3.597 1.36 5.035l.028.056.035.052c.845 1.268 2.096 1.915 3.632 1.915 1.216 0 2.326-.334 3.295-1.015 1.048-.702 1.695-1.684 1.695-2.925 0-1.314-.145-3.387-.425-6.19Zm14.375-26.206.007.004.006.004c2.157 1.269 3.077 2.799 3.077 4.598 0 1.064-.443 2.011-1.466 2.877a13.11 13.11 0 0 1-3.568 2.142c-1.32.5-3.014 1.073-5.086 1.718-1.045.258-2.563.484-4.581.667l-.037.003-.037.007c-.242.04-.787.106-1.664.199-.49.026-.968.073-1.434.14.021-1.769.088-3.443.2-5.022.142-1.985.213-4.015.213-6.091v-.02l-.054-2.755a23.408 23.408 0 0 1 4.794-.495c4.299 0 7.473.713 9.63 2.024ZM539.91 364.189l-.004-.008a53.55 53.55 0 0 1-1.348-3.545l-.838-2.094-.005-.016a13.875 13.875 0 0 0-1.035-2.269c-2.675.364-4.914.55-6.705.55-1.041 0-2.197-.024-3.467-.071h-.019l-.02-.002c-1.208-.093-2.087-.137-2.654-.137h-.039l-.04-.003c-2.045-.164-3.714-.254-5.013-.273a14.698 14.698 0 0 0-1.073 1.803c-.357.806-.834 2.03-1.432 3.687-.842 2.431-1.591 4.237-2.252 5.355l-.003.005c-.679 1.132-1.928 1.536-3.308 1.536a7.626 7.626 0 0 1-3.298-.726l-.029-.014-.028-.016c-1.078-.599-1.775-1.525-1.775-2.764v-.104l.022-.102c.387-1.84.99-3.763 1.802-5.769l.004-.011c.845-2.02 2.038-4.686 3.576-7.994l2.786-6.826.002-.005c1.543-3.928 2.949-7.302 4.217-10.119l.005-.013c1.317-2.822 3.029-6.151 5.131-9.983.382-.753.994-1.343 1.767-1.789a4.925 4.925 0 0 1 2.688-.775c.86 0 1.621.06 2.173.249.555.135 1.055.405 1.437.847.328.341.722.942 1.163 1.691a53.173 53.173 0 0 1 4.123 7.751c1.176 2.635 2.652 6.267 4.426 10.889l.002.005 1.466 3.7.002.005a579.355 579.355 0 0 0 3.349 8.443c.962 2.196 2.011 4.202 3.147 6.02l.004.006c.386.626.691 1.181.902 1.658.199.448.366.934.366 1.386 0 1.344-.43 2.51-1.395 3.346l-.004.003c-.876.751-1.989 1.081-3.241 1.081-1.609 0-2.956-.571-3.877-1.796a14.108 14.108 0 0 1-1.654-2.784l-.004-.008Zm-8.916-22.676-.004-.01c-1.101-3.196-2.193-5.862-3.274-8.012-.823 1.92-1.871 4.185-3.141 6.794l-.008.016-.009.016c-1.022 1.921-2.189 4.649-3.499 8.201 2.585.272 5.347.409 8.286.409 1.766 0 3.221-.085 4.38-.246-.714-1.675-1.625-4.07-2.731-7.168Z" clip-rule="evenodd"/><path fill="#1F54A4" d="m501.093 327.937-.054-.065-.065-.055c-2.295-1.961-4.591-3.465-6.887-4.491-2.306-1.052-5.02-1.559-8.112-1.559-2.439 0-4.959.39-7.558 1.159-2.599.737-4.815 1.924-6.622 3.578-2.659 2.366-4.679 5.475-6.079 9.288a34.061 34.061 0 0 0-2.091 11.825c0 1.741.456 3.934 1.31 6.541l.003.01.004.011c.9 2.558 1.845 4.588 2.85 6.046l.021.031.024.03c1.891 2.338 4.546 4.289 7.912 5.875l.005.003c3.427 1.593 6.837 2.403 10.221 2.403 2.447 0 4.475-.094 6.07-.287l.013-.002.012-.002a17.463 17.463 0 0 0 4.899-1.484l.012-.005.011-.006c1.579-.789 3.274-1.932 5.085-3.409l.011-.009c1.547-1.297 2.527-2.765 2.527-4.406 0-1.033-.554-1.928-1.355-2.68-.791-.786-1.729-1.26-2.795-1.26-.935 0-1.813.194-2.617.596l-.014.006-.013.007c-.636.343-1.521.87-2.646 1.573l-.016.01-.015.01c-1.404.951-2.696 1.661-3.876 2.142l-.013.005c-1.058.448-2.388.691-4.02.691-3.028 0-5.573-.644-7.677-1.889-2.086-1.261-3.683-2.924-4.808-4.996-1.087-2.136-1.635-4.472-1.635-7.025 0-2.023.374-4.179 1.139-6.474l.001-.005c.774-2.367 1.611-4.052 2.478-5.13 1.053-1.218 2.46-2.228 4.254-3.015l.01-.005c1.854-.839 3.604-1.241 5.258-1.241.968 0 2.056.222 3.274.701l.015.005.015.006c1.235.441 2.324.987 3.273 1.634l.013.009.013.009c1.014.645 1.499 1.081 1.658 1.31.455.733 1.05 1.309 1.792 1.68.75.375 1.668.526 2.687.526 1.078 0 2.02-.576 2.818-1.424.781-.783 1.402-1.681 1.402-2.656 0-.671-.202-1.325-.542-1.949-.327-.6-.867-1.336-1.58-2.191Z"/><path fill="#1F54A4" fill-rule="evenodd" d="m435.265 348.698.228.206c1.025.922 1.77 1.944 2.165 3.073l.004.01.003.011.904 2.781.003.01c.788 2.271 1.394 3.787 1.821 4.601.347.621.666.737.941.737a6.9 6.9 0 0 0 .73-.029c.046-.005.078-.01.1-.014.249-.12.528-.169.751-.195.251-.03.545-.042.869-.042 1.04 0 1.894.474 2.488 1.32.578.759.892 1.616.892 2.55 0 1.515-.606 2.765-1.826 3.619l-.009.006c-1.102.754-2.485 1.085-4.065 1.085-2.251 0-4.167-.39-5.676-1.252-1.546-.883-2.827-2.477-3.898-4.621l-.012-.023-.01-.023c-.357-.816-.769-2.087-1.237-3.773l-.004-.013-.003-.013c-.412-1.648-.836-2.907-1.263-3.802l-.012-.025-.01-.026c-.337-.824-.923-1.54-1.808-2.143l-.009-.006-.009-.006c-.756-.54-1.879-.886-3.47-.933l-1.49.067-.007.001c-1.588.093-2.799.141-3.622.141-.561 0-1.109-.024-1.643-.073.082 5.601.123 9.936.123 13.003 0 1.241-.647 2.223-1.694 2.925-.97.681-2.08 1.015-3.296 1.015-1.513 0-2.772-.603-3.67-1.8l-.054-.072-.04-.081c-.664-1.327-.946-3.169-.946-5.417 0-.776.048-1.868.141-3.264l.069-3.036v-.012c0-2.867.118-5.94.352-9.218.186-3.726.278-6.432.278-8.13 0-1.391-.135-3.285-.413-5.695l-.001-.008-.001-.008c-.047-.471-.117-1.222-.211-2.249v-.003a34.588 34.588 0 0 1-.144-2.957c0-.923.402-1.726 1.063-2.387.593-.594 1.253-1.038 1.984-1.238l.053-.014.054-.009a73.39 73.39 0 0 1 11.496-.922c6.185 0 11.347 1.165 15.419 3.569 4.195 2.477 6.301 6.315 6.301 11.361 0 1.579-.421 3.196-1.217 4.84-.748 1.594-1.717 2.889-2.926 3.841-1.417 1.232-2.929 2.156-4.536 2.76Zm6.927 11.381c.009-.003.01-.003.002-.001l-.002.001Zm-25.189-16.2a36.55 36.55 0 0 0 1.931.078c.809 0 1.952-.045 3.438-.138l.02-.001 3.322-.071h.01c1.293 0 2.654-.292 4.09-.901 1.409-.597 2.563-1.42 3.482-2.462.881-1.043 1.298-2.169 1.298-3.407 0-2.334-.908-3.92-2.712-4.94-1.917-1.083-5.041-1.69-9.518-1.69-1.435 0-3.114.17-5.045.519a60.81 60.81 0 0 1 .095 2.821c0 .913-.048 2.261-.141 4.035v.007l-.07 2.031-.001.018a78.815 78.815 0 0 0-.199 4.101ZM325.423 367.335l-.008-.003c-2.675-.827-4.912-2.033-6.674-3.642-3.08-2.744-5.283-5.763-6.563-9.061l-.003-.009-.003-.008c-1.221-3.322-1.811-7.486-1.811-12.455 0-1.118.152-2.178.466-3.171l.005-.015.005-.014c.338-.966.768-2.018 1.289-3.155.135-.315.34-.816.616-1.506l.006-.015.006-.015c.303-.691.482-1.283.558-1.781l.027-.172.083-.153c.982-1.809 2.6-3.479 4.779-5.028l.008-.006a30.583 30.583 0 0 1 7.156-3.688c2.54-.957 4.831-1.461 6.856-1.461 9.256 0 16.065 3.185 20.166 9.708l.007.011c2.274 3.725 3.437 7.52 3.437 11.371 0 4.833-.886 9.116-2.689 12.822-1.75 3.694-4.199 6.594-7.353 8.664l-.017.011-.017.01a33.108 33.108 0 0 1-5.918 2.815c-2.036.727-3.926 1.108-5.656 1.108-3.161 0-6.08-.383-8.75-1.16l-.008-.002Zm-5.782-19.993-.001.013c-.043 2.411.46 4.316 1.434 5.784 1.073 1.498 2.77 3.191 5.135 5.077 1.788.669 3.022 1.108 3.72 1.326.638.2 1.353.305 2.152.305 2.891 0 5.407-.6 7.574-1.77 2.178-1.176 3.836-2.774 4.998-4.798l.004-.007.004-.007c1.209-2.029 1.82-4.3 1.82-6.838 0-3.49-.393-6.15-1.123-8.04-.718-1.858-2.019-3.563-3.96-5.107l-.007-.006-.007-.006c-.934-.772-2.166-1.368-3.736-1.761l-.006-.002c-1.544-.397-3.21-.598-5.001-.598-4.211 0-7.38 1.474-9.64 4.373-2.248 2.896-3.406 6.876-3.36 12.048v.014Z" clip-rule="evenodd"/><path fill="#1F54A4" d="M278.559 325.208a5.114 5.114 0 0 0-2.067-1.732c-.76-.378-1.539-.589-2.325-.589-1.272 0-2.462.362-3.549 1.068-1.149.728-1.791 1.803-1.791 3.152 0 .585.23 1.227.54 1.858.322.657.79 1.421 1.389 2.282l.007.011c1.21 1.693 2.86 3.579 4.937 5.656 1.007 1.007 2.226 2.557 3.658 4.682l.007.01.007.01c1.473 2.072 2.686 3.949 3.643 5.633.115.226.358.662.714 1.284.174.304.29.54.36.715.048.122.063.185.067.203l.001.005v.002c.14 6.578.21 11.563.21 14.959 0 1.237.642 2.235 1.675 2.981l.025.018.026.016c1.035.654 2.152.995 3.334.995 1.378 0 2.633-.259 3.437-1.063.861-.86 1.133-2.272 1.133-3.857 0-.661-.075-1.708-.215-3.11l-.001-.012-.002-.012c-.267-2.139-.452-6.107-.547-11.95 7.178-9.934 11.582-15.815 13.254-17.714.747-.843 1.335-1.614 1.742-2.31.395-.676.679-1.38.679-2.062 0-1.379-.629-2.476-1.818-3.169-.977-.595-2.015-.911-3.102-.911-2.099 0-3.817.696-4.937 2.23l-.016.021-1.205 1.844c-1.812 2.786-3.479 5.194-5.002 7.225l-.002.003a57.465 57.465 0 0 1-4.364 5.157l-2.582-3.35-.008-.011c-2.125-2.68-4.559-6.063-7.303-10.156l-.005-.006-.004-.006ZM237.515 353.47c.748-2.631 1.601-6.165 2.559-10.614l.002-.011 1.053-4.632.003-.013c1.261-4.949 2.291-8.788 3.089-11.512.311-1.087.793-2.023 1.473-2.766.684-.792 1.542-1.315 2.568-1.315 1.67 0 3.112.311 4.084 1.154 1.024.887 1.396 2.297 1.396 3.906 0 .367-.123.898-.281 1.472-.17.619-.421 1.425-.75 2.411-1.438 4.409-3.019 9.872-4.743 16.392l-.002.008-.002.008a138.428 138.428 0 0 0-1.037 3.872 77.88 77.88 0 0 1-.633 2.812c-1.122 4.812-2.11 8.466-2.967 10.942l-.008.022-.009.022c-.368.92-1.013 1.644-1.884 2.166l-.022.013-.022.012a5.685 5.685 0 0 1-2.71.678 7.211 7.211 0 0 1-2.761-.565l-.034-.014-.033-.017c-.831-.415-1.525-.929-1.982-1.581l-.039-.056-.032-.062c-1.145-2.243-2.842-6.253-5.081-11.992l-.003-.006c-1.727-4.521-3.168-8.514-4.322-11.977-1.874 5.015-3.817 10.737-5.828 17.166-.933 3.03-1.591 5.1-1.971 6.192l-.017.049-.021.046a5.118 5.118 0 0 1-1.737 2.079l-.022.015-.023.015a4.797 4.797 0 0 1-2.554.708 7.38 7.38 0 0 1-2.831-.565l-.023-.01-.022-.01c-.873-.411-1.615-.939-2.042-1.651l-.003-.005c-.664-1.123-1.344-2.793-2.05-4.959l-.003-.009-.003-.01a737.061 737.061 0 0 1-2.664-9.042v-.001l-1.744-5.929-.002-.009a139.63 139.63 0 0 1-3.17-11.977c-.445-2.034-.78-3.669-1.005-4.898-.218-1.196-.348-2.092-.348-2.595 0-1.394.732-2.464 1.958-3.169 1.105-.682 2.26-1.051 3.452-1.051.78 0 1.535.258 2.25.694.908.5 1.435 1.362 1.666 2.399l.003.016.003.017c1.486 7.938 3.614 17.05 6.385 27.338 1.197-3.304 2.738-7.992 4.626-14.077a852.52 852.52 0 0 1 1.472-4.764l.003-.01 1.744-5.232c.274-.992.942-1.742 1.867-2.263l.011-.006.012-.006c.918-.486 1.871-.746 2.848-.746 1.196 0 2.27.302 3.137.984.762.598 1.331 1.313 1.595 2.162.121.371 1.085 3.615 2.877 9.681 1.535 5.197 3.304 10.089 5.304 14.676Z"/><path fill="#1F54A4" fill-rule="evenodd" d="m185.87 343.129-.002-.005c-1.774-4.621-3.249-8.252-4.426-10.888a53.103 53.103 0 0 0-4.124-7.753c-.44-.748-.834-1.349-1.162-1.69-.382-.442-.882-.712-1.437-.847-.552-.189-1.313-.249-2.173-.249-.972 0-1.876.258-2.689.775-.772.446-1.384 1.036-1.766 1.789-2.103 3.832-3.814 7.161-5.131 9.983l-.006.013c-1.268 2.817-2.673 6.191-4.216 10.118l-.003.006-2.786 6.826c-1.537 3.308-2.73 5.974-3.575 7.994l-.005.011a38.07 38.07 0 0 0-1.119 3.139 4.482 4.482 0 0 0-.654-1.184c-.595-.846-1.448-1.32-2.488-1.32a7.5 7.5 0 0 0-.869.042 2.38 2.38 0 0 0-.751.195 1.502 1.502 0 0 1-.1.014 6.9 6.9 0 0 1-.73.029c-.275 0-.594-.116-.941-.736-.427-.815-1.033-2.331-1.821-4.603l-.91-2.801-.004-.01c-.395-1.129-1.14-2.151-2.165-3.073l-.228-.206c1.607-.604 3.119-1.528 4.536-2.76 1.209-.952 2.178-2.247 2.926-3.841.796-1.644 1.217-3.261 1.217-4.84 0-5.046-2.106-8.884-6.302-11.361-4.072-2.404-9.233-3.569-15.418-3.569-3.788 0-7.62.308-11.497.922l-.054.009-.052.014c-.732.2-1.391.644-1.984 1.238-.661.661-1.063 1.464-1.063 2.387 0 .876.049 1.862.144 2.957v.003c.093 1.027.164 1.778.211 2.249l.001.008.001.008c.278 2.41.413 4.304.413 5.695 0 1.698-.092 4.404-.278 8.129a129.972 129.972 0 0 0-.352 9.22l-.069 3.046c-.093 1.396-.141 2.489-.141 3.265 0 2.248.282 4.09.946 5.417l.04.081.054.072c.898 1.197 2.157 1.8 3.67 1.8 1.216 0 2.326-.334 3.296-1.015 1.047-.702 1.694-1.684 1.694-2.925 0-3.067-.041-7.402-.123-13.003.534.049 1.082.073 1.643.073.823 0 2.034-.048 3.622-.141l.007-.001 1.489-.067c1.592.047 2.715.393 3.471.933l.009.006.009.006c.884.603 1.47 1.319 1.807 2.143l.011.026.012.025c.426.895.851 2.154 1.263 3.802l.003.013.003.013c.469 1.686.881 2.957 1.238 3.773l.01.023.012.023c1.071 2.144 2.352 3.738 3.898 4.621 1.509.862 3.425 1.252 5.676 1.252 1.58 0 2.963-.331 4.065-1.085l.008-.006a4.296 4.296 0 0 0 1.082-1.073c.279.713.839 1.278 1.578 1.688l.028.016.029.014a7.622 7.622 0 0 0 3.298.726c1.38 0 2.629-.404 3.308-1.536l.003-.005c.661-1.118 1.41-2.924 2.252-5.356.598-1.656 1.075-2.88 1.432-3.686a14.5 14.5 0 0 1 1.073-1.803c1.299.019 2.968.109 5.012.273l.04.003h.04c.567 0 1.446.044 2.653.137l.02.002h.02c1.27.047 2.426.071 3.467.071 1.791 0 4.03-.186 6.705-.55a13.96 13.96 0 0 1 1.034 2.269l.006.016.838 2.094a52.995 52.995 0 0 0 1.348 3.545l.004.008.003.008a14.083 14.083 0 0 0 1.655 2.784c.921 1.225 2.268 1.796 3.877 1.796 1.251 0 2.365-.33 3.241-1.081l.004-.003c.965-.836 1.395-2.002 1.395-3.346 0-.452-.167-.938-.366-1.386a14.613 14.613 0 0 0-.902-1.658l-.004-.006a46.606 46.606 0 0 1-3.147-6.02 559.519 559.519 0 0 1-3.349-8.443l-1.468-3.705Zm-13.133-9.638c1.081 2.15 2.173 4.816 3.274 8.012l.003.01c1.107 3.098 2.018 5.493 2.731 7.168-1.158.161-2.613.246-4.379.246-2.939 0-5.701-.137-8.287-.409 1.311-3.552 2.478-6.28 3.5-8.201l.008-.016.008-.016c1.27-2.609 2.318-4.874 3.142-6.794Zm-26.219 26.587h-.002c.009-.002.01-.002.002 0Zm-19.802-16.26 3.321-.071h.011c1.293 0 2.654-.292 4.089-.901 1.41-.598 2.565-1.42 3.484-2.462.88-1.044 1.297-2.169 1.297-3.407 0-2.334-.908-3.92-2.712-4.94-1.918-1.083-5.042-1.69-9.518-1.69-1.435 0-3.114.17-5.045.519a60.81 60.81 0 0 1 .095 2.821c0 .912-.048 2.261-.141 4.034l-.07 2.039-.002.018a79.845 79.845 0 0 0-.198 4.101 36.51 36.51 0 0 0 1.931.078c.809 0 1.952-.045 3.438-.138l.02-.001Z" clip-rule="evenodd"/><path fill="#1F54A4" d="M365.657 322.617c-.983 0-1.889.386-2.71 1.104l-.006.005-.006.006c-.771.719-1.208 1.543-1.208 2.465 0 5.65.07 10.161.21 13.531v.007a70.662 70.662 0 0 0 1.199 9.729v.001c1.087 5.433 3.125 9.904 6.132 13.389l.002.002c3.052 3.488 7.283 5.211 12.627 5.211 3.512 0 6.674-1.037 9.467-3.108l.005-.003c2.771-2.103 4.921-4.755 6.448-7.952 1.569-3.233 2.36-6.48 2.36-9.737 0-1.452-.024-2.742-.071-3.871a174.555 174.555 0 0 0-.14-2.878c-.187-3.17-.279-5.632-.279-7.391 0-.54.045-1.501.138-2.896a36.76 36.76 0 0 0 .212-4.034c0-.861-.379-1.635-1.057-2.313-.629-.63-1.289-1.057-1.963-1.057-1.346 0-2.647.168-3.902.505-.663.154-1.218.423-1.61.845-.402.433-.588.981-.588 1.6 0 1.978.141 4.931.421 8.851l.489 9.083c-.002 4.163-.685 7.633-2.026 10.429l-3.496 4.386c-1.439 1.075-3.067 1.611-4.898 1.611-2.365 0-4.351-.932-5.987-2.831-1.798-2.205-3.172-5.364-4.095-9.517-.643-2.938-.968-6.608-.968-11.018l.069-4.54c.094-2.24.141-4.042.141-5.404 0-1.338-.402-2.426-1.281-3.165-.862-.725-2.101-1.045-3.629-1.045Z"/><path fill="#000" d="M630.031 280v-92.16h9.408v43.52l42.048-43.52h12.032l-42.944 44.48L697.039 280h-12.288l-45.312-46.08V280h-9.408ZM582.557 281.92c-9.173 0-16.917-2.027-23.232-6.08-6.315-4.096-11.093-9.749-14.336-16.96-3.243-7.211-4.864-15.531-4.864-24.96s1.621-17.749 4.864-24.96c3.243-7.211 8.021-12.843 14.336-16.896 6.315-4.096 14.059-6.144 23.232-6.144 10.709 0 19.456 2.752 26.24 8.256 6.784 5.461 11.435 12.8 13.952 22.016l-9.6 2.496c-1.963-7.296-5.483-13.077-10.56-17.344-5.077-4.267-11.755-6.4-20.032-6.4-7.211 0-13.205 1.643-17.984 4.928-4.779 3.285-8.384 7.872-10.816 13.76-2.389 5.845-3.627 12.608-3.712 20.288-.043 7.68 1.131 14.443 3.52 20.288 2.432 5.845 6.059 10.432 10.88 13.76 4.864 3.285 10.901 4.928 18.112 4.928 8.277 0 14.955-2.133 20.032-6.4 5.077-4.309 8.597-10.091 10.56-17.344l9.6 2.496c-2.517 9.216-7.168 16.576-13.952 22.08-6.784 5.461-15.531 8.192-26.24 8.192ZM480.336 280v-92.16h57.6v9.024h-48.192v31.872h40.512v9.024h-40.512v33.216h48.192V280h-57.6ZM398.172 280v-92.16h27.968c.981 0 2.645.021 4.992.064 2.389.043 4.672.213 6.848.512 6.997.981 12.843 3.584 17.536 7.808 4.693 4.224 8.213 9.6 10.56 16.128 2.347 6.528 3.52 13.717 3.52 21.568 0 7.851-1.173 15.04-3.52 21.568-2.347 6.528-5.867 11.904-10.56 16.128-4.693 4.224-10.539 6.827-17.536 7.808a81.48 81.48 0 0 1-6.848.512c-2.432.043-4.096.064-4.992.064h-27.968Zm9.728-9.024h18.24c1.749 0 3.627-.043 5.632-.128 2.048-.128 3.797-.341 5.248-.64 5.376-.939 9.707-3.115 12.992-6.528 3.328-3.413 5.76-7.68 7.296-12.8 1.536-5.163 2.304-10.816 2.304-16.96 0-6.187-.768-11.861-2.304-17.024-1.536-5.163-3.968-9.429-7.296-12.8-3.328-3.371-7.659-5.525-12.992-6.464-1.451-.299-3.221-.491-5.312-.576a89.988 89.988 0 0 0-5.568-.192H407.9v74.112ZM373.422 280v-92.16h9.408V280h-9.408ZM324.114 280v-83.136h-32.192v-9.024h73.792v9.024h-32.192V280h-9.408ZM252.102 280v-92.16h9.408v83.136h43.776V280h-53.184ZM201.749 281.92c-7.04 0-13.269-1.451-18.688-4.352-5.376-2.901-9.6-6.997-12.672-12.288-3.072-5.291-4.608-11.477-4.608-18.56v-58.816l9.472-.064v57.664c0 4.779.811 8.917 2.432 12.416 1.622 3.456 3.734 6.315 6.336 8.576 2.646 2.219 5.526 3.861 8.64 4.928 3.115 1.067 6.144 1.6 9.088 1.6 2.987 0 6.038-.533 9.152-1.6 3.115-1.067 5.974-2.709 8.576-4.928 2.603-2.261 4.715-5.12 6.336-8.576 1.622-3.499 2.432-7.637 2.432-12.416V187.84h9.472v58.88c0 7.083-1.536 13.269-4.608 18.56-3.072 5.248-7.317 9.344-12.736 12.288-5.376 2.901-11.584 4.352-18.624 4.352ZM63 280v-92.16h8.64l36.224 77.504 36.032-77.504h8.768v92.096h-8.96v-71.104L110.872 280h-6.08l-32.768-71.168V280H63Z"/><path fill="#000" fill-rule="evenodd" d="M280 69.34v90.172h30.416c.693 0 2.074-.02 4.109-.058a61.108 61.108 0 0 0 6.247-.429c7.284-.88 13.613-3.44 18.846-7.766 5.131-4.24 9.007-9.612 11.638-16.043 2.614-6.391 3.899-13.334 3.899-20.79 0-7.455-1.285-14.399-3.899-20.79-2.631-6.43-6.507-11.803-11.638-16.043-5.233-4.326-11.561-6.886-18.845-7.766a60.92 60.92 0 0 0-6.248-.429 273.811 273.811 0 0 0-4.109-.058H280Zm45.603 63.951c-1.73 2.023-3.96 3.335-6.85 3.923-1.214.228-2.622.384-4.236.456-1.742.038-3.106.056-4.101.056h-7.475v-46.6h7.475c1.002 0 2.379.019 4.14.057 1.594.035 2.964.19 4.13.442l.03.006.031.006c2.784.55 5.006 1.816 6.793 3.811 1.926 2.15 3.407 4.836 4.395 8.14l.004.016.005.016c1.045 3.379 1.577 6.976 1.577 10.806a36.6 36.6 0 0 1-1.529 10.549l-.004.016-.005.016c-.952 3.297-2.418 6.028-4.361 8.262l-.01.011-.009.011Z" clip-rule="evenodd"/><path fill="#000" d="M362.945 159.512h22.711V69.34h-22.711v90.172Z"/><path fill="#000" fill-rule="evenodd" d="M420.246 123.102v36.41h22.942v-36.41l30.973-53.762h-26.447l-15.997 27.79-15.997-27.79h-26.447l30.973 53.762Z" clip-rule="evenodd"/><path fill="#1F54A4" d="M698.982 936.929c-3.307 0-6.293-.579-8.959-1.736-2.646-1.178-4.826-2.852-6.541-5.022-1.695-2.191-2.77-4.795-3.224-7.812l8.804-1.302c.62 2.563 1.901 4.536 3.844 5.921 1.942 1.385 4.154 2.077 6.634 2.077 1.384 0 2.728-.217 4.03-.651 1.302-.434 2.366-1.075 3.193-1.922.847-.847 1.271-1.891 1.271-3.131 0-.455-.073-.889-.217-1.302a3.289 3.289 0 0 0-.651-1.209c-.31-.372-.755-.723-1.333-1.054-.558-.331-1.271-.63-2.139-.899l-11.594-3.41a33.984 33.984 0 0 1-3.038-1.054c-1.137-.455-2.243-1.106-3.317-1.953-1.075-.847-1.974-1.963-2.697-3.348-.703-1.405-1.054-3.172-1.054-5.301 0-2.997.754-5.487 2.263-7.471 1.508-1.984 3.523-3.462 6.045-4.433 2.521-.971 5.311-1.447 8.37-1.426 3.079.041 5.828.568 8.246 1.581s4.443 2.49 6.076 4.433c1.632 1.922 2.81 4.278 3.534 7.068l-9.114 1.55c-.331-1.447-.941-2.666-1.829-3.658a8.757 8.757 0 0 0-3.193-2.263 10.593 10.593 0 0 0-3.844-.837 10.277 10.277 0 0 0-3.751.558c-1.158.393-2.108.971-2.852 1.736a3.832 3.832 0 0 0-1.085 2.728c0 .971.299 1.767.899 2.387.599.599 1.353 1.085 2.263 1.457.909.372 1.839.682 2.79.93l7.75 2.108c1.157.31 2.438.723 3.844 1.24a16.377 16.377 0 0 1 4.03 2.108c1.302.889 2.366 2.067 3.193 3.534.847 1.467 1.271 3.327 1.271 5.58 0 2.397-.507 4.495-1.519 6.293a13.144 13.144 0 0 1-4.03 4.433c-1.695 1.157-3.617 2.025-5.766 2.604-2.129.579-4.33.868-6.603.868ZM647.406 935.999v-44.64h29.14v7.874h-20.708v9.548h16.988v7.874h-16.988v11.47h20.708v7.874h-29.14ZM595.93 935.999v-44.64h7.564l14.756 29.636 14.756-29.636h7.564v44.64h-7.874v-26.66l-12.958 26.66h-2.976l-12.958-26.66v26.66h-7.874ZM552.367 935.999l13.64-44.64h12.586l13.64 44.64h-8.68l-12.152-39.37h1.612l-11.966 39.37h-8.68Zm8.184-9.3v-7.874h23.56v7.874h-23.56ZM531.182 936.93c-2.811 0-5.487-.496-8.029-1.488a19.875 19.875 0 0 1-6.758-4.464c-1.943-1.964-3.483-4.392-4.619-7.285-1.116-2.894-1.674-6.231-1.674-10.013 0-4.94.94-9.135 2.821-12.586 1.901-3.472 4.443-6.118 7.626-7.936 3.203-1.819 6.747-2.728 10.633-2.728 5.745 0 10.261 1.333 13.547 3.999 3.286 2.666 5.487 6.437 6.603 11.315l-8.618 1.24c-.806-2.604-2.129-4.681-3.968-6.231-1.819-1.571-4.154-2.367-7.006-2.387-2.832-.042-5.188.568-7.068 1.829-1.881 1.26-3.297 3.048-4.247 5.363-.93 2.314-1.395 5.022-1.395 8.122 0 3.1.465 5.786 1.395 8.06.95 2.273 2.366 4.04 4.247 5.301 1.88 1.26 4.236 1.911 7.068 1.953 1.922.041 3.658-.29 5.208-.992 1.57-.703 2.893-1.809 3.968-3.317 1.074-1.509 1.839-3.441 2.294-5.797h-7.068v-6.51H552.2c.041.268.072.744.093 1.426.02.682.031 1.074.031 1.178 0 4.278-.868 8.07-2.604 11.377-1.736 3.306-4.185 5.9-7.347 7.781-3.162 1.86-6.893 2.79-11.191 2.79ZM477.049 936.931c-2.48 0-4.836-.372-7.068-1.116-2.232-.744-4.092-1.922-5.58-3.534-1.198-1.344-2.077-2.79-2.635-4.34-.537-1.55-.837-3.224-.899-5.022 0-1.778.259-3.472.775-5.084a12.37 12.37 0 0 1 2.387-4.34 9.484 9.484 0 0 1 1.116-1.116c.393-.352.786-.682 1.178-.992-1.116-1.282-1.953-2.542-2.511-3.782-.558-1.261-.837-2.708-.837-4.34 0-2.708.734-5.126 2.201-7.254 1.488-2.129 3.503-3.638 6.045-4.526a14.606 14.606 0 0 1 3.193-.744 27.331 27.331 0 0 1 3.131-.186c2.046 0 3.999.32 5.859.961a11.04 11.04 0 0 1 4.743 3.069 11.235 11.235 0 0 1 1.984 2.759c.538 1.012.93 2.035 1.178 3.069l-8.37 1.674a5.07 5.07 0 0 0-1.302-2.232 3.901 3.901 0 0 0-2.046-1.147 9.936 9.936 0 0 0-2.294-.279c-1.178 0-2.211.206-3.1.62-.93.434-1.622 1.002-2.077 1.705-.434.702-.651 1.581-.651 2.635 0 .95.186 1.705.558 2.263a13.38 13.38 0 0 0 1.302 1.643c.352.372.786.806 1.302 1.302.538.496 1.096 1.012 1.674 1.55l10.23 9.486V912.007h7.316v8.494c0 .95-.02 1.953-.062 3.007-.041 1.033-.144 1.891-.31 2.573l5.456 5.022-5.394 5.766-4.092-3.906a15.465 15.465 0 0 1-3.782 2.418 16.216 16.216 0 0 1-4.03 1.24c-.868.124-1.663.206-2.387.248-.723.041-1.457.062-2.201.062Zm.372-7.998c.476 0 .93-.021 1.364-.062.434-.042.868-.104 1.302-.186a8.746 8.746 0 0 0 1.798-.527 8.473 8.473 0 0 0 1.488-.837l-10.912-10.044a5.49 5.49 0 0 0-1.178.682c-.33.268-.62.558-.868.868a5.37 5.37 0 0 0-.775 1.581c-.186.599-.279 1.271-.279 2.015 0 .888.135 1.663.403 2.325.29.64.631 1.229 1.023 1.767.682.868 1.674 1.488 2.976 1.86 1.302.372 2.522.558 3.658.558ZM423.586 935.999v-44.64h8.432v36.766h19.22v7.874h-27.652ZM379.398 935.999l13.64-44.64h12.586l13.64 44.64h-8.68l-12.152-39.37h1.612l-11.966 39.37h-8.68Zm8.184-9.3v-7.874h23.56v7.874h-23.56ZM359.416 936.929c-3.596 0-6.758-.723-9.486-2.17-2.728-1.467-4.857-3.523-6.386-6.169-1.529-2.645-2.294-5.755-2.294-9.331v-27.838l8.556-.062v27.838c0 1.468.248 2.801.744 3.999a9.422 9.422 0 0 0 2.046 3.1 9.536 9.536 0 0 0 3.069 2.015c1.178.455 2.428.682 3.751.682 1.364 0 2.625-.237 3.782-.713a9.103 9.103 0 0 0 3.069-2.015 9.03 9.03 0 0 0 2.015-3.1c.496-1.198.744-2.521.744-3.968v-27.838h8.556v27.9c0 3.576-.765 6.686-2.294 9.331-1.529 2.646-3.658 4.702-6.386 6.169-2.728 1.447-5.89 2.17-9.486 2.17ZM297.945 935.999v-44.64h8.556l19.406 29.76v-29.76h8.556v44.64h-8.556l-19.406-29.76v29.76h-8.556ZM254.383 935.999l13.64-44.64h12.586l13.64 44.64h-8.68l-12.152-39.37h1.612l-11.966 39.37h-8.68Zm8.184-9.3v-7.874h23.56v7.874h-23.56ZM206 935.999v-44.64h7.564l14.756 29.636 14.756-29.636h7.564v44.64h-7.874v-26.66l-12.958 26.66h-2.976l-12.958-26.66v26.66H206Z"/><path fill="#000" d="M691.805 994.999v-30.96h12.233c.301 0 .66.014 1.075.043.416.014.817.057 1.204.129 1.677.258 3.082.831 4.214 1.72a8.236 8.236 0 0 1 2.58 3.376c.574 1.347.86 2.845.86 4.493 0 1.634-.294 3.132-.881 4.494a8.444 8.444 0 0 1-2.58 3.375c-1.133.889-2.53 1.462-4.193 1.72-.387.057-.788.1-1.204.129-.415.029-.774.043-1.075.043h-8.406v11.438h-3.827Zm3.827-15.071h8.277c.273 0 .581-.015.925-.043a7.115 7.115 0 0 0 1.01-.151c.989-.229 1.792-.645 2.408-1.247a5.52 5.52 0 0 0 1.376-2.15c.287-.831.43-1.677.43-2.537 0-.86-.143-1.698-.43-2.515a5.49 5.49 0 0 0-1.376-2.172c-.616-.616-1.419-1.032-2.408-1.247a4.494 4.494 0 0 0-1.01-.15 11.1 11.1 0 0 0-.925-.043h-8.277v12.255ZM666.211 994.999v-30.96h12.233c.301 0 .66.014 1.075.043.416.014.817.057 1.204.129 1.677.258 3.082.831 4.214 1.72a8.236 8.236 0 0 1 2.58 3.376c.574 1.347.86 2.845.86 4.493 0 1.634-.293 3.132-.881 4.494a8.426 8.426 0 0 1-2.58 3.375c-1.132.889-2.53 1.462-4.193 1.72-.387.057-.788.1-1.204.129-.415.029-.774.043-1.075.043h-8.406v11.438h-3.827Zm3.827-15.071h8.277c.273 0 .581-.015.925-.043a7.115 7.115 0 0 0 1.01-.151c.989-.229 1.792-.645 2.408-1.247a5.52 5.52 0 0 0 1.376-2.15c.287-.831.43-1.677.43-2.537 0-.86-.143-1.698-.43-2.515a5.49 5.49 0 0 0-1.376-2.172c-.616-.616-1.419-1.032-2.408-1.247a4.494 4.494 0 0 0-1.01-.15 11.1 11.1 0 0 0-.925-.043h-8.277v12.255ZM637.164 994.999l10.363-30.96h5.332l10.363 30.96h-3.977l-9.697-28.724h1.204l-9.61 28.724h-3.978Zm4.988-7.245v-3.591h16.082v3.591h-16.082ZM629.273 994.999v-4.214h4.214v4.214h-4.214ZM619.164 994.999v-30.96h3.827v30.96h-3.827ZM592.047 994.999v-30.96h12.233c.301 0 .66.014 1.075.043.416.014.817.057 1.204.129 1.677.258 3.082.831 4.214 1.72a8.236 8.236 0 0 1 2.58 3.376c.574 1.347.86 2.845.86 4.493 0 2.394-.623 4.472-1.87 6.235-1.247 1.749-3.075 2.845-5.483 3.29l-1.462.236h-9.524v11.438h-3.827Zm18.425 0-6.106-12.599 3.784-1.161 6.708 13.76h-4.386Zm-14.598-15.071h8.277c.273 0 .581-.015.925-.043a7.115 7.115 0 0 0 1.01-.151c.989-.229 1.792-.645 2.408-1.247a5.52 5.52 0 0 0 1.376-2.15c.287-.831.43-1.677.43-2.537 0-.86-.143-1.698-.43-2.515a5.49 5.49 0 0 0-1.376-2.172c-.616-.616-1.419-1.032-2.408-1.247a4.494 4.494 0 0 0-1.01-.15 11.1 11.1 0 0 0-.925-.043h-8.277v12.255ZM574.673 995.644c-2.394 0-4.508-.494-6.343-1.483a10.947 10.947 0 0 1-4.321-4.15c-1.032-1.792-1.548-3.891-1.548-6.299v-19.651l3.87-.022v19.35c0 1.462.244 2.738.731 3.827.502 1.075 1.161 1.971 1.978 2.688a8.512 8.512 0 0 0 2.687 1.612 8.923 8.923 0 0 0 2.946.516c.989 0 1.978-.179 2.967-.537a8.399 8.399 0 0 0 2.687-1.591c.817-.717 1.47-1.62 1.957-2.709.487-1.09.731-2.358.731-3.806v-19.35h3.87v19.673c0 2.393-.523 4.486-1.57 6.278a10.754 10.754 0 0 1-4.3 4.171c-1.834.989-3.948 1.483-6.342 1.483ZM534.258 994.999l10.363-30.96h5.332l10.363 30.96h-3.978l-9.696-28.724h1.204l-9.611 28.724h-3.977Zm4.988-7.245v-3.591h16.082v3.591h-16.082ZM500.898 994.999v-30.96h3.483l11.696 24.661 11.632-24.661h3.526v30.939h-3.634v-22.532l-10.513 22.553h-2.043l-10.513-22.553v22.553h-3.634ZM490.859 994.999v-4.214h4.214v4.214h-4.214ZM464.742 994.999v-30.96h3.827v14.534l13.545-14.534h4.816l-14.061 15.029 15.158 15.931h-4.945l-14.513-15.136v15.136h-3.827ZM447.261 995.645c-3.082 0-5.698-.681-7.848-2.043-2.15-1.362-3.791-3.254-4.923-5.676-1.118-2.422-1.678-5.224-1.678-8.406 0-3.182.56-5.985 1.678-8.407 1.132-2.422 2.773-4.314 4.923-5.676s4.766-2.042 7.848-2.042c3.583 0 6.528.91 8.836 2.73 2.322 1.82 3.92 4.271 4.794 7.353L457 974.51c-.631-2.308-1.756-4.128-3.375-5.461-1.62-1.333-3.741-1.999-6.364-1.999-2.308 0-4.229.523-5.762 1.569-1.534 1.046-2.688 2.508-3.462 4.386-.774 1.863-1.168 4.035-1.182 6.515-.015 2.465.365 4.636 1.139 6.514.774 1.863 1.935 3.325 3.483 4.386 1.548 1.046 3.476 1.57 5.784 1.57 2.623 0 4.744-.667 6.364-2 1.619-1.347 2.744-3.168 3.375-5.461l3.891 1.032c-.874 3.067-2.472 5.518-4.794 7.353-2.308 1.82-5.253 2.731-8.836 2.731ZM411.75 994.999v-30.96h19.565v3.634h-15.738v9.696h13.158v3.634h-13.158v10.363h15.738v3.633H411.75ZM383.336 994.999v-30.96h9.546c.315 0 .867.007 1.655.022.789.014 1.541.071 2.258.172 2.394.315 4.393 1.189 5.998 2.623 1.62 1.419 2.838 3.225 3.655 5.418.817 2.193 1.226 4.608 1.226 7.245 0 2.637-.409 5.053-1.226 7.246-.817 2.193-2.035 4.006-3.655 5.439-1.605 1.419-3.604 2.286-5.998 2.602-.717.086-1.476.143-2.279.172-.788.014-1.333.021-1.634.021h-9.546Zm3.934-3.655h5.612c.545 0 1.154-.014 1.827-.043a16.955 16.955 0 0 0 1.763-.193c1.692-.316 3.061-1.025 4.107-2.129 1.046-1.104 1.813-2.48 2.3-4.128.488-1.648.731-3.426.731-5.332 0-1.949-.25-3.748-.752-5.396-.487-1.649-1.254-3.018-2.301-4.107-1.046-1.089-2.408-1.784-4.085-2.085a11.646 11.646 0 0 0-1.784-.194 43.472 43.472 0 0 0-1.806-.043h-5.612v23.65ZM373.922 994.999v-30.96h3.827v30.96h-3.827ZM356.549 994.999v-27.326h-10.557v-3.634h24.94v3.634h-10.556v27.326h-3.827ZM331.883 994.999v-30.96h3.827v27.327h14.362v3.633h-18.189ZM314.087 995.644c-2.394 0-4.508-.494-6.343-1.483a10.947 10.947 0 0 1-4.321-4.15c-1.032-1.792-1.548-3.891-1.548-6.299v-19.651l3.87-.022v19.35c0 1.462.244 2.738.731 3.827.502 1.075 1.161 1.971 1.978 2.688a8.505 8.505 0 0 0 2.688 1.612c.989.344 1.97.516 2.945.516.989 0 1.978-.179 2.967-.537a8.414 8.414 0 0 0 2.688-1.591c.817-.717 1.469-1.62 1.956-2.709.487-1.09.731-2.358.731-3.806v-19.35h3.87v19.673c0 2.393-.523 4.486-1.57 6.278a10.748 10.748 0 0 1-4.3 4.171c-1.834.989-3.948 1.483-6.342 1.483ZM266.367 994.999v-30.96h3.483l11.696 24.661 11.632-24.661h3.526v30.939h-3.634v-22.532l-10.513 22.553h-2.043l-10.513-22.553v22.553h-3.634ZM249.951 994.999v-12.878l-10.428-18.082h4.451l7.912 13.696 7.89-13.696h4.451l-10.406 18.082v12.878h-3.87ZM234.836 994.999v-30.96h3.827v30.96h-3.827ZM206 994.999v-30.96h9.546c.315 0 .867.007 1.655.022.789.014 1.541.071 2.258.172 2.394.315 4.393 1.189 5.999 2.623 1.619 1.419 2.838 3.225 3.655 5.418.817 2.193 1.225 4.608 1.225 7.245 0 2.637-.408 5.053-1.225 7.246-.817 2.193-2.036 4.006-3.655 5.439-1.606 1.419-3.605 2.286-5.999 2.602-.717.086-1.476.143-2.279.172-.788.014-1.333.021-1.634.021H206Zm3.935-3.655h5.611c.545 0 1.154-.014 1.828-.043a17.017 17.017 0 0 0 1.763-.193c1.691-.316 3.06-1.025 4.106-2.129 1.046-1.104 1.813-2.48 2.301-4.128.487-1.648.731-3.426.731-5.332 0-1.949-.251-3.748-.753-5.396-.487-1.649-1.254-3.018-2.3-4.107-1.047-1.089-2.408-1.784-4.085-2.085a11.675 11.675 0 0 0-1.785-.194 43.472 43.472 0 0 0-1.806-.043h-5.611v23.65Z"/><defs><radialGradient id="a" cx="0" cy="0" r="1" gradientTransform="rotate(-179.751 67.519 265.198) scale(44.1173 72.3876)" gradientUnits="userSpaceOnUse"><stop offset=".314" stop-color="#FE4F02"/><stop offset=".662" stop-color="#FF2500"/><stop offset=".972" stop-color="#F33762"/></radialGradient><radialGradient id="b" cx="0" cy="0" r="1" gradientTransform="rotate(90.579 -172.766 310.89) scale(46.1602 34.739)" gradientUnits="userSpaceOnUse"><stop offset=".214" stop-color="#FFCA76"/><stop offset=".328" stop-color="#FFCD7D"/><stop offset=".487" stop-color="#FFD48F"/><stop offset=".672" stop-color="#FFE0AD"/><stop offset=".793" stop-color="#FFE8C4"/><stop offset=".822" stop-color="#FFE6BD" stop-opacity=".804"/><stop offset=".863" stop-color="#FFDFAB" stop-opacity=".529"/><stop offset=".91" stop-color="#FFD38D" stop-opacity=".209"/><stop offset=".941" stop-color="#FFCA76" stop-opacity="0"/><stop offset="1" stop-color="#FFCA76" stop-opacity="0"/></radialGradient></defs></svg>