<svg xmlns="http://www.w3.org/2000/svg" fill="none" viewBox="0 0 750 1050"><path fill="#fff" d="M0 0h750v1050H0z"/><path fill="#D9D9D9" fill-rule="evenodd" d="M234.995 28a2 2 0 0 1-.001-4h.011a2 2 0 1 1 0 4h-.01Zm8-2a2 2 0 0 1 2-2h.01a2 2 0 1 1 0 4h-.01a2 2 0 0 1-2-2Zm10 0a2 2 0 0 1 2-2h.01a2 2 0 1 1 0 4h-.01a2 2 0 0 1-2-2Zm10 0a2 2 0 0 1 2-2h.01a2 2 0 1 1 0 4h-.01a2 2 0 0 1-2-2Zm10 0a2 2 0 0 1 2-2h.01a2 2 0 1 1 0 4h-.01a2 2 0 0 1-2-2Zm10 0a2 2 0 0 1 2-2h.01a2 2 0 1 1 0 4h-.01a2 2 0 0 1-2-2Zm10 0a2 2 0 0 1 2-2h.01a2 2 0 1 1 0 4h-.01a2 2 0 0 1-2-2Zm10 0a2 2 0 0 1 2-2h.01a2 2 0 0 1 0 4h-.01a2 2 0 0 1-2-2Zm10 0a2 2 0 0 1 2-2h.01a2 2 0 0 1 0 4h-.01a2 2 0 0 1-2-2Zm10 0a2 2 0 0 1 2-2h.01a2 2 0 0 1 0 4h-.01a2 2 0 0 1-2-2Zm10 0a2 2 0 0 1 2-2h.01a2 2 0 0 1 0 4h-.01a2 2 0 0 1-2-2Zm10 0a2 2 0 0 1 2-2h.01a2 2 0 0 1 0 4h-.01a2 2 0 0 1-2-2Zm10 0a2 2 0 0 1 2-2h.01a2 2 0 0 1 0 4h-.01a2 2 0 0 1-2-2Zm10 0a2 2 0 0 1 2-2h.01a2 2 0 0 1 0 4h-.01a2 2 0 0 1-2-2Zm10 0a2 2 0 0 1 2-2h.01a2 2 0 0 1 0 4h-.01a2 2 0 0 1-2-2Zm10 0a2 2 0 0 1 2-2h.01a2 2 0 0 1 0 4h-.01a2 2 0 0 1-2-2Zm10 0a2 2 0 0 1 2-2h.01a2 2 0 1 1 0 4h-.01a2 2 0 0 1-2-2Zm10 0a2 2 0 0 1 2-2h.01a2 2 0 0 1 0 4h-.01a2 2 0 0 1-2-2Zm10 0a2 2 0 0 1 2-2h.01a2 2 0 0 1 0 4h-.01a2 2 0 0 1-2-2Zm10 0a2 2 0 0 1 2-2h.01a2 2 0 0 1 0 4h-.01a2 2 0 0 1-2-2Zm10 0a2 2 0 0 1 2-2h.01a2 2 0 0 1 0 4h-.01a2 2 0 0 1-2-2Zm10 0a2 2 0 0 1 2-2h.01a2 2 0 0 1 0 4h-.01a2 2 0 0 1-2-2Zm10 0a2 2 0 0 1 2-2h.01a2 2 0 0 1 0 4h-.01a2 2 0 0 1-2-2Zm10 0a2 2 0 0 1 2-2h.01a2 2 0 0 1 0 4h-.01a2 2 0 0 1-2-2Zm10 0a2 2 0 0 1 2-2h.01a2 2 0 0 1 0 4h-.01a2 2 0 0 1-2-2Zm10 0a2 2 0 0 1 2-2h.01a2 2 0 0 1 0 4h-.01a2 2 0 0 1-2-2Zm10 0a2 2 0 0 1 2-2h.01a2 2 0 0 1 0 4h-.01a2 2 0 0 1-2-2Zm10 0a2 2 0 0 1 2-2h.01a2 2 0 0 1 0 4h-.01a2 2 0 0 1-2-2Zm10 0a2 2 0 0 1 2-2h.011a2 2 0 0 1-.001 4h-.01a2 2 0 0 1-2-2Zm-286.261 1.673a2 2 0 0 1-.73 2.732l-.008.005a2 2 0 1 1-2.004-3.462l.01-.005a2 2 0 0 1 2.732.73Zm296.532 0a2 2 0 0 1 2.732-.73l.01.005a2 2 0 0 1-2.004 3.462l-.008-.005a2 2 0 0 1-.73-2.732Zm-304.585 6.59a2 2 0 0 1 .729 2.733l-.005.008a2 2 0 1 1-3.462-2.002l.005-.01a2 2 0 0 1 2.733-.729Zm312.638 0a2 2 0 0 1 2.733.729l.005.01a2 2 0 0 1-3.462 2.002l-.005-.008a2 2 0 0 1 .729-2.733ZM215 43.995a2 2 0 0 1 2 2v.01a2 2 0 1 1-4 0v-.01a2 2 0 0 1 2-2Zm319.999 0a2 2 0 0 1 2.001 2v.01a2 2 0 1 1-4 0v-.01a2 2 0 0 1 1.999-2Zm.001 9.824a2 2 0 0 1 2 2v.01a2 2 0 1 1-4 0v-.01a2 2 0 0 1 2-2Zm-320 0a2 2 0 0 1 2 2v.01a2 2 0 1 1-4 0v-.01a2 2 0 0 1 2-2Zm320 9.823a2 2 0 0 1 2 2v.01a2 2 0 1 1-4 0v-.01a2 2 0 0 1 2-2Zm-320 0a2 2 0 0 1 2 2v.01a2 2 0 1 1-4 0v-.01a2 2 0 0 1 2-2Zm320 9.824a2 2 0 0 1 2 2v.01a2 2 0 1 1-4 0v-.01a2 2 0 0 1 2-2Zm-320 0a2 2 0 0 1 2 2v.01a2 2 0 1 1-4 0v-.01a2 2 0 0 1 2-2Zm320 9.823a2 2 0 0 1 2 2v.01a2 2 0 1 1-4 0v-.01a2 2 0 0 1 2-2Zm-320 0a2 2 0 0 1 2 2v.01a2 2 0 1 1-4 0v-.01a2 2 0 0 1 2-2Zm320 9.824a2 2 0 0 1 2 2v.01a2 2 0 1 1-4 0v-.01a2 2 0 0 1 2-2Zm-320 0a2 2 0 0 1 2 2v.01a2 2 0 1 1-4 0v-.01a2 2 0 0 1 2-2Zm0 9.823a2 2 0 0 1 2 2v.01a2 2 0 1 1-4 0v-.01a2 2 0 0 1 2-2Zm320 0a2 2 0 0 1 2 2v.01a2 2 0 1 1-4 0v-.01a2 2 0 0 1 2-2Zm-320 9.824a2 2 0 0 1 2 2v.01a2 2 0 0 1-4 0v-.01a2 2 0 0 1 2-2Zm320 0a2 2 0 0 1 2 2v.01a2 2 0 0 1-4 0v-.01a2 2 0 0 1 2-2Zm-320 9.823a2 2 0 0 1 2 2v.01a2 2 0 1 1-4 0v-.01a2 2 0 0 1 2-2Zm320 0a2 2 0 0 1 2 2v.01a2 2 0 1 1-4 0v-.01a2 2 0 0 1 2-2Zm-320 9.824a2 2 0 0 1 2 2v.01a2 2 0 0 1-4 0v-.01a2 2 0 0 1 2-2Zm320 0a2 2 0 0 1 2 2v.01a2 2 0 0 1-4 0v-.01a2 2 0 0 1 2-2Zm-320 9.823a2 2 0 0 1 2 2v.01a2 2 0 1 1-4 0v-.01a2 2 0 0 1 2-2Zm320 0a2 2 0 0 1 2 2v.01a2 2 0 1 1-4 0v-.01a2 2 0 0 1 2-2Zm-320 9.824a2 2 0 0 1 2 2v.01a2 2 0 0 1-4 0v-.01a2 2 0 0 1 2-2Zm320 0a2 2 0 0 1 2 2v.01a2 2 0 0 1-4 0v-.01a2 2 0 0 1 2-2Zm-320 9.823a2 2 0 0 1 2 2v.01a2 2 0 1 1-4 0v-.01a2 2 0 0 1 2-2Zm320 0a2 2 0 0 1 2 2v.01a2 2 0 1 1-4 0v-.01a2 2 0 0 1 2-2Zm0 9.824a2 2 0 0 1 2 2v.01a2 2 0 0 1-4 0v-.01a2 2 0 0 1 2-2Zm-320 0a2 2 0 0 1 2 2v.01a2 2 0 0 1-4 0v-.01a2 2 0 0 1 2-2Zm320 9.823a2 2 0 0 1 2 2v.01a2 2 0 1 1-4 0v-.01a2 2 0 0 1 2-2Zm-320 0a2 2 0 0 1 2 2v.01a2 2 0 1 1-4 0v-.01a2 2 0 0 1 2-2Zm320 9.824a2 2 0 0 1 2 2v.01a2 2 0 0 1-4 0v-.01a2 2 0 0 1 2-2Zm-320 0a2 2 0 0 1 2 2v.01a2 2 0 0 1-4 0v-.01a2 2 0 0 1 2-2Zm320 9.824a2 2 0 0 1 2 2v.009a2 2 0 1 1-4 0v-.009a2 2 0 0 1 2-2Zm-320 0a2 2 0 0 1 2 2v.009a2 2 0 1 1-4 0v-.009a2 2 0 0 1 2-2Zm-1.421 10.416a2 2 0 0 0 1.416 3.412h.01a2 2 0 0 0 1.399-3.429 1.994 1.994 0 0 0-1.404-.576c-.556 0-1.059.227-1.421.593Zm320.014-.014a2 2 0 0 0 1.402 3.426h.01a2 2 0 0 0 1.42-3.408 1.991 1.991 0 0 0-1.425-.597c-.549 0-1.046.221-1.407.579Zm-486.596 1.427a2 2 0 0 1 2-2.001h.01a2 2 0 1 1 0 4h-.01a2 2 0 0 1-2-1.999Zm9.765-.001a2 2 0 0 1 2-2h.01a2 2 0 1 1 0 4h-.01a2 2 0 0 1-2-2Zm9.764 0a2 2 0 0 1 2-2h.01a2 2 0 1 1 0 4h-.01a2 2 0 0 1-2-2Zm9.765 0a2 2 0 0 1 2-2h.01a2 2 0 1 1 0 4h-.01a2 2 0 0 1-2-2Zm9.764 0a2 2 0 0 1 2-2h.01a2 2 0 1 1 0 4h-.01a2 2 0 0 1-2-2Zm9.765 0a2 2 0 0 1 2-2h.01a2 2 0 1 1 0 4h-.01a2 2 0 0 1-2-2Zm9.765 0a2 2 0 0 1 2-2h.009a2 2 0 1 1 0 4h-.009a2 2 0 0 1-2-2Zm9.764 0a2 2 0 0 1 2-2h.01a2 2 0 1 1 0 4h-.01a2 2 0 0 1-2-2Zm564.116 0a2 2 0 0 1 2-2h.009a2 2 0 1 1 0 4h-.009a2 2 0 0 1-2-2Zm9.764 0a2 2 0 0 1 2-2h.01a2 2 0 1 1 0 4h-.01a2 2 0 0 1-2-2Zm9.765 0a2 2 0 0 1 2-2h.011a2 2 0 1 1-.002 4h-.009a2 2 0 0 1-2-2Zm-573.88 0a2 2 0 0 1 2-2h.01a2 2 0 0 1 0 4h-.01a2 2 0 0 1-2-2Zm9.764 0a2 2 0 0 1 2-2h.01a2 2 0 1 1 0 4h-.01a2 2 0 0 1-2-2Zm9.765 0a2 2 0 0 1 2-2h.01a2 2 0 0 1 0 4h-.01a2 2 0 0 1-2-2Zm9.765 0a2 2 0 0 1 2-2h.009a2 2 0 1 1 0 4h-.009a2 2 0 0 1-2-2Zm9.764 0a2 2 0 0 1 2-2h.01a2 2 0 0 1 0 4h-.01a2 2 0 0 1-2-2Zm9.765 0a2 2 0 0 1 2-2h.01a2 2 0 0 1 0 4h-.01a2 2 0 0 1-2-2Zm9.764 0a2 2 0 0 1 2-2h.01a2 2 0 1 1 0 4h-.01a2 2 0 0 1-2-2Zm9.765 0a2 2 0 0 1 2-2h.01a2 2 0 0 1 0 4h-.01a2 2 0 0 1-2-2Zm9.764 0a2 2 0 0 1 2-2h.01a2 2 0 1 1 0 4h-.01a2 2 0 0 1-2-2Zm19.765 0a2 2 0 0 1 2-2h.01a2 2 0 1 1 0 4h-.01a2 2 0 0 1-2-2Zm10 0a2 2 0 0 1 2-2h.01a2 2 0 1 1 0 4h-.01a2 2 0 0 1-2-2Zm10 0a2 2 0 0 1 2-2h.01a2 2 0 1 1 0 4h-.01a2 2 0 0 1-2-2Zm10 0a2 2 0 0 1 2-2h.01a2 2 0 1 1 0 4h-.01a2 2 0 0 1-2-2Zm10 0a2 2 0 0 1 2-2h.01a2 2 0 1 1 0 4h-.01a2 2 0 0 1-2-2Zm10 0a2 2 0 0 1 2-2h.01a2 2 0 1 1 0 4h-.01a2 2 0 0 1-2-2Zm10 0a2 2 0 0 1 2-2h.01a2 2 0 1 1 0 4h-.01a2 2 0 0 1-2-2Zm10 0a2 2 0 0 1 2-2h.01a2 2 0 1 1 0 4h-.01a2 2 0 0 1-2-2Zm10 0a2 2 0 0 1 2-2h.01a2 2 0 1 1 0 4h-.01a2 2 0 0 1-2-2Zm10 0a2 2 0 0 1 2-2h.01a2 2 0 1 1 0 4h-.01a2 2 0 0 1-2-2Zm10 0a2 2 0 0 1 2-2h.01a2 2 0 1 1 0 4h-.01a2 2 0 0 1-2-2Zm10 0a2 2 0 0 1 2-2h.01a2 2 0 1 1 0 4h-.01a2 2 0 0 1-2-2Zm10 0a2 2 0 0 1 2-2h.01a2 2 0 1 1 0 4h-.01a2 2 0 0 1-2-2Zm10 0a2 2 0 0 1 2-2h.01a2 2 0 1 1 0 4h-.01a2 2 0 0 1-2-2Zm10 0a2 2 0 0 1 2-2h.01a2 2 0 1 1 0 4h-.01a2 2 0 0 1-2-2Zm10 0a2 2 0 0 1 2-2h.01a2 2 0 1 1 0 4h-.01a2 2 0 0 1-2-2Zm208.823 0a2 2 0 0 1 2-2h.01a2 2 0 1 1 0 4h-.01a2 2 0 0 1-2-2Zm11.765 2a2 2 0 1 1 0-4h.01a2 2 0 0 1 0 4h-.01Zm7.764-2a2 2 0 0 1 2-2h.01a2 2 0 1 1 0 4h-.01a2 2 0 0 1-2-2Zm9.765 0a2 2 0 0 1 2-2h.01a2 2 0 0 1 0 4h-.01a2 2 0 0 1-2-2Zm9.765 0a2 2 0 0 1 2-2h.01a2 2 0 0 1 0 4h-.01a2 2 0 0 1-2-2Zm11.764 2a2 2 0 0 1 0-4h.01a2 2 0 1 1 0 4h-.01Zm7.765-2a2 2 0 0 1 2-2h.01a2 2 0 0 1 0 4h-.01a2 2 0 0 1-2-2Zm9.765 0a2 2 0 0 1 2-2h.009a2 2 0 1 1 0 4h-.009a2 2 0 0 1-2-2Zm9.764 0a2 2 0 0 1 2-2h.01a2 2 0 1 1 0 4h-.01a2 2 0 0 1-2-2Zm11.765 2a2 2 0 1 1 0-4h.01a2 2 0 0 1 0 4h-.01Zm-288.705-2a2 2 0 0 1 2-2h.01a2 2 0 1 1 0 4h-.01a2 2 0 0 1-2-2Zm10 0a2 2 0 0 1 2-2h.01a2 2 0 1 1 0 4h-.01a2 2 0 0 1-2-2Zm10 0a2 2 0 0 1 2-2h.01a2 2 0 1 1 0 4h-.01a2 2 0 0 1-2-2Zm10 0a2 2 0 0 1 2-2h.01a2 2 0 1 1 0 4h-.01a2 2 0 0 1-2-2Zm10 0a2 2 0 0 1 2-2h.01a2 2 0 1 1 0 4h-.01a2 2 0 0 1-2-2Zm10 0a2 2 0 0 1 2-2h.01a2 2 0 1 1 0 4h-.01a2 2 0 0 1-2-2Zm10 0a2 2 0 0 1 2-2h.01a2 2 0 1 1 0 4h-.01a2 2 0 0 1-2-2Zm10 0a2 2 0 0 1 2-2h.01a2 2 0 1 1 0 4h-.01a2 2 0 0 1-2-2Zm10 0a2 2 0 0 1 2-2h.01a2 2 0 1 1 0 4h-.01a2 2 0 0 1-2-2Zm10 0a2 2 0 0 1 2-2h.01a2 2 0 1 1 0 4h-.01a2 2 0 0 1-2-2Zm10 0a2 2 0 0 1 2-2h.01a2 2 0 1 1 0 4h-.01a2 2 0 0 1-2-2Zm10 0a2 2 0 0 1 2-2h.01a2 2 0 1 1 0 4h-.01a2 2 0 0 1-2-2Zm10 0a2 2 0 0 1 2-2h.01a2 2 0 1 1 0 4h-.01a2 2 0 0 1-2-2Zm10 0a2 2 0 0 1 2-2h.01a2 2 0 1 1 0 4h-.01a2 2 0 0 1-2-2Zm10 0a2 2 0 0 1 2-2h.01a2 2 0 1 1 0 4h-.01a2 2 0 0 1-2-2Zm19.765 0a2 2 0 0 1 2-2h.009a2 2 0 1 1 0 4h-.009a2 2 0 0 1-2-2Zm9.764 0a2 2 0 0 1 2-2h.01a2 2 0 1 1 0 4h-.01a2 2 0 0 1-2-2Zm9.765 0a2 2 0 0 1 2-2h.01a2 2 0 0 1 0 4h-.01a2 2 0 0 1-2-2Zm9.765 0a2 2 0 0 1 2-2h.009a2 2 0 1 1 0 4h-.009a2 2 0 0 1-2-2Zm137.21 1.673a2.002 2.002 0 0 1 2.733-.731l.01.006a2 2 0 0 1-2.004 3.462l-.008-.005a1.999 1.999 0 0 1-.731-2.732Zm-668.528 0a2 2 0 0 1-.73 2.732l-.008.005a2 2 0 0 1-2.004-3.462l.01-.005a2 2 0 0 1 2.732.73Zm676.581 6.59a2 2 0 0 1 2.733.729l.006.01a2 2 0 1 1-3.463 2.002l-.004-.008a2 2 0 0 1 .728-2.733Zm-684.634 0a2 2 0 0 1 .73 2.733l-.006.008a2 2 0 0 1-3.462-2.002l.005-.01a2 2 0 0 1 2.733-.729Zm688.315 9.732a2 2 0 0 1 2.001 1.999v.011a2 2 0 0 1-4 0v-.01a2 2 0 0 1 1.999-2Zm-691.995 0a2 2 0 0 1 2 2v.01a2 2 0 1 1-4 0v-.011a2 2 0 0 1 2-1.999Zm691.996 10.4a2 2 0 0 1 2 2v.01a2 2 0 0 1-4 0v-.01a2 2 0 0 1 2-2Zm-691.997 0a2 2 0 0 1 2 2v.01a2 2 0 1 1-4 0v-.01a2 2 0 0 1 2-2ZM721 251.795a2 2 0 0 1 2 2v.01a2 2 0 0 1-4 0v-.01a2 2 0 0 1 2-2Zm-691.997 0a2 2 0 0 1 2 2v.01a2 2 0 1 1-4 0v-.01a2 2 0 0 1 2-2ZM721 262.195a2 2 0 0 1 2 2v.01a2 2 0 0 1-4 0v-.01a2 2 0 0 1 2-2Zm-691.997 0a2 2 0 0 1 2 2v.01a2 2 0 1 1-4 0v-.01a2 2 0 0 1 2-2ZM721 272.595a2 2 0 0 1 2 2v.01a2 2 0 0 1-4 0v-.01a2 2 0 0 1 2-2Zm-691.997 0a2 2 0 0 1 2 2v.01a2 2 0 1 1-4 0v-.01a2 2 0 0 1 2-2ZM721 282.995a2 2 0 0 1 2 2v.01a2 2 0 0 1-4 0v-.01a2 2 0 0 1 2-2Zm-691.997 0a2 2 0 0 1 2 2v.01a2 2 0 1 1-4 0v-.01a2 2 0 0 1 2-2Zm0 10.4a2 2 0 0 1 2 2v.01a2 2 0 1 1-4 0v-.01a2 2 0 0 1 2-2Zm691.997 0a2 2 0 0 1 2 2v.01a2 2 0 0 1-4 0v-.01a2 2 0 0 1 2-2Zm0 10.4a2 2 0 0 1 2 2v.01a2 2 0 1 1-4 0v-.01a2 2 0 0 1 2-2Zm-691.997 0a2 2 0 0 1 2 2v.01a2 2 0 1 1-4 0v-.01a2 2 0 0 1 2-2Zm0 10.4a2 2 0 0 1 2 2v.01a2 2 0 1 1-4 0v-.01a2 2 0 0 1 2-2Zm691.997 0a2 2 0 0 1 2 2v.01a2 2 0 1 1-4 0v-.01a2 2 0 0 1 2-2Zm-691.997 10.4a2 2 0 0 1 2 2v.01a2 2 0 1 1-4 0v-.01a2 2 0 0 1 2-2Zm691.997 0a2 2 0 0 1 2 2v.01a2 2 0 1 1-4 0v-.01a2 2 0 0 1 2-2ZM30.443 335.608a2 2 0 0 0-3.441 1.387v.01a2 2 0 0 0 3.437 1.391c.352-.36.568-.853.568-1.396 0-.541-.215-1.032-.564-1.392ZM721 334.995a2 2 0 0 1 2 2v.01a2 2 0 0 1-3.383 1.445 1.994 1.994 0 0 1-.622-1.45c0-.57.238-1.085.621-1.449a1.99 1.99 0 0 1 1.384-.556ZM37.026 337a2 2 0 0 1 2-2h.01a2 2 0 1 1 0 4h-.01a2 2 0 0 1-2-2Zm10.029 0a2 2 0 0 1 2-2h.01a2 2 0 1 1 0 4h-.01a2 2 0 0 1-2-2Zm10.029 0a2 2 0 0 1 2-2h.01a2 2 0 1 1 0 4h-.01a2 2 0 0 1-2-2Zm10.029 0a2 2 0 0 1 2-2h.01a2 2 0 1 1 0 4h-.01a2 2 0 0 1-2-2Zm10.029 0a2 2 0 0 1 2-2h.01a2 2 0 1 1 0 4h-.01a2 2 0 0 1-2-2Zm10.029 0a2 2 0 0 1 2-2h.01a2 2 0 1 1 0 4h-.01a2 2 0 0 1-2-2Zm10.029 0a2 2 0 0 1 2-2h.01a2 2 0 1 1 0 4h-.01a2 2 0 0 1-2-2Zm10.029 0a2 2 0 0 1 2-2h.01a2 2 0 0 1 0 4h-.01a2 2 0 0 1-2-2Zm10.028 0a2 2 0 0 1 2-2h.01a2 2 0 1 1 0 4h-.01a2 2 0 0 1-2-2Zm10.029 0a2 2 0 0 1 2-2h.01a2 2 0 1 1 0 4h-.01a2 2 0 0 1-2-2Zm10.029 0a2 2 0 0 1 2-2h.01a2 2 0 1 1 0 4h-.01a2 2 0 0 1-2-2Zm10.029 0a2 2 0 0 1 2-2h.01a2 2 0 1 1 0 4h-.01a2 2 0 0 1-2-2Zm10.029 0a2 2 0 0 1 2-2h.01a2 2 0 1 1 0 4h-.01a2 2 0 0 1-2-2Zm10.029 0a2 2 0 0 1 2-2h.01a2 2 0 1 1 0 4h-.01a2 2 0 0 1-2-2Zm10.029 0a2 2 0 0 1 2-2h.01a2 2 0 1 1 0 4h-.01a2 2 0 0 1-2-2Zm10.029 0a2 2 0 0 1 2-2h.01a2 2 0 1 1 0 4h-.01a2 2 0 0 1-2-2Zm10.029 0a2 2 0 0 1 2-2h.01a2 2 0 1 1 0 4h-.01a2 2 0 0 1-2-2Zm10.029 0a2 2 0 0 1 2-2h.01a2 2 0 1 1 0 4h-.01a2 2 0 0 1-2-2Zm10.029 0a2 2 0 0 1 2-2h.01a2 2 0 1 1 0 4h-.01a2 2 0 0 1-2-2Zm10.029 0a2 2 0 0 1 2-2h.01a2 2 0 0 1 0 4h-.01a2 2 0 0 1-2-2Zm10.029 0a2 2 0 0 1 2-2h.01a2 2 0 0 1 0 4h-.01a2 2 0 0 1-2-2Zm10.029 0a2 2 0 0 1 2-2h.01a2 2 0 0 1 0 4h-.01a2 2 0 0 1-2-2Zm10.029 0a2 2 0 0 1 2-2h.01a2 2 0 0 1 0 4h-.01a2 2 0 0 1-2-2Zm10.029 0a2 2 0 0 1 2-2h.01a2 2 0 0 1 0 4h-.01a2 2 0 0 1-2-2Zm10.029 0a2 2 0 0 1 2-2h.01a2 2 0 0 1 0 4h-.01a2 2 0 0 1-2-2Zm10.029 0a2 2 0 0 1 2-2h.01a2 2 0 0 1 0 4h-.01a2 2 0 0 1-2-2Zm10.028 0a2 2 0 0 1 2-2h.01a2 2 0 1 1 0 4h-.01a2 2 0 0 1-2-2Zm10.029 0a2 2 0 0 1 2-2h.01a2 2 0 1 1 0 4h-.01a2 2 0 0 1-2-2Zm10.029 0a2 2 0 0 1 2-2h.01a2 2 0 1 1 0 4h-.01a2 2 0 0 1-2-2Zm10.029 0a2 2 0 0 1 2-2h.01a2 2 0 1 1 0 4h-.01a2 2 0 0 1-2-2Zm10.029 0a2 2 0 0 1 2-2h.01a2 2 0 1 1 0 4h-.01a2 2 0 0 1-2-2Zm10.029 0a2 2 0 0 1 2-2h.01a2 2 0 1 1 0 4h-.01a2 2 0 0 1-2-2Zm10.029 0a2 2 0 0 1 2-2h.01a2 2 0 1 1 0 4h-.01a2 2 0 0 1-2-2Zm10.029 0a2 2 0 0 1 2-2h.01a2 2 0 1 1 0 4h-.01a2 2 0 0 1-2-2Zm10.029 0a2 2 0 0 1 2-2h.01a2 2 0 1 1 0 4h-.01a2 2 0 0 1-2-2Zm10.029 0a2 2 0 0 1 2-2h.01a2 2 0 0 1 0 4h-.01a2 2 0 0 1-2-2Zm10.029 0a2 2 0 0 1 2-2h.01a2 2 0 0 1 0 4h-.01a2 2 0 0 1-2-2Zm10.029 0a2 2 0 0 1 2-2h.01a2 2 0 0 1 0 4h-.01a2 2 0 0 1-2-2Zm10.029 0a2 2 0 0 1 2-2h.01a2 2 0 0 1 0 4h-.01a2 2 0 0 1-2-2Zm10.029 0a2 2 0 0 1 2-2h.01a2 2 0 0 1 0 4h-.01a2 2 0 0 1-2-2Zm10.029 0a2 2 0 0 1 2-2h.009a2 2 0 1 1 0 4h-.009a2 2 0 0 1-2-2Zm10.028 0a2 2 0 0 1 2-2h.01a2 2 0 1 1 0 4h-.01a2 2 0 0 1-2-2Zm10.029 0a2 2 0 0 1 2-2h.01a2 2 0 1 1 0 4h-.01a2 2 0 0 1-2-2Zm10.029 0a2 2 0 0 1 2-2h.01a2 2 0 1 1 0 4h-.01a2 2 0 0 1-2-2Zm10.029 0a2 2 0 0 1 2-2h.01a2 2 0 1 1 0 4h-.01a2 2 0 0 1-2-2Zm10.029 0a2 2 0 0 1 2-2h.01a2 2 0 1 1 0 4h-.01a2 2 0 0 1-2-2Zm10.029 0a2 2 0 0 1 2-2h.01a2 2 0 1 1 0 4h-.01a2 2 0 0 1-2-2Zm10.029 0a2 2 0 0 1 2-2h.01a2 2 0 1 1 0 4h-.01a2 2 0 0 1-2-2Zm10.029 0a2 2 0 0 1 2-2h.01a2 2 0 1 1 0 4h-.01a2 2 0 0 1-2-2Zm10.029 0a2 2 0 0 1 2-2h.01a2 2 0 0 1 0 4h-.01a2 2 0 0 1-2-2Zm10.029 0a2 2 0 0 1 2-2h.01a2 2 0 0 1 0 4h-.01a2 2 0 0 1-2-2Zm10.029 0a2 2 0 0 1 2-2h.01a2 2 0 0 1 0 4h-.01a2 2 0 0 1-2-2Zm10.029 0a2 2 0 0 1 2-2h.01a2 2 0 0 1 0 4h-.01a2 2 0 0 1-2-2Zm10.029 0a2 2 0 0 1 2-2h.01a2 2 0 0 1 0 4h-.01a2 2 0 0 1-2-2Zm10.029 0a2 2 0 0 1 2-2h.01a2 2 0 0 1 0 4h-.01a2 2 0 0 1-2-2Zm10.029 0a2 2 0 0 1 2-2h.01a2 2 0 0 1 0 4h-.01a2 2 0 0 1-2-2Zm10.028 0a2 2 0 0 1 2-2h.01a2 2 0 1 1 0 4h-.01a2 2 0 0 1-2-2Zm10.029 0a2 2 0 0 1 2-2h.01a2 2 0 1 1 0 4h-.01a2 2 0 0 1-2-2Zm10.029 0a2 2 0 0 1 2-2h.01a2 2 0 1 1 0 4h-.01a2 2 0 0 1-2-2Zm10.029 0a2 2 0 0 1 2-2h.01a2 2 0 1 1 0 4h-.01a2 2 0 0 1-2-2Zm10.029 0a2 2 0 0 1 2-2h.01a2 2 0 1 1 0 4h-.01a2 2 0 0 1-2-2Zm10.029 0a2 2 0 0 1 2-2h.01a2 2 0 1 1 0 4h-.01a2 2 0 0 1-2-2Zm10.029 0a2 2 0 0 1 2-2h.01a2 2 0 1 1 0 4h-.01a2 2 0 0 1-2-2Zm10.029 0a2 2 0 0 1 2-2h.01a2 2 0 1 1 0 4h-.01a2 2 0 0 1-2-2Zm10.029 0a2 2 0 0 1 2-2h.01a2 2 0 0 1 0 4h-.01a2 2 0 0 1-2-2Zm10.029 0a2 2 0 0 1 2-2h.01a2 2 0 0 1 0 4h-.01a2 2 0 0 1-2-2Zm10.029 0a2 2 0 0 1 2-2h.01a2 2 0 0 1 0 4h-.01a2 2 0 0 1-2-2Zm10.029 0a2 2 0 0 1 2-2h.01a2 2 0 0 1 0 4h-.01a2 2 0 0 1-2-2ZM27.002 347.328a2 2 0 0 1 4 0v.011a2 2 0 0 1-4 0v-.011Zm693.997-2a2 2 0 0 1 2 2v.01a2 2 0 1 1-4 0v-.01a2 2 0 0 1 2-2ZM27.002 357.662a2 2 0 1 1 4 0v.01a2 2 0 0 1-4 0v-.01Zm693.997-2a2 2 0 0 1 2 2v.01a2 2 0 0 1-4 0v-.011c0-1.104.895-2 2-1.999ZM29.002 365.995a2 2 0 0 1 2 2v.01a2 2 0 1 1-4 0v-.01a2 2 0 0 1 2-2Zm691.997 0a2 2 0 0 1 2 2v.01a2 2 0 0 1-4 0v-.01a2 2 0 0 1 2-2ZM29.002 376.328a2 2 0 0 1 2 2v.011a2 2 0 0 1-4 0v-.011a2 2 0 0 1 2-2Zm691.997 0a2 2 0 0 1 2 2v.011a2 2 0 0 1-4-.001v-.01a2 2 0 0 1 2-2ZM27.002 388.662a2 2 0 1 1 4 0v.01a2 2 0 0 1-4 0v-.01Zm693.997-2a2 2 0 0 1 2 2v.01a2 2 0 0 1-4 0v-.011a2 2 0 0 1 2-1.999ZM29.002 396.995a2 2 0 0 1 2 2v.01a2 2 0 1 1-4 0v-.01a2 2 0 0 1 2-2Zm691.997 0a2 2 0 0 1 2 2v.01a2 2 0 0 1-4 0v-.01a2 2 0 0 1 2-2ZM29.002 407.328a2 2 0 0 1 2 2v.011a2 2 0 0 1-4 0v-.011a2 2 0 0 1 2-2Zm691.996 0a2 2 0 0 1 2 2v.011a2 2 0 0 1-4-.001v-.01a2 2 0 0 1 2-2ZM29.002 417.662a2 2 0 0 1 2 2v.01a2 2 0 0 1-4 0v-.01a2 2 0 0 1 2-2Zm691.996 0a2 2 0 0 1 2 2v.01a2 2 0 0 1-4 0v-.01a2 2 0 0 1 2-2ZM27.002 429.995a2 2 0 1 1 4 0v.01a2 2 0 1 1-4 0v-.01Zm693.996-2a2 2 0 0 1 2 2v.01a2 2 0 1 1-4 0v-.01a2 2 0 0 1 2-2ZM29.002 438.328a2 2 0 0 1 2 2v.011a2 2 0 0 1-4 0v-.011a2 2 0 0 1 2-2Zm691.996 0a2 2 0 0 1 2 2v.011a2 2 0 1 1-4-.001v-.01a2 2 0 0 1 2-2ZM29.002 448.662a2 2 0 0 1 2 2v.01a2 2 0 0 1-4 0v-.01a2 2 0 0 1 2-2Zm691.996 0a2 2 0 0 1 2 2v.01a2 2 0 0 1-4 0v-.01a2 2 0 0 1 2-2ZM30.439 459.604a2 2 0 0 0-3.438 1.391v.01a2 2 0 0 0 3.438 1.391c.352-.361.568-.853.568-1.396 0-.543-.216-1.035-.568-1.396Zm689.129-.007a2 2 0 0 1 3.43 1.398v.01a2 2 0 0 1-3.429 1.399 1.994 1.994 0 0 1-.576-1.404c0-.547.219-1.042.575-1.403ZM37.026 461a2 2 0 0 1 2-2h.01a2 2 0 1 1 0 4h-.01a2 2 0 0 1-2-2Zm10.029 0a2 2 0 0 1 2-2h.01a2 2 0 1 1 0 4h-.01a2 2 0 0 1-2-2Zm10.029 0a2 2 0 0 1 2-2h.01a2 2 0 1 1 0 4h-.01a2 2 0 0 1-2-2Zm10.028 0a2 2 0 0 1 2-2h.01a2 2 0 1 1 0 4h-.01a2 2 0 0 1-2-2Zm10.03 0a2 2 0 0 1 2-2h.01a2 2 0 1 1 0 4h-.01a2 2 0 0 1-2-2Zm10.028 0a2 2 0 0 1 2-2h.01a2 2 0 1 1 0 4h-.01a2 2 0 0 1-2-2Zm10.03 0a2 2 0 0 1 2-2h.01a2 2 0 1 1 0 4h-.01a2 2 0 0 1-2-2Zm10.028 0a2 2 0 0 1 2-2h.01a2 2 0 1 1 0 4h-.01a2 2 0 0 1-2-2Zm10.029 0a2 2 0 0 1 2-2h.01a2 2 0 1 1 0 4h-.01a2 2 0 0 1-2-2Zm10.029 0a2 2 0 0 1 2-2h.01a2 2 0 1 1 0 4h-.01a2 2 0 0 1-2-2Zm10.029 0a2 2 0 0 1 2-2h.01a2 2 0 1 1 0 4h-.01a2 2 0 0 1-2-2Zm10.029 0a2 2 0 0 1 2-2h.01a2 2 0 1 1 0 4h-.01a2 2 0 0 1-2-2Zm10.029 0a2 2 0 0 1 2-2h.01a2 2 0 0 1 0 4h-.01a2 2 0 0 1-2-2Zm10.029 0a2 2 0 0 1 2-2h.01a2 2 0 0 1 0 4h-.01a2 2 0 0 1-2-2Zm10.029 0a2 2 0 0 1 2-2h.01a2 2 0 0 1 0 4h-.01a2 2 0 0 1-2-2Zm10.029 0a2 2 0 0 1 2-2h.01a2 2 0 0 1 0 4h-.01a2 2 0 0 1-2-2Zm10.029 0a2 2 0 0 1 2-2h.01a2 2 0 0 1 0 4h-.01a2 2 0 0 1-2-2Zm10.029 0a2 2 0 0 1 2-2h.01a2 2 0 0 1 0 4h-.01a2 2 0 0 1-2-2Zm10.029 0a2 2 0 0 1 2-2h.01a2 2 0 0 1 0 4h-.01a2 2 0 0 1-2-2Zm10.028 0a2 2 0 0 1 2-2h.01a2 2 0 1 1 0 4h-.01a2 2 0 0 1-2-2Zm10.029 0a2 2 0 0 1 2-2h.01a2 2 0 1 1 0 4h-.01a2 2 0 0 1-2-2Zm10.029 0a2 2 0 0 1 2-2h.01a2 2 0 1 1 0 4h-.01a2 2 0 0 1-2-2Zm10.029 0a2 2 0 0 1 2-2h.01a2 2 0 1 1 0 4h-.01a2 2 0 0 1-2-2Zm10.029 0a2 2 0 0 1 2-2h.01a2 2 0 1 1 0 4h-.01a2 2 0 0 1-2-2Zm10.029 0a2 2 0 0 1 2-2h.01a2 2 0 1 1 0 4h-.01a2 2 0 0 1-2-2Zm10.029 0a2 2 0 0 1 2-2h.01a2 2 0 1 1 0 4h-.01a2 2 0 0 1-2-2Zm10.029 0a2 2 0 0 1 2-2h.01a2 2 0 1 1 0 4h-.01a2 2 0 0 1-2-2Zm10.029 0a2 2 0 0 1 2-2h.01a2 2 0 0 1 0 4h-.01a2 2 0 0 1-2-2Zm10.029 0a2 2 0 0 1 2-2h.01a2 2 0 0 1 0 4h-.01a2 2 0 0 1-2-2Zm10.029 0a2 2 0 0 1 2-2h.01a2 2 0 0 1 0 4h-.01a2 2 0 0 1-2-2Zm10.029 0a2 2 0 0 1 2-2h.01a2 2 0 0 1 0 4h-.01a2 2 0 0 1-2-2Zm10.029 0a2 2 0 0 1 2-2h.01a2 2 0 0 1 0 4h-.01a2 2 0 0 1-2-2Zm10.029 0a2 2 0 0 1 2-2h.01a2 2 0 0 1 0 4h-.01a2 2 0 0 1-2-2Zm10.028 0a2 2 0 0 1 2-2h.01a2 2 0 1 1 0 4h-.01a2 2 0 0 1-2-2Zm10.029 0a2 2 0 0 1 2-2h.01a2 2 0 1 1 0 4h-.01a2 2 0 0 1-2-2Zm10.029 0a2 2 0 0 1 2-2h.01a2 2 0 1 1 0 4h-.01a2 2 0 0 1-2-2Zm10.029 0a2 2 0 0 1 2-2h.01a2 2 0 1 1 0 4h-.01a2 2 0 0 1-2-2Zm10.029 0a2 2 0 0 1 2-2h.01a2 2 0 1 1 0 4h-.01a2 2 0 0 1-2-2Zm10.029 0a2 2 0 0 1 2-2h.01a2 2 0 1 1 0 4h-.01a2 2 0 0 1-2-2Zm10.029 0a2 2 0 0 1 2-2h.01a2 2 0 1 1 0 4h-.01a2 2 0 0 1-2-2Zm10.029 0a2 2 0 0 1 2-2h.01a2 2 0 1 1 0 4h-.01a2 2 0 0 1-2-2Zm10.029 0a2 2 0 0 1 2-2h.01a2 2 0 1 1 0 4h-.01a2 2 0 0 1-2-2Zm10.029 0a2 2 0 0 1 2-2h.01a2 2 0 0 1 0 4h-.01a2 2 0 0 1-2-2Zm10.029 0a2 2 0 0 1 2-2h.01a2 2 0 0 1 0 4h-.01a2 2 0 0 1-2-2Zm10.029 0a2 2 0 0 1 2-2h.01a2 2 0 0 1 0 4h-.01a2 2 0 0 1-2-2Zm10.029 0a2 2 0 0 1 2-2h.01a2 2 0 0 1 0 4h-.01a2 2 0 0 1-2-2Zm10.029 0a2 2 0 0 1 2-2h.01a2 2 0 0 1 0 4h-.01a2 2 0 0 1-2-2Zm10.028 0a2 2 0 0 1 2-2h.011a2 2 0 0 1 0 4h-.011a2 2 0 0 1-2-2Zm10.029 0a2 2 0 0 1 2-2h.01a2 2 0 1 1 0 4h-.01a2 2 0 0 1-2-2Zm10.029 0a2 2 0 0 1 2-2h.01a2 2 0 1 1 0 4h-.01a2 2 0 0 1-2-2Zm10.029 0a2 2 0 0 1 2-2h.01a2 2 0 1 1 0 4h-.01a2 2 0 0 1-2-2Zm10.029 0a2 2 0 0 1 2-2h.01a2 2 0 1 1 0 4h-.01a2 2 0 0 1-2-2Zm10.029 0a2 2 0 0 1 2-2h.01a2 2 0 1 1 0 4h-.01a2 2 0 0 1-2-2Zm10.029 0a2 2 0 0 1 2-2h.01a2 2 0 1 1 0 4h-.01a2 2 0 0 1-2-2Zm10.029 0a2 2 0 0 1 2-2h.01a2 2 0 1 1 0 4h-.01a2 2 0 0 1-2-2Zm10.029 0a2 2 0 0 1 2-2h.01a2 2 0 1 1 0 4h-.01a2 2 0 0 1-2-2Zm10.029 0a2 2 0 0 1 2-2h.01a2 2 0 0 1 0 4h-.01a2 2 0 0 1-2-2Zm10.029 0a2 2 0 0 1 2-2h.01a2 2 0 0 1 0 4h-.01a2 2 0 0 1-2-2Zm10.029 0a2 2 0 0 1 2-2h.01a2 2 0 0 1 0 4h-.01a2 2 0 0 1-2-2Zm10.029 0a2 2 0 0 1 2-2h.01a2 2 0 0 1 0 4h-.01a2 2 0 0 1-2-2Zm10.029 0a2 2 0 0 1 2-2h.01a2 2 0 0 1 0 4h-.01a2 2 0 0 1-2-2Zm10.029 0a2 2 0 0 1 2-2h.01a2 2 0 0 1 0 4h-.01a2 2 0 0 1-2-2Zm10.028 0a2 2 0 0 1 2-2h.01a2 2 0 1 1 0 4h-.01a2 2 0 0 1-2-2Zm10.029 0a2 2 0 0 1 2-2h.01a2 2 0 1 1 0 4h-.01a2 2 0 0 1-2-2Zm10.029 0a2 2 0 0 1 2-2h.01a2 2 0 1 1 0 4h-.01a2 2 0 0 1-2-2Zm10.029 0a2 2 0 0 1 2-2h.01a2 2 0 1 1 0 4h-.01a2 2 0 0 1-2-2Zm10.029 0a2 2 0 0 1 2-2h.01a2 2 0 1 1 0 4h-.01a2 2 0 0 1-2-2Zm10.029 0a2 2 0 0 1 2-2h.01a2 2 0 1 1 0 4h-.01a2 2 0 0 1-2-2Zm12.034 8.328a2 2 0 0 1 2 2v.011a2 2 0 0 1-4 0v-.011a2 2 0 0 1 2-2Zm-691.996 0a2 2 0 0 1 2 2v.011a2 2 0 0 1-4 0v-.011a2 2 0 0 1 2-2Zm0 10.334a2 2 0 0 1 2 2v.01a2 2 0 0 1-4 0v-.01a2 2 0 0 1 2-2Zm691.996 0a2 2 0 0 1 2 2v.01a2 2 0 0 1-4 0v-.01a2 2 0 0 1 2-2ZM29.002 489.995a2 2 0 0 1 2 2v.01a2 2 0 1 1-4 0v-.01a2 2 0 0 1 2-2Zm691.996 0a2 2 0 0 1 2 2v.01a2 2 0 1 1-4 0v-.01a2 2 0 0 1 2-2ZM29.001 500.328a2 2 0 0 1 2 2v.011a2 2 0 0 1-4 0v-.011a2 2 0 0 1 2-2Zm691.997 0a2 2 0 0 1 2 2v.01a2 2 0 1 1-4 0v-.01a2 2 0 0 1 2-2Zm0 10.333a2 2 0 0 1 2 2v.011a2 2 0 0 1-4 0v-.011a2 2 0 0 1 2-2Zm-691.997.001a2 2 0 0 1 2 2v.01a2 2 0 0 1-4 0v-.01a2 2 0 0 1 2-2Zm0 10.333a2 2 0 0 1 2 2v.01a2 2 0 1 1-4 0v-.01a2 2 0 0 1 2-2Zm691.997 0a2 2 0 0 1 2 2v.01a2 2 0 1 1-4 0v-.01a2 2 0 0 1 2-2ZM29.001 531.328a2 2 0 0 1 2 2v.011a2 2 0 0 1-4 0v-.011a2 2 0 0 1 2-2Zm691.997 0a2 2 0 0 1 2 2v.01a2 2 0 1 1-4 0v-.01a2 2 0 0 1 2-2Zm0 10.333a2 2 0 0 1 2 2v.011a2 2 0 0 1-4 0v-.011a2 2 0 0 1 2-2Zm-691.997.001a2 2 0 0 1 2 2v.01a2 2 0 0 1-4 0v-.011c0-1.104.895-2 2-1.999Zm0 10.333a2 2 0 0 1 2 2v.01a2 2 0 1 1-4 0v-.01a2 2 0 0 1 2-2Zm691.997 0a2 2 0 0 1 2 2v.01a2 2 0 1 1-4 0v-.01a2 2 0 0 1 2-2ZM29.001 562.328a2 2 0 0 1 2 2v.011a2 2 0 0 1-4 0v-.011a2 2 0 0 1 2-2Zm691.997 0a2 2 0 0 1 2 2v.01a2 2 0 1 1-4 0v-.01a2 2 0 0 1 2-2ZM29.001 572.661a2 2 0 0 1 2 2.001v.01a2 2 0 0 1-4 0v-.011a2 2 0 0 1 2-2Zm691.997 0a2 2 0 0 1 2 2v.011a2 2 0 0 1-4 0v-.011a2 2 0 0 1 2-2ZM30.44 583.606a2 2 0 0 0-3.44 1.389v.01a2 2 0 0 0 3.442 1.387c.349-.36.564-.851.564-1.392 0-.542-.216-1.034-.566-1.394Zm690.558-.611a2 2 0 0 1 2 2v.01a2 2 0 0 1-3.344 1.481 1.995 1.995 0 0 1-.661-1.486c0-.59.255-1.12.661-1.486a1.99 1.99 0 0 1 1.344-.519ZM37.025 585a2 2 0 0 1 2-2h.01a2 2 0 1 1 0 4h-.01a2 2 0 0 1-2-2Zm10.029 0a2 2 0 0 1 2-2h.01a2 2 0 1 1 0 4h-.01a2 2 0 0 1-2-2Zm10.029 0a2 2 0 0 1 2-2h.01a2 2 0 1 1 0 4h-.01a2 2 0 0 1-2-2Zm10.029 0a2 2 0 0 1 2-2h.01a2 2 0 1 1 0 4h-.01a2 2 0 0 1-2-2Zm10.028 0a2 2 0 0 1 2-2h.01a2 2 0 1 1 0 4h-.01a2 2 0 0 1-2-2Zm10.03 0a2 2 0 0 1 2-2h.01a2 2 0 1 1 0 4h-.01a2 2 0 0 1-2-2Zm10.028 0a2 2 0 0 1 2-2h.01a2 2 0 1 1 0 4h-.01a2 2 0 0 1-2-2Zm10.029 0a2 2 0 0 1 2-2h.01a2 2 0 1 1 0 4h-.01a2 2 0 0 1-2-2Zm10.029 0a2 2 0 0 1 2-2h.01a2 2 0 1 1 0 4h-.01a2 2 0 0 1-2-2Zm10.029 0a2 2 0 0 1 2-2h.01a2 2 0 1 1 0 4h-.01a2 2 0 0 1-2-2Zm10.029 0a2 2 0 0 1 2-2h.01a2 2 0 1 1 0 4h-.01a2 2 0 0 1-2-2Zm10.029 0a2 2 0 0 1 2-2h.01a2 2 0 1 1 0 4h-.01a2 2 0 0 1-2-2Zm10.029 0a2 2 0 0 1 2-2h.01a2 2 0 1 1 0 4h-.01a2 2 0 0 1-2-2Zm10.029 0a2 2 0 0 1 2-2h.01a2 2 0 1 1 0 4h-.01a2 2 0 0 1-2-2Zm10.029 0a2 2 0 0 1 2-2h.01a2 2 0 1 1 0 4h-.01a2 2 0 0 1-2-2Zm10.029 0a2 2 0 0 1 2-2h.01a2 2 0 1 1 0 4h-.01a2 2 0 0 1-2-2Zm10.029 0a2 2 0 0 1 2-2h.01a2 2 0 0 1 0 4h-.01a2 2 0 0 1-2-2Zm10.029 0a2 2 0 0 1 2-2h.01a2 2 0 0 1 0 4h-.01a2 2 0 0 1-2-2Zm10.029 0a2 2 0 0 1 2-2h.01a2 2 0 0 1 0 4h-.01a2 2 0 0 1-2-2Zm10.029 0a2 2 0 0 1 2-2h.01a2 2 0 0 1 0 4h-.01a2 2 0 0 1-2-2Zm10.029 0a2 2 0 0 1 2-2h.01a2 2 0 0 1 0 4h-.01a2 2 0 0 1-2-2Zm10.029 0a2 2 0 0 1 2-2h.01a2 2 0 0 1 0 4h-.01a2 2 0 0 1-2-2Zm10.029 0a2 2 0 0 1 2-2h.01a2 2 0 0 1 0 4h-.01a2 2 0 0 1-2-2Zm10.029 0a2 2 0 0 1 2-2h.01a2 2 0 0 1 0 4h-.01a2 2 0 0 1-2-2Zm10.029 0a2 2 0 0 1 2-2h.01a2 2 0 0 1 0 4h-.01a2 2 0 0 1-2-2Zm10.029 0a2 2 0 0 1 2-2h.01a2 2 0 0 1 0 4h-.01a2 2 0 0 1-2-2Zm10.028 0a2 2 0 0 1 2-2h.01a2 2 0 1 1 0 4h-.01a2 2 0 0 1-2-2Zm10.029 0a2 2 0 0 1 2-2h.01a2 2 0 1 1 0 4h-.01a2 2 0 0 1-2-2Zm10.029 0a2 2 0 0 1 2-2h.01a2 2 0 1 1 0 4h-.01a2 2 0 0 1-2-2Zm10.029 0a2 2 0 0 1 2-2h.01a2 2 0 1 1 0 4h-.01a2 2 0 0 1-2-2Zm10.029 0a2 2 0 0 1 2-2h.01a2 2 0 1 1 0 4h-.01a2 2 0 0 1-2-2Zm10.029 0a2 2 0 0 1 2-2h.01a2 2 0 1 1 0 4h-.01a2 2 0 0 1-2-2Zm10.029 0a2 2 0 0 1 2-2h.01a2 2 0 1 1 0 4h-.01a2 2 0 0 1-2-2Zm10.029 0a2 2 0 0 1 2-2h.01a2 2 0 1 1 0 4h-.01a2 2 0 0 1-2-2Zm10.029 0a2 2 0 0 1 2-2h.01a2 2 0 0 1 0 4h-.01a2 2 0 0 1-2-2Zm10.029 0a2 2 0 0 1 2-2h.01a2 2 0 0 1 0 4h-.01a2 2 0 0 1-2-2Zm10.029 0a2 2 0 0 1 2-2h.01a2 2 0 0 1 0 4h-.01a2 2 0 0 1-2-2Zm10.029 0a2 2 0 0 1 2-2h.01a2 2 0 0 1 0 4h-.01a2 2 0 0 1-2-2Zm10.029 0a2 2 0 0 1 2-2h.01a2 2 0 0 1 0 4h-.01a2 2 0 0 1-2-2Zm10.029 0a2 2 0 0 1 2-2h.01a2 2 0 0 1 0 4h-.01a2 2 0 0 1-2-2Zm10.028 0a2 2 0 0 1 2-2h.01a2 2 0 1 1 0 4h-.01a2 2 0 0 1-2-2Zm10.029 0a2 2 0 0 1 2-2h.01a2 2 0 1 1 0 4h-.01a2 2 0 0 1-2-2Zm10.029 0a2 2 0 0 1 2-2h.01a2 2 0 1 1 0 4h-.01a2 2 0 0 1-2-2Zm10.029 0a2 2 0 0 1 2-2h.01a2 2 0 1 1 0 4h-.01a2 2 0 0 1-2-2Zm10.029 0a2 2 0 0 1 2-2h.01a2 2 0 1 1 0 4h-.01a2 2 0 0 1-2-2Zm10.029 0a2 2 0 0 1 2-2h.01a2 2 0 1 1 0 4h-.01a2 2 0 0 1-2-2Zm10.029 0a2 2 0 0 1 2-2h.01a2 2 0 1 1 0 4h-.01a2 2 0 0 1-2-2Zm10.029 0a2 2 0 0 1 2-2h.01a2 2 0 1 1 0 4h-.01a2 2 0 0 1-2-2Zm10.029 0a2 2 0 0 1 2-2h.01a2 2 0 1 1 0 4h-.01a2 2 0 0 1-2-2Zm10.029 0a2 2 0 0 1 2-2h.01a2 2 0 0 1 0 4h-.01a2 2 0 0 1-2-2Zm10.029 0a2 2 0 0 1 2-2h.01a2 2 0 0 1 0 4h-.01a2 2 0 0 1-2-2Zm10.029 0a2 2 0 0 1 2-2h.01a2 2 0 0 1 0 4h-.01a2 2 0 0 1-2-2Zm10.029 0a2 2 0 0 1 2-2h.01a2 2 0 0 1 0 4h-.01a2 2 0 0 1-2-2Zm10.029 0a2 2 0 0 1 2-2h.01a2 2 0 0 1 0 4h-.01a2 2 0 0 1-2-2Zm10.028 0a2 2 0 0 1 2-2h.011a2 2 0 0 1 0 4h-.011a2 2 0 0 1-2-2Zm10.029 0a2 2 0 0 1 2-2h.01a2 2 0 1 1 0 4h-.01a2 2 0 0 1-2-2Zm10.029 0a2 2 0 0 1 2-2h.01a2 2 0 1 1 0 4h-.01a2 2 0 0 1-2-2Zm10.029 0a2 2 0 0 1 2-2h.01a2 2 0 1 1 0 4h-.01a2 2 0 0 1-2-2Zm10.029 0a2 2 0 0 1 2-2h.01a2 2 0 1 1 0 4h-.01a2 2 0 0 1-2-2Zm10.029 0a2 2 0 0 1 2-2h.01a2 2 0 1 1 0 4h-.01a2 2 0 0 1-2-2Zm10.029 0a2 2 0 0 1 2-2h.01a2 2 0 1 1 0 4h-.01a2 2 0 0 1-2-2Zm10.029 0a2 2 0 0 1 2-2h.01a2 2 0 1 1 0 4h-.01a2 2 0 0 1-2-2Zm10.029 0a2 2 0 0 1 2-2h.01a2 2 0 1 1 0 4h-.01a2 2 0 0 1-2-2Zm10.029 0a2 2 0 0 1 2-2h.01a2 2 0 0 1 0 4h-.01a2 2 0 0 1-2-2Zm10.029 0a2 2 0 0 1 2-2h.01a2 2 0 0 1 0 4h-.01a2 2 0 0 1-2-2Zm10.029 0a2 2 0 0 1 2-2h.01a2 2 0 0 1 0 4h-.01a2 2 0 0 1-2-2Zm10.029 0a2 2 0 0 1 2-2h.01a2 2 0 0 1 0 4h-.01a2 2 0 0 1-2-2Zm10.029 0a2 2 0 0 1 2-2h.01a2 2 0 0 1 0 4h-.01a2 2 0 0 1-2-2Zm-679.963 8.328a2 2 0 0 1 2 2v.011a2 2 0 0 1-4 0v-.011a2 2 0 0 1 2-2Zm691.997 0a2 2 0 0 1 2 2v.01a2 2 0 1 1-4 0v-.01a2 2 0 0 1 2-2ZM29.001 603.661a2 2 0 0 1 2 2v.011a2 2 0 0 1-4 0v-.011a2 2 0 0 1 2-2Zm691.997 0a2 2 0 0 1 2 2v.011a2 2 0 0 1-4 0v-.011a2 2 0 0 1 2-2ZM29.001 613.995a2 2 0 0 1 2 2v.01a2 2 0 1 1-4 0v-.01a2 2 0 0 1 2-2Zm691.997 0a2 2 0 0 1 2 2v.01a2 2 0 1 1-4 0v-.01a2 2 0 0 1 2-2ZM27.001 626.328a2 2 0 0 1 4 0v.011a2 2 0 0 1-4 0v-.011Zm693.997-2a2 2 0 0 1 2 2v.01a2 2 0 1 1-4 0v-.01a2 2 0 0 1 2-2ZM29.001 634.661a2 2 0 0 1 2 2v.011a2 2 0 0 1-4 0v-.011a2 2 0 0 1 2-2Zm691.997 0a2 2 0 0 1 2 2v.011a2 2 0 0 1-4 0v-.011a2 2 0 0 1 2-2ZM29 644.995a2 2 0 0 1 2 2v.01a2 2 0 1 1-4 0v-.01a2 2 0 0 1 2-2Zm691.998 0a2 2 0 0 1 2 2v.01a2 2 0 1 1-4 0v-.01a2 2 0 0 1 2-2ZM29 655.328a2 2 0 0 1 2 2v.01a2 2 0 1 1-4 0v-.01a2 2 0 0 1 2-2Zm691.998 0a2 2 0 0 1 2 2v.01a2 2 0 1 1-4 0v-.01a2 2 0 0 1 2-2ZM27 667.661a2 2 0 0 1 4 0v.011a2 2 0 0 1-4 0v-.011Zm693.998-2a2 2 0 0 1 2 2v.011a2 2 0 0 1-4 0v-.011a2 2 0 0 1 2-2ZM29 675.995a2 2 0 0 1 2 2v.01a2 2 0 1 1-4 0v-.01a2 2 0 0 1 2-2Zm691.998 0a2 2 0 0 1 2 2v.01a2 2 0 1 1-4 0v-.01a2 2 0 0 1 2-2ZM29 686.328a2 2 0 0 1 2 2v.01a2 2 0 1 1-4 0v-.01a2 2 0 0 1 2-2Zm691.998 0a2 2 0 0 1 2 2v.01a2 2 0 1 1-4 0v-.01a2 2 0 0 1 2-2ZM29 696.661a2 2 0 0 1 2 2v.011a2 2 0 0 1-4 0v-.011a2 2 0 0 1 2-2Zm691.998 0a2 2 0 0 1 2 2v.011a2 2 0 0 1-4 0v-.011a2 2 0 0 1 2-2ZM30.441 707.608a2 2 0 0 0-3.44 1.387v.01a2 2 0 0 0 3.44 1.387c.35-.36.564-.851.564-1.392 0-.541-.215-1.032-.564-1.392Zm690.557-.613a2 2 0 0 1 2 2v.01a2 2 0 0 1-3.313 1.509 1.997 1.997 0 0 1 0-3.028 1.994 1.994 0 0 1 1.313-.491ZM37.024 709a2 2 0 0 1 2-2h.01a2 2 0 1 1 0 4h-.01a2 2 0 0 1-2-2Zm10.03 0a2 2 0 0 1 2-2h.01a2 2 0 1 1 0 4h-.01a2 2 0 0 1-2-2Zm10.028 0a2 2 0 0 1 2-2h.01a2 2 0 1 1 0 4h-.01a2 2 0 0 1-2-2Zm10.03 0a2 2 0 0 1 2-2h.01a2 2 0 1 1 0 4h-.01a2 2 0 0 1-2-2Zm10.028 0a2 2 0 0 1 2-2h.01a2 2 0 1 1 0 4h-.01a2 2 0 0 1-2-2Zm10.03 0a2 2 0 0 1 2-2h.01a2 2 0 1 1 0 4h-.01a2 2 0 0 1-2-2Zm10.028 0a2 2 0 0 1 2-2h.01a2 2 0 1 1 0 4h-.01a2 2 0 0 1-2-2Zm10.029 0a2 2 0 0 1 2-2h.01a2 2 0 1 1 0 4h-.01a2 2 0 0 1-2-2Zm10.029 0a2 2 0 0 1 2-2h.01a2 2 0 0 1 0 4h-.01a2 2 0 0 1-2-2Zm10.029 0a2 2 0 0 1 2-2h.01a2 2 0 0 1 0 4h-.01a2 2 0 0 1-2-2Zm10.029 0a2 2 0 0 1 2-2h.01a2 2 0 0 1 0 4h-.01a2 2 0 0 1-2-2Zm10.029 0a2 2 0 0 1 2-2h.01a2 2 0 0 1 0 4h-.01a2 2 0 0 1-2-2Zm10.029 0a2 2 0 0 1 2-2h.01a2 2 0 0 1 0 4h-.01a2 2 0 0 1-2-2Zm10.029 0a2 2 0 0 1 2-2h.01a2 2 0 0 1 0 4h-.01a2 2 0 0 1-2-2Zm10.029 0a2 2 0 0 1 2-2h.01a2 2 0 0 1 0 4h-.01a2 2 0 0 1-2-2Zm10.029 0a2 2 0 0 1 2-2h.01a2 2 0 0 1 0 4h-.01a2 2 0 0 1-2-2Zm10.029 0a2 2 0 0 1 2-2h.01a2 2 0 0 1 0 4h-.01a2 2 0 0 1-2-2Zm10.029 0a2 2 0 0 1 2-2h.01a2 2 0 0 1 0 4h-.01a2 2 0 0 1-2-2Zm10.028 0a2 2 0 0 1 2-2h.011a2 2 0 0 1 0 4h-.011a2 2 0 0 1-2-2Zm10.029 0a2 2 0 0 1 2-2h.01a2 2 0 1 1 0 4h-.01a2 2 0 0 1-2-2Zm10.029 0a2 2 0 0 1 2-2h.01a2 2 0 1 1 0 4h-.01a2 2 0 0 1-2-2Zm10.029 0a2 2 0 0 1 2-2h.01a2 2 0 1 1 0 4h-.01a2 2 0 0 1-2-2Zm10.029 0a2 2 0 0 1 2-2h.01a2 2 0 1 1 0 4h-.01a2 2 0 0 1-2-2Zm10.029 0a2 2 0 0 1 2-2h.01a2 2 0 1 1 0 4h-.01a2 2 0 0 1-2-2Zm10.029 0a2 2 0 0 1 2-2h.01a2 2 0 1 1 0 4h-.01a2 2 0 0 1-2-2Zm10.029 0a2 2 0 0 1 2-2h.01a2 2 0 1 1 0 4h-.01a2 2 0 0 1-2-2Zm10.029 0a2 2 0 0 1 2-2h.01a2 2 0 1 1 0 4h-.01a2 2 0 0 1-2-2Zm10.029 0a2 2 0 0 1 2-2h.01a2 2 0 1 1 0 4h-.01a2 2 0 0 1-2-2Zm10.029 0a2 2 0 0 1 2-2h.01a2 2 0 1 1 0 4h-.01a2 2 0 0 1-2-2Zm10.029 0a2 2 0 0 1 2-2h.01a2 2 0 0 1 0 4h-.01a2 2 0 0 1-2-2Zm10.029 0a2 2 0 0 1 2-2h.01a2 2 0 0 1 0 4h-.01a2 2 0 0 1-2-2Zm10.029 0a2 2 0 0 1 2-2h.01a2 2 0 0 1 0 4h-.01a2 2 0 0 1-2-2Zm10.029 0a2 2 0 0 1 2-2h.01a2 2 0 0 1 0 4h-.01a2 2 0 0 1-2-2Zm10.029 0a2 2 0 0 1 2-2h.01a2 2 0 0 1 0 4h-.01a2 2 0 0 1-2-2Zm10.029 0a2 2 0 0 1 2-2h.01a2 2 0 0 1 0 4h-.01a2 2 0 0 1-2-2Zm10.029 0a2 2 0 0 1 2-2h.01a2 2 0 0 1 0 4h-.01a2 2 0 0 1-2-2Zm10.028 0a2 2 0 0 1 2-2h.01a2 2 0 1 1 0 4h-.01a2 2 0 0 1-2-2Zm10.029 0a2 2 0 0 1 2-2h.01a2 2 0 1 1 0 4h-.01a2 2 0 0 1-2-2Zm10.029 0a2 2 0 0 1 2-2h.01a2 2 0 1 1 0 4h-.01a2 2 0 0 1-2-2Zm10.029 0a2 2 0 0 1 2-2h.01a2 2 0 1 1 0 4h-.01a2 2 0 0 1-2-2Zm10.029 0a2 2 0 0 1 2-2h.01a2 2 0 1 1 0 4h-.01a2 2 0 0 1-2-2Zm10.029 0a2 2 0 0 1 2-2h.01a2 2 0 1 1 0 4h-.01a2 2 0 0 1-2-2Zm10.029 0a2 2 0 0 1 2-2h.01a2 2 0 1 1 0 4h-.01a2 2 0 0 1-2-2Zm10.029 0a2 2 0 0 1 2-2h.01a2 2 0 1 1 0 4h-.01a2 2 0 0 1-2-2Zm10.029 0a2 2 0 0 1 2-2h.01a2 2 0 0 1 0 4h-.01a2 2 0 0 1-2-2Zm10.029 0a2 2 0 0 1 2-2h.01a2 2 0 0 1 0 4h-.01a2 2 0 0 1-2-2Zm10.029 0a2 2 0 0 1 2-2h.01a2 2 0 0 1 0 4h-.01a2 2 0 0 1-2-2Zm10.029 0a2 2 0 0 1 2-2h.01a2 2 0 0 1 0 4h-.01a2 2 0 0 1-2-2Zm10.029 0a2 2 0 0 1 2-2h.01a2 2 0 0 1 0 4h-.01a2 2 0 0 1-2-2Zm10.029 0a2 2 0 0 1 2-2h.01a2 2 0 0 1 0 4h-.01a2 2 0 0 1-2-2Zm10.028 0a2 2 0 0 1 2-2h.01a2 2 0 1 1 0 4h-.01a2 2 0 0 1-2-2Zm10.029 0a2 2 0 0 1 2-2h.01a2 2 0 1 1 0 4h-.01a2 2 0 0 1-2-2Zm10.029 0a2 2 0 0 1 2-2h.01a2 2 0 1 1 0 4h-.01a2 2 0 0 1-2-2Zm10.029 0a2 2 0 0 1 2-2h.01a2 2 0 1 1 0 4h-.01a2 2 0 0 1-2-2Zm10.029 0a2 2 0 0 1 2-2h.01a2 2 0 1 1 0 4h-.01a2 2 0 0 1-2-2Zm10.029 0a2 2 0 0 1 2-2h.01a2 2 0 1 1 0 4h-.01a2 2 0 0 1-2-2Zm10.029 0a2 2 0 0 1 2-2h.01a2 2 0 1 1 0 4h-.01a2 2 0 0 1-2-2Zm10.029 0a2 2 0 0 1 2-2h.01a2 2 0 1 1 0 4h-.01a2 2 0 0 1-2-2Zm10.029 0a2 2 0 0 1 2-2h.01a2 2 0 0 1 0 4h-.01a2 2 0 0 1-2-2Zm10.029 0a2 2 0 0 1 2-2h.01a2 2 0 0 1 0 4h-.01a2 2 0 0 1-2-2Zm10.029 0a2 2 0 0 1 2-2h.01a2 2 0 0 1 0 4h-.01a2 2 0 0 1-2-2Zm10.029 0a2 2 0 0 1 2-2h.01a2 2 0 0 1 0 4h-.01a2 2 0 0 1-2-2Zm10.029 0a2 2 0 0 1 2-2h.01a2 2 0 0 1 0 4h-.01a2 2 0 0 1-2-2Zm10.029 0a2 2 0 0 1 2-2h.01a2 2 0 0 1 0 4h-.01a2 2 0 0 1-2-2Zm10.029 0a2 2 0 0 1 2-2h.01a2 2 0 0 1 0 4h-.01a2 2 0 0 1-2-2Zm10.028 0a2 2 0 0 1 2-2h.01a2 2 0 1 1 0 4h-.01a2 2 0 0 1-2-2Zm10.029 0a2 2 0 0 1 2-2h.01a2 2 0 1 1 0 4h-.01a2 2 0 0 1-2-2Zm10.029 0a2 2 0 0 1 2-2h.01a2 2 0 1 1 0 4h-.01a2 2 0 0 1-2-2ZM29 717.395a2 2 0 0 1 2 2v.01a2 2 0 1 1-4 0v-.01a2 2 0 0 1 2-2Zm691.998 0a2 2 0 0 1 2 2v.01a2 2 0 1 1-4 0v-.01a2 2 0 0 1 2-2ZM29 727.795a2 2 0 0 1 2 2v.01a2 2 0 1 1-4 0v-.01a2 2 0 0 1 2-2Zm691.998 0a2 2 0 0 1 2 2v.01a2 2 0 1 1-4 0v-.01a2 2 0 0 1 2-2ZM29 738.195a2 2 0 0 1 2 2v.01a2 2 0 1 1-4 0v-.01a2 2 0 0 1 2-2Zm691.998 0a2 2 0 0 1 2 2v.01a2 2 0 1 1-4 0v-.01a2 2 0 0 1 2-2ZM29 748.595a2 2 0 0 1 2 2v.01a2 2 0 1 1-4 0v-.01a2 2 0 0 1 2-2Zm691.998 0a2 2 0 0 1 2 2v.01a2 2 0 1 1-4 0v-.01a2 2 0 0 1 2-2ZM29 758.995a2 2 0 0 1 2 2v.01a2 2 0 1 1-4 0v-.01a2 2 0 0 1 2-2Zm691.998 0a2 2 0 0 1 2 2v.01a2 2 0 1 1-4 0v-.01a2 2 0 0 1 2-2ZM29 769.395a2 2 0 0 1 2 2v.01a2 2 0 1 1-4 0v-.01a2 2 0 0 1 2-2Zm691.998 0a2 2 0 0 1 2 2v.01a2 2 0 0 1-4 0v-.01a2 2 0 0 1 2-2ZM29 779.795a2 2 0 0 1 2 2v.01a2 2 0 1 1-4 0v-.01a2 2 0 0 1 2-2Zm691.998 0a2 2 0 0 1 2 2v.01a2 2 0 0 1-4 0v-.01a2 2 0 0 1 2-2ZM29 790.195a2 2 0 0 1 2 2v.01a2 2 0 1 1-4 0v-.01a2 2 0 0 1 2-2Zm691.998 0a2 2 0 0 1 2 2v.01a2 2 0 0 1-4 0v-.01a2 2 0 0 1 2-2ZM29 800.595a2 2 0 0 1 2 2v.01a2 2 0 1 1-4 0v-.01a2 2 0 0 1 2-2Zm691.998 0a2 2 0 0 1 2 2v.01a2 2 0 0 1-4 0v-.01a2 2 0 0 1 2-2ZM29 810.995a2 2 0 0 1 2 2v.01a2 2 0 0 1-4 .001v-.011a2 2 0 0 1 2-2Zm691.998 0a2 2 0 0 1 2 2v.011a2 2 0 0 1-4-.001v-.01a2 2 0 0 1 2-2ZM30.673 821.266a2 2 0 0 1 2.732.73l.005.008a2 2 0 0 1-3.462 2.004l-.005-.01a2 2 0 0 1 .73-2.732Zm688.652 0a2 2 0 0 1 .73 2.732l-.006.01a2 2 0 0 1-3.461-2.004l.004-.008a2 2 0 0 1 2.733-.73Zm-682.062 8.053a2 2 0 0 1 2.733-.729l.008.005a2 2 0 1 1-2.002 3.462l-.01-.005a2 2 0 0 1-.729-2.733Zm675.472 0a2 2 0 0 1-.729 2.733l-.01.005a2 2 0 0 1-2.002-3.462l.008-.005a2 2 0 0 1 2.733.729Zm-665.74 3.68a2 2 0 0 1 2-1.999h.01a2 2 0 1 1 0 4h-.01a2 2 0 0 1-2-2.001Zm9.765.001a2 2 0 0 1 2-2h.01a2 2 0 1 1 0 4h-.01a2 2 0 0 1-2-2Zm9.765 0a2 2 0 0 1 2-2h.01a2 2 0 1 1 0 4h-.01a2 2 0 0 1-2-2Zm9.764 0a2 2 0 0 1 2-2h.01a2 2 0 1 1 0 4h-.01a2 2 0 0 1-2-2Zm9.765 0a2 2 0 0 1 2-2h.01a2 2 0 1 1 0 4h-.01a2 2 0 0 1-2-2Zm9.765 0a2 2 0 0 1 2-2h.01a2 2 0 1 1 0 4h-.01a2 2 0 0 1-2-2Zm9.764 0a2 2 0 0 1 2-2h.01a2 2 0 1 1 0 4h-.01a2 2 0 0 1-2-2Zm9.765 0a2 2 0 0 1 2-2h.01a2 2 0 0 1 0 4h-.01a2 2 0 0 1-2-2Zm9.765 0a2 2 0 0 1 2-2h.01a2 2 0 0 1 0 4h-.01a2 2 0 0 1-2-2Zm9.764 0a2 2 0 0 1 2-2h.01a2 2 0 1 1 0 4h-.01a2 2 0 0 1-2-2Zm9.765 0a2 2 0 0 1 2-2h.01a2 2 0 1 1 0 4h-.01a2 2 0 0 1-2-2Zm9.765 0a2 2 0 0 1 2-2h.01a2 2 0 0 1 0 4h-.01a2 2 0 0 1-2-2Zm9.765 0a2 2 0 0 1 2-2h.009a2 2 0 1 1 0 4h-.009a2 2 0 0 1-2-2Zm9.764 0a2 2 0 0 1 2-2h.01a2 2 0 1 1 0 4h-.01a2 2 0 0 1-2-2Zm9.765 0a2 2 0 0 1 2-2h.01a2 2 0 0 1 0 4h-.01a2 2 0 0 1-2-2Zm9.765 0a2 2 0 0 1 2-2h.009a2 2 0 1 1 0 4h-.009a2 2 0 0 1-2-2Zm9.764 0a2 2 0 0 1 2-2h.01a2 2 0 1 1 0 4h-.01a2 2 0 0 1-2-2Zm9.765 0a2 2 0 0 1 2-2h.01a2 2 0 0 1 1.434 3.394 1.994 1.994 0 0 1-1.439.611c-.573 0-1.09-.241-1.454-.627a1.995 1.995 0 0 1-.551-1.378Zm10 0a2 2 0 0 1 2-2h.01a2 2 0 1 1 0 4h-.01a2 2 0 0 1-2-2Zm10 0a2 2 0 0 1 2-2h.01a2 2 0 1 1 0 4h-.01a2 2 0 0 1-2-2Zm10 0a2 2 0 0 1 2-2h.01a2 2 0 1 1 0 4h-.01a2 2 0 0 1-2-2Zm10 0a2 2 0 0 1 2-2h.01a2 2 0 1 1 0 4h-.01a2 2 0 0 1-2-2Zm10 0a2 2 0 0 1 2-2h.01a2 2 0 1 1 0 4h-.01a2 2 0 0 1-2-2Zm10 0a2 2 0 0 1 2-2h.01a2 2 0 1 1 0 4h-.01a2 2 0 0 1-2-2Zm10 0a2 2 0 0 1 2-2h.01a2 2 0 1 1 0 4h-.01a2 2 0 0 1-2-2Zm10 0a2 2 0 0 1 2-2h.01a2 2 0 1 1 0 4h-.01a2 2 0 0 1-2-2Zm10 0a2 2 0 0 1 2-2h.01a2 2 0 1 1 0 4h-.01a2 2 0 0 1-2-2Zm10 0a2 2 0 0 1 2-2h.01a2 2 0 1 1 0 4h-.01a2 2 0 0 1-2-2Zm10 0a2 2 0 0 1 2-2h.01a2 2 0 1 1 0 4h-.01a2 2 0 0 1-2-2Zm10 0a2 2 0 0 1 2-2h.01a2 2 0 1 1 0 4h-.01a2 2 0 0 1-2-2Zm10 0a2 2 0 0 1 2-2h.01a2 2 0 1 1 0 4h-.01a2 2 0 0 1-2-2Zm10 0a2 2 0 0 1 2-2h.01a2 2 0 1 1 0 4h-.01a2 2 0 0 1-2-2Zm10 0a2 2 0 0 1 2-2h.01a2 2 0 1 1 0 4h-.01a2 2 0 0 1-2-2Zm10 0a2 2 0 0 1 2-2h.01a2 2 0 1 1 0 4h-.01a2 2 0 0 1-2-2Zm10 0a2 2 0 0 1 2-2h.01a2 2 0 1 1 0 4h-.01a2 2 0 0 1-2-2Zm10 0a2 2 0 0 1 2-2h.01a2 2 0 1 1 0 4h-.01a2 2 0 0 1-2-2Zm10 0a2 2 0 0 1 2-2h.01a2 2 0 1 1 0 4h-.01a2 2 0 0 1-2-2Zm10 0a2 2 0 0 1 2-2h.01a2 2 0 1 1 0 4h-.01a2 2 0 0 1-2-2Zm10 0a2 2 0 0 1 2-2h.01a2 2 0 1 1 0 4h-.01a2 2 0 0 1-2-2Zm10 0a2 2 0 0 1 2-2h.01a2 2 0 1 1 0 4h-.01a2 2 0 0 1-2-2Zm10 0a2 2 0 0 1 2-2h.01a2 2 0 1 1 0 4h-.01a2 2 0 0 1-2-2Zm10 0a2 2 0 0 1 2-2h.01a2 2 0 1 1 0 4h-.01a2 2 0 0 1-2-2Zm10 0a2 2 0 0 1 2-2h.01a2 2 0 1 1 0 4h-.01a2 2 0 0 1-2-2Zm10 0a2 2 0 0 1 2-2h.01a2 2 0 1 1 0 4h-.01a2 2 0 0 1-2-2Zm10 0a2 2 0 0 1 2-2h.01a2 2 0 1 1 0 4h-.01a2 2 0 0 1-2-2Zm10 0a2 2 0 0 1 2-2h.01a2 2 0 1 1 0 4h-.01a2 2 0 0 1-2-2Zm10 0a2 2 0 0 1 2-2h.01a2 2 0 1 1 0 4h-.01a2 2 0 0 1-2-2Zm10 0a2 2 0 0 1 2-2h.01a2 2 0 1 1 0 4h-.01a2 2 0 0 1-2-2Zm10 0a2 2 0 0 1 2-2h.01a2 2 0 1 1 0 4h-.01a2 2 0 0 1-2-2Zm10.558 1.386a2 2 0 0 1 1.442-3.386h.01a2 2 0 0 1 1.459 3.368 1.995 1.995 0 0 1-1.464.637 1.996 1.996 0 0 1-1.447-.619ZM542.76 833a2 2 0 0 1 2-2h.009a2 2 0 1 1 0 4h-.009a2 2 0 0 1-2-2Zm9.764 0a2 2 0 0 1 2-2h.01a2 2 0 1 1 0 4h-.01a2 2 0 0 1-2-2Zm9.765 0a2 2 0 0 1 2-2h.01a2 2 0 0 1 0 4h-.01a2 2 0 0 1-2-2Zm9.764 0a2 2 0 0 1 2-2h.01a2 2 0 1 1 0 4h-.01a2 2 0 0 1-2-2Zm9.765 0a2 2 0 0 1 2-2h.01a2 2 0 0 1 0 4h-.01a2 2 0 0 1-2-2Zm9.765 0a2 2 0 0 1 2-2h.009a2 2 0 1 1 0 4h-.009a2 2 0 0 1-2-2Zm9.764 0a2 2 0 0 1 2-2h.01a2 2 0 0 1 0 4h-.01a2 2 0 0 1-2-2Zm9.765 0a2 2 0 0 1 2-2h.009a2 2 0 1 1 0 4h-.009a2 2 0 0 1-2-2Zm9.764 0a2 2 0 0 1 2-2h.01a2 2 0 1 1 0 4h-.01a2 2 0 0 1-2-2Zm9.765 0a2 2 0 0 1 2-2h.01a2 2 0 0 1 0 4h-.01a2 2 0 0 1-2-2Zm9.764 0a2 2 0 0 1 2-2h.01a2 2 0 1 1 0 4h-.01a2 2 0 0 1-2-2Zm9.765 0a2 2 0 0 1 2-2h.01a2 2 0 0 1 0 4h-.01a2 2 0 0 1-2-2Zm9.765 0a2 2 0 0 1 2-2h.009a2 2 0 1 1 0 4h-.009a2 2 0 0 1-2-2Zm9.764 0a2 2 0 0 1 2-2h.01a2 2 0 0 1 0 4h-.01a2 2 0 0 1-2-2Zm9.765 0a2 2 0 0 1 2-2h.009a2 2 0 1 1 0 4h-.009a2 2 0 0 1-2-2Zm9.764 0a2 2 0 0 1 2-2h.01a2 2 0 1 1 0 4h-.01a2 2 0 0 1-2-2Zm9.765 0a2 2 0 0 1 2-2h.009a2 2 0 1 1 .001 4h-.01a2 2 0 0 1-2-2ZM535 841.307a2 2 0 0 1 2 2v.011a2 2 0 0 1-4 0v-.011a2 2 0 0 1 2-2Zm-320 0a2 2 0 0 1 2 2v.011a2 2 0 0 1-4 0v-.011a2 2 0 0 1 2-2Zm0 10.313a2 2 0 0 1 2 2v.01a2 2 0 1 1-4 0v-.01a2 2 0 0 1 2-2Zm320 0a2 2 0 0 1 2 2v.01a2 2 0 1 1-4 0v-.01a2 2 0 0 1 2-2Zm-320 10.312a2 2 0 0 1 2 2v.011a2 2 0 0 1-4 0v-.011a2 2 0 0 1 2-2Zm322 2v.011a2 2 0 0 1-4 0v-.011a2 2 0 0 1 4 0Zm-322 8.313a2 2 0 0 1 2 2v.01a2 2 0 1 1-4 0v-.01a2 2 0 0 1 2-2Zm320 0a2 2 0 0 1 2 2v.01a2 2 0 1 1-4 0v-.01a2 2 0 0 1 2-2Zm-320 10.312a2 2 0 0 1 2 2v.011a2 2 0 0 1-4 0v-.011a2 2 0 0 1 2-2Zm320 0a2 2 0 0 1 2 2v.011a2 2 0 0 1-4 0v-.011a2 2 0 0 1 2-2ZM215 892.87a2 2 0 0 1 2 2v.01a2 2 0 1 1-4 0v-.01a2 2 0 0 1 2-2Zm322 2v.01a2 2 0 1 1-4 0v-.01a2 2 0 1 1 4 0Zm-324 10.323v-.011a2 2 0 0 1 4 0v.011a2 2 0 0 1-4 0Zm322-2.011a2 2 0 0 1 2 2v.011a2 2 0 0 1-4 0v-.011a2 2 0 0 1 2-2Zm0 10.313a2 2 0 0 1 2 2v.01a2 2 0 1 1-4 0v-.01a2 2 0 0 1 2-2Zm-320 0a2 2 0 0 1 2 2v.01a2 2 0 1 1-4 0v-.01a2 2 0 0 1 2-2Zm-2 12.323v-.011a2 2 0 0 1 4 0v.011a2 2 0 0 1-4 0Zm322-2.011a2 2 0 0 1 2 2v.011a2 2 0 0 1-4 0v-.011a2 2 0 0 1 2-2ZM215 934.12a2 2 0 0 1 2 2v.01a2 2 0 1 1-4 0v-.01a2 2 0 0 1 2-2Zm322 2v.01a2 2 0 1 1-4 0v-.01a2 2 0 1 1 4 0Zm-322 8.312a2 2 0 0 1 2 2v.011a2 2 0 0 1-4 0v-.011a2 2 0 0 1 2-2Zm320 0a2 2 0 0 1 2 2v.011a2 2 0 0 1-4 0v-.011a2 2 0 0 1 2-2Zm-320 10.313a2 2 0 0 1 2 2v.01a2 2 0 1 1-4 0v-.01a2 2 0 0 1 2-2Zm320 0a2 2 0 0 1 2 2v.01a2 2 0 1 1-4 0v-.01a2 2 0 0 1 2-2Zm-320 10.312a2 2 0 0 1 2 2v.011a2 2 0 0 1-4 0v-.011a2 2 0 0 1 2-2Zm320 0a2 2 0 0 1 2 2v.011a2 2 0 0 1-4 0v-.011a2 2 0 0 1 2-2ZM215 975.37a2 2 0 0 1 2 2v.01a2 2 0 1 1-4 0v-.01a2 2 0 0 1 2-2Zm320 0a2 2 0 0 1 2 2v.01a2 2 0 1 1-4 0v-.01a2 2 0 0 1 2-2Zm-320 10.312a2 2 0 0 1 2 2v.011a2 2 0 0 1-4 0v-.011a2 2 0 0 1 2-2Zm320 0a2 2 0 0 1 2 2v.011a2 2 0 0 1-4 0v-.011a2 2 0 0 1 2-2Zm-320 10.313a2 2 0 0 1 2 2v.01a2.01 2.01 0 0 1-2 2.005c-1.104 0-2-.9-2-2.004v-.011a2 2 0 0 1 2-2Zm320 0a2 2 0 0 1 2 2v.011a2.004 2.004 0 0 1-2.001 2.004 2.01 2.01 0 0 1-1.999-2.005v-.01a2 2 0 0 1 2-2Zm-318.327 10.275a1.99 1.99 0 0 1 2.732.73h.005a2.01 2.01 0 0 1-.729 2.74c-.956.55-2.179.22-2.733-.73l-.005-.01a1.996 1.996 0 0 1 .73-2.73Zm316.654 0c.956.55 1.283 1.77.73 2.73l-.005.01a2.009 2.009 0 0 1-2.733.73 2.008 2.008 0 0 1-.729-2.74h.005a1.99 1.99 0 0 1 2.732-.73Zm-6.59 8.05c.553.95.227 2.18-.729 2.73l-.01.01c-.956.55-2.179.22-2.732-.73a2.01 2.01 0 0 1 .73-2.74h.008a2 2 0 0 1 2.733.73Zm-303.474 0a2 2 0 0 1 2.733-.73h.008a2.01 2.01 0 0 1 .73 2.74 2.007 2.007 0 0 1-2.732.73l-.01-.01a1.998 1.998 0 0 1-.729-2.73Zm9.732 3.68c0-1.11.896-2 2-2h.01c1.105 0 2 .9 2 2s-.895 2-2 2h-.011c-1.104 0-2-.9-1.999-2Zm10 0c0-1.1.895-2 2-2h.01c1.105 0 2 .9 2 2s-.895 2-2 2h-.01c-1.105 0-2-.9-2-2Zm10 0c0-1.1.895-2 2-2h.01c1.105 0 2 .9 2 2s-.895 2-2 2h-.01c-1.105 0-2-.9-2-2Zm10 0c0-1.1.895-2 2-2h.01c1.105 0 2 .9 2 2s-.895 2-2 2h-.01c-1.105 0-2-.9-2-2Zm10 0c0-1.1.895-2 2-2h.01c1.105 0 2 .9 2 2s-.895 2-2 2h-.01c-1.105 0-2-.9-2-2Zm10 0c0-1.1.895-2 2-2h.01c1.105 0 2 .9 2 2s-.895 2-2 2h-.01c-1.105 0-2-.9-2-2Zm10 0c0-1.1.895-2 2-2h.01c1.105 0 2 .9 2 2s-.895 2-2 2h-.01c-1.105 0-2-.9-2-2Zm10 0c0-1.1.895-2 2-2h.01c1.105 0 2 .9 2 2s-.895 2-2 2h-.01c-1.105 0-2-.9-2-2Zm10 0c0-1.1.895-2 2-2h.01c1.105 0 2 .9 2 2s-.895 2-2 2h-.01c-1.105 0-2-.9-2-2Zm10 0c0-1.1.895-2 2-2h.01c1.104 0 2 .9 2 2s-.896 2-2 2h-.01c-1.105 0-2-.9-2-2Zm10 0c0-1.1.895-2 2-2h.01c1.105 0 2 .9 2 2s-.895 2-2 2h-.01c-1.105 0-2-.9-2-2Zm10 0c0-1.1.895-2 2-2h.01c1.104 0 2 .9 2 2s-.896 2-2 2h-.01c-1.105 0-2-.9-2-2Zm10 0c0-1.1.895-2 2-2h.01c1.105 0 2 .9 2 2s-.895 2-2 2h-.01c-1.105 0-2-.9-2-2Zm10 0c0-1.1.895-2 2-2h.01c1.105 0 2 .9 2 2s-.895 2-2 2h-.01c-1.105 0-2-.9-2-2Zm10 0c0-1.1.895-2 2-2h.01c1.105 0 2 .9 2 2s-.895 2-2 2h-.01c-1.105 0-2-.9-2-2Zm10 0c0-1.1.895-2 2-2h.01c1.105 0 2 .9 2 2s-.895 2-2 2h-.01c-1.105 0-2-.9-2-2Zm10 0c0-1.1.895-2 2-2h.01c1.105 0 2 .9 2 2s-.895 2-2 2h-.01c-1.105 0-2-.9-2-2Zm10 0c0-1.1.895-2 2-2h.01c1.105 0 2 .9 2 2s-.895 2-2 2h-.01c-1.105 0-2-.9-2-2Zm10 0c0-1.1.895-2 2-2h.01c1.105 0 2 .9 2 2s-.895 2-2 2h-.01c-1.105 0-2-.9-2-2Zm10 0c0-1.1.895-2 2-2h.01c1.105 0 2 .9 2 2s-.895 2-2 2h-.01c-1.105 0-2-.9-2-2Zm10 0c0-1.1.895-2 2-2h.01c1.105 0 2 .9 2 2s-.895 2-2 2h-.01c-1.105 0-2-.9-2-2Zm10 0c0-1.1.895-2 2-2h.01c1.105 0 2 .9 2 2s-.895 2-2 2h-.01c-1.105 0-2-.9-2-2Zm10 0c0-1.1.895-2 2-2h.01c1.105 0 2 .9 2 2s-.895 2-2 2h-.01c-1.105 0-2-.9-2-2Zm10 0c0-1.1.895-2 2-2h.01c1.105 0 2 .9 2 2s-.895 2-2 2h-.01c-1.105 0-2-.9-2-2Zm10 0c0-1.1.895-2 2-2h.01c1.105 0 2 .9 2 2s-.895 2-2 2h-.01c-1.105 0-2-.9-2-2Zm10 0c0-1.1.895-2 2-2h.01c1.105 0 2 .9 2 2s-.895 2-2 2h-.01c-1.105 0-2-.9-2-2Zm10 0c0-1.1.895-2 2-2h.01c1.104 0 2 .9 2 2s-.896 2-2 2h-.01c-1.105 0-2-.9-2-2Zm10 0c0-1.1.895-2 2-2h.01c1.105 0 2 .9 2 2s-.895 2-2 2h-.01c-1.105 0-2-.9-2-2Zm10 0c0-1.1.895-2 2-2h.01c1.104 0 2 .89 2 2 .001 1.1-.895 2-1.999 2h-.011c-1.105 0-2-.9-2-2Z" clip-rule="evenodd"/></svg>